<?xml version="1.0" encoding="UTF-8" standalone="no"?>
<svg xmlns:rdf="http://www.w3.org/1999/02/22-rdf-syntax-ns#" xmlns="http://www.w3.org/2000/svg" xml:space="preserve" height="111.96" width="150" version="1.1" xmlns:cc="http://creativecommons.org/ns#" xmlns:dc="http://purl.org/dc/elements/1.1/" viewBox="0 0 150 111.96423"><g><path fill="#c5c6c8" d="m67.367 0.98055c0.4746 3.8405 2.5321 8.3774 5.101 10.612 0.16127 2.9467 0.62234 5.9997 1.5623 8.8519-6.699 2.375-14.614 6.519-22.535 15.346h-17.718l-11.973 16.314h-15.882l7.1923 11.829-12.099 16.516h42.953l-2.9914 12.434 18.549 5.8964 10.022 0.0037c-0.39857 1.6611-0.62881 4.0253 2.1059 4.993l23.024 7.1673h14.068c3.3891-0.0369 7.2589-0.37583 10.781-1.8503 3.5041-1.4238 6.7531-4.3442 7.7576-8.9059l4.309-17.934 17.42-15.94h-28.975c1.0045-2.8454 0.38878-5.4969 0.38878-5.4969 4.0755-0.33176 7.8406-2.6891 8.967-6.7784 0.49533-0.37784 0.92832-0.83487 1.2923-1.3463 5.3818 1.3938 8.8122 3.1642 8.8122 3.1642s-0.74631-2.2178-1.6379-3.5494c2.4261 0.76028 6.3537 2.6747 6.3537 2.6747s-1.575-3.5983-4.0102-5.3492l2.1924 0.50398c-2.6863-4.3151-8.832-7.2543-13.391-8.6827 2.7554-5.4486-0.96921-10.998-4.5034-14.302-2.601-2.4329-6.7441-5.0794-12.027-7.1851-2.4399-2.8338-5.5982-5.1478-8.6071-7.0231-6.453-4.0239-10.849-8.1032-10.849-8.1032s-0.98361 3.3454-0.42837 5.7344c-2.528-1.5526-5.233-2.8308-8.085-3.6463-6.875-1.9559-12.489-3.5707-17.143-5.9505z"/><path fill="#4e2683" d="m71.262 5.4624c1.0206 2.1586 3.7258 4.9965 3.7258 4.9965s0.30857 6.3834 2.5595 11.53c-12.713 4.398-18.206 9.0977-24.764 16.35h-17.711l-11.976 16.314h-12.639l5.7237 9.4134-10.137 13.83h41.142l-3.193 13.283 15.925 5.0685h21.059l-1.7387 7.2356 15.821 4.9246h13.686c6.3886-0.053 14.383-1.4193 16.07-8.7872l4.4962-18.711 13.182-12.063h-27.866c-0.0207-0.03917-0.0395-0.08554-0.0648-0.1224 0 0 1.673-0.48136 2.6891-2.5018 0.96302-1.9122 0.65992-4.379 0.62997-4.6509-0.0346-0.31563-0.14255-0.36488-0.39597-0.25199-0.25343 0.11289-1.8133 0.99109-3.661 1.3643-1.433-2.3982-1.5558-4.3094-1.6595-5.7884 0.6543-0.007 2.8795 0.09215 4.3702-1.4399 1.0575 0.15897 1.8123 0.24074 2.8583 0.2016-0.023 0.22578-0.39267 1.3889-0.91795 2.1815-0.0806 0.1221-0.16113 0.31132 0.32038 0.35279 1.8593 0.17049 7.459-0.35869 8.24-5.7706 1.1404-0.60822 1.842-1.4392 2.2174-2.3723 1.9515 0.43774 3.903 0.99859 5.9073 1.8395-1.8108-1.2372-3.7367-2.2075-5.612-2.977 0.0484-0.36401 0.0626-0.73422 0.0396-1.1051 2.6356 0.52759 5.502 1.3056 8.8771 2.7178-3.1102-2.0228-6.2997-3.3913-9.1543-4.3199-0.0806-0.28338-0.17249-0.5646-0.28077-0.83876 2.7024 0.36401 5.5372 1.1547 8.5783 2.1706-2.9536-1.7763-6.1779-2.9788-9.3594-3.7437-0.68655-1.1358-1.553-2.0713-2.3938-2.5918 0 0 3.5312-3.0881-0.44997-8.8915-2.7208-3.9697-7.4196-7.8446-14.774-10.483-1.2049-1.3109-3.2584-3.3629-5.6913-5.0794-2.9582-2.0849-6.4243-3.7918-9.8202-6.5841-0.14514 2.1033 0.60116 3.5242 0.60116 3.5242s-0.34514 0.77324-0.70915 1.8215c-5.1192-4.064-11.732-6.2457-11.732-6.2457-3.981-1.3713-8.087-1.9542-12.01-3.8019z"/><path d="m78.797 12.568c0.564 2.359 1.499 5.704 3.531 8.985 1.021-0.337 2.063-0.64 3.127-0.914-3.631-3.26-6.658-8.071-6.658-8.071zm18.078 10.651c5.565 1.421 14.175 4.514 19.195 12.765 0.45 0.721 1.72 2.116 4.18 2.897 1.69 0.532 4.04 0.806 4.23-1.309 0.27-2.845-4.12-6.207-4.12-6.207s1.09 2.044-0.1 4.065c-3.15-7.11-13.95-11.769-23.385-12.211zm10.255 11.066c-0.49 0.067-0.7 0.367-0.68 0.674 0.06 1.124 1.22 2.109 2.33 2.764 0.34 0.076 0.69 0.165 1.04 0.261 0.45-0.705 0.54-1.832 0.38-2.601-0.42-0.274-0.87-0.523-1.35-0.731-0.44-0.19-0.81-0.3-1.12-0.349-0.24-0.038-0.43-0.04-0.6-0.018zm5.14 2.891c-0.55 0.875-1.5 0.957-2.05 0.918 1.71 0.479 3.32 1.043 3.32 1.043-0.13-0.45-0.59-1.185-1.27-1.961zm-42.323 0.166c-1.286-0.004-2.575 0.036-3.84 0.138 0 0 6.229 1.894 13.582 5.76 0 0-3.115 0.407-6.421 2.045 0 0 4.103 1.195 9.16 3.442 0 0-2.474 0.399-5.262 1.814 0 0 2.785 0.78 5.982 2.238 1.097 3.007 3.333 6.256 5.807 8.219-2.253-5.435-3.735-11.977-1.088-21.342 0 0-8.914-2.289-17.92-2.314zm32.023 1.806c-1.88 0.012-3.791 0.182-5.683 0.547 8.743-0.656 16.033 2.3 18.093 3.143 0 0-9.34-3.066-19.927-0.633 9.247-0.961 17.097 1.489 20.297 2.756 0 0-8.97-2.538-17.66-0.338 7.28-0.947 14.85 1.361 18 2.469 0 0-2.2-0.421-4.2-0.594 0.96 1.889 3.35 3.321 6.56 3.137 2.03-1.638 3.66-1.883 5.73-1.74-1.23-1.83-3.52-3.153-3.52-3.153s0.75-0.374 1.8-0.187c-3.65-2.557-11.33-5.456-19.49-5.407zm-64.027 4.86l-11.974 16.31h-5.434l2.453 4.041-5.767 7.87h11.584l3.779-5.676h14.1l1.08 5.676h6.617l-3.647 15.152 10.065 3.199h21.555l2.22-9.24h-11.533l-0.768 3.185h-8.607l3.219-13.357-3.01-2.758h12.271l-0.716 2.998h11.531l2.178-9.056h-22.741c-2.976 0-6.643 0.111-8.869 1.712l-4.445-20.056h-15.141zm88.197 0.471c-0.42 0.26-0.86 0.75-0.86 0.75s0.34 0.408 0.54 0.96c0 0-0.72 1.121-1.74 1.879 0 0 1.08 1.424 0.91 2.823 0 0 1.95-0.961 2.27-2.77 0.34-1.903-1.12-3.642-1.12-3.642zm-26.943 3.115s-5.201 5.618-0.439 10.924c0.502 0.55 1.039 1.079 1.602 1.584-0.636-1.399-1.404-4.026-1.577-5.719-0.357-3.525 0.414-6.789 0.414-6.789zm4.373 1.572s-1.25 0.935-1.26 2.258c-0.01 1.325 0.67 4.934 7.67 8.217-1.08-1.919-1.73-4.784-1.53-6.383 0.19-1.535-0.81-2.223-0.81-2.223-0.1 1.684-1.31 2.598-1.31 2.598 0.23-3.014-2.76-4.467-2.76-4.467zm10.09 1.486c0.14 0.952 0.14 2.314-1.05 4.075 0 0 3.06-0.165 3.81-2.789 0.32 0.605 0.38 1.4 0.38 1.4s0.86-0.064 1.19-1.029c0.26 0.518 0.29 1.298 0.29 1.298s0.9-0.1 1.22-1.017c0.33 0.569 0.34 1.226 0.34 1.226s0.75-0.133 1.06-1.004c0.34 0.427 0.33 1.153 0.33 1.153s0.85-0.332 1.11-0.998c-0.01 0.827-0.41 1.861-1.11 2.84 0 0 2.8-0.512 3.45-3.03-5.94-0.248-9.79-1.595-11.02-2.125zm-76.351 0.957h6.543l1.66 8.723h-8.783l3.818-5.744-3.238-2.979zm72.211 9.543s-1.74 1.813-5.87 1.491c0 0 3.71 2.623 8.9 4.496 3.16-1.353 3.18-2.815 3.18-2.815-1.09 0.415-2.09 0.542-2.97 0.565-0.85 0.025-1.03 1.07-1.03 1.07s-0.22-0.265-0.24-0.811c-0.83-0.313-1.53-0.695-1.88-0.9-0.58 0.336-0.99 0.238-0.99 0.238 1.31-1.423 0.9-3.334 0.9-3.334zm-6.91 3.385c0.92 1.613 2.65 3.33 7.01 5.164 0.72-0.219 1.41-0.484 1.87-0.676-4.81-1.794-7.61-3.564-8.88-4.488zm-13.456 9.975l2.063 3.386-5.227 21.75 9.936 3.092h12.824c3.81 0 9.55-0.25 10.56-4.441l4.9-20.399 3.7-3.388h-14.76l-5.4 22.506h-9.254l5.404-22.506h-14.746z" fill="#fff" transform="translate(-.0028382)"/></g><script xmlns=""/></svg>