<?xml version="1.0" encoding="UTF-8" standalone="no"?>
<svg xmlns:rdf="http://www.w3.org/1999/02/22-rdf-syntax-ns#" xmlns="http://www.w3.org/2000/svg" xml:space="preserve" height="199.97" width="102" version="1.1" xmlns:cc="http://creativecommons.org/ns#" xmlns:dc="http://purl.org/dc/elements/1.1/" viewBox="0 0 102 199.97231"><g><path fill="#8e0c3a" d="m51.087 0.90924-0.276 0.53876c-0.11374 0.21174-2.4465 4.7007-5.1374 10.403-0.78889 1.6758-1.6139 3.6168-2.4293 5.837-2.4828 6.7552-6.1378 18.609-7.2171 30.992l-0.06144 0.7515 0.57661-0.48209c0.0024-0.0024 5.4266-4.4916 7.2077-5.9411 0.22505 6.4829 0.46791 11.639 0.46791 19.699 0 7.538-0.21431 17.614-0.85074 33.675l-0.10398 1.7062c-0.56142-0.22989-1.5502-0.74676-1.5502-0.74676-0.0121 0-1.8871-0.92428-2.2356-1.2147-0.43316-0.33879-0.79157-0.65514-0.99726-1.0351-0.16697-0.32669-0.24845-0.59972-0.33557-1.0256-0.14519-0.66063-0.42382-1.3441-0.59079-2.1741-1.8972-9.3578-6.5862-22.545-9.8071-29.385 2.7611 1.1301 6.7825 3.3203 8.9943 4.6271l0.7704 0.45845-0.32139-0.8413c-0.016-0.045-7.689-20.352-35.211-32.123l-0.8892-0.378 0.4963 0.828c0.00605 0.01452 3.3857 5.6565 7.2031 13.059 3.8142 7.4001 8.0624 16.552 9.7742 23.485 1.5882 6.4418 6.4894 27.304 6.4846 44.981 0 1.7738-0.05181 3.5168-0.1607 5.2132l0.59551 0.16542c0.0024-0.005 0.9365-1.815 2.1174-3.9275 0.997-1.7931 2.1834-3.808 3.1004-5.0808l5.8419 46.068 0.62388-0.0237 2.2025-34.484 11.409 74.351h0.61916l11.405-74.351 2.2072 34.484 0.62387 0.0237 5.837-46.068c0.91714 1.2753 2.1081 3.2877 3.1101 5.0808 1.1761 2.1126 2.1127 3.9227 2.1127 3.9275l0.59079-0.16542c-0.1089-1.6964-0.15596-3.4392-0.15596-5.2178 0-17.675 4.8972-38.534 6.4846-44.976 1.7157-6.933 5.9675-16.085 9.7837-23.485 3.8186-7.4025 7.1864-13.044 7.1936-13.059l0.50092-0.82761-0.89294 0.3775c-27.522 11.769-35.201 32.074-35.215 32.12l-0.31667 0.83656 0.77512-0.45373c2.2094-1.3067 6.2213-3.497 8.98-4.6271-3.216 6.8386-7.9053 20.026-9.8025 29.385-0.16455 0.83003-0.44572 1.5135-0.58608 2.1741-0.09196 0.4259-0.17089 0.69894-0.34029 1.0256-0.20085 0.37992-0.57378 0.6963-0.99726 1.0351-0.34605 0.29039-2.219 1.21-2.2214 1.21-0.0097 0.0073-0.42428 0.2243-0.87438 0.43483-0.22747 0.11132-0.46336 0.22505-0.65696 0.30249-0.0121 0.0024-0.02347 0.0094-0.03308 0.01428l-0.104-1.711c-0.634-16.058-0.846-26.132-0.846-33.67 0-8.0607 0.24044-13.217 0.46791-19.699 1.781 1.4495 7.1982 5.9411 7.2031 5.9411l0.58133 0.49153-0.06616-0.76094c-1.081-12.384-4.736-24.234-7.217-30.988-0.813-2.221-1.64-4.166-2.429-5.842-2.686-5.7019-5.024-10.191-5.133-10.402l-0.283-0.53857z"/><path fill="#ffc72c" d="m51.087 6.6375-0.07562 0.13707c-2.144 3.7387-3.7508 8.2833-5.0431 11.447-0.89778 2.2171-1.6461 4.3766-2.297 6.579-1.5318 5.2004-2.5547 10.669-3.9655 17.875l-0.06616 0.34029 0.24576-0.24105c0.27587-0.27103 0.53949-0.51885 0.81294-0.76568 1.1374-1.0406 2.2541-1.9278 3.2802-2.6563 0.74533-0.53722 1.4365-0.98139 2.056-1.3565 1.1785-0.71387 2.095-1.154 2.5474-1.3234-0.33153 0.33637-1.4645 1.4948-2.1978 2.245l-0.02836 0.03308v0.04254 0.0048c-0.0048 2.3667 0.01815 5.5014 0.04726 9.1361 0.09438 10.969 0.22781 28.911-0.31667 42.404-0.10406 2.5433-0.23512 4.9289-0.38757 7.0801-0.05808 0.73323-0.10965 1.4446-0.17014 2.1221-0.04356 0.54448-0.15207 0.93771-0.51989 1.3612-0.03146 0.0339-0.04878 0.075-0.08508 0.10399-0.4017 0.42348-0.86446 0.51045-1.1863 0.51045h-0.02836c-0.33395-0.01-0.6033-0.10205-0.77512-0.18432l-2.0158-0.91957-4.2445-1.9335c-0.16455-0.09438-0.57903-0.32857-0.8791-0.72786-0.25651-0.33879-0.43014-0.62704-0.52935-1.0965-0.13793-0.66063-0.29806-1.46-0.48681-2.3868-1.6286-8.0583-4.9393-24.38-9.8734-33.482-0.22989-0.42348-0.8715-1.5258-1.1958-2.0654 0 0 1.5762 0.44681 2.3868 0.74204 2.2989 0.83728 4.6489 1.9805 6.3428 2.779l-1.547-1.84-0.02-0.019c-6.531-9.034-11.554-13.661-20.063-18.174-0.9556-0.508-1.9402-1.013-2.9869-1.526l-0.3544-0.17 0.2079 0.326c13.902 21.227 17.538 44.734 20.299 67.713l0.08034 0.67114 3.0909-2.6892 14.061 7.1699 0.02372 7.9213h5.8559 5.8608l0.02836-7.9213 14.066-7.1699 3.0863 2.6892 0.08034-0.67114c2.7635-22.979 6.3951-46.486 20.295-67.714l0.21268-0.32613-0.34975 0.17014c-1.0478 0.51302-2.0359 1.0184-2.9917 1.5266-8.5084 4.5131-13.534 9.1395-20.068 18.173l-0.01428 0.01888-1.5455 1.8338c1.6891-0.79857 4.0366-1.9418 6.3428-2.779 0.80583-0.29523 2.3821-0.74204 2.3821-0.74204-0.32669 0.53964-0.9683 1.642-1.1958 2.0654-4.9318 9.1012-8.24 25.423-9.8734 33.482-0.18391 0.92682-0.34646 1.7262-0.48681 2.3868-0.09438 0.46946-0.26812 0.75772-0.52463 1.0965-0.30007 0.39928-0.71455 0.63348-0.8791 0.72786l-4.2443 1.9331-2.0229 0.92164c-0.16939 0.0823-0.44592 0.17464-0.77986 0.18432h-0.01888c-0.32185 0-0.79419-0.087-1.191-0.51045-0.0363-0.029-0.04888-0.0701-0.08034-0.10398-0.36782-0.42349-0.4835-0.81672-0.52463-1.3612-0.0605-0.67757-0.10977-1.3889-0.16542-2.1221-0.15729-2.1513-0.27635-4.5368-0.38283-7.0801-0.54448-13.493-0.41576-31.435-0.32139-42.404 0.02662-3.6347 0.04968-6.7694 0.04726-9.1361v-0.0048-0.04254l-0.02836-0.03308c-0.72839-0.75017-1.8711-1.9087-2.1978-2.245 0.45736 0.16939 1.3643 0.60952 2.5428 1.3234 0.6195 0.37508 1.3129 0.81926 2.0607 1.3565 1.0188 0.72839 2.1332 1.6157 3.2753 2.6563 0.26861 0.24683 0.54191 0.49465 0.81294 0.76568l0.25051 0.24105-0.06616-0.34029c-1.413-7.208-2.435-12.676-3.969-17.876-0.651-2.203-1.392-4.362-2.297-6.579-1.283-3.164-2.897-7.709-5.039-11.448l-0.08508-0.13707zm-5.8842 116.86v4.0364h5.8891 5.8891v-4.0364h-5.8891-5.8891zm1.2714 5.6055v2.9588h4.6128 4.6225v-2.9588h-1.9094-2.713-2.7035-1.9094zm-1.2572 4.5325 0.01428 0.16543 0.38757 3.8331h5.4685 5.4731l0.39229-3.8331 0.01888-0.16543h-0.02836-5.8559-5.8465-0.02371zm0.62675 5.573 5.2463 47.326 5.2512-47.326h-5.2509-5.2463z"/></g></svg>
