<svg width="82" height="72" viewBox="0 0 82 72" xmlns="http://www.w3.org/2000/svg"><g fill="none" fill-rule="evenodd"><path d="M62.393 21.02v3.554l-1.776-3.553h1.776zm-42.606 0h1.776l-1.776 3.554v-3.553zm21.234 37.85c-10.522 0-13.96-1.452-17.67-3.504-.31-.171-.584-.342-.843-.513H33.52V43.328h-6.7l2.973-5.262h23.273l3.013 5.417h-7.531v11.37h10.987c-.26.17-.534.342-.843.513-3.71 2.052-7.149 3.505-17.67 3.505zm.373-41.296l5.031 8.813H36.29l5.105-8.813zm40.52 3.44V9.49H56.578v4.845L48.49.052H33.577l-8.112 14.326V9.49H.128v11.525H5.23s-.003 14.065-.008 22.468H.372v11.37h5.085c.501 3.16 1.924 6.597 5.817 9.452 6.161 4.522 13.578 7.533 29.747 7.533 16.17 0 23.587-3.011 29.748-7.533 3.256-2.388 4.76-6.275 5.455-9.452h5.471v-11.37H76.82V21.015h5.096z" fill="#FFFFFE"/><path d="M59.812 57.374c-4.176 2.31-8.12 3.794-18.79 3.794-10.672 0-14.616-1.484-18.791-3.794-1.452-.803-2.466-1.644-3.181-2.52H7.802c.487 2.615 1.734 5.324 4.84 7.603 5.877 4.311 12.76 7.083 28.38 7.083s22.502-2.772 28.379-7.083c3.105-2.28 4.353-4.988 4.84-7.604H62.993c-.716.877-1.73 1.718-3.181 2.52M64.607 18.41v10.106l8.474 14.967h1.423V18.718h5.104v-6.93H58.884v6.622h5.723M17.436 28.559v-10.15h5.723v-6.621H2.435v6.93h5.103v24.765h1.449l8.45-14.924" fill="#F26522"/><path d="M32.296 28.684H50.39l-8.983-15.733-9.112 15.733M47.142 2.35l24.591 43.43h7.655v6.777H50.854v-6.777h9.14l-5.568-10.01H28.444l-5.568 9.857h8.337v6.93H2.679v-6.777h7.655l24.59-43.43h12.218M76.4 62.936v-.702h.468c.24 0 .495.052.495.333 0 .348-.26.369-.552.369h-.412zm0 .29h.395l.599.977h.385l-.646-.993c.334-.04.589-.217.589-.623 0-.447-.266-.643-.802-.643h-.865v2.259h.344v-.977zm.416 1.802c1.072 0 1.984-.825 1.984-1.958 0-1.126-.912-1.95-1.984-1.95-1.086 0-2.002.824-2.002 1.95 0 1.133.916 1.958 2.002 1.958zm-1.61-1.958c0-.93.708-1.626 1.61-1.626.89 0 1.59.696 1.59 1.626 0 .941-.7 1.634-1.59 1.634-.902 0-1.61-.693-1.61-1.634z" fill="#F26522"/></g><script xmlns=""/></svg>