<svg xmlns="http://www.w3.org/2000/svg" height="288.76" width="250.66" viewBox="0 0 250.65419 288.75504">
 <g>
  <path fill="#ffb81c" d="m187.56 113.04v36.15h11.017v91.649l-7.2951 7.2951h-67.616l-7.2951-7.2951v-44.855h30.249l32.814-32.804v-62.826l-13.77-13.77 10.736-12.619v-38.788l-28.661-33.7h-146.69v40.115h14.728v114.28h-14.728v40.109h75.202v61.467l30.793 30.788h100.85l30.788-30.788v-108.26h11.023v-36.15h-62.149zm-131.67-71.443h73.31l7.0859 8.3302v9.2882l-7.0859 8.3302h-73.31v-25.949zm20.366 107.59v6.684h-20.366v-48.214h74.113l9.3158 9.3102v29.593l-9.3158 9.3102h-13.632v-6.684h11.017v-36.15h-62.155v36.15h11.023z"/>
  <path fill="#154734" d="m7.5329 7.9679v27.145h14.725l-0.0014 127.26h-14.725l0.0007169 27.142h136.39l29.02-29.02v-57.449l-16.101-16.099 13.062-15.36v-34.02l-25.17-29.593-137.2 0.0004zm41.867 27.144h82.79l10.577 12.431v14.058l-10.577 12.431h-82.79v-38.92zm0 66.063h83.29l13.116 13.109v34.964l-13.116 13.119h-83.29v-61.193zm22.318 18.348v23.184h11.023v13.165h27.143v-13.165h11.017v-23.184h-49.183zm122.32 0v23.184h11.026v100.81l-11.112 11.098h-72.976l-11.096-11.098v-47.53h-27.143v58.771l26.995 26.998h95.475l26.998-26.998v-112.05h11.012v-23.184h-49.179z"/>
 </g>
</svg>
