<svg xmlns="http://www.w3.org/2000/svg" height="206.29" width="250" viewBox="0 0 249.99782 206.29217"><g transform="matrix(2.2952 0 0 2.2952 -7.5629 -7.5097)"><path d="m57.123 4.1743 3 3.3222c-20.544-1.8975-33.507 3.9465-33.507 3.9465 5.374 1.264 9.644 3.48 9.644 3.48-22.131 9.643-31.936 23.558-31.936 23.558h8.625c-3.7125 4.8657-6.0282 10.21-6.75 15.716-1.0931 8.2988 1.5468 16.952 7.4268 23.696 7.9856 9.1688 20.982 14.654 35.631 14.654 23.994 0 37.851-12.665 37.851-12.665l-3.339-1.107c-20.966-6.9135-25.764-21.92-26.37-24.102 5.5143 1.0331 11.265-0.07032 11.265-0.07032 6.1632 2.8388 13.113 7.8984 13.113 7.8984 1.425 2.535 3.1634 6.4878 12.334 5.5371 9.165-0.94875 9.8028-4.4268 9.8028-4.4268 3.4725-0.78938 5.6924-4.5836 5.6924-5.5342 0-0.94688 1.1045-5.0566 1.1045-5.0566 3.6338-8.3793-5.5342-11.224-5.5342-11.224-1.1044-0.4725-9.5127-9.0615-9.5127-9.0615 1.1569-6.945-5.0566-10.046-5.0566-10.046-2.058-16.6-20.368-16.618-20.368-16.618l3.1641 3.3164c-8.85-3.3164-16.28-5.2143-16.28-5.2143z" stroke="#FA4616" stroke-width=".5625" fill="#FA4616"/><path d="m63.66 8.2559c0.71511 0.78652 1.4258 2.2461 1.4258 2.2461-15.868-3.8232-31.457 0.9375-31.457 0.9375 1.4062 0.36375 3.5937 1.4022 5.3262 2.2891l8.4551 0.60352c-4.08 0.47625-8.0115 1.5871-11.713 3.0703-10.71 4.636-18.842 11.246-23.226 15.326-2.34 2.19-3.6585 3.662-3.6585 3.662l4.752-0.08008c12.564-14.113 30.975-17.25 30.975-17.25s-16.463 5.4626-27.391 17.191l0.09766-0.002c-2.8312 2.955-5.1126 6.1685-6.7363 9.6035-0.231 0.487-0.5422 1.207-0.5647 1.271-0.9787 2.34-1.6545 4.771-1.9863 7.291-2.5368 19.26 15.96 36.105 41.312 36.352 5.7862 0.05625 11.531-0.77751 16.875-2.2793-22.152-13.651-19.828-31.374-19.828-31.374s0.7388 2.4526 2.5332 5.8594c3.405 6.2232 10.895 16.61 26.139 22.262 1.035-0.462 4.4491-2.0856 8.2246-4.7676-23.913-8.4015-27.4-24.486-27.4-24.486-8.4038 0.02438-11.545-4.2288-12.055-4.9375-0.04125-0.06375-0.07031-0.10156-0.07031-0.10156-4.4232 4.6238-4.9023 10.428-4.9023 10.428-0.71062-7.4138 1.2587-12.337 2.877-15.033-1.1775-4.0893 0.62109-8.2109 0.62109-8.2109s-0.29012 2.1945 1.0898 5.3203c0.0825 0.19125 0.18164 0.38086 0.18164 0.38086 5.2893 11.199 25.602 8.668 25.602 8.668 5.2875 2.3532 14.393 8.6289 14.393 8.6289 0.96562 4.3407 6.0605 5.1934 6.0605 5.1934s11.684-0.1156 12.727-4.3906c4.1007-0.78188 5.209-4.416 5.209-4.416 0.11062-1.08 1.666-6.9668 1.666-6.9668 1.3256-5.0043-5.0723-6.9805-5.0723-6.9805s-7.3979-6.8475-11.098-10.445c0 0 2.7978-5.1092-4.5879-9.4688 0-3.525-1.3095-10.313-12.525-14.18 0 0-1.9326-0.60047-0.17578 0.31641 4.1382 2.16 10.329 6.352 9.5449 14.707 0 0 8.4805 4.0081 2.3418 6.7793 7.6632 6.4518 14.437 14.359 14.437 14.359 5.8893 1.3556 4.6113 3.998 4.6113 3.998 0.0619 0.9675-0.55217 3.0705-0.63281 4.8574-0.075 1.7832-2.359 4.9754-1.834 2.2773 0.53063-2.7-0.15039-3.416-0.15039-3.416s0.31962 1.537-1.4785 3.7383c-1.7962 2.2088-0.94336-0.19727-0.94336-0.19727 3.1632-9.24-4.7116-9.8455-6.3672-9.8848-1.6612-0.0375-2.3613-1.6113-2.3613-1.6113-3.7593-5.4993-12.574-11.256-12.574-11.256 2.5368-0.40875 3.3516-2.4414 3.3516-2.4414-2.3512 0.99-5.8893 1.1852-8.9023-2.3867-3.0282-3.5757-7.9102-4.459-7.9102-4.459 4.1512-6.6243-4.5766-9.3646-9.4629-9.5801-4.89-0.21562-6.1875-3.0801-6.1875-3.0801 3.3862 2.2688 5.628 1.5331 14.057 2.7969 8.43 1.2562 5.2305 8.5625 5.2305 8.5625 4.32 0.48375 7.5527 3.1172 7.5527 3.1172s3.9639 3.7434 4.7402 0.16406c1.884-8.709-6.024-13.359-6.024-13.359-4.29-2.472-13.135-5.2151-13.135-5.2151zm-7.5 8.4375c2.725 0.492 5.7102 1.2789 7.7012 2.9648 0.97899 1.138 1.546 2.608 1.041 4.25l-0.77344-0.61133c-0.981-0.784-2.7551-0.1515-3.9121 0.1875-0.191-1.537-0.84043-3.0153-1.9824-3.8613 0.938 0.171 1.669 0.69642 2.332 1.2324 0.143 0.031 0.21478-0.09559 0.30078-0.18359-0.641-1.851-2.963-3.0745-4.707-3.9785zm19.695 21.6c1.418 1.061 2.1445 2.7521 2.1035 4.6641 3.272 1.794 8.5774 5.3626 10.902 7.9746l-1.7969-1.3594c-2.458-1.2-6.9-4.4481-9.5859-5.1211l-0.64453 0.83594c-1.543 1.359-3.2438 2.444-5.3438 2.873 1.75-0.883 3.2737-2.6332 4.2227-4.3242 0.945-1.95 1.0806-3.983 0.14258-5.543zm-40.186 4.2773c0 0.000001-8.0926 24.234 9.3223 41.877-7.279-0.348-13.26-3.4805-13.26-3.4805-7.128-21.51 3.9375-38.396 3.9375-38.396zm60.92 8.1035c1.828 0.225 3.0157 1.6762 3.3457 2.9082-0.486-0.731-1.2533-1.4967-2.3203-1.7637-0.405-0.071-1.0616 0.01874-1.3066 0.42774-0.469 0.814-0.09034 1.6165 0.22266 2.2305-0.632-0.878-1.2887-1.8079-1.1367-3.0469 0.114-0.49 0.72032-0.62286 1.1953-0.75586zm-14.211 5.7812 4.1602 0.08984s2.8259 1.115 6.3809 4.207c0 0 4.309 0.80261 7.709 0.47461 0 0-3.9956 1.8466-9.9356 0.89063-2.675-3.307-8.3145-5.6621-8.3145-5.6621z" fill="#0033a0" transform="matrix(.99999 0 0 .99999 -.00021362 0)"/><path fill="#fff" d="m70.596 29.991c-0.945 1.7043-0.40476 3.6528 0.66212 4.7871 1.8225 1.2525 4.2558 0.95883 6.6446-0.2168-2.6738-1.0125-5.621-2.4104-7.3066-4.5704z"/></g></svg>
