<svg xmlns="http://www.w3.org/2000/svg" height="135.57" viewBox="0 0 267.17774 135.5664" width="267.18"><g transform="matrix(1.25 0 0 -1.25 -251.34 748.45)"><g transform="translate(.75261 .75261)"><path d="m131.54 0-2.2832 1.2637-1.5898 0.87695c-1.1025 0.60312-2.3617 2.1711-2.8242 3.7773-1.4625-0.36938-2.506-0.24555-2.6504-0.2168 0 0-2.3171 0.37359-2.8027 0.44922-0.39-0.69812-3.1192-5.5449-3.1192-5.5449l-0.5996 6.8223c-0.006 0.0225-0.0176 0.17773-0.0176 0.17773-0.0319 0.91625 0.26406 2.5516 2.6953 7.6016l0.0859 0.17774c0.0363 0.08375 0.093 0.14766 0.13867 0.22266-0.55875 0.21812-1.5344 0.59508-1.9082 0.68945-0.34563-0.06375-1.3402-0.38328-2.332-0.81641l-2.4629-1.0684 0.76172 2.5723c0.23625 0.7775 1.0127 3.0655 2.2852 4.1855-1.2088 0.41562-3.1891 0.93266-3.7734 0.95703-0.26875-0.08875-1.0036-0.51383-1.6367-1.0332l-4.0723-3.3203 0.61914 5.2168c0.15812 1.3675 1.2165 3.9698 4.1621 5.041 0.3175 0.1175 0.66297 0.19258 1.0117 0.26758-0.59438 0.7025-1.1626 1.391-1.6582 1.9941 0.003-0.0062-0.45984 0.54578-0.57422 0.69141-0.45437 0.37562-2.8631 1.3964-3.6719 1.5508-0.35563 0.07062-1.161-0.0042-1.5723-0.07422 0 0-1.0984-0.21906-1.8672-0.36719 0.006-0.02813 0.0605-0.22656 0.0605-0.22656l-0.14062-0.03711c0.0375-0.21875 0.0441-0.4257 0.01-0.64258-0.0806-0.51688-0.40625-1.2288-1.4688-1.7188l-0.80078-0.38281c-1.9769-0.97875-3.8618-1.8662-5.2637-1.8262l-11.318 0.9707 4.1484 1.3555c-0.8525-0.12188-1.9154-0.15024-3.4629-0.0059-3.0638 0.28938-4.1675 1.1395-5.4531 2.127 0 0-1.2677 1.8637-1.2695 1.8105-1.065 0.23625-0.98367 0.20609-2.5137 0.01172l-4.5664-0.57812 3.6484 2.8066c1.335 1.0338 1.3907 1.0578 1.5957 1.1328 2.1838 0.80188 4.3884 0.83125 6.1953 0.0625l0.06055-0.02148c1.3619-0.57875 4.7574-2.0109 7.4512-0.75781-0.04937 0.04812-0.09055 0.09094-0.12305 0.13281l-0.08789 0.0918c-0.445 0.49875-1.6347 1.8122-1.7109 4.0547-0.01875 0.53438 0.01836 1.1216 0.14648 1.7441 0.37688 1.8294 1.4409 3.5343 2.3184 4.7012-1.0131 1.2762-1.7412 2.4246-2.1094 3.4121-0.7225 1.8731-1.9442 5.6216-2.0898 9.7129-0.02125 0.57625 0.08187 1.298 0.1875 1.9961l0.12305 1.0352c0.16 3.6187 3.7141 10.95 4.9004 13.301-0.1225 0.16062-0.2268 0.29273-0.29492 0.44336-0.21125 0.44188-0.49195 1.1156-0.51758 1.9062-0.04875 1.25 0.53672 2.3816 1.7461 3.3516 0.76188 0.6075 2.4012 1.6366 3.7012 2.4316-0.07313 0.26062-0.12141 0.51961-0.12891 0.75586-0.03125 0.8525 0.08867 1.5735 0.7793 2.291-0.5225 1.1156-2.4023 5.082-2.4023 5.082l2.3477 3.3809 6.7891 2.5645 0.0977 0.01953c0.2725 0.0575 0.77406 0.15633 1.2891 0.20508 0.1125 0.3025 0.16039 0.41453 0.22852 0.62891-0.0506 0.23688-0.0945 0.47312-0.0977 0.70313-0.0413 1.0475 0.31828 2.1616 0.94141 3.0098-0.37563 0.685-0.83719 1.7583-1.5234 3.4102l-0.64062 1.541c-0.002 0-0.50391 1.1875-0.50391 1.1875l0.80664 0.99023 0.32617 0.30078 1.7637 1.5117c0.35188 0.32688 0.75493 0.60157 1.1699 0.83594 0 0 0.8482 0.35697 1.6406 0.66016h0.59961v0.22265c0.0783 0.0257 0.1952 0.079 0.26172 0.0977 0.78875 0.22562 1.5742 0.35547 1.5742 0.35547s3.4741-0.70922 5.1797-2.3555l0.0742-0.65625c0.255-2.1388 0.55774-4.5892 0.61524-4.9492l0.0703-0.8125c0.0262-0.57375 0.022-2.013-0.43359-3.0137l-0.0176-0.0391-0.59961-1.1387c-0.18-0.32437-0.62742-1.1589-0.76367-1.4727 0.0169-0.19625 0.063-0.45172 0.0898-0.52734 0.25898-0.60642 0.34634-1.4675 0.36914-2.082l0.01-0.39453s-0.21219-0.615-0.32031-0.9375c0.92687-0.15688 2.3379-0.38281 2.3379-0.38281l0.5-0.60547c1.1056-1.3125 2.8874-3.41 3.2637-3.7969 0.76312-0.815 1.3844-2.5657 1.6894-3.5332l0.0566-0.17578 0.0195-0.18164c0.34063-2.6238 0.74375-5.6291 0.79688-5.9316l0.0117-0.04687c0.002-0.0425 0.44117-2.9203 0.76367-4.7422 0.41625-0.06 0.7618-0.19172 1.0293-0.30859 0.95125 0.19688 1.8405-0.18969 2.4336-0.49219 1.2094 0.76875 2.808 1.6337 4.1211 2.0137 0.87375 0.25188 3.2732 1.5975 6.2832 3.5l0.0586 0.03125c0.11625 0.075 0.24187 0.25266 0.23438 0.81641-0.0275 0.14312-0.34766 1.4434-0.34766 1.4434l-0.006 0.125c-0.0818 0.58603-1.1343 3.4221-1.9394 5.5957-0.66563 0.36438-1.2088 0.68039-1.5312 0.97852-0.30813 0.29375-0.49078 0.70016-0.86328 1.5195-0.11688 0.26312-0.26704 0.59484-0.41016 0.90234-1.6881-0.54375-2.9606-0.40188-3.6387-0.23438-0.73563 0.18125-3.7384 1.6613-4.6484 2.7832-0.90813 1.1225-1.4562 3.9202-1.498 5.1152-0.0331 0.91062 0.60414 2.2914 0.88477 2.8477l0.10547 0.20117 0.17382 0.16601c0.16375 0.14813 1.6295 1.4715 2.4414 2.0059l0.0684 0.0488 0.0762 0.0332c0.71 0.33563 2.4319 1.1457 3.1719 1.2676-0.0387-0.009 0.30859 0.0644 0.30859 0.0644 0.49313 0.0994 1.4461 0.31094 2.4336-0.38281-0.005 0.005 0.88086-0.55273 0.88086-0.55273 1.6006-0.99625 3.0741-1.916 3.5723-2.3223l0.42969-0.34179s1.2092-2.9478 1.4023-3.4141c0.88063-0.7775 2.1939-1.9568 2.6445-2.5137 0.63938-0.78875 0.86063-2.0421 1.1562-4.0215-0.002 0.02438 0.19032-1.0822 0.24219-1.3828 0.10375-0.3825 0.72008-1.3324 1.0957-1.9043 0.01-0.01313 0.7168-1.1406 0.7168-1.1406 0.21501-0.36942 0.39619-0.7994 0.5625-1.2383l18.346 1.1289s-0.0137-12.76-0.0156-16.656c2.3581 0.20312 5.1914 0.45508 5.1914 0.45508 0.002 0 0.12305 0.0098 0.12305 0.0098 2.895 0.2825 7.7338 0.75047 10.016-4.0039 1.1444-2.3944 1.1445-5.4411 1.1445-7.8867v-11.35c0-2.6044 0.001-6.972-3.4941-9.8789l-0.0547-0.03906-0.0527-0.03906c-2.8662-2.1469-7.5054-2.5158-8.0254-2.5508l-24.77-1.771s5.507 6.8508 6.2676 7.8008v37.4c-0.28928 0.37823-1.1799 1.5334-2.1934 2.8516 0.0261-0.04121 0.0653-0.08922 0.0898-0.12891l0.3379-0.54102-0.0176-0.64062c-0.0288-0.87062-0.32086-1.8187-0.55274-2.5762-0.094-0.31945-0.21885-0.74165-0.24218-0.89453-0.0001-0.000622 0.00009-0.0033 0-0.0039l-0.004-0.0293 0.004 0.01172c0.0375-1.3588-0.82922-2.7595-1.1992-3.2852l-0.0156-0.04102-0.0254-0.01758c-2.005-2.5956-3.3194-4.3293-3.5625-4.6699-0.28812-0.4925-1.5397-3.6872-1.6797-4.2266-0.21687-0.87-0.82203-1.587-1.332-2.0664-0.0625-0.06875-0.45312-0.56836-0.45312-0.56836s-1.4309-1.7988-1.8965-2.4062c0.0894-0.99 0.35633-3.4377 0.61133-5.6602l0.0215-0.21289s-0.28648-1.2858-0.50585-2.2383c0.92562-0.22563 1.7412-0.82914 2.0605-1.0879l0.33789-0.2832s0.30368-0.59883 0.4668-0.9082c1.2031-0.65625 1.8477-1.9103 2.0352-2.8672 0.009-0.02875 0.11726-0.80938 0.19726-1.375 0.61313-0.42375 0.99789-1.0395 1.166-1.4238 0.8925-2.0275 1.0227-2.757 1.0371-3.2051l-0.0195-0.46484c-0.0913-0.54375-0.35758-1.2216-0.47071-1.4941l-0.0625-0.16797s-0.6857-1.1066-0.9707-1.5859c0.0744-0.66688 0.37305-3.2051 0.37305-3.2051s-0.13555-3.3466-0.1543-3.7422c0.47937-1.5062 0.93875-2.7633 1.0938-3.0195 0.60062-1.0162 1.0694-3.0803 1.1113-4.3047l-0.0586-0.91406c-0.20812-0.95188-1.2159-2.9201-1.6309-3.5957-0.0844-0.15875-0.33226-0.86625-0.68164-2 0.65188-0.43688 1.3633-1.0558 1.8008-1.9727 0.71563-1.4819 1.4631-3.1885 1.6094-4.6816-0.001 0.02625 0.56836-4.7344 0.56836-4.7344l0.20898-1.7617-2.9375 0.66992c-1.3319 0.30938-3.6376 1.8298-4.0957 3.4004 0.0131-0.02625 0.0293-0.080078 0.0293-0.080078-0.105 0.2475-0.61102 0.97539-1.0098 1.4941-0.27375-0.37312-0.47797-0.61078-0.48047-0.61328-1.1831-1.385-2.2912-2.1269-3.7031-2.4844-3.0562-0.76688-4.5472-1.2092-4.8047-1.3398-0.0437-0.005-0.0699-0.034297-0.10742-0.060547 0.0256-0.24063 0.0649-0.51477 0.10742-0.79102l0.75-4.3605zm-23.072 113.79c-0.17927-0.0587-0.38642-0.14109-0.59961-0.22265h-1.3418l-7.3555 0.006-0.11719-0.004c-1.2819 0.0263-3.4295 0.0723-4.7988 1.9961-0.79438 1.0825-0.85594 2.294-0.89844 3.1777l-0.0039 0.0547 0.01953 2.9609c0.005 0.0556 0.17187 1.4062 0.17187 1.4062l0.03711 0.15039c0.10438 0.39313 0.24695 0.7336 0.4082 1.043-0.09562-0.0556-0.4043-0.23047-0.4043-0.23047l-0.01758 9.3848 1.9316 0.008c5.3694 0.0181 7.0807 0.0283 7.7676-0.0273-0.055 0.0113-0.16016 0.0332-0.16016 0.0332 1.2625-0.005 3.373-0.008 4.7637-1.6465 0.65938-0.78 1.0958-2.0173 1.1133-3.166 0-0.009 0.0293-2.5176 0.0293-2.5176-0.0144-1.0825-0.0246-1.8184-0.25586-2.6465-0.0869-0.32688-0.20984-0.60031-0.33984-0.86719 0.002 0 0.0508 0.0234 0.0508 0.0234v-8.916zm-30.343-74.931-19.135 3.162s4.7756 5.0127 5.5938 5.8789v37.531c-0.21914 0.35354-1.1223 1.8056-2.0762 3.3398l-7.774-45.871-24.537 5.797s4.4305 4.3813 5.293 5.2363c-0.36 2.4012-5.7307 38.301-5.8613 39.172-0.06045 0.10944-0.61123 1.1044-0.87109 1.5742 0.4025-2.3245 0.42188-4.8862 0.42188-7.3828v-7.0508l-13.348 3.9531v8.8945c-0.655 0.21188-1.607 0.52219-2.5195 0.82031v-27.324c0.655-0.20312 1.6114-0.49524 2.5195-0.77148v7.0391l13.348-3.9883v-4.3555c0-4.0069-0.000157-7.1672-1.332-9.6016-2.6162-4.7581-7.7561-3.1502-10.824-2.1914l-7.3867 2.3984c-2.9875 1.0006-7.0609 2.3665-8.8027 8.2402-0.83566 2.665-0.8366 5.577-0.8366 8.144v26.201c0 3.2713 0.00078125 7.3411 3.1445 9.4492 2.875 1.8462 6.5038 0.64133 8.9062-0.15429l6.8867-2.2227c0.0025 0 0.13086-0.041 0.13086-0.041 1.6533-0.51701 3.7332-1.1744 5.5723-2.6074-0.07047 0.12737-0.47461 0.85938-0.47461 0.85938l17.066-4.5234s1.3809-9.9518 1.7422-12.561c1.5794-0.365 3.397-0.78578 5.6113-1.3008 0.48437 3.2412 1.75 11.732 1.75 11.732l11.246-2.3047 25.961-3.9531 0.08008-16.766s-7.705 4.4755-8.3906 4.873c-0.20375 0.0375-0.6068 0.1018-1.1074 0.18555 0.0012-5.1912 0.002-39.51 0.002-39.51zm111.5 0.65234c-2.7682-0.14602-6.127 0.49234-7.7324 4.9258-0.90937 2.3638-0.9082 5.1919-0.9082 7.9219v26.203c0 3.0931-0.001 6.9431 2.7207 10.016 2.4969 2.7481 6.2056 3.347 8.4219 3.7051l7.0605 1.1973c0.006 0 0.12891 0.01953 0.12891 0.01953 2.9969 0.53438 9.2362 1.6474 10.969-5.6113 0.53062-2.28 0.53125-5.0838 0.53125-7.7969v-22.783c0-3.7819 0.00016-7.0484-1.2461-9.8984v-0.002c-2.0088-4.575-5.8093-5.6042-9.8574-6.3242l-7.6016-1.2773c-0.70469-0.11156-1.5636-0.24625-2.4863-0.29492zm17.17 2.7441s5.5805 8.1232 6.2324 9.0645h0.002v37.588c-0.73563 0.89688-5.0098 6.1211-5.0098 6.1211l3.98 0.977 23.717 5.7871 0.11914-16.984s-6.6174 1.8126-7.6524 2.0957c-0.46625-0.13312-0.86617-0.24312-1.7012-0.48438 0-3.3607-0.0001-34.752 0-37.787 2.0728 2.7215 5.6544 7.4236 5.9785 7.8477 0.25625 0.73125 8.5324 24.191 8.8105 24.99v14.805c-0.83687 0.90812-5.2422 5.6309-5.2422 5.6309l18.295 5.7129v-23.551c0.37625-0.87062 10.854-25.299 10.854-25.299l-13.223-4.625s-2.3451 7.1105-3.8613 11.701c-1.5806-6.0619-3.6621-14.029-3.6621-14.029l-19.822-5.6426s0.17749 0.23162 0.18554 0.24219l-17.998-4.1602zm-42.811 6.6445c1.4338 0.12125 2.1002 0.17195 3.0039 0.25195v11.369c-1.1081-0.09-1.6695-0.13797-3.0039-0.24609v-11.375zm30.602 3.8066c0.92125 0.15875 1.9553 0.33672 2.7266 0.46484v27.48c-0.91687-0.15438-1.9553-0.33227-2.7266-0.46289v-27.482zm-148.82 13.102c0.54312 3.6406 0.87117 5.8364 1.0918 7.3164-0.88688 0.2075-1.103 0.25586-2.1836 0.50586 0.305-2.1938 0.5493-3.9191 1.0918-7.8223zm101.32 18.773c-0.36069 0.46897-0.52435 0.68458-0.81055 1.0566 0.0167-0.06955 0.0521-0.18181 0.0664-0.24414 0.21812-0.27375 0.39336-0.4868 0.44336-0.5293 0.10112-0.0811 0.20077-0.18283 0.30078-0.2832zm-109.46 28.958l2.4199 3.127s0.75984 0.98171 1.2148 1.5742c0 1.1306 0.0066 10.283 0.0078 11.064-0.23812 0.49062-2.0488 4.2148-2.0488 4.2148h9.625s0.000703-3.5625 0.002-4.625c0.25375 0.44 2.5391 4.3984 2.5391 4.3984s2.2186-3.9741 2.4492-4.3848c0.0012 1.0425 0.0098 4.6016 0.0098 4.6016l9.791 0.0234s-1.8643-3.9592-2.1074-4.4805c0.0012-0.76 0.01117-9.7805 0.01367-10.982 0.45938-0.54562 3.7949-4.5195 3.7949-4.5195l-10.723 0.008s-1.9623 3.5708-3.2461 5.8945c-1.2438-2.3237-3.1543-5.8965-3.1543-5.8965l-10.588-0.02zm113.64 0.002-1.6055 0.006-8.8144 0.008s-2.7487 14.766-2.873 15.439c-0.26437 0.43125-2.791 4.5352-2.791 4.5352h10.209s0.39328-2.922 0.55078-4.0977h0.23828c0.18563 1.1844 0.64844 4.1016 0.64844 4.1016l9.8301-0.008s-2.2933-4.3344-2.5039-4.7363c-0.10375-0.54812-2.8887-15.248-2.8887-15.248zm-83.057 0.006 1.3789 2.7949s0.54914 1.1194 0.80664 1.6406c-0.0025 0.82625-0.01172 10.125-0.01172 10.125 0 1.1706 0.14586 1.9588 0.16211 2.0469l0.01172 0.0605 0.01758 0.0625c0.84539 3.2289 4.2685 3.245 6.1406 3.2402 0.24875 0.007 0.68578 0.007 1.6758 0.002 0.70812-0.002 1.2299-0.008 1.6543-0.043-0.0044 0.004-0.05078 0.0332-0.05078 0.0332 0.9575 0.002 3.8723 0.008 5.1816-2.6387 0.5225-1.0006 0.54078-2.0507 0.55078-2.8926v-10.062c0.2425-0.50813 2.0762-4.3652 2.0762-4.3652s-8.8461 0.0156-9.418 0.0156l-10.176-0.0195zm46.336 0.004v1.9434 9.166s4.3968-3.441 5.2637-4.1191v8.6719c-0.25312 0.50375-2.1445 4.2891-2.1445 4.2891l12.268 0.0645s-1.802-3.9647-2.0352-4.4766c-0.001-0.6125-0.007-5.788-0.008-8.5117 0.87687 0.68 5.2129 4.041 5.2129 4.041v-11.045l-18.557-0.0234zm109.16 0.008-1.9492 0.008-7.3379 0.0176h-0.14454c-1.2825 0.0244-3.427 0.0717-4.7852 1.9805-0.79438 1.0825-0.85586 2.294-0.89649 3.1777l-0.002 0.0547 0.0176 2.9609c0.006 0.0556 0.16992 1.4062 0.16992 1.4062l0.0371 0.15039c0.10625 0.39313 0.2457 0.7336 0.4082 1.043-0.0975-0.0556-0.40625-0.23047-0.40625-0.23047l-0.0156 9.3848 1.9355 0.008c5.3681 0.0181 7.0774 0.0283 7.7637-0.0273-0.0531 0.0113-0.16211 0.0332-0.16211 0.0332 1.265-0.005 3.3764-0.008 4.7695-1.6465 0.65625-0.78 1.0939-2.0173 1.1133-3.166 0-0.009 0.0254-2.5176 0.0254-2.5176-0.0125-1.0825-0.024-1.8184-0.25586-2.6465-0.0887-0.32688-0.21109-0.60031-0.33984-0.86719l0.0547 0.0234v-9.1465zm-31.883 0.008-0.0644 0.002c-1.0756 0.0487-3.0837 0.14031-4.3262 2.1172-0.9341 1.4796-0.8957 4.0868-0.85157 4.9512l-0.0273 6.248 0.004 0.0391c0.0619 0.88375 0.19211 2.4579 0.36523 3.0879 0.88938 3.4306 4.1541 3.4971 5.2266 3.5215h0.0176l9.6992 0.0137-0.0312-1.957-0.10156-10.4h-0.084c0-0.86125 0.01-7.6133 0.01-7.6133l-9.834-0.01h-0.002zm-20.211 0.002s0.004 3.3623 0.004 4.166c-0.83937-1.4356-2.4258-4.1621-2.4258-4.1621l-9.043 0.006s1.7556 3.8816 1.9844 4.3828c0 0.75312-0.0124 10.468-0.0137 11.234-0.23437 0.50563-2.0332 4.3574-2.0332 4.3574l9.5586-0.01s0.004-3.4724 0.008-4.373c0.815 1.4975 2.3828 4.3691 2.3828 4.3691l7.1758 0.004s0.006-14.904 0.006-15.652c0.21188-0.49062 1.8633-4.3223 1.8633-4.3223h-2.9414-0.002-6.5234zm23.078 6.6894h2.5898c0.52875 0.32 1.5341 0.92289 1.5391 0.93164-1.2656-0.004-4.1097-0.008-4.1328-0.008 0.002-0.36875 0.004-0.6482 0.004-0.92383z" transform="matrix(.8 0 0 -.8 201.07 597.16)" fill="#b38f4f"/><path d="m318.31 534.49c0.0335 0.848-0.643 1.8575-0.7785 2.0535-0.729 0.9435-2.625 3.4075-2.893 3.7925-0.2555 0.3675-1.3715 3.236-1.479 3.6955-0.1335 0.5495-0.639 1.039-0.8525 1.228-0.046 0.053-1.8665 2.377-2.1615 2.7235 0.0205 0.4665 0.5285 4.964 0.5285 4.964s-0.39 1.7495-0.58 2.5835c0.426 0.1045 0.867 0.202 0.867 0.202 0.6175 0.1305 1.216 0.6075 1.339 0.703l0.105 0.0905s0.287 0.558 0.4345 0.85c0.876 0.3145 1.2815 1.198 1.382 1.7265 0.007 0.023 0.1395 0.9965 0.2155 1.486 0.0665 0.053 0.1355 0.099 0.1785 0.122 0.429 0.1965 0.683 0.666 0.777 0.857 0.6115 1.398 0.728 1.9335 0.734 2.181 0 0.076 0.002 0.129-0.006 0.1695-0.061 0.359-0.272 0.8835-0.312 0.993l-0.0245 0.05s-0.723 1.1715-0.9175 1.488c0.0515 0.4065 0.3305 2.838 0.3305 2.838s-0.113 2.8665-0.1215 3.089c0.2835 0.9155 0.788 2.393 1.0195 2.7855 0.37 0.6255 0.721 2.085 0.752 2.9725 0.006 0.201 0 0.3675-0.026 0.4805-0.132 0.608-0.901 2.131-1.204 2.6015-0.1275 0.219-0.5125 1.3905-0.8585 2.548 0.6135 0.283 1.357 0.792 1.728 1.55 0.5325 1.1045 1.0925 2.3805 1.19 3.4125l0.463 3.812-0.972-0.219c-0.7915-0.189-2.2975-1.209-2.5305-2.022-0.108-0.3375-1.07-1.7105-1.4635-2.0305-0.1385-0.1095-0.33-0.226-0.523-0.3285-0.3615 0.7-0.894 1.327-0.905 1.3395-0.8145 0.951-1.525 1.435-2.4465 1.6645-2.0865 0.5305-3.6625 0.9705-4.015 1.124-0.3695 0.1665-0.616 0.456-0.7025 0.592 0.002 0.023-0.005 0.041 0 0.069 0.005 0.244 0.0645 0.7 0.134 1.115l0.246 1.4335-1.272-0.7035c-0.767-0.4205-1.75-1.7635-1.8705-2.863-0.0245-0.2155-0.0325-0.4205-0.044-0.622-1.5595 0.707-2.728 0.5375-2.7905 0.527l-1.4325-0.2265 1.0755-0.979c0.555-0.502 1.062-1.336 1.3915-1.976-0.666-0.0795-1.3765-0.15-1.6705-0.111-0.3955 0.046-0.495 0.152-0.8185 0.4985l-0.092 0.097c-0.213 0.2295-0.949 1.4525-1.5345 2.4915l-1.1005 1.962-0.204-2.2445c-0.005-0.0245-0.005-0.053-0.005-0.0795-0.016-0.564 0.2215-1.8045 2.0585-5.618l0.069-0.1415c0.083-0.1695 0.1725-0.3535 1.261-0.908-0.4525-0.1595-0.9695-0.3555-1.577-0.594-0.7205-0.276-1.704-0.656-1.94-0.682-0.324-0.018-1.465 0.371-2.3275 0.7475 0 0 0.79-2.6615 1.8255-3.084 0.3415-0.15 0.8635-0.251 1.4025-0.332-0.499-0.3115-0.9215-0.61-1.101-0.7495-0.4885-0.3715-3.6325-1.255-4.366-1.232-0.3535 0.016-1.246 0.5605-1.858 1.055l-1.339 1.096 0.2025-1.718c0.016-0.092 0.3055-2.3505 2.679-3.216 0.8305-0.2935 1.7365-0.361 2.561-0.3235-0.8275-0.861-1.739-1.9475-2.644-3.054l-0.5025-0.6115c-0.3855-0.433-2.696-1.3835-3.4805-1.5355-0.5235-0.099-1.3565 0.0125-1.634 0.0655l-2.1015 0.415 1.457-1.573c0.326-0.3535 1.5395-1.3305 2.5265-1.371 0.2995-0.007 0.8765 0.06 1.4845 0.159-0.0875-0.113-0.169-0.209-0.238-0.299-1.257 0-4.585-0.256-5.0955-0.486-0.2025-0.095-0.866-0.638-1.6435-1.304h-0.004c-0.003-0.005-0.0105 0-0.0145-0.0125 0.007 0.0125 0.011 0.007 0.018 0.0125-0.005 0.325 0.001 0.629 0.036 0.8025 0.099 0.4735 1.519 2.255 1.519 2.255s-1.95-0.96-2.3705-1.3505c-0.4065-0.3815-1.192-2.2655-1.192-2.2655l0.1315-0.608 0.085-0.394c0.02 0.0195-0.0825-0.0725-0.1575-0.1415-0.257-0.226-0.4955-0.44-0.698-0.6255-0.1775-0.1575-0.258-0.226-0.252-0.226-0.0395 0.106-0.0705 0.219-0.0945 0.3515-0.2285 1.131 0.071 2.808 1.062 3.7925 1.2425 1.23 2.743 2.2425 2.743 2.2425s0.4725 2.361 0.4515 2.3205c0.0275 0.2615-0.112 0.5445-0.608 0.7705-0.94 0.428-3.2075 1.707-4.4085 1.6665-1.191-0.03-5.5835-0.2705-5.5835-0.2705s4.6645-0.968 5.451-1.396c0.7805-0.4225 2.066-2.2265 2.066-2.2265 1.0665 0.1375 1.867 0.371 2.3515 0.6045-0.928-0.845-2.3075-1.7235-2.3075-1.7235s-1.86-0.652-3.0175-1.7265c-1.1515-1.073-1.6035-4.7255-1.6035-4.7255s-1.0615 1.4755-0.357 3.365c0.7075 1.8835 3.4055 3.621 3.4055 3.621-1.529-0.182-3.826-2.0095-4.1565-2.395-0.337-0.3885-1.571-1.5445-1.0965-3.8735 0.3355-1.6345 1.492-3.181 2.154-3.9515-0.8765-1.0235-1.6725-2.1245-2.039-3.093-0.7295-1.8975-1.5045-4.6775-1.603-7.447-0.0225-0.6395 0.2215-1.76 0.248-2.3435 0.1325-2.9865 3.6565-9.9845 4.11-10.826-0.0205-0.062-0.4605-0.507-0.5205-0.6395-0.169-0.35-0.3085-0.732-0.32-1.1345-0.022-0.5885 0.2215-1.209 1.025-1.87 0.7095-0.567 2.5945-1.714 3.5645-2.292-0.166-0.334-0.328-0.7335-0.3365-1.0695-0.0205-0.5615 0.0625-0.8125 0.362-1.1235l0.04-0.0355s0.2145-0.2335 0.423-0.4595c-0.3275-0.6925-1.967-4.146-1.967-4.146l1.368-1.9755 5.063-1.9125s1.0965-0.2225 1.5385-0.166c0.1855-0.5125 0.4295-1.145 0.5255-1.421-0.0685-0.2225-0.118-0.4415-0.127-0.661-0.0265-0.7155 0.2485-1.403 0.606-1.8555 0.1905-0.2365 0.2735-0.5055 0.2705-0.6045-0.4125-0.459-1.2795-2.739-1.9305-4.2695l-0.1705-0.387 0.266-0.3325c0.035-0.0335 0.445-0.3195 1.56-1.334 1.246-1.1345 3.5225-1.421 3.6135-1.428l0.166-0.021 2.9185 1.078 0.048 0.424c0.115 0.979 0.437 3.6175 0.4935 3.9955 0.027 0.1365 0.0445 0.322 0.05 0.527 0.021 0.613-0.0345 1.463-0.266 1.9615l-0.459 0.8925c-0.233 0.424-0.661 1.216-0.721 1.414-0.01 0.0565-0.014 0.1375-0.01 0.2295 0.006 0.274 0.0815 0.654 0.144 0.797 0.173 0.38 0.2095 1.0515 0.22 1.3235l0.007 0.1255s-0.3445 0.9985-0.5865 1.6985c0.9125 0.152 2.6755 0.4415 2.6755 0.4415l0.1655 0.1965c0.763 0.9135 2.3075 2.7355 2.6435 3.0905 0.501 0.5375 0.9895 1.994 1.126 2.4355l0.0245 0.0565 0.005 0.0605c0.2235 1.721 0.5945 4.5435 0.6415 4.807 0 0 0.5325 3.483 0.7745 4.6405 0.74-0.1735 1.261 0.184 1.588 0.318 0.7355-0.403 1.6125 0.2865 2.072 0.463 0.8225-0.564 2.341-1.4595 3.5115-1.799 1.2985-0.3745 4.877-2.649 5.3285-2.937 0.659-0.424 0.675-1.195 0.6635-1.6015-0.006-0.0635-0.288-1.203-0.288-1.203-0.0265-0.5055-0.8865-2.805-1.749-5.1165-0.3275-0.184-1.09-0.583-1.344-0.825-0.2465-0.2265-0.78-1.8185-1.2825-2.43-1.724 0.786-2.902 0.493-3.0885 0.44-0.494-0.122-2.665-1.239-3.184-1.882-0.5105-0.6275-0.947-2.584-0.982-3.4925-0.009-0.4065 0.3275-1.251 0.604-1.799 0 0 1.232-1.1135 1.838-1.5055 0 0 1.756-0.8465 2.261-0.935l0.284-0.053c0.333-0.076 0.743-0.166 1.1725 0.1345 0.2595 0.182 2.968 1.829 3.515 2.267l0.138 0.11s1 2.435 1.113 2.707c0.481 0.421 1.8195 1.5975 2.1765 2.043 0.341 0.421 0.4945 1.3185 0.7125 2.743l0.2085 1.184c0.117 0.463 0.5915 1.193 1.0105 1.838l0.5665 0.8975c0.48 0.8235 0.812 2.2305 0.919 2.702 0.249 0.354 0.5275 0.6985 0.631 0.776 0.385 0.283 0.851 1.0145 0.9895 1.2335l0.1115 0.1735-0.005 0.212c-0.0195 1-0.6545 2.3325-0.639 2.8345"/><path d="m288.09 544.63c0.4065 0.4115 1.2865 1.2035 2.193 1.2705 1.23 0.0975 2.9715-0.0585 3.57-0.507 0.597-0.451 2.7215-0.571 3.3435-0.3095 0 0 0.5295 0.122 0.798-0.1715 0.2705-0.2935 1.2785-3.916 1.2785-3.916s-1.0065-1.672-1.391-1.891c-0.2665-0.157-0.8755-0.157-1.4305-0.0705l-0.7085 0.2085c0.003-0.003 0.0205-0.016 0.0205-0.016s0.0165-0.037 0.067-0.092c0.1245-0.164 0.4145-0.5195 0.7925-0.8375 0 0-0.002 0-0.007-0.002 0.375-0.3125 0.8335-0.606 1.3015-0.661 0 0-0.349-3.197-0.645-4.8455-0.2935-1.64-0.555-4.8425-0.859-5.491-0.1075-0.228-0.236-0.4825-0.385-0.746-0.0115-0.0155-0.0185-0.0335-0.0295-0.053-0.269-0.468-0.5995-0.9275-0.932-1.191-0.5345-0.401-1.6815-2.0215-1.6815-2.0215l-5.0285-0.5215s-1.5605 2.513-1.8145 3.229c-0.266 0.719 0.9615 4.5045 0.9615 4.5045s2.393 0.857 2.5335 0.852c0.1415 0 1.615-1.0535 1.615-1.0535s-0.721-1.721-0.095-2.6895c0 0 0.296 1.647 0.7455 2.246 0.4435 0.597 1.479 1.882 1.479 1.882l1.086 7.762s-1.054 0.885-1.2175 1.6045c-0.0425 0.1765-0.0235 0.4345 0.023 0.7315l0.276 1.126c0.141 0.4575 0.273 0.811 0.273 0.811s-0.084-0.085-0.2125-0.2385c-0.37-0.44-1.0795-1.444-1.1195-2.589-0.0485-1.3575 0.1255-1.3165 0.1715-1.278 0.005 0 0.016 0.0145 0.016 0.0145s-0.0115-0.0145-0.016-0.0145c-0.12-0.113-2.662-2.414-5.3605-3.0535 0 0-0.7205-0.0405-1.139 0.2105-0.4145 0.249-1.0225 2.1595-1.1385 2.73-0.1265 0.5725-0.2675 3.174 1.1455 5.6745 0 0-1.31 5.581-0.263 8.377 0 0-1.5325-3.2025-1.677-4.57-0.1445-1.361 0.42-2.7535 0.42-2.7535l-1.5315-4.3915-0.0195-1.179s-3.6015 2.061-4.4225 2.796c-0.825 0.7385-1.9625 2.7075-2.206 3.916-0.2045 1.027-0.7715 4.798-0.063 8.7955 0 0-1.335-4.2025-1.33-8.0815-0.0005-3.879 3.0175-9.1665 3.0175-9.1665s-2.9875 1.221-3.3045 1.472c-0.3235 0.242-1.1725 1.0285-1.4325 1.6505-0.2595 0.6275-2.322 5.436-2.231 7.933 0.062 1.6455 0.6575 3.906 1.498 5.896 0.022 0.044 0.0455 0.0935 0.0625 0.1445 0 0-0.002-0.005-0.006-0.008 0.0415 0.1025 0.087 0.203 0.1345 0.309 0.0265 0.053 0.0405 0.0975 0.067 0.1435 0.0665 0.143 0.1275 0.279 0.2 0.4095 0.035 0.085 0.0765 0.1645 0.1175 0.239 0.035 0.0725 0.0655 0.136 0.1095 0.2065 0.0475 0.099 0.097 0.193 0.151 0.29 0.0275 0.046 0.0565 0.092 0.0725 0.1375 0.084 0.1345 0.1555 0.2565 0.226 0.3765 0.0275 0.0375 0.0505 0.076 0.072 0.1115 0.0855 0.1345 0.1705 0.2615 0.256 0.3855 1.5445 2.2125 6.7165 6.846 9.0995 7.3215 1.0675 0.2135 1.7985 0.2245 2.276 0.166 0.0735-0.037 0.0655-0.076 0.0655-0.076s-0.469-0.2825-1.0045-1.8925h0.002c-0.3115-0.958-0.6455-2.3825-0.9025-4.494l0.2005 0.311 0.1405 0.3465 2.3525 4.5345s2.359 2.7495 3.286 3.524c0.927 0.7635 4.744 2.9425 4.744 2.9425s1.078 2.5625 1.808 4.335c0.599 1.456 3.395 5.6445 4.926 7.62 0.3245 0.419 0.5885 0.737 0.769 0.914 0 0 0.364-0.647 1.6895-0.3605 0.075 0.019 0.153 0.0265 0.235 0.053 0 0-0.5635 0.065-0.7915 0.258-0.228 0.21-1.397 3.2215-1.877 4.234-0.489 1.0165-1.0725 1.787-1.2575 1.985 0 0 1.8505-1.0695 2.088-1.255 0.23-0.207 1.923-2.861 2.1355-3.5785 0 0 1.992 0.217 2.7905 0.0915 0.798-0.1215 2.134-0.9735 2.4575-1.32 0.321-0.3465 0.7485-1.583 0.7485-1.583s0.706 1.341 0.957 1.802c0.2535 0.4705 1.486 1.886 1.6375 2.02 0.141 0.1415 0.9655 0.5815 1.2095 0.9035 0.25 0.3215 1.5075 2.543 2.4245 3.0325l-0.5115-1.2125-0.2935-1.4065s-0.1245-2.2165-2.5165-3.075c0 0 0.739-3.144 0.8925-4.1 0 0 0.9685-1.877 1.096-2.2585 0.128-0.38 0.064-0.8045-0.0355-1.036-0.101-0.235-0.4915-1.774-0.8325-2.1455 0 0-0.341-1.5955-0.7005-2.3855 0 0 0.1555-2.317 0.013-3.591-0.1415-1.274-0.44-3.054-0.44-3.054s1.0775-1.4545 1.207-1.8415c0.1265-0.3815 0.253-0.8125 0.1-1.1345-0.1535-0.3285-0.8615-1.58-1.4305-1.8415 0 0-0.3485-0.3165-0.259-0.604 0.0785-0.2865 0.2835-1.096-0.0135-1.515-0.2975-0.415-0.498-0.641-1.481-0.3695-0.979 0.269-1.6705-0.505-2.374-0.4345-0.7085 0.0745-1.0425 1.271-1.1585 2.0255-0.1155 0.7635-0.449 0.6855-0.8155 0.9275-0.364 0.2495-1.108 0.7055-1.2885 2.172-0.038 0.315-0.073 0.6295-0.1025 0.935 0.002-0.001-0.005 0-0.045 0.4455-0.083 0.9525-0.1625 1.79-0.3365 2.1895-0.2635 0.576-1.566 1.138-1.9415 1.299-0.371 0.152-0.392 0.956-0.392 0.956l-0.8285 4.3755s-0.1065 1.041 0.2645 2.3045c0.3845 1.269 1.307 5.9065 1.307 5.9065l-2.8585-9.7715s-0.4665-1.161-0.305-1.829c0.1615-0.6735 1.776-7.106 1.875-8.246 0.1035-1.138 0.714-5.1705 0.714-5.1705s-3.683 2.7285-4.387 2.891c-0.701 0.1695-3.0865-0.357-3.94-0.6135l1.41-1.463s1.5665-3.692 1.8495-5.0315c0.2845-1.3305-0.045-3.971-0.045-3.971s-1.299 2.1775-1.938 2.6225c-0.6475 0.451-2.1505 0.836-2.1505 0.836s1.2935-0.8975 1.8955-2.571c0.6005-1.674 0.398-3.376 0.398-3.376s-2.344 0.5125-3.127 1.1085l-2.5535-0.0495s-2.3805-0.5265-2.758-3.0205c0 0 0.086 0.106 0.23 0.253" fill="#fffdee"/><path d="m147.32 36.789s4.0827 5.0773 4.5039 5.6055v38.404c-0.40125 0.52312-4.2598 5.5391-4.2598 5.5391l14.979 0.92188s-0.0145-14.582-0.0176-16.701c1.7525 0.1525 6.793 0.5918 6.793 0.5918 0.002 0.0025 0.11914 0.01953 0.11914 0.01953 2.8388 0.27375 6.7226 0.65133 8.5664-3.1855 1.0019-2.0962 1.002-4.9642 1.002-7.2617v-11.35c0-2.5006 0.00039-6.2898-2.9746-8.7598l-0.043-0.03711c-2.5794-1.9238-7.0659-2.2505-7.2559-2.2617l-21.41-1.525zm-70.648 3.7832-14.74 2.4355s3.6048 3.7855 4.1035 4.3086v38.529c-0.30312 0.49-4.1445 6.6719-4.1445 6.6719l24.203-3.6914 0.0625-12.984s-6.0952 3.538-6.4277 3.7324c-0.26 0.04-1.8067 0.29641-3.0586 0.50391 0-2.4875 0.002-39.506 0.002-39.506zm112.58 0.36719c-0.30442-0.01107-0.60973-0.01039-0.91406 0.0078-2.0288 0.12138-3.993 0.99336-5.0781 3.9824-0.82314 2.1406-0.82227 4.8322-0.82227 7.4297v26.203c0 2.8456-0.00008 6.3928 2.3574 9.0547 2.1425 2.3569 5.4039 2.8837 7.5664 3.2324l7.0859 1.1992c0.002 0 0.125 0.01953 0.125 0.01953 3.1381 0.56312 7.889 1.4112 9.3027-4.5176 0.4925-2.11 0.49219-4.8259 0.49219-7.459v-22.785c0-3.7638-0.001-6.7383-1.127-9.3164-1.725-3.9231-4.9955-4.7989-8.7793-5.4727l-7.5762-1.2715c-0.81757-0.12991-1.7196-0.27343-2.6328-0.30664zm20.859 3.5762s4.0247 5.8542 4.3672 6.3555v38.557c-0.4025 0.49688-3.877 4.7383-3.877 4.7383l23.676 5.7852 0.0918-13.232s-5.6592 1.5477-6.1992 1.6914c-0.41312-0.11938-2.1675-0.61836-3.1406-0.89648 0-1.6306 0.006-39.549 0.006-39.549l-14.924-3.4492zm-156.55 0.15234-20.48 4.8438s3.3499 3.3114 3.9512 3.9102c-0.16125 1.0956-5.9464 39.765-6.0039 40.158-0.18438 0.33188-3.9473 7.1309-3.9473 7.1309l12.842-3.4043s1.56-11.236 1.75-12.592c1.1112-0.25625 6.4245-1.4897 8.1133-1.8828 0.29188 1.9506 1.7559 11.77 1.7559 11.77l10.131-2.072-8.108-47.861zm108.97 2.6562c1.6788 0.13438 5.8965 0.49023 5.8965 0.49023s0.0137 13.933 0.0137 14.287c-0.27625-0.02625-4.4358-0.36453-5.9102-0.48828v-14.289zm65.875 1.4434s5.145 6.7502 5.3438 7.0195c0.11688 0.3225 8.8484 25.074 8.9746 25.432v15.629c-0.4925 0.535-4.0625 4.3594-4.0625 4.3594l14.209 4.4336v-21.873c0.73625-1.73 6.6713-15.565 9.877-23.029l0.48047-1.1113-10.359-3.623s-3.4326 10.401-4.9414 14.965c-1.3131-5.03-4.6895-17.98-4.6895-17.98l-14.83-4.225zm-35.275 2.2246c1.1438 0.195 5.5312 0.93359 5.5312 0.93359 0.0344 0.01375 0.10164 0.08164 0.10352 0.11914v30.326c-1.1462-0.1925-5.5274-0.93555-5.5274-0.93555-0.0425-0.0088-0.098-0.07578-0.10742-0.11328v-30.33zm-170.76 2.125c-1.6505-0.02763-3.418 0.52594-4.9102 0.99219l-7.3672 2.3867c-2.825 0.95-6.339 2.1304-7.8652 7.2754-0.77688 2.4788-0.77539 5.1461-0.77539 7.7305v26.201c0 2.9287-0.0007031 6.5648 2.498 8.2461 2.2688 1.4556 5.5032 0.38117 7.6426-0.33008l6.9121-2.2305c0.0012 0 0.12891-0.041 0.12891-0.041 3.265-1.02 7.3296-2.2903 8.6152-8.3984 0.48062-2.3106 0.48047-5.0255 0.48047-7.6523v-5.1074l-10.443 3.0977v8.6602c-0.0075 0.075-0.13633 0.25211-0.25195 0.28711-0.0125 0.005-3.8989 1.2583-5.1758 1.6758v-30.188c0.0062-0.075 0.13625-0.25203 0.25-0.28516 0 0 3.9259-1.1956 5.1777-1.5781v7.0469l10.443-3.1191v-3.2734c0-3.7994 0.000781-6.7923-1.1523-8.9023-1.0228-1.8575-2.5566-2.4665-4.207-2.4941zm23.381 2.6973c0.3025 2.0281 2.4913 16.676 2.752 18.424-1.2106 0.27812-3.7995 0.88086-5.5488 1.2871 0.37438-2.6881 2.5604-18.379 2.7441-19.699 0.025-0.0087 0.02836-0.0092 0.05273-0.01172zm-5.8223 58.857 1.0098 1.3066s1.1773 1.5217 1.4492 1.8711c0 0.52125 0.0078 11.362 0.0078 11.715-0.135 0.27625-1.373 2.8281-1.373 2.8281h6.6895s0.0046-4.7923 0.0059-7.7129c1.3162 2.2869 3.6484 6.3242 3.6484 6.3242s2.2834-4.0909 3.5859-6.4277c0.0063 2.9756 0.01758 7.8106 0.01758 7.8106l6.8828 0.0137s-1.3264-2.8132-1.457-3.0957c0-0.34063 0.01563-11.099 0.01563-11.646 0.29438-0.34937 2.498-2.9766 2.498-2.9766l-7.6289 0.008s-2.9234 5.3059-3.9297 7.1328c-0.98125-1.8356-3.8145-7.1348-3.8145-7.1348l-7.6074-0.0156zm109.74 0-7.8789 0.01s-2.6844 14.437-2.7363 14.727c-0.13686 0.21813-1.8438 2.9922-1.8438 2.9922h7.2012s0.41947-3.1327 0.54883-4.0977h2.1914c0.15 0.9475 0.64844 4.1035 0.64844 4.1035l6.9883-0.0137s-1.6032-3.0298-1.7051-3.2285c-0.045-0.23437-2.7461-14.492-2.7461-14.492h-0.66796zm-79.635 0.004 0.57227 1.1699s0.7832 1.588 0.92383 1.8711c-0.0012 0.36625-0.0098 10.391-0.0098 10.391 0 1.0869 0.13375 1.8008 0.14062 1.834 0.64375 2.4569 3.3286 2.4512 5.1055 2.4512 0 0-0.01781-0.004-0.02344-0.004 0.16812 0.005 0.55609 0.005 1.6523 0 0.8325-0.002 1.3258-0.002 1.6445-0.0312-0.0037 0.001-0.03711 0.0215-0.03711 0.0215 0.86688 0 3.1698 0.006 4.168-2.0098 0.41125-0.78186 0.42234-1.6482 0.43359-2.4082v-10.303c0.13-0.27625 1.416-2.9766 1.416-2.9766l-7.1797 0.0156s0.02206 11.832 0.02344 13.26h-1.5938c0-1.4231-0.0078-13.268-0.0078-13.268l-7.2285-0.0137zm45.645 0.004v0.81445 6.8457s3.6928-2.8873 4.0684-3.1836h1.1992v10.32c-0.14189 0.2825-1.4531 2.9102-1.4531 2.9102l8.6875 0.041-1.4082-3.0918c0-0.31375-0.007-8.8138-0.008-10.188 0.52811 0.006 0.89641 0.006 1.1445 0.006 0.37125 0.29125 4.0684 3.1562 4.0684 3.1562v-7.6074l-16.299-0.0234zm106.9 0.01-0.8125 0.008c-2.7982 0.0112-7.0708 0.0289-7.3633 0.0176l-0.0977-0.004c-1.1394 0.0219-2.8601 0.063-3.8926 1.5117-0.60125 0.82-0.6475 1.7485-0.6875 2.5723 0 0.0419 0.0117 2.8574 0.0117 2.8574 0.002 0.0219 0.1582 1.3027 0.1582 1.3027l0.0156 0.0645c0.67063 2.4875 2.9082 2.5161 4.3926 2.543 0 0 1.9137-0.007 3.0293-0.01-0.001 0.78189-0.005 1.6584-0.0117 2.4297-1.0725 0.002-3.6529 0.006-3.9785 0.006-0.31561-0.17436-3.3906-1.9219-3.3906-1.9219l-0.0137 6.3203 0.80664 0.008c5.9931 0.0175 7.298 0.0248 7.6836-0.0195-0.0369 0.0112-0.0879 0.0195-0.0879 0.0195 1.2062 0 2.8546-0.009 3.9121-1.252 0.40625-0.47938 0.82937-1.4223 0.84375-2.4473 0-0.002 0.0254-2.5098 0.0254-2.5098-0.0144-1.0075-0.0216-1.647-0.21289-2.332-0.64813-2.4781-3.0166-2.5034-4.7422-2.5215 0 0-1.6647 0.004-2.6797 0.004 0-0.72875 0.001-1.4582-0.002-2.1895 1.0394 0 3.284-0.008 3.5684-0.008 0.29625 0.1475 3.5254 1.7461 3.5254 1.7461v-6.1953zm-115.24 0.002-0.81054 0.006c-2.8044 0.009-7.0839 0.0184-7.3789 0.004-1.2106 0.0225-2.9334 0.0565-3.9766 1.5234-0.60188 0.82-0.64625 1.7505-0.6875 2.5742 0 0.0419 0.01172 2.8574 0.01172 2.8574 0.000625 0.0219 0.1582 1.3027 0.1582 1.3027l0.01563 0.0645c0.66812 2.4875 2.9094 2.5141 4.3906 2.541 0 0 1.9162-0.005 3.0293-0.008-0.002 0.78188-0.005 1.6584-0.01 2.4297-1.0712 0.002-3.6516 0.006-3.9766 0.006-0.31562-0.17437-3.3926-1.9219-3.3926-1.9219l-0.01367 6.3203 0.80469 0.006c5.9925 0.0175 7.2987 0.0268 7.6855-0.0176-0.035 0.0113-0.0859 0.0176-0.0859 0.0176 1.2025 0 2.8538-0.006 3.9062-1.25 0.41061-0.47936 0.82881-1.4223 0.8457-2.4473 0-0.002 0.0273-2.5098 0.0273-2.5098-0.0144-1.0075-0.023-1.647-0.21484-2.332-0.64875-2.4781-3.0127-2.5033-4.7402-2.5215 0 0-1.6634 0.002-2.6797 0.002 0-0.72875-0.003-1.4582-0.004-2.1894 1.0375 0 3.2853-0.006 3.5703-0.006 0.2975 0.1475 3.5254 1.7461 3.5254 1.7461v-6.1953-0.002zm65.41 0.004s0.002 4.4429 0.002 7.2285c-1.5794-2.7194-4.2051-7.2207-4.2051-7.2207l-6.6426 0.002s1.2448 2.7417 1.3691 3.0117c0 0.33562-0.0156 11.385-0.0156 11.73-0.12625 0.27375-1.3887 2.9726-1.3887 2.9726l6.6543-0.004s0.009-4.7099 0.0117-7.6699c1.5812 2.9006 4.1777 7.666 4.1777 7.666h5.375s0.008-14.431 0.008-14.756c0.11188-0.26313 1.2734-2.959 1.2734-2.959h-1.2246v-0.002h-5.3945zm19.117 0c-1.3056 0.0575-2.608 0.22727-3.4648 1.5879h-0.002c-0.8175 1.2969-0.69469 4.0617-0.67969 4.3711 0-0.0288-0.0156 3.0352-0.0156 3.0352l-0.0137 3.1074c0.0294 0.42437 0.16812 2.3309 0.32812 2.9141 0.6825 2.6194 3.1209 2.6684 4.1621 2.6953h0.01l8.5371 0.008-0.0137-0.8164-0.0937-9.2832s-6.9254-0.002-7.0586-0.002c0.005-1.5044 0.01-2.735 0.01-3.1875 1.0794 0 3.6912 0.002 4.0312 0.002 0.31125 0.1875 2.9238 1.7656 2.9238 1.7656l0.0137-6.1875-8.6738-0.01zm-45.809 7.2695c0.25939 1.2662 0.40532 1.9637 0.52344 2.5449-0.45625 0-0.5822-0.001-1.0391 0 0.11675-0.5827 0.25725-1.2804 0.51562-2.5449zm47.504 0.47657c0.11563 0.19625 1.5237 2.634 1.7031 2.9434v2.5859h-1.7188c0.005-0.79125 0.0112-2.8874 0.0156-5.5293z" transform="matrix(.8 0 0 -.8 201.07 597.16)" fill="#fff"/><path d="m128.26 4.4941c-3.8562 3.8587 4.5798 4.7316 5.7129 5.0566 1.1231 0.33375 3.161 2.0212 3.416 2.7969 0.25875 0.76188-0.49415 3.1191-0.49415 3.1191s1.7919-2.2256 1.5469-3.2812c-0.24437-1.0562-1.5468-1.9517-3.0293-3.0586-1.4844-1.0975-6.1157-1.7368-6.8613-2.3418-0.72813-0.58562-0.29102-2.291-0.29102-2.291zm-10.391 3.0469c0.23625 1.3456 1.1094 3.5605 2.3125 4.6543 1.1888 1.0938 4.252 0.72656 4.252 0.72656l-0.4375-1.1602s-2.4738 0.09956-2.8594 0.08594c-0.3775-0.0088-0.65398-0.11538-1.1152-0.60352-0.46188-0.49438-2.1524-3.7031-2.1524-3.7031zm4.0508 9.0039-4.9199 1.916-1.2363-0.14453c0.82936 0.98062 1.9648 1.0215 1.9648 1.0215l4.1914-2.793zm-3.2031 4.3516s-1.677 1.7505-2.252 2.0137c-0.58563 0.265-4.6312 1.6299-5.7637 1.4043-1.1375-0.22688-2.4316-1.418-2.4316-1.418 0.79938 1.8338 2.3848 2.6602 2.3848 2.6602s5.1844-1.0541 5.8594-1.4141c0.68-0.35812 2.2031-3.2461 2.2031-3.2461zm-4.457 7.1973c-1.2225 1.745-4.0404 4.7509-4.4473 5.1328-0.49561 0.45938-3.4648 0.92797-4.1348 1.1836-0.67938 0.26312-2.1856 0.01367-2.1856 0.01367 0.54939 0.49438 1.2022 0.90609 2.0547 0.83984 0.85811-0.06625 3.3341-0.16469 4.5078-1.0703 0.89689-0.69625 3.1813-4.399 4.2051-6.0996zm-16.773 6.957c-0.40899 0.04288-1.3215 0.38945-3.2793 1.9277-2.5094 1.9612-1.9409 6.4151-1.6016 8.1113 0.45063-0.46188 0.87438-0.87633 1.25-1.2363-0.38-1.3388-0.88164-3.5253-0.40039-4.5234 0.71938-1.5 4.3398-4.2207 4.3398-4.2207s-0.06326-0.08434-0.30859-0.05859zm0.59375 2.6387-0.73438 1.9668 0.23633 0.81641c0.20562-0.1675 0.39969-0.34164 0.60156-0.50976l-0.16992-0.38281 0.06641-1.8906zm51.75 0.4082 3.1328 3.8945v39.189l-3.1973 4.1562 11.652 0.7168-0.0156-16.727c2.6831 0.20312 5.3602 0.43555 8.0352 0.70117 2.8306 0.27125 6.0366 0.63226 7.5547-2.5371 0.88875-1.865 0.88867-4.589 0.88867-6.7715v-11.35c0-2.425-0.00054-5.7612-2.5605-7.8906-2.3419-1.7494-6.6582-2.041-6.6582-2.041l-18.832-1.3418zm-61.137 3.1699c0.39438 1.8688 2.7461 4.802 2.8555 4.9414 0.26938-0.30062 0.54453-0.5993 0.81641-0.87305-1.145-0.4725-3.6719-4.0684-3.6719-4.0684zm-13.145 0.63477-11.318 1.8672 2.9434 3.0918v39.305l-3.0254 4.8613 20.826-3.1758 0.04883-10.041-4.8984 2.8418-4.5781 0.76172 0.002-39.512zm113.7 0.16602c-0.26817-0.0105-0.53295-0.01081-0.79297 0.0039-1.7335 0.09813-3.2512 0.83281-4.127 3.2422-0.75439 1.9619-0.75586 4.5467-0.75586 7.043v26.203c0 2.8012 0.001 5.9639 2.0762 8.3008 1.8975 2.0944 4.9712 2.5598 6.998 2.8848 2.34 0.3775 4.6734 0.77195 7.0059 1.1895 3.2619 0.58125 6.9458 1.3084 8.1289-3.6504 0.45939-1.9731 0.45898-4.6266 0.45899-7.1953v-22.785c0-3.6363 0.00007-6.5045-1.0293-8.8613-1.4812-3.3731-4.2227-4.1564-7.9414-4.8164-2.5125-0.45312-5.0284-0.87008-7.5547-1.2676-0.8274-0.13113-1.6623-0.25952-2.4668-0.29102zm-58.182 2.502s0.0493 2.1193-0.0332 2.623c-0.08 0.51688 0.31274 2.0597 0.75586 2.3359 0.42938 0.27125 3.0312 0.80859 3.0312 0.80859s2.5157-0.29211 2.7832-0.53711c0.25936-0.245 0.49414-1.2031 0.49414-1.2031l-3.17 0.527s-1.6539-0.37102-2.0195-0.77539c-0.36562-0.40188-0.55593-2.1991-0.80468-2.5879-0.24064-0.39312-1.043-1.1914-1.043-1.1914zm-78.408 1.4727-17.324 4.0957 2.9121 2.8809-6.123 40.926-2.7617 4.9922 9.5547-2.5371 1.752-12.613c3.3462-0.82188 10.062-2.334 10.062-2.334l1.7637 11.801 7.8887-1.6133-7.7246-45.598zm108.75 0.05273 7.123 0.58789c0.57812 0.04438 1.0488 0.55367 1.0488 1.1387v14.459c0 0.57875-0.47071 1.0077-1.0488 0.95898l-7.123-0.5918v-16.553zm51.291 0.17188 2.9199 4.25v39.309c0.006 0-2.9961 3.6641-2.9961 3.6641l20.541 5.0215 0.0723-10.312-5.0625 1.3867-4.2656-1.2207 0.004-39.508-11.213-2.5898zm-19.641 3.5625 5.8008 0.98047c0.57438 0.09687 1.0469 0.65031 1.0469 1.2266v30.623c0 0.58125-0.4725 0.97242-1.0469 0.87305l-5.8008-0.98828c-0.5775-0.095-1.0469-0.64141-1.0469-1.2227v-30.627c0-0.57438 0.46937-0.96648 1.0469-0.86523zm38.314 0.95117 3.3945 4.459 9.0976 25.781v16.268l-3.1406 3.375 11.027 3.4453v-20.574c0.009-0.03938 9.9707-23.244 9.9707-23.244l-8.1309-2.8438-5.7793 17.512-5.5-21.066-10.939-3.1113zm-102.29 1.293s0.27141 2.3725 0.17578 3.375c-0.0944 1.0056-0.1893 3.4848-0.73242 5.5879-0.55438 2.1012-3.3613 7.793-3.3613 7.793s4.7002-5.7969 4.959-6.4375c0.26939-0.63812 0.97946-5.7502 0.72071-6.709-0.26813-0.95438-1.7617-3.6094-1.7617-3.6094zm-106.57 2.172c-1.3106-0.05188-2.8915 0.36827-4.709 0.93359-2.4556 0.77312-7.3496 2.3867-7.3496 2.3867-2.8513 0.95688-5.7936 1.9903-7.1367 6.5234-0.72875 2.3262-0.72852 4.9101-0.72852 7.4082v26.199c0 2.8013 0.0006375 5.968 2 7.3086 1.8275 1.1712 4.7963 0.15625 6.7676-0.5 2.2712-0.755 4.5428-1.4885 6.8203-2.1973 3.1869-1.0006 6.809-2.0649 7.9746-7.5918 0.45562-2.2006 0.45508-4.8507 0.45508-7.4238v-3.5918l-8.1836 2.4238v7.8184c0 0.57438-0.46891 1.1884-1.0508 1.3652l-5.5879 1.8105c-0.57875 0.17688-1.0449-0.15024-1.0449-0.72461v-30.676c0-0.57438 0.46617-1.1878 1.0449-1.3672l5.5879-1.7031c0.58188-0.17688 1.0508 0.15117 1.0508 0.73242v6.0039l8.1836-2.4453v-2.4297c0-3.6338 0.000078-6.5081-1.0137-8.3594-0.73-1.3278-1.7695-1.8524-3.0801-1.9043zm24.182 0.182c1.0281 6.89 3.0879 20.67 3.0879 20.67l-8.166 1.8926s2.0526-14.731 3.0801-22.092c0.66375-0.15938 1.3318-0.31133 1.998-0.4707zm82.211 14.385s-0.99281 4.0042-3.6172 3.0586c0 0-0.77133 0.71872-2.127 0.0293l-0.17578 1.9082s1.2774-0.04925 2.043-0.66992c0 0 1.4638 0.58797 2.7812-0.42578 0 0 2.3746 1.8941 4.0664 2.166 0 0-2.0816-1.2501-3.2734-3.627 0 0 0.26399-1.3745 0.30274-2.4395zm14.443 17.953s-2.4751 2.3084-3.2207 3.084c-0.73561 0.77313-1.0723 5.1094-1.0723 5.1094l-3.4551 2.1074-1.8184 3.6621-5.1602 2.5664s0.77782 0.83148 2.7109 1.2558l4.0039-2.6113 1.457-3.5898 3.5723-2.8027s0.12789-3.4652 0.43164-4.5215c0.30061-1.0538 2.1402-2.8529 2.5508-4.2598zm-33.793 8.0215s1.0882 1.8209 1.1582 2.4434c0.0625 0.63-0.70312 2.2013-0.64062 2.9082 0.0613 0.71626 1.8466 2.9142 1.9766 4.4316 0.11812 1.5088-1.4883 6.6074-1.4883 6.6074s1.8747-0.11488 2.3359-0.54297c0 0 1.0892-5.6389 0.75977-6.3633-0.33-0.72875-2.1956-3.2756-1.9824-4.25 0.2175-0.97625 0.68844-1.7561 0.46094-2.918-0.2175-1.1688-1.248-2.2695-1.248-2.2695l-1.332-0.04688zm40.117 20.689-7.207 0.0117-2.6445 14.213-1.1621 1.8926h5.0488l0.54883-4.0976 3.5879-0.004 0.64844 4.1016 4.9609-0.008-1.1406-2.1504-2.6406-13.957v-0.002zm-108.09 0.002 1.6191 2.0898 0.0078 12.176-0.88867 1.832h4.5918l0.0059-9.9082 4.4434 7.6953 4.3965-7.8828 0.02539 10.096 4.8027 0.0117-0.99023-2.1035 0.01563-12.123 1.5742-1.8691-5.4219 0.004-4.416 8.0137-4.2891-8.0176-5.4766-0.0137zm29.752 0.01 1.0078 2.043s-0.01172 9.5536-0.01172 10.574c0 1.0206 0.12695 1.6797 0.12695 1.6797 0.43375 1.65 2.2062 1.8008 4.3125 1.8008 0 0.003 3.2326-0.007 3.2363-0.0117 0.86688 0 2.6753-0.01 3.4453-1.5644 0.32875-0.63189 0.33961-1.3615 0.34961-2.0684v-10.471l0.94336-1.9785-5.0918 0.004 0.02539 13.264h-3.2109l-0.0078-13.264-5.125-0.008zm45.156 0.006v5.1856l2.9824-2.3281 2.2852-0.004v11.318l-0.95898 1.9121 6.1309 0.0371-0.95703-2.1035-0.0137-11.174 2.2285 0.008 2.9863 2.3184v-5.1582l-14.684-0.0117zm-9.957 0.002s-7.4355 0.0274-7.4355 0.006c-1.1006 0.0237-2.4612 0.0587-3.2656 1.1875-0.46125 0.6275-0.50164 1.3558-0.54102 2.1445 0 0 0.0048 2.6803 0.0098 2.7422 0 0 0.14844 1.2281 0.14844 1.2344 0.46938 1.7431 1.8169 1.9127 3.625 1.9414 1.2769 0.004 3.8281-0.008 3.8281-0.008l-0.0176 4.043-4.9922 0.008-2.375-1.3477-0.0078 4.1309s7.497 0.032 7.5488 0.01c1.1225-0.001 2.5148 0.00008 3.3379-0.96679 0.31563-0.37125 0.63985-1.1556 0.65235-1.9375l0.0293-2.5078c-0.0131-0.94561-0.0213-1.517-0.18555-2.1113-0.46314-1.7669-1.9478-1.9052-3.9746-1.9277-1.1594 0.004-3.4746 0.004-3.4746 0.004l-0.0039-3.8027 4.5645-0.01 2.5293 1.2578v-4.0898zm115.24 0s-7.4199 0.0394-7.4199 0.0176c-1.1069 0.0281-2.4799 0.047-3.2793 1.1758-0.46439 0.6275-0.50679 1.3558-0.54493 2.1445 0 0 0.005 2.6803 0.0117 2.7422 0 0 0.14844 1.2281 0.14844 1.2344 0.46938 1.7431 1.8156 1.9127 3.625 1.9414 1.2756 0.004 3.8281-0.008 3.8281-0.008l-0.0176 4.043-4.9941 0.008-2.375-1.3477-0.008 4.1309s7.5008 0.032 7.5508 0.01c1.1231-0.001 2.5129 0.00008 3.3379-0.96679 0.31625-0.37125 0.64093-1.1556 0.64843-1.9375l0.0312-2.5078c-0.0144-0.94561-0.0211-1.517-0.18554-2.1113-0.46375-1.7669-1.9438-1.9052-3.9707-1.9277-1.1612 0.004-3.4785 0.004-3.4785 0.004l-0.004-3.8027 4.5644-0.01 2.5312 1.2578v-4.0898zm-48.217 0.004 0.006 9.4121-5.4824-9.4082-4.9277 0.004 0.92383 2.0352-0.0156 12.08-0.92578 1.9844 4.582-0.004 0.0156-10.02 5.4551 10.018 4.0898 0.002 0.008-14.119 0.85547-1.9844h-4.584zm18.295 0c-1.24 0.0575-2.1459 0.22103-2.7715 1.2129-0.70687 1.1156-0.55859 3.9004-0.55859 3.9004 0.0263 2.0562-0.0536 4.117-0.0273 6.1738 0 0 0.15319 2.1702 0.29883 2.707 0.52561 2.0231 2.3318 2.0796 3.4043 2.0996 2.5694 0.0337 7.7051 0.01 7.7051 0.01l-0.084-8.4824-4.9316-0.002 1.1836 2.0469v3.6152l-3.3379-0.004 0.0332-10.465 5.0586 0.008 1.8945 1.1426 0.008-3.9531s-5.2456 0.0236-7.875-0.01zm-45.803 2.418 1.5176 7.3906-3.0137 0.01 1.4961-7.4004z" transform="matrix(.8 0 0 -.8 201.07 597.16)" fill="#003831"/><path d="m132.97 18.484 0.60937 5.9453-0.89844 1.9629 2.6719-1.7832-2.3828-6.125zm-3.502 0.37695c-0.33 0.82812 0.20704 4.4395 0.20704 4.4395s-1.4519-0.08359-1.0781 2.0352c0.43563 2.4694 5.1074 6.8945 5.1074 6.8945l-2.0352-5.4883s0.49804-0.07773 0.49804-2.4434c0-2.3662-2.6992-5.4375-2.6992-5.4375zm9.4902 0.6875 0.96875 6.502 1.3027-1.6016-2.2715-4.9004zm-53.243 11.186c-0.54369-0.0064-1.1808 0.02125-1.957 0.09375-3.0969 0.2825-3.8291 1.153-5.3691 2.2949 0 0 5.0416-1.5066 5.8359-1.3828 0 0-0.9132 0.45828-1.9395 1.2227-1.0225 0.76-3.6721 2.3648-8.0371 1.8086 0 0 1.1836 0.91367 1.2617 0.93555 1.9088 0.70688 3.7611 0.74024 5.2773 0.09961 1.5213-0.64688 6.1818-2.669 9.5762-0.16211 0 0 2.6617-1.9864 3.4648-2.0664 0 0-2.9327-1.6959-4.5059-2.1621-1.1869-0.33656-1.9763-0.66236-3.6074-0.68164zm13.275 8.5254c-0.0044 0.0069-0.01258 0-0.01758 0.01563 0.0087-0.01563 0.01273-0.0094 0.02148-0.01563h-0.0039zm33.961 0.70508s-0.67304 0.87476-0.93554 1.1816c-0.26875 0.30688-0.15547 0.76477 0.082 1.2285 0.23625 0.45062 3.0156 3.2988 3.0156 3.2988l-0.87109-2.584s1.008-1.1185 0.88867-1.5098c-0.10812-0.39125-0.46265-1.2317-0.78515-1.3711-0.31688-0.14125-1.3945-0.24414-1.3945-0.24414zm7.5176 0.91602c-0.11937 0.01602-0.23632 0.06813-0.3457 0.17188-0.46438 0.42625-0.87258 0.96836-0.95508 1.6309-0.0844 0.6675 0.34766 1.1934 0.34766 1.1934l0.46484 0.0078c0.0381-0.01125 0.0557-0.01914 0.0801-0.02539 0.0381-0.03125 0.0966-0.06945 0.16602-0.12695 0.3375-0.26312 0.95093-0.79094 1.0078-1.1953 0.0769-0.55688 0.58562-0.69726 0.26562-1.1035-0.17437-0.2075-0.41195-0.41281-0.67383-0.50781-0.11687-0.03969-0.23804-0.06094-0.35742-0.04492z" transform="matrix(.8 0 0 -.8 201.07 597.16)"/><path d="m126.47 16.186c-0.22564 0.22062-0.55533 0.61945-0.96094 1.1426-3.7631 5.9888-7.6016 16.82-7.6016 16.82s-7.2954 4.5988-8.2441 5.2832c-0.84439 0.60125-4.6474 5.5934-5.543 6.7734-0.12188 0.15875-0.1836 0.25195-0.1836 0.25195l-0.25 0.38867c0.32125-2.64 0.73757-4.4203 1.127-5.6172h-0.002c-2.4 0.245-5.9302 2.1316-7.7227 3.1191-0.11938 0.06625-0.23008 0.14094-0.36133 0.22656-0.05312 0.04-0.11387 0.08213-0.17383 0.13086-0.07625 0.05562-0.15562 0.112-0.23438 0.17383-0.07375 0.0575-0.14453 0.12412-0.22266 0.18164-0.07188 0.05938-0.14375 0.111-0.21875 0.18164-0.0875 0.075-0.17234 0.15047-0.26172 0.23047-0.06625 0.06188-0.14109 0.12125-0.21484 0.1875-0.09687 0.08438-0.19094 0.17602-0.28906 0.27539-0.06875 0.05938-0.13492 0.12362-0.20117 0.18555-0.105 0.10125-0.21414 0.2082-0.32226 0.31445-0.06312 0.0575-0.11587 0.11826-0.17774 0.17578-0.12062 0.1125-0.23734 0.22586-0.35547 0.34961-0.05375 0.0525-0.09987 0.10513-0.15234 0.1582-0.12438 0.12375-0.25062 0.25664-0.375 0.38476-0.04563 0.04438-0.0843 0.08762-0.12305 0.12695-0.13875 0.14125-0.26867 0.27953-0.4043 0.42578-0.02438 0.02625-0.05406 0.05914-0.08594 0.08789-0.1425 0.14625-0.28727 0.31031-0.43164 0.46094-0.0088 0.0087-0.01123 0.02055-0.02148 0.0293-0.95438 1.0206-1.7862 1.9744-2.25 2.5156-0.01125 0.01-0.0218 0.02055-0.0293 0.0293-0.06562 0.07125-0.12174 0.13789-0.16797 0.19726-0.02125 0.06437-0.05062 0.124-0.07813 0.17969-1.0506 2.4875-1.7936 5.3129-1.8711 7.3691-0.11375 3.1212 2.4627 9.1342 2.7871 9.918 0.325 0.7775 1.3866 1.76 1.791 2.0625 0.39688 0.31375 4.1309 1.8398 4.1309 1.8398s-3.7721-6.6096-3.7715-11.459c-0.0062-4.8488 1.6621-10.102 1.6621-10.102-0.88562 4.9969-0.1775 9.711 0.07813 10.994 0.30438 1.5112 1.7266 3.9727 2.7578 4.8965 1.0262 0.91875 5.5293 3.4941 5.5293 3.4941l0.0234-1.4727 1.9141-5.4902s-0.70407-1.7408-0.52343-3.4414c0.18061-1.71 2.0957-5.7129 2.0957-5.7129-1.3088 3.4944 0.32812 10.471 0.32812 10.471-1.7662 3.1262-1.5898 6.3781-1.4316 7.0938 0.145 0.71375 0.90572 3.1009 1.4238 3.4121 0.52314 0.31375 1.4238 0.26367 1.4238 0.26367 3.3731-0.8 6.5492-3.6752 6.6992-3.8164-0.0575 0.04875-0.27352 0.09862-0.21289-1.5977 0.05-1.4319 0.93531-2.6863 1.3984-3.2363-0.16063-0.11312-0.43102-0.33352-0.91602-0.77539-0.61064-0.56125-1.836-0.7525-3.0723-0.79688-1.5762-0.03938-3.149 0.16555-3.4121 0.20117-0.18 0.18312-0.2871 0.31445-0.2871 0.31445 0.47187-3.1169 3.4473-3.7754 3.4473-3.7754l3.1914-0.06055c0.97875 0.74438 3.9102 1.3848 3.9102 1.3848s0.25257-2.1269-0.49804-4.2188c-0.7525-2.0919-2.3691-3.2148-2.3691-3.2148s1.8781 0.4818 2.6875 1.0449c0.79875 0.55688 2.4219 3.2773 2.4219 3.2773s0.41229-3.2991 0.0566-4.9629c-0.35311-1.6744-2.3125-6.2891-2.3125-6.2891l-1.77-1.831c1.0669-0.32 4.0495-0.97812 4.9258-0.76562 0.88 0.20312 5.4824 3.6133 5.4824 3.6133s-0.76321-5.0404-0.89258-6.4629c-0.12375-1.425-2.1412-9.4654-2.3438-10.307-0.20188-0.83562 0.38086-2.2871 0.38086-2.2871l3.5742-12.215s-1.1542 5.7966-1.6348 7.3828c-0.46375 1.5794-0.33008 2.8809-0.33008 2.8809l1.0352 5.4707s0.0265 1.0053 0.49023 1.1953c0.46938 0.20062 2.0984 0.90242 2.4277 1.623 0.2175 0.49875 0.31617 1.5457 0.41992 2.7363 0.0513 0.55688 0.0591 0.55852 0.0566 0.55664 0.0169-0.06625 0.0365-0.13539 0.0527-0.19727 0.0356-0.10188 0.0789-0.20141 0.11328-0.30078 0.0288-0.07563 0.0535-0.14805 0.0879-0.2168 0.0581-0.14312 0.13515-0.27375 0.20703-0.42188 0.0481-0.06813 0.0836-0.15156 0.13672-0.22656 0.0894-0.14188 0.19475-0.27375 0.30664-0.40625 0.055-0.06625 0.097-0.12711 0.16015-0.19336 0.17813-0.18312 0.38094-0.35422 0.61719-0.49609 1.6262-1.0425 2.3584 0.14141 2.8984 0.91016l0.15429 0.7168 1.6055 1.5957-1.3535 1.8145s0.77233 1.8203 0.94922 2.2109c0.175 0.3825 1.7324-0.19531 1.7324-0.19531s0.29095-0.69477 0.35156-0.88477c0.0588-0.14625 0.76766-0.44664 1.1133-0.58789l-0.46484-0.0078s-0.43141-0.52648-0.34766-1.1934c0.0825-0.6625 0.49008-1.2046 0.95508-1.6309 0.21875-0.20812 0.46875-0.20633 0.70312-0.12695-0.125-0.08563-0.2567-0.1707-0.33984-0.23633-0.2525-0.20562-1.7969 1.6543-1.7969 1.6543s-0.32064-1.663-0.625-2.0762c-0.30814-0.38875-1.5798-0.75234-1.9492-0.96484 0 0-0.43313-1.1441-0.90625-2.2441-0.36188-1.46-0.86805-3.287-1.4668-4.7539-0.0662-0.05313-4.5237-4.4038-5.0762-6.7188-0.5575-2.3238 0.6614-2.2111 1.0508-2.2617 0 0-0.59266-3.293-0.22266-4.5586 0 0 0.21664 1.0759 0.49414 2.2715-0.1675-0.86625-0.38476-2.0918-0.38476-2.0918s1.3433 1.7842 2.0976 3.4961c0-0.1875 0.002-0.37789-0.008-0.55664 0-0.095 0.003-0.17391-0.002-0.25391-0.009-0.22938-0.0216-0.45266-0.041-0.67578-0.11312-1.1625-0.51671-2.2921-1.8398-3.4277-0.0125-0.01312-0.0269-0.02633-0.0332-0.0332-0.0413-0.02437-0.0793-0.05706-0.10742-0.08594-0.31626-0.25438-0.6729-0.51773-1.0879-0.77148-1.6569 0.3575-2.1113-0.45117-2.1113-0.45117zm47.625 25.662c1.4638 1.6594 1.8281 4.9114 1.8281 6.7695l-0.16211 11.346c0 2.0856 0.047 4.6212-0.57617 6.3574-0.66125 1.8512-1.6398 1.7928-5.5879 1.5234-3.9469-0.26938-10.24-0.92578-10.24-0.92578s-0.11133 14.987-0.11133 16.801c-1.0988-0.06625-4.2534-0.26695-6.6953-0.42383-0.30936 0.40188-0.62906 0.82211-0.91406 1.1934 2.3206 0.14125 7.3878 0.45344 8.8047 0.53906-0.001-1.8156-0.0176-16.754-0.0176-16.754l9.0996 0.79492c-0.002 0 0.11914 0.0098 0.11914 0.0098 3.1775 0.31125 5.3488 0.33555 6.4688-2.002 0.7975-1.6631 0.79883-4.266 0.79883-6.3535v-11.35c0-2.3638 0.00008-5.3065-2.2168-7.1465-0.18125-0.13937-0.38765-0.26391-0.59765-0.37891zm-99.521 1.1973c-0.2968 0.04687-0.71882 0.12001-1.2168 0.19922v38.256l1.2148-0.19727c0-6.5256 0.002-36.345 0.002-38.258zm84.664 0.75195-0.0195 18.711 1.2109 0.09766v-17.562l8.1719 0.67773c0.30811 0.02437 0.59335 0.12388 0.8496 0.26758-0.28687-0.79062-0.97281-1.4512-1.7891-1.5156l-8.4238-0.67578zm45.65 2.9551c0.10938 0.19438 0.21368 0.40234 0.31055 0.62109 0.95125 2.1762 0.95117 4.9553 0.95117 8.4766v22.787c0 2.5119 0.0705 5.5589-0.34765 7.4258-0.79188 3.5438-2.0108 3.3198-5.6914 2.666l-1.4121-0.20312-7.123-1.2051c-1.8725-0.3025-4.3779-0.72086-6.0254-2.2715 0.21939 0.41312 0.485 0.80703 0.8125 1.1758 1.6319 1.7981 4.3449 2.2321 6.3262 2.5527l7.125 1.207 0.1289 0.02148c3.6781 0.65625 5.9767 0.86289 6.8867-2.9434 0.43314-1.86 0.4336-4.457 0.43359-6.9707v-22.783c0-3.5212-0.0004-6.3053-0.94726-8.4766-0.38064-0.86812-0.84586-1.5457-1.4277-2.0801zm-153.02 0.477c-0.2225 0.05063-0.61664 0.14445-1.1348 0.26758 1.215 7.1575 6.9135 40.8 7.1816 42.385-1.005 0.2075-3.2847 0.67836-4.8047 0.99024 0.08125 0.54562 0.14484 0.97422 0.18359 1.2305 1.3231-0.27 4.7464-0.96883 5.9727-1.2207-0.29375-1.7319-7.0772-41.75-7.3984-43.652zm140.43 0.58008c-1.3436 0.1275-2.3906 1.2733-2.3906 2.9336l0.0137 29.365c0 0.84188 0.52172 1.6091 1.2617 1.9766-0.0937-0.23875-0.14844-0.49664-0.14844-0.75976v-30.625c0-0.55688 0.23603-1.0788 0.65039-1.4238 0.41439-0.34875 0.97258-0.49641 1.5332-0.39453l5.7949 0.98047c0.21125 0.03312 0.40686 0.10662 0.59375 0.19727-0.28189-0.71562-0.93266-1.2822-1.707-1.4141l-5.0098-0.82812c-0.2018-0.02488-0.39985-0.02631-0.59179-0.0078zm29.5 1.5625c0 2.2512 0.00079 5.532-0.006 38.363l1.1387 0.3457c0-6.0419 0.004-37.113 0.004-38.447-0.22561-0.05312-0.62984-0.14922-1.1367-0.26172zm-175.36 2.8281-3.668 0.85352-3.4512 24.492 1.2793-0.29688 3.2246-23.143 2.7949-0.65039-0.17969-1.2559zm193.87 2.1309c1.0038 3.8525 6.1309 23.494 6.1309 23.494s0.23984-0.72531 0.62109-1.8984c-1.5375-5.885-5.337-20.439-5.5488-21.25-0.1875-0.055-0.62125-0.17758-1.2031-0.3457zm-216.99 1.044c0.095 0.12125 0.18508 0.25367 0.26758 0.4043 0.8975 1.6344 0.89648 4.3952 0.89648 7.8945v1.7109c-0.7775 0.23438-3.3047 0.98852-5.1016 1.5254v1.1777c1.6112-0.47938 5.2818-1.5764 6.248-1.8633v-1.7109c0-3.4988-0.000859-6.2552-0.89648-7.8945-0.35875-0.65188-0.81719-1.0473-1.4141-1.2441zm236.04 5.123c-9.2975 21.649-9.7148 22.174-9.7148 22.174s0.16015 16.249 0.16015 18.553c-1.2581-0.39125-4.2132-1.3127-6.4238-2.0039-0.315 0.3375-0.63196 0.68234-0.90821 0.98047 1.915 0.59375 6.6225 2.0656 8.2969 2.5918v-19.369l0.0293-0.11133c0.0269-0.11438 0.0495-0.16664 9.6113-22.447-0.26625-0.09063-0.63078-0.21656-1.0508-0.36719zm-242.98 0.309c-0.14464 0.01125-0.2911 0.03973-0.4375 0.08398 0 0-5.588 1.7012-5.5898 1.7012-0.98686 0.305-1.7324 1.8304-1.7324 2.8379v30.125c0 0.57875 0.25055 1.0959 0.68555 1.4141 0.19876 0.15 0.43078 0.23836 0.67578 0.28711-0.13562-0.25625-0.21484-0.54617-0.21484-0.85742v-30.676c0-1.0006 0.74352-1.9884 1.7285-2.2891 0.005-0.0025 5.5957-1.7051 5.5957-1.7051 0.31875-0.095 0.63859-0.1057 0.93359-0.04883-0.11312-0.21375-0.26531-0.4007-0.46094-0.54883-0.3347-0.24704-0.74968-0.35861-1.1836-0.32422zm117.87 2.3574c-0.16671-0.0185-0.32531 0.05163-0.47656 0.21289-0.2875 0.3275-0.90477 0.73867-1.541 1.0918-0.63062 0.3625-1.2226 4.082-1.2226 4.082 0.99311 1.5594 5.0385 4.1327 5.7754 4.8789 0.73562 0.74 1.416 1.6172 1.416 1.6172-1.7025-0.38812-5.4902-2.0547-5.4902-2.0547 1.85 1.4494 4.8474 4.4802 5.6855 5.2227 0.82626 0.74625 2.3164 1.748 2.3164 1.748l1.0801 0.23047s1.2123 2.1932 2.0273 2.127c0.805-0.0725 1.1869-0.07488 1.4531-0.73047 0.26125-0.66312-0.34891-2.5405-0.69141-3.6055-0.33562-1.0556-2.126-2.9774-2.9941-4.0137-0.87061-1.0275-2.6456-4.5662-2.8594-5.2949-0.20814-0.72688-0.75805-1.3611-0.93555-1.6992-0.18-0.34-2.6507-3.0927-3.0176-3.4883-0.18375-0.1978-0.35866-0.30571-0.52539-0.32422zm-16.998 8.9219-1.3574 9.7012-0.002 0.002s-1.2952 1.6053-1.8496 2.3516c-0.5625 0.74875-0.93164 2.8066-0.93164 2.8066-0.78189-1.21 0.11914-3.3613 0.11914-3.3613s-1.8413-1.3164-2.0176-1.3164c-0.17625-0.0062-3.168 1.0645-3.168 1.0645s-1.5337 4.7321-1.2012 5.6309c0.31689 0.895 2.2676 4.0371 2.2676 4.0371l6.2852-0.65234s1.4334-2.0261 2.1016-2.5273c0.415-0.32938 0.82914-0.90328 1.166-1.4883 0.0131-0.02438 0.0208-0.04703 0.0352-0.06641 0.0344-0.10875 0.076-0.2268 0.10352-0.3418 0.0319-0.0975 0.0578-0.20766 0.0859-0.31641 0.0144-0.0575 0.0344-0.12138 0.0469-0.18945 0.0206-0.1 0.0394-0.20188 0.0625-0.3125 0.0113-0.07062 0.024-0.14617 0.0371-0.2168 0.0175-0.0975 0.0374-0.20344 0.0449-0.30469 0.01-0.09063 0.0277-0.17211 0.0352-0.25586 0.0125-0.0975 0.0212-0.18383 0.0312-0.2832 0.0131-0.09313 0.013-0.19023 0.0273-0.28711 0.004-0.0775 0.0138-0.17008 0.0176-0.25195 0.009-0.10812 0.0159-0.21805 0.0215-0.32617 0.007-0.075 0.008-0.14617 0.008-0.2168 0.0125-0.115 0.0169-0.23414 0.0156-0.35352 0.005-0.05938 0.006-0.12462 0.006-0.17969 0.006-0.12625 0.005-0.25508 0.008-0.37695-0.002-0.04625-0.004-0.08801 0-0.13672 0-0.13688 0.001-0.26789 0-0.40039-0.008-0.02875-0.004-0.05706-0.004-0.08594-0.002-0.14625-0.004-0.28742-0.01-0.41992 0.002-0.01313-0.001-0.02531 0-0.03906-0.006-0.13688-0.0137-0.26539-0.0137-0.38476-0.003-0.0087-0.004-0.02203-0.008-0.03516-0.007-0.25188-0.0157-0.46867-0.0332-0.63867 0.006-0.01 0-0.0098 0-0.0098-0.0156-0.26688-0.0312-0.42383-0.0312-0.42383l0.2832-7.8926c0.005-0.0025 0.01-0.002 0.01-0.002-0.47312-0.3975-0.83594-0.84125-0.99219-1.0469-0.0625-0.06812-0.084-0.11523-0.084-0.11523s-0.0189-0.01516-0.0234-0.01953l-1.0918-0.31836zm-16.195 2.5488c-0.0631 1.6656-1.9629 3.0566-1.9629 3.0566l0.82422 0.45117c1.6625-0.08375 3.4023-2.5234 3.4023-2.5234-0.8175 0.10375-2.2637-0.98438-2.2637-0.98438zm14.055 2.1074c-1.4031 3.415-4.9999 4.0895-5.0137 4.127-0.0319 0.04 1.4867-0.2957 1.9805-0.2207 0.3875 0.06187 1.416 0.72461 1.416 0.72461l0.72656-1.3301 0.89063-3.3008zm-18.41 2.1191s4.5775 4.5876 5.0781 5.0801c0.5025 0.4925 1.134 0.94344 1.0215 1.4609-0.11687 0.51688-0.77859 3.0972-0.13672 3.7422 0.63563 0.64062-0.74601 3.7164-1.8066 5.4258l2.7383 1.0684s1.3012-3.3924 1.4356-4.5762c0.13689-1.1731-0.33344-2.1914-0.55469-2.6289-0.21937-0.42875-0.40289-1.4194-0.18164-2.2188 0.22188-0.79938 0.29024-2.4637-0.54101-3.0137-0.84188-0.5475-7.0527-4.3398-7.0527-4.3398zm-46.215 0.36133-11.74 2.7207s-1.5952 11.49-1.7539 12.641c-0.61875 0.16125-2.7747 0.73555-4.8203 1.2793-0.27312 0.4925-0.57766 1.0437-0.86328 1.5605 2.3831-0.63438 5.9157-1.5684 6.7363-1.7891 0.15938-1.1462 1.7559-12.639 1.7559-12.639l10.867-2.5215c-0.02188-0.13938-0.03125-0.21484-0.03125-0.21484l-0.15039-1.0371zm33.562 0.27344c-0.37562 0.21625-0.80148 0.46726-1.2246 0.71289-0.01 2.1712-0.02422 4.8891-0.02734 5.7598-1.1512 0.17875-10.962 1.6687-15.861 2.4199-0.28188 0.4525-0.57898 0.93352-0.84961 1.3691 3.2194-0.49062 16.573-2.5262 17.926-2.7344 0.0075-1.1394 0.02773-5.418 0.03711-7.5273zm-58.404 5.505c-0.31438 0.0925-0.71148 0.21422-1.1465 0.33984v1.1211c0 2.5206 0.000703 5.1226-0.43555 7.2207-1.0331 4.8975-3.0613 5.5118-7.1895 6.8262l-0.12695 0.041-6.8379 2.2051-0.11523 0.0391c-1.5506 0.5125-3.7993 1.2577-5.2637 0.81836 0.17125 0.2275 0.36719 0.43437 0.60156 0.59375 1.3888 0.8925 4.0505 0.009 5.8105-0.57422l0.11328-0.0371 6.8359-2.207 0.12891-0.0371c3.1656-0.99689 6.155-1.9307 7.1875-6.8301 0.43625-2.0944 0.4375-4.7002 0.4375-7.2227v-2.2969zm206.62 4.473c-0.29812 0.08187-0.65298 0.18-1.0273 0.28125-0.0125 1.9262-0.0342 4.7096-0.043 6.0215-1.6425-0.40188-11.497-2.8088-15.994-3.9062-0.24313 0.30688-0.51899 0.64258-0.84961 1.0488 2.4069 0.59 15.915 3.8888 17.861 4.3594 0.01-1.6306 0.0415-6.1078 0.0527-7.8047z" transform="matrix(.8 0 0 -.8 201.07 597.16)" fill="#f7eec5"/><path d="m129.49 18.861c0.2025 0.83062 0.76047 3.1141 0.88672 3.6484 0.15125 0.65625 0.17188 0.875 0.17188 0.875h0.002s0.79562 0.30242 0.875 1.6855c0.0662 1.1131-0.63281 1.4629-0.63281 1.4629l2.9277 5.6914 0.004 0.0059-2.0332-5.4883s0.4961-0.07969 0.4961-2.4453c0-2.3662-2.6973-5.4355-2.6973-5.4355zm-3.1953 0.77344s-3.3209 4.6366-4.6934 7.7266c-1.375 3.0931-3.2051 7.3867-3.2051 7.3867s-5.382 3.0879-7.2695 4.9785c-1.8888 1.8869-4.9219 6.6953-4.9219 6.6953s4.9188-5.0898 7.4395-5.9492c2.5169-0.8575 6.2973-2.4037 7.2129-3.6074 0.91437-1.2019 1.8876-7.4398 2.8613-10.135 0.97437-2.6888 2.5762-7.0957 2.5762-7.0957zm15.125 6.1992s-0.30977 0.39742-0.40039 0.56055c0 0-2.1199 2.428-2.4512 3.6074-0.33688 1.1888-0.11383 4.1678 0.37304 5.8047 0.0888 0.30062 0.17774 1.0664 0.17774 1.0664l0.1582 0.81445s-0.77781 0.43586-1.2266 1.0215c-0.445 0.58062-0.0879 1.3184-0.0879 1.3184s0.64679-0.75164 1.3418-1.0254c0.44313-0.18375 0.69532-0.1582 0.69532-0.1582s0.45828-2.8489 0.5664-4.4883c0.10375-1.6394-0.20898-3.9004-0.20898-3.9004s0.21984-0.65539 0.58984-1.8223c0.3675-1.1506 0.47266-2.7988 0.47266-2.7988z" transform="matrix(.8 0 0 -.8 201.07 597.16)" fill="#b38f4f"/><path d="m304.38 576.74s0.401-0.2455 0.698-0.0865c0.299 0.157 0.524 0.5425 0.524 0.5425s-0.0325-0.8415-0.454-1.103c-0.418-0.2615-0.768 0.647-0.768 0.647" fill="#fffdee"/></g></g><script xmlns=""/></svg>