<svg xmlns="http://www.w3.org/2000/svg" height="217.02" viewBox="0 0 202 217.01534" width="202"><g transform="matrix(1.25 0 0 -1.25 -294.18 1058.1)"><g transform="matrix(2.3891 0 0 2.3891 -437.4 -1053.2)"><path d="m332.3 749.95c0.571 0.476 1.112 0.979 1.623 1.507 0.287-0.053 0.497-0.093 0.614-0.116 0-0.002 0.212-0.042 0.212-0.042 1.968-0.391 7.196-1.425 9.933 3.834 0.482 0.929 0.725 1.932 0.725 2.93 0 0.847-0.175 1.69-0.527 2.481-0.645 1.445-1.787 2.474-3.136 2.822-0.215 0.056-0.788 0.202-1.643 0.419 1.34 5.47 1.282 10.745-0.203 15.508-1.984 6.367-6.326 11.35-12.555 14.412l-2.354 1.156 0.717-2.524c0.033-0.115 2.538-9.218 0.483-20.688-0.568 0.342-1.248 0.662-2.076 0.93l-0.076 0.025-10.656 1.896-0.066 0.008c-3.644 0.546-6.577-0.781-8.494-1.772-1.888 0.479-4.869 1.235-4.875 1.236-1.089 0.398-3.437 0.637-5.667-0.32-1.926-0.826-3.37-2.396-4.178-4.54-1.162-3.079-1.185-5.611-0.069-7.524 0.11-0.188 0.229-0.359 0.351-0.523-3.575-3.112-7.579-8.408-8.435-16.877-0.058-0.574-0.087-1.148-0.087-1.719 0-4.315 1.646-8.48 4.728-11.882 4.394-4.851 11.305-7.738 18.486-7.726 8.895 0.018 16.11 3.949 20.496 7.133h11.68c4.854 0 6.467 4.421 7.764 7.974l0.103 0.282c0.375 1.026 3.124 9.81 3.241 10.184l0.474 1.516h-16.533z" fill="#9a8648"/><path d="m328.79 748.88c1.674 0.993 3.297 2.249 4.736 3.837 0.645-0.121 1.075-0.202 1.231-0.232 1.811-0.35 6.463-1.474 8.887 3.186 1.461 2.811 0.016 5.994-2.193 6.563-0.3 0.078-1.293 0.332-2.778 0.708 3.689 13.217-1.227 24.494-11.846 29.714 0 0 2.947-10.331 0.141-23.101-0.654 0.673-1.62 1.397-3.215 1.911l-10.548 1.878-0.034 0.004c-3.562 0.533-6.405-0.905-8.207-1.854-3.212 0.814-5.289 1.341-5.317 1.349-1.148 0.484-6.484 1.087-8.456-4.144-1.669-4.424-0.46-6.66 0.914-7.751-3.599-2.832-8.107-8.068-8.998-16.879-1.134-11.229 9.562-20.065 21.963-20.041 8.829 0.017 16.016 4.106 20.224 7.231h11.829c4.047 0 5.253 2.458 7.687 9.591 0.35 1.018 2.604 8.03 2.604 8.03h-18.624z" fill="#006940"/><path d="m66.455 10.834s6.1637 14.012-0.20508 31.238c-0.0012 0.0063 0.61797 0.15352 0.66797 0.16602 0.57375 0.135 1.1246 0.69516 1.3184 1.4727l-6.4473-1.5c0.17-0.365 0.30398-0.75297 0.39648-1.168 0.0063-0.0037 0.006 0.0125 0.0098 0 0.01375-0.08375 0.03156-0.16875 0.03906-0.25 0.0063-0.035 0.0098-0.10938 0.0098-0.10938 0.285-3.3862-4.1289-4.2227-4.1289-4.2227s0.55906-2.2173-2.9297-2.9648c-4.0562-0.8675-11.865-1.7012-11.865-1.7012-3.655 0.2075-5.3797 1.1927-6.1172 1.8164 0.1575 0.21625 0.30109 0.43094 0.43359 0.64844 0.02625 0.04375 0.34102 0.61539 0.44726 0.86914l0.002 0.002c0.05375 0.12625 0.15055 0.40141 0.1543 0.41016 0.04125 0.12625 0.11594 0.39539 0.11719 0.40039 0.0675 0.27375 0.11688 0.55516 0.14062 0.84766h-0.002c0.0325 0.38625-0.02344 1.2285-0.02344 1.2285-0.01625 0.13875-0.06977 0.46367-0.07227 0.48242-0.02375 0.1275-0.10524 0.48664-0.11524 0.52539-0.025 0.1-0.24461 0.84836-0.25586 0.88086-0.0575 0.16875-0.11805 0.33867-0.18555 0.51367-0.06 0.15375-0.27312 0.62844-0.29688 0.67969-0.0475 0.0975-0.22508 0.44524-0.26758 0.52148-0.05 0.0875-0.24086 0.41258-0.28711 0.48633-0.25125 0.3975-0.5457 0.78961-0.87695 1.1621-0.03875 0.045-0.28625 0.31094-0.375 0.39844-0.05875 0.0575-0.35141 0.3293-0.44141 0.4043-0.0725 0.0625-1.0695 0.79562-1.5645 1.0469l-0.002 0.002c-0.16 0.08-0.32539 0.15797-0.49414 0.23047-0.0087 0.0038-0.0193 0.0067-0.0293 0.01172-1.0415 0.43959-2.2705 0.70757-3.7188 0.7168-3.4175 2.6638-14.873 8.2529-14.941 21.088-0.005 0.86625 0.06438 1.738 0.20312 2.6055l4.5938-3.2051c0.475-5.925 4.1087-10.684 9.7637-14.174 5.8975-5.9762 14.742-6.9746 14.742-6.9746s-2.4977-2.375-2.7715-4.2188c4.0612 0.43125 5.3068-2.4391 5.3105-2.3379 0 0 0.59828 1.9394 4.1133 1.1094 0 0 1.1562 2.5828 4.2949 2.5391 0.06375-0.0012-0.92984 2.4059 3.0664 3.8809l3.7227 0.6875 2.2363 0.41406 2.6875 0.49609c-0.65875 0.7725-1.7562 1.7053-3.2188 1.6641l-0.691-0.128c-3.6837 5.6838-8.7578 10.215-8.7578 10.215 0.005 0.0012 8.8405-3.5636 13.668-11.59 0.04-0.06625 0.07789-0.13562 0.11914-0.20312 0.15625-0.2675 0.30828-0.54156 0.45703-0.82031 0.04875-0.09 0.09898-0.17898 0.14648-0.27148 0.18-0.34875 0.35383-0.70406 0.51758-1.0703 0.19625-0.44125 0.38445-0.87875 0.56445-1.3125 0.025-0.06375 0.05187-0.13031 0.07813-0.19531 0.1725-0.42 0.33859-0.83555 0.49609-1.248v-0.002c7.8838-20.698-3.4355-32.193-3.4355-32.193zm-42.205 20.687c-1.5607 0.06682-3.1205 1.7125-4.0742 4.1133-1.1175 2.815-0.70297 5.6247 0.92578 6.2734 0.2425 0.095 0.49797 0.1332 0.76172 0.12695l0.06445 0.0059c1.03-0.05625 2.1709-0.85117 3.0859-2.1074l1.7129 0.33594 7.1855 1.4023c0.055-0.0525 0.26836-0.27664 0.34961-0.36914 0.0325-0.0375 0.55242-0.59172 1.0762-1.668 0.20875-0.42875 0.47242-1.3436 0.48242-1.4023 0.01375-0.0775 0.04367-0.27758 0.04492-0.29883l-8.8398-2.1094-0.38477-0.0918c0.2175-1.995-0.36008-3.7074-1.5801-4.1074-0.0175-0.005-0.14258-0.03711-0.14258-0.03711v0.0039c-0.22125-0.05734-0.445-0.07986-0.66797-0.07031zm50.502 15.432c0.0025 0.0087-0.0048 0.0042-0.02734 0.04297-0.5275 0.93875-1.1319 1.907-1.7969 2.8008-0.035 0.04875-0.04742 0.06625-0.04492 0.0625l0.062 0.016 5.055 1.139c0.86625-0.56875 1.3552-1.3325 1.8477-2.5312 0.05625-0.13875 0.09625-0.27109 0.125-0.40234l-5.1738-1.1172-0.04687-0.0098zm-38.045 9.502-3.6172 4.3691-2.5586 7.8906 2.2793-1.2969 3.8965-10.963zm15.348 1.4238-2.1133 1.3477s2.0095 1.9022-0.2168 4.8047c-4.62 3.97-9.1206 2.7305-9.8594 1.6055l-2.0488 1.2676c2.0062 2.4225 7.7395 0.48891 9.127-0.02734-2.6838 2.4588-5.8887 4.9473-5.8887 4.9473l-4.1758 1.2793h4.9453s4.9408-3.9745 6.457-5.3008c1.515-1.3288 6.9222-6.2351 3.7734-9.9238zm-12.189 7.7578 2.2559-1.4746s-1.1002-1.8055 1.416-3.7793c2.8588-2.005 4.5625-0.06641 4.5625-0.06641l1.8418-1.0898s-2.7834-2.4426-7.0059-0.23633c-2.8925 1.5125-4.3366 3.8302-3.0703 6.6465zm-7.5234-4.6328-10.27 7.002 3.1113-0.58789 5.5469-4.0918 1.6113-2.3223zm29.559 1.0469-1.4355 1.2129h-4.1133l-1.459 3.9551 1.5938-0.86719 0.66211-1.8535h3.8477l0.9043-2.4473zm9.3164 0.40234-1.4219 1.0488s1.472 0.64352 0.81445 2.0723c-0.70625 1.5375-1.932 2.2529-4.082 2.4629l1.7793 4.1543-1.8984 0.96875h4.0273l-2.2207-4.5547s1.9822-0.15047 3.3359-2.0742c2.1912-3.2238-0.33398-4.0781-0.33398-4.0781zm-1.4219 1.0488s-0.34938-0.21289-1.5781-0.21289h-2.5098l-1.7148 4.6426 1.6016-0.9043 1.0293-2.7695s0.1482-0.0011 0.5957 0.0039c1.0075 0.0475 1.2441 0.29688 1.2441 0.29688l1.332-1.0566zm13.277-0.59961-2.1562 0.52344c-1.585-0.67-5.5323-0.10266-5.2461 3.3086l1.6367-1.0977c-0.13125-0.73 1.8284-2.0722 3.6484-0.49219l2.1172-2.2422zm-22.967 3.4492-1.748 1.2148h-3.5488l-1.5195 4.0586 1.5508-0.91406 0.76367-1.9082h3.6074l0.89453-2.4512zm15.559 0.38672-1.7246 1.1602s0.54602 0.65867 1.9785 0.98242c1.9425 0.43875 1.627 1.1934 1.627 1.1934l1.7012-1.1758s-0.31445-0.7218-2.1895-1.3105c-1.0975-0.345-1.3926-0.84961-1.3926-0.84961zm-38.561 0.68-3.233 1.332h-3.3398l-1.1367 3.1641-2.3184 1.2715h3.582l1.1934-3.1523h2.6699l2.582-2.6152zm43.912 0.30859-1.7695 1.1758c0.46125 3.1262-3.6797 4.4418-6.0234 3.1543l-2.3691 0.36914c1.3688 1.1188 3.4365 1.6766 6.084 0.96289 3.315-0.72375 5.0631-4.4421 4.0781-5.6621zm-17.094 0.29883-1.4551 3.9922-2.3887 1.1426 3.2969 0.0039 1.5684-4.2715 1.5234-0.86719h-2.5449zm-43.107 0.72266-3.7266 1.291h11.18l1.9395-1.291h-9.3926zm37.873 1.9668-1.623 1.0996h-3.9199l-2.4492 1.3457h7.0859l0.90625-2.4453zm-43.432 1.2344c2.19 7.2638 9.4473 13.761 21.197 13.926 2.5412-0.05 4.8726-0.26945 6.9863-0.5957 4.2125-0.74375 8.8606-2.2148 13.922-4.5898-14.208 4.5762-24.873 3.8451-31.248-0.16992l-3.8691-0.01172 0.90234-2.4043c-1.6462-1.74-2.7786-3.8168-3.3711-6.1543h-4.5195zm64.314 3.4277-4.9688 1.7832h-46.443l-3.1602 1.6191h49.48c3.3875 0 4.7143-2.8086 5.0918-3.4023z" transform="matrix(.8 0 0 -.8 277.14 796.46)" fill="#9a8648"/><path d="m66.455 10.834s2.3565 17.168-2.3848 30.686c0.9475 0.24125 1.6884 0.42774 2.1797 0.55274 6.3688-17.225 0.20508-31.238 0.20508-31.238zm-20.066 28.029c-0.0037-0.10125-1.2461 2.7698-5.3086 2.3398 0.27375 1.8425 2.7715 4.2168 2.7715 4.2168s-8.8466 0.99711-14.744 6.9746c1.305-0.80625 2.7171-1.5473 4.2246-2.2148 8.5488-3.7975 14.934-0.37891 14.934-0.37891-0.11625-1.8988 2.6328-2.9141 2.6328-2.9141-2.6625-0.38-5.9355-3.6552-3.293-5.959 3.5 1.0107 7.6203 3.6658 7.752 6.1992 0.01229 0.24809-0.0096 0.49463-0.07813 0.74024-0.0275 0.0975-0.0625 0.19352-0.09375 0.29102l5.2969 0.97656c-3.9125 7.1562-6.6387 10.604-6.6387 10.604s5.0741-4.5291 8.7578-10.213l0.69141 0.12891c1.4625 0.04125 2.56-0.89031 3.2188-1.6641l-2.6875-0.49805-2.2363-0.41211-3.7227-0.6875c-3.9962-1.4762-3.0014-3.8834-3.0664-3.8809-3.1388 0.04375-4.2949-2.541-4.2949-2.541-3.515 0.83125-4.1152-1.1074-4.1152-1.1074zm-21.375 1.0703c-0.91375 1.2575-2.0572 2.0524-3.0859 2.1074l7.8711 1.4414c1.475-0.1025 2.9309-0.62484 4.1172-1.8086l-8.902-1.738zm-2.133 5.129c-2.8112 2.0288-10.642 7.1288-12.498 18.611-2.5737 15.941 13.819 24.158 23.668 24.158 14.225 0 23.311-7.1426 23.311-7.1426-24.138 11.326-38.827 2.1573-42.109-8.7402h-3.6152l3.1172-2.1758c-0.13875-0.86875-0.21008-1.7385-0.20508-2.6035 0.06875-12.836 11.524-18.426 14.941-21.09-0.82875 0.0037-1.7288-0.07195-2.7051-0.25195-1.5575-0.29-2.843-0.54438-3.9043-0.76562zm50.002 4.7969c-0.3525 0.47-0.72047 0.91812-1.1055 1.3281l3.9023 0.73828c1.0037-0.15375 1.756-0.50211 2.3223-0.91211l-5.1191-1.1543z" transform="matrix(.8 0 0 -.8 277.14 796.46)" fill="#231f20"/><path d="m66.455 10.834s12.333 12.519 2.2969 34.951c-4.3388 9.6938-14.902 13.954-14.908 13.953 3.5875-0.74375 12.195-3.7222 17.293-12.367 13.488-22.898-4.6816-36.537-4.6816-36.537zm-41.394 20.791c1.2188 0.4 1.7963 2.1137 1.5801 4.1074l9.2266 2.2012c0.18625-1.7725-0.82172-3.1578-1.6992-4.0078-0.045-0.0125-9.1774-2.3233-9.1074-2.3008zm18.871 1.9551c-0.7157-0.02124-1.3516 0.25586-1.3516 0.25586 0.61375 1.6075 0.06641 3.6836 0.06641 3.6836 0.225 0.61625 0.87977 0.59562 1.2598 0.51562 1.3912-0.29125 1.8948-3.377 1.2773-3.9707-0.36469-0.35156-0.82253-0.47163-1.252-0.48438zm4.2051 0.50977c-0.145 2.5875-0.82227 3.5273-0.82227 3.5273s0.68828 1.0665 2.082 0.64648c1.3875-0.42125 1.6654-3.1517 1.0879-3.7305-0.30875-0.31-1.9514-0.42086-2.3477-0.44336zm5.1816 0.9082c0.18625 1.9175-1.0027 3.7898-1.1777 4.0898 0.16625 0.6025 1.4743 1.0112 1.8105 0.95117 1.3138-0.2375 2.3612-3.2263 1.7637-4.2363-0.4125-0.695-2.0415-0.79094-2.3965-0.80469zm4.7305 3.2305c-0.15125 1.3638-1.276 2.8231-1.6973 3.3281-0.265 0.75125 1.7591 2.3177 3.3066-0.58984 0.65-1.2662 0.95688-2.3508-1.6094-2.7383zm-10.443 2.6992c-2.6438 2.3038 0.63047 5.5777 3.293 5.959 0 0-2.7491 1.0153-2.6328 2.9141 0 0-6.3848-3.4186-14.934 0.37891-8.035 3.565-13.403 9.0969-13.986 16.391l5.4258-3.793c0.27125-0.6575 0.58992-1.2619 0.95117-1.7969 5.14-7.6062 16.606-7.6066 19.916-7.3203 5.6988 0.485 8.7444-2.5842 9.6406-5.793 0.765-2.7388-3.8313-5.8307-7.6738-6.9395zm14.581 0.116c-0.0925 0.41375-0.22844 0.80172-0.39844 1.168l6.4473 1.5c-0.19375-0.7775-0.74656-1.3377-1.3203-1.4727-0.14125-0.03375-1.9373-0.48781-4.7285-1.1953zm13.77 3.5586c-0.3325 0.705-0.73703 1.5153-1.207 2.3516l5.2305 1.127c0.45625-1.2925-0.35727-2.56-1.1973-2.7812-0.59625-0.15875-2.0399-0.50727-2.8262-0.69727zm-28.614 11.794c-3.7388 0-8.4702 1.9033-10.021 6.082-0.58125 1.5662-0.5032 3.0588 0.2168 4.0938 0.0832 0.11857 0.18066 0.22565 0.2793 0.33008l2.0469-1.2676c-1.265-2.8162 0.17906-5.1308 3.0703-6.6445 4.2238-2.2062 7.0059 0.23633 7.0059 0.23633l2.1074-1.3438c-0.03625-0.03875-0.06992-0.08109-0.10742-0.12109-0.87875-0.86625-2.5539-1.3652-4.5977-1.3652zm2.5977 2.8301-1.8418 1.0898s-0.01773-0.02094-0.05273-0.05469c0.03 0.03625 0.06234 0.07133 0.08984 0.11133 0.37375 0.53875 0.42875 1.2384 0.15625 1.9746-0.58 1.5588-2.4098 2.7812-4.166 2.7812-0.86125 0-1.5447-0.30297-1.9297-0.85547-0.04625-0.0675-0.07617-0.11328-0.07617-0.11328l-2.2559 1.4746c0.73875 1.125 5.2394 2.3652 9.8594-1.6035 2.2262-2.9038 0.2168-4.8047 0.2168-4.8047zm-12.123 7.6758-0.002 0.002c0.0175 0.02375 0.03984 0.0432 0.05859 0.06445-0.02036-0.02057-0.03673-0.04533-0.05664-0.06641zm-1.1113-10.447-19.619 13.584 3.7266-1.291h9.3906l-1.9355 1.2871c-0.26375 0.6975-1.1934 3.1504-1.1934 3.1504l2.3184-1.2715 1.1367-3.166h3.3398l3.2324-1.3301h-4.293l-2.2793 1.2949 2.5586-7.8887 3.6172-4.3691zm-4.3633 4.5488-1.6074 2.3125c-0.50125 1.3725-1.3775 3.7666-1.5 4.1016h-4.0527l-3.1113 0.58594 10.271-7zm47.17 0.98438c-2.49 0-4.839 1.473-5.6777 3.7305-0.39625 1.0688-0.30758 1.7233 0.10742 2.1758l1.7207-1.1562s0.29313 0.50461 1.3906 0.84961c1.8762 0.58875 2.1914 1.3086 2.1914 1.3086l-1.6973 1.1777c-0.0037 0.01625-0.0062 0.03328-0.01367 0.05078-0.2875 0.7825-1.2244 1.123-1.9844 1.123-1.1062 0-1.8735-0.51914-2.4473-1.1504l-2.25 2.3281 2.3691-0.36914c2.3438 1.2875 6.4847-0.02805 6.0234-3.1543l1.7637-1.1719c-0.35875-0.5325-1.0412-0.87148-1.875-1.1152l-0.74609-0.21875c-0.39875-0.13125-0.97336-0.31734-1.0684-0.71484-0.0075-0.02875-0.01687-0.06117-0.01562-0.04492l-0.07031 0.04883-1.5645 1.0488c-0.285-3.4112 3.6611-3.9805 5.2461-3.3105l2.1562-0.52148c-0.89875-0.56125-2.3023-0.91406-3.5586-0.91406zm-24.693 0.05859-4.1211 11.113 2.4453-1.3457h3.9199l1.623-1.0996h-3.8477l0.0078-0.02148-0.0078 0.01758-1.5508 0.91211 1.5195-4.0566h3.5488l1.748-1.2148 0.002-0.002h-3.6191l-0.002 0.002-1.5938 0.86719 1.459-3.957h4.1133l1.4355-1.209 0.002-0.0059h-7.082zm9.3887 0-4.125 11.109 2.3828-1.1387 1.457-3.9902h2.543l-1.5234 0.86523-0.002 0.0059 1.4668 4.2617 1.8984-0.96875-1.7773-4.1543c2.15-0.21 3.3738-0.92539 4.0801-2.4629 0.6575-1.4288-0.81445-2.0723-0.81445-2.0723l-1.332 1.0566c0.28875 0.2025 0.40883 0.53773 0.20508 1.084-0.4475 1.2088-1.701 1.3848-2.7598 1.3848h-0.24414-0.06836-0.002l-0.05469 0.03125-1.5469 0.87305 1.7148-4.6426h2.5098c1.2275 0 1.5781 0.21289 1.5781 0.21289l1.419-1.05c-0.56345-0.27204-1.3054-0.40625-2.1738-0.40625h-4.834zm-17.266 4.828c-0.5375 0.19875-1.7284 0.61234-3.0996 0.90234-0.03 0.04375-6.3582 4.8612-6.9707 5.3262 0.005-0.0012 0.0039 0 0.0039 0l4.1758-1.2793s3.2056-2.4892 5.8906-4.9492zm34.33 1.5996c0 0.0075 0.000703 0.01399 0.002 0.02148-0.0012-0.0075-0.002-0.01399-0.002-0.02148zm0.0059 0.26758v0.0078-0.0078zm-61.506 3.207c0.59125 2.3375 1.7248 4.4143 3.3711 6.1543l1.729-4.6c-0.2175-0.51-0.40273-1.0297-0.55273-1.5547h-4.5469zm51.457 0.75781c0.0025 0.0012 0.006 0.0014 0.0098 0.0039-0.0037-0.0025-0.0073-0.0027-0.0098-0.0039zm-44.924 2.6699-1.3438 3.4023h0.03516l3.1582-1.6191h46.443l4.9688-1.7832h-53.262zm50.045 3.0703c-0.02 0.0062-0.03789 0.01203-0.05664 0.01953 0.01875-0.0062 0.03789-0.01328 0.05664-0.01953zm-0.32031 0.10742c-0.05 0.015-0.10109 0.02726-0.15234 0.04102 0.05-0.01375 0.10109-0.02602 0.15234-0.04102zm-1.4004 0.21484c-0.01125 0.0012-0.02125 0.000703-0.03125 0.002 0.01-0.0012 0.02-0.000703 0.03125-0.002zm-48.52 1.752c6.375 4.015 17.042 4.7435 31.248 0.16602-8.2225 1.7462-14.85 1.7462-20.834 0.875-1.4962-0.21875-2.83-0.57094-4.0312-1.0234l-6.3828-0.01758z" transform="matrix(.8 0 0 -.8 277.14 796.46)" fill="#fff"/></g></g></svg>