<?xml version="1.0" encoding="UTF-8" standalone="no"?>
<svg xmlns:rdf="http://www.w3.org/1999/02/22-rdf-syntax-ns#" xmlns="http://www.w3.org/2000/svg" xml:space="preserve" height="175.91" viewBox="0 0 176.64936 175.90627" width="176.65" version="1.1" xmlns:cc="http://creativecommons.org/ns#" xmlns:dc="http://purl.org/dc/elements/1.1/"><g transform="matrix(1.25 0 0 -1.25 -207.49 515.75)"><g transform="translate(.76759 .76759)"><path d="m285.31 410.13-4.3701-3.0719c-3.1307-2.1996-7.0596-2.3835-11.144-2.3835l-91.453-0.018h-2.776l-0.96891-2.6302-4.1528-11.272-1.572-4.2625 4.3701-1.0763c10.381-2.5539 12.592-6.0092 12.62-8.4555l0.002-21.167v-0.93053h-0.0511v-2.8992h-5.7869-2.6207l-1.0465-2.4306-6.3146-14.684-2.4301-5.6527h6.0973l12.106-0.002 0.002-0.94398 0.0421-21.857c-0.0688-3.5562-6.2725-8.0631-11.858-8.5295l-5.2748-0.44174 1.8603-5.0092 4.0597-10.926 0.97557-2.6212h2.7693l89.928-0.007c8.8666 0 15.474-3.323 15.543-3.3589l4.1152-2.101 1.4855 4.4105 12.977 38.916 1.7804 5.3343h-5.5674-12.186-2.4877l-1.0975-2.2534c-5.4011-11.07-13.463-16.866-23.959-17.229l-32.704-0.002v25.683 0.93726h19.092 2.1152l1.1906 1.7691c2.5676 3.8163 6.716 7.4936 11.687 10.352 1.6984 0.97762 3.4544 1.8342 5.2082 2.5405l1.7405 0.6996 0.58092 1.805 1.0332 3.2109 1.705 5.294h-5.5053-38.848v0.92828 25.279l33.48-0.004c10.235 0 14.993-6.063 20.673-17.998l1.0887-2.2893h2.5121 12.217 5.5652l-1.776 5.332-12.975 38.919-1.6984 5.0988z" stroke="#ffc72c" stroke-width="2.1405" fill="#ffc72c"/><path d="m139.47 1.1367c-5.2156 3.6244-11.418 3.8887-16.992 3.8887l-115.76 0.0195-5.2532 14.111c4.9594 1.2075 19.714 4.9821 19.836 15.443l0.0039 26.549 40.967 0.002v-36.705l47.434 0.0098c16.868 0 23.991 11.414 30.721 25.393h15.469l-16.43-48.711zm-118.23 66.234v3.6309h-12.387l-7.9922 18.379 90.635 0.0039c3.5281-5.1981 9.2533-10.407 16.473-14.512 2.4025-1.3675 4.8251-2.528 7.2207-3.4824l1.3125-4.0195h-95.262zm0.01172 28.242 0.05078 27.355c-0.15 7.9162-10.824 15.003-19.652 15.73l5.1367 13.674 113.83 0.01c12.712 0 21.973 4.7559 21.973 4.7559l16.424-48.707h-15.424c-4.8144 9.7562-14.841 23.745-34.783 24.385l-46.529 0.006v-37.209h-41.021z" transform="matrix(.8 0 0 -.8 172.76 404.8)" fill="#041e42"/></g></g><script xmlns=""/></svg>