<?xml version="1.0" encoding="UTF-8" standalone="no"?>
<svg xmlns:rdf="http://www.w3.org/1999/02/22-rdf-syntax-ns#" xmlns="http://www.w3.org/2000/svg" xml:space="preserve" height="85.993" width="113.63" version="1.1" xmlns:cc="http://creativecommons.org/ns#" xmlns:dc="http://purl.org/dc/elements/1.1/" viewBox="0 0 113.63379 85.993273"><g fill-rule="evenodd"><path d="m69.401 0.9084c-0.484-0.01314-0.997-0.01395-1.546 0.00293-4.689 0.55687-8.044 1.3949-10.895 3.9112-1.359-0.1881-2.516-0.3348-4.194-0.503h-1.8467c-2.1962 0.061875-2.7866-0.18402-5.539 0.2041-4.5244 0.635-7.233 2.205-10.058 3.96-2.205 1.3762-3.2154 2.6757-4.7686 4.7676-10.33 17.07-28.028 28.208-29.462 53.885l0.00781 4.9522c0.26812 3.1212 1.0464 8.179 1.9707 9.872 3.0038 1.9838 7.6475 1.0732 10.377 1.6806 0.9094 0.20375 1.5913 1.0106 2.5244 1.123 2.1131 0.25625 3.944-1.0924 5.6085-0.2793 1.4219-0.0181 1.6602 0.6868 3.9258 0.2793 2.4338-1.0544 5.115-1.1018 8.134-0.56055 2.6838 0.16 4.8542-0.19304 7.291-0.2793 2.9094-0.8781 5.658-1.1469 7.0105-3.0869 3.8512-5.517-4.2926-10.186-3.9258-15.702-0.46562-0.94625-0.46562-3.8242 0-4.7705 0.27938-4.2081 2.2614-6.711 4.4864-8.9735 4.3012 2.9919 8.952 5.6345 12.622 9.255 1.7662 1.6606 2.383 1.5419 3.3642 2.5244 6.0195 3.8912 12.011 7.8055 20.192 9.536 1.5494 0.14375 2.6455-0.16062 3.9268-0.28125 3.7456-1.3438 6.9305-4.3998 5.6085-9.8155-0.46625-0.5619-1.0161-1.0388-1.1211-1.9638-0.33-3.5956-2.701-5.1505-4.206-7.5715-0.82-0.8425-2.4873-2.091-2.2442-3.086 0.72625-0.6944 1.3735 0.2725 2.5234 0 11.27-2.2606 17.796 4.4828 22.438 10.657-0.5325-1.9938-1.3082-3.1438-2.5264-5.047-1.0531-1.3431-1.2696-1.5588-2.5215-2.8056-2.1644-2.045-6.213-2.5394-8.8115-4.7051 0 0 8.008 0.54125 10.493-0.0625 1.3931-0.33812 3.6723-0.62475 4.4873-1.9629-3.3906 1.775-7.6225 1.1606-12.34 0.56055h-2.8067c-3.1456 0.22125-5.0265 0.8161-8.6915 1.4024-1.1894 0.27375-3.6562 1.0888-4.4892 0-5.022-3.765-10.8-6.7725-13.74-12.619 5.3845-6.955 14.204-10.476 22.997-14.024-0.23562 1.8244 0.46297 2.7156 1.1211 3.6474 0.6194 0.03312 0.05465 1.862 0.21778 2.3545 0.09062 1.6731 0.09062 1.6772 0 2.5948-0.175 0.7594-0.2784 1.5546-0.21778 2.0615-0.81625 4.7962-2.2462 8.224-3.3662 12.34 1.0281 0.18312 1.1421-0.29531 2.2246-0.83595 1.2556-0.8944 1.9567-1.808 3.1054-2.8106 2.2394-3.2656 3.6523-7.549 4.4854-11.778 0.2275-1.1562 0.17519-3.0812 1.4033-3.9268 1.7906 0.45062 1.3024 3.1836 1.4024 5.326 0.20687 2.8012 0.15379 4.647-0.11621 7.2365 0.0256 1.5756-0.1118 1.9478-0.43555 4.2198l-0.29004 1.164c1.5156-0.44688 2.1312-1.4884 3.085-2.8028 1.4938-2.4325 2.7238-4.7451 3.5176-9.127l-0.16113-4.418c0-1.5106 0.49433-3.0727 0.56935-4.6846 0.0775-1.6275-1.434-4.0869-0.5615-5.047 0.20375-1.3881 1.8582-1.3232 2.5244-2.2451l0.18945-1.2949c-1.6444-3.6388-2.0619-8.8405-6.078-9.6425-3.5512-0.7081-7.5725 0-7.5725 0-2.9044 0.80625-3.8414 0.22972-6.7315-0.28028-1.5088-0.21188-1.7262-0.2118-3.083-0.2793-2.1531-0.18562-4.233-0.40125-6.7325-0.28125-0.38625 0.0125-1.639-0.22332-1.8652-0.37207-2.4412-0.7375-3.873-1.0343-7.1075-1.3106-1.1316-0.096095-2.3288-0.24478-3.7822-0.28418z"/><path d="m81.863 3.4355c-2.535-0.01-3.865 1.1831-6.73 0.8418 0.258 1.7131 3.265 0.5024 4.486 0.5586 1.081 0.1275 3.7-0.816 2.244-1.4004zm-20.029 0.0782c-2.133 0.131-3.903 1.9272-4.09 3.2871-1.917-0.3263-3.578-0.9087-5.607-1.1231h-0.004c-1.503-0.466-4.942-0.466-6.444 0h-0.003c-4.815 0.4213-7.955 2.5159-10.936 4.7693-1.052 0.818-1.987 1.752-2.805 2.803-3.353 4.405-8.304 10.655-10.56 15.223 0.518-0.793 3.25-1.313 4.672-1.202-0.09 0.66-0.445 1.053-0.282 1.965 0.588 0.345 1.095 0.776 1.682 1.119 0.767 0.206 0.567-0.556 1.123-0.56v-0.281c-2.236-0.413-1.662-2.987-0.842-4.485-0.025-0.443-0.715-0.22-0.56-0.841h0.984c0.216 0.203 0.474 0.366 0.699 0.56h0.559c0.098-0.169 0.172-0.362 0.24-0.56h1.266c0.04 0.182 0.098 0.367 0.178 0.56 0.781 0.246 1.707 0.35 2.244 0.84-0.493 0.256-0.513 0.985-0.842 1.404h-0.281c-0.06 1.65 1.025 2.152 2.242 2.522h0.002c0.715-0.032 1.443-0.053 1.402-0.84-0.616-0.88-2.23-0.76-2.242-2.244 0.327-0.418 0.347-1.146 0.84-1.401 0.033-0.547-0.366-0.663-0.701-0.841h3.787c-0.606 0.796-1.944 0.861-2.805 1.4-0.066 1.19 0.58 1.662 1.4 1.963-0.2 0.762 1.325-0.2 1.123 0.562-0.281 0.002-0.351 0.49 0 0.561h0.282c0.605 0.942 1.286-0.368 1.961-0.279 0.158 0.402 0.438 0.683 0.841 0.841h0.282c1.191 1.247 2.233-1.148 2.804-0.562 1.18 0.057 2.345 0.1 2.524-0.842-3 0.781-11.181-0.082-6.451-3.363-0.234 0.606-0.727 0.955-0.561 1.961 1.446 1.083 3.468 0.338 4.207-0.842-0.086 1.395 0.697 1.92 2.244 1.683 0.66-0.085 0.522-0.972 1.403-0.841 0.525 0.947 2.742 0.597 3.084-0.28 1.109-0.625 0.25-1.675 0.841-2.525 1.407 1.401 4.797 0.504 5.328-1.402-0.744-0.759-2.309 1.114-3.365 0 0.617-1.065 2.69-0.677 3.365-1.682 0.301-1.049-0.697-0.8-0.562-1.684 0.558-0.498 2.432-1.042 2.525 0.28h-0.002c0.285 1.313-1.123 0.934-0.839 2.246 0.42-0.048 1.035 0.099 1.123-0.281 2.912-1.722 0.771-4.58-1.403-4.487-3.35 0.142-11.687 11.845-17.388 6.168-0.075-1.197 1.026-1.218 1.404-1.961-0.969-0.247-1.944-0.488-2.524-1.123-0.073-0.914 0.332-1.35 1.12-1.404-0.002 0.559-0.765 0.361-0.561 1.125 0.821-0.073 0.864 0.634 1.684 0.56h1.963c-0.56 0.842-1.053 1.752-1.963 2.243v0.56c7.475 0.552 11.339-4.92 15.705-8.412 1.33-1.097 2.548-2.312 3.644-3.644 2.512-2.3879 6.527-1.2659 10.657-1.1215 3.511-3.4212 9.579 0.9955 12.9 0-2.645-0.7206-4.819-1.9123-7.572-2.5254-0.709-0.5073-3.289-0.4938-3.647 0.2812-1.264 0.605-2.718 1.0181-4.764 0.8418h-0.003c-0.578-0.4646-3.064-0.4646-3.643 0h-0.002c-1.984-0.11-3.396 1.8329-4.486 1.6836 0.854-1.9499 3.15-2.4591 5.607-2.8066h0.002c1.353 0.2202 3.476-0.247 2.525-1.4004v-0.2813c0-0.0006-0.003-0.0013-0.003-0.0019-0.487-1.346-2.981-2.5189-3.645-0.5606-0.632 1.3318-1.908 2.0193-3.926 1.9649-0.081-0.3306-1.128-1.0605-0.279-1.4024 0.312 0.5544 2.318 1.0238 2.523 0 0.637-0.2993 1.019-0.8511 1.122-1.6836-0.516-0.1728-1.028-0.2314-1.52-0.2011zm28.228 1.3105c-1.051 0.0239-2.193 0.5368-2.591 1.1328-0.711 0.3188-0.814 1.2443-0.842 2.2461 0.53-0.0631 0.621 0.3137 1.123 0.2793 1.498 0.093 1.808 1.3712 2.244 2.5236 1.073 0.047 0.909-1.1449 1.4-1.6818 1.307-1.4799-1.522-1.846-1.962-1.6816v-0.2813c0.413-0.7099 1.797-0.4474 1.962-1.4043 0-0.2812 0.229-0.3323 0.282-0.5586-0.385-0.4267-0.985-0.5885-1.616-0.5742zm11.168 0.461c-1.17 0.1052-2.169 1.3567-2.542 2.6367-1.107 0.3431-0.213 0.8705 0.281 1.1211 0.166 1.195-0.202 1.857-0.281 2.807 0.256 2.801-4.974 3.693-4.766 0.279 1.208 0.101 1.062 1.555 2.805 1.121 0.541-0.392 0.831-1.039 1.121-1.684 0.616-0.279 0.326-3.4711-0.282-2.523h-0.281c-0.603-0.4413 1.036-1.0029 1.125-1.6817v-1.4043c-3.403-2.3599-1.698 4.708-5.33 3.9297 0.196-0.74 1.275-0.5931 1.402-1.4043 1.065-0.3118 0.564-2.6734-0.281-2.8027-1.058-0.1244-1.315 0.5517-1.965 0.8398 1.313 5.7145-5.21 7.9205-8.691 10.656 0.539-1.143 1.309-2.057 1.684-3.365 0.533 0.118 0.506 0.801 1.4 0.56 1.906-0.812 3.373-4.5323 0.281-5.0468-0.707 0.4144-0.909 1.3328-2.242 1.1208-0.925 5.711-4.55 8.726-8.695 11.217-3.111-0.494-2.998 2.237-5.608 2.244-0.388 0.458-1.82-0.411-2.244 0.563-2.814 1.764-6.619 2.542-10.098 3.644-0.767 0.668-1.694 0.557-2.802 0.282-0.533 0.68-1.045 1.384-0.84 2.802 0.527 0.234 1.455 1.035 1.68 0 1.117-0.193 0.667-1.95 1.962-1.961-0.221 0.97 0.314 1.182 0.563 1.682 3.28 0.009 3.566-2.979 5.607-4.209 0.077 1.162-0.367 1.094 0 1.965 3.598 0.606 2.503-3.481 5.049-3.926 0.232 1.006-0.632 1.356 0 1.961 3.284 0.389 2.764-3.03 4.766-3.926-0.036 0.692-0.04 1.354 0.283 1.686 2.72-0.086 2.636-2.974 4.486-3.928 1.608 0.457-0.839 1.777 0.28 2.523 2.106-1.072 3.085-3.272 4.207-5.326 0.735 0.373 0.536 1.242 0.281 1.961 3.57 0.073 3.62-3.434 4.767-5.049 0.408 0.622 0.189 1.871 0.842 2.246 3.144 0.154 2.919-3.065 3.647-5.33 1.216 2.132-0.108 4.64-1.123 6.172 2.962 0.53 2.621-2.241 4.488-2.804 0.452 0.479 1.172 0.694 2.244 0.558 1.331-0.636 1.142-4.271 2.52-3.926-0.16 1.022-0.68 1.675-0.28 2.524 0.68 0.794 1.7-0.385 2.25 0.281-0.41 0.904-1.38 1.244-2.25 1.682-1.019-1.244-2.852 1.278-4.765 0 0.05 0.985-0.95 0.925-1.123 1.685 4.684-1.019 10.228-1.183 13.748-3.367 0.35-1.365-1.64-1.31-0.85-2.242 0.37-0.003 0.26-0.491 0.56-0.563 0.36 0.117 0.58 0.362 0.56 0.844 0.39 0.646 0.49 1.562 1.69 1.401 0.59-0.632 0.2-1.846-0.56-1.961-0.71-0.512-0.52-1.917-1.69-1.9633-0.93 0.9043-2.48 2.4773-1.68 4.2033-0.57 0.465-2.19 1.343-3.08 0.56 2.05-1.653 1.39-4.382 1.96-6.4469 1.21-0.0925 0.69 1.553 1.96 1.4024 0.91-2.1312-1.06-3.8491-2.24-3.6485-1.86 0.3188-1.94 6.326-5.05 4.207 1.43-0.9074 2.84-1.8326 2.81-4.207-0.57-0.5314-1.14-0.7197-1.67-0.6718zm-19.084 6.0018c-1.074 3.412-2.366 6.607-6.169 7.289h-2.805c-3.851-0.634-5.413-3.556-6.729-6.726-1.03 9.759 16.771 10.174 15.703-0.563zm-21.584 3.147c-0.985-0.008-1.972 0.431-2.251 1.339 1.627 0.242 2.33 1.406 2.521 3.084 1.397-0.286 1.624-1.742 1.965-3.084-0.267-0.878-1.249-1.332-2.235-1.339zm30.381 3.361c-0.46-0.022-0.963 0.43-1.785 0.223-0.064 0.217-0.009 0.554-0.281 0.56-0.204 0.767 0.556 0.564 0.559 1.121 1.003-0.211 1.783-0.647 1.964-1.681-0.153-0.155-0.303-0.216-0.457-0.223zm-2.992 0.762c-0.046-0.003-0.1 0.008-0.162 0.031h-0.002c-0.012-0.003-0.02-0.008-0.033-0.01-0.01 0.015-0.021 0.029-0.031 0.043h-0.002c-0.713 0.326-2.196 1.902-3.043 1.92h-0.008c-0.196 0.552-1.564-0.069-1.682 0.561 1.602 1.595 4.419 0.125 5.049-1.682 0.157-0.614 0.103-0.852-0.084-0.863h-0.002zm-6.084 3.386c-0.455 1.041-2.136 0.856-2.244 2.245 1.124-0.198 3.67-1.285 2.244-2.245zm-3.928 1.682c-0.823 0.02-1.042 0.642-1.402 1.123h-0.002c-0.33 0.524-2.176 0.979-1.4 1.682 0.373-0.562 1.247-0.625 1.965-0.842 0.634-0.303 1.575-1.146 0.839-1.963zm-4.767 1.684c-0.498 1.091-2.077 1.1-2.242 2.523 1.328 0.038 3.857-1.458 2.242-2.523zm-44.246 0.181c-0.185 0.01-0.391 0.041-0.623 0.098-0.17 0.672-0.403 1.279-0.282 2.244 0.879 0.339 1.391 1.04 2.805 0.842 0.223-0.806 0.569-1.488 0.842-2.244-1.172-0.052-1.443-1.009-2.74-0.94h-0.002zm40.217 2.166c-0.544-0.031-1.055 0.779-1.86 0.739l-0.002 0.001c-0.722 0.397-1.583 0.656-1.679 1.68 0.696 0.042 1.163-0.147 1.4-0.562 0.724-0.678 2.667-0.139 2.525-1.682-0.133-0.117-0.259-0.169-0.384-0.176zm-38.036 1.58c-0.596 0.711-2.313 0.302-2.242 1.682 0.169 1.931 2.69 0.893 3.364 1.121-0.22 1.276-2.168 0.823-1.682 2.803 0.298 0.202 1.292 1.097 1.682 0.281-0.665-0.593 0.496-1.73 1.404-1.682-0.029-0.793-1.222-1.855 0-2.244 0.192-0.162 0.511-0.069 0.855-0.088-0.005 0.033-0.011 0.054-0.015 0.088-0.782 3.626 3.482 1.449 4.767 0.282-0.951-0.826-1.748-1.805-3.646-1.684-0.346-0.08-0.575-0.01-0.74 0.185-0.785 0.02-1.776 0.056-2.625-0.185-0.764 0.204-0.565-0.557-1.122-0.559zm22.155 0.278c-1.471 0.399-3.296 0.444-3.084 2.525 1.633 1.143 4.231-1.821 3.084-2.525zm10.935 0c-1.217-0.003-2.016 0.417-2.242 1.404 0.934-0.278 2.491 0.061 2.242-1.404zm-14.301 0.281c-1.296 0.721-2.897 1.645-4.486 0.56-0.925 1.726-3.732 1.133-5.047 1.124h-0.002c0.003 0.556 0.767 0.358 0.563 1.121-0.42-0.445-1.148-0.207-1.404 0.281-0.88-0.133-1.145 0.348-1.401 0.84 0.244 0.706 2.301 1.048 1.682 1.683-2.371 0.358-5.172-3.416-5.889 0.282 1.351 0.986 3.471 0.34 5.328 0.279-1.164 2.189-5.214 1.287-7.291 0.562 0.007 0.662-0.483 0.825-0.281 1.682 0.888 0.853 2.072 0.438 3.086 0-0.133 2.282 2.666 1.632 4.205 2.244-1.369 1.031-3.162 0.256-4.486-0.281-0.147 0.415-0.415 0.707-0.561 1.123 0.791 1.075 2.654 1.294 3.365 0.279 0.854 1.171 2.962 2.399 4.207 0.842 0.151-0.993-0.993-0.69-0.841-1.682 0.494-0.254 0.868-0.629 1.121-1.125-0.281 0.002-0.333-0.225-0.559-0.279h-0.002c-1.582-0.604-1.683-2.488-0.279-3.365 1.032-0.733 2.342-2.079 4.205-1.123 0.431 0.772 1.642-0.01 1.682-0.559-0.331-0.322-0.991-0.315-1.682-0.279-1.399-0.142-0.79-2.226 0.281-2.244v1.402c2.226 0.598 3.697-1.632 4.486-3.367zm-27.201 0.56c-1.927 0.224-2.103 2.35 0 2.526-0.127 0.779 1.529-0.22 1.403 0.56-0.762 1.577-4.148 0.527-3.926 3.086 1.559 0.514 2.983-0.235 3.926-1.123 0.79 0.72-1.092 1.138-0.842 2.244 0.126 0.997 0.947 1.296 1.121 2.245-0.878 0.803-1.516 1.847-1.4 3.644 0.472 0.462 1.26 0.607 1.681 1.121-0.405 1.09-1.087 1.905-0.842 3.645 1.865 2.017 3.753-0.632 4.207-2.522-1.849-0.219-2.041-2.754-1.121-4.207-3.37-0.839-1.172-5.203 1.121-5.888-0.465 1.403-1.843 1.894-1.962 3.644 0.31 1.438 2.653 1.323 3.646 0.563 0.759 0.252-0.644 0.627-0.562 1.121-0.895 0.505-1.667 1.137-1.684 2.523 0.396 0.073 0.322 0.616 0.562 0.844 1.912 0.133 3.178-0.376 3.645-1.686-0.726-0.61-1.447-1.659-0.842-2.802v-0.284c-0.958 0.212-0.357-1.138-1.402-0.839-0.383-0.359-0.383-1.324 0-1.682 0.906-1.047-0.933-1.142-0.84-2.246 0.324-0.353 0.986-1.484 0-0.838-0.554 0.454-2.04 0.902-2.803 0.279-0.537-0.399-1.005-0.865-1.404-1.402v-1.121c0.016-0.359 0.359-0.391 0.281-0.844-1.162 0.323-1.093-0.587-1.963-0.561zm4.668 0.555c-0.053-0.005-0.112-0.002-0.181 0.008-0.74-0.084-0.922 0.387-0.842 1.121 0.384 0.925 1.583 1.036 2.525 1.402 0.358 0.017 0.388 0.358 0.842 0.28 0.202-0.765-0.559-0.565-0.562-1.121-0.714-0.035-1.089-0.409-1.124-1.121-0.248-0.161-0.283-0.534-0.658-0.569zm30.166 0.34c-0.379 0.003-0.844 0.367-0.902 0.789h1.4c0.039-0.576-0.203-0.791-0.498-0.789zm-4.023 0.52c-0.718 0.071-1.053 0.981-1.926 1.111-0.561 0.746-2.939-0.323-3.084 0.84h-0.281c-0.115 2.197-2.375 2.542-4.488 1.965-0.774 0.856 0.986 0.879 0.841 1.962 0.68 0.257 0.742 1.127 0.842 1.961-0.677-0.537-1.114-1.315-1.683-1.961h-0.28c-0.232-1.021-2.477-0.592-2.804 0-0.048 0.703 0.43 0.877 0.841 1.122 1.033 0.648 2.625 0.742 2.805 2.244-0.922-0.012-1.397-0.474-2.525-0.28-0.343 1.277 0.985 0.886 1.123 1.682-1.559-0.342-1.148 1.285-1.684 1.965-0.621-0.59-1.868-0.224-2.244 0.277 2.397 1.795 5.26 2.99 7.853 4.488 2.731 1.577 5.459 2.95 7.852 4.766 0.805 0.691 1.994 1 2.524 1.963 1.024 0.192 1.366 1.066 2.244 1.404 0.403 0.157 0.682 0.435 0.839 0.84 4.892 3.243 9.346 6.922 14.866 9.537 0.993 0.596 2.25 0.928 3.086 1.682 5.306 2.372 13.122 2.106 14.863-3.367-1.638 0.309-2.389 2.163-4.77 2.244-5.99 0.21-11.997-6.857-17.107-8.412-0.113-0.121-0.233-0.235-0.359-0.342 0.126 0.107 0.246 0.219 0.359 0.34-0.674-1.194-2.012-1.724-3.084-2.522-2.352-1.386-4.689-2.788-6.729-4.488-0.969-0.994-1.619-2.31-2.806-3.086-2.75-2.974-13.937-6.728-9.815-13.74 0.453-0.769 1.391-1.106 2.524-1.682h0.002v-0.002c0.845-0.75 3.602-1.06 3.084-2.242-0.358-0.223-0.64-0.293-0.879-0.269zm-35.299 1.951c-0.726 1.302-3.245 2.949-1.682 4.767 2.485-0.457 1.716-2.653 2.803-4.205-0.764 0.205-0.563-0.558-1.121-0.562zm1.945 3.627c-0.567-0.007-1.079 0.04-1.381 0.3-0.041 0.695-0.053 1.363 0.559 1.403 0.262 1.235 2.174 0.818 3.086 1.404-2.393 0.504-2.898 2.896-5.328 3.365-0.036 0.691-0.043 1.35 0.279 1.684 1.718 0.311 1.591-1.217 2.526-1.684 0.174 0.853 1.509 0.547 1.683 1.401-2.76-0.577-3.791 2.817-2.523 4.486 1.353 0.314 1.914-1.619 2.804-0.842-0.332 1.33-3.091 1.491-2.246 3.086 1.083 0.136 1.248-2.098 1.965-1.4-0.555 1.647-1.527 4.726-0.281 6.449 1.449-0.14 1.21-1.972 2.523-2.246-0.08 1.306-0.864 1.562 0 2.525 1.814 0.132 2.258-1.106 2.805-2.244h-1.963c-0.878-0.662-1.116-2.669-0.56-3.926-1.854-0.659-2.032-3.463-0.842-5.047 0.326-0.047 0.304-0.445 0.279-0.841-0.902-0.218-1.534-0.707-1.961-1.401 0.104-1.579 0.511-2.855 1.682-3.365-0.918-0.938-0.781-2.497-1.401-3.086-0.516 0.045-1.138-0.015-1.705-0.021zm-2.504 1.703c-0.77 0.539-1.304 1.313-1.121 2.804 0.763 0.559 2.599 0.316 2.526-0.839 0.204-0.225-0.681-1.74-1.405-1.965zm-3.365 0.281c-2.418 1.305-2.674 6.878-0.279 8.414-0.806 2.825 0.457 5.102 1.963 6.447-0.311 0.53-0.358 1.325-0.561 1.965 1.6 1.86 1.426 5.492 2.803 7.571-2.251 2.047-3.022 5.577-6.73 6.171-0.882 0.893-0.766 2.786-2.5239 2.805-1.578 0.006-1.6046 1.568-2.5196 2.238-0.0015 0.001-0.0024 0.003-0.0039 0.004-1.3112 0.607 0.13 2.199 0 3.365 2.1437 0.025 3.0722-1.805 3.084-3.085 2.9914 0.065 2.9894-1.929 2.5254-3.366 0.587 0.162 0.799 0.698 1.682 0.563 1.355-0.422 1.438-2.114 2.244-3.084 0.672-0.111-0.155 1.276 0.842 0.84 0.234-1.73 2.087-1.838 2.802-3.086-0.249-0.081-1.226-0.758-0.558-0.842 1.368 0.727 2.546-0.187 3.084-1.119 0.084-1.957 0.068-3.809-1.405-4.209-0.67 0.371-1.231 2.304-2.242 1.402 1.498-1.156 1.705-3.827 0.84-5.887-0.95 0.267-1.503 2.28-2.521 0.842 1.731-0.92 1.566-4.261 0.839-6.17-1.07 0.145-0.687 1.741-2.242 1.401-0.41-0.243-0.89-0.42-0.842-1.119 1.996 0.273 1.835-3.643 1.403-5.889-1.043-0.109-0.732 1.132-1.963 0.838-0.411-0.243-0.889-0.418-0.842-1.121 2.666-0.098 3.332-4.781 1.121-5.889zm36.672 1.762c-0.165 0.014-0.331 0.078-0.494 0.203 0.215 1.652 1.618 2.116 2.523 3.084 1.673 0.755 3.229 1.631 4.487 2.803 0.333 0.274 0.66 0.556 0.978 0.845-0.318-0.289-0.645-0.569-0.978-0.843 1.098 1.33 2.314 2.545 3.646 3.642v0.002c4.159 2.687 7.578 5.892 13.459 9.533 3.544 2.194 15.347 10.876 17.389 3.086-2.039 0.405-3.344 2.302-6.172 1.963-2.457-0.296-4.288-2.336-5.889-3.365-0.877-0.337-1.869-0.56-2.802-0.838-0.251-0.501-0.784-0.718-0.563-1.688-1.312-0.086-2.205-0.597-3.365-0.839-1.423-2.596-4.879-3.161-6.17-5.889-0.918-0.016-1.072-0.798-2.242-0.563-0.03-2.914-4.74-2.17-4.207-4.765-3.718-0.581-5.074-3.526-7.852-5.049-0.329-0.549-1.031-1.386-1.748-1.322zm-17.883 1.883c-1.929 0.596-2.292 2.756-4.488 3.085-0.195 1.03-0.484 2.13 0 3.084 1.267 0.68 2.307-0.218 3.365-0.56-0.194-0.858-2.267-2.625-0.279-3.082-0.244 1.084 0.684 0.994 0.84 1.68 0.808-0.034 1.836 0.153 2.244-0.282-0.683-1.183-1.355-2.38-1.682-3.925zm6.209 4.154c-0.07-0.007-0.142-0.007-0.217 0.002-0.496 0.056-1.051 0.42-1.226 0.613 0.034 0.711 0.41 1.085 1.123 1.119 0.881-0.132 1.146 0.352 1.402 0.842-1.787 0.458-4.236 0.252-5.609 1.121-0.223 1.438 1.625 0.808 2.244 1.402-0.486 2.28-4.168-0.366-4.768 1.686 0.332 1.351 2.941 0.425 3.086 1.961-0.916 1.236-4.54-0.241-4.488 1.963 0.988 0.975 3.334 0.593 3.365 2.525-0.375 0.4-1.588 0.4-1.963 0-0.154-0.014-0.306-0.024-0.451-0.029 0.145 0.004 0.297 0.013 0.451 0.027-0.916-0.805-2.577 0.028-3.085 0.561 0.004 0.745-0.156 1.652 0.562 1.683 0.559 1.122 3.533-0.169 3.645 1.403-0.982 0.889-2.894 0.846-4.768 0.842-1.466 1.068 0.45 2.917 2.244 2.521h0.281c0.33 0.046 0.795-0.047 0.84 0.283 0.505-0.035 0.657 0.278 0.561 0.84-0.867 0.91-3.057 0.493-4.205 1.123-0.072 0.055-0.137 0.113-0.192 0.17v-0.002c0.055-0.057 0.12-0.113 0.192-0.168h-0.282c-0.058 0.315-0.31 0.438-0.562 0.561-0.018 1.234 0.672 1.759 1.404 2.244 1.223 1.019 4.205 0.281 4.768 1.963-1.445 0.815-3.755-1.133-5.049 0.279 0.239 3.271 5.362 2.341 7.572 2.807-1.053 1.28-3.809 0.863-5.607 1.4-1.756 0.7-0.072 2.573 1.121 2.805 3.442 1.43 8.689 0.747 12.338 0 1.368-0.782 2.672-1.63 3.367-3.084 0.529-1.437 0.109-2.68-0.563-3.647-3.08-0.433-5.293 2.893-7.851 1.121 2.156-1.304 6.211-0.705 6.451-3.925-2.459-1.067-6.099 2.058-7.853 0 0.451-0.951 1.956-0.847 3.365-0.844v0.002c1.177-0.411 2.491-0.689 2.525-2.244-0.282 0-0.336-0.226-0.562-0.278h-1.682-4.767c-0.715-0.033-1.444-0.053-1.403-0.843 0.408-0.433 1.436-0.247 2.242-0.28 1.038-0.178 2.795 0.363 3.366-0.281-0.13 0.023-0.27 0.033-0.418 0.037 0.148-0.004 0.288-0.016 0.418-0.039h0.281c2.227 0.323 1.967-2.435 0-2.24-1.848-0.116-4.292 0.365-5.328-0.563-1.288-0.945 1.488-1.658 1.963-0.841 1.695-0.265 4.7 0.774 4.767-1.122-0.414-2.296-5.188-0.232-5.888-2.242l0.001-0.002c1.912-0.235 4.851 0.554 5.887-0.56 0.353-0.116 0.573-0.361 0.561-0.842-0.77-1.566-4.484-0.19-5.049-1.961 1.492-1.047 4.884 1.442 5.611-0.561 0.294-1.702-3.643-1.589-4.207-3.363 1.188-0.068 1.986 0.256 2.805 0.559 0.6 0.723 2.811 0.827 3.365 0-0.019-0.823-0.642-1.042-1.123-1.405-1.185-0.215-2.316-0.486-2.803-1.402 1.553-0.15 2.426 0.378 3.364 0.842h0.002v0.002c0 0.281 0.226 0.333 0.279 0.558 1.186-0.026 1.675-0.75 1.963-1.679-0.281 0-0.335-0.228-0.563-0.281-2.375-0.802-4.111-2.243-6.728-2.805-0.122-0.217-0.31-0.313-0.522-0.334zm-3.967 0.053c-1.092 0.963-2.66 1.454-3.365 2.806 1.661-0.214 3.475-1.756 3.365-2.806zm-8.412 2.244v0.002c-0.188 1.308-1.856 1.13-1.963 2.521 0.057 0.878 0.723 1.148 1.122 1.684 1.868 0.366 2.949-1.526 3.925-1.123-0.983 1.635-2.731 2.502-3.084 4.767 0.435 0.315 0.584 0.913 1.403 0.842 0 0.282-0.228 0.336-0.282 0.561h-0.562c-0.484-0.354-0.733-0.946-1.68-0.84-0.554 0.789-1.539 2.893 0 3.367 4.203 0.579-4.08 1.806-1.683-2.527-1.088-0.033-1.416-0.826-1.961-1.401-1.843 2.892 1.688 4.33 1.4 6.729 0.293 0.643 2.004-0.133 2.244 0.56-1.203 1.15-4.435 1.397-3.084 4.209 0.887 0.767 2.208-0.565 2.524 0.559-0.375 0.28-0.553 0.758-1.123 0.842-2.099 0.23-2.304-1.436-3.647-1.963-0.425 0.884-0.933 1.683-1.121 2.803 0.486 0.731 1.01 1.423 2.244 1.404 1.013-0.203 0.802-1.629 1.963-1.682-1.537 2.664-1.501 7.296 2.244 6.449-1.82 3.153-5.821-0.949-4.488-3.644-2.774 0.529-3.132-1.356-3.645-3.086-3.084 2.895-6.135 5.831-8.6949 9.254 0.3892 1.127 2.4249 2.037 3.0859 0.56 1.161-0.613-0.076-3.626 1.684-3.644-0.262 2.13 0.259 3.478 1.961 3.644 0.551-0.475 1.197-0.859 1.402-1.681-1.548-0.621-2.227-3.408-1.121-5.047 0.415 0.051 0.257 0.677 0.281 1.119 0.231 1.265 0.662 2.329 1.963 2.525 0.917-0.207 0.937-1.306 1.963-1.402-1.163 1.688-1.256 5.222 1.402 5.326 1.268 0.229 1.661-1.871 2.524-1.121-0.17 1.046-1.29 1.142-1.403 2.244 1.585 0.607 3.796 0.034 4.487-1.123 1.042-0.765-0.531-2.049 0.56-3.361-0.348-0.588-0.814-1.056-1.4-1.404-0.881-1.229 0.42-2.269 0.56-3.366-0.174-0.76-1.171-0.699-1.121-1.685-0.46 0.049-0.46-1.729 0-1.68-0.295-1.23 0.947-0.921 0.84-1.963-0.288-0.647-0.963-0.906-0.84-1.963 0.535-0.68 0.591-1.839 1.68-1.964 1.215-0.423-0.128-1.758 0.281-3.084-0.053-1.363 1.638-0.98 1.684-2.243 0.001-0.283-0.228-0.335-0.281-0.562v-0.278c-0.09-0.653 0.047-1.078 0.281-1.404 0.062-2.368 1.466-3.395 2.244-5.049-1.948-0.602-3.501-0.176-4.768-1.681zm-19.912 5.328c-0.7337 2.07-1.0829 4.524-1.6816 6.73 1.5549 0.278 2.6678-2.147 3.3652-3.644-0.8162-0.773-0.9286-2.251-1.6836-3.086zm10.656 24.959c-0.119 0.91-1.166 0.89-1.402 1.683 0.506 0.612 0.944 1.3 2.244 1.122 0.032-0.531 0.924-0.195 0.838-0.842-0.479-0.361-1.1-0.581-1.119-1.403-0.058-0.314-0.311-0.436-0.561-0.56z" transform="translate(0 -.0012970)" fill="#f4811f"/><path d="m108.78 16.334c-5.04 1.035-10.534 1.613-14.018 4.207 0.028 1.28-0.227 2.845 0.56 3.365 1.504 0.429 3.368-0.762 5.328 0 1.13-0.277 0.34-2.47 1.4-2.804 0.18 1.355-0.37 1.982 0 2.804 2.44 1.688 6.65 0.913 7.3-1.683 0.51-2.072-1.31-3.69-0.56-5.889h-0.01zm-1.12 2.803c0.66 0.552 0.57 1.862 0.56 3.086-0.8 0.509-1.24 1.375-2.8 1.123 0.82-0.579 2.07-0.726 2.52-1.682-0.01-0.924-0.47-1.399-0.28-2.527zm-33.371 9.537c-4.391 0.805-10.401 3.661-7.01 8.972 0.934 1.462 4.72 3.079 6.451 5.329 1.252 1.633 3.201 2.817 3.645 4.207-1.34-1.65-3.889-2.094-5.609-3.364 0.047-0.328 0.445-0.305 0.841-0.281-2.23-2.882-9.8-6.979-15.144-7.572-3.048-0.338-4.57 0.319-5.326 2.244 0.415 0.237 0.406 0.902 0.56 1.4v0.282c3.302 4.736 8.797 7.28 13.461 10.656v1.121c1.66 0.586 3.56 0.927 3.645 3.084 1.678 0.842 4.719 1.193 4.486 3.086 1.745-0.061 2.431 0.935 3.928 1.121-0.116 0.677 0.512 0.609 0.279 1.402 3.637 1.128 8.128 7.187 11.779 2.805 0.412-0.494 0.64-1.995 0.842-3.646-0.857-0.245-1.655 0.536-2.805-0.282v1.684c0.117 0.634 1.538-0.04 1.403 0.844-0.574 0.742-2.112 1.987-3.365 1.119 0.65-0.843 1.052-1.937 0.839-3.647-1.147 0.163-1.324 1.294-2.521 1.405-0.183-2.103-1.88-2.581-2.805-3.926-1.587-2.306-1.782-4.758-4.207-5.61-0.267 0.761-1.01 1.05-1.404 1.684 0.557 2.002 3.005 3.492 3.086 5.047-3.041-1.844-7.229-6.31-4.768-10.938 1.754 0.715 4.792 1.519 6.733 1.121-2.801-2.801-9.057-6.95-11.78-10.654-2.993-4.072 2.362-6.105 4.766-8.693zm7.633 21.74c-0.545-0.012-1.125 0.031-1.742 0.135 1.043 3.723 3.491 6.044 5.609 8.691 1.021-0.202 1.293-1.323 2.523-0.56 0.51-3.406-3.978-1.818-3.365-5.326-0.855-0.371-2.62-1.296-2.244-1.963 1.144 0.975 3.745 1.134 2.805 3.363 2.724 0.455 2.968 3.389 5.328 4.207-1.596-3.25-3.645-8.432-8.914-8.547z" transform="translate(0 -.0012970)" fill="#008344"/><path fill="#fff" d="m108.51 25.028c-1.2769 0.38188-3.25 0.79725-3.665 0.48535 0 0 0.10422 10.692-0.20703 13.079-0.31125 2.3869-0.33496 2.9804-0.33496 2.9804s5.794-5.9245 4.207-16.545zm-9.8955-0.50975c-0.91325-0.03447-1.9197 0.2668-2.7256 0.50975 0.39188 6.625-1.3724 13.352-3.6474 18.228 5.5055-2.4394 6.9775-8.9145 8.415-15.424 0.8475-1.7369 1.8022-2.4218-0.5615-2.8037-0.41812-0.34758-0.9325-0.48908-1.4804-0.50975zm-24.093-15.347c-0.54985 0.02578-0.90565 0.55255-1.0674 1.2744 0.49938 1.3325-0.76265 5.207 0.83985 6.17 0.07188-0.9669-0.2091-4.9306 0.28028-3.6474 0.52-0.88065 0.60025-2.2046 0.5615-3.6446-0.23-0.114-0.435-0.161-0.615-0.1525z"/></g></svg>
