<svg xmlns="http://www.w3.org/2000/svg" height="178.56" viewBox="0 0 249.99968 178.56308" width="250"><g transform="matrix(1.25 0 0 -1.25 21.377 552.96)"><g transform="matrix(3.6435 0 0 3.6435 -216.25 -977.69)"><path d="m24.238 0.0097656c-0.1425-0.02125-0.28984-0.0032813-0.43359 0.011719-0.12 0.01375-0.2368 0.026328-0.3418 0.017578-0.21125 0.00375-0.38875 0.089375-0.5625 0.17188-0.235 0.11375-0.38508 0.17836-0.51758 0.099609l-0.01562-0.009766-0.01953-0.005859c-0.205-0.055-0.36859-0.083047-0.52734-0.091797-0.23375-0.01125-0.45242 0.023672-0.66992 0.10742 0 0.00125-0.13477 0.060547-0.13477 0.060547l-0.05078 0.025391c-0.1325 0.07375-0.24406 0.1625-0.35156 0.28125l-0.0078 0.007813-0.0059 0.009766c-0.12 0.1775-0.20117 0.36859-0.26367 0.62109-0.035 0.15-0.05781 0.31898-0.07031 0.52148 0 0.005-0.002 0.49609-0.002 0.49609 0 0.01625 0.01758 0.1875 0.01758 0.1875s0.02711 0.23367 0.03711 0.32617c-0.12375 0.16625-0.29523 0.2643-0.55273 0.31055-0.005 0-0.02734 0.00195-0.02734 0.00195l-0.13672 0.011719h-0.0332l-0.364 0.0135c-0.225 0.00875-0.45734 0.014922-0.68359 0.076172-0.0012 0-0.23047 0.089844-0.23047 0.089844l-0.02148 0.027344-0.08789 0.087891c-0.18125 0.15625-0.38766 0.27141-0.62891 0.34766-0.01 0.00375-0.15625 0.044922-0.15625 0.044922l-0.10547 0.025391c0.0062-0.0025-0.51562 0.080078-0.51562 0.080078l-0.29883 0.039062-0.03516 0.00586-0.46484 0.085937c-0.17375 0.0475-0.37992 0.11031-0.57617 0.22656-0.1525 0.0975-0.26562 0.18625-0.35938 0.28125-0.10125 0.035-0.19055 0.052891-0.2793 0.056641-0.11 0.00375-0.19969-0.019219-0.27344-0.074219-0.15125-0.12125-0.22539-0.39148-0.30664-0.67773-0.085-0.30375-0.17359-0.61906-0.37109-0.85156 0.0088 0.01125-0.13086-0.13281-0.13086-0.13281l-0.03516-0.029297-0.01367-0.011719-0.0059-0.00586-0.04102-0.029297c-0.3325-0.3175-0.74531-0.46594-1.1953-0.42969-0.11 0.01125-0.27812 0.037109-0.45312 0.099609l-0.04492 0.015625-0.0293 0.048828-0.1875 0.3125c-0.28125 0.3825-0.67977 0.52859-1.1035 0.68359-0.53875 0.1975-1.097 0.40438-1.4082 1.1094 0.005-0.01-0.037109 0.066406-0.037109 0.066406-0.08625 0.18875-0.11914 0.37555-0.11914 0.56055 0 0.29 0.080156 0.57406 0.16016 0.85156 0 0 0.084062 0.3375 0.10156 0.40625-0.1275 0.23125-0.24609 0.50852-0.24609 0.85352 0 0.02875 0.0007032 0.057891 0.00195 0.087891 0.04125 0.38625 0.28914 0.72828 0.65039 0.89453l0.021484 0.00977 0.021484 0.00195c0.09375 0.00875 0.15555 0.030312 0.2168 0.070312l0.019531 0.013672 0.00195-0.00195 0.22656 0.058594c0.32875 0.055 0.66992 0.029375 0.98242-0.078125-0.01375 0.00375 0.32031-0.083984 0.32031-0.083984 0.12375-0.03625 0.25086-0.068906 0.38086-0.097656-0.11 0.0675-0.18547 0.13719-0.23047 0.21094-0.33375 0.3275-0.74703 0.40281-1.2695 0.41406h-0.30078-0.56445c-0.01625 0.00125-0.037109 0.00391-0.037109 0.00391s-0.24016 0.056797-0.25391 0.060547c-0.18875 0.0525-0.36234 0.16672-0.49609 0.26172-0.02875 0.0125-0.070312 0.029297-0.070312 0.029297l-0.083984 0.039063-0.11328 0.085937-0.074219 0.12891 0.027344 0.22656s0.020234 0.17555 0.021484 0.18555v0.015625c0 0.1125 0.048594 0.20555 0.12109 0.2793l-0.00391 0.19336 0.033203-0.0039s0.093047 0.05016 0.12305 0.06641c0.35625 0.57125 0.7518 1.164 1.248 1.6465l0.00586 0.0059 0.019531 0.01367c-0.00375 0.0325-0.00977 0.0625-0.00977 0.0625-0.04875 0.43875-0.068359 0.89078-0.068359 1.332 0 0.69375 0.049062 1.3557 0.10156 1.877-0.06625 0.07125-0.35547 0.37695-0.35547 0.37695-0.00125 0.0013-1.4199 1.5332-1.4199 1.5332-0.08875 0.11375-0.13086 0.23312-0.13086 0.35938 0 0.06 0.00734 0.12164 0.027344 0.18164 0.00875 0.02875 0.023906 0.05453 0.035156 0.08203-1.0225 1.7788-1.6505 3.8879-1.793 6.1816l-0.00195 0.01172 0.00195 0.01172c0.00625 0.045 0.00781 0.0857 0.00781 0.12695 0 0.4775-0.33766 0.735-0.72266 1.0312-0.3825 0.29375-0.81055 0.62414-0.81055 1.2129 0 0.02375 0.00461 0.04852 0.00586 0.07227-1.09 0.71625-2.0166 1.8477-2.5566 3.1289-0.07 0.02-0.21484 0.06641-0.21484 0.06641-0.805 0.245-1.8077 0.54906-2.0039 1.5703-0.038359 0.253-0.0575 0.49-0.0575 0.71 0 0.68125 0.18648 1.1946 0.55273 1.5684 0.3625 3.5888 1.063 7.6033 4.7168 9.957 0.02875 0.06375 1.0352 2.2871 1.0352 2.2871 0.83625 1.6838 2.5859 1.6564 4.1309 1.6289 0.37125-0.0063 0.72359-0.01305 1.0586 0.002 0.82375 0.48 1.7466 0.76031 2.8203 0.85156 0.67625 0.1125 1.253-0.07391 1.8105-0.25391 0.49625-0.16 0.96352-0.31039 1.4785-0.24414l0.04297 0.0059 0.03711-0.02148c0.17625-0.09625 0.20508-0.25703 0.20508-0.39453 0-0.035-0.0027-0.06641-0.0039-0.09766-0.0025-0.0325-0.0039-0.06289-0.0039-0.08789 0-0.10625 0.02578-0.13977 0.11328-0.16602 0.47375 0.02 0.86133-0.21109 1.2363-0.43359 0.3825-0.2275 0.74531-0.44258 1.1641-0.36133l0.22656 0.04492-0.07813-0.2168c-0.04375-0.1225-0.0625-0.22359-0.0625-0.30859 0-0.2775 0.20492-0.4007 0.48242-0.56445 0.25375-0.14875 0.53266-0.3225 0.66016-0.65625 0.10375-0.0525 0.22406-0.07289 0.35156-0.08789 0.1875-0.025 0.39852-0.05398 0.57227-0.20898l0.04492-0.03906v-0.05664c0-0.51875-0.29594-0.87688-0.58594-1.1719-0.015-1.0475-0.45008-1.9248-1.2988-2.6035-1.14-1.1475-2.8392-0.93305-4.043-0.6543-0.07625-0.06375-0.38476-0.32422-0.38476-0.32422-0.58125-0.4975-1.1846-1.0053-1.9121-1.1953-0.39375-1.1888-1.0048-2.1284-1.8086-2.8047 0.32375-0.36375 0.74672-0.58766 1.1992-0.81641 0.26375-0.13125 0.5325-0.2707 0.78125-0.43945 5.0338 2.4175 11.639 1.5944 15.809 0.14062 0.2775 0.13 0.35352 0.405 0.35352 0.65625 0 0.18-0.03484 0.34594-0.05859 0.42969-0.32875 0.79-1.0316 0.89797-1.7754 1.0117-0.47375 0.0725-0.965 0.1482-1.375 0.4082l-0.01367 0.0078-0.0098 0.01172c-0.475 0.49125-1.0902 0.63391-1.7402 0.78516-0.64625 0.15125-1.3138 0.30742-1.8438 0.82617-0.37 0.45375-0.43555 1.002-0.49805 1.5332-0.03375 0.285-0.06719 0.5768-0.14844 0.8418-0.07875 0.2175-0.11914 0.3893-0.11914 0.5293 0 0.1225 0.03195 0.22117 0.0957 0.29492 0.17375 0.20625 0.51094 0.14312 0.86719 0.07813 0.3225-0.06 0.68742-0.12711 0.85742 0.02539 0.4225 0.465 0.85719 0.30672 1.2422 0.16797 0.29625-0.1075 0.57492-0.20594 0.88867-0.08594 0.34 0.26875 0.74 0.2268 1.0938 0.18555 0.2825-0.0325 0.5482-0.05516 0.7832 0.05859-0.045 0.1525-0.11375 0.30352-0.1875 0.44726l-0.13867 0.2832 0.0078 0.03516c0.0062 0.0575 0.0078 0.11492 0.0078 0.16992 0 0.38875-0.14844 0.72774-0.30469 1.084-0.1575 0.35375-0.32031 0.71852-0.32031 1.1348 0 0.10375 0.01266 0.21297 0.03516 0.32422l0.01953 0.0957 0.09961 0.0078c0.195 0.015 0.35891-0.06266 0.50391-0.12891 0.21875-0.1 0.32094-0.13859 0.46094 0.0039l0.02148 0.02148 0.0293 0.0098c0.41 0.14375 0.37641 0.41602 0.28516 0.88476l-0.02734 0.14258 0.0098 0.03125c0.055 0.17 0.1357 0.28023 0.25195 0.33398 0.18375 0.085 0.38578-0.0015 0.58203-0.08398 0.15-0.0625 0.30203-0.12547 0.42578-0.10547 0.2175 0.28375 0.58828 0.34227 0.92578 0.38477 0.25875 0.035 0.50375 0.06602 0.59375 0.19726 0.02875 0.0425 0.04492 0.10203 0.04492 0.17578 0 0.0575-0.0098 0.12617-0.02734 0.20117l-0.01563 0.05859 0.03711 0.05078c0.19375 0.2675 0.44781 0.20516 0.63281 0.16016 0.10125-0.02375 0.19664-0.04594 0.27539-0.02344 1.3762 0.80375 2.9458 0.31055 4.332-0.12695 0 0 0.66148-0.20305 0.70898-0.2168 2.445 0.45875 5.2618-0.45375 5.9668-3.0938 3.3838-4.0288 5.5458-7.5509 6.8008-11.086l-0.0098 0.01758c0.15375-0.285 0.21258-0.63039 0.26758-0.96289 0.0825-0.4825 0.16187-0.93578 0.51562-1.1445 1.2913 0.91125 3.178 1.9626 4.9805 1.0488 0.7575 0.45375 1.1798 1.3042 1.4023 1.9492l0.0039 0.01172 0.0059 0.01172c0.11625 0.2075 0.17383 0.37953 0.17383 0.51953 0 0.05-0.0072 0.09672-0.02344 0.13672-0.08125 0.22-0.38789 0.33172-0.71289 0.44922-0.36125 0.1325-0.73344 0.26789-0.89844 0.58789-0.29125 0.5725-0.78609 0.73641-1.3086 0.91016-0.52 0.17-1.0562 0.34742-1.4199 0.91992-0.53125 0.6025-0.48234 1.3552-0.43359 2.084 0.02375 0.35625 0.04555 0.72359-0.002 1.0586l-0.0059 0.04687 0.02344 0.03906c0.35375 0.5925 0.87781 0.52188 1.3828 0.45312 0.3275-0.04375 0.66477-0.08773 0.97852 0.04102 0.1525 0.1625 0.35602 0.24734 0.57226 0.21484l0.04883-0.0059 0.03125-0.03906c0.33375-0.38625 0.70578-0.25109 1.2383 0.0039l0.42969 0.18359c0.305 0.06625 0.595 0.02156 0.875-0.02344 0.4275-0.07 0.69859-0.10164 0.90234 0.13086l0.01758 0.01953 0.02344 0.01172c0.29875 0.15 0.47695-0.05516 0.5957-0.19141 0.055-0.065 0.1082-0.11992 0.1582-0.13867 0.57375 0.27 1.4272 0.53609 2.3359 0.33984l0.03516-0.0059 0.02539-0.02539c0.51375-0.46625 1.2248-0.47367 1.9785-0.48242 0.91125-0.01125 1.8553-0.02367 2.4453-0.88867 0.505-0.74875 0.59555-1.9623 0.2168-2.8848l-0.0059-0.01758-0.0098-0.0098c-0.70625-0.95375-1.0164-2.1144-1.3164-3.2344-0.31-1.1675-0.63094-2.3743-1.3984-3.373l-0.01172-0.01563-0.01563-0.01172c-1.15-0.82125-1.7976-1.9395-2.4238-3.0195-0.7125-1.2312-1.4515-2.5033-2.9277-3.2695-0.465-0.26375-1.0753-0.15328-1.5078 0.07422-0.075-0.1925-0.27734-0.70508-0.27734-0.70508-0.33125-0.8575-0.67602-1.7445-1.166-2.5508-0.6625-1.3362-1.7191-2.1778-2.8379-3.0703 0 0-0.85227-0.6968-0.91602-0.74805-0.085-0.60125-0.56039-1.0967-1.0254-1.5742-0.47625-0.48875-0.91211-0.93617-0.91211-1.4512 0-0.27375 0.12328-0.56453 0.42578-0.89453l0.02734-0.02539 0.0078-0.03516c0.0475-0.2275 0.07227-0.45328 0.07227-0.67578 0-0.99875-0.48453-1.9642-1.4258-2.8242l-0.01367-0.01367-0.01367-0.0059c-0.69875-0.365-1.999-1.0445-3.0215-0.3457l-0.0078 0.0059-0.0078 0.0078c-0.255 0.24-0.3418 0.47969-0.3418 0.71094 0 0.29375 0.14133 0.57336 0.26758 0.81836 0.1325 0.26 0.23242 0.47242 0.23242 0.66992 0 0.16375-0.07305 0.31656-0.24805 0.47656-0.1175-0.04-0.59375-0.20117-0.59375-0.20117-1.6138-0.54625-3.2809-1.1099-5.1797-1.0449-1.57-1.605-3.0541-2.5007-4.6641-2.8145l-0.0098-0.00195h-0.01172c-1.2688-0.0375-2.4371-0.42031-3.5684-0.78906-1.4612-0.475-2.9723-0.96633-4.7598-0.76758-0.02 0.005-0.04055 0.00992-0.06055 0.013672 0.0425-0.2175 0.0982-0.43867 0.1582-0.66992 0.1225-0.47125 0.25-0.96008 0.25-1.4238 0-0.03-0.0014-0.0625-0.0039-0.09375v-0.00586c0-0.3175-0.07516-0.59234-0.22266-0.83984l-0.135-0.1337c-0.44875-0.01375-0.89273 0.087109-1.3965 0.31836-0.0025 0.00125-0.55274 0.29688-0.55274 0.29688l-0.037 0.0196c-0.0063 0.00375-0.74414 0.4707-0.74414 0.4707 0.005-0.00375-0.11523 0.064453-0.11523 0.064453s-0.02563 0.014844-0.04687 0.027344c-0.305-0.225-0.65414-0.35656-0.99414-0.47656-0.24125-0.0875-0.47305-0.17336-0.68555-0.28711 0.55375 0.13125 1.1454 0.076875 1.6816-0.17188 0.29875-0.14125 0.55133-0.31586 0.76758-0.53711-0.0063 0.0075 0.07031-0.083984 0.07031-0.083984l0.01953-0.021484c0.04875-0.13125 0.12867-0.24 0.20117-0.28125l0.03516-0.017578 0.01758-0.033203c0.05-0.08625 0.04742-0.18734 0.04492-0.27734l0.0059-0.15625-0.008-0.0487-0.363-0.8789-0.059-0.0176c-0.172-0.06-0.32-0.1541-0.482-0.3066-0.21-0.215-0.36969-0.49898-0.52344-0.77148-0.1175-0.21-0.24062-0.4293-0.39062-0.62305-0.1325-0.13125-0.26836-0.1982-0.44336-0.2207zm13.987 29.666c0.29 0.21625 0.65086 0.24953 1.0059 0.26953 0.4075 0.0225 0.75805 0.05477 0.9668 0.35352-1.1188 1.4338-1.3706 3.2381-1.6094 4.9844-0.1675 1.2312-0.34633 2.5026-0.83008 3.6113-1.05 0.16-2.1305 0.38844-3.0117 1.0547 1.3538-1.6462 2.8928-3.6668 3.0078-6.2168v-0.01172l-0.002-0.0098c-0.05959-0.48792-0.35994-1.0679-0.89062-1.2754-0.17293-0.10617-0.41189-0.127-0.64453-0.14648-0.20875-0.0175-0.44625-0.03555-0.5-0.12305-0.01125-0.01625-0.01758-0.03875-0.01758-0.0625 0-0.0375 0.01484-0.07844 0.02734-0.11719 0.8775-0.615 1.7368-1.4118 2.498-2.3105z" transform="matrix(.8 0 0 -.8 54.872 389.53)" fill="#00235d"/><path d="m28.984 7.8535c-0.19695 0.00102-0.3982 0.010078-0.60352 0.03125 0.39125 0.51875 0.70531 1.0673 1.0078 1.6035 0 0 0.44984 0.76891 0.49609 0.84766 0 0 0.0418 0.01383 0.06055 0.01758 0.78125 0.13875 1.6102 0.30484 2.3789 0.71484l0.01367 0.0078 0.01172 0.0098c0.08875 0.07875 0.11524 0.16133 0.11524 0.23633 0 0.07-0.02352 0.13273-0.04102 0.17773l-0.02148 0.06836-0.01172 0.04297-0.0098 0.01758c-0.2375 0.34375-0.59414 0.77305-0.80664 1.0293 0 0-0.13367 0.16688-0.13867 0.17188l-0.17383 0.16797-0.05859 0.05273s0.0027-0.0021 0.0039-0.0059c-0.03 0.05-0.08172 0.08805-0.13672 0.12305 0 0-0.01219 0.0081-0.02344 0.01563-0.0012 0.0025-0.002 0.0078-0.002 0.0078l-0.23633 0.16602-0.06055 0.0332 0.04883-0.05078-0.0957 0.08008 0.03516-0.01563s-0.05305 0.03141-0.06055 0.03516c0 0-0.01891 0.02437-0.03516 0.04687 0.0025 0.08875 0.05859 1.9702 0.05859 2.0039 0.20125 0.5825 0.35422 1.1772 0.44922 1.7734 0.06 0.41125 0.08984 0.80328 0.08984 1.1758 0 0.47875-0.05023 0.92188-0.14648 1.3281-0.08625 0.36875-0.22266 0.7218-0.41016 1.0605-0.20125 0.3175-0.42617 0.59422-0.66992 0.82422-0.53 0.51375-1.1408 0.81117-1.7695 0.88867 0.005 0.02125 0.02219 0.10062 0.02344 0.10938 0.0825 0.46 0.18164 1.0084 0.18164 1.5547 0 0.15625-0.0086 0.3118-0.02734 0.4668-0.02375 0.2875-0.09469 0.57508-0.21094 0.86133l-0.02539 0.0957-0.29297-0.03125-0.05469-0.0078-0.01367-0.0039-0.10547-0.0293-0.11914-0.03711c-0.3325-0.11-0.63078-0.28258-0.92578-0.45508l-0.0293-0.02148s-0.20039-0.12922-0.21289-0.13672l-0.01758-0.01367-0.15234-0.10547s-0.06852-0.04726-0.10352-0.07227l-0.75781 1.1465c0.0075 0.01875 0.01984 0.03539 0.02734 0.05664 0.08875 0.26625 0.03594 0.64547-0.13281 0.91797 1.66-0.325 3.134 0.42789 3.6777 2.0566 0.6025 1.8088 0.0052 3.7663-1.8711 4.3926-1.8762 0.625-3.9131-0.38852-4.5156-2.1973-0.5675-1.6988 0.18203-3.2819 1.832-3.9844-0.22625-0.1075-0.42391-0.31359-0.53516-0.52734l-1.4473-0.29688c-0.04125 0.29375-0.09937 0.59844-0.20312 0.89844-0.09375 0.28-0.23352 0.5293-0.41602 0.74805l-0.0059 0.0078c-0.0122 0.01451-0.08008 0.09766-0.08008 0.09766l-0.04492 0.05859-0.08789-0.0332c-0.185-0.0675-0.34016-0.15227-0.47266-0.22852 0 0-0.41758-0.29453-0.42383-0.30078l-0.424-0.391s-0.02039-0.01844-0.02539-0.02344l-0.201-0.22s-0.20164-0.21797-0.21289-0.23047l-0.14648-0.17383s-0.07273-0.0807-0.08398-0.0957l-0.01758-0.02539s-0.008-0.01062-0.01172-0.01563c-0.29875 0.0025-0.60828-0.02297-0.92578-0.07422-0.24125-0.04875-0.52469-0.11008-0.80469-0.20508-0.37-0.14-0.65828-0.32227-0.89453-0.54102-0.615 0.365-1.3981 0.4925-2.1719 0.34375-0.1875-0.03625-0.35602-0.08398-0.50977-0.14648-0.2975-0.13625-0.57828-0.32195-0.86328-0.56445-0.92-0.81625-1.5738-2.1398-1.75-3.541l-0.0039-0.03125 0.0098-0.0293c0.02875-0.08625 0.03406-0.18086 0.03906-0.28711 0.0013-0.01375 0.002-0.02727 0.002-0.04102 0-0.4225-0.21516-0.77047-0.44141-1.1367-0.19-0.31-0.38094-0.63383-0.46094-1.0176-0.0625-0.01625-0.3125-0.07617-0.3125-0.07617l-0.398-0.087c-0.4177-0.089-0.8458-0.182-1.2346-0.369-1.0162 2-1.5219 4.3112-1.6719 6.6074-0.205 0.88125-1.2253 0.79422-1.1953 1.793 1.7188 2.73 4.4154 5.0411 7.0254 6.7773 1.3125 0.44125 1.2536-1.3805 2.2148-1.7617 0.84625 0.26375-0.11477 0.94016 0.14648 1.4102 7.2025 2.8475 17.261 1.4673 21.547-4.9902-0.2925-1.025-1.7491-0.38125-1.8066-1.4688 0.7875-0.41 1.3696 0.88203 2.0996 0.70703 0.08875-1.6462 0.91258-3.1598 1.6113-4.5098 1.6038-2.495 4.003-4.6358 6.918-4.957-0.29125-0.88-0.94992-1.4541-1.8262-1.6016-1.2238-2.8762-3.9345-5.7227-6.9082-6.6914-2.997 0.0821-5.07-2.0251-8.025-2.0097zm-8.0684 7.1191c-0.12219 0.01984-0.24391 0.05562-0.36328 0.09375 0 0-0.14961 0.04023-0.19336 0.05274 0.0025 0.005 0.0078 0.01367 0.0078 0.01367 0.18875 0.32125 0.40039 0.67984 0.40039 1.0273 0 0.05875-0.007 0.11633-0.01953 0.17383l-0.04102 0.16992-0.05469-0.16602c-0.0475-0.1375-0.11524-0.27031-0.20898-0.41406-0.08375-0.15-0.19969-0.30391-0.33594-0.44141-0.135-0.1425-0.29914-0.11453-0.49414-0.08203 0 0-0.12406 0.01828-0.13281 0.01953-0.05875 0.0062-0.12555 0.01125-0.18555 0-0.02625 0.01625-0.14258 0.08789-0.14258 0.08789l-0.10742 0.0625c-0.22 0.1525-0.36922 0.30766-0.44922 0.47266-0.02875 0.0675-0.05859 0.16625-0.05859 0.28125 0 0.0375 0.003 0.07859 0.01172 0.12109 0.40625 0.49375 0.43359 1.0664 0.43359 1.6289v0.21094c0 0.36875 0.0089 0.74672 0.12891 1.1055 0.08875 0.295 0.26031 0.66594 0.57031 0.80469 0.09875-0.1675 0.15508-0.36414 0.20508-0.55664l0.09375-0.32227c0.0475-0.1325 0.11945-0.30891 0.25195-0.47266l0.01563-0.02344 0.0293 0.0078s0.16211 0.03836 0.16211 0.03711c0.21375 0.0675 0.3607 0.26508 0.50195 0.45508 0.06625 0.09 0.13664 0.17836 0.21289 0.25586 0.005-0.1225 0.01367-0.32227 0.01367-0.32227s0.02734-0.51312 0.02734-0.51562c0.035-0.17625 0.07797-0.31344 0.13672-0.42969l0.01367-0.01953s0.06125-0.01633 0.0625-0.01758c0.215-0.05 0.35875 0.09984 0.5 0.24609 0.06 0.06125 0.12391 0.11711 0.19141 0.16211-0.01125-0.06625-0.02539-0.13477-0.02539-0.19727 0-0.12125 0.0157-0.22891 0.0332-0.31641 0.045-0.17125 0.10836-0.35211 0.19336-0.53711l0.02539-0.03125h0.03125c0.1225 0 0.22531 0.03734 0.32031 0.08984-0.29375-0.41625-0.4475-0.88234-0.59375-1.3398-0.1125-0.35375-0.22961-0.71938-0.41211-1.0469 0 0-0.13609-0.22976-0.15234-0.25976-0.08-0.02875-0.15523-0.05766-0.24023-0.06641-0.11812-0.02625-0.24109-0.0218-0.36328-0.002zm4.2266 9.5938c-0.07875 0.03375-0.16031 0.06711-0.16406 0.06836 0 0-0.68609 0.27539-0.68359 0.27539 0 0-0.30344 0.11524-0.30469 0.11524l-0.72461 0.23047-0.24023 0.06445s-0.02859 0.0078-0.02734 0.0078c-0.0625 0.01875-0.12977 0.03312-0.19727 0.04687l1.1406 0.38086c0.1025-0.1425 0.2518-0.26102 0.43555-0.32226 0.1175-0.03875 0.23531-0.04977 0.35156-0.04102l0.41406-0.82617zm-2.5898 0.85547c-0.0038 0.0012-0.0099 0.002-0.01367 0.002-0.01125 0.09-0.02344 0.21234-0.02344 0.21484l0.03711-0.2168z" transform="matrix(.8 0 0 -.8 54.872 389.53)" fill="#c03"/><path d="m83.604 372.28 1.443-1.345 2.502 2.681s-0.826 0.771-1.021 0.953c0.11 0.117 0.371 0.397 0.371 0.397s-1.135 1.06-1.377 1.284c0.215 0.161 0.687 0.516 0.759 0.57 0.064 0.013 0.107 0.054 0.113 0.062 0.024 0.032 0.044 0.059 0.044 0.096 0 0.138-0.277 0.426-1.644 1.727 0 0.001-0.6 0.567-0.6 0.567l-3.76-4.032 1.615-1.509s0.241 0.259 0.343 0.369c0.203-0.191 1.352-1.262 1.555-1.451-0.101-0.11-0.343-0.369-0.343-0.369" fill="#00235d"/><path d="m23.58 0.77148c-0.235 0.02627-0.472 0.1297-0.693 0.18946l0.51172 0.67188-0.04297 0.046875c-0.4775-0.21625-0.85406-0.62648-1.3828-0.74023-0.04625-0.00875-0.10461-0.027656-0.16211-0.035156-0.185 0.05125-0.32023 0.13227-0.42774 0.22852-0.05875 0.07-0.09562 0.1368-0.14062 0.2168-0.22 0.50375 0.02476 1.2973-0.14648 1.8223-0.02125 0.08375-0.04703 0.15742-0.08203 0.23242-0.03125 0.08875-0.07726 0.16578-0.13477 0.23828-0.02375 0.04-0.05586 0.082003-0.09961 0.12695-0.025 0.03-0.05359 0.047578-0.08984 0.080078-0.18125 0.15-0.41664 0.22469-0.68164 0.27344-0.05375 0.005-0.10742 0.00631-0.16992 0.023437-0.09875 0.005-0.20742 0.012734-0.32617 0.021484-0.24125 0.01125-0.49133 0.021641-0.73633 0.056641-0.10625 0.01625-0.21266 0.033047-0.31641 0.060547-0.24375 0.07875-0.47906 0.19656-0.66406 0.41406-0.0075 0.0125-0.01563 0.027344-0.01563 0.027344l-0.25 0.056641-0.82617 0.14648-0.48438 0.085937-0.35938 0.0625c-0.07 0.03125-0.13117 0.046875-0.20117 0.078125-0.12875 0.0575-0.26391 0.13844-0.41016 0.21094-0.0975 0.05-0.19758 0.08625-0.29883 0.125-0.06875 0.03-0.14008 0.049812-0.20508 0.054687-0.04 0.0125-0.07242 0.020078-0.10742 0.017578-0.0875 0.00125-0.22477-0.018594-0.32227-0.058594l-0.0039-0.011719c-0.05375-0.0175-0.10125-0.047891-0.15625-0.087891-0.02875-0.02625-0.06266-0.061172-0.09766-0.10742-0.6225-0.51-0.66891-1.7233-1.4414-1.9258-0.122-0.0349-0.267-0.0504-0.428-0.0291-0.102 0.0387-0.189 0.0843-0.274 0.1406-0.5875 0.37125-0.72633 1.1312-1.0176 1.7012-0.2225-0.33 0.035-0.65461 0.0625-1.0059-0.8575 0.01875-1.0032 0.42539-0.9707 0.96289 0.03625 0.68 0.37079 1.5584-0.10547 2.0996-0.01875 0.015-0.045 0.04625-0.0625 0.0625 0.0325 0.08 0.087424 0.16352 0.13867 0.22852 0.105 0.105 0.23539 0.17125 0.40039 0.125 0.91375-0.0125 1.7233-0.92337 2.1133-1.6621 0.0275-0.06375 0.03758-0.14656 0.04883-0.22656 0.0225-0.12875 0.02992-0.26336 0.04492-0.41211 0.02-0.2625 0.03039-0.52055 0.15039-0.6543 0.1125 0.215 0.21875 0.45531 0.28125 0.69531 0.1025 0.38375 0.11227 0.79188-0.05274 1.1719 0.3 0.5425 0.31547 1.0948 0.23047 1.6523-0.11125 0.86501-0.45312 1.7483-0.23438 2.6133 0.16375 0.49 0.58258 0.27835 0.95508 0.09961 0.15625-0.0775 0.3075-0.13859 0.4375-0.15234l-0.24805-0.63476c-0.06-0.35-0.0418-0.70352 0.06445-1.0098 0.1025-0.24 0.25289-0.45727 0.49414-0.63477-0.24 0.05375-0.39688-0.16039-0.48438-0.36914 0.18-0.195 0.40774-0.25664 0.64648-0.27539 0.05375-0.005 0.10859-0.00781 0.15234-0.00781 0.10125 0.005 0.19961 0.00125 0.28711 0 0.075-0.00875 0.14258-0.00744 0.20508-0.023437 0.04375-0.00125 0.0893 0.00922 0.12305 0.011719 0.135 0.0075 0.25547 0.040781 0.35547 0.082031 0.2375 0.1025 0.42625 0.27508 0.59375 0.48633 0.30625 0.3625 0.56469 0.82695 0.89844 1.127 0.01375 0.0075 0.01273 0.00641 0.02148 0.00391 0.155 0.03625 0.32664 0.058312 0.49414 0.023437 0.2025-0.03375 0.39828-0.12969 0.55078-0.30469 0.07625-0.0875 0.12609-0.18938 0.15234-0.29688 0.08375-0.2675 0.03695-0.56827-0.0293-0.86328 0.03-0.0075 0.06079-0.015234 0.08203-0.021484 0.62375-0.1925 0.16578 0.79053 0.67578 0.99805 0.12 0.035 0.25367 0.086953 0.38867 0.095703 0.11375 0.01125 0.22422 0.0063 0.32422-0.033203 0.1-0.0375 0.19086-0.11612 0.25586-0.24609 0.06-0.3175 0.10976-0.66344 0.16602-0.99219 0.05125-0.225 0.09266-0.44875 0.16016-0.65625 0.04-0.1 0.07102-0.18648 0.10352-0.27148 0.1325-0.2925 0.29562-0.54969 0.54688-0.77344 0.0275-0.01875 0.05704-0.037656 0.08203-0.066406 0.005-0.0025 0.008-0.00266 0.01172-0.00391 0.0375-0.02 0.07508-0.041016 0.11133-0.072266 0.05625-0.03875 0.11312-0.077266 0.17188-0.10352 0.23125-0.13 0.47406-0.2168 0.72656-0.18555 0.07625 0.0025 0.14664 0.015234 0.21289 0.052734 0.0225 0.00375 0.04656 0.01 0.07031 0.015625-0.01 0.04625-0.02266 0.081641-0.03516 0.11914-0.01875 0.095-0.06023 0.18508-0.11524 0.26758l-0.0039-0.00586c-0.0375 0.06-0.09367 0.13773-0.13867 0.17773 0.0675 0.0475 0.14484 0.093125 0.21484 0.14062 0.09 0.05375 0.17234 0.111 0.24609 0.17969 0.43875 0.36 0.7907 0.85266 0.9082 1.3789 0.02875-0.01875 0.05664-0.037422 0.08789-0.044922 0.28-0.15375 0.59969-0.16219 0.89844-0.24219-0.05625-0.46375-0.13703-0.9325-0.42578-1.3125-0.045-0.0425-0.08-0.089125-0.125-0.13281-0.43625-0.4725-0.82422-0.97992-1.1992-1.5137-0.34-0.4875-0.67531-0.99773-1.0391-1.4902-0.0375-0.05625-0.07383-0.11237-0.11133-0.16992-0.03-0.11375-0.05187-0.27562-0.04687-0.42188 0.01375-0.11375 0.05187-0.22469 0.14062-0.30469 0.1725 0.23125 0.37227 0.40156 0.57227 0.57031 0.23625 0.18 0.4707 0.35008 0.68945 0.54883 0.5575 0.35 1.3403 0.38225 1.9453 0.11719 0.14625-0.0725 0.2807-0.15266 0.4082-0.25391 0.16375-0.17874 0.18914-0.57445 0.05664-0.7832-0.33-0.2-0.67344-0.49828-0.96094-0.83203-0.234-0.2932-0.437-0.6056-0.555-0.91935-0.097-0.07413-0.198-0.11375-0.301-0.13086-0.07689-0.012875-0.15421-0.012663-0.23242-0.003906zm4.3223 3.8086c-0.28 0.11-0.58547 0.21509-0.88672 0.33008-0.20125 0.07625-0.40055 0.16398-0.5918 0.27148-0.085 0.04-0.16219 0.088503-0.24219 0.13477-0.19 0.1175-0.38477 0.26064-0.54102 0.39062-0.205 0.18501-0.3918 0.40055-0.5293 0.6543 0.23875 0.5275 0.64024 1.1188 1.1465 1.4375 0.04625 0.02875 0.09046 0.052422 0.13672 0.076172 0.17875 0.08 0.37922 0.14484 0.54297 0.15234 0.0675-0.075 0.12469-0.15578 0.17969-0.23828 0.185-0.26125 0.3293-0.55578 0.43555-0.86328 0.26-0.72625 0.33211-1.5382 0.34961-2.3457zm-5.9219 2.0391c-0.03875 0.02125-0.07031 0.030312-0.10156 0.039063-0.05875 0.02625-0.11562 0.063359-0.17188 0.099609-0.03875 0.0225-0.07703 0.044922-0.11328 0.076172-0.025 0.03-0.04969 0.059297-0.08594 0.091797-0.32625 0.35501-0.32539 0.89055-0.36914 1.4355-0.0025 0.1575-0.02039 0.30398-0.05664 0.45898-0.0063 0.0575-0.02055 0.13148-0.0293 0.17773l0.08008 0.00977 0.03125-0.00586-0.04687-0.3457c0.01-0.0475 0.03664-0.10825 0.05664-0.1582 0.14125-0.2175 0.40305-0.35594 0.6543-0.36719 0.04375-0.0025 0.07758 0.0001531 0.11133 0.00195 0.02375 0.00375 0.03492 0.0025 0.04492 0 0.04 0.02375 0.08063 0.055078 0.10938 0.080078 0.26375 0.19625 0.40203 0.54836 0.23828 0.84961l0.16992-0.06836 0.34766-0.15039c0.135-0.1575 0.19852-0.37445 0.22852-0.5957 0.02625-0.15125 0.02781-0.30781 0.03906-0.47656-0.065-0.24-0.17859-0.4643-0.33984-0.6543-0.20125-0.2575-0.47188-0.4418-0.79688-0.49805zm5.7168 1.4824c-0.0775 0.165-0.2382 0.26452-0.4082 0.33203-0.0425 0.01125-0.0818 0.021953-0.12305 0.033203 0.09625 0.3625 0.24531 0.7143 0.41406 1.0605 0.22375 0.42749 0.45898 0.85375 0.61523 1.3125 0.0975-0.04875 0.21508-0.14781 0.33008-0.25781 0.18375-0.1375 0.38969-0.28133 0.61719-0.29883l-1.2363-2.1055-0.01953 0.00586-0.18945-0.082031zm-2.7324 0.25391c-0.32641-0.01125-0.66336 0.040128-0.97461 0.1582-0.20125 0.075-0.38484 0.18281-0.55859 0.32031-0.01 0.0025-0.01609 0.013828-0.02734 0.017578l0.03906 0.023437 0.17383 0.029297c0.18375 0.15 0.58984 0.34164 0.46484 0.61914-0.15875-0.1-0.33117-0.16609-0.51367-0.18359-0.06-0.0175-0.12758-0.020234-0.20508-0.021484-0.24625-0.01125-0.5125 0.028047-0.75 0.091797-0.05125 0.01375-0.10695 0.0175-0.1582 0.03125 0.0575 0.0075 0.11312 0.015 0.17188 0.03125 0.33375 0.0425 0.65524 0.21297 0.89648 0.44922 0.1175 0.1125 0.21562 0.23023 0.29687 0.36523v0.0098c0.26375-0.05 0.49274 0.0125 0.67774 0.13086 0.55625 0.33875 0.92406 1.1408 1.4766 1.4258 0.09625 0.07375 0.22478 0.305 0.0098 0.375-0.1-0.085-0.17891-0.12992-0.28516-0.20117-0.43375 0.1175-0.73555-0.43422-0.9668-0.76172l-0.03516-0.12695c-0.18-0.24375-0.4943-0.33524-0.74805-0.36523-0.07125-0.015-0.13578-0.0175-0.20703-0.03125-0.2375-0.05875-0.45766-0.1768-0.53516-0.5918-0.14-0.10625-0.28742-0.16672-0.45117-0.19922-0.0575-0.0075-0.12368-0.012547-0.20117-0.013672-0.03375-0.0025-0.07781 0.0003062-0.13281 0.00391-0.03125 0.0075-0.06422 0.00745-0.10547 0.017578-0.24 0.02125-0.48375 0.096382-0.71875 0.12891-0.0225 0.0037-0.04267 0.0089-0.06641 0.0039 0.02375 0.005 0.04531 0.01125 0.07031 0.01563 0.3325 0.04375 0.60625 0.15734 0.84375 0.33984 0.05125 0.02875 0.09757 0.07344 0.14258 0.11719 0.0675 0.04875 0.12578 0.09912 0.17578 0.16406 0.10875 0.11625 0.20688 0.23523 0.29688 0.36523 0.4575 0.635 0.77047 1.4405 1.1367 2.0293 0.50125 1.0462 0.65594 2.2092 1.0547 3.293 0.13125 0.3325 0.27383 0.6593 0.45508 0.9668 0.04 0.06625 0.0775 0.12594 0.125 0.17969 0.795 1.0762 1.0488 2.3108 1.3926 3.5195 0.0425 0.07875 0.10266 0.14016 0.16016 0.19141 0.255 0.21 0.60062 0.26008 0.92188 0.17383 0.52625-0.14375 0.98476-0.45742 1.3535-0.85742 0.2575-0.2825 0.47203-0.60656 0.61328-0.94531 0.14-0.305 0.22187-0.61617 0.26562-0.95117 0.0075-0.18 0.0023-0.36914-0.0039-0.55664-0.01-1.0325-0.19969-2.0832-0.77344-2.9082-0.22375-0.34125-0.52609-0.63758-0.90234-0.89258-0.0425-0.0325-0.09421-0.0632-0.13672-0.0957-0.28875-0.37875-0.78766-0.75859-1.0664-1.1836-0.13875-0.22875-0.22531-0.47258-0.19531-0.73633 0.0075-0.01375 0.003-0.02406 0.01172-0.03906 0.42125 0.0875 0.40648 0.57281 0.64648 0.85156-0.115-1.4275-0.44156-2.9882-1.5078-4.002-0.21125-0.21-0.46008-0.39984-0.73633-0.55859-0.26812-0.13375-0.58375-0.20602-0.91016-0.2168zm-9.5215 0.23242c-0.07-0.01375-0.14867-0.014437-0.23242 0.00781-0.0175 0.01625-0.02742 0.018906-0.04492 0.035156-0.03875 0.02-0.08656 0.045078-0.13281 0.080078-0.33625 0.28125-0.47203 0.72789-0.42578 1.1504 0.08875 0.3325 0.26109 0.85352 0.71484 0.85352 0.105 0.0275 0.19875 0.03523 0.25 0.02148 0.0725-0.02 0.10836-0.04984 0.13086-0.08984 0.1025-0.195-0.09609-0.60953 0.06641-0.83203 0.0325-0.0425 0.0682-0.072687 0.12695-0.10156 0.055-0.0025 0.11336-0.029813 0.16211-0.054687 0.10875-0.05125 0.20219-0.10977 0.30469-0.10352 0.06375-0.0075 0.13828 0.017656 0.20703 0.066406l-0.319-0.4824-0.106-0.1953c-0.1125-0.04625-0.21062-0.12074-0.32812-0.18945-0.12125-0.07875-0.235-0.13602-0.375-0.16602zm5.9766 0.83398c-0.0575-0.0075-0.11149-0.00234-0.17773 0.00391-0.05375 0.00375-0.11688 0.00922-0.17188 0.011719l-0.11719 0.14453c-0.2625-0.03-0.51062-0.051328-0.76562-0.048828-0.10125-0.005-0.20938-0.0004718-0.32812 0.00977-0.15625 0.0075-0.30984 0.028437-0.46484 0.054687 0.16 0 0.32742-0.00505 0.48242 0.017578 0.125 0.01 0.24086 0.02625 0.34961 0.0625 0.28375 0.06875 0.53234 0.21234 0.74609 0.43359 0.025-0.03 0.06141-0.06125 0.09766-0.09375 0.09-0.08125 0.18289-0.14025 0.27539-0.20898 0.05875-0.0275 0.10805-0.052062 0.1543-0.085938 0.22625-0.10625 0.45961-0.17945 0.69336-0.2207 0.04375-0.00125 0.07562-0.010312 0.10938-0.00781-0.03625-0.0125-0.07077-0.014922-0.11328-0.013672-0.25-0.0225-0.51578-0.062344-0.76953-0.058594zm-10.118 0.1191c-0.26203-0.018125-0.53016 0.0063-0.80078 0.029297-0.29375 0.02375-0.59586 0.049922-0.88086 0.013672l-0.22461 0.074219-0.36133 0.097656c0.17375 0.365 0.40961 0.71195 0.66211 1.0332 0.42625 0.52 0.93414 0.97266 1.4629 1.2539 0.03875 0.0225 0.0775 0.04469 0.125 0.05469 0.68875-0.4875 0.9807-1.5136 0.7832-2.3398-0.2475-0.13938-0.50359-0.19867-0.76562-0.2168zm8.0703 0.056641c-0.085 0.01125-0.16672 0.033125-0.26172 0.046875 0.095-0.0175 0.1875-0.031875 0.28125-0.046875h-0.01953zm-0.26172 0.046875c-0.0825 0.02375-0.17578 0.049219-0.26953 0.074219-0.26875 0.0725-0.52766 0.17531-0.78516 0.28906-0.14625 0.07375-0.29406 0.14664-0.44531 0.24414-0.175 0.0925-0.34226 0.20438-0.50977 0.32812-0.1275 0.10125-0.25602 0.20148-0.38476 0.30273-0.07125 0.06375-0.14312 0.12945-0.20312 0.18945l-0.08594-0.11133c-0.01 0.0037-0.01025 0.0053-0.02148 0.0078-0.095 0.01375-0.2007 0.0318-0.31445 0.06055-0.0825 0.0225-0.17438 0.04898-0.26562 0.08398-0.03875 0.02125-0.08867 0.03555-0.13867 0.06055-0.31625 0.14-0.60203 0.35148-0.83203 0.61523-0.1025 0.11625-0.18922 0.25008-0.26172 0.39258-0.0425-0.245 0.07117-0.48633 0.16992-0.73633 0.05375-0.0925 0.0843-0.18906 0.12305-0.28906-0.07-0.01625-0.13742-0.01992-0.20117-0.01367-0.1325 0.0025-0.26312 0.06278-0.42188 0.0039-0.0975 0.05-0.18594 0.09438-0.27344 0.14062-0.4825 0.26375-0.93898 0.62148-1.2402 1.1152-0.4575 0.81375-0.73992 1.9276-0.70117 2.9863 0.03125 0.66 0.17688 1.2884 0.48438 1.8184 0.04 0.0675 0.0775 0.12324 0.125 0.17578 0.3975-0.41875 0.35898-1.0655 0.77148-1.4668 0.20625 0.06625 0.16805 0.30086 0.2168 0.44336-0.33375 0.53625-0.62594 1.139-0.86719 1.7715-0.2875 0.79125-0.48055 1.6458-0.4668 2.4883 0.0125 0.7525 0.18758 1.4991 0.58008 2.1816 0.01875 0.02875 0.03453 0.04695 0.05078 0.06445 0.3925 0.64 0.90125 1.182 1.5 1.5195 0.57125 0.31375 1.2189 0.46125 1.9414 0.34375-0.755-0.96375-1.0405-2.2372-0.62305-3.4609 0.3625-0.51 0.4807-1.0209 0.4707-1.5547-0.0025-1.1788-0.6557-2.383-0.62695-3.6055 0.07125-0.3975 0.0782-0.82266 0.06445-1.2539-0.015-0.93125-0.10031-1.8784 0.30469-2.5996 0.04125-0.05625 0.08133-0.11151 0.11133-0.16406 0.06375-0.09625 0.1425-0.17227 0.21875-0.25977 0.09-0.07875 0.18219-0.15 0.27344-0.21875 0.04625-0.035 0.09485-0.06016 0.15234-0.09766-0.055 0.0038-0.10868 0.0075-0.16992 0.02539-0.09875 0.005-0.20516 0.02125-0.31641 0.0625-0.08 0.0325-0.16875 0.06725-0.25 0.13477-0.025 0.02875-0.06555 0.05133-0.0918 0.08008-0.01625 0.0175-0.02766 0.01875-0.03516 0.03125-0.225 0.19625-0.37031 0.52391-0.32031 0.87891-0.14125 0.09375-0.25812 0.18984-0.35938 0.30859-0.24 0.265-0.37367 0.59234-0.48242 0.93359-0.1675 0.535-0.27102 1.11-0.63477 1.5312l-0.08984-0.09766c0.4425-0.62375-0.0925-1.5473 0.4375-2.1348 0.0275-0.02 0.05704-0.03961 0.08203-0.06836 0.23875-0.1875 0.41109-0.41109 0.55859-0.65234 0.22875-0.34 0.4193-0.70477 0.7168-1.041 0.03625-0.0325 0.07148-0.06312 0.11523-0.10938 0 0 0.01044-0.0017 0.0078-0.01172 0.07875-0.0775 0.16273-0.13328 0.24023-0.17578 0.09375-0.06125 0.19508-0.09949 0.29883-0.12695 0.115-0.02125 0.22617-0.02773 0.32617-0.02148 0.1675 0 0.32953 0.03234 0.48828 0.08984 0.0125-0.0025 0.01273-0.0021 0.02148-0.0059 0.105-0.2275 0.2482-0.44602 0.4082-0.63476 0.1275-0.14625 0.25945-0.26875 0.4082-0.375 0.24-0.1775 0.48891-0.3232 0.75391-0.4082 0.09125-0.03375 0.18508-0.058281 0.26758-0.082031zm0.55469 0.60156c-0.13078-0.0025-0.26055 0.0051-0.38867 0.02344-0.085 0.01125-0.18289 0.02578-0.27539 0.05078-0.27625 0.085-0.53172 0.245-0.73047 0.5l0.0039 0.0098c0.2575-0.07 0.51726-0.17328 0.79102-0.26953 0.09-0.035 0.17992-0.07125 0.26367-0.09375 0.24375-0.07875 0.49242-0.1443 0.73242-0.1543 0.045-0.0013 0.08586-0.01255 0.13086-0.01367-0.045 0.0012-0.09243-0.01003-0.13867-0.01953-0.1275-0.02062-0.25789-0.03095-0.38867-0.0332zm28.441 0.08008c-0.27328-0.0075-0.52883 0.05201-0.68945 0.30078-0.2025 0.44125 0.08851 0.79328 0.29102 1.1445 0.26375 0.29375 0.75953 0.14633 1.0508 0.20508-0.20375 0.44-0.84734 0.79391-0.49609 1.4102 0.64125 0.41125 1.3423 0.73375 2.041 0.96875 0.55375-0.705 0.70117-1.7615 0.26367-2.584-0.35-0.675-1.0209-1.1146-1.6621-1.3496-0.23375-0.015-0.52555-0.08845-0.79883-0.0957zm-26.854 0.38672c-0.225 0.0275-0.4257 0.14812-0.56445 0.42188-0.0275 0.0175-0.04445 0.03419-0.06445 0.03906-0.26625 0.12875-0.22617-0.42961-0.41992-0.41211-0.0075 0.015-0.0056 0.02555-0.01563 0.0293-0.115 0.44125-0.35664 0.81891-0.43164 1.2852-0.0088 0.09-0.01867 0.1832-0.01367 0.2832 0.0375 0.05625 0.08195 0.09888 0.12695 0.14258 0.24625 0.21375 0.55586 0.34024 0.88086 0.39648 0.1175 0.025 0.23055 0.04047 0.3418 0.04297 0.25375-0.0025 0.49961-0.03617 0.72461-0.10742 0.02-0.005 0.03156-0.0087 0.03906-0.02148 0.08-0.0325 0.16586-0.07898 0.25586-0.11523 0.06-0.02625 0.11-0.05219 0.15625-0.08594 0.28-0.15375 0.535-0.35648 0.5625-0.70898 0.01-0.04875 0.01172-0.08199 0.01172-0.12695-0.0125-0.175-0.0768-0.36734-0.18555-0.52734-0.0825-0.145-0.21117-0.25664-0.35742-0.30664-0.15875-0.05625-0.33344-0.13219-0.52344-0.17969-0.06-0.0175-0.12-0.03406-0.1875-0.03906-0.10625-0.02625-0.21844-0.02951-0.33594-0.0098zm7.7012 0.07813c-0.225-0.01875-0.2657 0.16-0.2832 0.34375 0.0038 0.09875 0.0054 0.18703-0.0059 0.26953 0.10875 0.66 0.05539 1.4981 0.58789 1.9219 0.04 0.0225 0.08289 0.05586 0.11914 0.06836 0.37375-0.17875 0.76211-0.41656 1.1309-0.69531 0.5175-0.385 0.98234-0.84562 1.2773-1.3594-0.5175-0.23875-1.1272-0.31797-1.7422-0.38672-0.36625-0.045-0.74023-0.07837-1.084-0.16211zm-10.389 0.53516c-0.04874-0.0062-0.10078-0.0012-0.15625 0.01367 0 0-0.0115 0.0021-0.02148 0.0059l0.08008 0.37695c-0.13125 0.13625-0.26547 0.17289-0.41797 0.18164-0.2-0.0025-0.41891-0.07859-0.62891-0.12109-0.11625-0.0225-0.23164-0.03633-0.33789-0.01758-0.03875 0.02-0.07773 0.0432-0.11523 0.06445-0.10875 0.05125-0.19664 0.13078-0.27539 0.20703-0.095 0.10375-0.17008 0.23648-0.23633 0.36524-0.06625 0.16375-0.11234 0.32976-0.15234 0.50976-0.01 0.04625-0.01758 0.09301-0.01758 0.13672-0.01 0.215 0.07766 0.38062 0.19141 0.51562 0.10625 0.10625 0.21531 0.18774 0.35156 0.24024l0.0039 0.0098c0.11625 0.025 0.23445 0.04703 0.3457 0.05078 0.11375 0.015 0.22203 0.0075 0.33203 0 0.15125-0.0075 0.30016-0.03594 0.44141-0.08594 0.19625-0.0525 0.37266-0.13438 0.53516-0.23438 0.15375-0.085 0.29664-0.17992 0.43164-0.29492 0.13875-0.105 0.25891-0.22492 0.37891-0.35742 0.16875-0.1575 0.2582-0.40266 0.2207-0.62891 0-0.0425-0.012-0.085-0.0332-0.125-0.01125-0.04125-0.03164-0.07887-0.05664-0.12891-0.32594-0.13452-0.52215-0.64011-0.86328-0.68359zm-6.8945 1.0234c-0.1 0.12625-0.22219 0.20344-0.36719 0.24219-0.2025 0.0675-0.44039 0.05312-0.61914 0.04687-0.02625 0.485-0.08453 0.96906-0.11328 1.4453-0.0025 0.235-0.0077 0.47047 0.0098 0.69922-0.085 0.39125 0.10289 0.50641 0.33789 0.59766 0.235 0.095 0.50539 0.15391 0.61914 0.37891 0.08-0.74625-0.0089-1.5327-0.0039-2.3027 0.0125-0.37125 0.04671-0.73742 0.13672-1.1074zm11.639 0.10156c-0.0275 0.01875-0.04547 0.03606-0.07422 0.05469-0.0425 0.045-0.075 0.09775-0.09375 0.14648-0.0725 0.23125 0.15906 0.51359 0.16406 0.74609 0.0088-0.01375 0.01594-0.02406 0.02344-0.03906 0.04-0.055 0.06508-0.12922 0.08008-0.19922 0.05375-0.215 0.02519-0.48641 0.0039-0.69141l-0.10352-0.01758zm20.113 0.34961c-0.32074-0.01-0.64226 0.01281-0.96289 0.08594 0.205 0.675 0.70008 1.2041 1.0488 1.8203 0.78875 1.4988 3.0915 1.8184 3.209 3.7559 2.3612 2.3775 3.178 5.4038 3.9355 8.4551 0.40875 0.11875 0.78703 0.44102 1.0508 0.82226 0.29125 0.76375 0.05851 1.6439-0.14648 2.3477 1.02 1.1438 2.3044 1.7618 3.7031 1.9668 0.64125-0.02875 1.1087-0.41141 1.5449-0.91016 0.555-0.8225 0.49594-1.9387 0.99219-2.7012l0.11719 0.14844c0.465 1.1738-0.20555 2.2589-0.4668 3.3164 1.1375 1.0275 1.6909 2.318 2.0996 3.668 0.55375 0.1175 1.2522 0.3531 1.8047 0.06055 0.61375-0.23625 1.2563 0.08701 1.5488 0.64453-0.43875 0.35125-0.81805-0.35328-1.3418-0.20703-0.90375 0.29375-1.8674-0.3225-2.8574 0-1.4012 0.41125-2.5959 1.3526-3.8496 2.1738-0.2625 0.55875-0.69875 1.086-0.4375 1.7598 0.43875-0.14625 1.0486-0.26258 1.3398 0.29492v-1.291c0.49625-2.055 2.9165-2.4652 4.4902-2.1152l-0.23242 0.23633c-1.5738-0.325-4.401 0.84984-3.7598 2.9336 0.23374 0.5 0.64094-0.05738 0.96094 0.23633 0.235 0.11875 0.52609 0.35148 0.49609 0.61524 0.05875 0.3225 0.40797 0.52984 0.69922 0.55859 1.4875-1.4675 1.4884-5.8712 4.8984-4.1387l-0.14648 0.14648c-1.575-0.67625-3.8474 0.96836-3.2637 2.8184 0.2625 0.47 0.69992-0.02836 1.1074 0.11914 0.29125 0.175 0.58219 0.49641 0.55469 0.84766 0.2625 0.56 0.98938 0.44102 1.4844 0.35352 0.9925-0.76375 2.5673-0.17539 3.5586-1.0566 0.6125-0.7925 0.46602-1.8496 0.29102-2.8184-1.6325-1.8488-1.0183-4.6651-2.7383-6.4863-1.78-1.1438-2.3061-3.0826-3.5586-4.5801-0.6425-0.47-1.2838-0.88133-2.1875-0.70508-0.32 0.08875-0.43805 0.705-0.9043 0.5-0.81625-1.6725-0.84492-3.6691-1.9512-5.1953-0.905-2.2012-4.0245-1.8493-4.3457-4.373-1.08-1.85-3.0334-3.0517-4.8984-3.668-0.96188-0.08812-1.9245-0.40863-2.8867-0.43945zm-20.656 0.02149c-0.18125 0.02625-0.30477 0.06019-0.41602 0.10156-0.05875 0.0275-0.10609 0.0607-0.15234 0.0957-0.45125 0.42375 0.48742 1.3727 0.26367 1.9902l0.06836 0.0039c0.045-0.08 0.0882-0.16953 0.12695-0.26953 0.0425-0.08875 0.07492-0.17672 0.10742-0.26172 0.1975-0.54375 0.27941-1.1577 0.002-1.6602zm-2.8145 0.23828c-0.11125 0.04-0.16203 0.09938-0.17578 0.17188-0.01125 0.08 0.02351 0.16883 0.07227 0.26758 0.0975 0.1625 0.26274 0.33102 0.39648 0.41602 0.02375 0.005 0.0368 0.0112 0.06055 0.01758 0.12125-0.2125 0.11671-0.47844 0.19922-0.71094l-0.47852-0.12695-0.07422-0.03516zm1.5762 0.14062-0.3457 0.07031-0.23633 0.03125c0.09 0.255 0.2232 0.46297 0.37695 0.66797 0.0075-0.015 0.0218-0.04094 0.0293-0.05469 0.12875-0.225 0.18203-0.48234 0.17578-0.71484zm-2.1973 0.22656c-0.10375 0.0725-0.21476 0.11475-0.32226 0.16602-0.17 0.0675-0.33414 0.15773-0.40039 0.36523 0.22 0.1725 0.36422 0.57938 0.63672 0.51562l0.08594-1.0469zm17.34 0.0078c-0.26875 0.2875-3.8392 4.1141-4.1055 4.4004 0.23375 0.21875 1.1498 1.0749 1.3848 1.2949 0.12625-0.13625 0.42578-0.46094 0.42578-0.46094l2.582 2.4082s-0.30219 0.32398-0.42969 0.45898c0.2225 0.20875 0.94547 0.88109 1.168 1.0898 0.25125-0.27 2.2839-2.4468 2.5352-2.7168-0.24375-0.22625-1.2754-1.1895-1.2754-1.1895s0.32539-0.34984 0.46289-0.49609c-0.26125-0.24625-1.7832-1.6641-1.7832-1.6641s1.0212-0.76797 1.2637-0.94922c-0.305-0.32875-1.0749-1.0813-1.7949-1.7676 0 0-0.26359-0.2482-0.43359-0.4082zm-18.921 0.71c-0.06375 0.005-0.10516 0.01578-0.16016 0.01953-0.12625 0.02375-0.22969 0.05172-0.30469 0.10547-0.38625 0.25 0.01469 0.87484 0.36719 1.3711 0.11875 0.1575 0.23414 0.30445 0.30664 0.4082l0.01953-0.42969 0.10156-1.3652-0.33-0.109zm-1.498 0.05859c0.03875 0.31375 0.22562 0.72969 0.45312 0.83594v-0.04297l0.05469-0.38281 0.02734-0.14258c-0.01625-0.0625-0.05422-0.11839-0.10547-0.14844-0.04625-0.045-0.10454-0.06117-0.17578-0.07617-0.0825-0.02125-0.17391-0.03047-0.25391-0.04297zm-5.4824 1.5293c-0.295 0.225-0.59351 0.47445-0.88477 0.75195-0.44375 0.41-0.86266 0.88016-1.1914 1.3477 0.5175 0.16 1.083 0.28617 1.6367 0.32617 0.44875 0.02375 0.89156-0.01839 1.2891-0.14844 0.03-0.0087 0.05086-0.0143 0.06836-0.0293-0.07-0.68375-0.11258-1.5085-0.61133-2.0098-0.08-0.08875-0.18789-0.17078-0.30664-0.23828zm12.355 0.344c0.17875 0.46375 0.24711 0.96844 0.28711 1.4922 0.0225 0.25 0.04516 0.49945 0.06641 0.75195 0.04125-0.01375 0.08445-0.01256 0.12695-0.02344 0.06125-0.0175 0.11671-0.02266 0.16797-0.03516 0.285-0.055 0.57117-0.13258 0.60742-0.45508-0.19875-0.62375-0.57469-1.5028-1.1797-1.6953-0.025-0.01625-0.04867-0.02141-0.07617-0.03516zm1.3477 1.0703c0.0012 0.0038 0.000656 0.006 0.002 0.0098 0.22125 0.20875 0.1132 0.84 0.4082 0.78125 0.04-0.01 0.08875-0.03492 0.15625-0.07617-0.01125-0.16375-0.16641-0.37469-0.31641-0.52344-0.09-0.0875-0.1775-0.16516-0.25-0.19141zm-1.9961 0.86523c-0.0037 0.02375-0.01138 0.03484-0.01758 0.05859-0.05 0.3475 0.02437 0.70695 0.04687 1.002 0.05625-0.0375 0.11649-0.09824 0.17774-0.1582 0.1-0.0825 0.18617-0.17461 0.29492-0.22461-0.07-0.26-0.2107-0.62273-0.50195-0.67773zm-4.243 0.112c-0.06625 0.12875-0.10859 0.25227-0.15234 0.38477-0.0575 0.24-0.08383 0.515-0.08008 0.78125 0.01625 0.3525 0.0689 0.71594 0.12891 1.0234 0.04625 0.0087 0.09484 0.01914 0.15234 0.02539 0.10125 0.0075 0.20141 0.0125 0.28516 0 0.12-0.01 0.22695-0.02672 0.31445-0.07422 0.01875-0.015 0.03914-0.02086 0.05664-0.03711-0.015-0.43125-0.20641-0.85797-0.41016-1.293-0.11625-0.26875-0.23117-0.5268-0.29492-0.81055zm6.6172 0.44531v0.002c-0.03375-0.0025-0.07836-0.000029-0.13086 0.01367-0.03375-0.0025-0.06227 0.0062-0.10352 0.01758-0.23625 0.03-0.46172 0.10212-0.69922 0.21094-0.05125 0.015-0.09945 0.03695-0.1582 0.06445-0.0875 0.04625-0.18477 0.095-0.29102 0.15625-0.21125 0.12375-0.42953 0.26141-0.64453 0.41016-0.08125 0.06625-0.17234 0.13477-0.27734 0.19727-0.2125 0.15875-0.42219 0.32656-0.64844 0.47656-0.07125 0.0625-0.15648 0.11949-0.24024 0.17578-0.24125 0.17625-0.48898 0.3325-0.74023 0.46875-0.085 0.055-0.18219 0.10237-0.27344 0.13867-0.06375 0.0075-0.12836 0.01453-0.19336 0.01953-0.1975 0.0087-0.3943 0.01734-0.5918 0.02734-0.1525 0.0075-0.30469 0.01617-0.46094 0.01367-0.10875 0.0088-0.21547 0.01253-0.32422 0.01953-0.11 0.0087-0.21938 0.01594-0.32812 0.02344-0.085 0.01125-0.18305 0.01555-0.2793 0.0293-0.04375 0-0.09469 0.01648-0.14844 0.02148-0.31875 0.0525-0.63305 0.12324-0.93555 0.23828-0.12 0.0425-0.23742 0.09863-0.35742 0.15234l-0.28711 0.16797-0.66797 0.35742c-0.0975 0.5075 0.0182 0.94227 0.1582 1.3848 0.3125 0.7175 0.79375 1.2775 1.4062 1.625 0.25875 0.14125 0.53336 0.25672 0.81836 0.32422 0.10625 0.02875 0.19953 0.04453 0.30078 0.05078 0.23625 0.01625 0.47547-0.0062 0.69922-0.0332 0.0525-0.01375 0.10524-0.01805 0.14648-0.0293 0.09625-0.01375 0.18969-0.0393 0.27344-0.06055 0.1125-0.03125 0.21664-0.05945 0.30664-0.0957 0.11375-0.03 0.21344-0.06727 0.30469-0.10352 0.14875-0.0625 0.28781-0.12388 0.41406-0.19141 0.18625-0.095 0.35688-0.19469 0.51562-0.30469 0.15125-0.09625 0.29094-0.19117 0.42969-0.29492 0.2525-0.18125 0.48828-0.3775 0.70703-0.59375 0.08125-0.06625 0.16117-0.14203 0.23242-0.20703 0.17625-0.17 0.33992-0.33633 0.51367-0.51758l0.125 0.01172 0.03125-0.0098c0.01625 0.0625 0.02313 0.12734 0.01563 0.18359-0.0175 0.30625-0.35461 0.58719-0.38086 0.77344 0.1875-0.04125 0.37633-0.08113 0.54883-0.13867 0.11125-0.04125 0.21664-0.06727 0.30664-0.10352 0.22875-0.09625 0.45617-0.19094 0.66992-0.30469 0.10875-0.05 0.20602-0.09875 0.29102-0.15625 0.05875-0.02625 0.10805-0.05219 0.1543-0.08594 0.22-0.12875 0.43438-0.27492 0.64062-0.41992 0.03625-0.0325 0.065-0.04961 0.09375-0.06836 0.045-0.03375 0.08242-0.05719 0.10742-0.08594 0.0675-0.04 0.12031-0.0885 0.16406-0.13476 0.22125-0.17 0.42781-0.34641 0.63281-0.53516 0.0525-0.04875 0.1057-0.0975 0.1582-0.15625-0.08375-0.14625-0.10851-0.32726-0.13477-0.50976-0.02125-0.20625-0.04234-0.41156-0.15234-0.57031-0.02625-0.05875-0.07406-0.11275-0.13281-0.16406-0.025 0.02875-0.05359 0.04687-0.08984 0.07813-0.20125 0.155-0.43875 0.26453-0.6875 0.33203-0.05125 0.01375-0.11375 0.02919-0.1875 0.03906-0.0325 0.0088-0.0732 0.02023-0.12695 0.02148-0.03125 0.01-0.06422 0.0088-0.10547 0.01953-0.235 0.03125-0.49039 0.03195-0.74414 0.0332-0.055 0.0038-0.11204-0.0029-0.17578 0.002-0.1125-0.0038-0.22078 0.0038-0.33203 0-0.24375 0-0.49578 0.01127-0.73828 0.05664-0.1075 0.0175-0.21125 0.03352-0.3125 0.07227-0.08125 0.02125-0.16508 0.04422-0.23633 0.07422-0.13375 0.15875-0.25883 0.31586-0.39258 0.47461-0.06375 0.09625-0.13914 0.18375-0.21289 0.28125-0.205 0.26625-0.42164 0.53758-0.65039 0.79883-0.125 0.155-0.25258 0.3032-0.39258 0.43945-0.14875 0.1525-0.30922 0.29586-0.48047 0.44336-0.1175 0.09875-0.24742 0.18695-0.38867 0.2832-0.08375 0.055-0.17836 0.11551-0.28711 0.16797-0.08625 0.045-0.18617 0.09199-0.29492 0.14453-0.05125 0.01375-0.10868 0.0443-0.16992 0.06055-0.02875 0.01875-0.0618 0.0282-0.0918 0.0332-0.04125 0.01375-0.09204 0.02726-0.14453 0.04102-0.30875 0.08375-0.64797 0.09719-0.98047 0.05469-0.27625-0.0525-0.58836-0.19992-0.81836-0.38867l0.0039 0.0059c-0.01-0.0075-0.02195-0.01984-0.0332-0.02734-0.0038-0.0038-0.008-0.0073-0.01172-0.0098v-0.0039c-0.2775-0.23875-0.73039-0.88172-0.71289-1.3242 0.155 0.125 0.32352 0.25906 0.47852 0.38281 0.22 0.16375 0.44062 0.32617 0.67188 0.45117 0.06375 0.02875 0.13141 0.03258 0.19141 0.04883 0.355 0.04875 0.68523 0.03852 0.99023-0.02148 0.05125-0.0125 0.10452-0.02906 0.14453-0.03906 0.09375-0.02625 0.18562-0.05078 0.26562-0.08203 0.11125-0.04125 0.21133-0.08074 0.29883-0.12695 0.1075-0.0525 0.20406-0.102 0.28906-0.1582 0.145-0.0825 0.27898-0.16047 0.39648-0.26172 0.18-0.115 0.34359-0.2482 0.49609-0.37695 0.14625-0.11875 0.27766-0.24414 0.41016-0.36914 0.24375-0.21 0.47352-0.42976 0.69726-0.63476 0.0775-0.0775 0.15977-0.14375 0.22852-0.21875 0.2175-0.18 0.42406-0.35859 0.63281-0.52734 0.04-0.01875 0.07484-0.05289 0.12109-0.08789 0.04875-0.02375 0.10867-0.05336 0.16992-0.06836 0.22875-0.095 0.46883-0.14898 0.70508-0.17773 0.10875-0.0087 0.21547-0.02695 0.32422-0.0332 0.06375-0.0075 0.11882-0.01005 0.17383-0.01367 0.2475-0.0225 0.49797-0.03617 0.73047-0.07617 0.045-0.0012 0.07492-0.01 0.10742-0.01758 0.05375-0.005 0.0957-0.01273 0.12695-0.02148 0.075-0.0088 0.13695-0.02726 0.18945-0.04102 0.245-0.07875 0.47289-0.17305 0.68164-0.3418 0.02875-0.0175 0.04695-0.03453 0.06445-0.05078 0.0325-0.04125 0.06383-0.09425 0.08008-0.1543 0.07875-0.245 0.008-0.56008-0.12695-0.73633-0.02375-0.0038-0.05102-0.01844-0.07227-0.02344-0.07-0.0475-0.14547-0.08273-0.23047-0.11523h-0.002c-0.265-0.115-0.56172-0.18695-0.82422-0.18945-0.0575-0.005-0.12421-0.0107-0.19922-0.002zm-3.2578 0.16211-0.02344 0.16016-0.08008 0.7793 0.0039 0.05469 0.02148 0.03906 0.07227 0.05859c0.05375-0.0475 0.12375-0.11087 0.1875-0.16211 0.12875-0.10125 0.24281-0.20969 0.28906-0.36719l-0.4707-0.5625zm23.523 0.14062c-3.8213 1.7025-6.913 5.1389-6.8555 9.1602 0.23375 0.5 0.75922 0.58742 1.1992 0.76367 2.39 1.0275 3.8172-1.4092 5.7422-1.7617-0.81625 0.64625-1.8373 1.0859-2.6836 1.8496-3.06 2.4938-2.3616 6.5745-3.5566 9.8633-0.1175 0.79125 1.2269 0.41023 1.5469 1.1152-2.0412-0.11875-4.4621-0.26562-6.0371 1.2031-1.575 0.02875-3.1773 0.05912-4.4023 1.0566-0.4075 0.49875-0.9332 0.96867-0.8457 1.7012 0 0.265 0.35148 0.47062 0.58398 0.26562 0.90375-1.9375 2.9159-2.3791 4.8984-2.3203 0.175 0.02875 0.43695 0.20781 0.4082 0.41406-1.4588 0.05625-2.9472 0.05613-4.0547 0.99609-0.55375 0.49875-0.87359 1.1134-0.90234 1.8184-0.0875 0.3525 0.31883 0.50141 0.61133 0.44141 0.67 0.0875 0.43906 0.85062 0.78906 1.2031 1.225 0.1175 0.49492-1.4373 1.1074-1.9961 0.875-1.4375 3.265-2.4076 4.3438-1.1738-1.3112-0.235-2.7994-0.0585-3.7031 1.1152-0.35 0.5275-0.55336 1.1753-0.34961 1.8203l0.4668 0.08789c0.2625 0.175 0.64039 0.43836 0.49414 0.84961 1.5738 0.76375 3.0913-0.29203 4.5488-0.64453 1.6625 0.2925 3.4115-0.17664 4.4902-1.5566-0.0575-1.7312 1.8661-2.465 2.6523-3.875 2.42-3.1988 4.7828-6.4259 4.6953-10.711 0.49625-0.70375 1.1957-1.4393 0.8457-2.4668-0.145-0.43875-0.75781-0.58641-1.1953-0.41016-0.4375-3.3162-0.96164-7.7511-4.8379-8.8086zm-24.719 0.3125c-0.0175 0.23-0.13891 0.47352-0.22266 0.69726-0.06125 0.22875-0.08164 0.44555 0.13086 0.62305 0.0125 0.0075 0.02461 0.0042 0.03711 0.01172 0.17375-0.015 0.34758-0.02914 0.48633-0.08789 0.11125-0.04125 0.19242-0.10738 0.26367-0.21484-0.01375-0.3425-0.29508-0.61297-0.54883-0.85547-0.05-0.06375-0.10899-0.11513-0.14648-0.17383zm-3.2031 0.52344c-0.06375 0.095-0.11414 0.19859-0.15039 0.30859-0.07875 0.24375-0.13086 0.51484-0.19336 0.77734 0.1125 0.0025 0.25016-0.02258 0.37891-0.08008 0.12125-0.045 0.23617-0.10949 0.32617-0.18945-0.12875-0.27625-0.08382-0.64641-0.36133-0.81641zm10.01 2.7598c-0.03875 0.0225-0.07625 0.04461-0.125 0.06836s-0.10774 0.05133-0.17773 0.08008c-0.22375 0.11625-0.45602 0.24531-0.66602 0.41406-0.05375 0.04875-0.10765 0.09701-0.16016 0.14453-0.03625 0.0325-0.06781 0.07469-0.10156 0.11719-0.025 0.03-0.04773 0.06836-0.08398 0.09961-0.03125 0.0525-0.06204 0.10625-0.08203 0.15625 0.05625 0.085 0.12109 0.15602 0.18359 0.22852 0.05875 0.05125 0.10274 0.09613 0.14648 0.13867 0.05875 0.05125 0.11758 0.10136 0.17383 0.14258 0.08 0.055 0.16094 0.11176 0.24219 0.16797 0.28875 0.1675 0.59172 0.30727 0.88672 0.41602 0.07125 0.02625 0.1432 0.05852 0.2207 0.07227l0.08398-0.20898c-0.1-0.70875 0.05024-1.6409-0.54102-2.0371zm-5.4277 2.6836c-0.05125 0.05875-0.10781 0.09725-0.16406 0.13476-0.15625 0.12125-0.34789 0.19289-0.52539 0.27539-0.13875 0.06-0.27516 0.12844-0.41016 0.21094-0.09125 0.06875-0.17969 0.14844-0.24219 0.24219 0.18875 0.21625 0.33086 0.50164 0.50586 0.74414 0.15125 0.1925 0.31727 0.35891 0.54102 0.41016 0.01-0.0025 0.01861-0.01555 0.02734-0.0293 0.13875-0.1375 0.20328-0.31008 0.26953-0.51758-0.0038-0.14375 0.02875-0.31016 0.0625-0.47266 0.1-0.37375 0.20804-0.76055-0.06445-0.99805zm2.8887 0.48633c-0.07572-0.0063-0.15391 0.0038-0.23047 0.0293-0.10125 0.03375-0.18695 0.09301-0.25195 0.16797l0.33789 0.11328c0.0062-0.0025 0.01199-0.0073 0.01953-0.0098 0.17-0.0575 0.35656 0.03787 0.41406 0.21289 0.05875 0.1725 0.02351 0.55898-0.14648 0.61523-0.0525 0.01875-0.11118 0.000597-0.16992-0.0332l-0.45117-0.0957c0.1625 0.2225 0.43016 0.39781 0.66016 0.32031 0.30625-0.1025 0.43062-0.61367 0.32812-0.91992-0.07688-0.23062-0.2826-0.38229-0.50976-0.40039zm0.92188 1.3809c-0.19171 0.0125-0.38445 0.04312-0.57617 0.09375-0.02875 0.015-0.05789 0.02836-0.08789 0.03711-0.0425 0.015-0.08515 0.02359-0.12891 0.02734-1.565 0.5425-2.407 2.2536-1.877 3.8398 0.5325 1.5975 2.2516 2.4636 3.8379 1.9336 1.5875-0.52875 2.442-2.2541 1.9082-3.8516-0.44844-1.3431-1.7342-2.1665-3.0762-2.0801zm-20.562 0.72c-1.5162 0.9675-2.0718 2.6417-2.6543 4.168-0.46625-0.1175 0.088363-0.93969-0.49414-1.1172-0.4675 0.03-0.6718 0.55891-0.9043 0.91016-0.17625 0.70375 0.20398 1.3793 0.55273 1.9668 0 3.6688 1.2252 7.0732 4.4902 9.1582 0.37875 0.94 0.46617 1.9971 1.1074 2.8184 1.0488 1.2638 2.8582 1.1439 4.3457 0.91016 1.1662 0.88 2.6527 1.3795 4.0527 0.64453-0.02875-0.41 0.32062-0.7332 0.64062-0.9082 0.38-0.235 0.81688 0.08734 1.1094 0.05859 0.37875-0.67625-0.08899-1.3516-0.14648-2.0566-0.49625-1.5838-2.3905-0.85039-3.498-1.5254-0.205-0.17625 0.08687-0.38195 0.20312-0.43945 0.875 0.615 2.1582 0.26281 3.0332 0.85156 0.6125 0.38 1.0785 1.026 1.166 1.7598 0.145 0.47125 0.02836 1.0864 0.34961 1.4102 0.52375-0.26625-0.11586-0.67523 0.08789-1.1152 0.175-0.645 0.96203-0.58789 1.457-0.58789 0.20375-0.79125-0.2332-1.4966-0.8457-2.0254-0.845-1.0275-2.127-0.35281-3.207-0.85156-0.20375-0.1475 0.02829-0.32141 0.14453-0.41016 0.75875 0.26375 1.4586 0.02888 2.2461 0.20508 0.96125 0.175 1.5742 0.88172 2.0117 1.7617 0.35 0 0.78828-0.35234 1.0508-0.55859-0.05875-0.645-0.4957-1.1138-0.8457-1.6426-0.72875-0.52875-1.6918-0.93984-2.6543-0.55859-1.3112 0.55875-2.0395-0.61523-3.002-1.1152-1.3412-0.5575-2.917-0.02887-3.9082 1.0586l-0.145-0.15c0.4375-0.99875 1.7475-1.2344 2.5938-1.7031l-0.23242-0.26562c-0.525-2.64-3.3542-3.5509-5.5117-4.2246l0.1453-0.147c1.1938 0.06 2.1278 0.79352 3.3516 0.85352 0.49625-0.06 0.87602-0.41172 1.1973-0.79297-1.9825-1.3212-4.0248-2.8779-5.541-4.9316-0.495-0.49875-0.9318-1.467-1.748-1.4082zm29.164 5.0137c-0.72182-0.06038-1.4451 0.62086-2.166 0.70898-1.5463 0.6175 0.17398 2.3187-1.166 3.1699 0.20375 0.14625 0.75758 0.20609 0.61133 0.55859-1.2238-0.205-2.9422-0.32547-3.9922 0.64453l0.29102 0.11914c-0.32 0.55875-1.2535 0.29219-1.6035 1.0547-0.34875 0.47-0.55461 1.0577-0.34961 1.6465h0.55274c0.29125 0.11625 0.20445 0.43828 0.4082 0.61328 0.875 0.03 0.08851-0.73312 0.29102-1.2031 0.03-0.70375 0.32094-1.3485 0.99219-1.7598 0.4375-0.05875 0.905-0.46975 1.3125-0.11719-1.3112 0.02875-2.0988 1.4981-1.75 2.6719l0.69922-0.20508c0.205 0.08625 0.46734 0.29164 0.49609 0.55664 1.4288 0.44125 2.4206-0.47039 3.7031-0.55664 2.3338-1.645 4.0227-4.1097 4.2852-6.9297-0.32125-0.82125-1.2833-0.40898-1.8945-0.61523-0.24062-0.23469-0.4801-0.33728-0.7207-0.35742zm-7.8809 5.4941c-0.875-0.03-1.7191 0.44047-2.0391 1.2617-0.23375 0.61625 0.20312 0.93992 0.64062 1.2637 0.175 0.14625-0.11704 0.55609 0.26172 0.49609 0.32-0.0875 0.26273-0.34969 0.14648-0.55469-0.2625-0.97 0.17398-1.9093 0.99024-2.4668zm28.768 2.0234c-0.06149-0.0135-0.13516-0.005-0.22266 0.03125-0.37875 0.05875-0.61234 0.52852-0.49609 0.82227 0.29125-0.55875 0.93578 0.14414 1.0508-0.41211-0.06562-0.17531-0.14758-0.40109-0.33203-0.44141zm1.9785 0.21484c-0.07113-0.0125-0.15336-0.0088-0.24805 0.02148-0.29125 0.17625-0.58148 0.46906-0.55274 0.85156 0.40749-0.1475 0.84406-0.29391 1.1953-0.44141-0.06562-0.19782-0.18107-0.39484-0.39453-0.43164zm3.75 0.1543c-0.06425-0.01-0.13421-0.0087-0.20703 0.01367-0.26375 0.205-0.58406 0.5875-0.35156 0.96875 0.205-0.14625 0.46852-0.41008 0.75976-0.20508 0.1175-0.11625 0.29133-0.23516 0.20508-0.41016-0.06563-0.17625-0.21354-0.3356-0.40625-0.36719zm-36.682 0.13086c-0.14625 0.14625-0.35117 0.35305-0.26367 0.49805 0.20375-0.115 0.58281 0.06063 0.75781-0.20312-0.0575-0.20625-0.26039-0.32492-0.49414-0.29492zm4.1465 0.07422c-0.02726-0.0038-0.0575-0.000965-0.09375 0.01367-0.20375 0.0875-0.37836 0.32359-0.34961 0.55859 0.175-0.235 0.64062-0.05887 0.64062-0.41016-0.06563-0.06662-0.11548-0.14968-0.19727-0.16211zm-2.0547 0.07031c-0.22055-0.01412-0.44617 0.3257-0.49024 0.50195 0.23375-0.205 0.75867 0.11714 0.70117-0.35156-0.06594-0.10275-0.13742-0.14568-0.21094-0.15039zm-4.7773 2.4062c-0.1022-0.0146-0.2065-0.01062-0.30664 0.01172-0.13352 0.02975-0.25945 0.0945-0.36133 0.19727-0.29125 1.1162 0.9043 0.17555 1.3418 0.49805v-0.14648c-0.08-0.313-0.366-0.516-0.672-0.56zm7.7188 1.0566c-0.09094-0.0038-0.19375 0.01841-0.28125 0.0039-0.205 0.205-0.4082 0.41133-0.4082 0.70508h0.14648c0.175-0.3525 1.0203 0.14641 0.75781-0.55859-0.04375-0.1175-0.12391-0.14679-0.21484-0.15039zm-10.036 0.56c-0.13395 0.01863-0.26688 0.08263-0.39062 0.20703-0.175 1.145 0.93414 0.29398 1.4004 0.64648v-0.20312c-0.197-0.355-0.608-0.707-1.01-0.651zm11.426 0.7207c-0.1752-0.005-0.36586 0.103-0.47461 0.2793-0.0875 0.20625-0.43758 0.44133-0.20508 0.70508 0.32125-0.3525 0.99312-0.17758 1.1094-0.70508-0.0875-0.0875-0.14547-0.23438-0.26172-0.23438-0.05125-0.029-0.10958-0.04317-0.16797-0.04492zm-13.971 0.88086c-0.11114-0.017-0.22977-0.01375-0.35352 0.01563-0.175 0.17625-0.32102 0.32359-0.29102 0.55859 0.29125 0.61625 0.93289-0.000781 1.4004 0.29297v-0.29297c-0.15375-0.28592-0.42246-0.52331-0.75586-0.57422zm16.662 0.29688c-0.04966-0.0063-0.10399-0.002-0.16211 0.01172-0.23375 0.1175-0.58531 0.46938-0.35156 0.70312 0.2625-0.14625 0.61281-0.26125 0.78906-0.4375-0.02156-0.15375-0.12639-0.25912-0.27539-0.27734z" transform="matrix(.8 0 0 -.8 54.872 389.53)" fill="#fff"/><path d="m73.612 365.58 0.242 0.085 1.889-2.16 0.736 0.257 0.179 2.88 0.208 0.074-0.181 0.52-1.361-0.473 0.183-0.527 0.319 0.112-0.089-1.645-1.069 1.241 0.298 0.105-0.181 0.516-1.352-0.471 0.179-0.514z" fill="#007a33"/><path d="m21.65 4.0469c-0.14375 0.0825-0.27508 0.17469-0.39258 0.27344-0.05125 0.05875-0.105 0.10656-0.15625 0.16406-0.03625 0.03125-0.06711 0.073984-0.09961 0.11523-0.02625 0.03-0.04898 0.070078-0.08398 0.11133-0.215 0.31375-0.34984 0.67617-0.46484 1.0762-0.02625 0.10625-0.05289 0.2225-0.08789 0.34375-0.0475 0.235-0.09117 0.4818-0.13867 0.7168-0.06375 0.38625-0.14133 0.76383-0.23633 1.1113 0.08-0.32125 0.1743-0.63758 0.2793-0.95508 0.06375-0.1725 0.12586-0.34602 0.19336-0.50977 0.04375-0.08875 0.07883-0.1657 0.11133-0.25195 0.15-0.3075 0.31523-0.59773 0.52148-0.86523 0.0325-0.04375 0.05898-0.071562 0.08398-0.10156 0.0325-0.04125 0.06711-0.084453 0.09961-0.12695 0.05-0.05875 0.105-0.10656 0.15625-0.16406 0.035-0.0325 0.0607-0.0625 0.0957-0.09375 0.17875-0.16 0.40719-0.17727 0.61719-0.13477 0.08125 0.0125 0.15234 0.027188 0.21484 0.054687 0.15625 0.04625 0.29219 0.099453 0.39844 0.12695-0.15125-0.19375-0.31617-0.48398-0.54492-0.67773-0.07375-0.06875-0.14594-0.12875-0.24219-0.15625-0.09875-0.04-0.20547-0.066641-0.32422-0.056641zm-7.2266 1.7559s-0.09828 0.047031-0.14453 0.082031c-0.37875 0.2825-0.57477 0.74703-0.66602 1.2383-0.05125 0.3475-0.05242 0.71609-0.01367 1.0273 0.03625-0.19875 0.0807-0.39906 0.12695-0.60156 0.03875-0.1425 0.06891-0.28453 0.09766-0.42578 0.08375-0.2675 0.34476-0.5275 0.63476-0.5625 0.055-0.0025 0.10875-0.00805 0.15625 0.00195 0.03-0.0075 0.05438-0.0018 0.07813 0.00195 0.07375 0.025 0.15602 0.047266 0.22852 0.072266 0.13375 0.04125 0.25555 0.084297 0.37305 0.1543 0.13875 0.06125 0.27414 0.1493 0.40039 0.24805 0.2175 0.155 0.42258 0.34188 0.61133 0.54688 0.32125 0.3375 0.60453 0.73977 0.83203 1.1348l0.01563-0.10547c-0.29375-0.645-0.615-1.4821-1.125-2.0684-0.166-0.2112-0.369-0.3893-0.603-0.5156-0.108-0.0712-0.233-0.1267-0.373-0.1542-0.11-0.03875-0.22781-0.062969-0.35156-0.074219-0.08875-0.0075-0.17609-0.015-0.27734 0zm4.2051 1.3672c-0.04875 0.0225-0.10766 0.051953-0.16016 0.064453-0.07625 0.04375-0.16305 0.090234-0.24805 0.14648-0.26875 0.195-0.48273 0.47594-0.49023 0.86719 0.195-0.1425 0.4068-0.26664 0.62305-0.36914 0.09-0.035 0.17922-0.07125 0.26172-0.09375 0.245-0.0775 0.49266-0.11008 0.75391-0.080078 0.0575 0.005 0.11438 0.013281 0.17188 0.019531l0.01563-0.10547c-0.07625-0.1575-0.17742-0.25227-0.29492-0.32227-0.1825-0.105-0.40656-0.1107-0.63281-0.12695zm3.0117 3.832c-0.09-0.01-0.19156 0.03133-0.19531 0.14258 0.01875 0.14875 0.18109 0.19164 0.30859 0.18164l-0.002-0.0078c0.045 0.0013 0.10195-0.03359 0.12695-0.08984 0.03375-0.0425 0.03477-0.10891-0.02148-0.16016-0.01125 0.0025-0.01094 0.0016-0.02344-0.0059-0.04-0.025-0.11461-0.0593-0.19336-0.06055zm-0.25781 0.56836c-0.23125 0.085-0.06742 0.49524 0.17383 0.36524 0.01375 0.0075 0.02344 0.0039 0.02344 0.0039 0.10875-0.0062 0.16477-0.13461 0.16602-0.25586-0.0975-0.03-0.16922-0.08742-0.26172-0.10742-0.02375-0.0038-0.06781-0.0034-0.10156-0.0059zm-1.0215 0.06445c-0.08625 0.05625-0.14125 0.13789-0.125 0.24414 0.06875 0.05 0.16883 0.08969 0.26758 0.08594 0.07625 0 0.14617-0.02883 0.20117-0.11133 0.01375-0.15875-0.14211-0.20719-0.28711-0.21094-0.025-0.005-0.04539-0.000312-0.05664-0.0078zm3.4277 0.07617c0.11375 0.135 0.22781 0.27156 0.32031 0.41406 0.14 0.19625 0.26117 0.3975 0.35742 0.59375 0.80375 1.5638 0.77297 3.3992 1.918 4.793l-0.02734-0.10352c-0.75-1.69-0.55969-3.9702-2.0547-5.3027-0.0775-0.07875-0.15891-0.14719-0.25391-0.21094-0.08375-0.06625-0.16477-0.12109-0.25977-0.18359zm-1.5547 0.27344c-0.04375 0.0025-0.0843 0.01266-0.12305 0.03516-0.06875 0.02875-0.10781 0.09422-0.13281 0.16797-0.01125 0.0825 0.0045 0.17898 0.06445 0.24023 0.0375 0.0375 0.12422 0.04867 0.19922 0.04492v0.002c0.0013-0.0012 0.0046-0.002 0.0059-0.002 0.0075 0 0.01594 0.0012 0.02344 0l-0.0039-0.0098c0.1025-0.045 0.26039-0.13469 0.24414-0.27344-0.0075-0.155-0.15234-0.19258-0.27734-0.20508zm-3.5332 0.0332c-0.03375-0.0025-0.06477 0.0061-0.10352 0.02734-0.185 0.09375-0.30242 0.48336 0.08008 0.38086 0.01-0.0038 0.02148-0.0059 0.02148-0.0059 0.12-0.0875 0.17719-0.20477 0.14844-0.35352-0.04375 0.0012-0.13023 0.01367-0.14648-0.04883zm-1.5469 0.02344c-0.03922-0.01141-0.08055-0.0014-0.12305 0.02734-0.0775 0.0425-0.15023 0.14133-0.17773 0.20508l0.179 0.167c0.03375 0.0013 0.0743-0.0098 0.0918-0.02734 0.085-0.05625 0.11438-0.15422 0.14062-0.26172-0.03312-0.06313-0.07016-0.09602-0.10938-0.10742zm3.9219 0.29102c-0.0575-0.005-0.10133-0.0054-0.14258 0.0059-0.25 0.0575-0.30438 0.51672 0.10938 0.44922l0.0098-0.0039c0.125-0.0325 0.26492-0.12586 0.20117-0.28711-0.03625-0.09-0.11398-0.09031-0.17773-0.16406zm-3.3887 0.15821c-0.03125 0.01-0.04836 0.0257-0.06836 0.0332-0.11875 0.05375-0.18398 0.2268-0.14648 0.37305 0.0625 0.10625 0.16641 0.07625 0.25391 0.03125 0.03875-0.0225 0.06992-0.03023 0.10742-0.05273 0.0925-0.11375 0.06352-0.38477-0.14648-0.38477zm0.69336 0.48242c-0.02125 0.0062-0.03172 0.0092-0.04297 0.01172-0.12 0.04375-0.1718 0.18117-0.18555 0.29492l0.24414 0.13476c0.025 0.005 0.04523-0.000625 0.05273-0.01562 0.16-0.065 0.22898-0.2625 0.14648-0.40625l-0.21484-0.01953zm-1.4414 0.20117c-0.09625 0.01375-0.17742 0.08086-0.23242 0.16211-0.08375 0.14625-0.07898 0.33523 0.10352 0.39648 0.03375 0.0025 0.06055 0.01656 0.0918 0.0078 0.0625-0.0175 0.15586-0.04031 0.22461-0.07031 0.10875-0.05125 0.18633-0.12883 0.20508-0.26758-0.03625-0.13375-0.17969-0.22016-0.33594-0.22266-0.01375-0.0063-0.03289-0.0021-0.05664-0.0059zm-1.5684 0.5918c-0.205 0.35625-0.34359 0.70422-0.43359 1.0742-0.4675 1.8638 0.33727 3.8523 0.66602 5.5898 0.285-1.5925-0.35094-3.1135-0.42969-4.6973-0.025-0.595 0.03164-1.2105 0.24414-1.8242 0.02125-0.05 0.03398-0.08672 0.05273-0.13672l-0.08789 0.0039-0.01172-0.0098zm21.309 0.22461-3.5703 3.8301 0.8125 0.75586 0.37305-0.39844 3.0332 2.8301-0.37305 0.39844 0.8125 0.75781 1.9512-2.0938-0.81055-0.75781-0.48633 0.51953-1.0586-0.99023 0.34766-0.375 0.51367 0.47852 0.66406-0.71289-1.7578-1.6387-0.66602 0.71289 0.47852 0.44336-0.35156 0.375-1.2012-1.123 1.2637-1.3535 0.72461 0.67773 0.83984-0.90234-1.5391-1.4336z" transform="matrix(.8 0 0 -.8 54.872 389.53)" fill="#00235d"/></g></g></svg>
