<?xml version="1.0" encoding="UTF-8" standalone="no"?>
<svg width="250px" height="250px" viewBox="0 0 250 250" version="1.1" xmlns="http://www.w3.org/2000/svg" xmlns:xlink="http://www.w3.org/1999/xlink">
    <!-- Generator: Sketch 47.1 (45422) - http://www.bohemiancoding.com/sketch -->
    <title>GATECH</title>
    <desc>Created with Sketch.</desc>
    <defs></defs>
    <g id="Page-1" stroke="none" stroke-width="1" fill="none" fill-rule="evenodd">
        <g id="GATECH" fill-rule="nonzero">
            <g id="Group" transform="translate(0.000000, 47.000000)">
                <path d="M101.110867,88.0446032 L119.625319,88.0446032 L121.796151,76.5312698 L133.398874,76.5312698 C130.254911,97.4396825 108.446782,110.223968 84.2931571,108.354921 C60.1395321,106.485873 37.5329368,92.8792063 37.6327451,69.5285714 C37.7575056,44.6079365 59.3660172,27.7865079 83.4697381,26.7398413 C99.0455293,26.4111251 114.227912,31.6422669 126.287528,41.4928571 C127.460276,42.4896825 126.611905,41.7171429 127.909414,42.8136508 L150.016967,42.8136508 L150.016967,2.24285714 L128.308647,2.24285714 L128.308647,16.5971429 L128.109031,16.5971429 C117.229919,9.12095238 98.8901309,2.66650794 79.2528346,2.74126984 C38.1567391,2.89079365 2.2257266,34.8888889 2.69981635,69.8774603 C3.1739061,106.211746 41.4254631,132.802063 82.1722293,129.487619 C101.38534,127.917619 118.452571,123.406984 130.055294,116.703333 L130.055294,122.634444 L153.235787,122.634444 L153.235787,76.5312698 L164.339468,76.5312698 L164.339468,132.179048 L151.040003,132.179048 L151.040003,154.009524 L208.030581,154.009524 L208.030581,132.303651 L194.756068,132.303651 L194.756068,76.5312698 L226.894363,76.5312698 L228.965386,88.0446032 L247.604599,88.0446032 L247.604599,51.8349206 L101.110867,51.8349206 L101.110867,88.0446032 Z" id="Shape" fill="#8B6F4B"></path>
                <path d="M210.27627,156.102857 L148.819267,156.102857 L148.819267,129.961111 L162.09378,129.961111 L162.09378,78.774127 L155.456523,78.774127 L155.456523,124.777619 L127.784653,124.777619 L127.784653,120.341746 C116.132027,126.198095 100.18764,130.160476 82.3219419,131.605873 C59.3161131,133.474921 36.0607633,125.948889 20.1163766,111.47 C8.00751747,100.94242 0.867396483,85.8305926 0.429175982,69.8026984 C0.229559246,54.0279365 7.11633663,38.228254 19.8169515,25.3442857 C35.5279349,9.49725638 56.8988486,0.532967643 79.2278825,0.423650794 C95.6228147,0.306482679 111.762261,4.48232619 126.038007,12.5350794 L126.038007,0.0747619048 L152.262656,0.0747619048 L152.262656,45.1063492 L127.110947,45.1063492 L126.487145,44.5830159 L125.788486,44.0098413 C125.459838,43.796841 125.15087,43.5549829 124.865259,43.2871429 C113.223443,33.8061144 98.5882681,28.7631237 83.5695465,29.0574603 C62.4600767,29.9546032 39.9782418,44.4833333 39.8534813,69.6033333 C39.8534813,92.3807937 62.9092143,104.492222 84.4678218,106.211746 C107.149273,107.95619 126.487145,96.2434921 130.704048,78.7990476 L123.642606,78.7990476 L121.471774,90.312381 L98.8901309,90.312381 L98.8901309,49.691746 L249.825335,49.691746 L249.825335,90.2625397 L227.118932,90.2625397 L225.022956,78.7492063 L196.976805,78.7492063 L196.976805,129.961111 L210.27627,129.961111 L210.27627,156.102857 Z M153.285691,151.642063 L205.809845,151.642063 L205.809845,134.421905 L192.435524,134.421905 L192.435524,74.2634921 L228.665961,74.2634921 L230.761937,85.7768254 L245.284055,85.7768254 L245.284055,54.127619 L103.356555,54.127619 L103.356555,85.7768254 L117.778865,85.7768254 L120.074457,74.2634921 L136.118652,74.2634921 L135.744371,76.7555556 C132.525551,97.9879365 110.393045,112.491746 84.243253,110.473175 C60.6884781,108.678889 35.4120089,95.0473016 35.5367694,69.4039683 C35.5367694,44.9319048 56.2719578,25.5934921 83.4946902,24.5468254 C99.6178929,24.2182579 115.333173,29.6237876 127.834558,39.798254 L128.433408,40.2966667 L128.832641,40.5957143 L147.920992,40.5957143 L147.920992,4.48571429 L130.554336,4.48571429 L130.554336,20.2355556 L126.861426,18.3665079 C112.750395,9.41441956 96.3434187,4.74004135 79.6271159,4.90936508 L79.2777866,4.90936508 C58.1454586,5.02477023 37.9207615,13.5023403 23.0357713,28.4842857 C11.1835276,40.5209524 4.7458879,55.1742857 4.94550463,69.7777778 C5.3733567,84.5718415 11.9891264,98.5098113 23.1854839,108.205397 C38.1567391,121.861905 60.2143884,128.964286 81.9975647,127.194921 C101.036011,125.649841 117.704008,121.213968 128.982354,114.734603 L132.350886,112.765873 L132.350886,120.366667 L151.040003,120.366667 L151.040003,74.2634921 L166.610109,74.2634921 L166.610109,134.372063 L153.335596,134.372063 L153.285691,151.642063 Z" id="Shape" fill="#00263A"></path>
            </g>
        </g>
    </g>
</svg>