<?xml version="1.0" encoding="UTF-8" standalone="no"?>
<svg width="250px" height="250px" viewBox="0 0 250 250" version="1.1" xmlns="http://www.w3.org/2000/svg" xmlns:xlink="http://www.w3.org/1999/xlink">
    <!-- Generator: Sketch 47.1 (45422) - http://www.bohemiancoding.com/sketch -->
    <title>UGA</title>
    <desc>Created with Sketch.</desc>
    <defs></defs>
    <g id="Page-1" stroke="none" stroke-width="1" fill="none" fill-rule="evenodd">
        <g id="UGA" fill-rule="nonzero">
            <g id="Group" transform="translate(0.000000, 46.000000)">
                <ellipse id="Oval" fill="#DA291C" cx="125" cy="80" rx="125" ry="80"></ellipse>
                <ellipse id="Oval" fill="#FFFFFF" cx="125.065239" cy="80.3032626" rx="119.909205" ry="76.863983"></ellipse>
                <path d="M49.9099595,29.0824126 C76.918888,13.9058645 108.690261,9.06506895 139.352571,11.0275536 C161.729533,12.7283737 183.84554,19.1391569 203.025794,30.914065 C213.398788,37.3902644 223.054154,45.5672839 228.92566,56.557198 L174.190174,56.557198 C161.272861,43.93188 143.984537,35.2969474 125.782867,34.8390343 C112.278403,35.1006989 98.9044168,39.0910844 87.748555,46.5485262 C79.3979684,52.1088994 72.1564441,59.893422 69.4816468,69.7058454 C66.6763716,79.3874364 69.8078416,89.7886052 74.8964803,98.0310408 C83.6385007,111.637601 99.2306116,119.814621 115.083678,121.253776 C126.370018,122.235018 137.852075,121.18836 148.616503,117.655888 C160.359515,113.992583 170.993465,105.35765 175.886387,93.909823 L103.210188,93.909823 L103.210188,72.1262431 L234.666688,72.1262431 C235.971467,71.8645785 235.710512,73.8270632 235.906228,74.6774732 C236.101945,80.3032626 236.232423,86.0598843 234.53621,91.5548414 C230.295678,106.927638 218.617905,119.160459 205.439635,127.599143 C179.539769,144.214847 148.029352,149.77522 117.627998,149.448139 C101.318258,148.793978 84.8128019,146.308164 69.28593,140.551542 C55.324793,135.31825 42.1465235,127.533727 31.5125733,116.93631 C22.9662698,107.843464 15.7899845,96.85355 14.2242495,84.2282319 C13.6370989,77.4903679 13.8980547,70.5562554 16.507613,64.2108883 C22.5748361,48.7072593 35.8835835,37.3248482 49.9099595,29.0824126 Z" id="Shape" fill="#2C2A29"></path>
            </g>
        </g>
    </g>
</svg>