<?xml version="1.0" encoding="UTF-8" standalone="no"?>
<svg width="250px" height="250px" viewBox="0 0 250 250" version="1.1" xmlns="http://www.w3.org/2000/svg" xmlns:xlink="http://www.w3.org/1999/xlink">
    <!-- Generator: Sketch 47.1 (45422) - http://www.bohemiancoding.com/sketch -->
    <title>ILL</title>
    <desc>Created with Sketch.</desc>
    <defs></defs>
    <g id="Page-1" stroke="none" stroke-width="1" fill="none" fill-rule="evenodd">
        <g id="ILL" fill-rule="nonzero">
            <g id="Group" transform="translate(39.000000, 0.000000)">
                <path d="M172.748736,-5.68434189e-14 L0,-5.68434189e-14 L0,67.1283211 L38.3689618,67.1283211 L38.3689618,181.953081 L0,181.953081 L0,249.611362 L172.748736,249.611362 L172.748736,182.483041 L134.379774,182.483041 L134.379774,67.6582815 L172.748736,67.6582815 L172.748736,-5.68434189e-14 Z M163.200699,192.375636 L163.200699,240.248728 L9.63644432,240.248728 L9.63644432,192.375636 L38.4573696,192.375636 C43.7794308,192.375636 48.0938139,188.065206 48.0938139,182.748021 L48.0938139,67.9232617 C48.0938139,62.6060771 43.7794308,58.2956473 38.4573696,58.2956473 L9.63644432,58.2956473 L9.63644432,10.3342284 L163.289107,10.3342284 L163.289107,58.2956473 L134.468182,58.2956473 C129.146121,58.2956473 124.831737,62.6060771 124.831737,67.9232617 L124.831737,182.748021 C125.111639,187.823253 129.292331,191.806742 134.379774,191.845676 L163.200699,192.375636 Z" id="Shape" fill="#13284B"></path>
                <path d="M163.200699,58.5252968 L163.200699,9.53928773 L9.63644432,9.53928773 L9.63644432,58.5252968 L38.4573696,58.5252968 C43.7794308,58.5252968 48.0938139,62.8357266 48.0938139,68.1529112 L48.0938139,181.953081 C48.0938139,187.270265 43.7794308,191.580695 38.4573696,191.580695 L9.63644432,191.580695 L9.63644432,240.478378 L163.289107,240.478378 L163.289107,191.580695 L134.468182,191.580695 C129.146121,191.580695 124.831737,187.270265 124.831737,181.953081 L124.831737,68.1529112 C124.831737,62.8357266 129.146121,58.5252968 134.468182,58.5252968 L163.200699,58.5252968 Z" id="Shape" fill="#E64A37"></path>
            </g>
        </g>
    </g>
</svg>