<?xml version="1.0" encoding="UTF-8" standalone="no"?>
<svg width="250px" height="250px" viewBox="0 0 250 250" version="1.1" xmlns="http://www.w3.org/2000/svg" xmlns:xlink="http://www.w3.org/1999/xlink">
    <!-- Generator: Sketch 47.1 (45422) - http://www.bohemiancoding.com/sketch -->
    <title>IND</title>
    <desc>Created with Sketch.</desc>
    <defs/>
    <g id="Page-1" stroke="none" stroke-width="1" fill="none" fill-rule="evenodd">
        <g id="IND" fill="#931430">
            <polyline id="IU1A" points="158.802083 34.2650463 158.802083 53.0081019 171.758102 53.0081019 171.758102 157.384259 144.33912 157.384259 144.33912 19.9178241 158.913194 19.9178241 158.913194 1.17592593 90.525463 1.17592593 90.525463 19.9178241 105.103009 19.9178241 105.103009 157.384259 77.375 157.384259 77.375 53.0081019 90.3321759 53.0081019 90.3321759 34.2650463 26 34.2650463 26 53.0081019 40.5335648 53.0081019 40.5335648 173.871528 64.1782407 198.00463 105.103009 198.00463 105.103009 225.859954 90.5775463 225.859954 90.5775463 250 158.865741 250 158.865741 225.859954 144.33912 225.859954 144.33912 198.00463 184.956019 198.00463 208.599537 173.871528 208.599537 53.0081019 223.170139 53.0081019 223.170139 34.2650463 158.802083 34.2650463"/>
        </g>
    </g>
<script xmlns=""/></svg>