<?xml version="1.0" encoding="UTF-8"?>
<svg width="250px" height="250px" viewBox="0 0 250 250" version="1.1" xmlns="http://www.w3.org/2000/svg" xmlns:xlink="http://www.w3.org/1999/xlink">
    <!-- Generator: Sketch 52.3 (67297) - http://www.bohemiancoding.com/sketch -->
    <title>IOWA</title>
    <desc>Created with Sketch.</desc>
    <defs>
        <polygon id="path-1" points="0.000130980236 0.0236521933 249.858314 0.0236521933 249.858314 154.489598 0.000130980236 154.489598"></polygon>
        <polygon id="path-3" points="0.164372439 0.111169565 96.7483157 0.111169565 96.7483157 102.717391 0.164372439 102.717391"></polygon>
    </defs>
    <g id="IOWA" stroke="none" stroke-width="1" fill="none" fill-rule="evenodd">
        <g id="Group-25" transform="translate(0.000000, 44.000000)">
            <g id="Group-11" transform="translate(0.000000, 0.563478)">
                <g id="Group-3">
                    <mask id="mask-2" fill="white">
                        <use xlink:href="#path-1"></use>
                    </mask>
                    <g id="Clip-2"></g>
                    <path d="M227.726639,141.894098 C232.380621,108.655337 189.425703,99.6625761 171.528747,110.671533 C181.1476,92.6003152 209.724297,67.6364674 220.919262,63.794837 C248.027576,73.7801413 257.258255,122.398924 227.726639,141.894098 M189.358958,128.16988 C186.681557,136.150728 192.634719,145.17225 206.582026,142.64188 C202.223126,145.920033 196.741276,147.81825 190.870082,147.550011 C177.973126,146.962467 167.881792,136.411337 167.652283,123.64738 C170.748302,123.922076 181.871838,125.883685 189.358958,128.16988 M191.063876,69.7430543 C184.719028,68.4447065 180.936827,63.6668804 175.967857,55.6889674 C172.883548,50.7415109 168.576756,47.9352717 164.687998,47.2819891 C166.825,50.7814239 167.976054,54.9341413 167.77582,59.3369022 C167.241862,71.0543152 157.333197,80.1227935 145.647014,79.589837 C133.950293,79.0557065 124.913993,69.1226413 125.446194,57.4034674 C125.607201,53.8776196 127.536944,49.45725 129.183314,46.5999457 C94.4116511,51.9805761 49.9175059,88.71525 21.7746487,142.764554 C18.5861241,127.095163 24.632377,112.138337 24.632377,112.138337 C21.016452,113.674402 17.6464286,116.788207 13.4163349,122.003315 C13.0375293,110.585837 13.1470141,102.312098 19.766452,89.6802065 C15.3290984,91.5144457 11.9204333,93.8434891 7.54982436,99.3649891 C7.58261124,87.51375 10.8724239,77.5313804 18.6961944,66.1743587 C14.6973653,67.8019891 8.24537471,72.8967717 3.95673302,77.7708587 C3.52757611,51.2862065 32.943267,-0.751597826 122.260597,4.3308587 C156.850761,6.29833696 181.175117,15.5757717 201.689754,35.4700761 C205.561534,39.2260109 209.864813,44.8707717 210.510012,52.5915978 C211.286944,62.1425543 202.976639,72.1812717 191.063876,69.7430543 M220.966101,59.5916413 L219.639403,60.0465326 C217.399941,60.8559457 214.680386,62.26875 211.662822,64.1470109 C213.759426,60.54075 214.780504,56.3492935 214.447951,52.265837 C213.689169,43.1820978 208.632377,36.6921196 204.437998,32.62275 C183.080855,11.9119891 157.771721,2.38275 122.484836,0.375358696 C31.3694965,-4.80922826 -0.468325527,48.580337 0.00532786885,77.8354239 L0.170433255,88.0625543 C2.60895785,85.2915326 5.20263466,82.1929891 7.82617096,79.3955543 C3.07090164,87.2824891 3.07090164,97.7590761 4.37593677,109.066793 C6.65872365,106.450728 8.79221311,103.657402 10.913993,101.49212 C8.40228337,111.610663 9.47663934,122.43238 9.81797424,132.721141 C12.4186768,129.514598 15.0363583,126.166598 17.7406909,122.986467 C15.7424473,135.283793 17.7096604,142.60725 20.1276932,154.489598 C40.5059133,115.353098 75.9672717,64.846663 122.466686,52.0956196 C121.943852,53.7960326 121.574415,55.5510326 121.498302,57.2226848 C120.867155,71.1259239 131.589052,82.9143587 145.467272,83.5476848 C160.732494,84.2432283 172.812705,71.3031848 171.676874,56.4179674 C177.1476,63.6809674 180.217272,71.5679022 190.272892,73.6251848 C193.253571,74.2356196 196.043384,74.2080326 198.597834,73.6944457 C182.575,86.8974457 165.204977,106.275228 163.676288,119.131337 C163.669848,119.13075 163.662237,119.130163 163.655211,119.129576 C163.651112,119.21175 163.650527,119.293924 163.645843,119.376098 C163.640574,119.425989 163.632377,119.477054 163.628279,119.526946 C163.628279,119.526946 163.637061,119.533989 163.639988,119.536337 C162.832026,136.322707 172.228396,150.691989 190.69034,151.507859 C207.766452,152.262098 217.452635,137.778359 217.452635,137.778359 C192.526405,143.403163 191.603103,133.909141 193.104274,129.433598 L194.401112,125.568489 L190.510597,124.379902 C183.493618,122.237511 176.192681,120.664467 168.880621,119.713011 C182.698536,98.8830978 229.121253,114.568924 223.405796,141.241989 L222.597834,150.024033 L229.900527,145.203359 C260.134719,125.245076 255.111885,72.1683587 220.966101,59.5916413" id="Fill-1" fill="#FFD200" mask="url(#mask-2)"></path>
                </g>
                <path d="M153.296897,153.405137 L151.289871,153.405137 L149.442681,149.903941 L148.158138,149.903941 L148.158138,153.405137 L146.312119,153.405137 L146.312119,145.116137 L150.326171,145.116137 C152.233665,145.116137 153.536944,145.457159 153.536944,147.651202 C153.536944,149.180224 152.754742,149.804159 151.289871,149.903941 L153.296897,153.405137 Z M149.481909,143.243746 C146.010597,143.243746 143.42219,145.779398 143.42219,149.36042 C143.42219,152.903289 146.010597,155.437767 149.481909,155.437767 C152.895258,155.437767 155.54397,152.903289 155.54397,149.36042 C155.54397,145.779398 152.895258,143.243746 149.481909,143.243746 Z" id="Fill-4" fill="#FFD200"></path>
                <g id="Group-8" transform="translate(69.672131, 58.695652)">
                    <mask id="mask-4" fill="white">
                        <use xlink:href="#path-3"></use>
                    </mask>
                    <g id="Clip-7"></g>
                    <path d="M79.8100117,98.6335826 C75.376171,98.6335826 71.8632904,95.0725174 71.8632904,90.6650609 C71.8632904,86.2188652 75.376171,82.6560391 79.8100117,82.6560391 C84.2268735,82.6560391 87.7584895,86.2188652 87.7584895,90.6650609 C87.7584895,95.0725174 84.2268735,98.6335826 79.8100117,98.6335826 M26.1056792,98.0571913 C9.31059719,95.0977565 3.53542155,83.5564304 4.16129977,73.301713 C4.8574356,61.8730826 14.5102459,54.1833652 26.934719,49.1155826 C41.6419789,43.1121913 46.5851874,34.4557565 43.640808,28.0737783 C40.698185,21.6994304 31.2760539,18.060887 19.7298009,23.204387 C19.7298009,23.204387 20.7257026,18.8626696 29.4581382,12.4941913 C37.2608314,6.79777826 42.875,5.14549565 42.875,5.14549565 C45.4001756,21.0138652 58.7239461,33.4673217 75.3656323,34.2268435 C80.7292155,34.4721913 87.8287471,33.0511696 92.4552108,31.0678435 C91.7069672,67.6405174 57.8632904,103.647365 26.1056792,98.0571913 M79.8100117,78.8167565 C79.1800351,78.8167565 78.5682084,78.8795609 77.9669204,78.9723 C91.0529859,62.582713 98.1015808,40.9574739 96.5319087,25.0098652 C89.7362412,27.9241043 83.1536885,30.6176478 75.5459602,30.2689957 C57.536007,29.4460826 48.6255855,16.1344957 46.0758197,0.111169565 C46.0758197,0.111169565 40.1425644,1.8063 37.4066159,3.09995217 C34.8228923,4.32199565 31.2520492,6.28360435 27.1326112,9.29058261 C23.2116511,12.1502348 18.5442037,16.1808652 16.4247658,20.7861261 C14.8556792,24.1945826 14.5266393,29.8575391 14.5266393,29.8575391 C20.9815574,26.9826261 35.6724239,20.2455391 40.0541569,29.737213 C41.3410422,32.5270174 40.0705504,39.4759957 25.4452576,45.4459304 C12.7385831,50.6281696 1.06235363,59.1877565 0.216920375,73.059887 C-0.526053864,85.2239739 6.54713115,98.6329957 25.4218384,101.959278 C41.8872951,104.85767 56.4247658,99.1923652 68.0073185,89.3250391 C67.9499415,89.8051696 67.9112998,90.2911696 67.9112998,90.7865609 C67.9112998,97.3692783 73.1800351,102.717626 79.8100117,102.717626 C86.4159836,102.717626 91.7104801,97.3757348 91.7104801,90.7865609 C91.7104801,84.1727348 86.4294496,78.8167565 79.8100117,78.8167565" id="Fill-6" fill="#FFD200" mask="url(#mask-4)"></path>
                </g>
                <path d="M149.945258,146.564511 L148.157787,146.564511 L148.157787,148.657011 L150.365632,148.657011 C151.290105,148.657011 151.811768,148.456272 151.811768,147.407967 C151.811768,146.564511 150.747951,146.564511 149.945258,146.564511" id="Fill-9" fill="#FFD200"></path>
            </g>
            <g id="Group-24" transform="translate(3.512881, 4.085217)" fill="#000000">
                <path d="M146.852635,145.135565 L144.644789,145.135565 L144.644789,143.043065 L146.43226,143.043065 C147.234953,143.043065 148.29877,143.043065 148.29877,143.886522 C148.29877,144.934239 147.777108,145.135565 146.852635,145.135565 M150.02418,144.129522 C150.02418,141.935478 148.720316,141.594457 146.813407,141.594457 L142.799356,141.594457 L142.799356,149.883457 L144.644789,149.883457 L144.644789,146.382261 L145.929918,146.382261 L147.777108,149.883457 L149.784133,149.883457 L147.777108,146.382261 C149.241979,146.282478 150.02418,145.658543 150.02418,144.129522" id="Fill-12"></path>
                <path d="M145.969262,151.915911 C142.497365,151.915911 139.908958,149.381433 139.908958,145.838563 C139.908958,142.257541 142.497365,139.722476 145.969262,139.722476 C149.382611,139.722476 152.031323,142.257541 152.031323,145.838563 C152.031323,149.381433 149.382611,151.915911 145.969262,151.915911 M145.969262,137.830128 C141.535422,137.830128 138.022541,141.392367 138.022541,145.838563 C138.022541,150.24602 141.535422,153.807672 145.969262,153.807672 C150.386124,153.807672 153.91774,150.24602 153.91774,145.838563 C153.91774,141.392367 150.386124,137.830128 145.969262,137.830128" id="Fill-14"></path>
                <path d="M217.40644,60.2733326 C206.211475,64.114963 177.634778,89.0782239 168.015925,107.149441 C185.912881,96.1404848 228.867799,105.133833 224.213817,138.372593 C253.745433,118.87742 244.514754,70.25805 217.40644,60.2733326" id="Fill-16"></path>
                <path d="M206.997014,49.0701522 C206.351815,41.3493261 202.048536,35.7039783 198.177342,31.9480435 C177.662119,12.0543261 153.338349,2.7768913 118.7476,0.808826087 C29.4302693,-4.27363043 0.0151639344,47.7641739 0.443735363,74.249413 C4.73296253,69.3753261 11.1849532,64.2799565 15.1831967,62.652913 C7.36001171,74.0099348 4.06961358,83.9917174 4.03741218,95.8429565 C8.40802108,90.3214565 11.8161007,87.992413 16.2534543,86.1581739 C9.63401639,98.7906522 9.52453162,107.064391 9.90333724,118.48187 C14.1334309,113.266174 17.5040398,110.15237 21.1193794,108.616304 C21.1193794,108.616304 15.0731265,123.573717 18.2622365,139.243109 C46.4045082,85.1938043 90.8986534,48.4591304 125.670902,43.0785 C124.023946,45.9358043 122.094204,50.355587 121.933197,53.8820217 C121.401581,65.6006087 130.437295,75.5336739 142.134016,76.0678043 C153.820199,76.6007609 163.72945,67.5328696 164.262822,55.8154565 C164.463642,51.4121087 163.312588,47.2599783 161.175,43.7605435 C165.063759,44.4132391 169.37055,47.2200652 172.454859,52.1675217 C177.423829,60.1454348 181.20603,64.9232609 187.550878,66.2216087 C199.463642,68.6598261 207.773946,58.6211087 206.997014,49.0701522" id="Fill-18"></path>
                <path d="M187.357143,144.028154 C193.228337,144.296393 198.710773,142.398763 203.069087,139.120611 C189.122365,141.650393 183.168618,132.628872 185.846019,124.648024 C178.358899,122.361828 167.235363,120.40022 164.139344,120.125524 C164.368852,132.88948 174.460187,143.440611 187.357143,144.028154" id="Fill-20"></path>
                <path d="M158.614286,86.2415804 C153.988407,88.2249065 146.888876,89.6465152 141.525293,89.4011674 C124.883607,88.6410587 111.559251,76.1876022 109.034075,60.3192326 C109.034075,60.3192326 103.420492,61.9715152 95.6172131,67.6679283 C86.8847775,74.0364065 85.8894614,78.3787109 85.8894614,78.3787109 C97.4357143,73.2346239 106.857845,76.8737543 109.799883,83.2475152 C112.744262,89.6294935 107.801054,98.2865152 93.0943794,104.28932 C80.6699063,109.357102 71.017096,117.04682 70.3203747,128.47545 C69.6944965,138.730754 75.4696721,150.271493 92.2647541,153.230928 C124.022365,158.821102 157.866628,122.814841 158.614286,86.2415804" id="Fill-22"></path>
            </g>
        </g>
    </g>
</svg>