<?xml version="1.0" encoding="UTF-8" standalone="no"?>
<svg xmlns:rdf="http://www.w3.org/1999/02/22-rdf-syntax-ns#" xmlns="http://www.w3.org/2000/svg" xml:space="preserve" height="77.38" viewBox="0 0 119.39069 77.379625" width="119.39" version="1.1" xmlns:cc="http://creativecommons.org/ns#" xmlns:dc="http://purl.org/dc/elements/1.1/"><g transform="matrix(1.25 0 0 -1.25 -140.37 775.73)"><g transform="matrix(.5 0 0 .5 80.465 295.25)"><path d="m253.16 610.01s-18.994 39.123-94.278 39.123c-69.087 0-91.119-34.286-91.119-34.286l3.7567-5.784c-4.0892-6.4328-6.1854-13.33-6.1854-20.543v-0.0607c0.01554-9.5518 3.8243-18.781 11.017-26.786-0.29245-1.4774-0.70644-3.5716-0.70644-3.5716-0.32836-1.6947-2.419-10.8 9.5422-10.78 0.81832 0.002 1.6729 0.0468 2.5523 0.16946 2.3945 0.003 6.8735 0.009 7.658 0.0104 12.565-6.5045 27.549-10.381 41.071-12.22 3.1127-9.7081 11.588-7.8942 12.881-1.0823 0.6146-0.0312 1.2523-0.0599 1.8593-0.08 3.756-8.752 12.345-4.6366 13.817-3.7096 3.9842-4.0256 8.9883-1.1395 10.68 4.3036 18.068 1.6843 34.325 6.1115 47.187 12.861 3.4898 0.062 8.9656 0.55865 10.846 6.8598 10.516 8.0318 16.902 17.937 18.467 28.712 0.915 6.2976 0.34701 14.843-4.0767 23.31 1.4101 0.996 5.0304 3.5536 5.0304 3.5536" fill="#fff"/><path d="m244.24 607.33 5.067 3.5792s-19.256 35.26-90.419 35.26c-59.856 0-82.577-25.71-87.45-31.543l3.6127-5.5626c-4.4517-6.3552-6.7685-13.362-6.7571-20.599 0.01485-9.2749 3.9973-18.285 11.253-25.893l-0.99855-5.0462c-0.32146-1.6413-2.0575-7.2538 6.6404-7.2392 1.7316 0.003 3.1248 0.15595 4.5297 0.77386l0.3477-0.60335 6.0214 0.01c11.174-5.9019 24.863-10.047 40.709-12.139-0.00034 0.0007-0.00069 0.0007-0.002 0.0007 0.70195-0.35315 1.4222-0.43875 1.9443-0.39993 0.14157-0.42592 1.0424-3.4479 1.3514-3.9324 2.0983-3.2958 3.8223-2.6789 4.7448-1.9407 1.4616 0.99913 2.1659 3.2923 1.4364 5.3027 0 0 4.7814-0.34551 6.8549-0.29734 1.2375-3.1239 2.7039-4.8068 3.8858-5.3883-0.16988 1.3041-0.36841 3.1381-0.47234 5.2448 0.69712-0.01 4.3851-0.005 4.9496 0.002-0.0235-1.7137-0.12154-3.4334-0.29142-5.153 2.4404 0.44117 3.7342 2.9665 4.7341 4.989 0.00069 0.002 0.001 0.007 0.002 0.009-0.0628-0.33166-0.0984-0.68203-0.0984-1.0449 0.004-2.646 2.0095-4.2086 3.228-4.2065 1.2427 0.002 2.2119 0.94645 3.2156 2.534 0.30833 0.48587 0.59112 1.4469 0.9181 2.5597 0.0867 0.29388 0.17437 0.59262 0.26345 0.87679 19.178 1.5595 35.87 6.168 48.708 13.046h-0.0359c4.6882 0.044 7.9756 0.60751 9.0177 5.6433 23.261 17.18 20.747 38.84 13.09 51.157m-78.302-70.547c0.002 0.0177 0.006 0.0336 0.009 0.0489 0.007 0.0308 0.0131 0.061 0.02 0.0911-0.0107-0.045-0.02-0.0925-0.029-0.14001"/><path d="m74.363 82.248c-6.0178 1.6851-13.279 7.8945-13.279 7.8945h4.6016c3.6798-4.7284 8.6777-7.8945 8.6777-7.8945zm81.148 0s4.9916 3.1662 8.6719 7.8945h4.5996s-7.2588-6.2094-13.271-7.8945zm-67.957 1.7383c-4.8167 2.1712-8.5078 6.1855-8.5078 6.1855h3.6719c1.1783-2.8504 4.8359-6.1855 4.8359-6.1855zm54.771 0s3.6555 3.3351 4.8398 6.1855h3.668s-3.6912-4.0144-8.5078-6.1855zm-63.229 1.2246c-4.0769 1.6903-6.8281 4.9609-6.8281 4.9609h2.2441c1.3242-2.4528 4.584-4.9609 4.584-4.9609zm71.672 0s3.2598 2.5082 4.584 4.9609h2.2461s-2.7536-3.2706-6.8301-4.9609z" transform="matrix(.8 0 0 -.8 65.338 649.13)" fill="#939598"/><path d="m142.91 73.139c-0.38411 0.0042-0.5918 0.01367-0.5918 0.01367 13.244 2.4004 20.143 7.3516 20.143 7.3516-1.8313-1.8376-4.5078-3.8164-4.5078-3.8164 2.9621 0.28158 7.0449 1.6914 7.0449 1.6914-8.1342-5.0705-19.399-5.2697-22.088-5.2402zm-63.551 1.2832c-8.2397 0.35652-14.154 4.0273-14.154 4.0273 3.802-1.1294 5.8438-1.2695 5.8438-1.2695l-2.041 2.1191c5.2837-3.4599 10.352-4.877 10.352-4.877z" transform="matrix(.8 0 0 -.8 65.338 649.13)" fill="#bcbec0"/><path d="m109.57 85.029c-0.1394 1.2697-0.91406 1.6211-0.91406 1.6211-2.2512 0.98985-2.1875 3.5215-2.1875 3.5215h7.4648l-4.3633-5.1426zm11.023 0-4.3633 5.1426h7.4648s0.0633-2.5316-2.1875-3.5215c0 0-0.77423-0.35139-0.91406-1.6211z" transform="matrix(.8 0 0 -.8 65.338 649.13)" fill="#6d6e71"/><path d="m116.93 7.4434c-73.818 0-103.58 34.739-104.59 35.93l4.1348 6.3789c-6.224 7.952-9.4716 16.839-9.4574 26.008 0.0155 10.097 3.9884 19.834 11.527 28.35l1.1992-6.0527c1.0591-5.4613 3.4133-7.1482 6.9023-7.7109-4.9215-7.2699-4.9423-13.705-4.6699-16.76-3.0337-1.307-5.3262-2.9277-5.3262-2.9277s2.6972-0.69399 6.166-1.5859c2.6108-9.1205 22.923-39.867 94.193-39.867s92.908 30.92 94.424 39.934c2.7484 0.69615 4.4707 1.3809 4.4707 1.3809-0.0203 0.01475-1.4791 1.0527-3.7812 2.1738 0.35002 2.9995 0.94045 9.3215-4.8633 17.652 3.8995 1.1922 4.2532 4.5334 3.5859 7.8105l-1.3809 6.9512-1.6894 0.004c1.309 2.0456 0.90664 4.1637 0.58984 5.5352 24.247-19.979 21.945-43.866 10.398-59.701l5.8555-4.1328c-1.82-2.506-27.79-39.368-107.7-39.368zm7.0801 3.4687-2.043 14.744-2.8867 0.0059 2.043-14.746 2.8867-0.0039zm-8.7266 0.16992-3.8711 14.746-3.2109 0.0059 0.23047-14.74 2.7363-0.0039-0.73828 9.8047h0.12109l1.998-9.8086 2.7344-0.0039zm-12.592 0.37695-0.70117 14.869-2.6699 0.24805-1.041-7.1602-0.11914 0.01172-0.33789 7.2871-2.4844 0.23242 0.70117-14.869 2.6875-0.25 1.002 7.4902 0.11914-0.01172 0.37695-7.6191 2.4668-0.22852zm28.527 0.01172 2.8789 0.20312-2.5859 12.191 1.7227 0.12305-0.49219 2.3652-4.6172-0.32617 3.0938-14.557zm10.613 0.83398 2.8613 0.38086-3.3301 12.01 1.7109 0.22656-0.63476 2.334-4.5898-0.61328 3.9824-14.338zm-53.686 1.043c1.1467-0.04268 1.74 0.22155 1.875 1.3438 0.04313 0.36085 0.05031 0.83605 0.03906 1.459l-0.18555 8.8906c-0.022 1.1008-0.01349 1.8862-0.47266 2.5078-0.48858 0.66192-1.399 0.82631-2.8906 1.0078-0.56065 0.068-1.047 0.11436-1.4609 0.11523-1.0414 0.0012-1.6206-0.28151-1.7324-1.209-0.04613-0.37819-0.07776-0.923-0.05664-1.6191l0.16602-8.8887c0.0255-1.0826 0.03548-1.8709 0.44726-2.4492 0.49936-0.71954 1.4454-0.85386 2.9375-1.0332 0.50864-0.06195 0.95176-0.11077 1.334-0.125zm64.205 0.57812 4.5625 0.79297-0.74219 2.2852-1.7168-0.29883-0.94336 2.9492 1.7188 0.29883-0.74609 2.3027-1.6992-0.29492-1.3887 4.3281 1.7012 0.29492-0.72852 2.3047-4.5625-0.79297 4.5449-14.17zm-76.822 1.666c0.8111-0.0088 1.2737 0.29809 1.4766 1.2422 0.08588 0.40764 0.10181 0.88532 0.14063 1.3965l0.1582 2.2129-2.7891 0.60156-0.15625-2.1191c-0.0088-0.20318-0.02734-0.29102-0.02734-0.29102-0.06387-0.30106-0.20776-0.40049-0.49219-0.33984-0.33579 0.0715-0.39416 0.36156-0.36524 0.82031l0.10742 1.4082c-0.0025 0.07325 0.0098 0.20104 0.04297 0.36133 0.05225 0.24779 0.19093 0.40373 0.60742 0.55664l1.8379 0.66211c0.79285 0.27509 1.2778 0.8205 1.4453 1.6016 0.04963 0.23002 0.06052 0.44944 0.07227 0.66992l0.19336 2.7793c0.06737 1.0453 0.16164 1.8233-0.19141 2.457-0.40182 0.73512-1.3073 0.98716-2.8105 1.3125-0.7704 0.16635-1.3866 0.28039-1.873 0.28125-0.81141 0-1.2628-0.31382-1.4609-1.2344-0.04875-0.23132-0.13026-0.69624-0.17774-1.4102l-0.20703-3 2.8418-0.61524 0.20117 2.9102c0 0.07488 0.01867 0.16474 0.04492 0.28906 0.06475 0.30108 0.20862 0.39983 0.49219 0.33789 0.3345-0.071 0.38046-0.34227 0.34766-0.81836l-0.15625-2.2109c-0.01-0.127-0.015-0.238-0.034-0.327-0.056-0.266-0.125-0.417-0.6-0.594l-2.0117-0.75391c-0.7061-0.27378-1.1561-0.82773-1.3301-1.6426-0.05875-0.26641-0.07863-0.52541-0.09375-0.76367l-0.12695-1.7344c-0.20285-2.7413 0.2656-3.16 3.0391-3.7578 0.75843-0.1631 1.3708-0.28181 1.8574-0.28711zm11.287 0.31836c-0.03238 0-0.06709 0.0021-0.10547 0.0059-0.37118 0.04412-0.40915 0.32314-0.42383 0.7832l-0.16992 8.7051c-0.0012 0.1278 0.008 0.21849 0.01953 0.30859 0.03713 0.30628 0.15279 0.42051 0.42383 0.38672 0.38931-0.04675 0.44558-0.30998 0.45508-0.80469l0.17188-8.7051c0.01337-0.18454 0.0012-0.27564 0-0.29297-0.03275-0.26902-0.13932-0.38672-0.37109-0.38672zm85.041 2.3633c0.46048 0.03405 1.0159 0.14354 1.707 0.30469 2.0126 0.46871 2.956 0.78218 2.6094 2.2832-0.0941 0.40808-0.28314 0.84901-0.46484 1.3281l-0.79492 2.0703-2.7793-0.64648 0.75781-1.9863c0.0785-0.18626 0.0977-0.27539 0.0977-0.27539 0.0695-0.3002-0.0168-0.4513-0.30078-0.51758-0.33233-0.078-0.51028 0.1601-0.67774 0.58594l-0.5 1.3203c-0.0327 0.06675-0.077 0.18672-0.11328 0.3457-0.0587 0.24779 0.00025 0.44636 0.31445 0.76172l1.3809 1.3848c0.59907 0.58655 0.80737 1.2867 0.62696 2.0664-0.0547 0.2296-0.13848 0.43485-0.21875 0.64062l-1 2.597c-0.38326 0.97469-0.6281 1.7172-1.2168 2.1387-0.30298 0.22222-0.65672 0.31402-1.0879 0.31445-0.5326 0.000863-1.1856-0.13383-2.0117-0.32617-2.0466-0.47825-2.9497-0.82031-2.6113-2.2871 0.0531-0.23046 0.17615-0.6853 0.43554-1.3516l1.0879-2.8047 2.8301 0.66016-1.0508 2.7188c-0.0324 0.068-0.0532 0.1567-0.082 0.2793-0.069 0.30064 0.0176 0.45129 0.30078 0.51758 0.33362 0.07712 0.491-0.14776 0.66406-0.5918l0.79492-2.0684c0.0457-0.12038 0.0852-0.22326 0.10547-0.3125 0.0613-0.26512 0.0646-0.43126-0.29101-0.79297l-1.502-1.543c-0.52137-0.5506-0.69294-1.244-0.5039-2.0566 0.0621-0.26599 0.15195-0.50432 0.23828-0.72656l0.62109-1.627c0.73416-1.925 1.2572-2.5045 2.6387-2.4023zm-109.08 0.26758-0.25195 7.0605 3.2148 7.4805-2.7598 0.91406-2.5254-6.6016-0.11523 0.03906 1.2637 7.0176-2.6289 0.87109-2.6367-14.648 2.627-0.87109 1.0527 5.8828 0.11328-0.03711-0.07813-6.2051 2.7246-0.90234zm119.72 3.1152 5.498 2.1309-1.1934 2.1465-1.4023-0.54492-6.0293 10.857-2.6914-1.0449 6.0254-10.857-1.4004-0.54297 1.1934-2.1445zm-133.86 2.344c0.54603 0.01603 0.92078 0.29844 1.1895 1.002 0.12775 0.33919 0.84766 3.4258 0.84766 3.4258l-2.6953 1.0371-0.44336-1.9297c-0.04875-0.17545-0.06344-0.26588-0.07031-0.2832-0.10875-0.28851-0.26852-0.36437-0.55469-0.25391-0.34959 0.13515-0.3191 0.41426-0.2207 0.86133l1.9414 8.4883c0.03025 0.12475 0.06825 0.22647 0.09375 0.29492 0.11 0.28808 0.25035 0.36938 0.50586 0.27148 0.36686-0.14166 0.34924-0.4258 0.24609-0.89062l-0.72266-3.1426 2.7109-1.043 0.72461 3.2402c0.25034 1.0882 0.43329 1.8525 0.14844 2.5469-0.31205 0.76112-1.1559 1.1443-2.5586 1.6836-0.91111 0.35045-1.6272 0.58355-2.1758 0.58398-0.56582 0.000863-0.9525-0.24533-1.1895-0.86523-0.13595-0.35479-0.29708-0.87761-0.44727-1.5586l-1.9902-8.6621c-0.24386-1.0726-0.40467-1.8276-0.16211-2.4844 0.30945-0.81918 1.1816-1.1749 2.6016-1.7207 0.95729-0.36735 1.6747-0.61759 2.2207-0.60156zm146.26 3.584 3.0879 1.6602-7.1816 12.861-2.4082-1.2969 1.5488-2.4609-1.0684-0.57617-1.9258 2.2617-2.3945-1.2891 10.342-11.16zm-160.7 2.6992 7.9707 12.385-2.2676 1.5293-1.4453-2.5234-1.0059 0.67773 1.0898 2.7637-2.2559 1.5234-4.9902-14.395 2.9043-1.9609zm159.95 1.1621-3.7305 4.4414 0.83008 0.44531 3.0059-4.8301-0.10547-0.05664zm10.328 1.9453 4.8047 3.4277-1.6816 1.7832-1.2246-0.87305-8.5098 9.0293-2.3535-1.6777 8.5098-9.0312-1.2246-0.87305 1.6797-1.7852zm-170.03 1.2539-0.09961 0.06641 2.168 5.3848 0.7793-0.52539-2.8477-4.9258zm76.434 3.2695c8.9734 1.099 5.5492 10.219 4.0312 12.428 0.51231 0.21962 0.91953 0.69594 1.1992 1.3613 2.0993-4.3493 2.4417-5.8167 2.5371-8.6797 0.0743 0.24259 0.64034 4.6179-2.1504 9.2773 1.502 1.0522 1.2362 3.2418 0.58789 5.293 0.4247-0.8664 0.99319-1.7006 1.7891-2.5176 0.50281-0.51854 1.3131-1.8137 1.957-3.4746 2.0548-5.2911 1.914-12.535-9.9512-13.688zm-86.871 0.20508 5.8984 10.34c1.3453 2.3527 1.2306 2.9034-1.1035 4.7246-0.93528 0.72734-1.6057 1.1749-2.1797 1.1758-0.37894 0.000438-0.71588-0.19464-1.0547-0.63477-0.15581-0.20144-0.45386-0.61168-0.81641-1.248l-1.5566-2.7402 2.1602-1.6816 1.5137 2.6562c0.01942 0.05287 0.07233 0.14909 0.16211 0.26562 0.18775 0.24303 0.34831 0.25528 0.58008 0.07813 0.30946-0.24346 0.19732-0.50121-0.02539-0.90234l-5.8594-10.256 2.2812-1.7773zm98.797 0.93359c-0.96381-0.01969-2.2056 0.06656-3.7148 0.39258l0.91992 0.52344s2.083-0.872 5.2324-0.55664c0 0-0.83116-0.32656-2.4375-0.35938zm-8.3145 2.1387c-4.786 3.0077-3.9061 8.474-2.6855 11.656 0.17566-0.28678 0.34265-0.55515 0.49414-0.79688 0.0591-0.90018 0.59295-1.3214 0.91406-1.5254 2.0009-4.1712 2.3551-7.6077 1.2773-9.334zm-18.127 0.183c6.9673 1.8818 6.027 5.9108 4.8867 8.1777l0.77734 1.666c2.3863-3.7467 1.457-5.7559 1.457-5.7559 1.3336 2.1695-0.0678 4.9075-1.1191 6.4805l1.3594 2.9141c3.259-3.6358 5.4052-9.1556-0.69336-11.965-3-1.377-6.677-1.518-6.677-1.518zm118.39 0.47656 3.1953 3.3633-1.9512 1.3926-1.2031-1.2637-2.5059 1.8047 1.2031 1.2656-1.9648 1.4062-1.1914-1.2539-3.6816 2.6465 1.1914 1.2539-1.9531 1.416-3.1953-3.3633 12.057-8.668zm-78.35 0.63477s-3.6972 0.15482-6.7012 1.5566c-3.0458 1.4239-5.4562 4.1707-2.6504 9.5488 0 0 0.0119 0.01228 0.0312 0.03516l1.3477-1.9609-0.8711 2.5449c0.44887 0.55796 1.1274 1.4262 1.7441 2.3086 0.32543-0.28851 2.2695-1.7637 2.2695-1.7637-0.82781-0.98336-4.1315-5.1164-2.3184-8.1094 0 0-1.2356 2.7157 2.8633 7.7031l1.2168-0.9082c-1.8158-2.0651-6.1243-8.4274 3.0684-10.955zm-62.73 7.082c8.6752 1.5777 9.4798 9.0966 9.9023 10.482 0.13984 1.4144 0.94085 2.5695 2.0781 3.5117 0.66811-0.0082 1.3061 0.000734 1.9121 0.02148-1.0574-0.5311-2.4231-1.5965-2.3281-3.0508 0.11826-1.819-2.3398-6.5664-2.3398-6.5664 0.7471 0.46395 3.2719 3.914 3.082 6.2832-0.13639 1.6964 1.4906 2.8417 2.4746 3.375 2.3328 0.13646 4.1527 0.46962 5.4531 0.80664-4.88-2.389-4.912-4.592-4.912-4.592-2.966-9.023-13.37-10.026-15.318-10.272zm27.396 0.32812c-1.0061 1.8363-3.1944 3.9384-3.4258 4.291l1.1367 1.2734c0.54382-0.84516 2.3941-2.9912 2.8887-3.7051l-0.59961-1.8594zm-1.6289 0.50977c-8.8198 0.44879-10.162 3.6776-9.0547 5.873 0.66208-2.9098 3.7534-3.6588 7.1738-3.7246 0.61459-0.50685 1.8809-2.1484 1.8809-2.1484zm59.826 0.30078s-3.0495 0.16858-6.4453 1.5098c-3.4416 1.3572-7.3183 3.9475-8.9277 8.9414 0 0-0.009 0.90046-1.2754 2.1836 0.89125 0.02209 1.8374 0.10512 2.8379 0.26367l0.66406 0.10547c0.51144-0.57355 0.87914-1.2913 0.80664-2.1465-0.20026-2.3995 2.3276-5.9048 3.0781-6.377 0 0-2.4552 4.816-2.3262 6.6602 0.0535 0.77629-0.30253 1.4453-0.80664 1.9824l0.28321 0.04687c0.65775-0.53458 1.3254-1.0652 2-1.5859 0.42037-1.3126 0.8086-9.8516 10.111-11.584zm-52.291 0.46289c0.0518 0.55579-2.2871 3.7734-2.2871 3.7734 2.0635 0.93398 1.7189 3.026 1.1621 4.4746 0.15926 0.34222 1.2033 2.6072 2.0371 4.7637 0.4808-0.24606 1.048-0.44445 1.5625-0.67188-0.0417-0.39249-0.0508-0.64453-0.0508-0.64453-1.8024-1.8835 0.22851-4.9707 0.22851-4.9707 1.1122-6.1003-2.6523-6.7246-2.6523-6.7246zm7.2969 0.42383c-0.31215-0.01386-0.59031 0.18984-0.63476 0.2793-0.53389 1.0765 0.77877 1.6736 0.72265 3.7988 1.2098-1.6128 0.10454-2.7051 0.75196-3.0586-0.18084-0.77521-0.52769-1.0057-0.83985-1.0195zm19.357 0.06836c0.79242 1.106 1.8223 2.1465 1.8223 2.1465 1.2482-0.03037 3.7137 0.08592 5.3965 1.3027l1.4316-0.54688c-0.64999-0.90582-2.0148-1.8127-4.7188-2.3906-1.0384-0.19494-2.5173-0.39953-3.9316-0.51172zm-55.291 0.44531c-5.5051 0.0082-8.7863 0.73942-10.691 1.4512 2.486-0.27335 5.0107-0.12422 7.4902 0.28516 3.6457-0.01516 5.8027 1.2539 5.8027 1.2539-0.33751-1.2615-2.6016-2.9902-2.6016-2.9902zm47.424 0.32617c-1.666 0.09963-3.8934 3.5416-2.416 7.2207 0.5326-1.1298 3.332-5.4395 3.332-5.4395-0.50108-0.77672-0.93932-1.5356-0.91601-1.7812zm-23.834 0.13086c-0.70221 0.95476-2.3996 2.745-2.7617 3.3281 0 0 1.9786 2.2162 2.459 2.8145 0.18904-0.42974 0.96091-2.1573 1.3809-2.8027l-1.0781-3.3398zm13.709 0.64258c-0.73028 0.28504 0.94206 1.1314-1.3359 3.8125-0.64006 0.75679 0.18394 1.158 0.2832 1.7168 0.265 1.4937 0.62299 0.67279 1.6152 2.2852-0.33492-1.7514-1.1661-1.9153-0.64649-2.9922 0.32932-0.68489 0.79234-2.5128 0.79493-2.5137 0.10062-0.68575 0.13456-1.9382-0.71094-2.3086zm38.945 0.08398s-2.2734 1.7596-2.6074 3.0371c0 0 2.1669-1.2916 5.8359-1.2891 1.527-0.25948 3.0707-0.41753 4.6133-0.44141 0.34743-0.15422 0.69071-0.30343 1.0312-0.44336-1.9927-0.48561-4.8415-0.87078-8.873-0.86328zm-21.174 0.23242-0.80469 1.4004c0.123 0.14121 0.25204 0.28239 0.38282 0.42578 0 0 0.81218 0.9196 1.5273 2.2266 0.33104-0.15422 0.66905-0.29865 1.0156-0.43164l0.49609-0.18945c-0.51361-0.98942-1.2034-2.1511-1.8262-2.6445-0.16359-0.12996-0.44962-0.4046-0.79102-0.78711zm-63.869 0.37109c-0.41147 0.000774-0.82203 0.0095-1.2246 0.0293 0.5723 0.2179 1.1537 0.4547 1.748 0.71289 1.101-0.33182 2.1293-0.54211 3.0801-0.66211-1.12-0.01856-2.3691-0.0824-3.6035-0.08008zm43.156 0.10938c-0.64697 1.0167-1.1502 1.882-1.7812 3.3691 0.39966-0.52806 1.3042-0.98851 1.9883-0.99024 0.46614-1.3252-0.17078-2.2823-0.20703-2.3789zm62.416 0.9375c-5.6277-0.05963-11.146 1.8374-15.934 4.3652-5.3216 2.808-9.6756 6.3638-12.434 8.9023 0.0225 0.0025 0.0462 0.0053 0.0684 0.0078 2.59 0.35219 5.724 0.99833 9.0215 2.168 2.0656-1.3169 4.0932-2.8819 6.1191-4.4492 4.297-3.3213 8.5862-6.6544 12.998-7.5234 8.9035-1.7532 14.533 7.0918 14.533 7.0918l-3.8008 0.37109 2.3027 3.5 6.4844 2.1016c8.0118 4.6751 17.079-0.60253 16.971-0.54102l-20.012-3.125-1.9961-1.2031 4.2695 0.16211-1.4512-1.3613c-6.06-8.961-14.74-10.32-14.74-10.32-0.80655-0.09222-1.6121-0.13992-2.416-0.14844zm-77.936 0.01367c-0.73372 1.2935-1.2849 2.4773-1.4727 3.5352 0 0 1.3079 0.72818 1.5625 0.89453 0.07813-0.99895 0.45123-1.9897 0.88672-2.8418l-0.993-1.589zm30.082 0.13281s-1.3717 4.0328-1.7109 5.9531c0.30083-0.47565 0.63927-0.97819 1.0156-1.4863-0.22961-1.2485-0.0286-2.5973 1.5117-3.3047 0 0-0.37143-0.51188-0.81641-1.1621zm-69.1 0.02539c-0.97862-0.0037-1.9615 0.05123-2.9473 0.17383 0 0-7.3702 1.1785-13.234 8.3926-0.49979 0.61514-0.98659 1.2722-1.457 1.9727l-1.4453 1.3672 3.8223-0.08984 0.44727-0.08789-1.9961 1.209-20 3.1914c0.84248 0.48518 4.7373 2.5644 9.4668 2.5566 2.3837-0.0025 4.9801-0.53592 7.5059-2.0703l6.4785-2.123 2.2891-3.5059-3.8027-0.35938c9.2816-11.715 16.848-9.0193 33.332 4.5566 2.8063-0.78538 6.063-1.4009 9.7734-1.6699-0.08613-0.07957-13.553-13.458-28.232-13.514zm84.434 0-1.0703 0.5957c0.44283 0.48561 0.77919 1.0922 0.95313 1.8477 0 0 0.67521-1.1507 0.11719-2.4434zm-10.328 0.40039-0.72656 1.2676c-0.24904 0.43232-0.5992 1.0613-0.99024 1.8008 0.0579 0.13126 0.10633 0.25261 0.14258 0.36524 0.0725 0.22526 0.20089 0.4919 0.34375 0.79688 0.88349-0.69571 1.8709-1.355 2.959-1.9121-0.37852-0.76372-0.93308-1.549-1.7285-2.3184zm-12.08 0.111c-0.86751 1.3-1.6019 2.1896-1.7793 2.4023-0.74969 0.89022-0.98881 2.2902-0.88867 3.0098 0.8878 0.30886 1.7916 1.063 2.041 2.4414 0.52268 0.17631 1.0298 0.55816 1.2754 1.2305 0.12263 0.0645 0.23909 0.12465 0.3457 0.17969 0.4044-1.1025 0.90479-2.4018 1.4551-3.6875-0.54814-2.2076-1.725-4.4013-2.4492-5.5762zm-3.8476 1.3301c-0.57318 1.6895-0.52538 1.7242-0.25391 2.543 0.0755-0.86336 0.1568-1.713 0.25391-2.543zm-17.82 0.21094c-0.38888 1.0384-0.46847 2.0133-0.41797 2.8203 0.93959 0.70654 2.3077 1.8731 3.8105 3.6016-0.0129-0.03462-0.0257-0.07142-0.0391-0.10742-1.1144-1.6332-3.6348-3.8477-3.6348-3.8477 0.88521 0.31926 1.6791 0.69128 2.3809 1.0781-0.31851-0.60171-2.0996-3.5449-2.0996-3.5449zm14.338 0.57422c-0.59133-0.01783-1.209 0.53378-1.209 1.3477-0.0273 1.0184 1.7571 1.7734 1.584 3.4316 0.001 1.2554-0.7131 2.4763 0.29296 3.4883 0.93917 0.9448 1.1338 2.2716 1.6875 2.5801-0.18817-2.1604 2.3548-6.1286-0.2832-8.1309-1.0009-0.75982-0.56766-0.93845-1.1758-2.002-0.19568-0.488-0.54169-0.70414-0.89648-0.71484zm16.613 0.41992s-3.0231 3.4048-5.084 7.6172c0 0-0.96533-2.5327 0.1836-6.1387 0 0-1.6802 3.6327-2.5352 6.1855 0.38455 0.3496 0.76943 0.73561 1.1367 1.1562 0.085-0.40288 0.12695-0.67578 0.12695-0.67578 0.12038 0.3392 0.19208 0.72382 0.23438 1.1094 0.20673 0.26121 0.40446 0.53157 0.58789 0.81445 0.43721-1.4672 0.69336-3.2344 0.69336-3.2344 0.26285 0.31061 0.40732 1.2575 0.48242 2.0273 0.14675-0.30411 0.23828-0.50586 0.23828-0.50586 0.11612 0.28591 0.0128 1.0128-0.0977 1.5859 1.8982-0.51636 2.9648-2.1152 2.9648-2.1152-0.1843 1.7874-1.3198 3.3252-2.1562 4.0664 0.52136 0.6316 0.79525 1.4881 0.8164 2.5508l0.0137 1.1484-1.1113-0.2793c-0.0384-0.0088-0.1717 0.95044-0.25586 1.5898 1.4761 1.2602 4.9042 3.7862 10.094 5.2578 0 0 7.5427 0.93484 17.531 9.8418 0.31032-0.0555 0.63205-0.10114 0.96094-0.13672-3.9634-3.995-9.6868-8.6844-17.244-12.293l-0.73828-0.62891c0.15797-0.01512 0.31708-0.02606 0.47461-0.03906 9.0425-0.7295 20.018 1.876 30.254 8.7617 0.91715 0.61514 1.825 1.2889 2.7266 1.9824 0.013 0.01 0.0279 0.01959 0.0391 0.02734 0.11175 0.08662 0.22502 0.17313 0.33594 0.25976 0.15279 0.11788 0.23483 0.18035 0.23828 0.18555 0 0-10.5-12.97-34.396-14.605v-0.30469l-1.0215-0.31055c15.759-5.1217 30.979 4.3711 30.979 4.3711s-10.11-9.5236-30.684-8.1191l-1.1953 0.69336c3.6924-5.5224 8.8809-5.373 8.8809-5.373s-3.1733-0.45047-7.1621 1.3828c-3.9871 1.832-4.1289 2.7452-7.4453 3.207 0 0 0.75802-5.9874 4.8867-9.4941 0 0-3.4576 1.932-6.9121 6.9609 0 0-0.43723-2.6391 3.1602-8.5293zm-29.322 0.16602c3.6151 5.8776 3.1875 8.5176 3.1875 8.5176-3.4692-5.0173-6.9336-6.9395-6.9336-6.9395 4.1391 3.4937 4.918 9.4805 4.918 9.4805-3.3182-0.45139-3.4619-1.3666-7.4551-3.1855-3.9936-1.8203-7.166-1.3574-7.166-1.3574 0.000001 0 5.186-0.1689 8.8965 5.3418l-1.1953-0.6875c-20.578-1.3368-30.658 8.2168-30.658 8.2168s15.188-9.5408 30.965-4.4707l-1.0234 0.31445 0.002 0.30469c-23.89 1.7129-34.35 14.717-34.35 14.717 0.0048-0.0035 0.08463-0.06983 0.23828-0.18945 0.11136-0.08706 0.22261-0.17419 0.33398-0.25781 0.01338-0.01037 0.02569-0.0193 0.03906-0.0293 0.89989-0.69572 1.8061-1.3727 2.7207-1.9922 10.214-6.9177 21.182-9.5579 30.227-8.8574 0.1584 0.01175 0.31535 0.02431 0.47461 0.03906l-0.73633 0.63086h-0.002c-7.5452 3.6319-13.252 8.3395-17.203 12.346 0.33018 0.0364 0.65105 0.07977 0.96094 0.13477 9.9622-8.939 17.498-9.8965 17.498-9.8965 5.1852-1.4876 8.6064-4.0265 10.078-5.291-0.0863-0.63982-0.22197-1.5986-0.26172-1.5898l-1.1113 0.28516c0.11093-1.1337-0.16892-2.4967 0.82031-3.7031-0.49116-0.43492-1.9278-1.7876-2.1699-4.0605 0 0 1.0728 1.5952 2.9727 2.1055-0.11225-0.57269-0.21681-1.2985-0.10157-1.584 0.00001 0 0.0913 0.20067 0.24024 0.50391 0.0725-0.77066 0.21177-1.715 0.47461-2.0273 0 0 0.26246 1.7658 0.70312 3.2305 0.18387-0.28244 0.37964-0.55389 0.58594-0.81641 0.0406-0.38425 0.11222-0.76888 0.23047-1.1094 0 0 0.0422 0.27292 0.12891 0.67578 0.36557-0.42106 0.74997-0.81035 1.1328-1.1621-0.86278-2.5498-2.5547-6.1758-2.5547-6.1758 1.1606 3.6007 0.20313 6.1387 0.20313 6.1387-2.076-4.2055-5.1094-7.5996-5.1094-7.5996zm36.553 0.06055-0.48829 0.27148c-0.0134 0.0087-0.38687 0.21982-0.95312 0.66992 0.39319 1.2428 0.42728 2.6842-0.27149 3.8828 0.62842-0.26425 1.3178-0.52194 2.0645-0.75586 0.27364-1.1462 0.24433-2.4342-0.26367-3.8672 0 0-0.0314-0.07212-0.0879-0.20117zm-26.332 0.4043c-0.55503 1.7094-0.84904 3.5936-0.43945 5.3398 0.0588-0.039 0.11537-0.07563 0.16797-0.10938 0.20802-0.75332 0.6307-1.7158 1.4512-2.2305-0.16704-0.13862-0.26407-0.29152-0.29687-0.44531h0.002c-0.7635-0.76416-0.94567-1.8283-0.89258-2.4668 0.002-0.02988 0.005-0.05889 0.008-0.08789zm24.254 1.082c-0.50325 0.45529-1.0792 1.0468-1.6641 1.7871 0.49461-0.24172 1.0238-0.47284 1.5918-0.68164 0 0-2.1838 1.9449-3.3867 3.5508-0.17352 0.35522-0.33833 0.72883-0.49414 1.1191 0.48771-0.37559 1.6895-1.2323 3.5195-2.084 0.14587-0.35002 0.71198-1.8655 0.43359-3.6914zm-39.006 0.4082c0.02938 0.27941 0.07742 0.55259 0.14258 0.81641 0.39621 0.12262 0.77744 0.25134 1.1426 0.38477-0.29-0.328-1.274-1.201-1.274-1.201zm85.725 0.1543c-0.87226-0.03337-1.6391 0.19486-2.2559 0.64062 0.11175 0.12438 0.22526 0.25721 0.3418 0.39453 1.0988 0.67925 3.5121 1.9407 6.3965 2.5723-0.99441-1.4274-3.8432-3.2158-4.4824-3.6074zm-129.95 0.211c-0.63618 0.39291-3.4826 2.1889-4.4727 3.6211 0 0 0.29952 0.02017 0.18945 0.01367 2.8948-0.59522 5.1373-1.8952 6.1973-2.6035-0.0785 0.094 0.15644-0.19073 0.34375-0.40039-0.61935-0.44402-1.3864-0.66681-2.2578-0.63086zm125.93 0.99609c-0.42254 0.07625-0.79108 0.32312-1.0742 0.65625 0.0229 0.01563 0.0451 0.03128 0.0684 0.05078 0.30773 0.2348 0.78594 0.71969 1.1191 1.6641 0 0 1.9892 3.4592 6.2832 3.8027-2.6979-0.89759-5.5255-4.1728-6.2441-5.8809-0.044-0.104-0.0967-0.20027-0.15234-0.29297zm-80.268 0.002c0.70308 2.704 1.7872 4.8797 2.8887 6.5605 0.12042 0.0325 0.24356 0.06425 0.37305 0.09375-0.37895-1.5643-1.2871-4.4043-3.2617-6.6543zm-41.637 0.19336v0.002c-0.11175 0.32576-2.3177 4.6449-6.377 6.1953l0.39844 0.01563c4.1386-0.59349 5.873-3.8398 5.873-3.8398 0.35521-1.0206 0.87473-1.5126 1.1738-1.7266-0.28343-0.32797-0.64897-0.57131-1.0684-0.64648zm61.506 0.35352c0.46396 1.8723-1.4627 4.2753-0.88476 6.248 0.24212 0.04159 0.46597 0.17483 0.58984 0.26758 0.29438-0.21618 0.31554-0.7175 0.31641-0.71875-0.066-0.58741 0.20616-1.2539 0.63086-1.8379 1.4044-1.524 0.95665-3.3075-0.65235-3.959zm-4.2402 0.67383c-0.72595 0.09962-1.2949 1.2435-1.3359 2.3555-0.0621 1.7033 2.3256 2.5206 2.1953 5.1172 0.95298-0.88372 1.2963-1.3018 0.37696-2.8457-1.0691-1.7952-1.9791-1.4915-1.2363-4.627zm24.207 0.16992c-0.89125 0.5129-1.8332 1.1946-2.5898 2.0762 0.55848-0.28548 1.2345-0.58602 2.0273-0.85547 0.224-0.38425 0.41489-0.79054 0.5625-1.2207zm37.666 0.08398c-0.27476-0.0035-0.50602 0.069-0.70703 0.19336 0.26198 0.43146 0.54924 1.1525 0.31446 1.6836 0 0-0.5721 3.3213 5.4004 4.627-2.7618-1.5803-3.5986-2.494-4.2754-5.3535-0.0993-0.42368-0.25582-0.79101-0.44141-1.1211-0.10186-0.01875-0.19943-0.02814-0.29102-0.0293zm-116.37 0.1875c-0.09136 0.0014-0.18753 0.01219-0.28906 0.03125-1.2024 2.1352 0.02832 3.7665-4.6973 6.4883l0.17774-0.02344c5.9677-1.3238 5.2051-4.6211 5.2051-4.6211-0.23479-0.5298 0.07615-1.2539 0.31055-1.6836-0.20069-0.12379-0.43296-0.19573-0.70703-0.19141zm60.896 1.3164c-0.0397 0.2911-0.17409 0.85407-0.80078 1.5957-1.0717 1.1982-0.17833 1.6048-1.0938 3.0586 0.0531 0.08101 0.15247 0.23578 0.26172 0.4043 0.18083-0.26425 0.46065-0.4972 0.48828-0.51758 2.3682-2.665 2.1454-4.2057 1.1445-4.541zm52.062 0.04687c-1.767 1.177-2.9062 1.2656-2.9062 1.2656-0.0811 0.80141 0.35099 2.7243 4.3398 4.0117-2.7118-1.5548-1.478-3.1408-1.4336-5.2773zm-109.54 0.177c-0.12516 0.65456 1.2531 3.7755-1.2852 5.209 3.9837-1.3 4.2786-3.1493 4.1953-3.9512 0 0-1.1056-0.05011-2.9102-1.2578zm49.039 0.29297c-1.1092 0.85859-2.0746 1.8056-2.8398 2.6426-0.0142 1.2 0.0929 2.6001 0.58789 3.3105 0 0 0.56031-1.5258 1.291-2.3008 0 0-0.20298 4.6283 0.90235 6.5625 0 0-1.613-0.59189-1.9824-2.002l-0.85352-0.45898s-0.58903-0.04974-1.2559-0.27539c0.80235 0.91405 3.0898 2.2559 3.0898 2.2559l-2.3066 2.7871c-1.3885 0.27032-2.4102-0.77734-2.4102-0.77734-0.40959 1.0496 0.78125 1.9297 0.78125 1.9297-0.38455 1.2693 0.16441 1.5137 0.65039 1.5137 0.3086-0.0025 0.5918-0.09961 0.5918-0.09961l4.65-5.603c0.19465-0.53066 0.41778-1.0071 0.65429-1.4395 0 0-1.657-1.0247-0.0527-2.5664 0 0-3.3906-2.6331-1.4863-5.4805zm0.16016 0.58984s-1.3204 1.8518 1.7871 4.834c0.0998-0.06288 0.2478-0.15331 0.32031-0.19922 0.24946-2.6767-2.0297-2.889-2.1074-4.6348zm9.3106 0.14844c-0.025 0.24519-0.0806 0.52427-0.17774 0.8457-0.79932 2.6399-2.1872 2.4943-2.3301 3.5938 0 0-0.21972 0.36659 0.0742 0.51172 0.29176 0.14642 2.1204 1.2433 0.29688 2.7109l-0.28516-0.01562c0.27838 0.6121 0.4082 1.043 0.4082 1.043l4.8516 5.6328c1.5089-0.44144 1.0449-1.3438 1.0449-1.3438 1.2162-0.66105 0.89648-2.1504 0.89648-2.1504-0.46052 1.002-2.2617 1.0273-2.2617 1.0273l-2.582-2.9238c-0.47648 0.36475-0.92383 0.53125-0.92383 0.53125 1.1006-1.9386 0.88086-6.5664 0.88086-6.5664 0.73285 0.77326 1.2988 2.2969 1.2988 2.2969 0.52698-0.7594 0.60723-2.296 0.57227-3.541-0.56972-0.61211-1.1668-1.1611-1.7637-1.6523zm24.514 0.10352c-1.297 0.32922-2.5987 0.76606-3.6328 1.3379 0 0 0.71406-0.04522 1.9648-0.07422 0.12344-0.04469 0.24576-0.08859 0.36914-0.13672 0.4234-0.37255 0.85644-0.74834 1.2988-1.127zm-55.979 0.25391c0.78034 0.8768 1.6154 1.6201 2.4492 2.25 0.42124 0.0048 0.84574 0.01239 1.2773 0.02539-0.86795-0.762-2.1206-1.6572-3.7266-2.2754zm36.24 0.17773s-0.45138 2.9557-1.4531 3.9434c0 0-0.0667 1.5035-0.80469 1.957 0 0 2.9777-0.84064 2.2578-5.9004zm-20.098 0.0332c-0.70135 5.0619 2.2754 5.8926 2.2754 5.8926-0.73974-0.45139-0.81055-1.9551-0.81055-1.9551-1.0052-0.9851-1.4648-3.9375-1.4648-3.9375zm17.35 0.48633s0.53153 3.0554-0.69336 4.5391c0 0 0.00027 0.82938-0.2207 1.25 0 0 3.0151-0.87878 0.91406-5.7891zm-14.598 0.02344c-2.0859 4.9164 0.92969 5.7852 0.92969 5.7852-0.22276-0.41934-0.22461-1.248-0.22461-1.248-1.2296-1.4807-0.70508-4.5371-0.70508-4.5371zm20.086 0.39844s-1.2818 1.0505-2.2188 1.2637c0 0-0.095 1.1597-0.32422 1.8086 0 0 2.1796-1.4751 2.543-3.0723zm-25.576 0.04102c0.36859 1.5955 2.5527 3.0664 2.5527 3.0664-0.23001-0.64936-0.32812-1.8105-0.32812-1.8105-0.93916-0.21098-2.2246-1.2559-2.2246-1.2559zm82.838 1.1855 0.0566 0.1582 1.2617 3.6094s-0.16638 5.4229 6.6016 6.4297c-0.98016-1.1592-4.7793-5.2129-4.7793-5.2129l-0.57617-3.1289-2.5644-1.8555zm-137.02 0.22266-2.5605 1.8613-0.56445 3.1328s-3.7852 4.0654-4.7637 5.2285c6.7658-1.0288 6.582-6.4512 6.582-6.4512l1.252-3.6133 0.05469-0.1582zm67.961 0.21094c-0.34959 0-0.70427 0.20229-0.79102 0.44922-0.20933 0.59868-1.8477 1.7402-1.8477 1.7402s-0.10918-0.23387-0.14453-0.31055c-0.16832 0.065-0.60742 0.23438-0.60742 0.23438s-0.0924-0.04189-0.12695-0.05664c-0.69488 0.6121-0.54322 1.2095 0.0312 1.7168 1.4295-2.237 2.656-2.6788 2.7207-2.6875 0.55115 0.14296 1.8753 0.72518 2.8144 2.9492 0.96982-0.98812-0.24781-1.6589-0.2832-1.6836-0.26975-0.09188-0.50109-0.1704-0.50195-0.64648-0.00086-0.36475-0.18444-0.62291-0.25781-0.66406-0.16358-0.09275-0.26953-0.41431-0.30665-0.53906-0.15278-0.43538-0.5037-0.50195-0.69921-0.50195zm7.3496 0.12109c0.11476 0.48649 0.16602 0.80859 0.16602 0.80859 0.066-0.07237 0.1323-0.16296 0.19531-0.26562-0.117-0.18541-0.23787-0.36578-0.36133-0.54297zm-16.723 0.23633c-0.10963 0.14339-0.20487 0.26909-0.28516 0.37695 0.0552 0.08575 0.10971 0.16114 0.16797 0.22266 0 0 0.0368-0.23096 0.11719-0.59961zm13.805 0.27539s0.27316 3.1101-0.58399 5.0586c0 0 2.5409-2.0141 0.58399-5.0586zm-10.838 0.01758c-1.947 3.0501 0.60156 5.0566 0.60156 5.0566-0.86321-1.9459-0.60156-5.0566-0.60156-5.0566zm68.756 1.0508-2.0488 6.709s-0.30599 6.1598 6.7969 6.3105l-5.498-6.5098 0.75-6.5098zm-52.916 0.07617c-0.142 0.08662-0.22656 0.12891-0.22656 0.12891-0.37204 1.7142-3.0859 1.9492-3.0859 1.9492l-0.85352 0.46289c-0.142 0.5467-0.46962 0.97066-0.81836 1.2852 0.89083-0.18368 2.3672-1.3535 2.3672-1.3535 1.2162-1.4183 3.2598-0.98242 3.2598-0.98242-0.0185-0.67665-0.29471-1.1549-0.64258-1.4902zm-20.797 0.05664c-0.50453 0.60084-0.51367 1.3711-0.51367 1.3711 0.12949 0 0.79782-0.24945 1.6602-0.0078-0.45361-0.28721-0.83578-0.69162-0.96094-1.2578 0 0-0.069-0.03484-0.18555-0.10547zm-49.881 0.06641 0.77148 6.5098-5.4766 6.5254c7.102-0.17501 6.7773-6.3301 6.7773-6.3301l-2.0723-6.7051zm117.59 0.68555-5.0312 5.1367c0.0561 0.04587 0.80078 0.66992 0.80078 0.66992l4.2305-5.8066zm-111.58 0.17969 3.3945 4.6289c0.1899-0.15205 0.41599-0.3285 0.67969-0.52344l-4.0742-4.1055zm23.982 1.5195c-0.53453 0.0034-1.0893 0.01817-1.6621 0.04492 0.28098 0.081 0.56281 0.15376 0.84766 0.21875l3.0703 0.25391c0.657-0.115 1.319-0.221 1.994-0.318-1.216-0.125-2.641-0.211-4.244-0.201zm33.826 2.1641 3.4258 7.4023c-0.0523 0.09137-0.12428 0.16938-0.22656 0.21875-0.29867 3.4435 4.0552 1.5212 5.416 8.4922 0.12038 0.09963 0.37616 0.34551 0.38867 0.35938l0.38672-1.7285s0.33406-4.2496-3.666-9.2266c0 0-0.32639 0.2463-0.75196 0.4707l-4.98-5.989zm-7.0625 0.01172-4.9434 5.9883c-0.42168-0.21962-0.72266-0.45312-0.72266-0.45312-3.5926 4.5005-3.6637 8.4007-3.6426 9.1211l1.1524-0.002c1.6276-5.2226 5.3079-3.8505 5.0234-7.0215-0.13682-0.06975-0.23829-0.28516-0.23829-0.28516l3.3711-7.3477zm14.424 0.32031c0.47385 0.77022 0.51696 1.4378 0.44922 1.9316 1.4601 1.0288 3.9248 2.5284 6.8105 3.3086 3.3289 0.90018 8.2295 4.9754 12.305 9.2441 0.40096 0.10224 0.77519 0.23142 1.127 0.38476-2.8037-3.612-7.2058-8.3405-12.279-10.393 0 0-5.6585-2.0455-8.4121-4.4766zm-22.029 0.70312c-1.7972 1.4044-5.0238 3.4941-9.5957 4.8066 0 0-0.31309 0.05228-0.65234 0.12891-3.8784 2.185-7.2404 5.7362-9.625 8.7266l0.87109-0.002c4.0018-4.1682 8.7368-8.0861 11.982-8.9746 2.944-0.80661 5.4461-2.3603 6.8906-3.3965-0.0673-0.47001-0.1361-0.50108 0.12891-1.2891zm22.377 1.666c-0.10787 0.32144-0.30447 0.68688-0.65234 1.0391 0.0436 0.18758 0.0826 0.62888 0.0801 0.72852 1.5792 1.0154 4.0247 2.6874 5.1797 4 0 0 2.6188 1.0624 6 5.8926 0.4139-0.0062 0.83688-0.0085 1.2715-0.0098-1.7519-3.1177-4.2036-6.4577-7.5644-9.1816v0.002s-2.4249-1.2118-4.3145-2.4707zm-22.398 0.0625c-1.9003 1.2875-4.4023 2.5469-4.4023 2.5469-3.414 2.7829-5.8822 6.2023-7.6289 9.375l1.252-0.002c3.42-4.9787 6.0918-6.0781 6.0918-6.0781 1.1735-1.3394 3.6855-3.0581 5.2578-4.0723-0.002-0.04157 0.0325-0.5659 0.0762-0.75781-0.33968-0.34265-0.53636-0.69894-0.64648-1.0117zm35.986 0.10938c1.4446 0.40548 6.6406 4.0996 6.6406 4.0996 5.2711 1.5279 10.405 4.9518 13.635 7.418 0.32154 0 0.63474-0.000547 0.93946 0.002-5.7053-5.5826-15.637-11.174-15.637-11.174-1.2491-0.40375-5.5781-0.3457-5.5781-0.3457zm-50.467 0.38086c-1.4826 0.05155-3.3933 0.18658-5.5996 0.50586-2.4403 1.1016-9.8173 4.7684-15.152 10.961h1.1855c3.0933-2.3886 8.016-5.7323 13.139-7.375 1.9422-1.4096 4.0833-2.7939 6.4277-4.0918zm77.754 1.334c-0.31161 0-0.79476 0.01919-1.2285 0.03906l1.0527 1.9473 0.85352 0.3418 0.21093 0.0039-0.88867-2.332zm-101.18 0.16406-0.88281 2.334c0.43635-0.308 0.89464-0.61822 1.3789-0.93359l0.736-1.366c-0.43462-0.01863-0.91865-0.03516-1.2324-0.03516zm59.693 0.05078c-0.0267 0.14209-0.0677 0.2876-0.12891 0.42969-0.025 0.06153 0.42216 0.58307 1.0117 1.4629 2.0117 1.563 4.7762 4.2465 6.1875 7.9785 0.52612-0.09399 1.077-0.16311 1.6523-0.20898-1.9245-3.5531-4.7394-7.2938-8.7226-9.6621zm-21.176 0.06836c-4.0497 2.39-6.8895 6.2018-8.8184 9.8086l1.7422-0.0039c1.4385-3.7242 4.2223-6.3968 6.2129-7.9355 0.58567-0.88849 1.0127-1.4122 0.98632-1.4746-0.0565-0.13082-0.0959-0.26241-0.12304-0.39453zm27.254 0.80469c2.0695 1.5188 5.6367 6.4844 5.6367 6.4844 0.92924 0.50078 1.8893 1.2839 2.8164 2.1914 0.42987 0.003 0.84229 0.0095 1.2402 0.01953-6.2176-8.9074-9.6934-8.6953-9.6934-8.6953zm-33.41 0.141s-3.5132-0.1994-9.7637 8.873l1.1719-0.002c0.97628-0.9786 1.9938-1.8331 2.9766-2.3672 0 0 3.5492-4.9765 5.6152-6.5039zm16.715 0.0059-2.8223 1.0801 2.2402-0.0039 0.58594 2.0527 0.67968-1.957 1.9473-0.09961-2.6309-1.0723zm12.156 1.9004c0.8727 1.4911 1.8 3.5577 1.9766 5.9316 0.39622 0.50424 0.81161 1.0752 1.2324 1.7207 0.54036-0.25039 1.1211-0.44147 1.7383-0.58398-0.99527-2.4004-2.5433-4.9357-4.9473-7.0684zm-24.195 0.02148c-2.3773 2.0837-3.9254 4.5625-4.9336 6.9277v0.002l2.2012-0.0039c0.15495-0.21834 0.3077-0.4229 0.45703-0.61914 0.34184-2.5615 1.3643-4.7528 2.2754-6.3066zm29.156 2.3066c1.2646 1.4282 2.276 2.917 3.084 4.3574 0.27795-0.01425 0.56088-0.02445 0.84961-0.0332-2.1118-2.9098-3.9336-4.3242-3.9336-4.3242zm-34.658 0.63086c-1.3239 1.0677-2.5615 2.551-3.5957 3.998l1.1387-0.002c1.3272-2.5463 2.457-3.9961 2.457-3.9961zm31.703 3.7461c0.003 0.56142 0.001 0.99524-0.16406 1.791 0.01-0.0075 0.39626-0.29732 0.58789-0.41992-0.12733-0.60388-0.19767-1.0011-0.42383-1.3711zm71.193 2.6992v0.002c-7.537 0.0125-8.9886 0.58871-9.9805 5.6523l-0.62891 3.207c-0.35218 1.7666-0.38015 3.6582 2.3692 4.9219l4.8144 2.1543c1.4178 0.62943 1.2867 1.1228 1.1387 1.9238l-0.8125 4.082c-0.17997 0.87938-0.4502 1.3498-1.3574 1.3516-1.1429 0-1.2174-0.82436-1.0469-1.3477l1.0801-5.3652-7.7168 0.01-1.127 5.5371c-0.26975 1.3174-0.31422 2.1927-0.3125 2.6328 0.004 2.7998 2.5477 3.033 8.1309 3.0234 8.3277-0.0112 8.8569-0.79648 9.8867-5.6855l1.0371-5.1309c0.33665-1.5548 0.25193-3.4772-2.6856-4.7227l-4.4062-1.916c-1.1468-0.4986-1.4784-1.0635-1.1836-1.9199l0.49414-2.5996c0.18127-0.84472 0.49686-1.3518 1.4062-1.3535 1.0876-0.0012 1.2283 0.41888 1 1.3477l-0.76563 3.918 7.582-0.0117 0.81054-4.0859c0.17912-0.94524 0.40559-1.822 0.4043-2.5996-0.005-2.8682-2.6374-3.0345-8.1309-3.0254zm-61.539 0.0332c-3.9936 0.0062-6.5364 0.04313-8.0781 1.2617-1.2693 0.97946-1.5409 2.432-1.9453 4.4238l-3.2422 16.375c-0.23867 1.1363-0.33648 2.0608-0.35547 2.75 0.62669-0.69918 1.3579-1.0144 1.4883-1.0664 0.0509-0.39941 0.12694-0.86148 0.23829-1.3926 0.002-0.0169 3.2734-16.52 3.2734-16.52 0.38585-1.903 0.60536-2.8458 1.3965-3.457 1.1597-0.91405 3.5021-0.96182 7.2285-0.96875 2.5387-0.005 5.698-0.0092 6.4551 0.74805 0.0613 0.06063 0.22484 0.22487 0.22656 0.80664v0.01953c-1.2094-0.45486-3.7894-0.4555-5.9336-0.45117-3.726 0.0037-6.0707 0.05584-7.2266 0.9707-0.79113 0.61038-1.0132 1.5533-1.4004 3.4551 0 0-3.2874 16.604-3.2969 16.645 1.3967-0.0602 2.2739 0.46144 2.7832 0.95312 0.92276 0.88892 1.2333 2.1819 1.3184 3.2207 0.48469 0.01 1.9147 0.01 2.1016 0.01 0.21451-0.26078 0.46918-0.47647 0.74023-0.65234-0.1584-0.47393-0.25092-0.93619-0.26172-1.3828-0.37117-0.0624-0.82697-0.21839-1.2012-0.5918-0.25507-0.25731-0.42717-0.56819-0.51953-0.93164 0.60339 0.44316 1.3179 0.44141 1.5742 0.44141 0.0975 0 0.19213-0.002 0.2832-0.01 0.0457-0.16635 0.10353-0.33192 0.17383-0.49609 0.5313-1.2286 1.6343-1.9747 2.4375-2.375 0.46656-2.3341 3.0225-15.146 3.123-15.652 0.0794-0.3132 0.11914-0.59681 0.11914-0.83594-0.00086-0.23566-0.029-0.44023-0.0781-0.62305 0.0785 0.05763 0.15319 0.12259 0.22657 0.19531 0.27363 0.27205 0.60136 0.76539 0.60351 1.5508 0 0.24042-0.0412 0.5236-0.12109 0.83594-0.0871 0.43406-1.9862 9.9489-2.8145 14.105 3.2258-1.1696 4.7092 1.4118 4.8965 1.7969 0.0755-0.35436 3.5156-17.5 3.5156-17.5 0.22443-1.1497 0.35785-2.0247 0.35743-2.6992-0.005-2.8024-2.6383-2.9668-8.0859-2.959zm20.727 0.04102c-4.0406 0.0062-6.5375 0.0434-8.0801 1.2598-1.224 0.98249-1.5377 2.4002-1.9434 4.4258l-3.2422 16.373c-0.62022 2.9293-0.72909 4.7288 2.0254 5.3574 1.3738-0.98899 3.6614-1.4434 4.8945 0.36524 8.9169 0.0567 9.822-0.84209 10.783-5.752l1.2617-6.1074-7.7168 0.01-1.1719 5.9434c-0.17913 0.87852-0.40388 1.383-1.4492 1.3848-1.1726 0.004-1.0839-0.70551-0.95703-1.3809l3.1992-16.037c0.17953-0.843 0.3613-1.3494 1.3613-1.3516 0.81702-0.0025 1.133 0.23395 1.1348 0.80664 0 0.03288-0.0441 0.20312-0.0898 0.54102l-0.72071 3.6445 7.6719-0.01 0.76562-3.8145c0.22574-1.115 0.36068-2.0271 0.35938-2.7012-0.004-2.8024-2.6387-2.965-8.0859-2.9551v-0.002zm-41.471 0.06641c-7.1167 0.01125-8.9058 0.09449-10.025 5.6836l-3.2441 16.375c-1.016 4.8527-0.3297 5.7378 7.7266 5.7266 7.8275-0.0156 8.9571-0.54428 9.9805-5.7539l1.2598-6.1113-7.7148 0.0117-1.1719 5.9414c-0.183 0.87722-0.40756 1.3861-1.4512 1.3887-1.0622 0.001-1.0578-0.84912-0.95508-1.3828l3.1953-16.039c0.18213-0.84344 0.3639-1.3479 1.3613-1.3496 1.1196-0.0012 1.1397 0.61599 1.0469 1.3477l-0.7207 3.6465 7.6719-0.0137 0.76563-3.8144c0.22486-1.1133 0.3611-2.0262 0.35937-2.7012-0.004-2.7989-2.6385-2.9646-8.084-2.9551zm71.324 0.12109-7.625 0.01367-4.9297 11.008h-0.32031l2.207-11.002-7.3555 0.0098-5.4473 27.412 7.3535-0.0117 2.6113-13.133h0.31836l0.92968 13.127 7.7168-0.0117-1.9316-15.086 6.4727-12.326zm-156.78 0.03125v0.002c-7.6376 0.01425-9.0154 0.52169-10.025 5.7188l-3.235 16.376c-0.27148 1.3832-0.36024 2.3598-0.35938 2.832 0.0026 2.0269 1.958 2.8674 5.9062 2.8613 2.906-0.005 4.4951-0.34591 6.6699-2.0371l1.0469 1.8223 3.3594-0.006 2.793-14.078-8.6719 0.0137-0.90039 4.4219h1.0449l-0.81055 3.9824c-0.08028 0.62251-0.33847 1.3516-1.4062 1.3516-1.3216 0.004-1-0.67923-1-1.3476l3.1973-16.037c0.1817-0.84344 0.31599-1.3822 1.3613-1.3848 1.3695-0.0012 1.1951 0.82052 1.0449 1.3828l-0.7207 3.6445 7.6719-0.0117 0.76563-3.8145c0.81961-4.4386 1.0466-5.7077-7.7266-5.6934zm73.312 0.05078-12.303 0.01953-4.2168 21.225c0.27579 0.097 0.77015 0.29752 1.3027 0.6289l4.0645-20.447 9.4355-0.01367-0.22852 1.125-8.459 0.01367-3.9688 19.963c1.1303 1.0418 1.5594 2.9128 1.0781 4.373 0.23264 0.14988 0.45312 0.3307 0.64648 0.54296l2.207-0.004c0.05481-0.6056 0.18781-1.2912 0.47266-1.9258h-0.17188l0.22656-1.127h0.69727c0.17306-0.17717 2.074-1.8183 4.459-0.55468l0.16407-0.85743-4.584 0.006 1.666-8.373 4.584-0.008 0.90234-4.457-4.6328 0.01 1.127-5.7051 4.6308-0.0098 0.90039-4.4238zm-15.277 0.02539-9.3965 0.01562-5.3789 13.881h-0.31836l0.213-13.874-9.398 0.014-5.4473 27.414 6.9453-0.01 3.1523-15.801h0.27148l-0.38281 15.795 3.2559-0.006c0.34355-0.44489 0.96263-0.8453 1.418-0.97266l5.5156-14.832 0.31836-0.002-3.0488 15.273c0.27019 0.13602 0.54918 0.30944 0.80469 0.52734 0 0 5.8611-0.0467 5.8594-0.0644-3.07-2.5459-0.08848-6.2794 1.4316-6.4375l4.1934-20.924zm-32.105 0.05078-9.3066 0.01758-10.215 27.42 7.2188-0.0117 1.6699-5.4023 3.2227-0.006-0.53516 5.4023 7.2637-0.0117 0.68164-27.408zm141.81 0.99c4.9988-0.01125 6.7067 0.1761 6.7266 1.584-1.2094-0.46611-3.8158-0.46311-5.9785-0.46094-7.4395 0.01475-7.8225 0.52393-8.6055 4.5176 0 0-0.63 3.2083-0.63086 3.2188-0.14415 0.70957-0.23038 1.0951-0.0879 1.6816-0.90851-0.74597-0.90706-1.6322-0.66406-2.8027 0.002-0.0134 0.63281-3.2207 0.63281-3.2207 0.78078-3.9962 1.1679-4.5059 8.6074-4.5176zm-40.812 0.07227c2.5387-0.0062 5.6992-0.0099 6.457 0.74609 0.0604 0.06275 0.22375 0.22702 0.22461 0.80664v0.01953c-1.2072-0.45529-3.7883-0.45182-5.9316-0.44922-3.8391 0.0075-6.0667 0.05488-7.207 0.95508-0.7812 0.62598-1.0413 1.5783-1.4453 3.5996 0 0-3.2418 16.371-3.2461 16.391-0.22703 1.083-0.33864 2.3851-0.31836 2.3574-1.2732-0.13343-0.65628-2.2647-0.42969-3.4824 0.15236-0.82133 3.2461-16.391 3.2461-16.391 0.40528-2.0204 0.6626-2.9741 1.4434-3.5996 1.1407-0.89889 3.3684-0.94749 7.207-0.95312zm-41.473 0.06445c5.3769-0.0062 6.6788 0.25575 6.6836 1.5527l-0.002 0.01953c-1.2094-0.45356-3.7894-0.4505-5.9336-0.44531-7.5133 0.01-7.8362 0.49195-8.6484 4.5527 0 0-3.2435 16.373-3.2461 16.389-0.22961 1.0839-0.30565 1.8906-0.32422 2.4277-0.69445-0.24692-1.1008-0.35942-0.42578-3.5508 0.002-0.0148 3.2461-16.391 3.2461-16.391 0.84551-4.2323 1.2838-4.543 8.6504-4.5547zm69 0.12695-0.58985 1.125-3.0566 0.0059-3.7832 8.4512-1.2832 0.002 4.3184-9.5762 4.3945-0.0078zm-10.057 0.01367-0.22657 1.127-3.5156 0.0059-4.668 23.475-0.97266 0.002 4.8926-24.6 4.4902-0.0098zm-144.39 0.01367c6.2664-0.0075 6.6827 0.50663 6.6836 1.5879-1.2331-0.46742-3.8977-0.46549-5.9336-0.46289-7.6074 0.01125-7.8785 0.60659-8.6523 4.5898l-3.243 16.37c-0.2171 1.1116-0.26404 2.3878-0.33008 2.3965-0.80623-0.29025-0.95295-0.99941-0.41992-3.5215-0.01726 0.0264 3.2422-16.371 3.2422-16.371 0.79544-4.0994 1.0853-4.5736 8.6504-4.5879zm56.322 0.08008-0.22656 1.127-5.75 0.0098-5.3789 13.879-1.2051 0.002 5.834-15.006 6.7266-0.01172zm-14.6 0.02344-0.01758 1.125-6.0586 0.0098-4.668 23.475-0.97266 0.002 4.8926-24.602 6.8242-0.0098zm-17.23 0.0293-0.0293 1.123-6.1191 0.0098-8.748 23.482h-1.1699l9.168-24.607 6.8984-0.0078zm80.664 2.6914c0.81745 0 1.1354 0.23331 1.1367 0.80859 0 0.03338 0.0004 0.2016-0.0899 0.53906l-3.21 16.038c-0.17998 0.91145-0.4043 1.3859-1.4492 1.3867-1.2305 0.004-1.0522-0.89005-0.95508-1.3809l3.1973-16.037c0.18127-0.84344 0.36023-1.3505 1.3594-1.3535zm64.086 0.11719c0.54942 0.38814 1.0364 1.1958 0.71093 2.5781l-0.21484 1.0938-0.96875 0.002 0.43359-2.2188c0.104-0.43926 0.0871-1.2718 0.0391-1.4551zm-40.902 0.10352c0.079 0.06025 0.15558 0.12449 0.22852 0.19726 0.27363 0.27379 0.60027 0.76691 0.60156 1.5527 0.00044 0.15119-0.2832 1.6543-0.2832 1.6543h-0.97266l0.46484-2.416c0.0203-0.09875 0.041-0.21274 0.041-0.36133 0-0.2348-0.0326-0.44155-0.0801-0.62695zm-41.473 0.06641c1.095 0.98856 0.86022 1.5257 0.54687 3.4023l-0.9707 0.002s0.44649-2.3378 0.46289-2.4141c0.019-0.10012 0.008-0.80526-0.0391-0.99023zm-85.443 0.14648c1.2421 0.9669 0.7361 2.4189 0.54102 3.4473 0.0069-0.0112-0.9707 0-0.9707 0 0.22961-1.5617 0.68002-2.4648 0.42969-3.4473zm20.9 2.1758-1.2422 13.379-5.6582 0.008 0.33594-1.125 4.5742-0.008 1.1367-12.252 0.85352-0.002zm-2.6074 0.28516h0.32031l-0.98047 10.564-2.498 0.004 3.1582-10.568zm144.57 3.457c0.44327 0.38555 0.95835 0.60941 1.2695 0.74414l4.4102 1.9199c1.5365 0.65066 1.902 1.3809 1.9922 1.8418-0.29263-0.23913-0.68954-0.48439-1.2441-0.71875l-4.4102-1.918c-0.53605-0.23523-1.6792-0.73849-2.0176-1.8691zm-113.04 0.83593-2.9277 14.674h-0.97266l2.9277-14.672 0.97266-0.002zm-11.172 0.0176h0.77539l-0.35547 14.668-0.77734 0.002 0.35742-14.67zm29.492 0.15235-0.22656 1.127-3.6465 0.006 0.2207-1.127 3.6523-0.006zm76.086 2.627 0.83398 11.77h-0.66797l-0.83398-11.768 0.66797-0.002zm-141.21 0.68555-0.22461 1.125-4.8457 0.008-0.09961 0.48437h-0.97852l0.32812-1.6094 5.8203-0.008zm162.39 1.291c0.89167 0.74294 0.94792 1.6905 0.75586 2.666 0 0-0.83117 4.1918-0.83203 4.1992-0.64482 3.1355-3.694 2.7495-4.6211 1.8203-0.19206-0.1932-0.41121-0.4952-0.52343-0.9336 0.43893 0.32317 3.6854 1.5117 4.3945-2.0098l0.8125-4.0938c0.14026-0.56143 0.15776-1.1568 0.0137-1.6484zm-35.934 0.91992-0.23047 1.123-3.8633 0.006c-0.34097 1.7241-0.95118 4.8153-0.95118 4.8223-0.14242 0.68617-0.51513 2.5048-2.8203 2.5078-1.1066 0.008-2.0547-0.50291-2.3262-1.5664 0.77559 0.56661 3.7461 1.1254 4.3965-2.0625v-0.002c0.002-0.01 0.61171-3.096 0.94922-4.8223l4.8457-0.006zm-41.475 0.0645-0.23243 1.125-3.8613 0.008c-0.33794 1.7259-0.94858 4.8142-0.95118 4.8203-0.45361 3.1229-4.5843 3.1574-5.1445 0.94336 0.79632 0.58353 3.7512 1.0782 4.3965-2.0664 0.001-0.007 0.61193-3.0973 0.95117-4.8223l4.8418-0.008zm-89.336 0.46484s-1.3646 6.534-1.3633 6.5098c-0.47606 0.6134-2.5435 1.6413-2.5664 1.6426-1.0846 0-2.1093-0.51266-2.373-1.5723 1.1925 0.87159 3.9046 0.52355 4.2598-1.4531 0.04316-0.133 1.0645-5.123 1.0645-5.123l0.97852-0.004zm161.51 0.0527-0.22656 1.127-3.8848 0.006c-0.32931 1.6197-0.89648 4.4151-0.89648 4.416-0.24948 1.2156-0.28646 1.9911-0.28516 2.3477v0.0215c-0.57402-0.22656-1.0622-0.5824-0.46484-3.4922 0.002-0.00088 0.56956-2.7974 0.89844-4.4141l4.8594-0.0117zm-140.78 4.166-0.42578 4.2773h-0.86133l0.42383-4.2754 0.86328-0.002zm69.801 5.7832c-0.45233 0.53023-1.2485 1.1487-1.6387 1.3848 2.1084 5.6476 2.1172 10.998 2.1172 10.998 0.81875-3.0098 1.2001-6.5724 1.3633-8.5859-0.46656-0.87246-0.46817-1.8375-0.40429-2.4336-0.62497-0.39377-1.0961-0.87074-1.4375-1.3633zm19.973 0.65821c-0.0919 0.0754-1.1807 0.83032-1.75 1.0781-0.1165 0.19016-0.23455 0.36054-0.34375 0.50781 0.83515-0.0264 1.5024-0.6027 1.8438-0.96875 0.0984-0.19061 0.18699-0.39928 0.25-0.61718zm-40.072 0.19922-0.3418 1.7734h-0.25586c-0.19249 1.3156-0.77133 2.0263-1.707 2.5137-0.75013 3.2186-0.89844 5.1719-0.89844 5.1719 1.1942-3.5189 2.7543-6.4193 4.2598-8.6914-0.38629-0.21356-0.73898-0.46824-1.0566-0.76757zm59.578 0.66406c-1.947 1.034-4.4182 1.1869-7.9043 1.209 0.39363 0.69441 0.59507 1.4392 0.59766 2.2246l0.002 0.0137c0.002 2.5875-1.6327 4.8623-4.5508 5.9219 0 0 2.3546-4.5136 0.53711-5.2578-0.6133 0.78148-1.3157 1.0996-1.8418 1.2188-0.91802 0.20707-1.7837-0.0311-2.3789-0.29102-0.95556 0.8547-2.4186 0.91937-3.5762 0.73828-0.65388 1.2121-2.0507 1.7269-3.3398 1.6797-0.14502-0.005-0.24104 0.008-0.30664 0.0234 0.57619 1.1228-0.006 2.4367-0.006 2.4844 0.001 0.13991 0.0197 0.35173 0.0508 0.54883 0.49029 0.87549 0.60156 2.1504 0.25196 3.0488 18.196-2.0161 34.494-6.3777 47.93-12.539l-25.678 0.041 0.21289-1.0644zm-41.539 0.10156c-0.31205 0.16158-0.63821 0.3008-0.98047 0.42383 3.1174 9.409 1.4414 22.01 1.4414 22.01 3.4796-6.1869 4.3056-13.882 4.3945-19.18-0.18559-0.13127-0.63375-0.54286-0.80078-0.82618-0.008 8.3603-2.7266 16.057-2.7266 16.057 1.1239-7.8877-0.0321-14.281-1.3281-18.484zm-16.482 0.25195c-3.0769 5.2854-4.832 10.891-5.5645 13.578 0.05312 0.0733 0.49723 0.59904 0.77734 0.98633 0.99052-4.0773 2.7099-9.549 5.5313-14.281-0.26027-0.0828-0.50676-0.17838-0.74414-0.28321zm2.1094 0.61133c-1.5939 3.8866-5.081 12.172-5.2031 13.307 2.3406 0.17111 4.6967 0.30096 7.0644 0.39453-0.7717-2.7114-1.6175-7.2994-1.3262-13.617-0.1817-0.0246-0.36036-0.0545-0.53516-0.084zm11.551 0.0156c-0.76955 0.12692-1.6092 0.19886-2.5332 0.24218-1.6232 4.828-1.833 10.326-1.8184 13.584 1.1006 0.0143 5.248 0.009 6.2441-0.006-0.0799-2.4456-0.56316-8.4089-1.8926-13.82zm-45.824 0.17968-26.42 0.041c11.145 5.0398 25.433 9.1799 40.705 11.443 0.0062-1.8147 0.56447-1.6767 0.49023-2.7012-0.26845-0.50858-0.26015-1.1114-0.25195-1.2812-0.35564-0.37602-0.74052-0.78553-1.1367-1.207-0.92924-0.19452-1.7924-0.70525-2.2676-1.582-1.1571 0.1854-2.6234 0.12342-3.582-0.72657-1.2892 0.56577-3.056 0.564-4.2227-0.91406-1.8084 0.84862 0.42969 5.1836 0.42969 5.1836-3.4675-1.5777-5.7036-5.0831-3.7441-8.2559zm36.443 0.0449c-0.0734 5.7559 0.52237 14.731 4.2695 21.344 0 0-1.7437-12.366 0.91407-21.281-0.51749 0.009-4.099 0.003-5.1836-0.0625zm-9.1035 2.7539c-0.38412 0.0819-0.80422 0.11725-1.2617 0.10938-0.04925 0.39377-0.15844 0.88172-0.39453 1.334-0.34139 1.9295-0.5786 3.9944-0.62305 6.1621 0.29866 0.51506 0.63912 1.0601 1.0293 1.6367-0.0075-3.2169 0.50505-6.3658 1.25-9.2422z" transform="matrix(.8 0 0 -.8 65.338 649.13)" fill="#cb2027"/><path d="m115.07 71.469c-0.12041-0.05415-1.1014 0.50612-1.8477 1.6641l-4.1523 8.2676 4.2344-5.4102 1.582 3.4414c0.84897-2.0044 1.6524-3.4453 1.6524-3.4453l4.2715 5.4199-3.9238-8.1875c-0.75056-1.1575-1.696-1.8041-1.8164-1.75zm6.0684 10.885c-0.31981 0.1945-4.8047 3.8672-4.8047 3.8672l-1.3144-1.1719-1.459 1.1758s-4.4744-3.3923-4.5918-3.4473l4.5566 4.9102s0.7145 0.65321 1.5039 0.65234c0.78853-0.0012 1.3281-0.65625 1.3281-0.65625s4.7372-5.1863 4.7812-5.3301zm18.705 32.605c-0.30163-0.009-0.66266 0.0292-1.0879 0.14454 0 0-4.3581 0.92184-2.8574 4.4199 0 0 0.25123 1.3761 1.123 1.707 0 0-1.0381-0.20501-1.2871-0.62305 0 0-1.7424 0.33496-1.2422 2.0859 0 0 0.50084 2.0823-1.7422 1.4199l-0.6211-0.125s0.12232-1.666-1.7051-1.7461c0 0 0.32783-3.0847-0.96093-4.123 0 0-2.121-1.7056-3.5293 0.37891 0 0-0.91181 1.0836-0.20312 2.582 0 0-0.004-2.2917 2.0312-1.6289 0 0 1.5362 0.3755 1.25 2.334 0 0 0.00018 0.20947-0.66406 0.45898-0.66337 0.25083-0.74435 2.0012-0.20312 2.498l0.37304-0.0391s0.70387-1.4587 2.0332-1.2109c0 0-1.08 0.20863-1.3691 1.043 0 0 0.49741 0.12567 0.54101 0.79101 0.0427 0.66713 0.2102 2.0815 1.6211 2.0391l0.49804-1.0859s-0.37009 2.6263 1.043 3.082c1.4126 0.45702 1.2865 1.082 1.3711 1.2891 0 0-2.1417 0.3351-1.4141 2.7285-0.007-0.0221 0.78956-2.1804 3.0762-1.7715 0 0-2.6132 0.17003-2.5274 2.3789 0 0-0.82712 2.7926 1.166 3.2891 0 0 0.52013 0.17013 1.2051 0.16797 1.2417-0.003 3.0231-0.56 3.2324-3.6738 0 0-0.69931 3.2511-3.0684 2.3379 0 0-1.7025-0.49692-1.166-2.2891 0 0 0.28816-1.2494 1.8652-0.96094 0 0 1.367-1.4205 0.45117-4.459 0 0 0.99893 0.70544 1.582 2.7051 0 0 0.16262-0.83408-0.0859-1.334-0.25206-0.4999-0.0862-1.5018 1.0352-1.543 0 0 3.278 0.12045 2.9414-3.1289 0 0 0.4165 0.70539 0.50196 1.207 0 0 3.031 0.53601 4.1894-1.5078 0 0 0.0445 0.50099 0.004 0.79296 0 0 2.2836 1.1202 3.2344-0.59179 0 0-1.6079-2.9601 1.8242-2.877-1.2728-3.4946-4.1934 0.0918-4.1934 0.0918s-0.41366 0.29259-0.99805-0.24805c-0.5805-0.54148-2.491-0.66261-3.2773 0.88086 0 0-1.5757 1.918-4.2754 1.0469l-0.16797-0.70703s-0.53595 0.87486-2.5684 2.0449c0 0 1.6979-2.9215 1.1113-5.084l-0.58008-0.29296s-0.50189-2.6239 1.8223-2.7109c0 0 1.7838-0.29256 2.1191 1.957 0 0 1.7846-1.7123-0.17188-3.666 0 0-0.37441-0.44664-1.2793-0.47461zm-52.297 0.15235c-3.2054-0.10369-2.7064 3.4901-1.834 4.0781 0.32758-2.2518 2.1113-1.9648 2.1113-1.9648 2.325 0.081 1.832 2.707 1.832 2.707l-0.58008 0.29297c-0.57964 2.1664 1.127 5.082 1.127 5.082-2.0359-1.1631-2.5762-2.0391-2.5762-2.0391l-0.16406 0.71094c-2.6949 0.87808-4.2773-1.0352-4.2773-1.0352-0.79156-1.5413-2.7012-1.4141-3.2812-0.87305-0.57964 0.54366-0.99609 0.25391-0.99609 0.25391s-2.8442-3.5742-4.1934-0.0762c3.4235-0.1945 1.8301 2.8711 1.8301 2.8711 0.95771 1.7081 3.2422 0.58008 3.2422 0.58008-0.04225-0.29198-0.002-0.79297-0.002-0.79297 1.1658 2.0391 4.1953 1.4941 4.1953 1.4941 0.0815-0.50337 0.49414-1.2109 0.49414-1.2109-0.32542 3.252 2.9531 3.1211 2.9531 3.1211 1.12 0.039 1.2883 1.0411 1.041 1.541-0.24946 0.50078-0.08203 1.332-0.08203 1.332 0.57791-2.0001 1.5742-2.709 1.5742-2.709-0.90939 3.0415 0.46289 4.457 0.46289 4.457 2.7842-0.35566 2.1831 2.8779 0.9375 3.2656-2.366 0.92271-3.3027-2.3438-3.3027-2.3438 0.27105 3.8412 2.9846 3.816 4.4473 3.4902 1.9927-0.50338 1.1602-3.293 1.1602-3.293 0.079-2.2102-2.5371-2.3711-2.5371-2.3711 2.499-0.26511 3.0742 1.7871 3.0742 1.7871 0.74279-2.4181-1.416-2.748-1.416-2.748 0.08288-0.20794-0.04287-0.83356 1.3672-1.2949 1.4118-0.46005 1.0332-3.084 1.0332-3.084l0.5 1.082c1.4118 0.0407 1.5755-1.3784 1.6152-2.043 0.03975-0.66799 0.53906-0.79493 0.53906-0.79493-0.2909-0.83303-1.3711-1.0391-1.3711-1.0391 1.328-0.25125 2.0371 1.207 2.0371 1.207l0.37305 0.0391c0.53994-0.50035 0.4533-2.2513-0.21094-2.5-0.6651-0.24822-0.66602-0.45704-0.66602-0.45704-0.285-1.94 1.25-2.32 1.25-2.32 2.0311-0.66973 2.0371 1.6211 2.0371 1.6211 1.0052-3.0406-1.8069-4.4782-3.7422-2.9512-1.2857 1.0423-0.94922 4.127-0.94922 4.127-1.8261 0.0849-1.6973 1.752-1.6973 1.752l-0.62305 0.125c-2.2413 0.67145-1.7461-1.4141-1.7461-1.4141 0.49634-1.7506-1.248-2.082-1.248-2.082-0.24946 0.4176-1.2871 0.62891-1.2871 0.62891 0.87184-0.33574 1.1191-1.7109 1.1191-1.7109 1.4894-3.5028-2.8711-4.4121-2.8711-4.4121-0.2476-0.0417-0.47772-0.0653-0.69141-0.0723zm45.162 14.549c-0.39146 2.0958-2.5938 5.5918-2.5938 5.5918-0.66466 1.6124-1.09 0.58183-2.5078 3.6524-1.4179 3.0701-0.0215 5.0742-0.0215 5.0742l0.51368-0.39649c-0.17869 1.5807 1.6367 2.0332 1.6367 2.0332 2.057-0.30843 2.9024-2.8906 2.9024-2.8906-3.2681-0.32966-3.3945-2.0312-3.3945-2.0312 1.0937 1.5179 3.6953 1.3926 3.6953 1.3926 0.27147-0.30412 0.69336-2.4922 0.69336-2.4922-2.9957-0.0576-3.7559-1.9394-3.7559-1.9394 1.697 1.5465 4.0254 1.1172 4.0254 1.1172l0.0293-1.002c-2.8758-0.26945-3.4551-3.0039-3.4551-3.0039l0.21289-0.0586c0.94176 2.4285 2.3926 2 2.3926 2-0.45318-0.48431-0.30469-2.4609-0.30469-2.4609-1.6094-2.6091 0.90234-3.7676 0.90234-3.7676-0.21407-0.69882-0.9707-0.81836-0.9707-0.81836zm-38.379 0.0605s-0.75575 0.12505-0.9668 0.82422c0 0 2.5168 1.1487 0.91602 3.7656 0 0 0.15608 1.9738-0.29883 2.459 0 0 1.4547 0.42415 2.3887-2.0078l0.21094 0.0606s-0.57194 2.736-3.4473 3.0137l0.03516 1.002s2.3287 0.42215 4.0215-1.1309c0 0-0.7521 1.8855-3.75 1.9531 0 0 0.42754 2.1829 0.70117 2.4883 0 0 2.6031 0.11623 3.6895-1.4043 0 0-0.11798 1.7018-3.3848 2.041 0 0 0.85119 2.5806 2.9082 2.8809 0 0 1.8152-0.45833 1.6309-2.0391l0.51758 0.39453s1.3878-2.0044-0.03906-5.0723c-1.426-3.0649-1.8503-2.0337-2.5176-3.6426 0 0-2.2177-3.491-2.6152-5.5859z" transform="matrix(.8 0 0 -.8 65.338 649.13)" fill="#ffd049"/><path d="m117.02 32.143c-72.568 0-89.672 32.976-90.828 36.066 5.6061-1.4417 11.614-2.9879 11.662-3 8.3036-10.349 17.264-15.522 28.514-11.973 3.2046-1.4348 7.938-1.7427 10.307-1.8047-2.0013-1.9338-10.994-2.61-11.043-2.6152 4.2267 0.09837 20.116-1.8041 24.551 10.627 0.31852 0.058 0.52317 0.0953 0.78516 0.14258-1.991-2.7525-6.8774-8.6635 8.7539-10.049 1.1779-2.1374 1.5083-3.9644-1.4473-6.6484-2.4032-2.1846-11.873-1.8205-11.916-1.8184 6.7446-0.52027 8.2446-0.86887 14.777 0.29297 2.344-4.8319 10.842-5.397 16.949-2.4023 1.1416-0.27465 11.271-2.3212 13.547 3.5273 4.9954-1.0622 9.5926-0.70721 14.867-0.34375-8.5625-0.15942-14.08 1.206-14.232 5.8711-0.0271 0.82351 0.34187 1.7389 0.81836 2.7422 3.8689 0.19538 7.3967 1.0342 9.3242 2.3711 0.43937 0.3028 0.79931 0.63022 1.0781 0.97852l2.9434-1.123-2.6816 1.4922c0.24041 0.39031 0.39203 0.80618 0.45117 1.248 0.1489 1.1168-0.28856 2.404-1.3184 3.8535 0 0-0.47725 0.66772-0.94726 1.3301 0.26371-0.05025 0.46967-0.08904 0.78906-0.14844 4.7597-11.112 15.289-11.03 24.662-10.842-0.0488 0.0063-9.0959 0.71971-11.102 2.6855 1.9245 0.04375 5.4008 0.2453 8.3711 1.0801 4.6816-1.7731 8.6555-2.2212 12.539-1.4609 5.9725 1.1692 11.781 5.3351 17.756 12.732 0.0526 0.01425 7.1731 1.8213 13.15 3.3379-1.1524-3.2178-18.513-36.15-91.08-36.15zm-7.4473 6.9902c-3.2239-0.1237-6.3902 1.301-8.0156 2.3184 6.3057 1.5015 7.9755 5.316 6.5176 9.0605 0.58395 0.16635 1.0702 0.38809 1.4746 0.65234-1.5106-4.7275-0.0915-8.5021 4.3164-10.719-1.3505-0.87993-2.8276-1.2563-4.293-1.3125zm14.344 1.1406c-0.95701-0.01954-1.9515 0.08866-2.9746 0.375 4.6324 3.7809 2.5844 9.5054 0.0957 13.68 0.14934 0.24345 0.3047 0.49834 0.46094 0.75781 0.26025-1.4161 1.118-2.7136 3.1875-3.3145-1.7091-4.3012 0.7074-7.7848 6.5215-9.1914-1.8949-1.0354-4.42-2.248-7.291-2.3066zm-26.676 12.878c-1.9802 0.09137-4.7584 0.7204-5.4434 3.1641l2.6035 1.4434c1.3798-4.3731 2.8398-4.6074 2.8398-4.6074zm77.578 1.0156c-12.082-0.11182-23.761 8.8959-29.049 13.916 0.32543 0.03725 0.6564 0.0795 0.99219 0.125 2.7579-2.5385 7.1119-6.0944 12.434-8.9023 5.471-2.889 11.897-4.9545 18.35-4.2168 0 0 8.6809 1.359 14.725 10.318-6.0808-9.6317-15.031-11.092-15.031-11.092-0.80731-0.09241-1.6144-0.14098-2.4199-0.14844zm-116.75 0.186c-0.84186 0.0078-1.6865 0.05884-2.5312 0.1582 0 0-8.9459 1.4899-14.996 11.141 0.47174-0.70308 0.95853-1.3601 1.457-1.9727 5.8642-7.214 13.234-8.3926 13.234-8.3926 15.773-1.9615 31.088 13.255 31.18 13.34 0 0 0.91904-0.06216 1.0352-0.06641-4.183-3.973-8.84-7.328-12.778-9.482-4.937-2.701-10.708-4.781-16.601-4.726zm78.137 0.20312c0.31724 0.41586 0.77005 1.064 1.209 1.875l2.3105-0.88281c-0.22053-0.16851-0.47122-0.32209-0.75781-0.45508-0.73847-0.34569-1.6555-0.51892-2.7617-0.53711zm4.2656 1.75-2.4629 1.3711c0.34355 0.83564 0.62016 1.7712 0.72461 2.7598 0.0362 0.35479 0.0409 0.71642 0.0293 1.082 0.26803-0.05938 0.53535-0.11727 0.80078-0.16797 0 0 1.1205-0.20802 1.4434-0.26953 0.12125-0.85254 0.24414-1.7188 0.24414-1.7188 0.00087-0.01125 0.0573-0.43452-0.0117-1.0254-0.0704-0.59261-0.26607-1.3494-0.76758-2.0312zm-48.795 0.61719c-0.13811 1.0479 0.02695 1.4878 0.22461 2.832 0.32069 0.05975 1.9639 0.36708 2.2285 0.42383-0.013-0.36042 0.03548-1.1242 0.03711-1.1523l-2.4902-2.1035zm-1.1445 3.3125c0.79846 1.5842 3.0568 2.9169 4.9844 3.8105-0.59648-0.80921-1.0133-1.6773-1.2188-2.6035-1.2387-0.56749-2.7872-0.94364-3.7656-1.207zm88.934 1.2344c1.6552 1.9606 2.9381 2.6507 6.3965 2.5723-2.8844-0.6316-5.2976-1.893-6.3965-2.5723zm-37.076 0.0957c-0.42599 0.11738-2.5551 0.66039-3.7891 1.2344-0.0683 0.3132-0.15948 0.61841-0.27343 0.91992 0.76091-0.15942 1.5908-0.27963 2.4902-0.33984 0.68495-0.55579 1.249-1.1647 1.5723-1.8145zm-89.055 0.10938c-1.06 0.70829-3.3025 2.0103-6.1973 2.6055 0.8291 0.05069 3.6425 0.04539 5.0176-1.2949 0.48598-0.47609 0.85166-0.92066 1.1797-1.3105zm122.95 0.62305c0.64913 1.1259 1.0098 2.2852 1.0098 2.2852 1.7834 3.6484 5.8882 3.2471 6.4609 3.2324-4.294-0.34352-6.2832-3.8027-6.2832-3.8027-0.3332-0.94438-0.81141-1.4293-1.1191-1.6641-0.007-0.0063-0.0176-0.01303-0.0254-0.01953l-0.043-0.03125zm-119.77 0.184c-0.2991 0.214-0.81862 0.7079-1.1738 1.7285 0 0-1.7344 3.2444-5.873 3.8379 0.61849 0 4.4737-0.01274 6.0508-3.2695 0 0 0.35909-1.1602 1.0039-2.2891l-0.0078-0.0078zm117.36 0.83c-0.0971 0.06063-0.18861 0.13362-0.27148 0.2168 0.0479 0.43666 0.006 0.74414 0.006 0.74414-1.9461 4.0729 4.8095 5.1885 5.9805 5.3496-5.9725-1.3056-5.4004-4.627-5.4004-4.627 0.23478-0.5311-0.0525-1.2521-0.31446-1.6836zm-114.95 0.186c-0.23432 0.42844-0.54534 1.1538-0.31055 1.6836h0.002s0.76072 3.2972-5.207 4.6211c1.1705-0.16461 7.7459-1.2797 5.7852-5.3457 0 0-0.04534-0.30748 0.0039-0.74414-0.08503-0.08404-0.17681-0.15509-0.27344-0.21484zm84.055 1.1348s-5.1885-0.14935-8.8809 5.373l1.1953-0.69141s2.6872-3.7602 7.6855-4.6816zm-56.244 0.20898c5.0023 0.90495 7.7012 4.6543 7.7012 4.6543l1.1953 0.6875c-3.7105-5.5107-8.8965-5.3418-8.8965-5.3418zm81.535 1.0938-0.64844 0.10547c-1.1515 2.6577 4.8907 3.8941 4.9883 3.9062-3.9889-1.2874-4.421-3.2103-4.3398-4.0117zm-103.72 0.166c0.08329 0.80271-0.21062 2.6546-4.2051 3.9551-0.0405 0.02475-0.08009 0.04839-0.12109 0.07227 0 0 6.1346-1.2709 4.9766-3.9238l-0.65039-0.10352zm2.5781 0.25781s-1.2275 1.1607 0.07422 1.1582c0.34788-0.0017 0.87483-0.08525 1.6543-0.29492l-1.7285-0.86328zm98.387 0.02734-1.7246 0.87109c0.77818 0.20571 1.3073 0.28711 1.6543 0.28711 1.3025-0.0026 0.0703-1.1582 0.0703-1.1582zm23.945 0.2207 1.9961 1.2031 20.012 3.125c0.10792-0.06151-22.008-4.3281-22.008-4.3281zm-146.08 0.234-22.166 4.301s0.06158 0.03869 0.16992 0.10156l20-3.1934 1.9961-1.209zm141.56 1.7383 0.78906 4.4727s-1.0935 4.9931 5.7422 5.8105l1.3887-0.08594c-6.7679-1.0068-6.6016-6.4297-6.6016-6.4297l-1.2617-3.6094-0.0566-0.1582zm-117.42 0.0039s-0.51753 1.1395 0.10742 1.1387c0.29522-0.0013 0.84271-0.25468 1.8164-0.99805l-1.9238-0.14062zm97.645 0.02734-1.9238 0.15039c0.97715 0.74076 1.5264 0.99148 1.8203 0.99023 0.62673-0.000425 0.10351-1.1406 0.10351-1.1406zm-117.24 0.18945-0.05469 0.16016-1.252 3.6113s0.18375 5.4243-6.582 6.4531l1.3906 0.08008c6.8327-0.8391 5.7246-5.8301 5.7246-5.8301l0.77344-4.4746zm16.004 0.64648s-0.52122 1.1419 0.10547 1.1406c0.29521-0.000425 0.8438-0.25381 1.8184-0.99805l-1.9238-0.14258zm104.83 0.01563-1.9238 0.15039c0.97758 0.7412 1.5264 0.99306 1.8203 0.99219 0.6276-0.0013 0.10351-1.1426 0.10351-1.1426zm-101.17 0.989-1.773 0.762s0.05005 1.0059 0.46094 1.0059c0.26198-0.000863 0.67286-0.41297 1.3125-1.7676zm1.5742 0.01367s-0.63842 1.1469 0.0625 1.1465c0.30514 0 0.86596-0.21864 1.8457-0.84766l-1.9082-0.29883zm95.926 0.01563c0.64438 1.3524 1.0583 1.7649 1.3203 1.7637 0.41132 0 0.45703-1.0098 0.45703-1.0098l-1.7773-0.75391zm-1.5723 0.01758-1.9082 0.30469c0.98233 0.62598 1.5432 0.84418 1.8496 0.84375 0.70046-0.000875 0.0586-1.1484 0.0586-1.1484zm14.713 0.2168-3.1289 6.7676c-0.9547 8.8364 7.877 6.252 7.877 6.252-7.1029-0.15075-6.7969-6.3105-6.7969-6.3105l2.0488-6.709zm-19.674 0.0918c0.82565 0.72128 1.2597 0.95508 1.4746 0.95508 0.39923-0.000863 0.041-0.8125 0.041-0.8125l-1.5156-0.14258zm-103.92 0.10547 2.0723 6.707s0.32466 6.1551-6.7773 6.3301l1.791 0.4707c8.3562-0.6485 5.9082-7 5.9082-7l-2.9941-6.5078zm135.1 0.35742c0.74538 1.0518 6.4668 9.1152 6.4668 9.1152-0.12175 0.01125-13.661 2.1179-15.764-6.0176-0.0169-0.02638-0.5343-0.82415-0.80664-1.2422-0.0677 0.6329-0.32362 3.087-0.33399 3.1797 0.0609 0.088 5.6914 8.5742 5.6914 8.5742-2.6453 0.91361-5.8608 1.084-8.5781 0.08203l-7.4414 0.0098c1.7579 1.5678 3.3856 3.2691 4.875 5.0938l30.07-0.02734c4.4576-6.1822 5.8247-10.74 5.416-16.131-9.8768 3.68-14.543 0.54468-19.596-2.6367zm-146.6 0.23632c-1.1532 0.73036-3.5148 2.2283-3.5195 2.2305-5.1386 2.9375-10.777 2.1714-14.756 0.91992-0.22228 4.413 0.91687 9.7225 5.2363 15.436 14.327-0.63332 14.116 3.094 12.508 11.125 0.01726 0.007 0.42188 0.26758 0.42188 0.26758l4.1973-11.266 9.1738-0.01563c2.0346-2.4415 1.8096-2.5194 4.2188-4.7148l-5.2168 0.0059c-0.58956 0.14989-1.1599 0.23946-1.6973 0.29102-3.1149 0.29111-5.9551-0.75-5.9551-0.75s5.7809-8.4398 5.8418-8.5273c-0.01125-0.094-0.27665-2.5468-0.3457-3.1797-0.27019 0.41976-0.78438 1.2192-0.80078 1.2461-0.85328 3.3447-3.8107 5.4596-8.5527 6.1172-3.5655 0.49341-7.1914-0.04883-7.1914-0.04883s5.6934-8.0823 6.4375-9.1367zm101.99 0.03906c-3.2421-0.0259-6.6621 0.39526-10.109 1.5156l1.0215 0.31055s13.261-4.3846 29.957 4.0605c0 0-9.2904-5.7942-20.869-5.8867zm27.1 0.05469-5.6816 4.6074c0.21796 0.17241 0.43416 0.34778 0.65039 0.5293l5.0312-5.1367zm-87.582 0.16016c-11.579 0.12978-20.848 5.9531-20.848 5.9531 16.667-8.4989 29.941-4.1562 29.941-4.1562l1.0234-0.31445c-3.451-1.11-6.875-1.52-10.117-1.483zm-24.002 0.01953 4.0742 4.1055c0.16618-0.12125 0.34744-0.25222 0.54297-0.38867l-4.6172-3.7168zm64.404 1.0898s-0.86654 0.33194-1.4082 0.73438l0.76562 0.04883s0.0494 2.543-2.3594 2.4473l0.41601 0.58594c0.57792 0.03639 2.7828 0.06373 2.5859-3.8164zm-20.602 0.0332c-0.1912 4.2059 2.5465 3.8111 2.5996 3.8086l0.41211-0.58789c-2.407 0.1044-2.3652-2.4414-2.3652-2.4414l0.76367-0.05078c-0.54424-0.40028-1.4102-0.72852-1.4102-0.72852zm35.871 4.0469c-1.1855-0.01488-2.3443 0.02405-3.4746 0.11523-0.15753 0.013-0.31664 0.02381-0.47461 0.03906l0.73828 0.62891s16.395-1.8237 33.33 10.549c-0.20371-0.15855-0.40784-0.31541-0.61328-0.47266-0.90161-0.69355-1.8094-1.3673-2.7266-1.9824-8.9567-6.025-18.481-8.7728-26.779-8.877zm-50.845 0.196c-8.298 0.13086-17.813 2.9099-26.75 8.9629-0.91456 0.61948-1.8208 1.2965-2.7207 1.9922-0.20372 0.15768-0.40762 0.31671-0.61133 0.47656 16.896-12.427 33.297-10.656 33.297-10.656l0.73633-0.63086c-0.15925-0.01475-0.31622-0.02781-0.47461-0.03906-1.1305-0.08756-2.2911-0.12416-3.4766-0.10547zm76.334 2.9434c-0.52052 0.02338-0.96875 0.04687-0.96875 0.04687l0.13476 1.1387 1.8867 0.76172-1.0527-1.9473zm-98.718 0.161-0.736 1.363c0.52785-0.34266 1.0862-0.68708 1.6719-1.0332l0.0332-0.28516s-0.44996-0.02542-0.96875-0.04492zm133.19 13.75c-7.4395 0.01125-7.8266 0.52134-8.6074 4.5176 0 0-0.63022 3.2073-0.63281 3.2207-0.243 1.1705-0.24445 2.0568 0.66406 2.8027-0.14242-0.58655-0.0562-0.97207 0.0879-1.6816 0.00086-0.01 0.63086-3.2188 0.63086-3.2188 0.78291-3.9936 1.166-4.5029 8.6055-4.5176 2.1628-0.0025 4.7692-0.0054 5.9785 0.46094-0.0199-1.4079-1.7278-1.5952-6.7266-1.584zm-61.537 0.03125c-3.7264 0.0075-6.0688 0.05469-7.2285 0.96875-0.79113 0.61124-1.0106 1.554-1.3965 3.457 0 0-3.2708 16.503-3.2734 16.52-0.11138 0.5311-0.18736 0.99318-0.23829 1.3926 0.003-0.002 0.005-0.003 0.006-0.004 0 0 0.40867-0.11383 0.95508-0.14062 0.01-0.0403 3.2969-16.643 3.2969-16.643 0.38715-1.9017 0.60926-2.8467 1.4004-3.457 1.1558-0.91491 3.5006-0.96637 7.2266-0.9707 2.1442-0.0037 4.7243-0.0039 5.9336 0.45117v-0.01953c-0.001-0.58179-0.16527-0.74599-0.22656-0.80664-0.75702-0.7568-3.9164-0.75282-6.4551-0.74805zm20.725 0.04102c-3.8387 0.0062-6.0663 0.05429-7.207 0.95312-0.78076 0.62554-1.0381 1.5792-1.4434 3.5996 0 0-3.0937 15.569-3.2461 16.391-0.22659 1.2177-0.84354 3.349 0.42969 3.4824-0.0203 0.0277 0.0913-1.2744 0.31836-2.3574 0.004-0.0195 3.2461-16.391 3.2461-16.391 0.40397-2.0213 0.66411-2.9736 1.4453-3.5996 1.1403-0.90019 3.368-0.94967 7.207-0.95703 2.1433-0.0025 4.7245-0.0039 5.9316 0.45117v-0.01953c-0.00086-0.57961-0.16418-0.74383-0.22461-0.80664-0.75788-0.75636-3.9184-0.75173-6.457-0.74609zm-41.473 0.06445c-7.3666 0.01125-7.8068 0.32235-8.6524 4.5547l-3.2441 16.389c-0.67502 3.1914-0.26865 3.3038 0.42578 3.5508 0.0185-0.53716 0.0947-1.3419 0.32422-2.4258 0.002-0.016 3.2461-16.389 3.2461-16.389 0.81226-4.0608 1.1351-4.5432 8.6484-4.5527 2.1442-0.005 4.7242-0.0084 5.9336 0.44531l0.002-0.01953c-0.005-1.297-1.3048-1.5588-6.6816-1.5527h-0.002zm69 0.12695-4.3945 0.0078-4.3184 9.5762 1.2832-0.002 3.7832-8.4512 3.0566-0.0059 0.58985-1.125zm-10.057 0.01367-4.4902 0.0098-4.8926 24.6 0.97266-0.002 4.668-23.475 3.5156-0.0039 0.22657-1.127v-0.002zm-144.39 0.01367c-7.5651 0.01425-7.8549 0.48854-8.6504 4.5879 0 0-3.2595 16.398-3.2422 16.371-0.53303 2.5221-0.38631 3.2312 0.41992 3.5215 0.06604-0.009 0.11298-1.2849 0.33008-2.3965l3.2402-16.369c0.77343-3.9833 1.0449-4.5786 8.6523-4.5898 2.0359-0.0025 4.7005-0.0043 5.9336 0.46289-0.000864-1.0813-0.41718-1.5948-6.6836-1.5879zm71.594 0.05664-9.4355 0.01367-4.0645 20.447c0.27968 0.17502 0.56969 0.38872 0.84375 0.64258l3.9688-19.965 8.459-0.01367 0.22852-1.125zm-15.271 0.02344-6.7266 0.01172-5.834 15.006 1.2051-0.002 5.3789-13.879 5.75-0.0098 0.22656-1.127zm-14.6 0.02344-6.8242 0.0098-4.8926 24.602 0.97266-0.002 4.668-23.475 6.0586-0.0098 0.01758-1.125zm-17.23 0.02734-6.8984 0.0098-9.168 24.607h1.1699l8.748-23.482 6.1191-0.0098 0.0293-1.125zm144.75 2.8125c0.0479 0.18324 0.0651 1.0139-0.0391 1.4531l-0.43359 2.2188 0.96875-0.002 0.21484-1.0918c0.32543-1.3823-0.16151-2.19-0.71093-2.5781zm-61.627 0.0625c0.0493 0.1828 0.0772 0.38935 0.0781 0.625 0 0.23912-0.0398 0.52274-0.11914 0.83594-0.1005 0.50598-2.6565 13.318-3.123 15.652 0.48254-0.24043 1.0167-0.41192 1.0586-0.42578 0.82824-4.1565 2.7273-13.669 2.8145-14.104 0.0799-0.31234 0.12109-0.59746 0.12109-0.83789-0.002-0.78539-0.32988-1.2768-0.60351-1.5488-0.0734-0.07275-0.14802-0.13965-0.22657-0.19727zm20.725 0.03906c0.0475 0.18541 0.0801 0.39216 0.0801 0.62695 0 0.14859-0.0208 0.26255-0.041 0.36133l-0.46484 2.416 0.97266-0.002s0.28362-1.5031 0.2832-1.6543c-0.001-0.78582-0.32792-1.277-0.60156-1.5508-0.073-0.07275-0.14953-0.13705-0.22852-0.19726zm-41.473 0.06641c0.0466 0.18498 0.0581 0.88822 0.0391 0.98828-0.0164 0.07625-0.46485 2.416-0.46485 2.416l0.97266-0.002c0.31334-1.8766 0.5481-2.4138-0.54687-3.4023zm-85.443 0.14648c0.25076 0.98249-0.19964 1.8856-0.42969 3.4473 0 0 0.97761-0.0112 0.9707 0 0.19508-1.0284 0.70113-2.4804-0.54102-3.4473zm20.9 2.1738-0.85352 0.002-1.1367 12.252v0.002l-4.5742 0.006-0.33594 1.127 5.6582-0.01 1.2422-13.379zm141.95 3.749c0.33838 1.1306 1.4815 1.6359 2.0176 1.8711l4.4102 1.916c0.5546 0.23436 0.95151 0.47962 1.2441 0.71875-0.0903-0.46092-0.4557-1.1911-1.9922-1.8418l-4.4102-1.918c-0.31119-0.13472-0.82627-0.36054-1.2695-0.74609zm-113.04 0.83398-0.97266 0.002-2.9277 14.674h0.97266l2.9277-14.676zm-10.396 0.0176-0.77539 0.002-0.35742 14.668v0.002l0.77734-0.002 0.35547-14.67zm28.717 0.1543-3.6523 0.006-0.2207 1.127 3.6465-0.006 0.22656-1.127zm76.086 2.627-0.66797 0.002 0.83398 11.768h0.66797l-0.83398-11.77zm-141.21 0.68555-5.8203 0.01-0.32812 1.6094h0.98047l0.09766-0.48438 4.8457-0.01 0.22461-1.125zm162.39 1.291c0.14415 0.49168 0.12666 1.087-0.0137 1.6484l-0.8125 4.0938c-0.70912 3.5215-3.9556 2.3329-4.3945 2.0098 0.11225 0.43841 0.33137 0.74235 0.52343 0.93555 0.92708 0.92921 3.9763 1.3132 4.6211-1.8223 0.00086-0.008 0.83203-4.1973 0.83203-4.1973 0.19206-0.97556 0.13583-1.925-0.75586-2.668zm-35.934 0.91797-4.8457 0.006c-0.33751 1.7263-0.94707 4.8147-0.94922 4.8242-0.65042 3.1879-3.6209 2.6311-4.3965 2.0644 0.27147 1.0635 1.2196 1.5714 2.3262 1.5644v0.002c2.3052-0.002 2.6779-1.8236 2.8203-2.5098 0-0.008 0.61021-3.0962 0.95118-4.8203l3.8633-0.006 0.23047-1.125zm-41.475 0.0664-4.8418 0.008c-0.33924 1.725-0.94989 4.8149-0.95117 4.8223-0.64525 3.1446-3.6002 2.6499-4.3965 2.0664 0.5601 2.2136 4.6895 2.1776 5.1445-0.94336 0.002-0.006 0.61323-3.0964 0.95118-4.8223l3.8613-0.006 0.23243-1.125zm-89.336 0.46484-0.97852 0.004s-1.0209 4.9901-1.0645 5.123c-0.35521 1.9767-3.0673 2.3228-4.2598 1.4512 0.26328 1.0596 1.2884 1.5742 2.373 1.5742 0.02331-0.001 2.0904-1.0292 2.5664-1.6426-0.0012 0.0242 1.3633-6.5098 1.3633-6.5098zm161.51 0.0547-4.8594 0.01c-0.32888 1.6167-0.89542 4.4152-0.89844 4.416-0.59667 2.9078-0.10909 3.2657 0.46484 3.4922v-0.0215c-0.001-0.35651 0.0357-1.1341 0.28516-2.3496 0-0.00087 0.56717-2.7943 0.89648-4.4141l3.8848-0.008 0.22656-1.125zm-140.78 4.1641-0.86328 0.002-0.42383 4.2754h0.86133l0.42578-4.2773zm79.17 2.11c0.0924 0.36345 0.26446 0.67431 0.51953 0.93164 0.3742 0.37341 0.83 0.52747 1.2012 0.58984-0.007-0.38467 0.0551-0.7957 0.13672-1.0898-0.091 0.007-0.18566 0.01-0.2832 0.01-0.25638 0-0.97085 0.001-1.5742-0.44141zm-36.586 0.45703-0.22656 1.1289h0.17188c0.18214-0.40548 0.42652-0.79362 0.75195-1.1289h-0.69727zm43.365 0.11719c-1.8441 0.0846-1.5488 2.0976-1.5488 2.0976l0.78906 0.33204c0.29435 2.5823-0.86523 4.502-0.86523 4.502 3.1924-2.5888 3.1894-4.9648 3.1894-4.9648 0.12214-1.751-1.166-1.957-1.166-1.957-0.14267-0.0127-0.27549-0.0154-0.39843-0.01zm-51.549 0.084c-0.12299-0.005-0.25577-0.002-0.39844 0.0117 0 0-1.2855 0.20974-1.1582 1.959 0 0 0.0019 2.3776 3.2031 4.9551 0 0-1.1642-1.9171-0.87891-4.502l0.78711-0.33398s0.2901-2.0133-1.5547-2.0898zm39.523 2.1602c-0.33301-0.0262-1.0341 0.10074-1.3125 1.5391 0 0-0.86511 3.2096 1.627 3.4141 0 0-1.0439-2.5404 1.0723-3.043 0.00001 0 0.1234-1.5432-1.2051-1.875 0 0-0.0706-0.0264-0.18164-0.0352zm-27.49 0.0469c-0.11087 0.009-0.18164 0.0352-0.18164 0.0352-1.3267 0.33573-1.2012 1.877-1.2012 1.877 2.1183 0.49688 1.084 3.0391 1.084 3.0391 2.4912-0.21184 1.6152-3.4199 1.6152-3.4199-0.28357-1.4367-0.9838-1.559-1.3164-1.5312zm52.115 2.7734c-2.1248 0.0919-1.0645 2.1777-1.0645 2.1777 3.1554 0.20447 2.4551 3.2051 2.4551 3.2051 1.7799-3.7112-0.92187-5.373-0.92187-5.373-0.17124-0.0128-0.3271-0.0159-0.46875-0.01zm-76.73 0.125c-0.14164-0.006-0.29759-0.002-0.46875 0.0117 0 0-2.697 1.6696-0.90625 5.373 0 0-0.71079-2.9965 2.4434-3.2109 0 0 1.0562-2.0887-1.0684-2.1738zm62.723 7.7012c-0.0376 3.0831-2.0703 3.9609-2.0703 3.9609 0.33363-0.16937 0.58203-1.168 0.58203-1.168-1.8688 0.21226-1.2441 1.668-1.2441 1.668 0.3086 0.87246 0.77498 1.1172 1.2031 1.1172 0.55245-0.003 1.0391-0.41211 1.0391-0.41211 1.9068-1.7514 0.49023-5.166 0.49023-5.166zm-48.693 0.0762s-1.4038 3.4207 0.50781 5.166c0 0 0.48857 0.40907 1.041 0.4082 0.42728 0 0.89234-0.24624 1.1992-1.1191 0 0 0.61949-1.4598-1.248-1.666 0 0 0.25143 0.99989 0.58203 1.168 0 0-2.0354-0.87353-2.082-3.957z" transform="matrix(.8 0 0 -.8 65.338 649.13)" fill="#fff"/><path d="m124.01 10.914-2.8867 0.0039-2.043 14.744 2.8867-0.0059 2.043-14.742zm-8.7266 0.16797-2.7344 0.002-1.998 9.8086h-0.12109l0.73828-9.8047-2.7363 0.0039-0.23047 14.742 3.2109-0.0059 3.8711-14.746zm-12.592 0.37695-2.4668 0.22656-0.37695 7.6211-0.11914 0.01172-1.002-7.4902-2.6875 0.25-0.70117 14.869 2.4844-0.23242 0.33789-7.2871 0.11914-0.01172 1.0391 7.1602 2.6719-0.24805 0.70117-14.869zm28.527 0.01172-3.0938 14.557 4.6172 0.32617 0.49219-2.3652-1.7227-0.12109 2.5859-12.193-2.8789-0.20312zm10.613 0.83398-3.9824 14.338 4.5898 0.61328 0.63476-2.334-1.7109-0.22656 3.3301-12.01-2.8613-0.38086zm-53.686 1.043c-0.38223 0.01421-0.82534 0.06316-1.334 0.125-1.492 0.17978-2.4381 0.31409-2.9375 1.0332-0.41175 0.57875-0.4218 1.3667-0.44726 2.4492l-0.16602 8.8887c-0.02112 0.69615 0.01089 1.2414 0.05664 1.6191 0.11175 0.92791 0.69097 1.2103 1.7324 1.209 0.4139-0.000862 0.90029-0.04761 1.4609-0.11523 1.4916-0.18194 2.402-0.34631 2.8906-1.0078 0.45922-0.62206 0.45064-1.4075 0.47266-2.5078l0.19-8.891c0.01125-0.62294 0.0039-1.0981-0.03906-1.459-0.13498-1.1222-0.72831-1.3864-1.875-1.3438zm64.205 0.57812-4.5449 14.17 4.5625 0.79297 0.72852-2.3047-1.7012-0.29688 1.3887-4.3262 1.6992 0.29492 0.74609-2.3027-1.7188-0.29883 0.94336-2.9492 1.7168 0.29883 0.74219-2.2852-4.5625-0.79297zm-76.822 1.666c-0.48666 0.0053-1.099 0.12417-1.8574 0.28711-2.7735 0.59825-3.2419 1.0161-3.0391 3.7578l0.12695 1.7363c0.01512 0.23826 0.035 0.49487 0.09375 0.76172 0.17392 0.81441 0.62398 1.3684 1.3301 1.6426l2.0137 0.75391c0.4752 0.17675 0.54156 0.32734 0.59766 0.59375 0.019 0.08888 0.02498 0.19946 0.03711 0.32812l0.15625 2.2129c0.03275 0.47565-0.01318 0.74342-0.34766 0.81445-0.28356 0.062-0.42745-0.03485-0.49219-0.33594-0.02638-0.12438-0.04492-0.21412-0.04492-0.28906l-0.20117-2.9082-2.8418 0.61328 0.20703 3c0.0475 0.71349 0.12896 1.1788 0.17774 1.4102 0.1981 0.92054 0.64954 1.2348 1.4609 1.2344 0.48642-0.000875 1.1026-0.11535 1.873-0.28125 1.5033-0.32532 2.4087-0.57888 2.8105-1.3145 0.35305-0.63334 0.25873-1.4098 0.19141-2.4551l-0.19-2.779c-0.01125-0.2205-0.02264-0.44033-0.07227-0.66992-0.16746-0.78149-0.65246-1.3284-1.4453-1.6035l-1.8359-0.66016c-0.4165-0.15291-0.55715-0.30842-0.60938-0.55664-0.03325-0.15985-0.04509-0.28812-0.04297-0.36133l-0.10742-1.4062c-0.02887-0.45875 0.02942-0.75078 0.36524-0.82227 0.28442-0.06062 0.42831 0.03871 0.49219 0.33984 0 0 0.01909 0.08785 0.02734 0.29102l0.15625 2.1191 2.7891-0.60156-0.1582-2.2129c-0.03888-0.51118-0.05469-0.98842-0.14063-1.3965-0.20285-0.9441-0.66546-1.251-1.4766-1.2422zm11.287 0.31836c0.23178 0 0.33829 0.11812 0.37109 0.38672 0.0012 0.01738 0.01337 0.10844 0 0.29297l-0.17188 8.7051c-0.01 0.49514-0.06579 0.75746-0.45508 0.80469-0.27105 0.03375-0.38672-0.08043-0.42383-0.38672-0.01125-0.09013-0.02128-0.18123-0.01953-0.30859l0.16992-8.7051c0.01462-0.46006 0.05267-0.73903 0.42383-0.7832 0.03838-0.0038 0.07322-0.0059 0.10547-0.0059zm85.041 2.3633c-1.3815-0.10216-1.9045 0.47732-2.6387 2.4023l-0.62109 1.627c-0.0864 0.22224-0.17613 0.46101-0.23828 0.72656-0.18904 0.81268-0.0174 1.5061 0.5039 2.0566l1.502 1.543c0.35564 0.36172 0.3523 0.52828 0.29101 0.79297-0.0203 0.08925-0.0597 0.19208-0.10547 0.3125l-0.79687 2.0684c-0.17308 0.4436-0.32849 0.66934-0.66211 0.5918-0.28314-0.06588-0.36983-0.21694-0.30078-0.51758 0.0289-0.12262 0.0497-0.21172 0.082-0.2793l1.0508-2.7188-2.8301-0.66016-1.0879 2.8047c-0.25939 0.66625-0.38246 1.1211-0.43554 1.3516-0.33838 1.4668 0.56467 1.8089 2.6113 2.2871 0.82609 0.19278 1.4791 0.32705 2.0117 0.32617 0.43117 0 0.78491-0.09219 1.0879-0.31445 0.5887-0.42194 0.83354-1.1644 1.2168-2.1387l1.0039-2.5957c0.0803-0.20576 0.16393-0.4106 0.21875-0.64062 0.18041-0.77932-0.0278-1.4799-0.62696-2.0664l-1.3809-1.3828c-0.3142-0.3158-0.37315-0.51588-0.31445-0.76367 0.0363-0.15855 0.0805-0.27899 0.11328-0.3457l0.5-1.3203c0.16745-0.4254 0.3454-0.66435 0.67774-0.58594 0.284 0.06587 0.37026 0.21737 0.30078 0.51758 0 0-0.0192 0.0887-0.0977 0.27539l-0.75781 1.9844 2.7793 0.64844 0.79492-2.0703c0.1817-0.47912 0.37075-0.92005 0.46484-1.3281 0.34658-1.501-0.59682-1.8145-2.6094-2.2832-0.6911-0.16115-1.2466-0.27063-1.707-0.30469zm-109.08 0.26758-2.7246 0.90234 0.07813 6.2051-0.11328 0.03906-1.0527-5.8848-2.627 0.87109 2.6367 14.648 2.6289-0.87109-1.2637-7.0176 0.11328-0.03711 2.5273 6.5977 2.7598-0.91211-3.2148-7.4805 0.25195-7.0605zm119.72 3.1152-1.1914 2.1445 1.4004 0.54297-6.0254 10.857 2.6914 1.0449 6.0293-10.857 1.4023 0.54492 1.1934-2.1465-5.5-2.1309zm-133.86 2.344c-0.54603-0.01603-1.2634 0.23421-2.2207 0.60156-1.42 0.54584-2.2921 0.90109-2.6016 1.7207-0.24256 0.65672-0.08174 1.4122 0.16211 2.4844l1.9902 8.6621c0.1502 0.68099 0.3113 1.2038 0.44727 1.5586 0.23694 0.6199 0.62363 0.86567 1.1895 0.86523 0.54858-0.000862 1.2647-0.23353 2.1758-0.58398 1.4027-0.53934 2.2465-0.92247 2.5586-1.6836 0.28485-0.69399 0.10184-1.4587-0.14844-2.5469l-0.72461-3.2422-2.7109 1.0449 0.72266 3.1406c0.10312 0.46482 0.12079 0.75093-0.24609 0.89258-0.2555 0.09788-0.3958 0.01699-0.50586-0.27148-0.0255-0.068-0.0635-0.17016-0.09375-0.29492l-1.9414-8.4863c-0.09838-0.44706-0.1289-0.72812 0.2207-0.86328 0.28615-0.11088 0.44592-0.03466 0.55469 0.25391 0.0075 0.01738 0.02156 0.10735 0.07031 0.2832l0.44336 1.9277 2.6953-1.0371s-0.71989-3.0851-0.84766-3.4238c-0.27-0.704-0.644-0.986-1.19-1.002zm146.26 3.584-10.342 11.16 2.3945 1.2891 1.9258-2.2617 1.0684 0.57617-1.5488 2.4609 2.4082 1.2969 7.1816-12.861-3.0879-1.6602zm-160.7 2.6992-2.9062 1.9609 4.9922 14.395 2.2559-1.5234-1.0898-2.7637 1.0059-0.67773 1.4453 2.5234 2.2676-1.5293-7.9707-12.385zm159.95 1.1621 0.10547 0.05664-3.0059 4.8301-0.83008-0.44531 3.7305-4.4414zm10.328 1.9453-1.6816 1.7852 1.2266 0.87305-8.5098 9.0312 2.3535 1.6777 8.5098-9.0293 1.2246 0.87305 1.6816-1.7832-4.8047-3.4277zm-170.03 1.2539 2.8477 4.9258-0.7793 0.52539-2.168-5.3848 0.09961-0.06641zm-10.438 3.4746-2.2812 1.7773 5.8574 10.256c0.22271 0.40114 0.3368 0.65888 0.02734 0.90234-0.23177 0.17718-0.39233 0.16492-0.58008-0.07813-0.08977-0.1165-0.14269-0.21277-0.16211-0.26562l-1.5137-2.6562-2.1602 1.6816 1.5566 2.7402c0.36254 0.63636 0.6606 1.0466 0.81641 1.248 0.33881 0.44012 0.67531 0.6352 1.0547 0.63477 0.5736-0.000862 1.2444-0.44844 2.1797-1.1758 2.3341-1.8212 2.4492-2.3719 1.1035-4.7246l-5.896-10.34zm190.75 3.7324-12.057 8.668 3.1953 3.3633 1.9531-1.416-1.1934-1.2539 3.6836-2.6465 1.1914 1.2539 1.9648-1.4043-1.2031-1.2676 2.5059-1.8047 1.2031 1.2637 1.9492-1.3926-3.1934-3.3633z" transform="matrix(.8 0 0 -.8 65.338 649.13)" stroke="#fff" stroke-width="0.2" fill="#fff"/></g></g></svg>
