<?xml version="1.0" encoding="UTF-8" standalone="no"?>
<svg xmlns:rdf="http://www.w3.org/1999/02/22-rdf-syntax-ns#" xmlns="http://www.w3.org/2000/svg" xml:space="preserve" height="103.07" viewBox="0 0 125.51063 103.07125" width="125.51" version="1.1" xmlns:cc="http://creativecommons.org/ns#" xmlns:dc="http://purl.org/dc/elements/1.1/"><g transform="matrix(1.25 0 0 -1.25 -189.64 878.6)"><g transform="matrix(.5 0 0 .5 101.31 331.17)"><path d="m299.93 684.08h-18.822l11.698 57.623h-143.21l-9.185-43.625h-22.576l-6.021-29.032h3.836l-3.327-15.565-3.643-0.008-6.367-28.921h31.412l-0.48-2.237-0.006-0.033c-2.383-11.368 0.036-22.551 6.639-30.68 6.082-7.489 14.985-11.613 25.071-11.613h51.452c9.414 0 19.021 4.285 27.052 12.067 7.267 7.04 12.574 16.295 14.562 25.407l1.518 7.099h15.417c7.768 0 14.964 5.872 16.74 13.66l2.395 11.368c0.465 2.285 0.459 4.586 0.002 6.741l5.843 27.749z" fill="#fff"/><path d="m290.48 658.27 4.608 21.887h-26.871c-0.27 0-0.542-0.011-0.815-0.028l1.647 7.703h8.811l10.14 49.948h-135.23l-9.186-43.625h-22.566l-4.393-21.186h3.866l-5.002-23.404-3.663-0.008-4.642-21.082h28.458l4.027 18.759c0.667-1.515 1.326-3.004 1.972-4.458l-4.56-21.244-0.012-0.054c-2.139-10.207-0.009-20.195 5.844-27.403 5.323-6.553 13.145-10.163 22.026-10.163h51.453c18.111 0 34.155 17.773 37.777 34.372l2.182 10.201h18.59c5.885 0 11.558 4.661 12.915 10.609l2.375 11.278c0.576 2.836 0.222 5.617-0.97 7.898h1.216z" fill="#27251f"/><path d="m74.746 19.283-7.0898 33.676h11.396l-3.3926 15.805 7.2148-9.3281h32.732l-5.4863 26.461-4.5801 0.01953-6.1465 29.246h1.0293l14.934-38.229h4.709l12.162-57.65h-57.482zm82.803 0-12.16 57.65h4.0332l-0.25586 16.334 0.70703-3.377c1.7962-8.425 10.299-12.957 17.391-12.957h24.406l5.127-23.975h10.889l6.8379-33.676h-56.975zm-90.087 102.62l-4.4355 5.707-5.498 25.621c-3.2912 15.7 5.0637 29.627 20.764 29.627h64.316c15.701 0 30.132-17.724 33.172-31.65l2.1094-9.8652c-0.7325 0.115-1.4737 0.17773-2.2187 0.17773h-43.908l-1.5625 7.4062h-25.32l1.5625-7.4062h-8.0117l-0.002 0.0137h-35.143l4.1758-19.631z" transform="matrix(.8 0 0 -.8 102.31 741.71)" fill="#971b2f"/><path d="m132.22 19.283-26.426 16.648-5.0547 23.504h14.865l-5.4883 26.461-4.5801 0.01953-6.1465 29.246h1.0293l14.934-38.229h4.709l12.158-57.65zm82.295 0-37.469 16.648-8.7988 41.002h23.414l5.1289-23.975h10.889l6.8359-33.676zm-36.63 122.06c-0.7325 0.115-1.473 0.17773-2.2168 0.17773h-21.281l-1.8144 8.4531c-1.52 6.9638-8.7359 15.826-16.586 15.826h-44.564c-4.1675 0-7.2855-1.974-9.0605-4.9902l-22.439 11.701c3.5075 6.25 9.8533 10.348 18.363 10.348h64.318c15.7 0 30.131-17.724 33.17-31.65l2.1113-9.8652zm-71.445 0.17773-23.361 0.0137-2.0332 9.4512c-0.77375 3.6812-0.24914 7.1573 1.3184 9.8223l22.783-11.881h-0.26953l1.5625-7.4062z" transform="matrix(.8 0 0 -.8 102.31 741.71)" fill="#572932"/><path d="m292.17 677.79h-23.951c-3.108 0-6.56-1.329-8.924-3.697l0.779 3.697h-23.953c-4.81 0-10.461-3.169-11.594-8.481l-2.086-9.972c-0.669-3.062-0.076-6.031 1.627-8.147 1.058-1.316 2.482-2.204 4.12-2.597h-7.247l-0.869-4.115h-1.153l0.522 33.312h-23.228l-13.063-33.442h-1.055l0.625 2.859h-3.812l5.91 28.126 3.659 0.016 3.409 16.439h-22.114l-16.747-21.655-8.023 21.655h-22.051l-3.411-16.448h3.885l-6.014-28.138-3.675-0.008-3.6-16.348h23.596l5.17 24.076c2.26-5.223 8.234-18.649 8.234-18.649l13.609 17.517-4.878-22.944 39.664 0.011 3.592 10.321h3.076l-1.045-10.321h16.044 2.277 23.373c2.541 0 5.079 1.134 7.064 2.928l-0.618-2.928h25.652c4.745 0 9.502 3.932 10.613 8.805l2.356 11.185c0.586 2.881 0.005 5.656-1.593 7.612-0.83 1.015-1.895 1.755-3.114 2.182h5.352l3.61 17.149z" fill="#971b2f"/><path d="m68.914 12.094-10.117 48.055h11.359l-4.6758 21.779 10.178-13.164 3.3926-15.805h-11.395l7.0918-33.676h57.48l-12.162 57.65h7.3496l13.678-64.84h-72.18zm82.805 0-13.678 64.84h7.3476l12.16-57.65h56.975l-6.8398 33.676h-10.885l-5.1289 23.975h7.3516l3.5918-16.785h10.949l9.7559-48.055h-71.6zm-123.51 53.266-3.0352 14.637h4.8789l-8.7812 41.088-4.6113 0.0117-3.1953 14.518h23.418l7.916-36.861c3.7938 8.9975 7.9126 18.323 11.924 27.32l21.902-28.188-8.0234 37.729h23.059l3.1719-14.529h-4.7344l8.6309-41.068 4.5664-0.01953 3.0352-14.637h-22.551l-23.311 30.139-11.166-30.139h-23.094zm91.189 17.494-16.328 41.805h-4l-2.2871 10.941h17.637l4.4902-12.902h9.2266l-1.3066 12.902h17.227l2.3672-11.104h-3.6719l0.65234-41.643h-24.006zm47.863 0.002c-4.9812 0-10.532 3.2661-11.594 8.2461l-2.6133 12.492c-1.1425 5.225 1.4698 10.125 6.7773 10.125h14.289l-2.3691 10.777h-8.084l1.1445-5.1426h-14.125l-3.4297 16.246h28.414c4.5725 0 9.3079-4.0012 10.369-8.6562l2.9394-13.961c0.97875-4.8175-1.3888-9.2246-6.2051-9.2246h-14.941l2.1211-10.043h8.4102l-0.97852 4.6523h12.9l3.2656-15.512h-26.291zm40.156 0c-4.98 0-10.531 3.2661-11.594 8.2461l-2.6113 12.492c-1.1425 5.225 1.4691 10.125 6.7754 10.125h14.289l-2.3672 10.777h-8.084l1.1426-5.1426h-14.125l-3.4297 16.246h28.412c4.5738 0 9.3111-4.0012 10.371-8.6562l2.9414-13.961c0.97751-4.8175-1.3895-9.2246-6.207-9.2246h-14.941l2.123-10.043h8.4102l-0.98047 4.6523h12.9l3.2656-15.512h-26.291zm-77.98 9.144h0.49023l-1.0605 21.309h-6.9395l7.51-21.31zm-66.414 35.611-7.6914 9.8965-1.207-2.707-3.6387 16.957c-2.2275 10.629-0.09664 20.923 5.8496 28.244 5.2625 6.4775 13.057 10.047 21.951 10.047h64.316c18.891 0 36.345-19.661 40.201-37.336l2.3945-11.191h-5.127l0.15626-0.73828c-0.76751 0.24875-1.5513 0.43555-2.3438 0.56055l-2.1094 9.8652c-3.04 13.926-17.471 31.65-33.172 31.65h-64.316c-15.7 0-24.055-13.927-20.764-29.627l5.5-25.621zm43.412 13.91-1.5625 7.4062h25.322l1.5625-7.4062h-25.322z" transform="matrix(.8 0 0 -.8 102.31 741.71)" fill="#fff"/><path d="m51.305 65.359-7.328 7.391h-3.0234l-11.947 55.668h-7.0762l-8.4629 7.1953h23.418l7.916-36.861-0.78906-25.793 15.436 38.371-2.7227 14.744 21.902-28.188 14.271-24.928-11.596 55.062-10.699 7.5918h23.016l3.1738-14.529h-4.6934l8.7246-41.076 4.4688-0.0098 3.0371-14.639-8.5156 7.3848h-10.576l-29.533 38.107 2.764-15.35-11.166-30.141zm142.25 17.486-7.9609 5.3262h-16.941c-2.4912 0-5.2688 1.633-5.7988 4.123l-0.9668 4.6211s-0.97047 4.7095-1.3867 6.6445c-0.41625 1.9338 0.14609 3.0605 0.46484 3.5742l-7.0059 3.3672c1.165 1.9375 3.1706 3.209 5.873 3.209h14.289l6.8691-3.3184c0.3425 0.70875 0.58664 1.7371 0.24415 3.2559l-2.42 11.26c-0.63 2.91-2.2 5.09-5.85 5.09h-17.578l-8.125 5.5938h28.416c4.5712 0 9.3079-4.0006 10.369-8.6543l2.9394-13.963c0.4625-2.2788 0.17828-4.4681-0.76172-6.1406l-7.2539 3.5312c-0.54-1.2-1.6411-1.6895-3.1836-1.6895 0 0-11.555-0.0254-13.539-0.0254-1.9825 0-2.5206-0.51226-3.2793-1.541l6.8691-3.3613 2.123-10.045h8.4102l-0.98047 4.6562h12.902l3.2656-15.516zm40.156 0-7.9609 5.3262h-16.941c-2.49 0-5.2676 1.633-5.7988 4.123l-0.96485 4.6211s-0.97242 4.7095-1.3887 6.6445c-0.4175 1.9338 0.14609 3.0605 0.46484 3.5742l-7.0039 3.3672c1.165 1.9375 3.1673 3.209 5.8711 3.209h14.289l6.8691-3.3184c0.34375 0.70875 0.5886 1.7371 0.2461 3.2559l-2.4238 11.26c-0.6375 2.9125-2.2028 5.0918-5.8516 5.0918h-17.578l-8.125 5.5938h28.416c4.5725 0 9.3079-4.0006 10.369-8.6543l2.9394-13.963c0.4625-2.2788 0.17899-4.4681-0.75976-6.1406l-7.2559 3.5312c-0.54-1.2-1.6391-1.6895-3.1816-1.6895 0 0-11.557-0.0254-13.541-0.0254-1.9812 0-2.5206-0.51226-3.2793-1.541l6.8711-3.3613 2.1211-10.045h8.4102l-0.97852 4.6562h12.9l3.2656-15.516zm-90.312 0.0098-6.6348 5.4414h-12.783l-15.447 41.807h-5.25l-6.5078 5.498h17.637l4.4922-12.9h9.2266l7.3906-4.541-0.58398 12.018-8.1133 5.4238h17.229l2.3672-11.104h-3.6738l0.65235-41.643zm-6.7109 5.6289-1.2168 29.52h-22.295l8.75-4.6934 7.51-21.31h0.48828l6.7617-3.5156z" transform="matrix(.8 0 0 -.8 102.31 741.71)" fill="#b1b3b3"/></g></g></svg>
