<?xml version="1.0" encoding="UTF-8" standalone="no"?>
<svg xmlns:rdf="http://www.w3.org/1999/02/22-rdf-syntax-ns#" xmlns="http://www.w3.org/2000/svg" xml:space="preserve" height="161.33" viewBox="0 0 150 161.32697" width="150" version="1.1" xmlns:cc="http://creativecommons.org/ns#" xmlns:dc="http://purl.org/dc/elements/1.1/"><g transform="matrix(1.25 0 0 -1.25 -2.5754 989.72)"><g transform="matrix(3.1523 0 0 3.1523 -131.14 -1562.8)"><path d="m71.477 730.18c0.62-0.029 0.994-0.18 1.3-0.311 1.129-0.479 0.641-0.788 0.864-1.711-0.149 0.064-1.984 1.848-2.164 2.022m-0.074-5.081c0.176-0.41 0.198-0.827-0.005-1.096-0.357-0.473-1.674-1.007-1.933-1.295-0.708-0.073-1.028-0.712-1.028-0.712-0.052 0.006-0.13 0.012-0.233 0.008v0.934c0.33 0.311 0.543 0.733 0.543 0.733 0.749 0.234 0.419 0.691 1.732 1.926 0.394-0.103 0.802-0.212 0.924-0.498m-4.15-0.726 0.001 2.41 0.214 0.203c0.89-0.227 1.708-0.636 1.886-0.82-0.096-0.484-0.605-0.821-0.752-0.985 0 0-0.168-0.345-0.493-0.381-0.249-0.027-0.314-0.352-0.856-0.427m0.312-2.668h-2.51c-0.124 0-0.267 0.023-0.516 0.229-0.249-0.206-0.392-0.229-0.515-0.229h-2.51v1.561c0.18 0.057 0.95 0.161 0.95 0.891v3.9l-3.06-4.318-3.06 4.318v-3.9c0-0.73 0.77-0.834 0.95-0.891v-1.561h-2.51c-0.123 0-0.266 0.023-0.515 0.229-0.249-0.206-0.392-0.229-0.516-0.229h-2.51v1.572c0.284 0.088 0.95 0.155 0.95 0.88l-0.001 2.626c0 0.354-0.225 0.518-0.225 0.518l-0.482 0.389 0.489 0.423s0.218 0.158 0.218 0.512l0.001 2.61c0 0.802-0.951 0.88-0.95 0.88v1.572l2.187-0.003c0.159-0.016 0.308-0.09 0.441-0.192 0.299 0.2 0.494 0.195 0.494 0.195h1.29c0.396-0.004 0.554-0.178 0.657-0.309l3.092-4.364 3.092 4.364c0.055 0.07 0.125 0.151 0.239 0.214 0.099 0.054 0.233 0.093 0.418 0.095h1.29s0.195 0.005 0.494-0.195c0.16 0.122 0.249 0.167 0.492 0.192l2.136 0.003v-1.572c0.001 0-0.95-0.078-0.95-0.88v-2.61c0-0.355 0.218-0.512 0.218-0.512l0.49-0.423-0.482-0.389s-0.226-0.164-0.226-0.518v-2.626c0-0.725 0.665-0.792 0.95-0.88v-1.572zm-8.65 15.546c0.438-0.07 0.526-0.305 1.246-0.411 0.096-0.015 0.218-0.219 0.406-0.261 0.156 0.042 0.509-0.156 0.593-0.332-0.829 0.033-1.662-0.4-1.975-0.59-1.324 0.919-0.507 0.842-0.917 1.744 0 0 0.379-0.107 0.647-0.15m19.598-10.977c0.055 0.254-0.118 0.504-0.284 0.575-0.122 0.656-0.206 0.999-0.257 1.242 0.195 0.856-0.129 1.434 0.189 1.549 0.671 0.241 1.026 0.985 1.026 0.985s-0.803-0.32-1.303 0.076c-0.463 0.367-0.728 0.312-0.728 0.312 0.028 0.865-0.642 1.021-0.357 2.074-0.474-0.241-0.581-1.132-0.581-1.132-0.049 2.65-1.036 3.231-1.036 3.231 0.035-0.947-0.624-1.101-0.624-1.101-0.192 0.347 0.042 1.632 1.612 1.707 0 0-1.635 1.165-2.626 0.114 0.143 0.802 0.073 1.169-0.224 1.436 0.074-0.436-0.624-0.609-0.624-0.609-0.06 0.564 0.099 1.503 1.662 1.826-0.342 0.249-1.871 0.389-2.629-0.28-0.117 0.499 0.268 0.862 0.268 0.862-0.875-0.286-0.852-0.781-1.17-0.507-0.317 0.274-0.531 0.219-0.531 0.219 0.116-0.246 0.24-0.928-0.633-1.153-0.491-0.127-0.136 0.587 0.102 0.721-0.967-0.134-1.805-1.12-2.124-1.931-0.397-0.102-1.055-0.049-1.266 0.026-0.42 0.148-1.122 0.323-1.7 0.272-0.674-0.06-0.703 0.184-0.655 0.322s-0.026 0.342-0.323 0.337c-0.188-0.003-0.264 0.176-0.638 0.196-0.853 0.047-1.267-0.242-1.421-0.242-0.208 0-0.498 0.137-0.666 0.302-0.195 0.192-1.269 0.718-1.57 1.009-0.266 0.256-0.499-0.063-0.822 0.26-0.507 0.507-1.395 0.972-1.8 1.154-0.208 0.094-0.666 0.427-0.696 0.614-0.136 0.831-0.56 0.622-0.612 1.002-0.019 0.141 0.174 0.156 0.388 0.174 0.121 0.011 0.422 0.063 0.371 0.419-0.019 0.13 0.091 0.351 0.091 0.351 0.159 0.04 0.153 0.061 0.189 0.32 0.046 0.321 0.514 0.109 0.808 0.016 0.729-0.23 0.743-0.134 0.787 0.042 0.307 1.224-1.635 1.773-1.648 1.774 0 0 0.071 0.559 0.056 0.793-0.01 0.168-0.117 0.324-0.535 0.357-0.479 0.038-0.87 0.535-1.922-0.002-0.195-0.099-0.222-0.948-0.37-1.124-1.387-0.111-1.832-0.947-1.709-1.17 0.102-0.186 0.894-0.141 1.133-0.14 0.34 0.002 0.214-0.232 0.316-0.399s0.037-0.345-0.036-0.45c-0.726 0.026-0.78 0.488-1.323 0.349-0.252-0.064-0.551-0.004-0.882 0.126-0.31 0.121-1.58 0.099-1.69-0.769 0.85 0.405 1.134-0.126 1.134-0.126s-0.353-0.098-0.409-0.378c0.389 0.215 0.723 0.099 0.869 0.077 0.765-0.115 0.896 0.346 1.192 0.335 0.486-0.017 0.758-0.103 0.758-0.103-0.335-0.317-0.808-0.172-0.986-0.353-0.062-0.064-0.085-0.219-0.199-0.425-0.082-0.147-0.402-0.115-0.544-0.593-0.119-0.401-1.094-0.729-1.713-1.624-0.62-0.895-0.676-0.243-1.609-2.135-0.255-0.517-0.776-0.316-0.904-0.79-0.272-1.008-1.004-0.553-1.17-1.962-0.011-0.09-0.069-0.341-0.04-0.479 0.029-0.137 0.024-0.55 0.225-0.482 0.467 0.157 0.432 0.849 0.764 0.874 0.176 0.013 0.154-0.36 0.387-0.33 0.331 0.044 0.046 0.335 0.488 0.878 0.236 0.29-0.052 0.764 0.201 0.887 0.873 0.423 0.785 0.936 0.9 0.978 0.529 0.191 0.734 0.37 1.396 1.045 0.469 0.478 1.525 0.816 1.605 0.813 0.125-0.005 0.185-0.048 0.249-0.125 0.064-0.076 0.839-1.109 0.907-1.476 0.057-0.302 0.282-0.464 0.411-0.784 0.165-0.411 0.352-0.516 0.542-0.532 0.325-0.028 0.697 0.225 1.105-0.183 0.116-0.116 0.134-0.301 0.502-0.407 0.367-0.106 0.434-0.292 0.486-0.407 0.047-0.105 0.181-0.208 0.214-0.392-0.16 0.066-0.353 0.115-0.594 0.115h-5.059v-2.551l0.854-0.375c0.09-0.037 0.097-0.089 0.097-0.164l-0.001-2.61-0.958-0.935 0.958-0.907 0.001-2.626c0-0.123-0.058-0.154-0.082-0.161l-0.621-0.345c-1.185 0.462-2.643 2.695-5.071 1.943-1.356-0.42-2.131-1.746-2.147-2.494 0.471 0.573 1.144 0.596 1.144 0.596s-2.182-1.635-1.741-3.592c0.213 0.642 0.79 0.926 0.79 0.926s-1.405-3.027 1.435-4.275c-0.81 1.216-0.388 1.992-0.388 1.992s0.125-0.787 0.886-1.046c-0.467 1.782-0.023 3.248 2.394 3.581-0.255-0.197-0.343-0.57-0.343-0.57s0.924 0.728 2.512 0.322c0.709-0.181 1.461 0.016 1.461 0.016 0.072-0.567 0.418-1.563 2.039-3.096 0.78-0.739-0.31-1.807-1.134-2.419-1.157-0.861-0.506-1.333-0.215-1.803 0.291-0.471 1.27-2.179 1.319-2.476 0.267-1.646 1.005-1.242 0.807-1.777-0.085-0.229-0.242-0.269-0.296-0.43-0.054-0.162-0.161-0.7-0.269-0.888 0.242-0.377 1.238-1.211 1.803-1.4 0.165 0.376 0.511 1.615 0.135 2.234-0.377 0.619-0.071 0.974-0.216 1.426-0.129 0.405-0.592 1.212-1.028 1.964-0.452 0.778-0.246 2.037 0.059 2.235 0.408 0.264 1.804 1.588 2.557 2.341 0.054-1.13-0.403-2.126-0.565-2.691-0.284-0.995 0.832-0.794 1.42-0.648 0.722 0.18 3.979 1.334 4.932 0.756 0.54-0.329 0.903-0.009 0.664-0.997 0.081-0.188 0.336-0.818 0.336-0.818 0.772-0.129 2.146-0.175 2.338 0.314-0.409 0.72-0.869 1.311-1.53 1.655-0.263 0.423-0.875 1.527-1.897 1.375-1.558-0.23-3.215-0.803-3.436-0.141-0.134 0.402 0.431 0.889 0.734 1.447 0.295 0.542 1.196 1.59 1.159 3.854h5.362c-0.247-0.447-0.424-0.969-0.314-1.53 0.863 0.058 1.561 0.596 1.833 0.789 0.15 0.572 0.628 0.404 1.023 0.845 0.72-0.224 1.796 1.252 2.406 1.885 0.837 0.869 1.213 0.605 1.379 2.076 0.107 0.944-1.055 1.634-1.428 2.151 0.287 0.806 0.08 1.057-0.461 1.238-0.54 0.181-0.793 0.198-0.777 0.431 0.033 0.466 0.025 0.934 0.441 1.014 0.728-0.636 2.408-2.366 2.81-2.683 0.565-1.385 1.37-0.777 1.999-2.132-0.173-0.452-0.269-1.006 0.361-1.09 0.365-0.049 0.307-0.179 0.432-0.259 0.472-0.302 0.57 0.2 0.602 0.323 0.008 0.031 0.171 0.031 0.193 0.019 0.11-0.191 0.396-0.387 0.652-0.41 0.257-0.024 0.587 0.486 0.64 0.625 0.114 0.293 0.406 0.317 0.361 0.823-0.051 0.591-0.526 0.698-0.501 1.092" fill="#00529b"/><path d="m66.095 731.24v-2.611h0.001c0-0.593 0.502-0.935 0.502-0.935s-0.502-0.313-0.502-0.906h-0.001v-2.627c0-1.037 0.951-1.282 0.951-1.282v-0.649h-1.991c-0.118 0-0.516 0.436-0.516 0.436s-0.396-0.436-0.515-0.436h-1.99v0.649s0.951 0.245 0.951 1.282v5.534l-3.58-5.052-3.581 5.052v-5.534c0-1.037 0.951-1.282 0.951-1.282v-0.649h-1.99c-0.118 0-0.516 0.436-0.516 0.436s-0.397-0.436-0.515-0.436h-1.991v0.649s0.951 0.245 0.951 1.282v2.627l-0.001-0.001c0 0.594-0.502 0.907-0.502 0.907s0.502 0.342 0.502 0.935h0.001v2.611c0 1.037-0.951 1.282-0.951 1.282v0.649h1.615c0.202-0.02 0.493-0.435 0.493-0.435s0.292 0.415 0.495 0.435h1.289c0.108-0.001 0.167-0.012 0.233-0.09l3.517-4.962 3.516 4.962c0.031 0.037 0.061 0.059 0.095 0.072 0.038 0.014 0.081 0.018 0.138 0.018h1.289c0.203-0.02 0.494-0.435 0.494-0.435s0.292 0.415 0.495 0.435h1.614v-0.649s-0.951-0.245-0.951-1.282" fill="#ffd204"/><path d="m52.99 709.51c0 0.225-0.17 0.405-0.382 0.405h-0.002c-0.21 0-0.382-0.18-0.382-0.403 0-0.227 0.172-0.405 0.384-0.405 0.212-0.002 0.382 0.178 0.382 0.403m0.087 0.002c0-0.269-0.208-0.479-0.471-0.479-0.261 0-0.473 0.21-0.473 0.479 0 0.265 0.212 0.478 0.473 0.478h0.002c0.261 0 0.469-0.213 0.469-0.478m-0.369 0.108c0 0.047-0.034 0.094-0.129 0.094-0.028 0-0.047-0.003-0.062-0.005v-0.18h0.062c0.069 0 0.129 0.026 0.129 0.091m0.074-0.254c0.013-0.083 0.025-0.115 0.034-0.132h-0.089c-0.013 0.017-0.026 0.066-0.036 0.136-0.013 0.068-0.047 0.094-0.115 0.094h-0.059v-0.23h-0.085v0.533c0.044 0.006 0.087 0.013 0.151 0.013 0.08 0 0.133-0.018 0.165-0.041s0.049-0.059 0.049-0.11c0-0.07-0.047-0.113-0.104-0.13v-0.004c0.047-0.008 0.078-0.051 0.089-0.129m10.372 24.319c-0.186-0.002-0.319-0.041-0.419-0.095l0.281-0.443c0.038 0.014 0.082 0.017 0.138 0.018h1.29c0.202-0.021 0.493-0.435 0.493-0.435v0.76c-0.298 0.2-0.493 0.195-0.493 0.195h-1.29zm5.449-8.506c0.147 0.164 0.656 0.501 0.751 0.985-0.178 0.184-0.996 0.593-1.885 0.82l-0.215-0.203v-2.41c0.541 0.075 0.607 0.4 0.855 0.427 0.326 0.036 0.494 0.381 0.494 0.381m-1.987-1.024v2.626c0 0.354 0.226 0.518 0.226 0.518l0.482 0.389-0.49 0.423s-0.218 0.157-0.218 0.512v2.611c0 0.801 0.951 0.879 0.95 0.879v1.572l-2.136-0.002 0.002-0.518h1.614v-0.649s-0.951-0.245-0.951-1.282v-2.611h0.001c0-0.594 0.502-0.935 0.502-0.935s-0.502-0.313-0.502-0.907h-0.001v-2.626c0-1.038 0.951-1.282 0.951-1.282v-0.65l0.52-0.52v1.572c-0.285 0.088-0.95 0.155-0.95 0.88m-2.592-1.932v-0.52c0.124 0 0.267 0.023 0.516 0.229v0.728s-0.397-0.437-0.516-0.437m14.991 2.957c-0.052 0.591-0.526 0.699-0.501 1.092 0.055 0.254-0.118 0.504-0.284 0.575-0.122 0.656-0.206 0.999-0.258 1.243 0.195 0.855-0.128 1.433 0.19 1.548 0.671 0.241 1.026 0.985 1.026 0.985s-0.804-0.32-1.304 0.076c-0.463 0.367-0.727 0.312-0.727 0.312 0.028 0.865-0.643 1.022-0.357 2.074-0.474-0.241-0.581-1.132-0.581-1.132-0.049 2.65-1.036 3.231-1.036 3.231 0.035-0.946-0.624-1.1-0.624-1.1-0.192 0.346 0.042 1.631 1.612 1.707 0 0-1.635 1.164-2.626 0.113 0.143 0.802 0.073 1.169-0.224 1.436 0.073-0.436-0.625-0.609-0.625-0.609-0.059 0.565 0.1 1.503 1.663 1.826-0.342 0.249-1.871 0.389-2.629-0.28-0.117 0.499 0.268 0.862 0.268 0.862-0.875-0.286-0.852-0.781-1.17-0.507s-0.531 0.219-0.531 0.219c0.116-0.245 0.24-0.928-0.633-1.153-0.492-0.127-0.137 0.588 0.101 0.721-0.966-0.133-1.805-1.12-2.124-1.93-0.396-0.103-1.054-0.05-1.265 0.025-0.42 0.148-1.122 0.323-1.7 0.272-0.674-0.06-0.703 0.184-0.655 0.322s-0.026 0.342-0.324 0.337c-0.187-0.003-0.263 0.176-0.637 0.196-0.853 0.048-1.267-0.242-1.421-0.242-0.208 0-0.498 0.137-0.666 0.302-0.195 0.192-1.269 0.718-1.571 1.009-0.265 0.256-0.499-0.062-0.821 0.26-0.507 0.507-1.395 0.973-1.8 1.155-0.208 0.093-0.666 0.426-0.697 0.613-0.135 0.831-0.559 0.623-0.611 1.002-0.019 0.141 0.174 0.156 0.388 0.175 0.121 0.01 0.421 0.062 0.371 0.418-0.019 0.13 0.091 0.351 0.091 0.351 0.159 0.04 0.153 0.061 0.189 0.32 0.045 0.321 0.514 0.109 0.808 0.016 0.729-0.23 0.742-0.134 0.787 0.043 0.307 1.223-1.635 1.772-1.648 1.774 0 0 0.071 0.558 0.056 0.792-0.011 0.168-0.117 0.324-0.536 0.357-0.478 0.038-0.869 0.535-1.921-0.002-0.195-0.099-0.222-0.948-0.37-1.124-1.387-0.111-1.832-0.946-1.709-1.17 0.102-0.186 0.893-0.141 1.133-0.14 0.34 0.002 0.213-0.232 0.316-0.399 0.102-0.167 0.037-0.345-0.036-0.45-0.726 0.026-0.781 0.488-1.324 0.35-0.252-0.065-0.55-0.005-0.882 0.125-0.309 0.121-1.58 0.099-1.69-0.769 0.851 0.405 1.135-0.126 1.135-0.126s-0.353-0.098-0.409-0.378c0.389 0.215 0.723 0.099 0.869 0.077 0.765-0.115 0.896 0.346 1.192 0.335 0.486-0.017 0.758-0.103 0.758-0.103-0.335-0.317-0.808-0.172-0.986-0.353-0.062-0.064-0.085-0.219-0.199-0.425-0.082-0.147-0.402-0.115-0.544-0.593-0.119-0.401-1.094-0.729-1.713-1.624-0.62-0.895-0.676-0.243-1.609-2.135-0.255-0.517-0.776-0.316-0.904-0.79-0.272-1.008-1.004-0.553-1.17-1.962-0.011-0.09-0.069-0.341-0.04-0.479 0.028-0.137 0.024-0.549 0.224-0.482 0.468 0.158 0.433 0.85 0.765 0.874 0.176 0.013 0.154-0.36 0.387-0.329 0.33 0.043 0.046 0.335 0.488 0.878 0.236 0.289-0.053 0.763 0.201 0.886 0.873 0.423 0.785 0.936 0.9 0.978 0.529 0.191 0.734 0.37 1.396 1.046 0.468 0.477 1.525 0.815 1.605 0.812 0.124-0.005 0.185-0.048 0.249-0.124 0.063-0.077 0.839-1.11 0.907-1.476 0.057-0.303 0.282-0.465 0.411-0.784 0.165-0.412 0.352-0.517 0.542-0.533 0.325-0.028 0.696 0.225 1.105-0.183 0.116-0.116 0.134-0.301 0.501-0.407 0.368-0.106 0.435-0.292 0.486-0.407 0.047-0.105 0.182-0.208 0.214-0.392-0.159 0.066-0.352 0.115-0.593 0.115h-5.059v-2.551l0.854-0.375c0.09-0.037 0.097-0.089 0.097-0.163l-0.001-2.611-0.958-0.935 0.958-0.907 0.001-2.626c0-0.123-0.058-0.154-0.082-0.161l-0.621-0.345c-1.185 0.462-2.643 2.695-5.071 1.943-1.356-0.42-2.132-1.745-2.147-2.494 0.471 0.574 1.144 0.596 1.144 0.596s-2.182-1.635-1.741-3.592c0.213 0.643 0.79 0.927 0.79 0.927s-1.406-3.028 1.435-4.275c-0.81 1.215-0.388 1.991-0.388 1.991s0.125-0.787 0.886-1.046c-0.468 1.782-0.023 3.248 2.394 3.581-0.255-0.196-0.343-0.57-0.343-0.57s0.924 0.728 2.512 0.322c0.709-0.181 1.461 0.016 1.461 0.016 0.072-0.567 0.418-1.562 2.038-3.096 0.781-0.739-0.31-1.807-1.133-2.419-1.157-0.861-0.506-1.333-0.215-1.803s1.27-2.179 1.318-2.476c0.267-1.645 1.006-1.242 0.808-1.776-0.085-0.23-0.242-0.27-0.296-0.431-0.054-0.162-0.162-0.7-0.269-0.888 0.242-0.377 1.238-1.211 1.803-1.4 0.165 0.376 0.511 1.615 0.134 2.234-0.376 0.619-0.07 0.974-0.215 1.427-0.129 0.404-0.592 1.211-1.029 1.963-0.451 0.778-0.246 2.037 0.06 2.235 0.407 0.264 1.803 1.588 2.557 2.342 0.054-1.131-0.404-2.127-0.565-2.692-0.285-0.995 0.832-0.794 1.42-0.648 0.722 0.18 3.978 1.334 4.931 0.756 0.541-0.328 0.904-0.009 0.664-0.996 0.082-0.189 0.337-0.819 0.337-0.819 0.772-0.129 2.146-0.175 2.337 0.315-0.408 0.719-0.869 1.31-1.529 1.654-0.263 0.424-0.875 1.527-1.897 1.376-1.558-0.231-3.215-0.804-3.436-0.141-0.134 0.402 0.43 0.889 0.734 1.446 0.295 0.542 1.195 1.59 1.159 3.854h5.362c-0.247-0.446-0.424-0.969-0.314-1.53 0.862 0.058 1.56 0.596 1.833 0.789 0.15 0.573 0.628 0.404 1.023 0.845 0.72-0.224 1.795 1.252 2.406 1.886 0.837 0.869 1.212 0.604 1.379 2.075 0.107 0.944-1.055 1.634-1.429 2.152 0.288 0.805 0.081 1.056-0.46 1.237s-0.793 0.198-0.777 0.431c0.033 0.467 0.025 0.934 0.441 1.014 0.728-0.636 2.407-2.366 2.81-2.682 0.565-1.385 1.369-0.778 1.999-2.133-0.173-0.451-0.27-1.006 0.361-1.09 0.365-0.049 0.307-0.179 0.431-0.259 0.473-0.302 0.571 0.2 0.603 0.323 0.008 0.031 0.171 0.031 0.192 0.019 0.11-0.191 0.397-0.387 0.652-0.41 0.258-0.023 0.588 0.486 0.641 0.625 0.114 0.293 0.406 0.317 0.361 0.823m0.429 0.038c0.044-0.513-0.174-0.758-0.305-0.904-0.047-0.053-0.072-0.083-0.084-0.112-0.003-0.008-0.408-0.901-1.024-0.901l-0.056 0.002c-0.208 0.019-0.425 0.105-0.61 0.232-0.176-0.219-0.392-0.26-0.533-0.26-0.161 0-0.328 0.055-0.498 0.163-0.097 0.062-0.155 0.136-0.189 0.183-0.204 0.023-0.591 0.1-0.801 0.453-0.159 0.267-0.171 0.61-0.036 1.045-0.226 0.415-0.459 0.542-0.747 0.698-0.359 0.196-0.801 0.436-1.141 1.201-0.233 0.201-0.643 0.603-1.116 1.067 0.036-0.2 0.016-0.43-0.061-0.707 0.079-0.082 0.175-0.173 0.275-0.267 0.506-0.481 1.2-1.14 1.099-2.029-0.132-1.167-0.422-1.442-0.924-1.827-0.165-0.126-0.351-0.269-0.573-0.499-0.115-0.119-0.247-0.27-0.39-0.433-0.665-0.756-1.408-1.614-2.179-1.607-0.177-0.143-0.354-0.218-0.492-0.277-0.213-0.091-0.23-0.106-0.261-0.224l-0.04-0.151-0.18-0.128c-0.319-0.23-1.068-0.767-2.001-0.83l-0.378-0.025-0.072 0.372c-0.075 0.385-0.049 0.775 0.08 1.182h-4.28c-0.065-1.786-0.702-2.81-1.057-3.379-0.059-0.095-0.111-0.178-0.15-0.251-0.114-0.208-0.256-0.403-0.381-0.574-0.112-0.154-0.294-0.404-0.319-0.515 0.035-0.013 0.111-0.031 0.262-0.031 0.371 0 0.918 0.11 1.498 0.226 0.391 0.079 0.795 0.16 1.201 0.22 0.084 0.012 0.169 0.019 0.252 0.019 1.079 0 1.728-1.031 2.014-1.497 1.22-0.642 1.698-1.943 1.698-1.943s-0.214-0.865-1.765-0.865c-0.36 0-0.767 0.033-1.118 0.092l-0.237 0.04-0.091 0.223s-0.252 0.623-0.332 0.809l-0.057 0.132 0.034 0.14c0.036 0.152 0.052 0.249 0.059 0.309-0.005 0.001-0.01 0.003-0.014 0.004-0.131 0.038-0.311 0.091-0.515 0.214-0.06 0.037-0.215 0.098-0.573 0.098-0.995 0-2.589-0.477-3.446-0.734-0.254-0.076-0.458-0.137-0.585-0.169-0.364-0.09-0.664-0.135-0.916-0.135-0.42 0-0.727 0.125-0.913 0.372-0.183 0.242-0.219 0.56-0.109 0.946 0.036 0.125 0.085 0.271 0.141 0.433 0.099 0.29 0.217 0.636 0.301 1.017-0.656-0.628-1.424-1.334-1.763-1.563-0.13-0.185-0.286-1.087 0.055-1.674 0.502-0.864 0.928-1.615 1.067-2.048 0.082-0.26 0.064-0.492 0.049-0.678-0.019-0.233-0.032-0.401 0.124-0.657 0.504-0.828 0.043-2.285-0.108-2.629l-0.158-0.36-0.372 0.124c-0.69 0.23-1.753 1.145-2.029 1.575l-0.141 0.22 0.129 0.226c0.045 0.08 0.123 0.387 0.16 0.535 0.029 0.117 0.055 0.218 0.075 0.276 0.056 0.168 0.156 0.272 0.223 0.34 0.017 0.018 0.029 0.031 0.039 0.042-0.232 0.19-0.617 0.551-0.79 1.62-0.067 0.249-0.907 1.749-1.26 2.318-0.037 0.06-0.081 0.12-0.126 0.181-0.285 0.391-0.879 1.205 0.45 2.194 0.736 0.547 1.207 1.11 1.228 1.467 0.004 0.079-0.008 0.176-0.133 0.295-1.141 1.079-1.825 2.037-2.078 2.914-0.136-0.016-0.296-0.028-0.469-0.028-0.273 0-0.53 0.03-0.763 0.09-0.285 0.072-0.566 0.109-0.835 0.109-0.829 0-1.591-0.404-2.261-1.074 0 0.607 0.235 1.006 0.235 1.006-0.48-0.168-0.83-0.414-1.046-0.737-0.328-0.491-0.373-1.202-0.134-2.112l0.203-0.775s-0.669 0.118-0.985 0.354c0.33-0.828 1.042-1.619 1.042-1.619s-3.662 0.87-3.405 3.378c0 0-1.343 1.461 0.163 3.456l0.01 0.505c0.018 0.901 0.88 2.41 2.45 2.895 0.37 0.115 0.741 0.173 1.105 0.173 1.369 0 2.396-0.798 3.222-1.44 0.306-0.238 0.599-0.465 0.854-0.604l0.29 0.162-0.001 2.303-1.149 1.087 1.149 1.121 0.001 2.269-0.951 0.418v3.262h4.907c-0.146 0.098-0.233 0.213-0.304 0.318-0.01 0.015-0.018 0.03-0.029 0.042-0.098 0.098-0.165 0.106-0.23 0.106-0.06 0-0.13-0.011-0.205-0.023-0.118-0.018-0.261-0.04-0.4-0.027-0.406 0.035-0.702 0.297-0.904 0.8-0.039 0.096-0.094 0.177-0.158 0.271-0.102 0.149-0.228 0.335-0.276 0.595-0.046 0.203-0.564 0.953-0.774 1.227-0.283-0.088-0.959-0.357-1.258-0.661-0.602-0.615-0.873-0.873-1.396-1.087-0.085-0.224-0.278-0.621-0.887-0.955 0-0.013 0.001-0.026 0.002-0.038 0.014-0.209 0.034-0.526-0.189-0.801-0.155-0.189-0.176-0.315-0.198-0.436-0.025-0.146-0.093-0.534-0.568-0.597-0.187-0.023-0.323 0.029-0.425 0.104-0.112-0.229-0.287-0.509-0.645-0.629-0.059-0.02-0.12-0.03-0.179-0.03-0.508 0-0.574 0.573-0.595 0.762-0.004 0.027-0.006 0.052-0.009 0.071-0.036 0.171-0.009 0.359 0.024 0.554 0.004 0.025 0.008 0.046 0.01 0.062 0.106 0.895 0.423 1.203 0.796 1.487 0.189 0.145 0.304 0.232 0.386 0.536 0.119 0.442 0.456 0.582 0.658 0.665 0.163 0.068 0.223 0.097 0.275 0.203 0.585 1.186 0.854 1.45 1.198 1.717 0.134 0.104 0.249 0.194 0.443 0.473 0.379 0.547 0.873 0.904 1.233 1.164 0.164 0.118 0.388 0.28 0.427 0.351 0.081 0.276 0.216 0.445 0.346 0.556-0.073 0.003-0.148 0.011-0.224 0.022-0.027 0.004-0.058 0.01-0.094 0.017-0.066 0.014-0.14 0.029-0.22 0.029-0.101 0-0.191-0.024-0.283-0.074l-0.812-0.449 0.183 0.91c0.006 0.031 0.014 0.061 0.023 0.09-0.046-0.016-0.093-0.036-0.143-0.059l-0.71-0.338 0.099 0.78c0.112 0.884 0.996 1.198 1.72 1.198 0.128 0 0.37-0.011 0.554-0.083 0.091-0.036 0.176-0.064 0.253-0.084-0.108 0.205-0.088 0.465 0.057 0.735 0.111 0.206 0.548 0.852 1.723 1.03 0.014 0.065 0.029 0.139 0.04 0.197 0.082 0.41 0.151 0.763 0.445 0.913 0.389 0.198 0.743 0.295 1.082 0.295 0.333 0 0.585-0.092 0.788-0.166 0.111-0.04 0.207-0.075 0.281-0.081 0.801-0.064 0.918-0.552 0.931-0.758 0.009-0.139-0.004-0.347-0.021-0.528 0.413-0.162 1.025-0.476 1.37-0.966 0.257-0.366 0.337-0.782 0.231-1.205-0.105-0.417-0.39-0.503-0.61-0.503-0.164 0-0.374 0.045-0.723 0.155-0.043 0.013-0.088 0.029-0.136 0.045-0.044 0.015-0.102 0.035-0.158 0.053-0.033-0.127-0.094-0.253-0.236-0.344 0.032-0.28-0.064-0.469-0.151-0.579-0.061-0.076-0.157-0.164-0.304-0.226 0.124-0.151 0.232-0.364 0.294-0.699 0.076-0.095 0.326-0.284 0.458-0.343 0.127-0.058 1.264-0.58 1.927-1.243 0.024-0.023 0.036-0.03 0.037-0.03s0.051 0 0.088 0.002c0.038 0.002 0.075 0.004 0.113 0.004 0.228 0 0.417-0.076 0.578-0.231 0.128-0.123 0.537-0.36 0.836-0.533 0.39-0.226 0.617-0.359 0.738-0.479 0.094-0.092 0.253-0.162 0.338-0.175 0.022 0.007 0.048 0.017 0.078 0.027 0.235 0.085 0.693 0.25 1.392 0.212 0.309-0.017 0.495-0.118 0.606-0.177 0.012-0.007 0.023-0.014 0.034-0.019 0.362-0.01 0.541-0.19 0.618-0.299 0.078-0.109 0.12-0.238 0.123-0.369 0.05-0.002 0.109 0.001 0.174 0.007 0.083 0.007 0.167 0.011 0.253 0.011 0.709 0 1.426-0.234 1.628-0.306 0.055-0.019 0.286-0.057 0.57-0.057 0.091 0 0.176 0.004 0.251 0.011 0.436 0.909 1.342 1.83 2.366 1.972l0.111 0.016-0.131 0.278s0.788 0.364 1.299-0.084c0.688 0.688 2.377 0.78 2.377 0.78l-0.749-0.706c1.802 0.411 2.697-0.73 2.697-0.73s-1.407-0.328-1.799-0.652l0.097-0.087c0.291-0.262 0.413-0.582 0.434-0.962 0.172 0.05 0.355 0.075 0.546 0.075 0.933 0 1.796-0.606 1.832-0.632l1.012-0.72-1.241-0.06c-0.176-0.008-0.336-0.035-0.48-0.08 0.258-0.291 0.607-0.853 0.799-1.868 0.371 0.371 0.958 0.494 0.958 0.494s-0.461-0.95-0.142-1.861c0.066-0.189 0.189-0.392 0.236-0.669 0.166-0.059 0.364-0.163 0.59-0.341 0.087-0.07 0.214-0.105 0.377-0.105 0.722 0 1.512 0.484 1.512 0.484s-0.44-1.693-1.597-2.126c0.002-0.054 0.094-0.705-0.032-1.198 0 0 0.13-0.588 0.208-0.991 0.219-0.196 0.375-0.518 0.325-0.86 0.012-0.031 0.067-0.098 0.104-0.143 0.142-0.174 0.356-0.436 0.395-0.879m-6.666 4.65c-0.307 0.13-0.68 0.281-1.3 0.31 0.18-0.173 2.015-1.958 2.164-2.022-0.223 0.923 0.265 1.232-0.864 1.712m-4.031-6.199s-0.213-0.422-0.543-0.733v-0.934c0.104 0.005 0.182-0.002 0.234-0.007 0 0 0.32 0.638 1.028 0.711 0.258 0.288 1.576 0.822 1.933 1.296 0.203 0.268 0.18 0.685 0.005 1.095-0.122 0.286-0.53 0.395-0.924 0.498-1.313-1.235-0.983-1.692-1.733-1.926m-14.875 9.821c-0.133 0.102-0.282 0.176-0.441 0.193l-2.188 0.002 0.521-0.52h1.614c0.202-0.021 0.494-0.435 0.494-0.435v0.76zm5.314 2.165c0.313 0.19 1.146 0.624 1.974 0.59-0.083 0.177-0.436 0.374-0.592 0.333-0.188 0.041-0.311 0.246-0.406 0.26-0.72 0.106-0.808 0.341-1.246 0.411-0.268 0.043-0.647 0.15-0.647 0.15 0.409-0.902-0.407-0.825 0.917-1.744m-5.432-13.432v-0.52c0.124 0 0.267 0.023 0.516 0.229v0.728s-0.397-0.437-0.516-0.437m5.651 1.514 3.06 4.318 0.52 1.633-3.58-5.051v-0.9zm-3.06 0.418v3.9l-0.521 1.633v-5.533c0-1.038 0.951-1.282 0.951-1.282v-0.65l0.52-0.52v1.561c-0.18 0.058-0.95 0.161-0.95 0.891m3.06 3.958-3.517 4.962c-0.066 0.078-0.125 0.089-0.233 0.09h-1.289v0.52h1.289c0.397-0.003 0.555-0.178 0.658-0.309l3.092-4.364v-0.899z" fill="#fff"/></g></g><script xmlns=""/></svg>