<?xml version="1.0" encoding="UTF-8" standalone="no"?>
<svg xmlns:rdf="http://www.w3.org/1999/02/22-rdf-syntax-ns#" xmlns="http://www.w3.org/2000/svg" xml:space="preserve" height="108.07" width="123.8" version="1.1" xmlns:cc="http://creativecommons.org/ns#" xmlns:dc="http://purl.org/dc/elements/1.1/" viewBox="0 0 123.80014 108.06955"><g><path d="m4.3031 24.965v24.909h5.205v32.529h-5.205v24.722h35.504v-12.454l5.855 9.2012 5.1125-8.6438v11.896h36.246v-23.979h-5.2038v-11.525s2.6025-0.74375 3.7175-2.7875c0 0 2.9738-2.4162 2.6025-4.4612 0 0 1.4862-1.6738 0.92875-3.7175 0 0 1.4875-0.3725 0.37125-3.3462 0 0 0.3725-3.3462-2.6012-4.4612 0 0 3.3462 2.23 9.48 0.93 0 0 3.16 4.6462 7.0638 6.1338 0 0 3.9025 3.5312 4.8325 3.7175 0 0-1.115 4.8325 4.4612 6.32 0 0 2.2312 1.115 4.8325-1.6738 0 0 5.5775 1.4875 4.8338-5.5762 0 0 1.4875-2.4162-0.18625-4.6462 0 0 1.115-3.7175-2.23-6.32 0 0-3.1612-3.5325-7.25-5.9488 0 0-0.74375-3.9038-2.4162-6.1338 0 0-3.16-3.16-4.09-3.9038 0 0 1.3012-2.23-0.74375-5.9488 0 0 1.4875-3.5312-1.115-7.0625 0 0 1.6738-3.5325 0-6.5062 0 0-2.23-1.115-6.6912-1.4875 0 0-5.3912-2.6025-8.9225-2.23 0 0-6.5062-5.5775-18.775-5.205 0 0-7.8062-1.8588-16.171 3.16 0 0-9.48 3.9038-23.235 15.986l-1.8588-1.8588-2.975-0.18625s-2.6025-4.8325-9.2938-9.1088c0 0-4.6475-2.4162-1.115-3.345 0 0 4.0888-0.3725 5.7612 1.115 0 0 3.3462 3.16 6.5062 1.6725 0 0 4.2762-1.115 2.975-6.8775 0 0-2.4175-5.205-10.41-6.1338 0 0-6.32-2.6025-13.384 2.4162 0 0-4.6475 1.6725-5.3912 7.9925 0 0-1.4862 4.4612 4.09 10.224l2.2312 2.6025h-3.3462z" fill="#fff"/><path d="m15.67 3.4062c-4.053 0.0741-7.7229 1.6998-10.377 4.9629-1.9375 2.3179-2.0816 6.2749-0.9141 8.9469 0.7763 2.102 2.4282 3.587 4.0957 5.028 0.8309 0.72 1.6744 1.433 2.4274 2.211 0.742 0.766 1.392 1.595 1.856 2.547h-6.3049v20.693h5.0409v25.771 11.372h-5.0409v20.072h30.986v-20.072h-5.234v-9.42l13.291 23.488 8.02-13.951v19.955h31.162v-20.072h-5.215v-11.622-3.324l0.123-0.144c0.317 0.088 0.629 0.065 0.918 0.017 0.306-0.051 0.612-0.133 0.906-0.152 1.024-0.161 1.433-0.887 1.793-1.553 0.09-0.164 0.178-0.329 0.276-0.488 0.093-0.155 0.195-0.301 0.31-0.43 0.229-0.256 0.519-0.452 0.938-0.537l0.097-0.068c0.101-0.169 0.21-0.343 0.315-0.522 0.105-0.184 0.205-0.372 0.283-0.56 0.16-0.382 0.248-0.792 0.121-1.192l-0.061-0.193-0.662 0.471c-0.233 0.058-0.515 0.179-0.789 0.228-0.161 0.028-0.304 0.028-0.424-0.023 0.544-0.159 1.059-0.407 1.567-0.78 0.732-0.733 1.531-1.56 1.451-2.712l-0.01-0.165-0.162 0.03c-0.309 0.053-0.638 0.117-0.953 0.135-0.198 0.011-0.381 0.005-0.547-0.032l0.127-0.086c0.121-0.082 0.236-0.145 0.391-0.187 1.146-0.593 1.564-1.922 1.601-2.947l0.006-0.164-0.164 0.011c-0.29 0.02-0.545 0.134-0.773 0.246-0.113 0.054-0.224 0.114-0.336 0.162-0.105 0.049-0.213 0.088-0.342 0.12-0.313 0.113-0.653 0.093-0.848-0.049 1.04-0.359 2.192-1.032 2.703-2.164l0.047-0.104-0.088-0.07c-0.653-0.539-1.408-0.845-2.207-1.033-0.771-0.183-1.591-0.259-2.414-0.332-0.73-0.859-2.101-0.86-3.043-0.735 0.027-2.454-0.14-4.119 0.129-6.445l1.787-0.107c1.07-0.193 1.88 0.258 2.657 0.888 0.393 0.32 0.771 0.677 1.158 1.01 0.387 0.332 0.795 0.646 1.244 0.867 3.155 1.93 7.303 2.505 10.783 1.098 1.784 2.829 4.439 5.687 7.469 7.064 0.4 0.454 0.84 0.851 1.29 1.219 0.45 0.374 0.93 0.719 1.39 1.062 0.9 0.673 1.76 1.334 2.41 2.194-0.5 1.76 0.47 3.237 1.69 4.299 1.09 0.525 2.55 0.92 3.8 0.334l0.08-0.086c0.31-0.91 0.8-0.863 1.42-0.699 0.17 0.043 0.34 0.094 0.5 0.136 0.18 0.045 0.36 0.081 0.54 0.094 0.35 0.024 0.72-0.046 1.05-0.346 1.05-0.482 1.47-1.58 1.4-2.683 0.02-0.235-0.07-0.457-0.18-0.647-0.1-0.185-0.24-0.366-0.34-0.545-0.17-0.31-0.23-0.553 0.32-0.912 0.38-1.021 0.21-2.266-0.49-3.125 0.36-0.985 0.35-2.233 0.32-3.24-0.02-0.956-0.68-1.439-1.29-1.854-0.16-0.103-0.31-0.205-0.45-0.312-0.15-0.104-0.28-0.211-0.4-0.326-0.22-0.229-0.39-0.489-0.45-0.889-0.44-0.69-0.99-1.178-1.59-1.566-0.29-0.193-0.6-0.361-0.92-0.52-0.31-0.156-0.63-0.302-0.95-0.451-1.26-0.589-2.46-1.191-3.21-2.609-0.9-1.898-1.7-3.856-2.76-5.692-1.04-1.816-2.33-3.516-4.18-4.912 0.67-2.021 0.67-4.421-0.98-6.047 0.36-1.811 0.47-3.847-0.15-5.676-1.21-0.867-1.05-1.751-0.63-2.761 0.21-0.522 0.49-1.056 0.67-1.61 0.18-0.563 0.27-1.17 0.09-1.793-0.22-0.557-0.66-1.31-1.42-1.437-2.748 0.349-5.113-0.363-7.467-1.203-1.181-0.42-2.352-0.87-3.558-1.229-1.204-0.357-2.445-0.625-3.766-0.685l-4.358-2.215c-9.765-4.1364-22.691-3.1002-31.31 2.75-3.855 1.955-7.484 4.523-11.031 7.244-3.502 2.685-6.93 5.525-10.43 8.08l-1.629-2.607h-2.976l-1.887-2.614c-1.629-2.227-3.642-3.807-5.686-5.267-1.02-0.728-2.051-1.428-3.052-2.166-0.997-0.734-1.96-1.504-2.85-2.375-0.455-0.629-0.203-1.617 0.094-2.324 1.295-2.149 3.815-2.6305 6.045-2.5942 1.431-0.1425 2.553 0.4652 3.683 1.1742 0.57 0.356 1.132 0.734 1.725 1.043 0.599 0.311 1.235 0.557 1.963 0.644 1.331 0 2.704-0.533 3.261-1.891 0.35-1.3257-0.164-2.5305-1.043-3.4468-2.481-2.1792-5.488-3.1585-8.619-3.6797-0.967-0.1472-1.921-0.2138-2.855-0.1973h-0.004zm-6.5977 26.309h17.295l19.274 34.074 0.336 0.338 0.095-0.17c2.325-4.104 4.471-8.278 6.719-12.385l0.564 1.43c-2.293 4.761-5.085 9.311-7.673 13.961l-20.219-35.578h-14.897v12.283h4.901v44.941h-4.94l0.014 12.281h23.184v-12.281h-5.455v-27.156l7.089 11.965 10.141 17.115 9.846-16.969 3.31-5.707 4.346-7.714v28.466h-5.383v12.281h23.033v-12.281h-5.16v-21.599l1.412 1.537v18.816h5.123v15.007h-25.756v-15.007h5.077v-14.049-7.15l-4.262 7.4-11.588 20.133-11.902-20.295-3.873-6.605-0.006 20.566h5.351v15.007h-25.996l0.0003-15.007h4.9747v-42.353h-4.9747v-15.295zm49.828 45.976v9.247h-5.314l5.314-9.247z" fill="#0d3182" transform="translate(0 -.00028610)"/><path d="m16.951 4.6055c-0.59 0.4087-1.03 0.9124-1.439 1.4511-0.424 0.56-0.805 1.1462-1.272 1.6875l-0.146 0.045c-0.414-0.1-0.449 0.0376-0.449 0.3164 0 0.1687 0.024 0.3608 0.025 0.5371 0.001 0.0975-0.003 0.2034-0.025 0.3047 0.031-0.01 0.063-0.0221 0.097-0.0371l0.16-0.0801c0.054-0.0238 0.116-0.0488 0.184-0.0625 0.207-0.0875 0.431-0.1334 0.652-0.1621 0.223-0.0275 0.454-0.0413 0.68-0.0625 0.429-0.04 0.807-0.1061 1.096-0.3399 0.121-0.79 0.697-1.3491 1.224-1.8554 0.137-0.13 0.272-0.2594 0.401-0.3907 0.126-0.1287 0.244-0.2583 0.349-0.3945 0.174-0.2262 0.306-0.46 0.367-0.7187-0.635-0.0713-1.269-0.1696-1.904-0.2383zm3.574 0.6386l-0.175 0.1758c-0.075 0.3038-0.205 0.6715-0.252 1.0215-0.042 0.2938-0.018 0.5377 0.115 0.7227 0.652-0.7225 1.504-0.9668 2.361-1.0743 0.481 0.1313 0.855 0.5285 0.719 1.0723-0.075 0.13-0.149 0.2535-0.234 0.3848-0.087 0.1362-0.191 0.2857-0.311 0.4082-0.219 0.2225-0.53 0.3854-0.857 0.1504-0.075 0.0662-0.157 0.1335-0.237 0.1972-0.115 0.095-0.235 0.19-0.343 0.295-0.185 0.1775-0.315 0.3545-0.346 0.5507 0.314 0.1338 0.616 0.297 0.912 0.4707 0.321 0.19 0.637 0.3929 0.957 0.5839 0.619 0.368 1.238 0.679 1.941 0.779 0.26-0.22 0.389-0.477 0.352-0.777-0.509-0.4987-0.401-1.0387-0.197-1.5175 0.1-0.235 0.229-0.4685 0.332-0.6973 0.086-0.1937 0.143-0.3659 0.152-0.5234-1.546-1.0038-3.117-1.8514-4.889-2.2227zm-7.916 0.1504c-1.831 0.15-3.4763 1.0326-4.7613 2.2813 0.645 0.1787 1.2237 0.5091 1.7675 0.9004 0.5598 0.4012 1.0968 0.8742 1.6408 1.3242 0.065-0.16 0.109-0.3338 0.139-0.5176 0.041-0.2525 0.056-0.5148 0.078-0.7773 0.041-0.5288 0.097-1.0975 0.42-1.5625l0.101-0.1446 0.264 0.2618 0.353-1.7657h-0.002zm-6.902 6.2055l-0.5136 0.408c-0.5425 1.321-0.4846 3.191 0.1816 4.338 0.2225-0.172 0.3979-0.396 0.5566-0.647 0.1913-0.304 0.3501-0.638 0.5176-0.953 0.34-0.637 0.7527-1.261 1.6153-1.344l0.123-0.011 0.0332 0.117c0.0475 0.162 0.033 0.313-0.0019 0.449-0.0176 0.065-0.0383 0.129-0.0645 0.191l-0.0762 0.172c-0.05 0.112-0.0858 0.2-0.0996 0.282 0.8225-0.585 1.4642-1.518 1.543-2.561-1.2388-0.182-2.6395 0.031-3.707 0.314l-0.1407 0.038-0.039-0.143c-0.0688-0.25-0.0083-0.443 0.0742-0.65h-0.002zm54.893 0.488c-3.274 1.021-7.183 3.308-7.567 7.082-0.521 1.557-0.781 3.224-0.933 4.932-0.154 1.71-0.199 3.451-0.291 5.121-0.024 0.103-0.046 0.196-0.075 0.287-0.03 0.095-0.07 0.196-0.125 0.287-0.116 0.19-0.312 0.342-0.615 0.265l-0.092-0.064c-1.893-2.986-2.793-6.393-3.047-10.078-0.447 0.444-0.796 0.958-1.14 1.478-0.201 0.304-0.399 0.605-0.608 0.889-0.211 0.286-0.437 0.559-0.697 0.799l-0.121 0.113-0.098-0.133c-0.282-0.383-0.379-0.842-0.457-1.277-0.04-0.215-0.075-0.434-0.127-0.646-0.045-0.189-0.101-0.367-0.181-0.534-0.164-0.053-0.273-0.003-0.393 0.1-0.076 0.065-0.148 0.144-0.224 0.217-0.069 0.067-0.149 0.138-0.243 0.193-2.806 5.663-1.783 13.571-0.486 19.647l-0.203 0.63c-0.268 0.268-0.485 0.172-0.629 0.022l-0.088-0.102-0.072-0.095c-0.053-0.064-0.086-0.095-0.109-0.106l-0.075-0.084c-0.957-2.689-2.206-5.224-4.072-7.5l-0.186-0.086c-0.075-0.033-0.146-0.059-0.212-0.072-0.12-0.025-0.205-0.005-0.276 0.111-0.107 0.138-0.177 0.286-0.236 0.454-0.061 0.171-0.108 0.351-0.16 0.525-0.107 0.351-0.252 0.735-0.625 0.933l-0.141 0.073-0.062-0.143c-0.204-0.454-0.413-0.917-0.639-1.379-0.225-0.456-0.469-0.908-0.744-1.34-0.546-0.855-1.213-1.623-2.11-2.181-0.646-0.209-1.302-0.007-1.847 0.328 3.049 2.682 4.988 5.983 6.306 9.459 0.067-0.435 0.14-0.917 0.252-1.402 0.164-0.709 0.413-1.437 0.836-2.036 0.55-0.197 1.021 0.223 1.307 0.545 1.697 3.215 2.565 6.742 3.031 10.418h1.67c0.146-1.117 0.216-2.267 0.203-3.451 0.025-0.122 0.071-0.243 0.155-0.334 0.092-0.1 0.235-0.162 0.41-0.103l0.086 0.074c0.588 1.211 1.073 2.527 1.564 3.814l0.305 0.002h-0.307l0.113 0.293c0.403 1.048 0.813 2.066 1.293 2.985-0.245-1.099-0.504-2.193-0.791-3.28h-0.002c-0.798-3.028-1.794-5.981-3.185-8.738-0.061-0.161-0.128-0.457-0.09-0.695 0.044-0.273 0.235-0.497 0.633-0.399 1.307 1.596 2.496 2.968 3.994 4.172-0.006-0.454 0.055-1.014 0.389-1.381 0.533-0.136 0.805 0.105 1.037 0.375 1.016 2.329 2.301 4.61 3.978 6.666l1.752 0.002-1.752 0.002c0.94 1.156 2.005 2.243 3.215 3.229l0.496-1.825c0.068-0.321 0.177-0.633 0.303-0.943 0.065-0.156 0.134-0.313 0.205-0.465l-0.387 0.002c-0.146 0.31-0.277 0.627-0.396 0.942l-0.112 0.295-0.154-0.274c-0.181-0.317-0.363-0.638-0.541-0.961l-0.002-0.002c-2.868-5.155-5.431-10.457-6.344-16.459l0.245-0.736 0.142 0.057c0.259 0.106 0.507 0.241 0.748 0.392 0.236 0.149 0.466 0.312 0.697 0.473 0.415 0.289 0.82 0.563 1.258 0.744 0.193-0.758 0.288-1.602 0.487-2.391 0.216-0.856 0.561-1.674 1.306-2.242l0.235-0.18 0.002 0.295c0.036 2.748 0.15 5.699 0.886 8.239 0.314 0.886 0.608 1.788 0.977 2.65 0.35 0.818 0.763 1.594 1.318 2.277-0.139-1.406-0.208-2.798-0.172-4.259 0.035-0.102 0.05-0.154 0.069-0.225 0.018-0.076 0.037-0.155 0.064-0.23 0.061-0.165 0.177-0.34 0.432-0.391l0.135 0.043c0.385 0.404 0.662 0.863 0.906 1.316 0.195 0.363 0.369 0.731 0.568 1.073 0.43-0.885 0.964-1.738 1.692-2.465 0.24-0.088 0.381-0.049 0.494 0l0.146 0.066c0.044 0.02 0.083 0.033 0.121 0.039l0.104 0.018 0.017 0.103c0.24 1.37 0.462 2.749 0.799 4.076 0.335 1.319 0.785 2.58 1.475 3.729 1.151 1.21 1.986 2.543 2.566 3.988h0.002c0.573 1.42 0.896 2.941 1.026 4.555l-0.022 0.086c-0.095 0.165-0.175 0.365-0.256 0.584-0.083 0.222-0.164 0.45-0.261 0.66-0.195 0.423-0.477 0.827-1.008 0.871l-0.145 0.012-0.013-0.145c-0.179-1.867-0.638-3.618-1.608-5.158-0.082 0.064-0.147 0.148-0.205 0.252-0.041 0.075-0.076 0.155-0.109 0.24l-0.1 0.274c-0.134 0.37-0.313 0.804-0.836 0.955l-0.1 0.029-0.06-0.084c-0.438-0.609-0.74-1.273-0.975-1.959-0.131-0.384-0.242-0.777-0.343-1.172l-1.938 0.002c-0.199 1.418-0.271 2.887-0.226 4.399l0.361 0.453c1.646-0.228 3.081-0.845 4.414-1.854l0.086-0.064 0.424 0.303-0.014 0.089c-0.365 2.188-1.226 4.159-2.336 6.049 1.364 0.373 2.845 0.249 4.094-0.34l0.084-0.041c0.559 0.462 0.62 1.068 0.553 1.635-0.057 0.475-0.207 0.959-0.309 1.348 1.627-0.121 3.201-0.422 4.564-1.157l0.157 0.01c0.567 0.403 0.309 0.887 0.019 1.211-0.075 0.083-0.156 0.162-0.236 0.237l-0.192 0.169c0.528-0.3 1.7-0.751 1.7-0.751 0.413-0.04 0.872-0.104 1.318-0.104 0.451 0 0.915 0.065 1.285 0.312l0.063 0.096c0.07 0.396-0.138 0.64-0.371 0.817-0.109 0.083-0.234 0.158-0.352 0.236-0.114 0.075-0.211 0.147-0.279 0.225-0.81 0.846-1.065 2.119-0.68 3.255 0.58 1.08 1.689 1.993 2.877 2.028 1.059 0.302 1.252-0.187 1.461-0.897 0.054-0.184 0.106-0.373 0.17-0.558 0.066-0.188 0.146-0.375 0.256-0.545 0.207-0.319 0.513-0.566 0.998-0.653-0.031-0.946 0.355-1.793 1.097-2.386-0.3-0.409-0.361-0.807-0.295-1.188 0.035-0.205 0.107-0.401 0.19-0.588 0.082-0.183 0.178-0.364 0.271-0.541 0.367-0.696 0.613-1.228-0.226-1.804-0.138-0.245-0.156-0.43-0.149-0.606 0.007-0.167 0.04-0.336 0.069-0.502 0.052-0.299 0.075-0.54-0.069-0.767-2.261-0.263-4.427 0.778-6.378 1.88l-0.133 0.008c-0.5-0.226-0.569-0.75-0.559-1.218 0.004-0.237 0.03-0.485 0.045-0.717 0.013-0.183 0.016-0.344 0.002-0.479-0.678-0.06-1.266 0.238-1.863 0.653-0.318 0.218-0.627 0.464-0.946 0.695-0.316 0.23-0.646 0.451-0.998 0.613-0.103 0.075-0.231 0.173-0.375 0.266-0.15 0.095-0.322 0.19-0.496 0.244-0.374 0.117-0.764 0.037-0.941-0.518l0.012-0.115c1.345-2.471 1.242-5.866 0.115-8.391-0.122-0.147-0.242-0.295-0.36-0.447v-0.002h-0.002c-4.19-5.356-6.186-12.99-2.685-19.299l0.141-0.156c0.043-0.044 0.094-0.091 0.154-0.129 0.137-0.086 0.317-0.102 0.467 0.078l0.033 0.09c0.037 1.573 0.026 3.281 0.281 4.899 0.241 1.533 0.719 2.971 1.69 4.121 0.08-0.184 0.145-0.374 0.224-0.549 0.118-0.253 0.274-0.501 0.615-0.631l-0.123-0.58c-0.128 0.046-0.259 0.002-0.373-0.08-0.038-0.028-0.074-0.058-0.113-0.092l-0.1-0.09c-0.066-0.06-0.106-0.088-0.134-0.095l-0.084-0.063c-2.349-3.592-1.874-9.134 0.232-12.773-0.974 0.822-1.741 2.085-2.201 3.252-0.089 0.168-0.162 0.353-0.223 0.535-0.062 0.188-0.117 0.383-0.174 0.574-0.116 0.386-0.252 0.786-0.509 1.143-0.265 0.108-0.407 0.05-0.516-0.04-0.049-0.04-0.091-0.087-0.127-0.128-1.605 1.546-1.935 3.632-2.264 5.783-0.055 0.135-0.076 0.258-0.086 0.408-0.01 0.154-0.01 0.313-0.025 0.461-0.029 0.305-0.129 0.654-0.576 0.703l-0.125 0.014-0.033-0.121c-1.308-4.788-0.306-10.184 3.328-13.682 0.246-0.434 0.6-0.753 0.976-1.018 0.374-0.263 0.782-0.481 1.151-0.716 0.717-0.459 1.228-0.949 1.074-1.975 0.487-1.624 2.059-2.669 3.563-2.924-0.236-0.571-0.016-1.073 0.289-1.496 0.166-0.229 0.361-0.443 0.543-0.648 0.078-0.09 0.151-0.177 0.214-0.258-5.605 1.402-10.286 7.013-12.531 12.119-0.09 0.111-0.122 0.204-0.139 0.326-0.016 0.133-0.01 0.275-0.015 0.41-0.009 0.287-0.062 0.637-0.498 0.758l-0.145 0.039-0.037-0.144c-1.094-4.195 0.184-8.274 2.17-11.649l-2.199 0.559-0.592-0.346 0.027-0.107c0.119-0.497 0.404-0.907 0.698-1.289 0.145-0.189 0.297-0.375 0.437-0.569 0.066-0.09 0.129-0.181 0.188-0.273l0.002-0.004zm-16.604 35.65l-1.67 0.002c0.209 1.648 0.338 3.324 0.426 5.018 0.597-1.6 1.015-3.271 1.244-5.02zm34.537-34.398c-1.893-0.005-3.773 0.405-5.283 1.308 1.24 0.143 2.562 0.935 3.639 1.743 2.16-0.795 4.636-1.46 7.009-1.873-1.564-0.755-3.472-1.174-5.365-1.178zm-68.277 2.398c-1.0589 0.325-2.0649 1.326-2.6837 2.344-0.4113 0.653-0.4582 1.434 0.1718 1.865 0.525-0.345 1.0126-0.791 1.5313-1.152 0.5562-0.386 1.1686-0.694 1.9156-0.678 0.517-0.064 0.735-0.605 0.748-1.137-0.11-0.135-0.223-0.278-0.341-0.419-0.132-0.154-0.266-0.301-0.409-0.426-0.282-0.248-0.586-0.407-0.933-0.397zm77.053 0.268c-1.119 0.026-2.2 0.139-3.233 0.357 0.288-0.026 0.584-0.037 0.885-0.029l0.115 0.059 0.201 0.175c0.089 0.084 0.181 0.215 0.118 0.405l-0.094 0.093c-1.113 0.372-2.235 0.696-3.319 1.098-1.073 0.4-2.103 0.874-3.05 1.545-0.099 0.116-0.211 0.246-0.321 0.381-0.112 0.139-0.217 0.279-0.297 0.418-0.122 0.211-0.171 0.387-0.138 0.529 1.207-0.986 2.583-1.632 3.978-2.205 0.47-0.189 0.99-0.395 1.516-0.518 0.532-0.123 1.09-0.165 1.625-0.007l0.178 0.052-0.291 0.528c-1.014 0.688-2.076 1.226-3.084 1.863-0.999 0.63-1.935 1.349-2.7 2.387l-0.13 0.187c-0.044 0.066-0.081 0.13-0.104 0.188-0.032 0.087-0.031 0.149 0.041 0.205 0.688-0.083 1.248-0.476 1.799-0.957 0.286-0.249 0.564-0.514 0.848-0.762 0.288-0.25 0.59-0.486 0.918-0.67 0.388-0.156 0.777-0.381 1.168-0.533 0.4-0.158 0.832-0.257 1.253-0.109l0.135 0.046-0.043 0.137c-0.135 0.435-0.348 0.832-0.586 1.211-0.235 0.374-0.498 0.736-0.738 1.106-0.226 0.343-0.429 0.687-0.572 1.05 0.86-1.078 1.933-1.239 3.076-1.006-0.059-0.1-0.109-0.187-0.152-0.277-0.048-0.101-0.09-0.215-0.108-0.334-0.037-0.26 0.062-0.508 0.399-0.666 0.916-0.014 1.71 0.138 2.466 0.359 0.752 0.22 1.47 0.51 2.18 0.79 0.62 0.566 1.295 0.873 1.992 1.16 0.353 0.145 0.708 0.282 1.049 0.439 0.346 0.159 0.684 0.342 1 0.57l0.061 0.108c0.046 0.496-0.251 0.744-0.569 0.9-0.149 0.074-0.313 0.132-0.469 0.194l-0.16 0.07 0.217 0.109c0.15 0.073 0.305 0.141 0.451 0.215 0.302 0.153 0.598 0.344 0.805 0.674l0.066 0.109-0.095 0.082c-0.52 0.44-1.045 0.52-1.565 0.51-0.252-0.006-0.509-0.03-0.773-0.047-0.219-0.012-0.443-0.016-0.674 0.006 0.092 0.139 0.181 0.207 0.299 0.293l0.174 0.133c0.058 0.045 0.118 0.096 0.17 0.152 0.105 0.113 0.193 0.255 0.193 0.438l-0.051 0.111c-1.1 0.949-2.386 1.477-3.736 1.815l-0.137-0.038c-0.197-0.186-0.259-0.38-0.213-0.578 0.021-0.09 0.063-0.173 0.108-0.246 0.041-0.07 0.093-0.141 0.144-0.211 0.186-0.252 0.289-0.408 0.121-0.617-0.716 0.141-1.288-0.102-1.804-0.324-0.134-0.056-0.266-0.114-0.399-0.164-0.129-0.05-0.257-0.094-0.389-0.125-0.208-0.05-0.422-0.07-0.65-0.035 0.15 0.338 0.458 0.601 0.805 0.892 0.191 0.162 0.391 0.332 0.556 0.522 0.168 0.191 0.307 0.408 0.37 0.672l0.035 0.142-0.145 0.035c-0.574 0.139-1.205 0.048-1.791-0.097-0.362-0.09-0.716-0.205-1.039-0.305l1.545 1.545c-0.104 0.574-0.478 0.745-0.85 0.834-0.178 0.041-0.371 0.068-0.556 0.101-0.182 0.034-0.339 0.072-0.469 0.137l-0.09 0.014c-0.965-0.148-1.9-0.375-2.603-1.227-0.593-0.462-0.777-1.093-0.825-1.748-0.037-0.515 0.01-1.066 0.01-1.599-0.182 0.223-0.373 0.467-0.56 0.724 0.037 0.035 0.073 0.078 0.111 0.125l0.062 0.082-0.056 0.088c-0.586 0.918-0.99 2.156-0.438 3.158 0.289 0.648 0.813 1.274 1.493 1.444 2.168 0.325 4.158-0.796 6.023-1.877 1.075-0.439 1.983-0.209 2.818 0.189 0.413 0.196 0.812 0.438 1.213 0.666 0.396 0.228 0.785 0.437 1.18 0.582 0.154 0.075 0.294 0.213 0.351 0.371 0.019 0.053 0.028 0.106 0.024 0.159 0.522 0.007 1.129-0.102 1.551 0.064 0.656-0.535 1.514-0.557 2.332-0.539 0.413 0.01 0.831 0.032 1.232 0.008 0.394-0.023 0.756-0.087 1.074-0.242 0.563-0.164 0.613-0.486 0.513-0.916-0.05-0.232-0.14-0.471-0.22-0.698-0.07-0.228-0.135-0.472-0.113-0.683l0.018-0.164 0.155 0.035c0.1 0.021 0.18 0.05 0.26 0.086 0.68-0.813 1.22-2.321 1.2-3.332-0.07 0.191-0.2 0.378-0.38 0.562l-0.31 0.311-0.1-0.145c-0.05-0.076-0.08-0.162-0.1-0.254-0.02 0.055-0.06 0.113-0.13 0.17-0.2 0.118-0.37 0.185-0.53 0.239-0.141 0.051-0.278 0.092-0.395 0.146-0.204 0.091-0.331 0.205-0.36 0.518l-0.017 0.197-0.184-0.072c-0.596-0.235-0.757-0.743-0.838-1.237-0.04-0.241-0.062-0.492-0.103-0.732-0.042-0.229-0.096-0.432-0.198-0.6-0.75-0.751-1.312-1.583-1.691-2.525l-0.141-0.35 0.342 0.162c0.081 0.039 0.168 0.073 0.262 0.102-0.231-0.239-0.434-0.473-0.606-0.691l-0.115-0.022-0.096-0.059c-0.102-0.137-0.246-0.272-0.41-0.423l-0.248-0.229c-0.084-0.08-0.166-0.162-0.242-0.246-0.309-0.336-0.56-0.756-0.385-1.279l0.098-0.094c1.536-0.461 3.286 0.002 4.67 0.639 0.166 0.248 0.296 0.429 0.441 0.619 0.148 0.194 0.296 0.387 0.426 0.586l0.06 0.097 0.05-0.142c0.04-0.166 0.02-0.37-0.07-0.561l-0.17 0.168-0.05-0.269c-0.05-0.257-0.16-0.497-0.295-0.733-0.138-0.24-0.304-0.47-0.464-0.701-0.323-0.466-0.654-0.97-0.694-1.592l0.024-0.203c-0.252-0.411-0.482-0.796-0.657-1.125l-0.173 0.018-0.122-0.049c-0.452-0.506-0.994-0.715-1.587-0.787-0.302-0.038-0.615-0.039-0.93-0.026-0.323 0.015-0.65 0.045-0.971 0.069-1.28 0.096-2.604 0.116-3.435-1.332-1.183-0.133-2.34-0.194-3.459-0.168l0.002-0.004zm-73.09 2.863c-0.507 0.047-0.79 0.491-1.078 1.049-0.113 0.219-0.223 0.449-0.342 0.67-0.121 0.222-0.255 0.444-0.412 0.637-0.299 0.362-0.69 0.628-1.248 0.64-0.048 0.484 0.149 0.848 0.404 1.239 0.126 0.013 0.232-0.007 0.34-0.043 0.135-0.045 0.262-0.106 0.404-0.145 1.265-0.799 2.802-2.066 3.301-3.453l-0.356-0.299c-0.307-0.171-0.563-0.263-0.783-0.291-0.082-0.01-0.158-0.011-0.23-0.004zm2.926 4.123c-0.208-0.008-0.416-0.006-0.624 0.006-0.994 0.058-1.971 0.34-2.734 0.797-0.306 0.449-0.025 1.075 0.406 1.35 1.034 0.333 2.102 0.22 3.227 0.031 0.567-0.095 1.141-0.207 1.723-0.287 0.535-0.074 1.077-0.12 1.625-0.1-0.767-1.194-2.173-1.743-3.623-1.797zm83.245 0.555c0.14 0.305 0.23 0.666 0.09 1.068 0.41 0.3 0.71 0.554 0.81 0.696l0.54 0.179c-0.25-0.782-0.71-1.466-1.44-1.943zm1.53 16.183l0.01 0.002c-0.08 0.006-0.16 0.028-0.23 0.071-0.07 1.501-0.86 2.842-1.827 3.773l-0.09 0.084-0.097-0.07c-0.297-0.211-0.431-0.487-0.52-0.752-0.041-0.126-0.074-0.257-0.111-0.383l-0.055-0.17-0.66 0.463c-0.35-0.159-0.421-0.4-0.463-0.58-0.02-0.081-0.035-0.163-0.063-0.234-0.175 0.251-0.362 0.488-0.509 0.742-0.167 0.287-0.273 0.583-0.248 0.939 0.188 0.388 0.311 0.322 0.632-0.023l0.249-0.272c0.08-0.094 0.17-0.188 0.267-0.269 0.188-0.16 0.423-0.298 0.693-0.248l0.102 0.068c0.566 0.905 0.474 2.381 0.137 3.371 0.248 0.12 0.353 0.31 0.388 0.535 0.018 0.115 0.018 0.242 0.014 0.377-0.002 0.097-0.004 0.197-0.002 0.301 0.221 0.104 0.446 0.194 0.673 0.281h0.01c0.45 0.164 0.92 0.302 1.37 0.465 0.72 0.263 1.43 0.596 2.03 1.215l0.03 0.146c-0.02 0.078-0.05 0.146-0.09 0.208 2.76-0.869 4.47-0.202 5.21 3.072 0.76 3.397 1.94 4.412 3.27 4.748l-0.02-0.029-0.04-0.114c0.04-0.352 0.16-0.672 0.39-0.955 0.27-0.584 0.19-1.397-0.24-1.861-0.23-0.609-0.16-1.304 0.26-1.725 0.39-0.428 0.91-0.582 1.44-0.638 0.47-0.052 0.96-0.025 1.4-0.034-0.06-0.05-0.1-0.068-0.15-0.093-0.05-0.022-0.1-0.044-0.14-0.069-1.67-0.237-3.24 0.582-4.29 1.989l-0.07 0.093-0.11-0.047c-0.82-0.361-1.12-1.011-1.21-1.736-0.04-0.354-0.03-0.731-0.01-1.113 0.01-0.364 0.05-0.734 0.06-1.086-0.17-0.458-0.57-0.708-1.08-0.881-0.53-0.18-1.14-0.263-1.64-0.41-0.12-0.058-0.24-0.095-0.39-0.135-0.14-0.04-0.29-0.08-0.43-0.137-0.29-0.121-0.54-0.337-0.47-0.783 0.03-0.028 0.05-0.056 0.08-0.086 0.51-0.492 1.09-0.647 1.65-0.787 0.3-0.072 0.59-0.143 0.87-0.246 0.23-0.086 0.45-0.191 0.65-0.336l-0.07-0.092c-0.74-0.073-1.55-0.179-2.35-0.224-0.82-0.045-1.62-0.026-2.32 0.154l-0.09 0.023c-0.09-0.112-0.13-0.15-0.18-0.193l-0.13-0.133c-0.1-0.091-0.2-0.213-0.23-0.373 0-0.489 0.29-0.76 0.58-0.955 0.15-0.095 0.3-0.177 0.45-0.262 0.1-0.055 0.18-0.107 0.25-0.162l-0.57-0.726 0.14-0.086c0.51-0.304 1.06-0.318 1.59-0.266 0.42 0.041 0.85 0.128 1.26 0.158-0.29-0.392-0.71-0.567-1.19-0.642-0.29-0.045-0.59-0.055-0.88-0.055-0.3 0-0.59 0.01-0.85 0-0.18 0.02-0.35 0.093-0.52 0.192-0.18 0.106-0.35 0.235-0.53 0.347-0.35 0.231-0.77 0.436-1.25 0.149l-0.11-0.063 0.04-0.115c0.17-0.484 0.42-0.939 0.6-1.422 0.18-0.469 0.28-0.95 0.18-1.508-0.02-0.26-0.22-0.403-0.45-0.387zm-39.871 3.26c-0.586 1.504-0.99 3.092-1.223 4.748l1.938-0.002c-0.08-0.308-0.155-0.618-0.229-0.929-0.095-0.74-0.16-1.492-0.244-2.221-0.062-0.553-0.137-1.092-0.242-1.596zm-3.399 3.076c-0.416 0.497-0.756 1.073-1.039 1.672l0.383-0.004c0.066-0.145 0.134-0.289 0.199-0.433 0.197-0.429 0.37-0.837 0.457-1.235zm10.618 16.522c0.481 0.276 0.959 0.563 1.447 0.816 0.69 0.359 1.386 0.644 2.117 0.746l-1.297-1.296c-0.609 0.062-1.168-0.013-1.707-0.131-0.189-0.042-0.374-0.086-0.56-0.135z" transform="translate(0 -.00028610)" stroke="#f8992e" stroke-width="0.3" fill="#f8992e"/><path d="m58.85 14.42l-0.168 0.178c-4.894 5.156-3.523 14.372-0.844 20.025l0.119 0.254 0.143-0.242c0.218-0.38 0.315-0.831 0.357-1.276 0.043-0.441 0.034-0.892 0.031-1.312-0.603-3.385-0.949-6.416-0.113-9.924 0.091-0.336 0.217-0.654 0.357-0.969 0.143-0.321 0.298-0.635 0.442-0.955 0.29-0.645 0.541-1.328 0.541-2.121v-0.094l-0.086-0.041c-0.564-0.257-0.675-0.765-0.666-1.4 0.005-0.321 0.04-0.654 0.053-0.971 0.012-0.32 0.004-0.64-0.088-0.918l-0.078-0.234zm30.269 3.578c-1.379 0.026-2.638 0.689-3.633 1.684l-0.043 0.103c0 0.208 0.043 0.413 0.245 0.565l0.15 0.015c1.635-0.762 4.118-0.837 5.756-0.291l0.123 0.041 0.056-0.115c0.092-0.182 0.019-0.326-0.041-0.42-0.025-0.036-0.049-0.072-0.072-0.109-0.015-0.029-0.019-0.047-0.019-0.116l-1.108-1.16c-0.48-0.144-0.954-0.206-1.414-0.197zm3.61 0.176l-0.206 0.806c0.28 0.392 0.551 0.84 0.862 1.245 0.316 0.411 0.686 0.791 1.16 1.029l0.127 0.062 0.068-0.123c0.363-0.66 0.93-0.728 1.592-0.625 0.341 0.053 0.691 0.148 1.023 0.223 0.338 0.076 0.679 0.137 0.983 0.107l0.226-0.023-0.113-0.199c-0.581-1.006-1.48-1.554-2.48-1.885-0.497-0.165-1.022-0.278-1.553-0.369-0.525-0.089-1.055-0.156-1.566-0.231l-0.123-0.017zm-5.342 2.244l-0.084 0.018c-0.109 0.057-0.241 0.105-0.387 0.154-0.15 0.051-0.303 0.099-0.445 0.158-0.29 0.121-0.583 0.308-0.655 0.682l-0.025 0.132 0.131 0.038c0.426 0.116 0.913 0.152 1.416 0.17 0.499 0.018 1.026 0.019 1.541 0.056 1.027 0.074 1.963 0.294 2.646 1.108 0.129 0.036 0.269 0.088 0.413 0.138 0.154 0.054 0.315 0.104 0.472 0.131 0.333 0.056 0.689 0.017 0.977-0.314l0.029-0.137c-0.391-1.373-1.383-1.899-2.523-2.109-1.114-0.205-2.407-0.114-3.506-0.225zm-43.455 1.652l-0.116 0.082c-0.311 0.222-0.43 0.612-0.5 0.991-0.068 0.372-0.095 0.783-0.191 1.156-0.557 5.167-0.194 10.754 3.215 14.699l0.092-0.027c1.065-0.327 1.816 0.225 2.589 0.953l0.581 0.555c0.198 0.187 0.398 0.368 0.607 0.529 0.421 0.325 0.888 0.579 1.436 0.64l0.253 0.03-0.103-0.235c-1.879-4.311-3.956-8.528-5.264-13.162-0.165-0.495-0.239-1.039-0.33-1.57-0.094-0.54-0.209-1.089-0.504-1.656l-0.092 0.004c-0.688 0.016-0.921-0.331-1.035-0.825-0.061-0.262-0.084-0.556-0.113-0.839-0.03-0.289-0.067-0.586-0.164-0.86l-0.361-0.465zm46.248 9.657l0.466 0.453c0.855 0.823 2.665 1.787 4.233 1.711l0.125-0.082c0.216-0.435 0.079-0.973-0.113-1.358l-0.049-0.097-0.11 0.019c-1.337 0.253-2.718-0.034-3.935-0.439l-0.617-0.207z" fill="#0d3182" transform="translate(0 -.00028610)"/><path d="m72.453 16.416c-0.402 0.001-0.78 0.096-1.098 0.363-0.312 0.264-0.435 0.612-0.488 1.012-0.055 0.414-0.038 0.855-0.092 1.26 0.04 1.662 1.38 3.219 2.668 3.955l0.028-0.182c0.07-0.366 0.05-0.732-0.01-1.097-0.061-0.37-0.162-0.735-0.248-1.09-0.171-0.722-0.294-1.468 0.148-2.192 0.347-0.33 0.68-0.273 0.965-0.133 0.133 0.066 0.265 0.153 0.397 0.241 0.126 0.083 0.239 0.159 0.347 0.209 0.169 0.125 0.227 0.094 0.332-0.059 0.06-0.087 0.117-0.194 0.176-0.289 0.033-0.054 0.072-0.112 0.117-0.166-0.57-0.692-1.26-1.325-2.004-1.629-0.411-0.111-0.836-0.204-1.238-0.203zm27.667 1.522c-0.712 0.051-1.481 0.266-2.134 0.345 0.175 0.329 0.407 0.714 0.659 1.125l0.166 0.051c0.466 0.145 0.82-0.047 1.209-0.336 0.2-0.147 0.4-0.31 0.6-0.445 0.22-0.14 0.45-0.259 0.72-0.301l0.12-0.018 0.25 0.672c-0.15 0.695-0.27 1.377-0.46 2.004-0.2 0.633-0.48 1.226-0.93 1.676 0.06 0.219 0.08 0.422 0.05 0.588 0.31-0.793 0.65-1.503 0.94-2.244 0.29-0.764 0.51-1.549 0.54-2.418-0.37-0.619-0.99-0.752-1.73-0.699zm-24.212 3.98c-0.39 1.015-0.386 2.253-0.16 3.332 0.004 1.062-0.672 1.917-1.471 2.488-0.467 0.237-0.978 0.007-1.306-0.176l-0.075-0.103c-0.213-1.174-0.489-2.363-1.283-3.178-2.114 3.026-2.605 7.145-1.806 10.953l-0.018 0.108c-0.082 0.132-0.17 0.207-0.26 0.238l0.121 0.58 0.411 0.164c0.336 2.921 1.462 5.473 3.669 7.518h0.12c0.466-0.763 0.777-1.598 1.027-2.469 0.26-0.904 0.452-1.84 0.693-2.768l0.057-0.209 0.174 0.129c1.058 0.777 1.915 2.039 2.625 3.194l0.043-0.158c0.041-0.158 0.075-0.317 0.119-0.473 0.085-0.318 0.204-0.646 0.473-0.916l0.084-0.082 0.099 0.06c0.524 0.332 0.926 0.785 1.264 1.278 0.322 0.471 0.589 0.989 0.844 1.48 3.156 1.278 6.374 3.942 8.168 7.059 1.996 1.07 4.962 1.104 7.066 0.238 0.955-0.55 1.55-1.526 1.687-2.553-2.95-1.021-6.43-0.905-9.414-0.033l-0.107 0.031-0.059-0.093c-0.703-1.148-1.426-2.352-2.267-3.508-0.84-1.154-1.798-2.256-2.973-3.211-0.332-0.924 0.084-1.621 0.524-2.26 0.216-0.315 0.454-0.632 0.636-0.965 0.174-0.315 0.289-0.633 0.307-0.976-0.098-0.174-0.2-0.17-0.377-0.125-0.114 0.028-0.231 0.071-0.354 0.09-0.121 0.02-0.258 0.021-0.398-0.032-0.527 0.112-0.933 0.432-1.289 0.848-0.184 0.215-0.349 0.452-0.508 0.693-0.165 0.247-0.321 0.496-0.478 0.727-0.412 0.415-0.8 0.267-1.086 0.023-0.138-0.118-0.262-0.263-0.368-0.394l-0.144-0.184c-0.231 0.121-0.36 0.339-0.473 0.592-0.066 0.15-0.125 0.305-0.189 0.457-0.066 0.161-0.137 0.32-0.223 0.465l-0.101 0.166-0.131-0.141c-1.669-1.744-2.42-4.312-2.156-6.873 0.311-1.325 1.264-2.543 2.439-3.338 0.186-0.032 0.31-0.072 0.449-0.129 0.145-0.06 0.289-0.129 0.43-0.175 0.272-0.093 0.573-0.115 0.842 0.138 0.188-0.258 0.38-0.501 0.562-0.724 0.001-0.109-0.003-0.217-0.008-0.325-0.313-0.246-0.665-0.428-1.039-0.585-0.397-0.168-0.815-0.304-1.226-0.452-0.833-0.298-1.679-0.65-2.338-1.423-1.028-1.089-1.05-2.686-0.848-4.018zm9.721 1.234c-0.833-0.017-1.596 0.275-2.242 1.084-0.162 0.408-0.248 0.839-0.213 1.319 0.04 0.17 0.134 0.219 0.301 0.259 0.097 0.024 0.203 0.041 0.3 0.071 0.085 0.025 0.174 0.062 0.256 0.125 2.229-0.524 5.051-0.846 7.235 0.179-0.065-0.16-0.165-0.311-0.287-0.459-0.1-0.118-0.21-0.232-0.323-0.343l-0.345-0.338c-0.252-0.251-0.542-0.417-0.858-0.541-0.321-0.129-0.661-0.211-1-0.295-0.687-0.171-1.417-0.355-1.971-0.947-0.291-0.068-0.576-0.108-0.853-0.114zm12.15 0.137c-0.126-0.015-0.256-0.013-0.394 0.008 0.024 0.019 0.052 0.032 0.086 0.045 0.046 0.019 0.099 0.032 0.15 0.043l0.186 0.033c0.262 0.05 0.588 0.15 0.588 0.637v0.093l-0.086 0.041c-0.405 0.193-0.825 0.111-1.207-0.013-0.19-0.06-0.38-0.135-0.569-0.201-0.141-0.05-0.281-0.095-0.42-0.125 0.172 0.22 0.373 0.454 0.604 0.693 0.131 0.042 0.27 0.074 0.418 0.105 0.256 0.053 0.522 0.098 0.769 0.164 0.485 0.128 0.957 0.348 1.164 0.903 0.139 0.031 0.263 0.015 0.379-0.024 0.073-0.025 0.142-0.059 0.211-0.095 0.073-0.04 0.144-0.084 0.215-0.127 0.297-0.177 0.647-0.38 1.117-0.135l0.07 0.09c0.15 0.502 0.44 1.025 0.57 1.541 0.09 0.359 0.11 0.727-0.04 1.086 0.02 1.01-0.52 2.519-1.2 3.332 0.6 0.265 0.96 0.926 1.18 1.41 0.45 1.104 0.31 2.078-0.08 2.963-0.2 0.441-0.45 0.861-0.72 1.265-0.25 0.385-0.52 0.761-0.77 1.135 0.04 0.155 0.15 0.223 0.32 0.254 0.11 0.019 0.22 0.023 0.33 0.022l0.29-0.01c1.36-1.234 2.18-2.855 2.32-4.69 0.09-0.441 0-0.803-0.18-1.148-0.1-0.178-0.21-0.345-0.34-0.51-0.13-0.171-0.26-0.339-0.4-0.504-0.52-0.665-1.02-1.404-0.41-2.41 0.24-1.216 0.27-2.546-0.1-3.67l-0.54-0.179c-0.11-0.142-0.4-0.396-0.81-0.696-0.02 0.044-0.04 0.09-0.06 0.135l-0.06 0.131-0.13-0.061c-0.263-0.12-0.499-0.296-0.728-0.482-0.224-0.183-0.449-0.383-0.682-0.561-0.329-0.25-0.662-0.443-1.041-0.488zm-26.375 3.295l0.164 0.246c0.518 0.775 1.419 1.771 2.397 1.981 0.56 0.136 0.956-0.021 1.336-0.26 0.199-0.125 0.387-0.267 0.586-0.399 0.202-0.133 0.424-0.26 0.674-0.34l0.13-0.042 0.051 0.128c0.193 0.492 0.024 0.906-0.17 1.266-0.093 0.175-0.203 0.348-0.289 0.525-0.086 0.172-0.147 0.336-0.162 0.504-0.481 2.007-0.593 4.4-0.262 6.496l0.018 0.114-0.104 0.045c-1.848 0.816-2.436 2.816-2.511 4.771l-0.004 0.143h-0.498l-0.039-0.088c-1.938-4.323-3.103-9.97-1.414-14.811l0.097-0.279zm16.598 0.402l-0.076 0.817v0.002c0.076 0.149 0.262 0.444 0.521 0.332 0.63 0.223 0.667-0.661 0.631-0.703l-0.613 0.685c-0.445-0.149-0.463-0.761-0.277-1.133h-0.186zm-0.818 0.262v0.002l-0.26 0.258c0.056 0.074 0.098 0.125 0.144 0.162 0.047 0.037 0.098 0.059 0.172 0.078-0.036-0.149 0.131-0.389-0.054-0.5h-0.002zm13.366 0.09c-0.07 0.049-0.1 0.126-0.12 0.25-0.01 0.082-0.02 0.167-0.04 0.246-0.01 0.052-0.03 0.109-0.05 0.164 0.11 0.085 0.17 0.127 0.22 0.17 0.05 0.036 0.09 0.079 0.12 0.129v-0.436c0.01-0.155 0-0.283-0.03-0.381-0.02-0.066-0.05-0.112-0.1-0.142zm-0.78 0.096l-0.186 0.445h0.186v-0.445zm-0.557 0.074c0.037 0.185-0.075 0.483 0.185 0.445l-0.185-0.445zm-9.059 0.183c-0.072 0.187-0.334 0.447-0.111 0.559l0.129-0.131c-0.018-0.055 0.014-0.163 0.033-0.256 0.009-0.045 0.015-0.09 0.01-0.121-0.006-0.031-0.023-0.051-0.061-0.051zm-1.023 6.278c-0.123 0.006-0.243 0.023-0.365 0.049 0.608 0.218 1.236 0.282 1.838 0.412 0.631 0.136 1.257 0.348 1.769 0.84 0.138 0.408-0.025 0.652-0.281 0.824l-0.104 0.023c-0.635-0.094-1.269-0.251-1.9-0.396-0.553-0.127-1.1-0.243-1.643-0.293 0.609 0.181 1.259 0.32 1.91 0.478 0.708 0.173 1.425 0.37 2.088 0.672l0.104 0.049-0.02 0.109c-0.042 0.254-0.17 0.519-0.435 0.694l-0.108 0.023c-0.631-0.111-1.27-0.27-1.91-0.387-0.59-0.107-1.17-0.176-1.74-0.142v0.119c0.276 0.062 0.563 0.099 0.855 0.121 0.339 0.026 0.687 0.038 1.028 0.061 0.684 0.046 1.379 0.144 1.953 0.519 0.427 0.321 0.167 0.745-0.065 0.938l-3.14-0.145c-0.099 0.09-0.14 0.121-0.172 0.151 0.556 0.181 1.2 0.19 1.865 0.181 0.353-0.005 0.703-0.013 1.051-0.008 0.352 0.007 0.699 0.028 1.031 0.084l0.451 0.305-0.648 0.768c0.119 0.453 0.22 0.914 0.381 1.345 0.136 0.364 0.315 0.702 0.586 0.994 0.151-0.807 0.395-1.625 0.99-2.289l0.109-0.048c0.359 0 0.506 0.264 0.59 0.498 0.04 0.113 0.071 0.237 0.11 0.357l0.363-0.883 0.123 0.031c0.324 0.082 0.389 0.377 0.426 0.588 0.017 0.105 0.031 0.215 0.058 0.317l0.483-0.934 0.113 0.029c0.36 0.097 0.466 0.363 0.506 0.612 0.017 0.104 0.024 0.214 0.037 0.32l0.508-0.779 0.107 0.037c0.156 0.052 0.253 0.158 0.315 0.283 0.057 0.119 0.084 0.257 0.101 0.383 0.018 0.121 0.031 0.251 0.057 0.371l0.693-1.162c-1.62-0.388-3.441-0.461-4.955-0.404l-0.398-0.202c-0.104-0.517 0.135-0.789 0.361-1.015 0.755-0.224 1.582-0.272 2.318-0.44 0.524-0.118 0.978-0.296 1.293-0.617-0.088 0.039-0.18 0.074-0.271 0.104-0.27 0.088-0.563 0.135-0.863 0.048l-0.149-0.042 0.051-0.149c0.231-0.662-0.039-0.966-0.441-1.267 0.085 0.143 0.154 0.295 0.203 0.457l0.035 0.119-0.112 0.056c-0.071 0.037-0.145 0.082-0.218 0.127-0.079 0.049-0.168 0.099-0.262 0.137-0.196 0.079-0.433 0.091-0.654-0.105-0.509-0.548-0.757-1.156-0.6-1.989l0.041-0.213 0.184 0.116c0.112 0.07 0.23 0.147 0.351 0.232-0.04-0.122-0.061-0.258-0.058-0.41l0.052-0.108c-0.39-0.191-0.997-0.082-1.519-0.089-0.006 0.135-0.085 0.262-0.26 0.339-0.467 0.17-1.004-0.076-1.361-0.253-0.571-0.078-1.145-0.28-1.723-0.418-0.377-0.09-0.746-0.151-1.113-0.131v-0.002zm10.342 6.185c0.091 0.384 0.154 0.795 0.24 1.192 0.066 0.303 0.146 0.591 0.256 0.849 0.291-0.516 0.471-1.081 0.591-1.679-0.34-0.14-0.707-0.26-1.087-0.362zm-10.922 1.479c-0.124-0.004-0.229 0.048-0.328 0.178 0 0.521 0.281 0.775 0.681 0.974 0.214 0.108 0.451 0.193 0.68 0.285 0.184 0.077 0.37 0.16 0.537 0.268l0.975-1.352 0.531 0.481c-0.035-0.049-0.075-0.098-0.115-0.147-0.087-0.101-0.177-0.197-0.266-0.295-0.062-0.07-0.125-0.144-0.182-0.224l-0.863 0.398c-0.24 0.05-0.458-0.015-0.652-0.103-0.188-0.087-0.376-0.208-0.561-0.307-0.172-0.093-0.314-0.152-0.437-0.156zm2.621 1.748c-0.406 0.625-0.483 1.378-0.436 2.217 0.808-0.135 1.653-0.206 2.508-0.215-0.104-0.084-0.178-0.184-0.234-0.293-0.035-0.068-0.064-0.139-0.09-0.213l-0.07-0.213c-0.069-0.219-0.133-0.396-0.254-0.519l-0.055 0.169c-0.036 0.129-0.07 0.26-0.113 0.385-0.087 0.261-0.225 0.528-0.537 0.684l-0.162 0.082-0.047-0.176c-0.094-0.354-0.158-0.725-0.246-1.094-0.068-0.282-0.149-0.557-0.264-0.814zm7.211 0.777c-0.078 0.079-0.148 0.165-0.215 0.256-0.11 0.146-0.207 0.302-0.309 0.451-0.205 0.303-0.439 0.614-0.814 0.781l-0.1 0.045c-0.151-0.173-0.203-0.275-0.242-0.375-0.035-0.093-0.059-0.193-0.084-0.295-0.027-0.111-0.051-0.211-0.088-0.302-0.152 0.229-0.318 0.458-0.461 0.685l-0.136 0.069c-0.329-0.028-0.427-0.279-0.467-0.491-0.019-0.096-0.028-0.2-0.043-0.3l-0.621 0.752c1.189 0.088 2.352 0.292 3.414 0.599 0.084-0.314 0.179-0.667 0.222-1.013 0.04-0.322 0.033-0.616-0.056-0.862zm-4.322 0.307l-0.502 0.918c0.287 0.001 0.575 0.011 0.863 0.027-0.041-0.08-0.076-0.161-0.104-0.238-0.042-0.111-0.079-0.223-0.115-0.334-0.042-0.136-0.086-0.261-0.142-0.373zm-17.286 3.527c-0.247 0.058-0.422 0.286-0.617 0.453-1.04 0.854-1.001 2.339-0.705 3.491 0.409 0.557 0.706 1.744 1.598 1.521v-5.457c-0.102-0.028-0.193-0.027-0.276-0.008zm28.665 1.436c-0.56 0.008-1.18 0.128-1.88 0.345-0.2 0.334-0.58 0.455-0.94 0.534-0.2 0.046-0.42 0.079-0.62 0.131 0.57 0.068 1.21 0.11 1.79 0.24 0.75 0.17 1.44 0.504 1.72 1.279-0.09 0.84-0.8 0.744-1.16 0.486-0.78-0.178-1.64-0.138-1.96 0.512-0.16 0.551-0.05 1.178 0.4 1.537 0.45 0.519 1.04 0.714 1.7 0.768 0.33 0.027 0.67 0.018 1.01-0.006 0.35-0.023 0.69-0.06 1.01-0.088l0.13 0.051c0.39 0.452 0.43 0.993 0.42 1.523 0 0.261-0.02 0.532-0.02 0.803 0 0.264 0.01 0.521 0.07 0.769 0.21 0.543 0.59 0.993 1.04 1.413 0.45 0.426 0.97 0.813 1.45 1.216 0.95 0.805 1.77 1.725 1.54 3.225 0.4 0.343 0.91 0.517 1.4 0.412-0.36-0.637-0.73-1.269-1-1.943-0.29-0.739-0.49-1.534-0.45-2.434 0.06-0.474 0.32-0.827 0.63-1.119 0.28-0.275 0.62-0.52 0.91-0.805 0.08-0.233 0.01-0.296-0.07-0.353-0.04-0.024-0.07-0.043-0.11-0.065l-0.14-0.072c-0.08-0.047-0.18-0.106-0.26-0.193-1.34-0.336-2.51-1.351-3.28-4.75-0.55-2.455-1.65-3.442-3.33-3.416zm9.17 3.968c-0.18-0.015-0.37-0.008-0.54 0.018l-0.23 0.104c-0.09 0.037-0.16 0.074-0.22 0.117-0.12 0.077-0.18 0.161-0.16 0.299 0.27 0.54 0.33 1.068 0.31 1.586-0.02 0.436-0.1 0.867-0.19 1.298 0.51-0.146 0.98-0.377 1.41-0.714 0.2-0.307 0.43-0.594 0.61-0.909 0.17-0.305 0.28-0.623 0.25-1.006-0.15-0.507-0.69-0.747-1.24-0.793zm2.73 0.448c-0.07 0.508 0.2 0.764 0.62 1.004 0.24 0.132 0.5 0.248 0.74 0.384 0.12 0.067 0.24 0.139 0.35 0.223l-0.08-0.525c-0.47-0.581-1.04-1.164-1.63-1.086zm-34.483 1.994c-0.05 0.025-0.061 0.062-0.058 0.152 0.001 0.065 0.012 0.136 0.015 0.201 0.005 0.053 0.008 0.115-0.002 0.176 0.032 0.056 0.059 0.119 0.084 0.182l0.102 0.263c0.068 0.184 0.134 0.365 0.219 0.512 0.154 0.274 0.332 0.408 0.703 0.199 0.772-0.26 1.63-0.577 1.912-1.052-0.445-0.168-0.913-0.281-1.393-0.373-0.525-0.099-1.058-0.171-1.582-0.26zm34.923 0.068c-0.23 0.03-0.35 0.182-0.41 0.399-0.06 0.225-0.04 0.497-0.01 0.691-0.14 0.793-0.87 1.387-1.49 1.613 0.03 0.019 0.06 0.042 0.1 0.075 0.73 0.405 1.87 0.293 2.49-0.254 0.54-0.443 0.72-1.12 0.51-1.733-0.21-0.47-0.67-0.823-1.19-0.791zm-1.5 0.367l-0.57 0.846c0.03 0.071 0.1 0.116 0.19 0.106 0.11-0.163 0.24-0.369 0.31-0.582 0.05-0.133 0.08-0.258 0.07-0.37zm-30.192 2.942c-0.95 0.29-2.055 0.304-3.018 0.015-0.272 0.295-0.429 0.631-0.349 1.043 0.071 0.123 0.169 0.268 0.287 0.366 0.12 0.096 0.248 0.136 0.408 0.068 1.091-0.186 2.336-0.478 2.672-1.492zm32.262 0.566c-0.09 0.015-0.15 0.11-0.21 0.223-0.09 0.162-0.16 0.364-0.25 0.547-0.09 0.185-0.21 0.383-0.41 0.49-0.09 0.079-0.21 0.149-0.31 0.213l-0.34 0.187c-0.15 0.088-0.27 0.17-0.36 0.252 0.55 0.305 1.22 0.462 1.85 0.272 0.57-0.168 1.05-0.721 0.98-1.319l-0.49-0.597c-0.22-0.214-0.36-0.282-0.46-0.268zm-35.748 2.385c-0.157-0.005-0.299 0.039-0.434 0.158-0.025 0.264-0.11 0.535-0.148 0.797-0.035 0.234-0.029 0.434 0.08 0.611 0.296-0.021 0.611 0.009 0.918 0.014 0.323 0.004 0.603-0.027 0.826-0.17 0.428-0.245 0.944-0.598 1.209-1.051-0.204 0.06-0.355 0.081-0.532 0.065-0.256 0.055-0.502 0.023-0.73-0.041-0.227-0.064-0.445-0.162-0.658-0.244-0.199-0.078-0.372-0.133-0.529-0.139h-0.002zm35.978 1.328c-0.42 0.001-0.87 0.259-1.12 0.793-0.15 0.153-0.3 0.212-0.43 0.256-0.14 0.041-0.28 0.072-0.41 0.107-0.24 0.067-0.32 0.125-0.33 0.233 0.54 0.767 1.46 0.789 2.33 0.648 0.47-0.26 0.96-0.724 0.87-1.279-0.11-0.501-0.49-0.758-0.91-0.758zm-4.19 1.692c-0.2-0.001-0.43 0.068-0.68 0.162-0.35 0.131-0.72 0.304-1.09 0.394-0.24 0.059-0.49 0.085-0.74 0.035 0.56 0.762 1.57 1.074 2.61 1.084 0.1-0.078 0.21-0.137 0.31-0.187l0.17-0.086c0.05-0.026 0.09-0.054 0.14-0.084 0.13-0.096 0.22-0.215 0.11-0.524-0.21-0.599-0.49-0.793-0.83-0.794zm-33.14 0.209c-0.334 0.192-0.54 0.534-0.59 0.917 0.291 0.214 0.666 0.303 1.076 0.336 0.439 0.037 0.891 0.012 1.274 0.028 0.472-0.144 0.946-0.469 1.164-0.822-1.021 0.397-2.073-0.038-2.924-0.459zm-1.4 1.83c-0.217 0.027-0.417 0.182-0.627 0.55l-0.096 0.286c-0.034 0.102-0.064 0.211-0.078 0.316-0.024 0.196 0.018 0.3 0.144 0.344 1.013 0.096 2.183-0.022 2.84-0.707-0.226 0.008-0.438-0.042-0.638-0.119-0.155-0.06-0.307-0.141-0.454-0.223-0.14-0.08-0.278-0.163-0.412-0.236-0.249-0.139-0.468-0.236-0.677-0.211h-0.002z" fill="#fff" transform="translate(0 -.00028610)"/></g></svg>
