<?xml version="1.0" encoding="UTF-8" standalone="no"?>
<svg xmlns:rdf="http://www.w3.org/1999/02/22-rdf-syntax-ns#" xmlns="http://www.w3.org/2000/svg" xml:space="preserve" height="93.327" viewBox="0 0 152 93.327187" width="152" version="1.1" xmlns:cc="http://creativecommons.org/ns#" xmlns:dc="http://purl.org/dc/elements/1.1/"><g transform="matrix(1.25 0 0 -1.25 -630.15 991.8)"><g transform="matrix(2.0081 0 0 2.0081 -568.05 -760.63)"><path d="m10.664 0v6.9941l2.4844 3.9883s-7.1016 2.8819-11.838 6.3906l2.875 6.2852-4.185 13.381s3.6295-2.5226 8.0957-5.1738v5.8887s2.3724-1.5123 4.6699-2.6523l-2.0977 3.2109v7.168h19.83v-14.803l6.8516 10.801 6.8535-10.801v14.803h19.83v-7.168l-2.0977-3.2109c2.2962 1.1388 4.668 2.6523 4.668 2.6523v-5.8887c4.4675 2.6512 8.0957 5.1738 8.0957 5.1738l-4.1855-13.381 2.875-6.2852c-4.735-3.5088-11.834-6.3906-11.834-6.3906l2.481-3.9879v-6.9941h-18.084l-6.717 10.441c-1.9838-0.05125-3.7695 0-3.7695 0l-6.718-10.441h-18.084zm58.463 38.139c-0.9925 0-1.7852 0.77117-1.7852 1.7324 0 0.9825 0.79266 1.752 1.7852 1.752 1.0038 0 1.7754-0.76945 1.7754-1.752 0-0.96125-0.77164-1.7324-1.7754-1.7324zm0 0.34766c0.77125 0 1.3301 0.62328 1.3301 1.3945 0 0.76-0.55836 1.373-1.3184 1.373-0.7825 0-1.3535-0.61156-1.3535-1.3828 0-0.76 0.57055-1.3848 1.3418-1.3848zm-0.0098 0.50781c-0.285 0-0.50727 0.02148-0.66602 0.05273v1.7324h0.40039v-0.69727h0.18945c0.2225 0 0.32883 0.08539 0.36133 0.27539 0.0525 0.2 0.08297 0.35812 0.13672 0.42188h0.43164c-0.0425-0.06375-0.0725-0.16859-0.125-0.43359-0.05375-0.23125-0.14961-0.36008-0.31836-0.42383v-0.01953c0.21128-0.0625 0.35941-0.21234 0.35941-0.40234 0-0.16875-0.07492-0.30516-0.16992-0.37891-0.12625-0.07375-0.27211-0.12695-0.59961-0.12695zm-0.0332 0.28516c0.25375 0 0.36914 0.10617 0.36914 0.26367 0 0.18-0.17914 0.25391-0.40039 0.25391h-0.18945v-0.49609c0.0425-0.01125 0.1157-0.02148 0.2207-0.02148z" transform="matrix(.8 0 0 -.8 534.24 773.5)" fill="#aaa"/><path d="m591.95 746.91-2.436 7.788 2.048 4.478-0.054 0.186c-2.854 1.876-5.858 3.405-9.239 4.693v1.001l1.987 3.19v4.036h-12.591l-4.883-7.588c-0.89 0.054-1.778 0.084-2.662 0.084s-1.772-0.03-2.662-0.084l-4.882 7.588h-12.591v-4.036l1.987-3.19v-1.001c-3.382-1.287-6.386-2.817-9.24-4.693l-0.053-0.186 2.048-4.478-2.437-7.788 0.225-0.17c1.69 1.112 3.464 2.128 5.288 3.045v-4.504c1.317 0.783 2.713 1.493 4.169 2.133v-1.894l-1.984-3.036v-4.159h13.436v12.31c0.486 0.069 0.975 0.13 1.468 0.185l5.228-8.242 5.229 8.241c0.493-0.054 0.982-0.115 1.467-0.184v-12.31h13.437v4.159l-1.984 3.036v1.894c1.456-0.64 2.851-1.35 4.168-2.133v4.504c1.824-0.916 3.598-1.933 5.289-3.045l0.224 0.17z" fill="#660000"/><path d="m37.352 12.762c-8.8637 0-18.085 2.2819-26.031 6.4219v13.148c8.0038-4.0112 17.19-6.2129 26.031-6.2129 8.84 0 18.026 2.2016 26.029 6.2129v-13.148c-7.9475-4.14-17.168-6.4219-26.029-6.4219zm-22.688 0.83789c-3.45 1.3538-6.5783 2.92-9.5508 4.7812l2.2891 5.002-2.0469 6.5469c1.3375-0.7675 2.7077-1.4866 4.0977-2.1641v-9.5996l0.099609-0.16406 0.44531-0.23633c1.5125-0.80625 3.0723-1.5409 4.666-2.2109v-1.9551zm45.373 0v1.9551c1.5938 0.66875 3.1535 1.4047 4.666 2.2109l0.44531 0.23633 0.09766 0.16406v9.5996c1.39 0.6775 2.7609 1.3966 4.0996 2.1641l-2.0469-6.5469 2.2871-5.002c-2.9725-1.86-6.0988-3.4262-9.5488-4.7812z" transform="matrix(.8 0 0 -.8 534.24 773.5)" fill="#fff"/><path d="m37.789 14.529c-0.7675-0.0087-1.5348-0.003-2.291 0.01953l-2.8594 8.0508s-0.04563 0.12375-0.04687 0.125l-0.13477 0.01172-0.64453 0.0625v1.6543c1.1175-0.10625 2.2473-0.18125 3.3711-0.21875v-1.6582l-0.48047 0.01758s-0.31516 0.01172-0.31641 0.01172l0.55469-1.5156 0.14062-0.0059c0.955-0.035 1.9269-0.0457 2.8906-0.0332l0.15039 0.0039s0.52594 1.5039 0.52344 1.5039l-0.30078-0.0039-0.48047-0.0098v1.6582c1.1812 0.015 2.3734 0.06891 3.5547 0.16016v-1.6562c-0.2525-0.01875-0.49023-0.03578-0.70898-0.05078l-0.13867-0.01172-0.04687-0.13086-2.7363-7.9844zm3.1055 0.125v2.7832c0.5425 0.035 1.0877 0.08227 1.6289 0.13477v-1.1172l0.23242 0.02148c0.4575 0.04625 0.90914 0.09859 1.3379 0.15234l0.18359 0.02344v6.1133s0.000547 0.23688-0.002 0.23438l-0.23438-0.02734-0.58594-0.07031v1.6543c1.2438 0.1425 2.4927 0.32844 3.7227 0.55469v-1.6504l-0.64453-0.11719s-0.17258-0.03-0.17383-0.03125v-6.3535l0.24609 0.04297c0.475 0.0825 0.91641 0.16375 1.3477 0.25l0.16992 0.03125v1.1191c0.53375 0.10875 1.0684 0.22391 1.5996 0.34766v-2.7754c-2.9-0.675-5.8656-1.1191-8.8281-1.3203zm-8.5 0.07422c-2.96 0.255-5.9212 0.74976-8.8125 1.4785v2.7754c0.53125-0.1325 1.0645-0.26 1.5957-0.375v-1.1191l0.16602-0.03516c0.425-0.09375 0.85797-0.17953 1.3242-0.26953l0.25-0.04883v6.1816s0.000547 0.17383-0.002 0.17383l-0.16797 0.0332-0.64453 0.12695v1.6504c1.2275-0.2475 2.4729-0.45664 3.7129-0.61914v-1.6543l-0.57812 0.07813s-0.24094 0.0332-0.24219 0.0332v-6.3496l0.18164-0.02539c0.46625-0.0675 0.92102-0.12844 1.3535-0.17969l0.23438-0.02734v1.1191c0.54-0.06125 1.0839-0.11656 1.6289-0.16406v-2.7832zm18.797 1.6094v1.6543l0.66797 0.17773s0.1575 0.04102 0.15625 0.04102v6.0879s-0.000703 0.27344-0.002 0.27344l-0.26562-0.07031-0.55664-0.14844v1.6426c2.6162 0.68125 5.2093 1.559 7.7168 2.6152v-2.3613c-0.651-0.275-1.312-0.539-1.97-0.79v0.43164 0.30273l-0.28516-0.10742c-0.80875-0.30375-1.6393-0.59313-2.4668-0.85938l-0.14453-0.04687v-2.5312l0.27539 0.08789c0.82 0.265 1.6398 0.55547 2.4473 0.85547v-1.4805c-0.85125-0.32125-1.7181-0.62359-2.5781-0.90234l-0.14453-0.04687v-2.3496l0.27539 0.08789c0.82125 0.26375 1.6581 0.55523 2.4844 0.86523 0 0 0.13672 0.05203 0.13672 0.05078v0.5918c0.65875 0.24875 1.3182 0.51406 1.9707 0.78906v-2.2246c-2.5038-1.0625-5.098-1.9485-7.7168-2.6348zm-14.621 0.22656 0.19531 0.56445 0.74609 2.1641 0.09766 0.2793h-0.29883c-0.5025-0.0025-1.0159 0.0038-1.5234 0.01758l-0.30664 0.0078 0.10352-0.28906 0.7832-2.1836 0.20312-0.56055zm-15.85 0.44531c-1.2725 0.395-2.5401 0.835-3.7676 1.3125l-1.5918 2.2227v2.5684l1.0605 0.71484c1.1188-0.44375 2.3101-0.87078 3.5488-1.2695l0.27344-0.08984v2.7988l-0.14648 0.04687c-0.84125 0.27-1.6755 0.56078-2.4805 0.86328l-0.28516 0.10742v-1.1406c-0.6625 0.2525-1.322 0.51797-1.9707 0.79297v1.166c0.48625 0.29375 0.97961 0.59891 1.4746 0.91016 1.2387-0.4825 2.5079-0.92586 3.7754-1.3184l1.6602-2.0977v-3.1211l-1.1699-0.76562c-1.0838 0.3275-2.2244 0.71625-3.4844 1.1875l-0.28516 0.10742v-2.1758l0.13672-0.05078c0.8425-0.31625 1.6845-0.60859 2.502-0.87109l0.27344-0.08984v0.71289c0.66875-0.2125 1.3473-0.41406 2.0273-0.60156v-0.89453c-0.52-0.34875-1.0395-0.69539-1.5508-1.0254z" transform="matrix(.8 0 0 -.8 534.24 773.5)" fill="#660000"/></g></g></svg>
