<?xml version="1.0" encoding="UTF-8" standalone="no" ?>
<!DOCTYPE svg PUBLIC "-//W3C//DTD SVG 1.1//EN" "http://www.w3.org/Graphics/SVG/1.1/DTD/svg11.dtd">
<svg xmlns="http://www.w3.org/2000/svg" xmlns:xlink="http://www.w3.org/1999/xlink" version="1.1" width="1080" height="1080" viewBox="0 0 1080 1080" xml:space="preserve">
<desc>Created with Fabric.js 5.2.4</desc>
<defs>
</defs>
<g transform="matrix(1 0 0 1 540 540)" id="32cdf442-0313-4a37-8cac-775f359b79fa"  >
<rect style="stroke: none; stroke-width: 1; stroke-dasharray: none; stroke-linecap: butt; stroke-dashoffset: 0; stroke-linejoin: miter; stroke-miterlimit: 4; fill: rgb(255,255,255); fill-rule: nonzero; opacity: 1; visibility: hidden;" vector-effect="non-scaling-stroke"  x="-540" y="-540" rx="0" ry="0" width="1080" height="1080" />
</g>
<g transform="matrix(1 0 0 1 540 540)" id="4e4c9bfe-6cb6-4116-a215-ed1622e1c3d3"  >
</g>
<g transform="matrix(3.77 0 0 3.77 540 539)"  >
<g style="" vector-effect="non-scaling-stroke"   >
		<g transform="matrix(0.87 0 0 0.87 0 0)"  >
<path style="stroke: none; stroke-width: 1; stroke-dasharray: none; stroke-linecap: butt; stroke-dashoffset: 0; stroke-linejoin: miter; stroke-miterlimit: 4; fill: rgb(0,0,0); fill-rule: evenodd; opacity: 1;" vector-effect="non-scaling-stroke"  transform=" translate(-122.15, -170.06)" d="M 134.65 10.879 C 125.19550000000001 11.15561 122.16000000000001 14.2716 122.16000000000001 14.2716 L 121.41000000000001 18.5489 C 121.41000000000001 18.5489 118.6136 19.14198 116.5096 19.629 C 112.4936 20.579 107.992 22.5528 107.992 22.5528 C 107.992 22.5528 69.731 20.846700000000002 68.168 34.6818 C 67.44200000000001 41.0788 68.85825000000001 42.641200000000005 69.4492 46.7068 C 70.85820000000001 56.0898 72.2125 60.168800000000005 72.60350000000001 69.64580000000001 C 72.84750000000001 76.03980000000001 71.96873000000001 84.1808 71.96873000000001 84.1808 C 71.96873000000001 84.1808 69.57093 82.78580000000001 67.87493 82.3468 C 66.33093000000001 81.9448 63.798730000000006 81.90539 63.798730000000006 81.90539 L 65.90423000000001 87.25309 L 60.13273000000001 87.06559 C 60.13273000000001 87.06559 53.85583000000001 74.30059 50.58583000000001 69.07359 C 40.669830000000005 53.24558999999999 27.37983000000001 48.68459 23.983830000000008 44.485589999999995 C 20.57183000000001 40.299589999999995 17.112730000000006 31.671589999999995 17.112730000000006 31.671589999999995 C 17.112730000000006 31.671589999999995 13.395630000000006 37.10339 11.323630000000005 48.890589999999996 C 9.230630000000005 60.68559 11.278710000000006 67.95259 11.278710000000006 67.95259 L 7.4369100000000055 66.16939 C 7.4369100000000055 66.16939 6.968270000000006 78.24839 8.505310000000005 86.80439000000001 C 10.030310000000005 95.35639 17.138110000000005 106.84139000000002 17.138110000000005 106.84139000000002 L 13.458410000000004 107.30428000000002 C 13.458410000000004 107.30428000000002 16.130310000000005 117.17448000000002 19.755310000000005 123.33728000000002 C 23.360310000000005 129.48728000000003 33.909310000000005 140.20228000000003 33.909310000000005 140.20228000000003 C 33.909310000000005 140.20228000000003 31.781010000000006 147.60228000000004 31.507010000000005 156.91328000000004 C 31.177010000000006 168.18828000000005 33.501110000000004 173.84728000000004 33.501110000000004 173.84728000000004 L 38.92691000000001 171.36098000000004 C 38.92691000000001 171.36098000000004 37.705110000000005 178.28418000000005 38.37613 185.47798000000003 C 38.942130000000006 191.92798000000002 43.895630000000004 201.11098000000004 43.895630000000004 201.11098000000004 L 49.053830000000005 195.38248000000004 C 49.053830000000005 195.38248000000004 50.71793 201.39818000000005 52.63393000000001 204.85318000000004 C 56.484930000000006 211.81818000000004 67.26493 219.04218000000003 67.26493 219.04218000000003 L 70.64973 210.79998000000003 C 70.64973 210.79998000000003 78.80783000000001 213.76768000000004 79.31383000000001 227.52098000000004 C 79.60783 235.31398000000004 75.14973 251.10298000000003 75.14973 251.10298000000003 L 81.21223 254.39398000000003 L 76.09313 269.23798000000005 L 80.54233 272.23408000000006 L 75.38803 289.01308000000006 L 81.75523 292.05998000000005 L 81.66539 300.35098000000005 C 82.56839000000001 309.34598000000005 87.33339000000001 316.82398000000006 87.33339000000001 316.82398000000006 L 92.87249000000001 313.6501800000001 C 92.87249000000001 313.6501800000001 93.59962000000002 315.7096800000001 96.07559000000002 318.9216800000001 C 98.56559000000001 322.1166800000001 105.61659000000002 329.1736800000001 105.61659000000002 329.1736800000001 L 114.72009000000001 321.3748800000001 C 114.72009000000001 321.3748800000001 118.14149000000002 323.89828000000006 120.41149000000001 325.15028000000007 C 122.67649000000002 326.3782800000001 131.28449 329.2674800000001 131.28449 329.2674800000001 C 131.28449 329.2674800000001 132.69969 327.5867800000001 134.06969 324.5057800000001 C 135.10969 322.16978000000006 137.33139 320.11518000000007 137.33139 320.11518000000007 C 137.33139 320.11518000000007 140.89449 321.84048000000007 142.62049 322.97648000000004 C 144.36549 324.10848000000004 153.32148999999998 326.52138 153.32148999999998 326.52138 C 153.32148999999998 326.52138 153.76882999999998 322.45428000000004 155.09878999999998 319.65028 C 156.41478999999998 316.84128 157.77648999999997 315.43348000000003 157.77648999999997 315.43348000000003 C 157.77648999999997 315.43348000000003 160.09668999999997 316.39345000000003 162.76868999999996 316.85148000000004 C 165.44868999999997 317.33448000000004 172.04798999999997 320.70108000000005 172.04798999999997 320.70108000000005 C 172.04798999999997 320.70108000000005 173.60908999999998 317.48048000000006 174.37608999999998 315.30848000000003 C 175.04908999999998 313.39748000000003 175.81158999999997 310.31048000000004 175.81158999999997 310.31048000000004 C 175.81158999999997 310.31048000000004 180.36458999999996 311.16604000000007 183.26858999999996 311.91208000000006 C 186.14058999999997 312.63808000000006 189.83498999999995 313.89448000000004 189.83498999999995 313.89448000000004 C 189.83498999999995 313.89448000000004 191.81278999999995 301.28548000000006 190.42678999999995 293.26948000000004 C 189.58178999999996 288.45748000000003 187.35448999999994 280.84348000000006 187.35448999999994 280.84348000000006 L 191.04788999999994 274.03488000000004 L 183.67288999999994 259.46888000000007 L 190.65918999999994 247.98688000000007 L 194.08688999999993 241.12748000000008 L 202.14548999999994 242.5473800000001 C 202.14548999999994 242.5473800000001 207.32418999999993 229.05038000000008 209.69818999999993 223.1543800000001 C 213.1181899999999 214.64038000000008 212.77438999999993 204.0783800000001 212.77438999999993 204.0783800000001 C 212.77438999999993 204.0783800000001 212.68018999999993 204.60879000000008 216.98918999999992 199.01978000000008 C 221.28818999999993 193.41578000000007 222.49898999999994 185.0687800000001 222.49898999999994 185.0687800000001 L 226.30168999999992 191.2523800000001 C 226.30168999999992 191.2523800000001 231.6274899999999 180.3293800000001 232.51648999999992 171.1913800000001 C 233.6864899999999 159.2273800000001 230.59268999999992 151.6733800000001 230.59268999999992 151.6733800000001 L 236.9305899999999 153.3452800000001 C 236.9305899999999 153.3452800000001 236.5812899999999 142.7682800000001 234.0262899999999 133.7572800000001 C 231.4702899999999 124.7522800000001 227.1414899999999 117.9002800000001 227.1414899999999 117.9002800000001 C 227.1414899999999 117.9002800000001 229.8180899999999 113.43858000000009 232.9500899999999 100.67928000000009 C 236.8640899999999 84.78828000000009 236.3914899999999 71.72628000000009 236.3914899999999 71.72628000000009 L 231.00668999999988 74.08758000000009 C 231.00668999999988 74.08758000000009 232.46298999999988 61.08158000000009 232.07698999999988 53.81958000000009 C 231.7029899999999 46.57758000000009 230.13358999999988 38.28258000000009 230.13358999999988 38.28258000000009 L 225.47928999999988 42.71228000000009 C 225.47928999999988 42.71228000000009 224.7635199999999 37.33878000000009 222.46948999999987 30.023280000000092 C 220.16648999999987 22.704280000000093 214.27998999999986 15.308280000000092 214.27998999999986 15.308280000000092 C 214.27998999999986 15.308280000000092 211.88148999999984 24.76338000000009 209.71748999999986 30.263280000000094 C 207.45348999999985 35.9812800000001 203.01048999999986 44.824280000000094 203.01048999999986 44.824280000000094 C 193.91948999999985 38.25528000000009 178.25448999999986 34.662280000000095 178.25448999999986 34.662280000000095 C 178.25448999999986 34.662280000000095 175.59748999999985 31.744280000000096 172.75448999999986 29.828280000000095 C 170.15148999999985 28.075280000000095 166.53188999999986 25.963080000000094 166.53188999999986 25.963080000000094 L 167.22719999999987 21.941580000000094 C 167.22719999999987 21.941580000000094 166.53079999999986 15.027680000000094 146.36819999999986 11.769580000000094 C 141.66519999999986 11.009830000000093 137.80099999999987 10.786750000000094 134.64919999999987 10.878960000000093 z" stroke-linecap="round" />
</g>
		<g transform="matrix(0.87 0 0 0.87 23.34 59.49)"  >
<path style="stroke: none; stroke-width: 1; stroke-dasharray: none; stroke-linecap: butt; stroke-dashoffset: 0; stroke-linejoin: miter; stroke-miterlimit: 4; fill: rgb(0,0,0); fill-rule: evenodd; opacity: 1;" vector-effect="non-scaling-stroke"  transform=" translate(-148.94, -238.35)" d="M 148.94 238.35 C 148.94027 238.34957 148.93973 238.34799999999998 148.94 238.34799999999998 L 148.938 238.34799999999998 C 148.93813999999998 238.34869999999998 148.94 238.349 148.94 238.35 z" stroke-linecap="round" />
</g>
		<g transform="matrix(0.87 0 0 0.87 15.65 -21.23)"  >
<path style="stroke: none; stroke-width: 1; stroke-dasharray: none; stroke-linecap: butt; stroke-dashoffset: 0; stroke-linejoin: miter; stroke-miterlimit: 4; fill: rgb(204,0,0); fill-rule: evenodd; opacity: 1;" vector-effect="non-scaling-stroke"  transform=" translate(-140.12, -145.7)" d="M 135.56 19.779 C 132.9956 19.87513 131.3358 20.34086 131.1928 21.1599 L 131.1928 21.1619 C 130.9108 22.7819 136.7895 25.179499999999997 144.3298 26.511499999999998 C 151.8508 27.839499999999997 158.2038 27.5965 158.4898 25.968529999999998 C 158.7688 24.357529999999997 152.8889 21.95883 145.3588 20.620829999999998 C 141.5943 19.95733 138.1244 19.68291 135.56 19.77903 z M 129.0502 24.5974 L 128.47793 27.8122 C 128.93392999999998 29.9042 135.20583 32.5901 143.10893 33.9841 C 150.99093 35.3701 157.75692999999998 34.992599999999996 158.89192999999997 33.1716 L 159.45247999999998 29.9626 C 158.31248 31.7826 151.56457999999998 32.1592 143.65748 30.76924 C 135.78647999999998 29.37924 129.49048 26.69434 129.05048 24.59734 z M 87.13219999999998 32.7615 C 81.74769999999998 32.863879999999995 77.79169999999998 34.3595 77.56769999999999 37.1814 C 76.77969999999999 47.3904 101.54669999999999 58.358399999999996 135.8177 64.4114 L 135.8177 64.4094 C 170.0867 70.4454 201.36970000000002 68.57310000000001 202.6697 58.4211 C 203.0327 55.579100000000004 194.9729 49.611000000000004 188.5757 48.341100000000004 L 197.02300000000002 56.733700000000006 C 195.73700000000002 64.05770000000001 164.841 65.1203 136.03100000000003 60.04030000000001 C 107.21600000000004 54.96730000000001 79.81900000000003 42.401300000000006 82.56600000000003 36.25730000000001 L 89.52110000000003 32.80420000000001 C 88.70035000000003 32.76183000000001 87.90160000000003 32.74661000000001 87.13240000000003 32.76123000000001 z M 79.86659999999998 51.5175 C 79.86659999999998 51.5175 81.81539999999998 63.799499999999995 81.83139999999997 71.7265 C 81.83839999999998 79.6955 81.30893999999998 84.5435 79.89189999999998 92.0785 L 82.49149999999997 96.1273 L 86.42699999999998 100.4105 L 89.75319999999998 98.7738 C 89.75319999999998 98.773799 89.16569999999997 98.94327 92.56569999999998 103.1293 C 95.85869999999998 107.1863 97.91529999999997 108.7758 97.91529999999997 108.7758 L 101.06369999999997 106.5707 C 101.06369999999997 106.5707 103.81609999999996 110.1297 105.87809999999998 112.1117 C 108.38709999999998 114.4947 112.93669999999997 117.4906 112.93669999999997 117.4906 L 116.29999999999997 115.6039 C 116.29999999999997 115.6039 119.30039999999997 118.1646 121.40739999999997 119.5316 C 125.26139999999997 122.0486 132.12039999999996 124.4613 132.12039999999996 124.4613 C 132.12039999999996 124.4613 139.08899999999997 123.73951 143.26139999999995 122.2855 C 145.92739999999995 121.3545 149.85709999999995 119.3109 149.85709999999995 119.3109 L 152.38249999999994 122.2406 C 152.38249999999994 122.2406 157.41069999999993 120.057 160.49769999999992 118.432 C 163.8286999999999 116.68900000000001 168.8003999999999 113.5453 168.8003999999999 113.5453 L 171.15779999999992 115.89489999999999 C 171.15779999999992 115.89489999999999 175.18639999999994 113.6745 177.71839999999992 111.5375 C 180.25039999999993 109.3835 182.06019999999992 105.66839999999999 182.06019999999992 105.66839999999999 C 182.06019999999992 105.66839999999999 185.69989999999993 92.8064 188.03089999999992 87.4224 C 190.35789999999992 82.0484 196.7222999999999 71.0244 196.7222999999999 71.0244 C 196.7222999999999 71.0244 178.6102999999999 78.3168 137.67129999999992 71.08885 C 94.59029999999991 63.487849999999995 79.86629999999991 51.51884999999999 79.86629999999991 51.51884999999999 z M 137.64759999999998 245.01749999999998 C 137.79931 248.6692 138.45056999999997 252.15509999999998 138.54408999999998 252.64839999999998 C 139.18416 256.3857 140.94249 263.1624 140.94249 263.1624 C 140.94249 263.1624 134.53468999999998 263.60323999999997 125.42249 257.5979 C 120.78819 254.53329999999997 117.43518999999999 250.79629999999997 115.40648999999999 246.21689999999998 C 113.22028999999999 247.24669999999998 110.42209 247.61139999999997 110.42209 247.61139999999997 C 110.42209 247.61139999999997 116.17349 249.18869999999998 115.38689 260.0134 C 114.87357999999999 267.1413 118.74689 271.3474 135.40689 271.6264 C 149.83589 271.88849 157.24789 264.18399999999997 152.81689 257.4584 C 150.02589 253.2351 148.86069 249.69959999999998 148.87939 247.7865 C 148.11254 248.26113999999998 147.78249 248.8328 146.97509 249.3353 C 146.22176 249.81407 144.92239 250.3509 144.92239 250.3509 C 144.92239 250.3509 141.82439 248.88129999999998 140.14309 247.5111 C 139.08429 246.63404 138.51979 246.0767 137.64699 245.017 z" stroke-linecap="round" />
</g>
		<g transform="matrix(0.87 0 0 0.87 -0.27 5.54)"  >
<path style="stroke: none; stroke-width: 1; stroke-dasharray: none; stroke-linecap: butt; stroke-dashoffset: 0; stroke-linejoin: miter; stroke-miterlimit: 4; fill: rgb(255,255,255); fill-rule: evenodd; opacity: 1;" vector-effect="non-scaling-stroke"  transform=" translate(-121.84, -176.42)" d="M 216.16 35.818 C 216.16 35.818 215.80498 48.864999999999995 211.619 64.947 C 208.18 78.132 212.10727 96.35900000000001 212.10728 96.35900000000001 L 218.40028 93.5934 C 218.40028 93.5934 217.37598 98.5047 217.912 102.62270000000001 C 218.49 107.14170000000001 220.69320000000002 110.2848 220.69320000000002 110.2848 C 220.69320000000002 110.2848 222.8247 104.5141 224.17170000000002 98.47980000000001 C 225.51970000000003 92.3799 225.92950000000002 85.27480000000001 225.92950000000002 85.27480000000001 L 220.115 87.0092 C 220.115 87.0092 221.9652 76.7882 222.7752 70.3632 C 223.35520000000002 65.6196 223.01934 58.00620000000001 223.01934 58.00620000000001 L 218.00764 62.91640000000001 C 218.38964 59.06640000000001 218.35746 57.44310000000001 218.39045000000002 53.05310000000001 C 218.39545 46.70810000000001 216.15995 35.819100000000006 216.15995 35.819100000000006 z M 19.680000000000007 54.971999999999994 C 18.448000000000008 59.96999999999999 18.129300000000008 64.8082 19.166330000000006 70.96199999999999 C 19.758330000000004 74.57399999999998 20.889230000000005 76.50389999999999 21.754230000000007 79.96789999999999 C 18.80223000000001 78.61589999999998 17.756230000000006 78.35659999999999 17.756230000000006 78.35659999999999 C 17.756230000000006 78.35659999999999 18.835930000000005 87.71059999999999 20.601930000000007 93.48159999999999 C 22.991830000000007 101.26059999999998 30.88893000000001 111.84259999999999 30.88893000000001 111.84259999999999 L 24.44943000000001 112.36798999999999 C 24.44943000000001 112.36798999999999 26.57263000000001 116.47628999999999 28.23263000000001 119.10428999999999 C 30.922630000000012 123.34528999999999 36.95333000000001 127.53589 36.95333000000001 127.53589 C 36.95333000000001 127.53589 37.49474000000001 121.76019 37.019740000000006 116.23289 C 36.477740000000004 110.09849 32.75994000000001 102.79688999999999 32.75994000000001 102.79688999999999 L 39.08804000000001 104.46489 C 39.08804000000001 104.46489 33.005140000000004 90.42389 28.45904000000001 84.93988999999999 L 35.05474000000001 86.64498999999999 C 35.05474000000001 86.64498999999999 33.97004000000001 78.73329 27.66604000000001 70.71699 C 19.91904000000001 60.90709 20.497740000000007 57.207989999999995 19.67974000000001 54.97098999999999 z M 92.90700000000001 66.44699999999999 L 88.6902 90.267 L 92.59450000000001 91.8158 L 94.70580000000001 79.9528 L 96.17850000000001 93.2238 L 99.61210000000001 94.58709999999999 L 103.82110000000002 70.7571 L 99.91680000000001 69.2083 L 97.8465 80.93329999999999 L 96.366 67.81429999999999 z M 108.897 72.96459999999999 L 105.35990000000001 75.37669999999999 L 102.33840000000001 92.46669999999999 L 105.02980000000001 96.89439999999999 L 109.70750000000001 98.39439999999999 L 113.27190000000002 95.9784 L 114.42430000000002 89.46669999999999 L 110.28760000000001 88.15619999999998 L 109.27000000000001 93.96669999999999 L 106.70160000000001 93.14833999999999 L 109.4711 77.42133999999999 L 112.04530000000001 78.23774999999999 L 111.19765000000001 82.99555 L 115.33435000000001 84.30024999999999 L 116.28553000000001 78.89594999999998 L 113.86363000000001 74.54044999999998 z M 126.391 78.01929999999999 L 122.7894 80.65019999999998 L 121.5453 87.75569999999999 L 124.1625 91.92559999999999 L 127.69369999999999 93.10529999999999 L 126.69955999999999 98.73029999999999 L 124.19955999999999 98.11310999999999 L 124.77181999999999 94.88851 L 120.47102 93.85531 L 119.78743 97.75371 L 122.17413 101.86310999999999 L 127.27963000000001 103.09550999999999 L 130.88513 100.45680999999999 L 132.16053 93.25760999999999 L 129.58633 89.09740999999998 L 126.01013 87.85130999999998 L 126.96325 82.38450999999998 L 129.48275 82.99583999999997 L 128.91439 86.25563999999997 L 133.21708999999998 87.29273999999997 L 133.89287 83.35913999999997 L 131.25027 79.18923999999997 z M 135.64690000000002 80.17749999999998 L 134.93206 84.23999999999998 L 137.69376 84.65405999999999 L 134.19765999999998 104.42905999999999 L 138.58635999999998 105.09312 L 142.06295999999998 85.31012 L 144.82075999999998 85.73004 L 145.53950999999998 81.67344 z M 148.73890000000003 82.07009999999998 L 141.55530000000002 105.66209999999998 L 145.83460000000002 105.99607999999998 L 147.04940000000002 101.55857999999998 L 150.4224 101.82420999999998 L 150.05521000000002 106.34570999999998 L 154.38141000000002 106.67969999999998 L 155.43611 82.60569999999998 z M 179.46590000000003 82.15993999999998 L 170.63780000000003 82.68727999999997 L 166.44440000000003 106.51127999999997 L 175.38190000000003 105.98588999999997 L 176.08307000000002 101.93118999999997 L 171.69437000000002 102.20071999999998 L 172.84477 95.63821999999998 L 176.45607 95.41751999999998 L 177.16310000000001 91.38231999999998 L 173.55180000000001 91.59129999999998 L 174.46586000000002 86.45459999999997 L 178.74516000000003 86.19287999999997 z M 158.69590000000002 82.71462999999997 L 157.98106 86.76152999999996 L 160.81896 86.77910999999996 L 157.32096 106.57010999999996 L 161.79946 106.60720999999995 L 165.28576 86.83220999999995 L 168.12956 86.85173999999995 L 168.83073 82.80093999999995 z M 151.17440000000002 86.39822999999997 L 150.82479 97.75022999999997 L 148.07869 97.52561999999998 z M 193.86040000000003 99.75922999999997 L 191.09670000000003 103.59322999999998 L 189.72950000000003 112.78262999999998 L 186.80570000000003 113.58731999999998 L 184.67870000000002 124.49731999999997 L 181.34470000000002 123.98949999999998 L 176.70600000000002 131.7532 L 172.6689 129.9622 L 168.6318 137.0989 L 163.9638 136.15358999999998 L 161.4443 143.56768999999997 L 155.6963 144.05596999999997 L 154.4463 149.63406999999998 L 161.8408 151.48566999999997 C 161.8408 151.48566999999997 164.5591 147.00886999999997 169.9111 143.26886999999996 C 175.2671 139.51886999999996 181.2691 138.97946999999996 188.76510000000002 128.65986999999996 C 195.7451 119.03746999999996 195.228 110.76486999999996 195.228 110.76486999999996 C 195.228 110.76487999999996 209.32600000000002 122.13286999999995 208.496 145.09286999999995 C 207.83200000000002 162.92286999999993 196.62300000000002 171.69486999999995 196.62300000000002 171.69486999999995 L 200.26950000000002 179.23786999999996 L 202.59570000000002 173.85506999999996 L 207.01560000000003 173.80816999999996 L 207.84763000000004 165.96246999999997 L 212.97853000000003 164.62066999999996 L 211.82233000000002 155.89996999999997 L 216.53133000000003 149.89996999999997 L 213.26963000000003 144.48396999999997 L 216.19153000000003 137.35896999999997 L 212.53723000000002 134.20266999999998 L 213.58603000000002 125.58156999999999 L 209.25593000000003 123.47216999999999 L 209.96882000000002 115.86086999999999 L 205.06262 114.41747 L 202.54702 106.80807 L 198.60762 107.22018 z M 52.540400000000034 112.02522999999998 L 51.751340000000035 118.54282999999998 L 55.28254000000003 127.26542999999998 L 52.21614000000003 130.23223 L 54.83334000000003 138.78303 L 51.49544000000003 146.77713 L 54.85484000000003 152.34353 L 52.91734000000003 163.35553 L 57.44274000000003 167.17783 L 59.52284000000003 176.60163 L 64.53264000000003 177.83603 L 67.23774000000003 185.85163 L 74.18504000000003 187.07043 L 79.31004000000003 193.27163 L 80.99554000000003 184.41422999999998 C 80.99554000000003 184.41422999999998 67.74554000000003 179.33552999999998 61.91154000000003 162.48422999999997 C 58.02454000000003 151.26622999999998 61.70351000000003 142.03122999999997 62.70451000000003 134.84122999999997 C 63.62751000000003 128.12022999999996 60.70841000000003 122.63222999999996 60.70841000000003 122.63222999999996 C 60.70841000000003 122.63222999999996 69.16971000000002 123.04570999999997 79.44641000000003 130.61272999999997 C 89.70741000000002 138.19972999999996 90.87941000000004 142.15072999999998 98.25541000000003 149.45072999999996 C 101.25941000000003 152.41272999999995 105.70661000000003 155.38632999999996 105.70661000000003 155.38632999999996 L 111.88241000000002 153.17342999999997 L 109.72811000000002 148.19882999999996 L 103.25551000000002 146.26522999999995 L 99.71641000000001 136.12622999999994 L 93.80431000000002 135.75513999999993 L 87.26721000000002 125.37213999999993 L 83.06991000000002 125.74127999999993 L 76.34141000000002 117.56747999999993 L 71.99571000000003 119.57727999999993 L 63.17541000000003 112.69837999999993 L 58.970310000000026 115.94247999999993 z M 197.93040000000002 122.00962999999999 C 197.93040000000002 122.00962999999999 196.46320000000003 127.16472999999999 194.60420000000002 129.96472999999997 C 192.98520000000002 132.38172999999998 189.4987 135.40612999999996 189.4987 135.40612999999996 C 189.4987 135.40612999999996 189.39838 135.94126999999997 188.92838 140.27522999999997 C 188.41838 144.60332999999997 184.94008 150.32222999999996 184.94008 150.32222999999996 C 184.94008 150.32222999999996 191.86448 145.48852999999997 194.71547999999999 141.85152999999997 C 197.55847999999997 138.20652999999996 197.89708 134.68552999999997 197.89708 134.68552999999997 C 197.89708 134.68552999999997 199.65988 143.54752999999997 196.94591 151.06252999999998 C 194.23791 158.59623 188.31891 162.50952999999998 188.31891 162.50952999999998 L 192.07280999999998 166.20483 C 199.07820999999998 159.32083 202.93380999999997 154.60682999999997 203.13380999999998 142.50582999999997 C 203.34981 130.40382999999997 197.93070999999998 122.00982999999998 197.93070999999998 122.00982999999998 z M 68.16040000000001 130.98622999999998 C 68.16040000000001 130.98622999999998 68.68577 137.27562999999998 67.26978000000001 141.59322999999998 C 65.19578000000001 147.89122999999998 64.29838000000001 152.40322999999998 66.24438 158.44322999999997 C 69.97438000000001 169.95722999999998 74.58028 173.09922999999998 83.29138 177.64422999999996 L 85.22688000000001 173.40592999999996 C 85.22688000000001 173.40592999999996 78.84038000000001 170.68412999999995 74.28788 164.10512999999995 C 67.56988 154.36712999999995 72.49878 141.80612999999994 72.49878 141.80612999999994 C 72.49878 141.80612999999994 72.18849999999999 146.72362999999993 76.63548 152.74412999999993 C 79.40038 156.46512999999993 85.94598 160.60152999999994 85.94598 160.60152999999994 C 85.945981 160.60152999999994 80.21838000000001 155.85882999999993 79.67838 148.04852999999994 C 79.36938 143.70052999999993 80.73108 140.50752999999995 80.73108 140.50752999999995 C 80.73108 140.50752999999995 77.76368000000001 137.29442999999995 75.58068 135.55442999999994 C 72.91468 133.45242999999994 68.16078 130.98602999999994 68.16078 130.98602999999994 z M 135.1014 151.46522999999996 C 135.1014 151.46522999999996 132.9422 157.43042999999997 118.75140000000002 159.62342999999996 C 109.26940000000002 161.08442999999997 102.36140000000002 163.57402999999996 97.18140000000002 170.25842999999995 L 102.96460000000002 170.89905999999993 L 92.21660000000001 177.33455999999993 C 87.10460000000002 187.07055999999992 89.69120000000001 196.15255999999994 89.69120000000001 196.15255999999994 C 89.69120000000001 196.15255999999994 91.97600000000001 193.72065999999992 93.66000000000001 192.44165999999993 C 95.76 190.84465999999992 99.49010000000001 189.04905999999994 99.49010000000001 189.04905999999994 C 99.49010000000001 189.04905999999994 96.76190000000001 193.55295999999993 94.70490000000001 198.97095999999993 C 92.65990000000001 204.39795999999993 91.8743 212.73595999999992 93.3983 218.88495999999992 C 94.93230000000001 224.95695999999992 95.5047 231.8759599999999 101.96470000000001 236.1139599999999 C 110.2637 241.5659599999999 118.1687 239.6028599999999 126.23570000000001 229.90885999999992 C 132.5987 222.2468599999999 147.5917 215.34485999999993 163.1497 215.5548599999999 L 160.9388 219.1993599999999 C 166.8208 220.2453599999999 175.3088 223.4431599999999 178.82979999999998 225.6681599999999 C 187.2668 231.00015999999988 195.76179999999997 231.4044599999999 195.76179999999997 231.4044599999999 C 195.76179999999997 231.4044599999999 204.65849999999998 214.49845999999988 201.90049999999997 203.53345999999988 C 200.78249999999997 199.11545999999987 198.46509999999998 193.1664599999999 194.04109999999997 188.0354599999999 C 190.08109999999996 183.44945999999987 181.60209999999998 178.70145999999988 181.60209999999998 178.70145999999988 L 190.77009999999999 178.3948199999999 C 190.77009999999999 178.3948199999999 190.3198 174.1178199999999 182.24079999999998 167.2288199999999 C 172.90079999999998 159.2358199999999 165.88379999999998 159.9350199999999 155.18179999999998 158.0530199999999 C 140.98979999999997 155.54001999999988 135.10179999999997 151.4651199999999 135.10179999999997 151.4651199999999 z M 153.1014 226.09822999999994 C 147.7504 226.26622999999995 143.8846 228.32872999999995 143.8846 228.32872999999995 L 135.9764 232.46742999999995 C 135.9764 232.46742999999995 148.51340000000002 230.25882999999996 155.1284 229.78582999999995 C 160.70929999999998 229.39478999999994 170.2474 230.51238999999995 170.2474 230.51238999999995 C 170.2474 230.51238999999995 159.7524 225.89328999999995 153.1014 226.09828999999996 z M 174.8574 234.07672999999994 C 174.8574 234.07672999999994 175.23170000000002 238.84022999999993 175.01170000000002 242.18022999999994 C 174.77370000000002 245.61012999999994 173.5644 253.46922999999992 173.5644 253.46922999999992 C 173.5644 253.46922999999992 177.6156 252.6773799999999 181.3085 246.50442999999993 C 184.6815 240.86142999999993 184.8964 236.67632999999992 184.8964 236.67632999999992 C 184.8964 236.67632999999992 180.8319 236.23621999999992 179.0019 235.6392299999999 C 177.17690000000002 235.0472299999999 174.8574 234.0767299999999 174.8574 234.0767299999999 z M 163.7124 234.57867999999993 C 160.7834 234.71767999999994 158.0757 236.11577999999994 158.0757 236.11577999999994 C 156.80470000000003 235.31379999999996 155.0807 235.12632999999994 153.4507 235.17632999999995 C 151.59470000000002 235.24632999999994 150.27970000000002 235.77713999999995 149.0327 236.93412999999995 C 149.0327 236.93412999999995 145.627 235.88732999999996 143.48000000000002 236.26030999999995 C 141.382 236.61330999999996 138.5816 238.61970999999994 138.5816 238.61970999999994 C 138.5816 238.61970999999994 139.55720000000002 240.69010999999995 140.51520000000002 241.72710999999995 C 141.8582 243.18910999999994 144.81010000000003 244.41070999999997 144.81010000000003 244.41070999999997 C 144.81010000000003 244.41070999999997 145.95800000000003 243.76513999999997 147.44100000000003 241.43410999999998 C 148.26450000000003 240.16890999999998 148.49060000000003 239.05820999999997 148.94100000000003 238.35010999999997 C 149.08490000000003 239.05780999999996 149.77677000000003 239.95920999999998 150.52300000000002 240.88530999999998 C 152.419 243.31230999999997 154.06600000000003 244.05720999999997 154.06600000000003 244.05720999999997 C 154.06600000000003 244.05720999999997 156.43560000000002 242.50490999999997 157.16560000000004 240.90290999999996 C 157.61263000000005 239.89590999999996 158.22940000000003 238.43860999999995 158.30040000000005 237.53960999999995 C 158.75940000000006 238.46660999999995 160.14880000000005 239.95010999999997 160.94880000000006 240.72710999999995 C 162.23680000000007 242.04110999999995 164.27300000000005 243.06890999999996 164.27300000000005 243.06890999999996 C 164.27300000000005 243.06890999999996 165.99380000000005 241.56790999999996 167.03080000000006 239.44590999999997 C 167.97675000000007 237.52590999999998 168.33740000000006 235.81110999999996 168.33740000000006 235.81110999999996 C 168.33740000000006 235.81110999999996 165.56740000000005 234.47770999999995 163.71240000000006 234.57870999999994 z M 131.38240000000002 236.61387999999994 C 131.38240000000002 236.61387999999994 128.1056 239.31287999999995 125.87260000000002 240.82287999999994 C 124.09760000000001 242.02987999999993 121.19290000000002 243.69397999999995 121.19290000000002 243.69397999999995 C 121.19290000000002 243.69397999999995 121.68067000000002 246.09207999999995 124.82770000000002 249.77207999999996 C 128.71570000000003 254.32907999999995 132.93710000000002 255.93417999999997 132.93710000000002 255.93417999999997 C 132.93710000000002 255.93417999999997 131.51520000000002 251.84387999999996 131.01520000000002 246.48887999999997 C 130.53921000000003 241.34887999999998 131.38239000000002 236.61387999999997 131.38239000000002 236.61387999999997 z M 157.00740000000002 263.33887999999996 C 157.00740000000002 263.33887999999996 156.34104000000002 268.27428 155.68900000000002 270.36618 C 155.04900000000004 272.46018 151.99960000000002 279.28607999999997 151.99960000000002 279.28607999999997 C 151.99960000000002 279.28607999999997 154.30440000000002 281.08788 156.05040000000002 281.37987999999996 C 157.91640000000004 281.68985 160.87070000000003 280.58104999999995 160.87070000000003 280.58104999999995 C 160.87070000000003 280.58104999999995 161.39008000000004 278.43024999999994 160.98008000000002 273.69624999999996 C 160.51008000000002 267.82964999999996 157.00738 263.33925 157.00738 263.33925 z M 101.11140000000002 264.37798 L 95.26180000000002 266.22958 C 92.89880000000002 269.35358 91.74540000000002 271.29738 90.15440000000002 274.86238 C 88.43240000000003 278.71257999999995 87.71390000000002 281.04418 86.96890000000002 285.20637999999997 C 89.01990000000002 285.87438 91.67790000000002 288.10677999999996 91.67790000000002 288.10677999999996 C 89.93990000000002 298.00097999999997 92.10564000000002 304.45077999999995 92.10564000000002 304.45077999999995 L 98.16424000000002 301.37847999999997 C 98.16424000000002 301.37847999999997 99.34774000000002 305.07138 100.43374000000001 307.29837999999995 C 102.40574000000001 311.34427999999997 107.04894000000002 316.73777999999993 107.04894000000002 316.73777999999993 L 114.41224000000001 308.41547999999995 C 114.41224000000001 308.41547999999995 117.85464000000002 311.75967999999995 120.56264000000002 313.61467999999996 C 123.27764000000002 315.46768 127.42204000000001 317.02878 127.42204000000001 317.02878 C 127.42203 317.02878 129.14664000000002 313.47927999999996 129.64864 312.17528 C 130.13564 310.88527999999997 132.80094 307.67138 132.80094 307.67138 C 132.80094 307.67138 135.70504 309.62018 138.46504 311.22018 C 141.21504 312.80218 146.75994 315.20068000000003 146.75994 315.20068000000003 C 146.75994 315.20068000000003 147.50955 312.57178000000005 148.60954 309.44678000000005 C 149.71254000000002 306.34178 152.06464 303.98778000000004 152.06464 303.98778000000004 C 152.06464 303.98778000000004 155.01084 304.65728000000007 158.43374 305.55028000000004 C 161.86674 306.43028000000004 165.59584 308.58738000000005 165.59584 308.58738000000005 L 168.41614 299.69288000000006 C 168.41614 299.69288000000006 172.36984 299.84985000000006 181.38914000000003 301.98588000000007 C 181.97214000000002 290.78188000000006 177.12354000000002 281.88588000000004 177.12354000000002 281.88588000000004 L 178.97514 276.45818 L 175.54544 269.24138000000005 L 167.31104000000002 276.23748000000006 L 167.61572 280.6436800000001 C 168.39171000000002 281.8516800000001 169.11032 283.40528000000006 169.21532000000002 283.9502800000001 C 169.64032000000003 286.2382800000001 173.47242000000003 296.7292800000001 143.58432000000002 298.90728000000007 C 111.77032000000003 301.2142800000001 103.82132000000001 298.9948800000001 99.62532000000002 293.0888800000001 C 94.26232000000002 285.49838000000005 100.88702000000002 278.2348800000001 100.88702000000002 278.2348800000001 C 100.88702000000002 278.2348700000001 100.24022000000002 273.9739800000001 100.29522000000001 271.2309800000001 C 100.35522000000002 268.5459800000001 101.11163000000002 264.3774800000001 101.11163000000002 264.3774800000001 z M 111.87940000000002 267.38968 C 111.87940000000002 267.38968 109.61930000000002 271.18338 109.42430000000002 276.61038 C 109.30230000000002 280.82438 110.44190000000002 283.40918 110.44190000000002 283.40918 C 110.44190000000002 283.40918 112.30270000000002 284.90458 115.07470000000002 284.85258 C 117.83770000000003 284.78958 120.18020000000003 282.91898 120.18020000000003 282.91898 C 120.18020000000003 282.91898 116.16530000000003 278.35028 114.88530000000003 275.36427999999995 C 114.11630000000002 273.56427999999994 111.87940000000003 267.38967999999994 111.87940000000003 267.38967999999994 z M 145.70540000000003 274.43848 C 145.70540000000003 274.43848 144.54690000000002 274.77594000000005 142.43590000000003 277.12788 C 141.55892000000003 278.13088 141.20170000000005 278.60328 140.61170000000004 279.65528 C 139.97170000000006 278.73828000000003 139.50220000000004 278.26438 138.75620000000004 277.44238 C 136.82320000000004 275.32538 135.09020000000004 274.67678 135.09020000000004 274.67678 C 135.09020000000004 274.67678 133.51480000000004 276.01838000000004 132.85580000000004 277.36038 C 132.43080000000003 278.22537 131.77190000000004 279.14248000000003 131.30890000000005 280.35648000000003 C 130.70490000000004 279.27648000000005 130.27750000000006 278.67558 129.41050000000004 277.72558000000004 C 128.37350000000004 276.62158000000005 126.34210000000004 275.19238 126.34210000000004 275.19238 C 126.34210000000004 275.19238 123.86350000000004 277.33688 123.24250000000005 279.04788 C 122.62550000000005 280.77788000000004 122.36164000000005 282.34868 122.36164000000005 282.34868 C 122.36164000000005 282.34868 124.27284000000004 282.79275 126.64484000000004 282.80375 C 130.05684000000005 282.81275 131.50814000000005 281.60454999999996 131.50814000000005 281.60454999999996 C 132.73414000000005 282.31651999999997 134.28524000000004 282.80375 135.87924000000007 282.80375 C 137.71924000000007 282.78774999999996 139.12094000000008 282.30071999999996 140.30694000000005 281.34675 C 140.30694000000005 281.34675 143.78914000000006 282.32599 145.88114000000004 281.96199 C 147.22414000000003 281.72802 149.06084000000004 280.75889 149.06084000000004 280.75889 C 149.06084000000004 280.75889 148.59301000000005 278.84749 148.01204000000004 277.69249 C 147.33404000000004 276.33549 145.70544000000004 274.43859000000003 145.70544000000004 274.43859000000003 z M 106.05940000000002 282.41118 C 103.07140000000003 285.02518 103.56560000000003 288.30628 105.13362000000002 289.73928 C 109.56362000000001 293.75728 117.41662000000002 294.80368 123.73862000000003 291.92868 C 123.73862000000003 291.92868 131.27882000000002 292.73442 138.68762000000004 291.85638 C 142.80982000000003 291.37738 150.98662000000004 289.19428 150.98662000000004 289.19428 C 153.39962000000006 290.70928 157.14972000000006 290.93498 160.19172000000003 289.41498 C 161.77872000000002 288.62598 162.62282000000002 287.29908 162.14482000000004 285.90908 C 159.96782000000005 286.5111 158.25252000000003 286.48724000000004 156.32452000000004 285.98528 C 153.09052000000003 285.13527999999997 151.12722000000002 283.95008 151.12722000000002 283.95008 C 151.12722000000002 283.95008 148.33682000000002 286.08678000000003 139.39322 286.71178000000003 C 130.45402 287.35178 122.92622000000001 286.95006 122.92622000000001 286.95006 C 122.92622000000001 286.95006 120.26052000000001 288.72766 116.33052000000002 289.13366 C 113.67052000000002 289.41466 110.41782000000002 288.71405000000004 107.48482000000001 286.65906 C 106.94684000000001 285.93806 106.7198 285.47466000000003 106.44382000000002 284.63366 C 106.16583000000001 283.80166 106.06101000000001 282.41106 106.06101000000001 282.41106 z" stroke-linecap="round" />
</g>
		<g transform="matrix(0.87 0 0 0.87 23.72 17.81)"  >
<path style="stroke: none; stroke-width: 1; stroke-dasharray: none; stroke-linecap: butt; stroke-dashoffset: 0; stroke-linejoin: miter; stroke-miterlimit: 4; fill: rgb(0,0,0); fill-rule: evenodd; opacity: 1;" vector-effect="non-scaling-stroke"  transform=" translate(-149.37, -190.5)" d="M 157.23 184.68 C 155.87099999999998 184.723 154.4102 184.81332 152.72019999999998 184.93782000000002 C 147.30219999999997 185.34482000000003 142.31019999999998 185.73883 138.9902 187.35382 C 135.6652 188.97782 137.5154 192.33362000000002 140.1504 193.19362 C 143.8054 194.37262 146.72899999999998 191.91752 157.5454 191.57252 C 169.4744 191.20152 172.7964 194.24842 174.1864 192.57641999999998 C 175.5914 190.88441999999998 174.36279 186.58432 170.08679999999998 185.83031999999997 C 164.46179999999998 184.83807999999996 161.30829999999997 184.55101999999997 157.2318 184.67991999999998 z M 138.185 158.909 C 129.791 164.3269 117.50800000000001 165.18699999999998 113.09700000000001 168.28199999999998 C 108.688 171.36399999999998 108.23960000000001 177.08669999999998 108.23960000000001 177.08669999999998 C 108.23960000000001 177.08669999999998 122.42960000000001 168.54229999999998 140.93460000000002 166.85469999999998 C 156.9516 165.38369999999998 171.3306 169.72189999999998 171.3306 169.72189999999998 C 171.33061 169.72189999999998 167.8552 164.62439999999998 159.5576 162.95239999999998 C 148.0926 160.66439999999997 145.3616 162.11442999999997 138.18460000000002 158.90939999999998 z M 153.234 170.665 C 149.5158 170.6302 145.4819 170.81638999999998 141.257 171.31538999999998 C 132.793 172.30938999999998 118.917 175.92728999999997 116.581 178.27828999999997 C 113.6451 181.20828999999998 111.8037 186.53808999999998 111.8037 186.53808999999998 C 111.8037 186.53808999999998 123.61670000000001 178.97108999999998 144.1457 176.78808999999998 C 164.3357 174.65108999999998 173.8077 177.60448999999997 173.8077 177.60448999999997 C 173.8077 177.60448999999997 169.2486 172.11568999999997 163.30970000000002 171.34668999999997 C 160.3514 170.95668999999998 156.95130000000003 170.69984999999997 153.23370000000003 170.66504999999998 z M 157.6422 180.18259999999998 C 155.6452 180.20659999999998 153.4302 180.2788 150.9762 180.41306999999998 C 133.1532 181.37876999999997 128.4772 185.89236999999997 128.96020000000001 190.94206999999997 C 117.77120000000002 198.07406999999998 126.27700000000002 214.78406999999999 138.46800000000002 210.55506999999997 C 150.63500000000002 206.34206999999998 157.882 210.48976999999996 164.64600000000002 207.10976999999997 C 168.50900000000001 205.16876999999997 169.40580000000003 202.49256999999997 169.40580000000003 202.49256999999997 C 169.40580000000003 202.49256999999997 178.70970000000003 202.43786999999998 180.36680000000004 196.68986999999998 C 183.19080000000005 186.92956999999998 174.93120000000005 182.21886999999998 174.93120000000005 182.21886999999998 C 174.93120000000005 182.21886999999998 171.62110000000004 180.01346999999998 157.64220000000006 180.18176999999997 z M 189.4862 196.99159999999998 L 188.97057999999998 201.08139999999997 L 193.82608 204.88019999999997 C 193.90207999999998 202.90219999999997 193.57268 201.664 192.55068 199.97199999999998 C 191.67168 198.55899999999997 190.93918 197.81749999999997 189.48618 196.99149999999997 z M 108.8772 198.87439999999998 C 107.4792 199.79139999999998 106.7835 200.56109999999998 105.9905 202.01309999999998 C 105.0495 203.74299999999997 104.79429999999999 204.9886 104.9593 206.94859999999997 L 109.5843 202.93879999999996 z M 187.5232 203.99939999999998 L 185.742 208.47209999999998 L 191.0779 213.5561 C 191.38491 211.14309999999998 191.1207 209.62009999999998 190.08571 207.4311 C 189.36271 205.9261 188.77111 205.11749999999998 187.52511 203.99949999999998 z M 112.2262 205.4056 C 111.2012 206.71359999999999 110.7424 207.5981 110.3024 209.2181 C 109.66235 211.5301 109.68915000000001 213.0772 110.3961 215.3802 L 114.7457 209.4857 z M 182.9702 210.7376 L 180.1518 214.65359999999998 L 184.11270000000002 220.8645 C 184.97268000000003 218.6045 185.09937000000002 217.0565 184.62637 214.6965 C 184.29237 213.0485 183.89212 212.1275 182.97017 210.73749999999998 z M 117.3242 211.9974 C 116.69720000000001 213.5414 116.51505 214.5307 116.53905 216.1927 C 116.55105 218.5967 116.99144 220.077 118.31445000000001 222.097 L 120.86915 215.2279 z" stroke-linecap="round" />
</g>
</g>
</g>
</svg>