<?xml version="1.0" encoding="UTF-8" standalone="no"?>
<svg xmlns:rdf="http://www.w3.org/1999/02/22-rdf-syntax-ns#" xmlns="http://www.w3.org/2000/svg" xml:space="preserve" height="103.31" viewBox="0 0 229.09129 103.3075" width="229.09" version="1.1" xmlns:cc="http://creativecommons.org/ns#" xmlns:dc="http://purl.org/dc/elements/1.1/"><g transform="matrix(1.25 0 0 -1.25 -81.228 940.75)"><g><path d="m218.02 708.32 0.027 0.004 0.018 0.002c5.245 0.728 9.042 0.601 10.707-0.283 2.215-1.176 0.869-2.822 0.869-2.822s2.895 1.642 2.895 5.405c0 3.764-2.512 7.703-7.185 10.618-4.903 3.058-6.271 3.754-9.361 5.733-4.552 2.917-11.714 5.139-19.039 6.991-5.954 1.505-13.069 3.052-20.68 4.57-2.451 0.489-4.954 0.975-7.486 1.455-12.966 2.461-26.712 4.78-38.294 6.643-15.975 2.57-27.83 4.27-27.83 4.27s13.182-14.059 36.525-20.175l-22.91 2.858s15.826-12.474 36.529-17.353l-21.801 1.829s15.373-12.706 33.883-16.26c0.599-0.116 1.201-0.221 1.806-0.316 0 0-0.76-0.131-1.991-0.285-1.913-0.238-4.973-0.531-8.17-0.475l-4.281-13.743h12.553s23.967 16.733 53.216 21.334" fill="#fff"/><path d="m47.105 2.1172c0.314 3.0837 1.87 5.3379 1.87 5.3379h-47.092l30.072 18.229-17.547 56.336h28.979l10.345-33.133 49.318 52.543 11.4-36.59c3.99 0.07 7.81-0.296 10.21-0.594 1.54-0.192 2.48-0.357 2.48-0.357-0.75-0.119-1.5-0.249-2.25-0.393-23.14-4.442-42.355-20.326-42.355-20.326l27.255 2.285c-25.884-6.097-45.667-21.691-45.667-21.691l28.639 3.572c-29.18-7.645-45.657-25.219-45.657-25.219zm34.788 5.3379c14.477 2.3287 31.657 5.2299 47.867 8.3049l2.56-8.3049h-50.427zm60.357 0l-3.13 10.121c9.51 1.899 18.4 3.834 25.85 5.715 9.15 2.315 18.11 5.091 23.8 8.736 3.86 2.475 5.57 3.344 11.7 7.166 5.84 3.644 8.98 8.571 8.98 13.276 0 4.703-3.62 6.754-3.62 6.754s1.68-2.056-1.09-3.528c-2.08-1.105-6.82-1.261-13.38-0.351-0.51 0.088-21.59 4.021-45.79 26.674h34.11c0.46 0.001 0.91-0.005 1.37-0.016 4.78-0.111 9.51-0.861 13.99-2.297 0.64-0.205 1.28-0.424 1.91-0.658 0.84-0.31 1.67-0.645 2.49-1.006 0.4-0.181 0.81-0.37 1.21-0.562 7.33-3.517 12.75-8.469 14.42-13.944l11.38-36.58c1.06-3.489 0.46-6.784-1.46-9.639-0.12-0.178-0.24-0.354-0.37-0.529-0.27-0.35-0.55-0.692-0.85-1.027-1.95-2.178-4.74-4.035-8.18-5.436-4.43-1.8073-9.94-2.8589-16.14-2.8689h-57.2z" transform="matrix(.8 0 0 -.8 64.982 752.6)" fill="#009a44"/><path d="m158.63 31.162l7.01 4.258s3.62 0.064 5.85 0.408c0 0-2.96 1.623-1.01 3.734 1.29 1.39 3.66 1.803 5.76 1.795 0.7-0.002 1.37-0.05 1.96-0.125 0.47-0.061 0.89-0.143 1.27-0.23 0.37-0.083 0.7-0.17 1.02-0.258 0.78-0.212 1.47-0.414 2.31-0.48 0.19-0.014 0.38-0.023 0.59-0.022 0.86 0.004 1.89 0.155 3.28 0.559 0 0-1.47-1.431-5.06-3.248-0.2-0.104-0.42-0.209-0.64-0.317-0.47-0.227-0.96-0.459-1.5-0.695-2.33-1.025-5.28-2.107-8.98-3.088-1.43-0.379-2.96-0.742-4.61-1.082-2.21-0.452-4.62-0.863-7.25-1.209zm32.73 24.182l-0.02 0.002-0.04 0.004c-36.56 5.75-66.52 26.668-66.52 26.668h20.79c24.2-22.653 45.28-26.586 45.79-26.674z" transform="matrix(.8 0 0 -.8 64.982 752.6)"/></g></g></svg>
