<?xml version="1.0" encoding="UTF-8" standalone="no"?>
<svg xmlns:rdf="http://www.w3.org/1999/02/22-rdf-syntax-ns#" xmlns="http://www.w3.org/2000/svg" xml:space="preserve" height="130.92" viewBox="0 0 260.80933 130.91872" width="260.81" version="1.1" xmlns:cc="http://creativecommons.org/ns#" xmlns:dc="http://purl.org/dc/elements/1.1/"><g transform="matrix(1.25 0 0 -1.25 -93.212 850.5)"><g><path d="m280.05 612.2s0.705 3.239-1.555 6.318c-2.439 3.326-6.668 3.053-6.668 3.053-1.088 1.283-3.832 2.728-7.169 1.31-3.336-1.419-3.4-5.13-3.4-5.13l-5.14 0.549c-0.068 1.426-0.261 2.98-0.343 4.67-0.139 2.815 0.271 4.668 0.623 5.704 4.36 0.405 6.542 2.369 6.542 2.369-1.332 1.252-2.24 2.347-2.841 3.169 3.441 0.163 6.539 1.694 6.539 1.694-5.402 3.075-6.318 6.079-6.318 6.079 3.314 1.201 5.3 2.72 6.332 3.7-3.899 0.309-8.274 3.454-12.203 12.869-6.516 15.62-20.881 15.746-26.085 15.235 2.549-1.921 3.221-3.48 3.221-3.48-11.07 0.695-19.43-4.714-19.43-4.714-12.719 12.659-30.755 13.237-37.48 12.961 1.512-1.7 2.431-3.188 2.431-3.188-27.505 3.436-45.654-11.835-49.872-15.825 3.705 0.049 6.668-0.257 6.668-0.257-11.299-8.155-29.91-7.994-29.91-7.994 0.98-2.391 3.474-6.05 3.474-6.05l-3.367-12.359-3.168 11.886h-13.312l-3.226-11.435h2.663l-4.707-16.992h-2.689l-3.126-11.432 15.889-0.016 3.511 12.524 3.251-12.55h27.998c9.513 0 13.131 3.011 13.131 3.011 42.151-9.837 24.556-30.012 24.556-30.012 27.694 4.359 35.028 14.567 35.028 14.567-0.286-4.631-2.385-7.918-2.385-7.918 22.724 5.913 23.816 23.515 23.816 23.515 5.174-2.123 1.858-7.602 1.858-7.602 1.418-0.5 2.984-0.61 2.984-0.61-0.824-1.293-2.472-2.757-2.472-2.757 12.212-2.409 15.745 5.921 15.745 5.921 4.405 1.033 5.975 4.638 5.975 4.638 4.145 0.385 6.553 2.198 6.553 2.198l4.086-2.665s-1.369-1.959-0.663-4.8c0.706-2.84 3.51-3.953 3.51-3.953 0.422-1.397 2.711-5.21 7.559-5.21 4.85 0 6.795 3.972 6.795 3.972s4.215 0.74 6.66 5.206c2.762 5.041 0.131 9.831 0.131 9.831" fill="#ffc82e"/><path d="m275.91 611.23-0.037 0.059 0.019 0.066c0.121 0.454 0.18 0.914 0.18 1.367 0 2.709-2.029 4.914-4.525 4.914-0.489 0-0.972-0.088-1.444-0.26l-0.138-0.051-0.065 0.132c-0.567 1.177-1.676 1.907-2.894 1.907-1.666 0-3.042-1.361-3.242-3.113l7.201-0.995s0.793-0.821 0.172-2.664l-1.987-0.947-12.861 3.514c-0.111-0.531-0.258-1.053-0.442-1.564l17.596-6.677 0.041-1.782-2.408-0.538-15.816 7.677c-0.205-0.381-0.434-0.752-0.698-1.108l12.955-7.084c-0.62-1.709-2.353-1.708-2.353-1.708l-5.824 4.216c-0.012-0.116-0.023-0.233-0.023-0.351 0-1.713 1.39-3.1 3.102-3.1 0.052 0 0.098 0.012 0.151 0.015 0.531-2.152 2.469-3.748 4.785-3.748 1.284 0 2.45 0.49 3.326 1.293l0.012 0.032 0.108 0.002c3.427 0.103 6.111 3.093 6.111 6.809 0 1.306-0.348 2.583-1.002 3.687" fill="#fff"/><path d="m131.2 5.0742c3.26 3.6275 4.44 6.7828 4.44 6.7828-26.08-10.161-51.702 3.734-63.435 11.797 7.431-1.346 10.928-0.191 10.928-0.191-16.963 14.979-41.549 15.156-41.549 15.156s1.303 2.036 4.477 5.049l29.83 0.031c4.153 0.004 7.425 0.333 10 1.004 2.975 0.771 5.436 2.359 7.312 4.719 1.359 1.725 2.346 3.776 2.953 6.115l0.002 0.004c0.263-0.734 0.57-1.449 0.926-2.133 1.186-2.28 2.829-4.236 4.886-5.816 1.99-1.521 4.32-2.706 6.95-3.516 2.56-0.79 5.44-1.189 8.54-1.189 7.19 0.006 11.59 2.297 13.99 4.166l0.87-3.297 47.57 0.049-4.53 16.086-3.27-0.004-6.04 21.771c-2.56 8.755-11.67 14.608-22.69 14.608-0.27 0-0.54-0.007-0.82-0.012-8.07-0.22-12.15-3.456-14.16-6.127-1.32-1.774-2.16-3.869-2.49-6.121-0.16 0.374-0.33 0.738-0.52 1.099-1.23 2.347-2.89 4.375-4.94 6.028-2 1.619-4.37 2.885-7.02 3.771-2.09 0.698-4.25 1.101-6.54 1.244 8.71 5.242 13.98 12.082 13.98 19.562 0 3-0.84 5.9-2.42 8.63 27.82-5.44 37.48-16.14 40.84-22.99 2.8 8.1-0.62 14.11-0.62 14.11 17.34-7.35 21.7-18.857 22.34-27.132 2.94-0.176 5.4 0.631 7.17 2.401 2.92 2.905 1.5 6.514 0.99 7.55l-0.19 0.393 0.41 0.144c0.76 0.269 1.67 0.409 2.64 0.409 0.57 0 1.19-0.067 1.83-0.178-0.19 0.892-0.65 1.863-1.58 2.853 0 0 9.8-0.01 12.14-7.339 2.34 0.048 5.66-0.917 7.63-6.047 1.38 0.161 6.93 0.481 10.29-4.457 2.54-3.735 2.34-5.947 2.07-9.008-0.26-2.925-0.59-6.555 1.07-13.203 0.41 0.086 1.1 0.201 1.95 0.201 1.31 0 2.51-0.267 3.57-0.789l0.49-0.24-0.38-0.383c-1.3-1.31-2.92-3.441-3.61-6.364 2.01 1.164 4.18 1.469 6.37 0.897l0.9-0.23-0.79-0.477c-0.04-0.025-3.9-2.412-5.79-8.963 2.39 0.528 4.55 0.22 6.32-0.91l0.66-0.426-0.74-0.267c-0.07-0.025-6.79-2.578-12.26-16.682-5.33-13.789-16.15-14.858-19.33-14.858-0.31 0-0.61 0.011-0.89 0.026l-1.05 0.055 0.83 0.64c0.93 0.724 2.23 1.908 3.47 3.654-7.96-2.797-16.31-2.655-23.98 0.508l-1.28 0.526 1.36 0.22c0.04 0.005 3.31 0.545 6.37 2.325-4.01 0.475-8.6 2.004-12.33 5.877-14.69-18.183-34.61-20.936-44.12-21.112zm109.77 67.967c-3.52 0-6.38 3.082-6.41 6.873l-7.05-0.973c-0.03 0.517-0.09 1.033-0.16 1.545l18.36 4.27c0.78-2.304-0.21-3.33-0.21-3.33l-9-1.242c0.25-2.192 1.97-3.893 4.05-3.893 1.52 0 2.91 0.912 3.62 2.385l0.08 0.164 0.17-0.065c0.59-0.215 1.2-0.324 1.81-0.324 3.12 0 5.65 2.757 5.65 6.143 0 0.566-0.07 1.141-0.22 1.709l-0.03 0.082 0.05 0.074c0.82 1.381 1.25 2.975 1.25 4.607 0 4.647-3.35 8.383-7.64 8.512l-0.13 0.002-0.05 0.125c-0.89 2.265-2.93 3.725-5.2 3.725-2.71 0-5.05-2.11-5.55-5.004l-0.03-0.16-0.16-0.006c-2.23-0.069-3.97-2.019-3.97-4.438 0-0.648 0.14-1.272 0.38-1.847l7.67 5.552s2.16 0.003 2.94-2.134l-16.19-8.854c-0.22 0.3-0.47 0.587-0.72 0.871l5.14 3.725c-1.06 1.06-1.7 2.56-1.7 4.17 0 2.638 1.64 4.895 4 5.515 1.16 3.71 4.35 6.2 7.98 6.2 3.21 0 6.09-1.93 7.52-5.03 5.1-0.51 9.08-5.213 9.08-10.763 0-1.988-0.51-3.937-1.48-5.641 0.1-0.545 0.15-1.097 0.15-1.645 0-4.598-3.46-8.339-7.71-8.339-0.4 0-0.81 0.037-1.24 0.117-1.22-1.703-3.06-2.678-5.05-2.678zm-14.18 9.916c-0.15 0.464-0.32 0.917-0.52 1.365l22.38 9.754c1.28-1.58 0.84-3.174 0.84-3.174l-22.7-7.945z" transform="matrix(.8 0 0 -.8 74.57 680.4)" fill="#005643"/><path d="m251.21 640.4c-0.039 0.452-0.093 0.888-0.161 1.301 0.997-0.273 2.015-0.476 3.018-0.62-1.074 1.522-1.954 3.116-2.712 4.673-1.262 2.59-2.924 3.782-4.465 4.282 0.006 0.02 0.013 0.041 0.02 0.061 0.288 0.586 0.451 1.235 0.451 1.92 0 0.852-0.252 1.649-0.685 2.337-0.281 0.51-0.648 0.892-1.052 1.173-0.887 0.714-2.043 1.149-3.314 1.149-2.79 0-5.053-2.087-5.053-4.659 0-1.631 0.91-3.063 2.283-3.895 0.07-4.784-3.758-7.937-8.205-7.937-3.637 0-6.744 1.222-8.247 3.131 0 0 0.688-1.405 0.876-3.572-1.18 0.132-2.557-0.059-4.135-0.802 0 0 2.539-1.225 3.057-4.336 0.285-1.714 0.336-2.969 0.814-3.819-1.492-0.895-2.953-2.345-3.441-4.67 0 0 5.704 4.574 12.227 0.828 0 0-5.934 0.495-7.848-5.556 0 0 3.853 3.063 8.4 1.539 0 0-5.728-1.978-5.728-7.962 0-4.619 5.103-6.156 3.904-9.163 1.554 0.857 3.264 2.542 3.85 5.868 0 0 0.507-2.534 3.043-2.534 1.345 0 2.099 0.883 2.462 1.94l-4.671 4.686-3.073-0.044c-0.041 0.904 0.179 1.579 0.504 2.086 0.352 0.719 1.113 1.638 2.77 1.876 2.82 0.406 4.341-3.31 4.594-3.937 0.251-0.625 1.066-3.413 4.917-2.706 3.856 0.711 2.842 6.542-0.455 4.008 0 0-6.795 5.119 0.102 8.314 0 0 0.375-2.305 4.631-3.829-0.33 2.155 0.332 5.585 1.047 10.471 0.152 1.035 0.254 2.013 0.321 2.94 1.985-1.376 3.93-0.92 3.93-0.92-2.246 2.195-3.388 4.545-3.976 6.378" fill="#ffc82e"/><path d="m122.91 18.869c-11.86 0-29.445 3.311-47.265 18.662 6.638-3.701 23.032-11.683 40.965-11.683 4.96 0 9.74 0.61 14.23 1.814 2.59-2.884 5.47-5.065 8.6-6.496-2.16-0.675-8.22-2.297-16.53-2.297zm78.88 2.926c-7.97 0.167-14.58 5.766-15.1 13.103-0.2 2.884 0.58 5.631 2.06 7.985 0.39-5.936 4-8.457 4-8.457s-2.03 5.337 2.8 9.996c0.56 0.541 1.32 0.898 2.16 0.959 1.89 0.132 3.54-1.292 3.67-3.186 0.07-0.948-0.25-1.822-0.83-2.486-1.44-1.705-2.2-3.688-2.05-5.77 0.36-5.197 6.35-9.054 13.62-8.99-2.42-1.741-5.42-2.879-8.71-3.113-0.55-0.038-1.08-0.052-1.62-0.041zm8.68 31.256c-1.7 0.13-3.13 1.439-3.35 3.195-0.24 2.003 1.18 3.827 3.18 4.078 1.15 0.143 2.24-0.28 3-1.033-0.1-0.157-0.21-0.304-0.31-0.48-0.3 0.053-0.61 0.077-0.94 0.037-1.78-0.227-3.05-1.847-2.83-3.631 0.11-0.898 0.58-1.656 1.25-2.166z" transform="matrix(.8 0 0 -.8 74.57 680.4)" fill="#fff"/><path d="m208.6 44.775c0.53 0.84 1.04 1.931 1.48 3.315-2.8 0.116-5.05 2.257-5.2 5.152-0.12 2.25 1.06 4.353 2.89 5.545-0.5-0.715-0.76-1.606-0.65-2.541 0.22-1.757 1.65-3.066 3.35-3.195-0.16 0.122-0.31 0.262-0.45 0.412-0.01 0.014-0.02 0.029-0.03 0.043-0.13 0.147-0.25 0.305-0.35 0.476 0 0.005 0 0.006-0.01 0.008-0.09 0.166-0.17 0.344-0.24 0.528-0.01 0.04-0.02 0.079-0.04 0.119-0.06 0.186-0.11 0.376-0.13 0.58-0.22 1.785 1.05 3.406 2.83 3.633 0.33 0.04 0.64 0.014 0.94-0.039 0.1 0.176 0.21 0.323 0.31 0.48-0.03 0.035-0.07 0.066-0.11 0.1 0.04-0.02 0.09-0.041 0.14-0.065 1.24 1.864 2.71 2.471 3.89 2.576 0 0-2.32-4.913-1.31-10.906 0 0-0.87 0.174-1.81 0.791-1.48-6.719-4.82-7.023-5.5-7.012zm-91.11 1.395c-2.8-0.004-5.33 0.345-7.6 1.045-2.27 0.696-4.24 1.692-5.92 2.98-1.68 1.29-3.01 2.868-3.976 4.727-0.967 1.86-1.529 3.952-1.687 6.273-0.088 1.314 0.002 2.475 0.277 3.483 0.276 1.01 0.68 1.914 1.205 2.728 0.531 0.81 1.141 1.524 1.861 2.139 0.7 0.614 1.45 1.181 2.24 1.709l4.32 2.891c1.24 0.835 2.19 1.546 2.86 2.14 0.67 0.589 0.97 1.392 0.9 2.399-0.08 1.14-0.59 2.103-1.52 2.888-0.94 0.788-2.37 1.181-4.31 1.18-0.99-0.003-1.86-0.102-2.6-0.301-0.74-0.196-1.46-0.448-2.17-0.756l1.64-6.004-9.299-0.009-3.615 13.021c2.461 1.688 7.403 4.225 14.894 4.233 2.71 0.001 5.09-0.379 7.38-1.143s4.29-1.836 6-3.215c1.71-1.377 3.07-3.041 4.09-4.988 1.01-1.946 1.61-4.105 1.77-6.471 0.09-1.312-0.03-2.517-0.37-3.613-0.34-1.093-0.81-2.078-1.41-2.957-0.61-0.878-1.33-1.651-2.17-2.332-0.84-0.68-1.69-1.306-2.56-1.875l-3.02-1.977c-1.16-0.746-2.19-1.446-3.09-2.103-0.9-0.659-1.32-1.448-1.26-2.369 0.07-1.05 0.56-1.97 1.48-2.756 0.92-0.787 2.23-1.182 3.96-1.182 1.25 0.001 2.44 0.223 3.57 0.662l-1.24 4.205 9.26 0.008 2.93-10.43c-1.65-1.597-5.48-4.224-12.82-4.23zm-99.381 0.752l-2.685 9.525 3.31 0.002-7.205 26.008-3.3552-0.004-2.6015 9.526 14.932 0.017 5.471-19.508c0.168-0.615 0.324-1.301 0.461-2.068 0.137-0.765 0.246-1.389 0.322-1.873 0.129 0.616 0.25 1.259 0.353 1.939s0.243 1.324 0.416 1.94l5.082 19.582 9.282 0.01 9.857-35.536 3.34 0.004 2.689-9.523-15.011-0.016-4.993 18.328c-0.177 0.699-0.342 1.367-0.492 2.002-0.151 0.638-0.293 1.28-0.426 1.94-0.083-0.66-0.189-1.286-0.324-1.875-0.129-0.591-0.3-1.259-0.51-2.006l-4.908-18.4-13.004-0.014zm43.325 0.043l-2.688 9.525 3.311 0.004-7.205 26.008-3.797-0.004-2.688 9.523 16.041 0.018c1.595 0.003 3.223-0.041 4.889-0.127 1.665-0.085 3.295-0.305 4.889-0.652 1.597-0.348 3.136-0.85 4.626-1.506 1.487-0.654 2.896-1.549 4.221-2.688 1.419-1.226 2.733-2.779 3.938-4.662s2.269-3.929 3.197-6.14c0.925-2.213 1.675-4.517 2.25-6.926 0.574-2.409 0.936-4.732 1.09-6.965 0.142-2.101-0.033-4.106-0.528-6.014-0.493-1.905-1.276-3.534-2.347-4.894-1.428-1.798-3.284-2.996-5.569-3.588-2.282-0.595-5.342-0.893-9.173-0.897l-14.457-0.015zm73.406 0.074l-2.52 9.525 3.36 0.004-6.21 21.825c-1.74 6.606 1.22 14.255 13.16 14.58 9.38 0.256 17.99-4.427 20.26-12.19l6.71-24.179 3.28 0.001 2.68-9.521-15.59-0.02-8.35 30.465c-1.25 4.3-4.1 5.394-6.66 5.393-3.18-0.004-3.52-1.559-2.98-4.324l8.74-31.541-15.88-0.018zm-60.533 9.861l1.611 0.002c2.025 0.002 3.411 0.388 4.156 1.155 0.743 0.768 1.048 2.18 0.906 4.238-0.107 1.579-0.34 3.199-0.689 4.861-0.349 1.664-0.782 3.263-1.295 4.793-0.516 1.534-1.095 2.933-1.742 4.203-0.646 1.269-1.3 2.318-1.957 3.151-0.709 0.876-1.637 1.541-2.787 2-1.154 0.461-2.87 0.711-5.156 0.754l6.953-25.157zm134.62 8.102c-5.47 0.258-2.76 6.783-2.76 6.783 0.78-5.42 7.99-5.803 7.99-5.803-2.26-0.765-3.96-1.04-5.23-0.98z" transform="matrix(.8 0 0 -.8 74.57 680.4)" fill="#005643"/></g></g></svg>