<?xml version="1.0" encoding="UTF-8" standalone="no"?>
<svg xmlns:rdf="http://www.w3.org/1999/02/22-rdf-syntax-ns#" xmlns="http://www.w3.org/2000/svg" xml:space="preserve" height="95.653" viewBox="0 0 175.7493 95.653002" width="175.75" version="1.1" y="0px" x="0px" xmlns:cc="http://creativecommons.org/ns#" xmlns:dc="http://purl.org/dc/elements/1.1/"><g style="" clip-rule="evenodd" fill-rule="evenodd"><path d="m172.44 11.025c-6.53-9.883-19.82-11.025-29.26-11.025h-102.41l-16.372 38.435h18.062 0.176l-7.993 18.77h-18.27l-16.373 38.448h95.338l11.443-26.871h17.279c30.508 0 40.793-14.281 47.365-29.714 2.678-6.289 7.663-17.995 1.02-28.043z"/><path d="m164.07 16.561c-2.941-4.45-9.578-6.522-20.889-6.522h-95.778l-7.817 18.356h18.237l-16.543 38.849h-18.269l-7.823 18.369h73.513l7.822-18.369h-18.527l3.622-8.504h42.442c25.928 0 32.83-11.166 38.129-23.606 2.807-6.592 5.264-13.455 1.881-18.573zm-69.529 11.834h31.396c2.264 0 3.914 0.535 4.531 1.468 0.713 1.077 0.141 2.833-0.264 3.782-1.771 4.157-5.982 6.74-10.99 6.74h-29.779l5.106-11.99z" fill="#9d968d"/><path d="m143.18 11.939h-94.524l-6.199 14.557h18.237l-18.161 42.648h-18.269l-6.205 14.57h69.384l6.203-14.57h-18.524l5.239-12.303h43.698c25.045 0 31.338-10.611 36.381-22.452 5.04-11.839 7.784-22.45-17.26-22.45zm-23.967 30.345h-32.654l6.724-15.788h32.652c5.779 0 8.109 2.973 6.016 7.894-2.098 4.921-6.959 7.894-12.738 7.894z" fill="#ceb888"/></g></svg>
