<?xml version="1.0" encoding="UTF-8" standalone="no"?>
<svg xmlns:rdf="http://www.w3.org/1999/02/22-rdf-syntax-ns#" xmlns="http://www.w3.org/2000/svg" xml:space="preserve" height="258.71" width="252" version="1.1" xmlns:cc="http://creativecommons.org/ns#" xmlns:dc="http://purl.org/dc/elements/1.1/" viewBox="0 0 252 258.70984"><g><path fill="#fff" d="m184.81 162.93c1.652-4.7417 2.8436-10.819 3.276-16.461l10.239 23.839 31.178 28.412s64.947-96.167-28.805-172.45c-63.54-51.698-176.22-22.52-199.29 59.984l55.425 4.1899 1.6204 3.4974 11.596 4.6117c-34.355 45.437-45.29 101.22-45.29 101.22l27.976-29.779 7.6416-14.622-29.312 101.84 106.47-61.034c0.36556-0.18629 13.501-6.8824 30.278 2.5414l0.16872 0.0984 71.78 29.895-55.249-60.771c0.26714-2.45 0.23199-4.4113 0.29878-5.0124"/><g><path d="m125.96 8.0156l-0.01 0.002s0.01-0.0001 0.01 0v-0.002zm0 0.002l11.57 36.298 20.22-31.195s-12.3-4.4-31.79-5.1034zm-6.39 0.2168v0.0019c-4.56 0.0327-15.44 0.5529-29.603 4.2227l21.463 31.486 10.47-35.677c0-0.0004-0.81-0.0445-2.33-0.0336zm-32.424 5.3846s-12.666 3.205-29.23 13.5l29.855 23.67-0.625-37.168v-0.002zm72.754 0.258l0.83 38.082 28.23-24.209s-10.57-7.694-29.06-13.873zm-104.34 14.91s-11.244 6.66-24.236 21.205l35.324 14.287-11.088-35.492zm136.48 1.209l-10.68 36.566 34.21-14.558s-7.75-10.531-23.53-22.008zm-163.77 24.381s-8.652 9.798-16.522 27.641l38 2.697-21.476-30.338h-0.002zm189.56 0.586c0 0.001 0.01 0.001 0.01 0.002v-0.002h-0.01zm0.01 0.002l-20.96 31.814 36.98-3.867s-4.31-12.345-16.02-27.947zm-93.05 7.406c-23.72 0-44.717 11.594-57.663 29.422 4.215 1.663 12.016 4.762 12.016 4.762-3.382 3.135-6.57 6.795-9.178 10.615 0 0-23.861 36.83-34.303 73.39l12.592-13.39s10.655-27.47 28.396-32.84h38.18s-10.03 12.56-47.303 15.06l-27.83 96.7 95.193-56.16s15.76-8.59 35.47 2.49l51.74 24.21-43.4-45.48s-14.79-11.68-21.41-14.4l10.48 20.86s-7.43-5.6-19.74-4.25c-0.12 0.01-0.27 0.04-0.53 0.07-3.67 0.45-7.76 1.53-12.22 3.54l-69.975 38.18-0.483 0.26 12.709-58.46s21.798-2.6 38.649-13.42c1.84-1.19 3.62-2.47 5.31-3.86 4.35-3.57 8.08-7.83 10.58-12.93h-17.64-21.526s-19.709-0.84-22.908 2.48c0 0 11.134-37.2 53.964-37.2 0 0 2.07-0.028 5.3 0.408 12.33 1.673 41.52 10.132 36.59 52.852l-12.96-1.99s-2.8-0.11-3.77 2.28c0 0 13.73 2.73 30.57 16.35 1.93-5.22 3.41-13.32 3.41-19.79 0-34.23-27.75-61.966-61.97-61.966-14.1 0-27.113 4.722-37.532 12.67 11.335-10.893 26.732-17.592 43.682-17.592 34.83 0 63.07 28.238 63.07 63.078l4.14 10.01c0.99-4.76 1.52-9.68 1.52-14.74 0-39.327-31.89-71.215-71.22-71.215v-0.004zm110.28 23.787l-29.04 24.652 36.58 6.66s-0.68-13.06-7.54-31.312zm7.93 36.552l-35.41 14.03 32.51 18.04s3.55-12.58 2.9-32.07zm-3.89 36.37l-37.98 3.15 25.87 26.7s7.05-11 12.11-29.84v-0.01z" transform="translate(0 -.000076294)" stroke="#0055a2" fill="#0055a2"/><path d="m123.96 92.018c-42.827 0-53.968 37.202-53.968 37.202 3.199-3.32 22.914-2.48 22.914-2.48h21.524c-5.56-7.89-14.736-26.47 14.82-34.308-3.22-0.44-5.29-0.412-5.29-0.412v-0.002zm-2.5 47.682c-1.68 1.37-3.45 2.64-5.28 3.82-3.06 9.68-13.91 34.53-50.875 71.62l69.975-38.17c4.46-2.02 8.55-3.09 12.23-3.55 0.26-0.03 0.39-0.06 0.51-0.07-8.67-6.54-18.38-16.99-26.56-33.65z" transform="translate(0 -.000076294)" stroke="#ffcd00" fill="#ffce00"/><path d="m116.18 143.53c-16.847 10.819-38.648 13.423-38.648 13.423l-12.71 58.464 0.47804-0.26714c36.972-37.096 47.821-61.946 50.88-71.619zm84.661-4.3192c-0.42883 5.8242-1.5064 11.469-3.1691 16.861l22.562-3.103-19.39-13.76zm-2.1145-24.33c1.4306 5.6487 2.2188 11.554 2.3067 17.624l20.804-10.622-23.111-7.0024zm-69.48-22.454c-29.557 7.8348-20.382 26.415-14.818 34.309h17.641c-2.5132 5.1108-6.2559 9.3867-10.611 12.962 8.1689 16.661 17.885 27.118 26.56 33.657 12.313-1.3462 19.744 4.2619 19.744 4.2619l-10.479-20.865c6.6223 2.7241 21.414 14.395 21.414 14.395l0.98311-9.2267c-16.841-13.613-30.564-16.356-30.564-16.356 0.97014-2.3867 3.7731-2.2738 3.7731-2.2738l12.951 1.9936c4.95-42.73-24.25-51.194-36.58-52.864zm84.233-0.52725-24.363 0.74144c3.2057 5.0301 5.836 10.447 7.8044 16.18l16.56-16.921zm-160.72-22.694 9.55 20.667c3.3252-4.7382 7.172-9.0712 11.457-12.934l-21.008-7.733zm145.54-0.58765-23.216 7.6562c4.524 3.972 8.5735 8.4765 12.05 13.401l11.166-21.057zm-125.59-16.937 4.032 22.71c4.4255-3.596 9.263-6.7094 14.433-9.2543l-18.465-13.456zm104.14-1.2302-19.97 13.956c5.4904 2.5519 10.619 5.7297 15.301 9.452l4.6685-23.408zm-79.74-10.211-2.4 23.271c5.2759-2.2672 10.857-3.957 16.663-4.9868l-14.259-18.284zm55.5-0.593-15.35 18.717c6.0284 0.99123 11.811 2.678 17.273 4.9978l-1.9168-23.715zm-27.79-3.806-9.1728 22.046c3.0018-0.35502 6.0458-0.54373 9.139-0.54373 2.9034 0 5.7598 0.16346 8.5788 0.48333l-8.546-21.985z" stroke="#ffb819" fill="#ffb819"/><path d="m118.22 10.328l-10.41 7.674 3.36 18.711 7.05-26.385zm35.41 3.713l-12.16 4.377-2.12 18.887 14.28-23.264zm-69.382 2.631l-7.65 10.426 8.781 16.861-1.131-27.287zm100.49 10.799l-12.9 0.761-7.37 17.526 20.27-18.287zm-131.09 5.074l0.002 0.006 0.002-0.006h-0.004zm0.002 0.006l-4.404 12.154 13.182 13.697-8.778-25.851zm145.46 14.746l-12.33 14.482 24.86-11.324-12.53-3.158zm-74.32 10.041v0.004c-3.09 0-6.14 0.184-9.13 0.543-1.44 0.172-2.87 0.387-4.29 0.636-5.81 1.03-11.381 2.72-16.661 4.987-1.195 0.517-2.374 1.054-3.537 1.627-5.167 2.548-9.999 5.658-14.428 9.254-1.012 0.826-2.006 1.677-2.976 2.549-4.285 3.866-8.136 8.199-11.457 12.933 0 0.007-0.003 0.012-0.006 0.012 1.701 0.706 3.694 1.439 4.822 1.91 12.942-17.828 33.953-29.428 57.663-29.428 39.34 0 71.22 31.894 71.22 71.225 0 5.06-0.53 9.98-1.53 14.74l3.2 7.74c1.65-5.39 2.73-11.04 3.15-16.86 0.14-1.86 0.21-3.73 0.21-5.62 0-0.37-0.01-0.73-0.01-1.09-0.09-6.07-0.87-11.97-2.31-17.62-0.51-2.05-1.11-4.07-1.79-6.06-1.97-5.73-4.6-11.155-7.81-16.181-0.64-1.006-1.3-1.991-1.98-2.961-3.48-4.925-7.53-9.435-12.06-13.407-0.94-0.829-1.91-1.628-2.89-2.416-4.69-3.722-9.83-6.899-15.31-9.451-0.78-0.358-1.56-0.711-2.35-1.045-5.46-2.32-11.24-4.006-17.27-4.998-1.29-0.218-2.59-0.389-3.89-0.537-2.81-0.323-5.67-0.486-8.58-0.486zm-97.188 1.201l-0.44 12.924 16.762 8.973-16.322-21.897zm191.91 15.037l-16.03 10.221 27.07-3.508-11.04-6.713zm11.93 30.904l-18.25 5.32 26.98 4.23-8.73-9.55zm-16.74 33.6l24.2 12.65-5.2-11.84-19-0.81zm-7.15 27.48l19.48 19.15-1.55-12.84-17.93-6.31z" transform="translate(0 -.000076294)" stroke="#4d8fcd" fill="#4d90cd"/></g></g></svg>
