<?xml version="1.0" encoding="UTF-8" standalone="no"?>
<svg xmlns:rdf="http://www.w3.org/1999/02/22-rdf-syntax-ns#" xmlns="http://www.w3.org/2000/svg" xml:space="preserve" height="170.04" viewBox="0 0 223.36027 170.04014" width="223.36" version="1.1" xmlns:cc="http://creativecommons.org/ns#" xmlns:xlink="http://www.w3.org/1999/xlink" xmlns:dc="http://purl.org/dc/elements/1.1/"><g transform="matrix(1.25 0 0 -1.25 -300.63 426.61)"><g transform="translate(.79342 .79342)"><path d="m386.64 253.78c2.079 0.004 6.374-0.284 11.787-2.209 1.521-0.54 4.573-1.458 6.219-1.454 0.657 0.001 1.311 0.064 1.948 0.186 3.365 0.65 6.133 2.159 8.225 4.485 1.146 1.269 1.826 2.161 2.425 4.216 0.72 2.465 0.191 5.06-0.258 6.919-0.448 1.86-1.483 4.787-3.387 8.583-0.922 1.833-1.886 3.505-2.906 5.489-1.019 1.985-4.63 7.407-6.398 9.447-2.174 2.506-4.401 4.857-7.591 6.131-0.96 3.262-3.321 11.223-4.916 16.469-1.644 5.426-3.175 8.462-6.059 12.039-3.381 4.186-8.194 6.171-14.287 8.686l-1.83 0.757c-3.337 1.391-6.481 3.01-8.439 3.934-1.957 0.924-5.543 2.483-6.193 1.747-1.535-1.74-2.528-6.892-2.652-10.462-0.022-0.616-0.025-1.223-0.01-1.816-4.004 0.712-7.891 1.536-11.121 2.574-7.446 2.39-15.696 6.015-19.456 7.5s-7.866 3.892-8.465 1.971c-0.479-1.542-0.313-4.949 0.953-8.484 0.72-2.01 2.406-4.642 3.574-6.492 1.531-2.421 3.288-4.804 5.227-7.094l-0.634-0.929c-1.01 0.486-2.194 0.979-3.546 1.409-2.19 0.694-5.772 1.521-10.406 1.513-4.265-0.008-8.548-0.72-12.727-2.115-14.146-4.723-24.661-17.873-25.508-31.637-2.996-3.22-8.321-6.648-17.41-6.664-2.182-0.004-4.84 0.236-6.942 0.579-2.1 0.342-5.082 1.089-5.264 0.209-0.186-0.895-0.108-2.796 0.734-5.15 0.826-2.31 5.315-9.832 11.663-14.223 1.331-0.916 2.819-1.757 3.995-2.331 0 0 4.476-2.098 10.017-2.286 5.342-0.183 10.656 1.326 15.177 4.099 0.514-0.361 1.053-0.705 1.612-1.034 0.88-0.516 1.829-0.996 2.822-1.429l0.115-0.052c0.124-0.057 0.252-0.111 0.373-0.162 1.909-0.793 3.9-1.349 5.874-1.649 0.531-0.087 1.077-0.162 1.649-0.224 1.059-0.111 2.169-0.164 3.297-0.163 2.687 0.005 5.613 0.335 8.697 0.98 1.047 0.219 1.88 0.326 2.544 0.327 1.059 0.002 1.725-0.199 2.792-1.379 1.789-2.258 2.609-4.661 3.234-7.069h-27.063c-3.138 0-6.356-1.518-6.356-1.518l-0.552 1.363-33.221-0.02 5.43-13.408v-6.714c0-1.717-2.186-1.716-5.152-2.341 0 0-1.883-18.136-1.718-18.112 17.331 2.498 19.829 6.089 19.829 6.089 14.56 4.095 31.134 6.228 42.43 7.294-0.204-0.503-0.407-1.03-0.608-1.605-1.068-3.063-1.393-5.135-0.655-7.383 1.504-4.568 8.941-5.919 11.478-5.914 1.587 0.002 2.93 0.277 3.989 0.82 0.795 0.407 4.24 3.032 5.754 4.235 1.514 1.204 7.747 4.584 9.776 6.526 1.459 1.232 2.582 2.818 3.42 4.239 6.096-0.303 30.868-1.901 55.41-8.68 0 0 8.431-4.684 13.427-0.625 1.748 1.421 6.09 8.587 2.967 18.424v12.646s-3.903 5.621-13.271 4.684h-28.913c3.294 2.244 5.188 3.765 11.328 5.817 0.391 0.133 1.537 0.437 3.723 0.441" fill="#fff"/><path d="m150.46 11.607-0.14258 0.05273c-0.65125 0.26625-0.67914 1.1352-0.65039 2.0039l0.006 0.24609 0.16992 0.17774c1.5425 1.6288 4.7684 3.5218 8.5059 5.7168 5.835 3.4262 13.095 7.6894 16.539 12.547 2.7812 3.9225 7.2156 15.182 9.6094 21.545 1.3588 3.2725 2.7657 5.3526 3.5644 6.1426l0.16406 0.16211 0.22852 0.02148 0.54492 0.05273 0.34766 0.03125c0.1775-0.03 0.3357-0.0618 0.4707-0.0918l-0.12695-0.69727c-0.02-0.11-2.0496-11.085-6.2559-23.143-4.1025-11.768-11.173-15.46-21.492-19.75-4.1388-1.7212-7.1432-3.1569-8.9394-4.0156-1.7312-0.8275-2.1085-1.002-2.416-1.002h-0.12695zm-45.869 2.6562c-0.2525 0-0.48766 0.13984-0.62891 0.37109-0.135 0.22-0.1464 0.47961-0.0352 0.69336 2.1687 3.8838 6.9614 11.329 14.816 17.762 1.1975 0.98125 2.3977 1.9323 3.6152 2.8535 4.1138 2.945 8.125 5.4283 11.406 7.332 6.3525 3.3688 13.939 6.3048 24.115 8.9648 1.9325 0.54125 4.0977 1.0802 6.4277 1.5977 0.2275 0.0525 0.3743 0.08758 0.4668 0.14258l-0.12695-0.16992 0.125 0.14453 0.0195 0.02734 0.0254 0.02539c0.035 0.0325 0.0622 0.06086 0.0859 0.09961l0.0176 0.02539 0.0586 0.08203c1.3275 1.6775 7.1756 10.033 1.2344 20.285 0.13375-0.7125 0.21352-1.3398 0.25977-1.8398l0.0723-0.75586-0.29102 0.01953c-0.002 0.01125-0.006 0.02516-0.01 0.03516l-3.4141 0.67383c-4.14 1.225-10.85 3.837-15.14 5.555 0.80125-0.56 1.6756-1.1718 2.5469-1.7793l1.5762-1.0977-1.918-0.07031c-1.6775-0.0625-4.1975-0.41547-6.6875-1.7305l-1.2559-0.66211 0.33984 1.4258c-0.06 0.3575-1.422 1.3866-2.5195 2.2129-1.855 1.3975-4.1601 3.1365-5.8301 5.3965-1.7612 2.3838-3.0735 4.8838-4.0098 7.6426-0.15625 0.45375-0.34766 0.45312-0.44141 0.45312-0.1625 0-0.33351-0.07281-0.38476-0.10156l-1.3867-0.76172 0.45508 1.5078c0.0625 0.20875 0.13367 0.41383 0.20117 0.61133 0.135 0.39 0.31992 0.92695 0.26367 1.0957l-0.2461 0.73633 0.76758 0.10352c1.8188 0.24375 3.5029 0.52352 4.8066 0.75977-1.8138 0.17125-4.3157 0.45125-6.252 0.90625l-0.0606 0.01367-0.0566 0.02539c-1.6188 0.73-2.9179 5.5458-3.4004 7.582-2.7812 13.599-7.4934 32.417-8.0996 34.168-0.61125 1.9275-2.7954 5.9927-3.5879 7.459 0.035 0.205 0.0684 0.41883 0.0996 0.64258 0.095 0.1225 0.15625 0.20117 0.15625 0.20117 0.25375 1.12 0.17774 2.1973 0.17774 2.1973s-0.20766 0.90031-0.25391 1.2266c-0.0738 0.51375 0.0388 2.5068-0.0762 2.9668l1.0547-0.16406c2.3375-2.3938 5.2425-5.5156 6.6875-7.3281l0.0742-0.0664 0.0645-0.0586 0.0605-0.0586 0.0469-0.0684c1-1.54 1.9677-3.3044 2.9902-5.1719l0.0527-0.0937c0.3025-0.5525 0.86453-1.7729 1.6445-3.4629 1.5425-3.3475 3.8783-8.4075 6.2695-12.75 0.88625-1.61 1.8495-3.3053 2.8633-5.0391 0.29125-0.57875 0.57367-1.1344 0.88867-1.7207 3.6425-6.7862 9.6303-15.82 16.07-22.004-2.6175 2.9075-4.5828 6.0675-5.8516 9.4062-0.03 0.0787-0.0579 0.15828-0.0879 0.23828 1.7038 0.63875 7.3129 2.4834 12.713 1.3184 2.97-0.64 5.3491-1.501 7.1953-2.3535-1.7775-1.0138-3.1606-2.4919-4.2168-4.4844l-0.52539-0.98828-0.58789 0.94922c-0.0825 0.13375-0.15656 0.26438-0.22656 0.39062-2.3488-5.565-1.2589-9.1997 0.46484-11.617 0.155-0.37875 0.35414-0.75226 0.61914-1.1348 0.79375-0.7525 1.0877-1.2625 1.5352-1.5625 0 0.0012-0.002 0.0034-0.002 0.0059 0.0138-0.01 0.028-0.02445 0.043-0.0332 0.0225 0.14375 0.0591 0.30812 0.10156 0.48438-0.0712 0.48625-0.12656 1.4335 0.86719 3.9785 1.655 4.2375 8.3024 9.4392 19.014 8.7617 0.38-0.0225 0.74461-0.0457 1.0996-0.06445 0.1025-0.0062 0.19813-0.01133 0.29688-0.01758 0.25-0.015 0.49562-0.02531 0.73437-0.03906 0.12-0.0062 0.23797-0.01133 0.35547-0.01758 0.21125-0.0088 0.42266-0.01859 0.62891-0.02734 0.11875-0.005 0.23992-0.01063 0.35742-0.01563 0.19375-0.0062 0.38352-0.01133 0.57227-0.01758 0.115-0.0037 0.23125-0.0073 0.34375-0.0098 0.185-0.0037 0.36492-0.0073 0.54492-0.0098 0.1075-0.0012 0.21476-0.0039 0.32226-0.0039 0.1875-0.0025 0.37414-0.0039 0.55664-0.0039h0.25977c0.26125 0.0037 0.51953 0.0081 0.76953 0.01563 0.06 0.0012 0.11844 0.0034 0.17969 0.0059 0.1875 0.0062 0.3775 0.01344 0.5625 0.02344 0.10125 0.005 0.19687 0.01133 0.29687 0.01758 0.14125 0.0088 0.27922 0.0193 0.41797 0.0293 0.10875 0.0088 0.21867 0.01734 0.32617 0.02734 0.125 0.01 0.24594 0.02141 0.36719 0.03516 0.115 0.01125 0.22805 0.02461 0.3418 0.03711 0.11125 0.015 0.22594 0.02672 0.33594 0.04297 0.1175 0.015 0.23656 0.02938 0.35156 0.04687 0.10375 0.015 0.20609 0.03383 0.30859 0.04883 0.12375 0.0225 0.24469 0.04 0.36719 0.0625 0.085 0.01375 0.17281 0.03187 0.25781 0.04687 0.3425 0.06375 0.68766 0.13555 1.0352 0.2168 0.71125 0.14375 1.6486 0.60703 1.6523 0.61328 0.0825-0.19125 0.16977-0.37734 0.25977-0.55859h0.008c0.0613-0.11875 0.11383-0.24828 0.17383-0.36328 1.0975-2.0538 2.6134-3.2749 4.0996-2.7637 0.0637-0.05125 0.9275-0.40906 1.1875-0.47656 1.9525-0.51125 8.6655-0.8568 9.3105 9.127 0.009 0.009 0.0147 0.0173 0.0234 0.0273 0.67125-0.54875 1.2666-1.1712 1.7754-1.875l0.10742-0.14648 0.0137-0.1875c0.15125-2.2375-0.50899-4.2927-1.2715-5.8652 2.3275 2.7675 2.4383 2.7676 2.7695 2.7676 0.2825 0 0.71813-0.18375 1.3281-0.5625l0.10742-0.06641-0.20508-0.2168c0.15125-0.285 0.25617-0.59789 0.32617-0.93164-0.35-1.735-1.149-4.7373-2.959-8.416-0.48625-0.68125-1.0392-1.3017-1.668-1.8242l0.7168 0.01367c-0.85375-1.5138-1.4439-2.0197-1.7227-2.1797l-1.0898-0.63281 0.16015-1.248c0.035-0.275 0.155-0.75438-0.0937-1.2656-0.43875-0.8975-1.5824-2.9209-3.1699-5.3047-1.6-1.96-3.5342-4.0623-5.3555-5.9473-3.8812-4.025-8.6052-6.2309-14.035-6.5547-0.40625-0.02375-0.8011-0.03516-1.1836-0.03516-1.3538 0-2.5268 0.13742-3.4355 0.29492 0.575-0.5375 1.2434-1.1112 1.8809-1.5625l0.45703-0.32422-0.25782-0.49609-0.0703-0.13867-0.0762-0.14648c-0.3325-0.65875-0.74906-1.5195-1.2266-2.5195-2.1062-4.375-5.2865-10.987-8.9277-15.994-1.6988-2.3375-3.5831-4.716-5.7344-6.8223-4.9838-3.7312-9.7218-5.8262-11.123-6.4062-0.4025-0.0875-0.8064-0.16922-1.2227-0.23047-9.475-1.3825-20.703-3.6684-26.457-5.1172-3.5862-0.9025-13.169-3.5368-24.65-8.4668l-0.12109-0.05469h-0.13867zm11.482 11.221c11.782 7.3075 26.173 9.1583 35.07 10.301 3.0088 0.38875 5.3946 0.69391 6.7871 1.0977 9.7075 4.185 14.191 14.352 15.455 22.516-1.3888-4.8138-4.5876-10.468-11.83-13.693l-0.12305-0.05469-0.15039-0.0039c-0.0388 0-0.0962 0.0069-0.15625 0.01563h-1.1973l0.64648 1.002c0.39875 0.60125 0.75656 1.1609 1.0391 1.6172-4.18-0.7575-17.714-3.7358-31.891-12.488-5.6275-3.4738-10.759-7.5448-13.65-10.309zm-30.959 10.356c-3.4125 0-6.8586 0.46516-10.246 1.3789-1.5162 0.41-2.9352 0.85398-4.2715 1.334-6.8938 3.1938-12.901 7.5602-17.359 12.709-0.88875 1.1612-1.7429 2.378-2.5879 3.6543-2.175 3.2825-3.9434 7.3517-4.8496 11.168-0.29375 1.2388-0.52414 2.371-0.71289 3.416-0.04 0.49625-0.07148 0.99484-0.08398 1.4961-0.025 0.25375-0.0457 0.50586-0.06445 0.75586-0.07875 0.08125-0.16625 0.1682-0.25 0.25195-0.1575 1.165-0.25219 2.1591-0.30469 2.9453l-0.01563-0.03906-0.70312 0.71875c-7.5475 7.72-16.633 9.3398-22.924 9.3398-1.835 0-4.6495-0.14266-7.6445-0.81641-0.13625-0.03-0.22039-0.04438-0.24414-0.04687-0.04625-0.005-0.08836-0.0078-0.13086-0.0078-0.31 0-0.57531 0.13484-0.72656 0.37109-0.115 0.17875-0.13555 0.36398-0.12305 0.52148 0.16125 0.2625 0.32945 0.50133 0.50195 0.67383 0.8025 0.805 1.5591 1.2216 3.2578 2.3828 1.7488 1.1912 2.4461 1.4303 4.1836 2.1641 1.84 0.71625 3.9398 1.297 6.2285 1.6133 3.3725 0.4675 10.974 0.70906 16.9-2.0234 2.1025-0.96875 3.7616-2.1367 5.0566-3.2617l0.04102 0.05859c-0.14-0.29875-0.28852-0.59648-0.41602-0.89648 0.185 0.10125 0.31445 0.13086 0.31445 0.13086s7.8833 8.0608 20.457 7.0195c12.575-1.0425 19.93-10.309 19.93-10.309l0.541 1.832s1.9933-1.6708 3.9883-5.1758c2.895-5.0875 3.2875-9.747 3.3125-11.613 0.0575 0.3125 0.08203 0.64062 0.08203 0.64062l0.57226 3.0723c-0.0037-0.1375-0.0048-0.28226-0.0098-0.41602 0.0875 0.52625 0.15891 1.0457 0.22266 1.5645l0.11719 0.62695s-0.000313 0.16859-0.0078 0.46484c0.745 8.1375-1.4105 15.236-6.248 20.27l-0.25195 0.25976c2.12 1.4438 5.2277 4.1826 7.5039 8.7988 0.28625 0.4875 0.57031 0.98922 0.85156 1.5117 0.54125 0.8775 0.95711 1.698 1.2559 2.4805 2.2525 4.94 3.9778 9.3911 5.1016 12.371-0.42875 1.3425-0.64938 2.2259-0.60938 2.9609l0.0117 0.18359 0.10352 0.15039c0.12625 0.18 0.3714 0.36617 0.6914 0.54492 0.0187-0.0325 0.0379-0.0613 0.0567-0.0937 0.0325 0.065 0.0836 0.12375 0.12109 0.1875 0.52875 0.2725 1.202 0.52492 1.8457 0.70117 0.88125-0.065 1.5203 0.0351 2.4141-0.0449 0.12-0.10875 0.19454-0.2314 0.23829-0.34765 1.8025-4.7488 4.3807-10.221 7.2207-15.898 0.80375-1.9612 1.8288-3.9848 2.9551-5.916 0.0137 0.005 0.026 0.0119 0.041 0.0156 0.89625-1.7425 1.7999-3.4903 2.7012-5.2266 0.48625-0.93875 0.97258-1.8768 1.4551-2.8105-0.0625-0.18375-0.29156-0.54414-0.53906-0.86914-0.81375-1.0712-2.6987-3.6961-3.8887-6.4961-0.4325-1.0162-0.78149-1.9978-1.0527-2.9453 0.0125 0.075 0.0188 0.1457 0.0312 0.2207-0.29625-0.50125-0.60047-1.0353-0.88672-1.5703l-0.71679-1.3438-0.46094 1.4531c-0.87 2.7537-1.7163 5.8359-2.6113 9.0996-1.6812 6.13-3.5898 13.082-6.1973 19.727l-0.12305 0.34766c-3.3262-10.005-0.25547-34.222 1.8945-42.543 1.0838-4.1912-3.1007-10.96-7.6894-14.648-5.01-4.0312-9.3687-5.8348-14.576-6.0273-0.46625-0.0175-0.92602-0.02734-1.3848-0.02734-11.148 0-20.155 5.0748-24.91 8.4473 9.3375-9.3875 20.307-10.492 24.934-10.492 0.90875 0 1.8011 0.03898 2.6523 0.11523 5.9175 0.53375 10.96 2.5703 15.418 6.2266 6.0688 4.9825 9.8384 13.087 8.9121 16.479-0.1275 0.47125-0.2632 0.95945-0.4082 1.4707-1.445 5.1688-3.4229 12.248-3.7754 24.914-0.0688 2.4262 0.0166 4.254 0.25781 5.4277l1.2461 0.0469c1.0862-3.7837 2.1287-8.4356 3.2324-13.359 1.6438-7.3325 3.3452-14.915 5.5039-21.25 0.4-1.3825 0.81609-2.7417 1.2461-4.0742 0.24875-0.77375 0.61157-1.5321 1.1016-2.3184l0.27734-0.44531-0.38477-0.36328c-3.315-3.1188-7.7558-7.6513-13.568-13.861-5.4362-5.8062-13.828-9.1367-23.023-9.1367zm101.31 32.971c1.2975 0.3125 2.7252 0.97078 4.0215 2.2695 0.85 0.85125 1.9201 2.1026 3.0488 3.4238 0.0188 0.02125 0.0372 0.0432 0.0547 0.06445 1.72 1.4675 3.5082 3.292 4.377 4.8145 0.845 0.80375 1.6303 1.432 2.3203 1.7695 1.755 0.8575 3.0415 1.24 3.8965 1.4062-0.52249 0.31875-1.2084 0.65078-1.9746 0.80078l-0.0176 1.002c-1.4575-0.6125-3.0538-0.66406-3.5488-0.66406-0.4025 0-0.97492 0.02625-1.4199 0.15625l-0.084 0.02539-0.0762 0.04687c-1.05 0.655-2.5959 1.0195-4.3496 1.0195-2.7675 0-6.746-1.0068-8.8535-3.8418-1.3538-1.82-1.8794-3.9112-1.4844-5.8887 0.3325-1.6788 1.293-3.0629 2.6992-3.9004 0.33125-0.2 0.87359-0.43555 1.5898-0.43555h0.0723l0.84375 0.01953-0.20703-0.82031c-0.14125-0.54875-0.47321-0.96008-0.9082-1.2676z" transform="matrix(.8 0 0 -.8 239.18 340.77)" fill="#ffd700"/><path d="m104.46 14.281c-0.20375 0.03625-0.38711 0.16102-0.50586 0.35352-0.13375 0.22-0.14766 0.47961-0.0352 0.69336 2.1675 3.8838 6.9626 11.329 14.816 17.762 9.8738 8.0875 19.865 14.113 39.137 19.15 1.9325 0.54125 4.0965 1.0802 6.4277 1.5977 0.2275 0.0525 0.3743 0.08758 0.4668 0.14258l-0.12891-0.16992 0.125 0.14453 0.0215 0.02539 0.0273 0.02734c0.0337 0.0325 0.0602 0.06086 0.084 0.09961l0.0176 0.02539 0.0586 0.08398c1.3275 1.6775 7.1756 10.031 1.2344 20.283 0.135-0.7125 0.21422-1.3398 0.26172-1.8398l0.0703-0.75586-0.75586 0.05469c-2.0612 0.1475-8.2792 2.4015-13.605 4.459l-8.2656 3.9727 0.004 0.43945s8.123-2.7096 15.855-2.0684c-0.63 2.3488-0.86375 5.0199-0.28125 7.9199 0.1025-0.16375 0.26992-0.16906 0.48242-0.07031 0.0887-0.14375 1.6009-2.537 2.4746-3.1445 0.0238 0.14375 0.0598 0.30688 0.10351 0.48438-0.0712 0.48625-0.12656 1.4335 0.86719 3.9785 1.655 4.2375 8.3012 9.4392 19.014 8.7617 6.125-0.38875 9.2033-0.34976 12.957 0.67774 0.0375-0.07125 0.0635-0.13898 0.10352-0.20898l0.44141-0.78125 0.22461-0.26953 0.22656-0.29688c0.3575-0.47 0.7564-0.94359 1.1914-1.4023l0.71485-0.75586 0.13281-0.27539 0.26172 0.05859 0.0137 0.0059 1.916 0.60547c0.065-0.05125 0.9282-0.40906 1.1894-0.47656 1.9512-0.51125 8.6648-0.85555 9.3086 9.127 0.01 0.009 0.0127 0.0166 0.0215 0.0254 0.6725-0.5475 1.2686-1.1706 1.7773-1.873l0.10742-0.14844 0.0137-0.18554c0.15125-2.2387-0.50829-4.294-1.2695-5.8652-0.1525-0.42-0.82843-1.3957-1.5547-2.0332-1.02-1.2662-2.5983-3.2842-3.3008-4.293-0.98375-1.4075-4.7617-3.9648-4.7617-3.9648-1.4575-0.6125-3.0558-0.66406-3.5508-0.66406-0.4025 0-0.97227 0.02625-1.416 0.15625l-0.0859 0.02539-0.0742 0.04687c-1.05 0.655-2.5958 1.0176-4.3496 1.0176-2.7688 0-6.748-1.0041-8.8555-3.8379-1.3525-1.82-1.8794-3.9112-1.4844-5.8887 0.3325-1.68 1.2923-3.0655 2.6973-3.9043 0.33125-0.19875 0.87679-0.43359 1.5918-0.43359h0.0723l0.84375 0.01953-0.20899-0.82031c-0.13999-0.54875-0.35101-0.96391-0.63476-1.1914-0.28375-0.22875-2.6927-0.70891-4.6914-0.69141-1.6375 0.805-3.9754 2.5584-4.6191 6.4746-0.635 3.8725 0.35 7.0539 4.5312 9.6602 5.6388 3.5138 12.839 2.8617 15.271 1.3242-0.17125 1.1425-0.58946 3.0211-2.8145 4.6211-4.7925 3.4512-11.874 2.7076-16.918 1.2988-3.14-0.8775-5.9428-2.3866-8.1016-4.3203-1.1162-1.1112-2.4573-2.9487-3.0098-5.5762-0.67125-3.1912 1.0299-5.9284 2.8262-7.5547 1.1188-1.015 2.5801-1.5918 2.5801-1.5918-0.0138-0.06625-0.0157-0.1407-0.0332-0.18945-0.8875-0.1675-1.9133-0.1443-2.957 0.0957 1.2538-1.9075 2.4074-4.2847 2.6699-6.9609 0.54875-5.5725-3.5288-15.067-11.268-19.814h-0.18946c0.535 0.53875 1.4973 1.6262 1.6973 2.6699 0 0-0.945-0.16945-2.5938-0.56445-5.7888-1.2862-17.342-4.5559-29.357-11.975-5.6262-3.4738-10.755-7.5461-13.646-10.309 0.22875 0.14125 0.46531 0.27 0.69531 0.40625-7.9275-6.6788-11.098-9.9819-12.303-11.609zm-50.144 49.457c-2.26 2.02-6.9779 8.7653-8.0879 15.758-0.15375 0.96875-0.2025 1.7791-0.1875 2.4766-11.205 10.38-28.079 6.2298-34.123 2.791 0.12125 0.52625 0.51172 0.94531 0.51172 0.94531 2.4575 1.9775 6.5951 5.2765 13.611 6.1152 3.38 0.40625 10.974 0.71031 16.9-2.0234 2.295-1.0588 4.0798-2.3567 5.416-3.5742 1.7712 1.5975 9.1359 7.5268 20.037 6.623 12.575-1.0412 19.93-10.307 19.93-10.307l0.541 1.832s1.9933-1.6708 3.9883-5.1758c3.755-6.595 3.2969-12.486 3.2969-12.486s-0.35086-0.66938-0.47461-1.2031c-0.02375-0.10625-0.05625-0.32422-0.09375-0.60547-5.8838 17.399-19.625 20.545-19.625 20.545l0.92969-4.5625c-3.725 2.4888-8.9474 4.2173-13.045 3.6836-9.7238-1.2687-12.035-7.2214-11.865-12.973 0.10125-3.4012 2.5332-7.5703 2.5332-7.5703l-0.19336-0.28906zm42.299 3.1875-0.23828 0.88281c0.29 1.265 0.47102 2.6327 0.57227 4.0352 0.02625 0.20375 0.05898 0.40688 0.08398 0.60938l0.11524 0.61914s0.0016 0.16789-0.0059 0.46289c0.745 8.1388-1.408 15.24-6.248 20.273l-0.56055 0.58398 0.69727 0.41211c2.7062 1.6087 5.4611 4.9205 7.9648 9.5742 0.5425 0.8775 0.95781 1.6987 1.2578 2.4824 1.915 4.2012 3.4459 8.0397 4.5547 10.93l0.83008 1.9219 0.14844 0.29102c0.2325-0.7775 0.56047-1.7453 0.98047-3.0078-0.11625-0.275-0.2343-0.54921-0.37305-0.85547-2.755-6.035-5.477-15.682-5.9394-20.574-0.13875-1.4688-0.19422-2.7773-0.19922-3.9785l-3.4238 1.7148-0.16211-0.11133c2.1612-2.4912 3.6795-9.0867 2.9707-14.699-0.71-5.6112-3.0254-11.566-3.0254-11.566zm16.068 4.4707c-1.4038 5.0712-3.1322 12.011-3.4609 23.777-0.0675 2.4262 0.0166 4.2527 0.25781 5.4277l1.2461 0.0469c1.0862-3.785 2.1299-8.4356 3.2324-13.359 0.735-3.27 1.4809-6.5874 2.2734-9.8262-0.795-1.3575-2.3201-3.9652-3.5488-6.0664zm8.377 16.715c-3.52 10.804-8.4698 21.627-12.527 32.225-0.32 0.835-3.0365 2.2368-3.4277 2.4355 0.04 0.0325 0.0846 0.0645 0.13086 0.0957l2.7871 1.1055c0.38625 0.085 0.74289 0.13476 1.0254 0.13476 0.77375 0 1.0697-0.34547 1.1797-0.63672 2.9662-7.8125 8.0255-17.58 12.918-27.023 0.51375-0.9925 1.0245-1.9811 1.5332-2.9648-0.155-0.25-2.0929-2.5073-3.6191-5.3711zm32.746 0.55078c-0.0912 0.05625-0.17508 0.10156-0.26758 0.16406-6.8275 4.6012-11.162 7.9453-14.166 10.883-3.815 3.7362-5.4311 6.6981-6.7461 9.4531-5.14 10.77-9.408 21.31-13.436 29.924-1.6438 3.515-4.2087 5.7538-6.3887 8.2188-0.0125 0.0138-0.0175 0.0216-0.0312 0.0391-0.01 0.3425-0.0377 0.68281-0.084 1.0078-0.075 0.52125-0.17352 1.0142-0.29102 1.4805 0.001-0.002 0.003-0.007 0.006-0.01-0.009 0.3325-0.0251 0.68914-0.0488 1.0566l-0.11329 1.7285 1.2148-1.2363c2.37-2.4188 5.4097-5.6774 6.8984-7.5449l0.0742-0.0664 0.0645-0.0586 0.0605-0.0586 0.0469-0.0684c1-1.5388 1.9677-3.3044 2.9902-5.1719l0.0508-0.0937c0.30375-0.5525 0.86649-1.7741 1.6465-3.4629 1.5425-3.3488 3.8783-8.4075 6.2695-12.75 0.88625-1.61 1.8495-3.3066 2.8633-5.0391 0.29-0.57875 0.57367-1.1344 0.88867-1.7207 3.3688-6.2812 8.7505-14.485 14.637-20.576 0.47375-0.49125 2.377-1.9766 2.377-1.9766s0.48062-1.662 0.79687-2.502c0.21375-0.55875 0.445-1.0941 0.6875-1.6191zm-26.09 0.45312 0.45508 1.5078c0.0625 0.20875 0.13242 0.41383 0.20117 0.61133 0.135 0.39 0.31992 0.92625 0.26367 1.0938l-0.2461 0.74023 0.76954 0.10156c1.8188 0.24375 4.8047 0.75781 4.8047 0.75781l2.7832-0.10547s-2.9313-1.7689-6.7676-4.4414c-0.0162 0.04875-0.0345 0.09578-0.0508 0.14453-0.15625 0.45375-0.34766 0.45508-0.44141 0.45508-0.1625 0-0.33351-0.07352-0.38476-0.10352l-1.3867-0.76172zm88.641 11.482-1.2852 0.33398c-0.9075 0.2325-1.6815 0.36758-1.8965 0.39258l-0.2793 0.0312-0.18945 0.22851c-0.265 0.365-0.72117 0.90618-1.4199 1.4824 0.0225 0.12875 0.0366 0.23593 0.11914 0.24218 1.3075 0.0988 2.4044-0.008 3.4394-0.36914 0.39125-0.42125 0.77907-0.90468 1.1641-1.6172 0.14125-0.26125 0.2539-0.50086 0.34765-0.72461z" transform="matrix(.8 0 0 -.8 239.18 340.77)" fill="#c99700"/><g fill="#fcfaa8"><path d="m275.12 278.96 0.21 0.127s0.68 10.092 6.603 17.721c4.352 5.605 8.317 8.267 14.691 10.757 8.403 3.282 20.389 2.746 26.92-3.698 5.535-5.462 9.519-9.383 12.394-12.168 0.181 0.448 0.411 0.895 0.697 1.353l0.222 0.356-0.308 0.29c-2.653 2.495-6.204 6.122-10.854 11.09-4.349 4.645-11.062 7.308-18.418 7.308-2.73 0-5.488-0.371-8.198-1.102-9.774-2.64-14.578-7.111-18.891-13.439-2.24-3.757-3.668-7.536-4.412-10.117-1.385-4.804-0.656-8.478-0.656-8.478"/><path d="m285.79 292.88 0.337-0.059s11.538 8.015 22.651 7.237c10.191-0.713 17.11-10.044 16.126-14.812-2.572-12.469-3.761-31.203 0.79-34.825-0.024 0.72-0.04 1.272-0.048 1.557-1.852 5.902-1.081 17.573 0.134 26.058 0.219 2.057 0.519 3.921 0.922 5.44 0.179 0.88 0.356 1.663 0.525 2.319 0.867 3.353-2.481 8.768-6.152 11.719-4.008 3.226-7.495 4.668-11.661 4.822-0.373 0.014-0.742 0.021-1.108 0.021-8.919 0-16.123-4.059-19.928-6.757 0.103 0.103 0.207 0.201 0.31 0.301-1.118-0.927-2.106-1.933-2.898-3.021"/><path d="m333.2 276.2-0.347-1.099c-0.697-2.203-1.375-4.669-2.091-7.28-1.103-4.022-2.332-8.485-3.888-12.892-0.695-2.794-1.148-4.665-1.148-4.665l0.663 0.829s4.029 8.136 8.224 22.373c-0.529 1.077-0.945 1.792-1.413 2.734"/><path d="m408.35 272.44 0.594-0.011c-0.172 0.391-0.651 1.397-1.4 1.745l-0.872 0.504 0.13 0.999c0.028 0.22 0.039 0.574-0.075 1.014-0.011 0.035-0.028 0.079-0.04 0.117-0.457 0.956-1.455 2.54-2.622 4.278-1.254 1.525-2.746 3.147-4.158 4.607-3.106 3.219-6.885 4.984-11.229 5.242-0.325 0.019-0.641 0.029-0.947 0.029-1.083 0-2.021-0.11-2.749-0.237 0.461 0.431 0.995 0.889 1.505 1.251l0.366 0.259-0.206 0.398-0.057 0.109-0.06 0.117c-0.267 0.527-0.599 1.216-0.981 2.017-1.685 3.499-4.229 8.79-7.142 12.796-3.481 4.786-7.921 9.808-14.465 10.767-7.58 1.105-16.563 2.934-21.167 4.094-2.868 0.722-10.533 2.829-19.718 6.773l-0.097 0.043h-0.112c-0.165 0-0.319-0.077-0.432-0.207 5.419-4.367 13.809-7.885 20.554-9.556 4.157-1.033 8.789-1.989 12.453-2.557 5.7-0.883 10.151-1.192 12.332-2.374 9.311-5.049 16.214-21.692 16.832-23.899-0.436-0.258-0.831-0.546-1.125-0.838-0.449-0.448-0.677-0.842-0.677-0.842l0.044-0.059s0.881 0.288 2.562 0.335c4.392 0.119 8.064-1.338 10.86-3.538s7.682-7.893 8.2-8.558c0.512-0.665 0.576-0.827 0.511-0.912-0.2-0.054-0.85-0.509-1.144-1.03 0.04-0.028 0.049-0.05 0.063-0.078 1.598-0.275 2.563-1.45 2.836-2.002-0.398-0.023-1.008-0.28-1.276-0.402-0.052-0.02-0.063-0.071 0-0.085 0.925-0.165 2.456-1.284 3.756-3.601 1.595-2.845 1.407-5.544 1.459-6.03-0.295 0.183-0.051 0.019 0.365-0.257 0.214 0.06 0.492 0.195 0.848 0.415l0.265 0.164-0.025 0.311c-0.009 0.131-0.023 0.271-0.037 0.413-0.057 0.28-0.13 0.608-0.218 0.968-0.237 0.801-0.61 2.579-1.275 4.061-0.212 0.494-0.489 1.056-0.79 1.63-0.413 0.606-0.888 1.16-1.439 1.617"/></g><path d="m133.66 61.789c-3.8925 0.05-5.7714 1.3101-7.1289 2.8613-0.0475 0.055-0.15718 0.1868-0.30468 0.37305 1.9075-0.70625 3.9811-1.0977 6.0586-1.0977 2.5125 0 4.8557 0.56531 6.7832 1.6328l0.37305 0.20703 0.33594-0.26367c1.2088-0.955 1.438-1.324 1.4492-1.709 0.005-0.105 0.009-0.25906-0.15625-0.82031-1.135-0.345-4.3264-1.2223-7.4102-1.1836zm-37.506 5.0488c0.0062 0.13375 0.01406 0.38133 0.0078 0.73633 0.0575 0.3175 0.08398 0.6543 0.08398 0.6543l0.09961 4.6387s-1.0488 9.7123-9.5801 15.885c-6.0425 4.3725-12.841 6.3164-18.139 6.3164-8.3425 0-14.945-2.8183-18.789-6.8008-0.735-0.7625-1.3407-1.5559-1.8457-2.3809-0.025-0.0225-0.05664-0.05469-0.05664-0.05469s-0.10898-0.02367-0.27148-0.10742c0.12 0.38625 0.29305 0.78594 0.56055 1.2109 0.49 0.78125 1.0263 1.5268 1.5938 2.248 2.5162 2.9962 5.5562 5.3896 8.9512 6.9746 3.425 1.5975 7.3538 2.4414 11.361 2.4414 2.4912 0 4.9802-0.32258 7.3965-0.95508 4.3838-1.145 8.051-2.9845 10.979-5.457 3.2988-3.0825 5.8098-6.996 7.1836-11.416 0.44375-1.585 0.77383-3.2536 0.95508-5.0273 0.16625-1.6462 0.20508-3.1488 0.17383-4.4863-0.0975-1.5112-0.32281-2.9874-0.66406-4.4199zm38.727 4.8867c-2.0545-0.0028-4.2511 0.16524-5.918 0.72461-3.8262 1.2838-6.748 8.8216-7.918 15.695 1.325 2.5625 2.7558 4.5598 3.5195 5.5586 0.76875-1.485 1.5311-2.9638 2.2773-4.4238l0.16211-0.32031-0.1875-0.30859c-0.70125-1.145-1.1602-1.9859-1.459-2.5996 1.0012 0.30125 1.7292 0.35742 2.1367 0.35742 0.25 0 0.38282-0.02148 0.38282-0.02148l0.40039-0.06445 0.12304-0.39062c0.0112-0.04 1.1464-3.867 3.9727-7.1445 1.82-2.1125 4.4148-3.9727 5.9648-5.084 1.405-1.0075 1.6595-1.1924 1.6133-1.6699 0-0.0025-0.002-0.0073-0.002-0.0098-1.1012-0.12312-3.0138-0.29602-5.0684-0.29883zm53.787 0.13867-0.2539 0.08594c-0.305 0.105-0.60368 0.27664-0.91993 0.52539-1.47 1.1588-2.3756 2.8627-2.4844 4.6777-0.11 1.8388 0.58578 3.6048 1.957 4.9785 0.50625 0.50875 1.1069 0.94133 1.7656 1.2988 1.2762 0.6025 2.7185 0.98102 4.041 0.97852 1.0538-0.0025 1.8451-0.05594 2.4863-0.17969 0.74-0.21 1.4131-0.52461 1.9844-0.94336 0.1975-0.175 0.3925-0.37141 0.59375-0.59766 0.0112-0.01 0.0252-0.02586 0.0352-0.03711l-0.008-0.20117-0.006-0.12891c-0.004-0.0275-0.0211-0.15461-0.0586-0.34961-0.0487 0.0575-0.10429 0.12094-0.18554 0.21094-2.06 2.2862-6.6856 1.9352-9.0469-0.43359-2.36-2.3638-1.9845-5.8737 0.41797-7.7637 0.9475-0.74625 1.8127-0.755 2.4727-0.5 0.0188 0.0075 0.0464 0.0225 0.0664 0.03125-0.80875-0.5525-1.6797-1.0682-2.6172-1.5332l-0.24024-0.11914zm-138.92 17.822c-7.271 7.281-16.373 6.826-16.373 6.826l-1.5234 2.9648 0.71875 0.13477c0.48125 0.0875 1.0765 0.13281 1.7715 0.13281 2.4725 0 6.391-0.59664 9.9785-2.2754 3.6788-1.7225 5.7654-3.9895 6.6816-5.1895l0.29492-0.38672-0.29297-0.39062c-0.445-0.58875-0.86086-1.1939-1.2559-1.8164zm150.02 3.408s-5.7304 4.8845-2.5254 9.832c0.99625 1.5425 2.837 2.3271 4.7695 2.5996 0.002 0 0.005 0.002 0.008 0.002 0.10625 0 0.20914-0.003 0.30664-0.008l0.0742-0.002c3.7362-0.125 6.6812-1.0909 8.8125-2.8672-0.0725-0.12625-0.13274-0.21078-0.17774-0.20703-1.36 0.1975-5.2033 0.62625-8.6133-0.21875-3.5675-0.88125-4.0339-5.0309-0.72266-7.5371-0.675-0.205-1.5098-1.0098-1.5098-1.0098s-0.35188-0.43148-0.42188-0.58398zm-35.969 0.49219c-0.7325 0.84-1.243 1.6175-1.418 2.3125 0.3325 0.52625 0.78132 1.1102 1.3926 1.7402 1.955 2.025 5.518 3.0098 10.887 3.0098 3.09 0 6.2348-0.32188 8.7598-0.57813 1.49-0.15125 2.7764-0.28289 3.6602-0.30664 0.18375-0.0037 0.36336-0.0059 0.53711-0.0059 2.9225 0 4.9098 0.64024 6.0586 1.1777l0.68164 0.31836c0.0613-0.006 0.0976-0.01 0.0976-0.01s0.0667-0.0732 0.16797-0.18945l-0.0332-0.73242c-0.0213-0.43 0.0389-0.88547 0.16016-1.3555-3.0238-1.7688-8.1803-1.1748-12.352-0.72852-3.3825 0.36-7.6879 0.34586-12.369-0.61914-4.4162-0.9125-6.2305-4.0332-6.2305-4.0332zm47.588 9.3945c-1.0712 0.9075-2.7489 1.9159-5.2539 2.4609-1.1062 0.3625-2.221 0.54507-3.291 0.54882 0.26375 0.39 2.7695 0.78907 2.7695 0.78907 0.85625 0.15125 1.817 0.12531 2.5957-0.0234 1.8475-0.35125 3.4885-1.1081 4.8223-2.0156-0.715-0.255-1.1586-1.0854-1.2461-1.3691-0.0225-0.0625-0.088-0.0794-0.19922-0.0332-0.07-0.1175-0.13602-0.23992-0.19727-0.35742zm-42.775 0.21289c-0.0137 0.009-0.0287 0.0166-0.0449 0.0254-4.9538 2.8612-16.766 7.6516-24.256 3.3691-0.23875 0.8975-0.43867 1.7493-0.60742 2.498l-0.13476 0.58203 0.57226 0.17187c2.0512 0.62375 4.2583 0.94141 6.5508 0.94141 5.4225 0 11.332-1.684 18.061-5.1465 0.435-0.23375 0.8957-0.47782 1.377-0.72657l0.21875-0.11914 0.16992-0.0898 1.7402-0.95117-1.9648-0.25196c-0.58501-0.0763-1.1466-0.17898-1.6816-0.30273zm-55.844 44.152c-0.34125 0.42-1.1633 1.3695-2.207 2.082-2.3488 1.6-5.8198 3.1916-7.4785 2.8203-2.2688-0.505-5.6335-2.3957-7.041-3.2207-1.1888 1.4488-1.5177 3.1694-1.3477 4.0781 0.20625 1.1075 5.209 5.1694 8.7715 4.4531 4.1762-0.8375 8.3162-2.882 9.2188-9.207 0.0475-0.325 0.0727-0.66336 0.084-1.0059zm-20.4 6.3047c0.02875-0.15375-0.79977 1.7388-0.75977 2.4375 0.015 0.24625 0.29344 0.61992 0.74219 1.0449-0.3825 1.2712-0.52758 2.5782-0.48633 3.0645 0.0875 1.0375 4.572 3.0358 7.8457 2.7246 3.6112-0.34625 2.647-1.602 1.082-2.082 0.0288-0.001 0.0611 0.002 0.0898-0.002 1.5775-0.12375 3.5028-1.4047 4.9453-2.4922-0.21375-0.10625-0.40149-0.23406-0.55274-0.38281-1.065 0.6325-3.3398 1.2724-4.791 1.0449-5.8425-0.9125-8.1152-5.3574-8.1152-5.3574z" transform="matrix(.8 0 0 -.8 239.18 340.77)" fill="#cbd3ec"/><path d="m148.55 7.6504c-0.11123 0.00763-0.21899 0.026563-0.32422 0.056641-1.4762 0.42-1.7329 3.8499-1.8691 7.5762-0.12125 3.2612 0.25351 5.6708 0.69726 7.3633-0.007 0.1525-0.006 0.2943-0.006 0.43555-7.005-1.1262-14.687-2.4759-20.793-4.4434-9.845-3.1688-15.783-5.7333-25.705-9.957-0.735-0.31375-1.4541-0.78188-2.0078-0.20312-0.55875 0.575-0.5175 1.8279 0.15625 3.2129 0.6725 1.385 5.6516 12.671 18.525 23.854 9.5912 8.33 21.802 15.252 40.559 19.881 1.17 0.28875 2.6892 0.63344 4.1367 0.96094 2.3938 2.2688 3.4204 5.0235 3.8691 7.2285l-0.93945 3.8203s-7.453 3.3541-9.6543 4.7891c-0.0175 0.0125-0.0354 0.02586-0.0566 0.03711-2.3625 0.23-5.1462-0.02-8.0762-1.3438-0.25375-1.585-0.58664-3.0013-0.90039-3.2051-0.31125-0.1975-0.66469-0.39117-1.0547-0.57617-0.145-1.45-0.33633-3.0289-0.61133-3.1914-0.80875-0.4825-1.2895-0.77562-1.6758-0.98437-0.525-2.0525-1.1976-4.1024-1.6426-4.2949-0.3375-0.14375-0.67562-0.2768-1.0156-0.4043-0.36375-1.615-0.86743-3.4009-1.1699-3.6172-3.2762-2.3325-10.32-2.0066-14.98 1.6309-2.3775-2.1875-4.7569-4.5348-6.8281-6.8398-5.1588-5.7375-7.8649-9.9628-9.9824-14.57-0.10375 0.15375-0.52039 0.90219-0.74414 1.6484-0.22375 0.7475-0.30469 1.2188-0.30469 1.2188s-2.8178-2.407-7.8828-4.0195c-5.6938-1.8112-15.183-2.9077-26.039 0.68359-17.501 5.79-28.617 22.163-28.82 36.779-6.078 7.405-17.268 13.361-35.91 10.348 0 0-0.39164 0.03-0.27539 0.65625 0.22 1.2238 5.1792 9.5713 12.605 14.705 2.1625 1.495 4.6793 2.767 5.6543 3.127 1.1325-0.255 4.4805-1.0996 4.4805-1.0996s-1.3579 2.3505-1.4941 2.623c9.9375 2 19.37-1.2438 25.426-5.9238 0.9075 0.8475 2.29 1.9736 4.1875 3.0898 0.89125 0.52375 1.9061 1.0452 3.0273 1.5352 0.175 0.075 0.34719 0.15602 0.52344 0.22852 0.0025 0.002 0.008 0.003 0.01172 0.004 2.02 0.8425 4.1411 1.4434 6.3086 1.7734 0.57875 0.0962 1.1709 0.17789 1.7871 0.24414 3.8062 0.40375 8.2854 0.17133 13.557-0.91992 5.2912-1.095 8.2236-0.51891 11.277 2.9336 4.3212 5.53 5.3677 13.887 5.4414 14.514-0.005 0.0637-0.008 0.10157-0.008 0.10157l2.1387-1.4375c0.0188 2.895 0.1089 6.2364 0.1914 7.0976 0.14 1.4638 5.6418 3.0862 6.9356 3.1875 0.0613 0.0238 0.11586 0.0366 0.16211 0.0391 1.3075 0.05 6.0725-2.0395 7.2188-2.5332-1.3262 5.8775-2.3662 10.47-2.5 11.117-0.37375 1.8038-2.4883 5.168-2.4883 5.168s-2.1142-0.48992-3.1992 0.48633c-0.02 0.0175-0.034 0.0359-0.0527 0.0547l-0.0234-0.0254s-2.0483 1.9719-5.6445 3.0156c-3.3788 0.98125-7.0458 0.63094-7.5195 1.4609-0.2975 0.52625-1.0618 1.9104-1.623 3.2441-0.8575-0.0212-1.502 0.0229-1.7207 0.30664-0.4125 0.53625-2.3202 5.3286-1.9727 5.8398 0.25625 0.37875 0.63375 0.78703 1.0938 1.207-0.40375 1.3388-0.77586 3.1205-0.72461 3.2617 1.0512 2.9625 9.4928 4.6474 12.258 3.2461 1.2825-0.65125 3.6671-2.6577 6.2246-4.9902 0.41875-0.10375 0.83461-0.24781 1.2559-0.44531 3.1038-1.4488 9.0893-5.4123 10.967-7.2598 2.88-2.3375 4.6405-6.6415 5.3867-7.9277 4.3575-6.6425 19.94-23.912 24.803-29.252 3.4812-0.5825 7.5548-1.61 12.26-3.3125-0.31875 1.3025-0.37188 2.6233 0.42187 3.2695 1.0388-2.1075 5.4835-6.2307 14.416-9.1895 4.1175-1.3638 12.936-1.1352 22.484 2.2774 0.61625 0.22 1.113 0.30453 1.5293 0.30078 1.6462 0.95125 3.9436 1.536 6.2148 1.1035 3.7525-0.7125 6.1189-2.3724 7.6914-4.1074 1.41-1.5525 2.028-3.108 2.293-4.0605 0.16875-0.11125 0.32508-0.22586 0.45508-0.34961 0.59375-0.55875-0.195-3.1857-0.59375-3.9082-0.075-0.13875-0.18891-0.23414-0.31641-0.30664-0.45125-2.4375-1.5777-6.4159-4.084-10.992-1.045-1.9062-1.8742-2.716-2.543-3.1035 0.0588-0.47 0.0744-1.1563-0.14063-1.9863-0.5875-2.2575-4.6047-8.0727-8.2422-12.271-2.7288-3.1475-5.2444-5.8443-9.0156-6.8418-0.30625-0.1325-0.79953-0.40695-0.92578-0.8457-0.3125-1.0788-4.1601-14.158-6.6113-22.258-1.975-6.5112-3.6575-9.6359-6.7188-13.43-3.8225-4.7375-9.9099-6.9231-18.295-10.422-8.73-3.6438-11.25-6.014-12.92-5.8996zm2.0059 4.6055c0.2675-0.10875 3.9617 1.9791 11.137 4.9629 10.066 4.1862 17.111 7.8359 21.131 19.367 4.24 12.15 6.2324 23.047 6.2324 23.047l-0.54883-0.05078c-0.50125-0.4975-1.9046-2.2746-3.4121-5.9121-2.59-6.8788-6.9088-17.769-9.6875-21.689-5.71-8.054-21.25-14.256-25.11-18.336-0.0263-0.7675 0.0288-1.2999 0.25-1.3887zm-45.961 2.6523c9.8262 4.2188 18.862 7.0188 24.744 8.5 5.93 1.4938 17.178 3.7664 26.523 5.1289 7.6075 1.1125 13.023 6.8305 17.654 13.199 4.4638 6.14 8.341 14.947 10.104 18.436 0.0488 0.09875 0.0951 0.19016 0.14258 0.28516-1.4162 1.0025-2.927 2.547-3.4082 3.0957-0.006 0.0925 0.0547 0.09766 0.0547 0.09766s2.6715-0.94711 6.4277-0.72461c4.0788 0.24125 9.037 1.6162 13.613 6.3574 4.06 4.2075 9.2102 10.183 8.6602 11.705-0.0138 0.03875-0.0133 0.06852-0.0195 0.10352-0.002 0-0.007-0.000703-0.01-0.002 0 0-1.2539-0.22938-2.3164 0.54688 0.05 0.04375 0.0599 0.06797 0.10742 0.10547 0 0 3.0586 0.0056 4.4961 3.0156-0.4925-0.01-1.288 0.06656-1.5918 0.19531-0.0562 0.0088-0.009 0.07594 0.0449 0.11719l-0.002 0.002c0.004 0.0012 0.008 0.0041 0.0117 0.0078 0.005 0.0037 0.0106 0.0053 0.0156 0.0078 3.8775 2.0325 5.4183 7.8071 5.6758 11.225-0.765 0.47625-0.98632 0.46484-0.98632 0.46484s-0.04 0.13289-2.5938-2.9121c-1.4138-1.69-2.5352-2.2344-2.5352-2.2344l-0.10156 0.36328s3.4004 3.8699 3.0879 8.4824c-3.0612 4.2338-8.5734 4.3511-10.086 4.4024-1.5062 0.0525-4.4043-0.25438-5.6856-3.6094-0.545-1.4225-0.27031-2.7762 0.33594-4.0449 1.7038 0.32375 2.8184 0.5332 2.8184 0.5332s0.69945-0.3857 1.127-1.0957c0.43125-0.71375-1.2812-0.76172-1.2812-0.76172l-1.7637-0.22461c0.1175-0.175 0.23617-0.34898 0.35742-0.52148 0.1775-0.2475 0.35782-0.47461 0.53907-0.69336 1.5688 0.46875 2.6016 0.7793 2.6016 0.7793s0.43586-0.29703 0.94336-0.95703c0.5025-0.66375-0.9668-0.89844-0.9668-0.89844l-1.2266-0.2793c1.5062-1.2625 2.8379-1.6719 2.8379-1.6719l-0.11133-0.13281s-2.2812 0.20312-4.2637 1.4531l-15.188-3.4746s-0.70508 0.37656-0.45508 0.44531c0.1725 0.0475 8.798 2.6311 14.186 4.2461-0.43375 0.46125-0.85328 0.94758-1.2383 1.4551l-16.602-2.1055s-0.76406 0.43531-0.50781 0.47656c0.17875 0.0275 10.022 1.8876 16.172 3.0488-0.64875 1.1462-1.0394 2.3409-0.98438 3.5059-1.41-0.65875-3.6416-1.3142-6.8828-1.2305-4.48 0.1175-18.211 2.851-22.832-1.9277-2.4412-2.5275-2.1113-4.1738-2.1113-4.1738s-0.60727 0.56797-0.97852 1.0117c-1.0438-3.1162-0.92007-7.3574 1.4199-10.107l0.38086-1.3555c-3.2338 2.64-7.8706 7.1984-3.1406 16.818 0 0 0.23961-0.79766 0.75586-1.6289 2.2688 4.2738 5.8204 5.88 9.6504 6.375-0.12125 0.0675-0.24875 0.13508-0.375 0.20508-0.485 0.25125-0.94945 0.49461-1.377 0.72461-6.1212 3.1512-15.401 6.8141-24.127 4.1641 0.435-1.9338 0.99672-4.1648 1.793-6.2598 1.5025-3.9538 3.8156-7.1388 6.0469-9.5488 0.1725-0.74625 0.38508-1.4998 0.64258-2.2598-7.2062 6.1925-14.028 16.341-18.074 23.875-0.31875 0.59125-0.60321 1.1503-0.87696 1.6953-0.9475 1.625-1.9193 3.3248-2.873 5.0586-3.585 6.515-7.0328 14.607-7.9141 16.213-1.05 1.9162-2.0138 3.6809-3.0176 5.2246-0.0588 0.0525-0.11313 0.1057-0.17188 0.1582-1.4238 1.7962-4.4513 5.0509-6.8926 7.5371 0.14125-2.1388-0.0312-3.7988-0.0312-3.7988s-0.17773 0.22711-0.17773 0.19336c-1.2112 3.4088-4.532 9.0489-8.877 9.3477-4.7675 0.33375-8.4806-3.437-8.5918-4.6133-0.065-0.715 1.178-2.733 1.293-2.9805 0.0175-0.0375 0.18766-0.0844 0.47266-0.14063 1.3062-0.11875 4.7837-0.30484 7.6699-1.4336 3.35-1.0775 4.9084-2.6468 5.1797-2.8106 0.27125-0.16375 1.9712-0.19343 2.8262 0.28907 0.255-0.4975 3.2003-5.7905 3.9453-8.1367 0.665-1.9225 5.3783-20.857 8.1133-34.23 0.75625-3.1825 1.9805-6.6658 3.043-7.1445 3.2212-0.755 8.2061-1.0384 8.4023-1.0996 0.28625-0.07875 0.51172-0.53906 0.51172-0.53906s-3.39-0.73531-7.5312-1.2891c0.165-0.4925-0.20273-1.2577-0.45898-2.0977 0 0 1.2625 0.73188 1.75-0.70312 0.545-1.6038 1.6338-4.3718 3.9238-7.4668 3.1275-4.2288 8.7883-6.7519 8.457-8.1406-0.002-0.0125-0.009-0.03063-0.0137-0.04687 2.5438 1.3438 5.1293 1.734 6.9668 1.8027-2.9662 2.065-5.957 4.1699-5.957 4.1699v0.36328s18.218-7.5482 21.918-7.8145c-0.23625 2.515-0.9411 4.4602-1.0274 4.7227-0.135 0.41 0.24219 0.08398 0.24219 0.08398 8.8162-11.674 2.1098-21.472 0.4336-23.588-0.0138-0.0225-0.036-0.05625-0.041-0.0625-0.0613-0.0925-0.12234-0.16-0.18359-0.21875-0.0837-0.095-0.12891-0.14844-0.12891-0.14844-0.015 0.0038-0.0173 0.02531-0.0273 0.03906-0.17875-0.1075-0.3825-0.15555-0.65625-0.2168-2.16-0.48-4.3668-1.0205-6.4043-1.5918-20.158-5.2688-29.783-11.569-38.891-19.027-7.8438-6.4238-12.543-13.779-14.654-17.559-0.0187-0.035 0.0528-0.1375 0.10156-0.125zm8.7363 7.9434c-0.0913-0.025-0.0947-0.01953-0.21094 0.16797 0.9375 2.0425 8.3735 8.4535 16.26 13.322 17.314 10.688 33.465 12.795 33.465 12.795-0.0625-0.19375-0.87578-1.5301-1.7383-2.8301 0.0412 0.0075 0.15805-0.01992 0.18555-0.01367 10.984 4.89 12.376 15.718 12.475 19.83l0.60938-0.58789c0.4175-7.6062-2.9034-23.538-16.225-29.256-5.9575-1.755-28.84-1.5865-44.82-13.428zm-28.711 13.635c9.3596-0.12252 17.766 3.2971 23.037 8.9277 6.3038 6.7312 10.534 11.013 13.598 13.893-0.47 0.7525-0.87601 1.5604-1.166 2.4629-0.49375 1.5225-0.90539 2.89-1.2441 4.0625-3.65 10.715-6.0784 25.352-8.7422 34.641-0.2025-0.985-0.32305-2.6175-0.24805-5.2813 0.3875-13.878 2.7803-21.162 4.1641-26.234 1.0362-3.8025-3.0526-12.155-9.1289-17.143-5.5663-4.5675-11.269-5.9629-15.766-6.3691-7.5575-0.6825-21.307 1.267-31.385 14.314l0.50781 0.10156s12.235-11.822 29.506-11.18c4.6062 0.17125 8.8135 1.5555 14.197 5.8867 4.6238 3.7212 8.4245 10.302 7.4707 13.988-2.1688 8.3962-5.6737 34.909-1.3262 44.324v0.01c0.001-0.001 0.002-0.004 0.002-0.004 0.01 0.0225 0.0781 0.20898 0.0781 0.20898l0.69532-1.9492c3.9962-10.186 6.3073-20.911 8.8223-28.867 1.135 2.1238 2.5527 4.248 2.5527 4.248 0.0262-0.0975 0.0827-0.17297 0.0977-0.23047-1.2038-5.1225-2.4755-14.136 4.3457-18.896 4.9288-3.4375 13.345-1.5453 13.855-0.60156 0.50875 0.945 0.71477 4.8933 0.75977 5.3008 0.0312 0.32125-4.5751 2.9633-7.4238 6.2695-2.9588 3.43-4.1035 7.3828-4.1035 7.3828s-1.2955 0.18922-3.543-0.80078c0.21625 0.91125 1.0936 2.5084 2.0273 4.0371-5.9712 11.694-12.909 24.426-16.641 34.256-0.27375 0.71875-3.8209-0.48914-4.2422-1.0879-0.0375-0.6475 0.18844-1.5171 0.64844-2.9434-1.1138-2.965-2.8691-7.512-5.1816-12.582-0.32625-0.86-0.76907-1.7154-1.2891-2.5566-1.84-3.4175-4.6645-7.7166-8.207-9.8203 6.4175-6.6775 7.5963-15.948 5.8613-24.742-0.61125-3.095-1.5312-5.2871-1.5312-5.2871l-0.25977 0.98047s1.2113 4.2927 0.58008 10.473c-1.0337 10.136-6.7369 18.234-18.641 21.346-6.25 1.6338-12.86 1.0983-18.322-1.4492-5.75-2.6825-10.26-7.5733-12.996-13.582-0.07625 0.03625-0.24609 0.18359-0.24609 0.18359s0.17312 0.82774 0.29688 1.209c0.9825 3.06 2.4744 5.9621 4.3906 8.5059-1.0275 1.345-3.0689 3.4173-6.4414 4.9961-4.4 2.0588-9.3544 2.4643-11.359 2.0918 1.1312-1.985 2.4414-4.2773 2.4414-4.2773l-0.30859-0.02148s-6.6605 1.4707-9.6855 1.5332c-3.2862-1.6338-7.7395-4.6119-12.596-11.141 0 0-0.16961-0.37312 0.24414-0.32812 0.34875 0.03625 18.102 4.869 31.336-8.666 0.32875 0.86375 0.64258 1.293 0.64258 1.293l0.20312-0.1543s-0.20742-3.9762 1.4551-10.982c0.77875-3.2788 2.3528-7.3316 4.7578-10.963 5.2987-8.0012 11.092-13.987 23.852-17.434 3.2506-0.87781 6.4778-1.3107 9.5977-1.3516zm49.104 18.664c1.8786 0.03984 3.2348 0.49867 3.3867 0.88867 0.0988 0.25625 0.21211 0.7925 0.31836 1.4062-3.0712-0.68-6.3436-0.58445-10.027 0.68555-1.1688 0.4025-2.2719 1.0008-3.2969 1.7383 0.2425-0.49875 0.525-0.91242 0.75-1.2012 0.67-0.72125 1.4396-1.3713 2.3496-1.8926 2.24-1.2856 4.6409-1.6648 6.5195-1.625zm0.27539 3.6816c3.0461 0.03383 5.2082 0.89531 5.4512 1.5234 0.3825 1 1.1427 3.0035 1.1289 3.416-0.007 0.2125-0.50328 0.67336-1.207 1.2246-5.1925-2.8788-12.606-1.9733-17.367 1.543 0.78875-2.8125 2.4625-5.452 5.7812-6.6445 2.2397-0.80484 4.3852-1.0828 6.2129-1.0625zm49.805 9.0957c-1.0802 0.04858-1.7793 0.25195-1.7793 0.25195l0.37891 0.38086s3.8267-0.16102 4.293 1.6777c-0.78125-0.01875-1.4684 0.20344-2.0059 0.52344-3.3188 1.9812-4.3459 6.7591-1.3984 10.727 3.185 4.285 10.694 5.0849 14.061 2.9824 0.88625-0.25875 3.3315-0.18523 4.9902 0.69727 1.7138 0.90625 4.2484 3.3927 4.6484 3.8164 0.0875 0.09125 0.40625 0.01172 0.40625 0.01172s-3.114-4.4714-3.8965-4.6914c-0.18625-0.0525-0.635-0.1782-1.2188-0.31445 1.8962-0.375 3.3144-1.7168 3.3144-1.7168s-0.0162-0.14164-0.1875-0.24414c0 0-1.4881 0.20617-4.8906-1.4551-2.565-1.2562-7.0252-7.3373-9.6289-9.9473-2.4297-2.432-5.2856-2.7802-7.0859-2.6992zm4.8125 4.6309c1.6062 0.79875 2.9181 1.6752 3.9844 2.5664-0.82-0.03125-1.6174 0.1807-2.2637 0.62695 0.12625 0.01875 0.24828 0.04383 0.36328 0.11133 0.55625 0.3125 0.72696 1.0696 0.37696 1.6934-0.35125 0.62125-1.0863 0.87234-1.6426 0.55859-0.19-0.1075-0.31391-0.27133-0.41016-0.45508-0.39375 1.5462 0.34196 3.292 1.9082 4.207 1.8662 1.0925 4.1886 0.59226 5.1836-1.1152 0.145-0.24875 0.24922-0.50719 0.32422-0.77344 0.65875 1.4062 0.76953 2.3691 0.76953 2.3691l0.006 0.12695c-2.4438 2.2012-7.274 1.7406-9.8027-0.79688-2.6425-2.6488-2.2211-6.5805 0.47265-8.6992 0.27625-0.2175 0.50922-0.34367 0.73047-0.41992zm26.607 28.994c-1.79 3.9462-5.8081 4.8213-7.7656 5.0488-0.73125 0.0837-1.972 0.13164-2.832-0.25586 5.3462-0.63625 7.7868-3.271 8.5918-4.3848 0.009-0.001 0.0166 0.001 0.0254 0 0.23875-0.0287 1.0355-0.16446 1.9805-0.40821zm-121.62 51.52c2.17 3.6188 7.2289 5.797 11.348 5.1582-1.0788 0.9825-2.1016 1.6957-2.4766 1.8144-0.9075 0.285-2.6448 0.005-3.5586-0.17969-4.1612-0.8375-7.0052-3.678-6.8789-4.3867 0.1275-0.705 0.59344-1.977 0.74219-2.207 0.065-0.1 0.38422-0.16171 0.82422-0.19921zm-0.42969 5.9023c1.7038 1.0775 3.7692 2.0284 5.6992 2.4434 0.81 0.175 1.5801 0.20109 2.3301 0.12109-0.615 0.61875-1.5463 1.0374-2.5488 0.9336-0.0275-0.004-0.02617 0.004-0.01367 0.0156-3.1625-0.29375-5.922-1.9321-5.832-2.4434 0.02875-0.16875 0.17524-0.57781 0.36524-1.0703z" transform="matrix(.8 0 0 -.8 239.18 340.77)" fill="#0033a0"/><path d="m410.23 229.76v11.717s-0.463 0.621-1.435 1.248c-0.975 0.628-2.315 1.486-5.726 1.486-1.356 0-4.098-0.149-4.098-0.149l-69.999-0.012 1.635-3.254-0.942-2.213c-0.334 3.636-3.945 5.483-7.177 5.609-0.361 0.013-0.704 0.031-1.015 0.031-0.084 0-0.168-0.001-0.252-0.001h-25.533c-0.169 0.038-0.823 0.161-1.358 0.246-4.773 0.765-7.722-0.01-9.962-1.417-2.339-1.471-3.637-3.856-3.637-3.856s-1.219 3.467-1.375 4.012c-0.082 0.285-0.123 0.429-0.205 0.715h-0.029v0.023h-25.551s3.835-8.065 3.835-9.141c0-3.506-0.028-7.175-0.028-9.436s-5.184-3.09-5.184-3.09l-1.584-10.987s7.722 1.919 8.789 2.203c1.067 0.281 1.925 0.674 2.95 1.287 0.664 0.397 1.283 0.831 1.844 1.291 1.059 0.287 1.589 0.427 2.649 0.702 1.741 0.451 3.762 0.898 5.513 1.315 1.682 0.391 3.365 0.773 5.053 1.144 1.709 0.371 3.421 0.72 5.137 1.055 1.251 0.24 2.505 0.469 3.759 0.69 0.136 0.024 2.369 0.456 4.763 0.839 2.654 0.423 5.51 0.804 6.039 0.877 2.157 0.284 4.315 0.548 6.478 0.791 1.4 0.154 2.801 0.295 4.204 0.425 0.693 0.065 1.041 0.095 1.733 0.154 1.05 0.09 1.574 0.131 2.624 0.21 0.606 0.045 0.908 0.067 1.514 0.108 1.198 0.083 1.798 0.121 2.997 0.187 1.5 0.087 2.252 0.123 3.753 0.187 1.249 0.051 1.872 0.074 3.119 0.109 0.794 0.024 1.191 0.033 1.985 0.051 1.234 0.025 3.273 0.047 3.398 0.047 1.663 0.008 3.325 0.004 4.987-0.009 0.23-0.003 0.346-0.006 0.574-0.01 1.526-0.022 3.052-0.058 4.577-0.108 0.544-0.017 0.816-0.028 1.36-0.048 1.508-0.058 2.263-0.093 3.771-0.173 1.709-0.106 3.415-0.221 5.121-0.348 0.835-0.066 1.252-0.102 2.088-0.173-0.013 0.014 0.95-0.048 1.604-0.105 0.718-0.065 1.075-0.098 1.79-0.167 1.699-0.169 3.396-0.35 5.093-0.541 2.493-0.292 4.981-0.618 7.464-0.984 0.351-0.051 1.593-0.239 1.685-0.253 0.513-0.079 0.852-0.131 1.438-0.226 1.409-0.223 2.814-0.46 4.218-0.708 1.89-0.333 3.777-0.691 5.661-1.068 0.147-0.028 0.222-0.044 0.37-0.074 1.405-0.283 3.253-0.579 4.653-0.884 0.193-0.044 0.29-0.064 0.484-0.107 2.191-0.492 4.374-1.003 6.555-1.539 1.682-0.423 3.807-0.859 5.484-1.304 0.193-0.052 0.289-0.079 0.484-0.13 0.174-0.088 0.342-0.166 0.492-0.235 0.03-0.017 0.047-0.024 0.078-0.039 0.902-0.436 1.783-0.819 2.546-1.004 2.417-0.595 5.924-0.853 7.689 1.438 1.642 2.13 2.001 4.788 2.192 7.421 0.002 0.027 0.002 0.041 0.002 0.07 0.001 0.014 0.002 0.021 0.002 0.033v0.032 0.071c0.008 1.875-0.51 4.211-1.143 5.969" fill="#fff"/><path d="m116.78 122.63 0.33789 0.84765 0.61719 1.5332c0.0937 0.23625 0.13085 0.41265 0.13085 0.6289 0 0.29-0.10476 0.68008-0.35351 1.2988-1.3488 3.4038-2.698 6.812-4.043 10.189-0.365 0.88-0.66703 1.4096-1.1758 2.0059-0.79625-0.80875-1.3987-1.4861-1.8887-2.1211-0.67-0.865-1.2553-1.7213-1.7891-2.6113l-0.33789-0.58984-0.21875-0.37891-0.38086-0.64258c1.4038-0.8275 2.2225-2.063 2.5-3.7617 0.0563-0.3475 0.0639-0.64523 0.0664-1.0215-0.001-1.885-0.93281-3.3794-2.6953-4.3281-1.5138-0.805-3.2463-0.96382-4.1426-0.98632-0.32125-0.008-0.67578-0.0137-1.0195-0.0137h-0.14063c-2.6487 0.0213-5.3344 0.0462-7.9844 0.0762l-1.8965 0.0215-0.15039 0.002-2.2832 0.0332c-1.9138 0.03-3.8266 0.0587-5.7578 0.0937l-0.59766 0.0273-0.81445 0.0391v0.004l-0.97266 0.0176-2.1641 0.043c-1.005 0.02-1.9255 0.0298-2.8418 0.041-1.0712 0.0112-2.1329 0.022-3.3066 0.0508l-1.8945 0.0449-1.0469 0.0234 0.22852 0.38477-0.49609-0.0879-0.91797-0.16602-0.1543-0.0293-0.30859-0.0527-0.71094-0.10547-0.12109-0.0156-0.14453-0.0234-0.09766-0.0117c-0.40375-0.0563-0.78742-0.10953-1.2012-0.14453-0.7075-0.0637-1.2923-0.0918-1.8398-0.0918-0.115 0-0.22508 0.00071-0.33008 0.002-6.205 0.1425-10.673 4.5088-11.379 11.125-0.05375 0.5175-0.08219 1.0623-0.08594 1.6211v0.11914c0 2.0038 0.41 4.0116 1.1562 5.6504 1.5512 3.415 4.7272 5.3752 8.7109 5.3789 0.63875 0 1.2941-0.0538 1.9453-0.15625 0.3325-0.0488 0.7725-0.11508 1.2188-0.20508 1.2288-0.2425 2.4302-0.59117 3.5664-1.0449l0.10742-0.043 1.2012-0.13867 2.4414-0.28125c2.2788-0.2625 4.5834-0.50782 6.8496-0.72657l1.9922-0.1914 1.0996-0.10742-0.66992-0.87696-1.2109-1.5918c-0.38625-0.5075-0.55227-0.98032-0.63477-1.8203-0.01-0.0913-0.01563-0.1989-0.01563-0.3789l0.0059-0.58594c1.055 2.2612 2.6228 5.0273 5.3828 5.0273 0.20125 0 0.40609-0.0153 0.55859-0.0391l0.73633-0.0566 0.47852-0.0371c1.17-0.0875 1.7915-0.13133 2.8965-0.20508l1.6211-0.10742 1.5391-0.0879c2.3175-0.13375 4.6923-0.24914 7.0586-0.33789l2.377-0.0879 1.3106-0.0527-0.87891-0.97461-1.5898-1.7656c-0.5675-0.6325-0.65875-0.89844-0.65625-1.9297v-0.35937c0.2325 0.3875 0.45305 0.74625 0.6543 1.0625 1.0088 1.605 1.6354 2.4433 2.2441 2.9883 0.92375 0.8225 1.7573 0.93766 2.5273 0.9414h0.0918 0.0586 0.006l0.82422-0.0195c1.2675-0.0213 2.0126-0.031 3.1113-0.041l2.0547-0.0137 0.51954-0.002c0.51875-0.001 1.0366-0.004 1.5566-0.004 1.0925 0 2.2051 0.003 3.2988 0.0156l2.0078 0.0195 1.002 0.01 0.24414 0.006 1.9922 0.0527c2.3312 0.0625 4.7235 0.14414 7.0723 0.27539l2.3027 0.1211c2.8375 0.14875 5.7532 0.33929 8.6582 0.56054 0.1125 0.009 0.225 0.0117 0.34375 0.0117 0.0725 0 0.14695-0.003 0.2207-0.004l0.0664-0.002 0.12891-0.004c3.075-0.065 6.5867-1.4141 7.2305-4.9941 0.0725-0.39875 0.10546-0.78586 0.10546-1.2246-0.005-1.7875-0.84312-3.4163-2.3281-4.5801 0.82-0.66625 1.373-1.5434 1.6543-2.6172 0.1325-0.5125 0.19726-1.0301 0.19726-1.6426-0.0288-3.4425-2.9796-5.4376-5.7246-5.5664l-0.89648-0.0645-0.0488-0.002h-0.0195l-0.18359-0.002-0.1836-0.002c-2.9625-0.0487-5.972-0.0913-8.9394-0.125l-1.957-0.0195-1.084-0.0117 0.54492 0.9336 0.98633 1.6953c0.44625 0.76375 0.5661 1.1443 0.6211 1.9668l0.008 0.0645 0.004 0.0234c0.0113 0.0863 0.0117 0.19125 0.0117 0.3125l0.0371 5.3066 0.0371 5.1992c0.001 0.6525-0.0749 1.0394-0.32617 1.4394-0.54375-0.66625-0.84961-1.2436-1.1934-2.2148-1.5612-4.3275-3.1812-8.7876-4.9512-13.643l-0.26758-0.72852-0.14453-0.40039-0.42773-0.004-0.77344-0.002c-1.7375-0.01-3.4722-0.0158-5.2109-0.0195l-1.6504-0.006-0.9082-0.004zm31.234 0.33789 0.51172 0.93554 0.92969 1.6777c0.46625 0.8475 0.5943 1.2704 0.6543 2.1816l0.006 0.0527 0.004 0.0195c0.0138 0.10625 0.0144 0.21954 0.0156 0.36329l0.0371 3.7031 0.0723 7.3574v0.0859c0.001 0.97375-0.14117 1.3953-0.70117 2.0391l-1.3926 1.6035-0.7793 0.89648 1.1777 0.11914 2.125 0.2168c2.8725 0.29375 5.7866 0.62437 8.6504 0.98437 0.24625 0.0337 0.475 0.0352 0.65625 0.0352l0.11719 0.002 0.20312 0.004h0.002c1.1188 0 2.7659-0.18414 4.2734-1.0566 1.555-0.9 2.5247-2.2999 2.8047-4.0449 0.065-0.41 0.0977-0.82953 0.0977-1.2695-0.004-1.9188-0.91141-3.7367-2.4727-5.0117 0.91-0.70375 1.5005-1.6535 1.793-2.8848 0.1275-0.52375 0.1875-1.0676 0.1875-1.7051-0.02-3.1688-2.4735-5.7211-5.6973-5.9336l-0.77929-0.0645-0.0859-0.01-0.0937-0.004h-0.0215l-0.18554-0.008-0.17774-0.004c-2.855-0.075-5.867-0.1486-8.9394-0.21485l-1.9258-0.043-1.0664-0.0234zm-65.18 0.21875 0.19141 0.55859c0.0012 0.004 0.13258 0.39766 0.14258 0.84766 0.0037 0.2425-0.11156 0.9689-1.2891 2.5039-0.3575 0.4675-0.70984 0.93328-1.0586 1.3945v-0.3789c0.0075-1.2925 0.02227-1.8538 0.29102-2.4062l1.1992-1.752 0.52344-0.76757zm82.449 0.26757 0.69141 0.97852 1.25 1.7559c0.6025 0.8475 0.74977 1.4098 0.75977 2.8535l0.0215 3.0742 0.0586 9.2148 0.002 0.1289c0 1.1812-0.14102 1.7571-0.63477 2.5684l-0.86133 1.4141-0.47851 0.78711 0.9082 0.14062 1.6465 0.25391c2.065 0.315 4.2441 0.67148 6.4766 1.0527l2.1738 0.375 1.2012 0.20703-0.54883-1.0898-0.98828-1.9629c-0.575-1.1388-0.71-1.7377-0.71875-3.2227l-0.10547-12.678v-0.0762c-0.001-1.2238 0.245-2.0734 0.875-3.0371l0.57031-0.875-0.8125 4.5684-0.35742 2.0976-0.20313 1.207 1.0918-0.55859c0.02-0.0113 2.053-1.0474 3.4668-1.2324 0.82375-0.11 1.6138-0.16992 2.2188-0.16992 0.0425 0 0.0784 0.0007 0.11719 0.002-0.0163 2.925-0.043 8.9522-0.043 12.242 0.002 1.5362-0.17688 1.7538-0.76563 2.4863l-1.1582 1.4414-0.56836 0.70703 0.86719 0.26758 1.8105 0.55273 0.0293 0.01 0.0332 0.006c2.3225 0.44875 4.655 0.92141 6.9375 1.4102l2.3438 0.5 1.2949 0.27539-0.62305-1.1699-1.1309-2.1113c-0.68875-1.2862-0.92289-2.2165-0.93164-3.6777l-0.0293-4.3848-0.0254-4.5996-0.0215-3.4844v-0.11133c0.45125 0.055 0.98289 0.13797 1.5254 0.26172 1.3325 0.29375 2.0166 0.63969 2.0391 0.64844l1.3555 0.71484 0.50586 0.26563c0.0288 0.72 0.10367 1.4466 0.32617 2.2266 0.6775 2.3338 3.5238 5.1202 6.375 7.7715l0.35352 0.33203 0.0937 0.0879c0.85125 0.79125 0.94593 1.4749 0.99218 2.3887-0.001 0.26-0.0832 0.44781-0.1582 0.53906-0.03 0.035-0.10516 0.12891-0.37891 0.12891-0.1125 0-0.23546-0.0148-0.35546-0.041-0.55625-0.12125-1.3009-0.47937-2.0996-1.0156-0.99375-0.66375-2.1884-1.7207-3.1172-2.752-0.6125-0.68125-1.6424-2.007-1.6524-2.0195l-0.33789-0.43554-0.4707 0.28906-0.12305 0.0762-0.33789 0.20703 0.0488 0.38867c0.0325 0.2725 0.81 6.7077 1.0938 8.5664l0.0215 0.14648 0.082 0.55469 0.0488 0.3086 0.2754 0.14453 0.49414 0.26172 0.13476 0.0703 0.15625 0.084 0.26563 0.14063 0.20898 0.11133c0.3425 0.18 0.67703 0.32781 1.0195 0.47656l0.10938 0.0469c1.0438 0.4775 2.0201 0.83063 2.8926 1.0469 0.765 0.21 1.5184 0.31836 2.2422 0.31836 4.2338 0 7.126-3.5173 7.1973-8.7598v-0.17383c-0.002-4.52-2.0945-7.3294-5.2383-10.158l-0.0762-0.0664-0.44141-0.39257c-1.0438-0.93125-1.4749-1.3149-1.8574-2.0137-0.13875-0.25625-0.2136-0.51343-0.21485-0.74218 0-0.16875 0.0447-0.23946 0.0547-0.25196 0.002 0 0.0278-0.0115 0.10156-0.0215 0.62875 0.0662 1.2307 0.24523 1.752 0.52148 0.49125 0.26 1.2041 0.74282 1.7266 1.3203 0.5425 0.6025 1.4073 1.7485 1.416 1.7598l0.2871 0.38086 0.44336-0.18555 0.0996-0.043 0.375-0.15821v-0.41015l-0.004-7.9688v-0.38477l-0.34375-0.16797-0.63086-0.30469c-0.145-0.07-0.27844-0.12546-0.39844-0.16796-1.4275-0.6625-2.6894-1.0069-3.9707-1.0781-0.17-0.01-0.33836-0.0137-0.50586-0.0137-2.965 0.002-5.4056 1.4294-6.7793 3.7031l0.4082-2.3359 0.22461-1.2949 0.125-0.71289-0.72461-0.006-1.3125-0.0117-17.119-0.14063-0.66601-0.008 0.0527-0.084-1.1211-0.01-2.0312-0.0215c-2.2712-0.0237-4.6043-0.0397-6.9356-0.0547l-2.1641-0.01-1.1973-0.01zm-94.508 0.14844 0.29102 0.4961 0.96289 1.6328c0.47875 0.815 0.61133 1.3382 0.61133 2.4394v0.10547l-0.07813 7.5391-0.01563 1.5898-0.23633-0.16407-0.34375 0.20899c-0.0225 0.0163-2.2839 1.4075-4.2227 2.0938-0.77625 0.27375-1.4231 0.44187-1.9844 0.51562-0.2125 0.0312-0.41914 0.0449-0.61914 0.0449-1.4738 0-2.3817-0.78196-2.8867-1.4395-0.7525-0.98125-1.168-2.3562-1.168-3.875l0.002-0.13281c0.0025-0.0737 0.0055-0.15414 0.01172-0.24414 0.0063-0.0975 0.0087-0.19734 0.01367-0.30859l0.002-0.0801c0.06625-2.06 1.1321-5.3645 3.6934-5.4707h0.14648c0.685 0 1.4245 0.18899 2.2383 0.58399 0.6325 0.30875 1.053 0.55328 1.293 0.70703 0.62 0.3975 1.1617 0.80875 1.168 0.8125l0.38672 0.29883 0.37695-0.3125 0.125-0.10352 0.22266-0.18359v-0.28906l0.0098-5.9688v-0.4961zm-22.286 0.32-0.486 0.01l-0.88086 0.0156c-1.7362 0.025-3.4734 0.0593-5.2109 0.0918l-1.4336 0.0273-0.79297 0.0156 0.21289 0.76367 0.38281 1.3828c0.11125 0.40499 0.16211 0.75062 0.16211 1.1094v0.0625l-0.002 0.0606c-0.01375 0.53-0.14734 1.1538-0.46484 2.1562-0.98 3.1325-1.8247 6.3826-2.6484 9.5664-0.445 1.7125-0.9043 3.485-1.373 5.1875-0.49875 1.7575-0.91906 2.7434-1.7891 4.2246l-1.3008 2.209-0.71875 1.2207 1.3809-0.30859 2.502-0.55664c1.7125-0.38 3.5227-0.7711 5.3789-1.1524l1.416-0.29492 0.7832-0.16016-0.0059-0.0117 0.83203-0.15626 2.1367-0.40429c2.3812-0.45 4.8887-0.90266 7.4512-1.3477l1.9199-0.33398 1.0586-0.1836-0.69531-0.82031-1.2617-1.4824c-0.72125-0.85-1.0587-1.5239-1.4512-2.8789-0.38375-1.3112-0.77258-2.622-1.1738-3.9707-1.2325-4.1612-2.5036-8.458-3.5898-12.717l-0.21875-0.85351-0.11914-0.46875zm70.85 0.43554c1.735 0.004 3.4706 0.0115 5.2031 0.0215 1.6562 4.5438 3.306 9.0848 4.9473 13.635 0.47125 1.32 0.93055 2.1124 1.8106 3.1074-2.4938-0.105-4.9874-0.18766-7.4824-0.25391 0.37875-0.58 0.61133-1.3104 0.61133-1.8691 0-0.0875-0.007-0.1732-0.0195-0.25195-0.0662-0.42125-0.14578-0.66782-0.23828-1.0391-0.0362-0.19-0.0529-0.28617-0.0879-0.48242-0.0112-0.0562-0.0168-0.0859-0.0293-0.14844l-0.0137-0.0742-0.0762-0.002c-0.0612 0-0.0918 0.001-0.1543 0-2.0212-0.0413-3.0327-0.0534-5.0527-0.0684-0.055-0.001-0.0817-0.002-0.13672-0.002h-0.0684l-0.0195 0.0644c-0.0162 0.05-0.0267 0.0738-0.043 0.125-0.0613 0.195-0.0945 0.29078-0.15821 0.48828-0.0225 0.0763-0.0322 0.11055-0.0547 0.18555-0.035 0.125-0.0509 0.1882-0.0859 0.31445-0.115 0.39-0.16992 0.74352-0.16992 1.0723v0.004c0 0.5175 0.15648 0.9975 0.52148 1.5938-1.1062-0.009-2.2114-0.0137-3.3164-0.0137-0.695 0-1.3902 0.002-2.084 0.008 0.92375-0.975 1.3995-1.719 1.9258-2.9902 1.3538-3.405 2.7059-6.8098 4.0547-10.215 0.33375-0.83875 0.47266-1.403 0.47266-1.9356l0.002-0.006c-0.001-0.40625-0.0703-0.80008-0.25781-1.2676zm-17.076 0.0391h0.12695c0.3275 0 0.67031 0.008 0.97656 0.0156 1.0438 0.025 2.3436 0.23445 3.3711 0.7832 1.0288 0.55251 1.7807 1.4222 1.7832 2.8047v0.0391c-0.002 0.25375-0.009 0.47507-0.0449 0.70507-0.22875 1.3988-0.91477 2.2959-2.3535 2.8809-0.1675 0.07-0.25101 0.10438-0.41602 0.17188-0.0738 0.0263-0.1114 0.0396-0.1914 0.0684-0.0837 0.0312-0.12789 0.0424-0.21289 0.0762l-0.10742 0.0371 0.0586 0.0976c0.045 0.075 0.0676 0.11055 0.11133 0.18555 0.485 0.8175 0.72594 1.2299 1.2109 2.0449 0.2175 0.38 0.32812 0.56672 0.54687 0.94922 0.51125 0.85375 1.1335 1.7941 1.916 2.8066 0.6125 0.78875 1.3352 1.5745 2.1602 2.4082l0.002 0.004c0.13125 0.1225 0.20835 0.19774 0.31835 0.30274-1.3688 0.01-2.1284 0.0206-3.5684 0.0469-0.33 0.006-0.49688 0.009-0.82813 0.0156-0.0413 0-0.0816 0.004-0.11914 0.004-0.53625-0.002-0.89945-0.0816-1.377-0.50781-0.4775-0.42625-1.0516-1.2133-1.9316-2.6133-1.12-1.7825-2.1536-3.5893-2.8086-5.6543 0.035-0.004 0.0709-0.008 0.11719-0.0156-0.005 0.002-0.001 0.004 0.004 0.004 0.19625-0.005 0.41953-0.043 0.61328-0.0918 0.78125-0.1975 1.3795-0.47297 1.7695-0.91797 0.48375-0.5525 0.74242-1.0477 0.82617-1.5352 0.002-0.03 0.005-0.0467 0.008-0.0742 0.0213-0.16375 0.043-0.32328 0.043-0.48828v-0.004-0.004c0.002-0.71625-0.23312-1.2723-0.73437-1.6348-0.5-0.35875-1.2463-0.52414-2.2676-0.52539h-0.1211c-0.16374 0.001-1.1602 0.0137-1.1602 0.0137l-0.0918 0.002-0.002 0.0918v0.23047l-0.04102 10.812v0.0508c-0.005 1.3888 0.23532 2.0778 1.1016 3.0391-2.365 0.09-4.7307 0.20484-7.0957 0.33984 0.93875-1.0788 1.2495-1.8923 1.252-3.2285 0.0175-3.4937 0.03328-6.9853 0.05078-10.477v-0.0781c0.0025-1.36-0.20055-2.093-0.87305-3.1055 2.6588-0.0312 5.3198-0.0549 7.9785-0.0762zm-65.547 0.0332-1.0742 0.008-1.9453 0.0117c-2.2438 0.0112-7.1816 0.0508-7.1816 0.0508l-2.0254 0.0176-1.1172 0.008 0.60547 0.93946 1.0996 1.6973c0.88125 1.365 1.1223 2.2212 1.1211 4v0.0566 0.008l-0.02539 6.9805-0.02344 6.748c-0.04375 1.2325-0.05258 1.4873-0.64258 2.6211-0.73625 1.4212-2.172 2.3243-4.5195 2.8418l-0.73047 0.16211-0.40234 0.0859-0.07031 0.4082-0.12695 0.73242-0.42188 2.4258-0.05859 0.33008-0.29492 1.7012-0.16211 0.94141 0.92383-0.24023 1.6719-0.4375c0.435-0.11375 1.1855-0.30828 1.9492-0.51954 1.0612-0.28874 1.7999-0.50562 2.2637-0.67187 1.5612-0.54375 2.7253-1.2002 3.3516-1.5527 3.5362-1.9938 5.4106-5.0474 5.4219-8.7949l0.01172-0.48047 0.0078-0.4375 0.06445-13.248c0.0012-0.2475 0.0065-0.43727 0.02148-0.60352 0.115-1.4262 0.26297-2.2683 0.79297-3.1758l0.97656-1.6816 0.53906-0.93164zm96.693 0.0293c2.9775 0.0325 5.9554 0.0762 8.9316 0.125 0.14625 0.002 0.21898 0.001 0.36523 0.004 0.34875 0.025 0.52446 0.0382 0.87696 0.0645 2.0825 0.0875 4.094 1.503 4.1152 3.8555v0.0449c0 0.415-0.0527 0.79359-0.14648 1.1523-0.3925 1.5088-1.4587 2.2989-3.7324 2.7852-0.14125 0.03-0.54563 0.0937-0.54688 0.0937l-0.0898 0.0137 0.0293 0.21094 0.008 0.0703 0.0703 0.01s0.52984 0.0729 0.77734 0.11914c1.9725 0.37001 4.098 1.9488 4.1055 4.3301v0.0254c0 0.34-0.0319 0.62868-0.0781 0.88868-0.47875 2.6638-3.2978 3.5248-5.5703 3.5723-0.125 0.004-0.2539 0.0137-0.3789 0.0137-0.0713 0-0.14094-0.005-0.21094-0.0117-2.8962-0.2225-5.7948-0.40875-8.6973-0.5625 0.84125-0.95 1.1307-1.757 1.127-3.0644v-0.0488c-0.025-3.4888-0.0512-6.9766-0.0762-10.463-0.001-0.17125 0.00015-0.35351-0.0273-0.54101-0.0713-1.0512-0.26406-1.6812-0.85156-2.6875zm-41.176 0.0469 0.61133 0.92188c0.4825 0.72875 0.58719 1.1123 0.58594 2.166v0.0664l-0.02734 5.1914-0.02539 5.2754c-0.0012 0.925-0.16367 1.3378-0.82617 2.1016l-0.34375 0.39258-0.3418-0.32032c-1.255-1.1825-2.3728-2.531-3.3203-4.0098-0.50375-0.78375-0.90992-1.45-2.2949-4.0938l-0.14258-0.26758c1.6362-2.025 3.3758-4.1403 5.1758-6.2891l0.94922-1.1348zm-2.2715 0.0234c-1.9538 2.33-3.8848 4.6822-5.791 7.0547-0.03375 0.0387-0.04899 0.0596-0.08398 0.0996l-0.03711 0.0488 0.0293 0.0547c0.02125 0.0438 0.03164 0.067 0.05664 0.11328 0.23375 0.445 0.35484 0.66367 0.58984 1.1074 1.4175 2.705 1.8352 3.3918 2.3652 4.2168 1.01 1.5738 2.2305 3.0527 3.5918 4.334-1.1125 0.0738-1.7346 0.11757-2.9121 0.20507-0.50375 0.0375-0.75992 0.057-1.2637 0.0957h-0.0039l-0.0039 0.002c-0.12625 0.02-0.25055 0.0312-0.37305 0.0312-2.3675 0.0263-3.7684-4.0672-4.6621-5.8672-0.53375-1.0575-1.0523-2.1551-1.5723-3.4238 1.1112-1.4963 2.2327-2.9836 3.3652-4.4648 0.4075-0.53375 0.91594-1.3668 1.3359-2.0293 0.395-0.625 0.32031-1.3375 0.25781-1.5 1.9125-0.0312 3.1988-0.0494 5.1113-0.0781zm-25.188 0.043c0.4825 0 1.0182 0.0252 1.6895 0.084 0.42125 0.0375 0.82445 0.093 1.252 0.1543 0.06125 0.009 0.08969 0.012 0.14844 0.0195 0.31 0.0475 0.46539 0.0727 0.77539 0.11523 0.1625 0.0288 0.25609 0.0473 0.40234 0.0723-0.0125 1.2625-0.01609 1.9452-0.02734 3.1777-0.03-0.02-0.06156-0.0423-0.10156-0.0723-0.085-0.06-0.12734-0.0916-0.21484-0.15039-0.0037-0.002-0.0066-0.003-0.0078-0.006l-0.0078-0.004-0.01172-0.006s-0.0012-0.002-0.01367-0.01c-0.11625-0.0562-0.23883-0.12071-0.36133-0.18946-0.12625-0.0675-0.25672-0.13617-0.38672-0.20117-1.0062-0.49-2.0017-0.74218-2.9492-0.74218-0.07 0-0.13828 0.003-0.20703 0.004-3.5275 0.1475-5.2588 3.9794-5.3613 7.1406-0.0025 0.1225-0.0074 0.23875-0.01367 0.34375-0.0063 0.11-0.01438 0.21961-0.01563 0.31836-0.0012 0.0538 0 0.10765 0 0.16015 0 1.8788 0.53219 3.6352 1.5234 4.9277 0.99125 1.2912 2.4435 2.1133 4.2598 2.1133 0.27375 0 0.5557-0.0204 0.8457-0.0566h0.002c0.73625-0.0975 1.536-0.29758 2.3535-0.61133 0.85375-0.325 1.5845-0.73227 2.252-1.2598-0.62625 1.4362-0.98945 2.2752-1.6582 3.834-1.0862 0.4325-2.1962 0.74773-3.2637 0.95898-0.38125 0.0737-0.76531 0.135-1.1328 0.1875-0.56875 0.0888-1.1366 0.13477-1.6953 0.13477-2.9975-0.002-5.7556-1.3145-7.1406-4.3633-0.625-1.3738-1.002-3.098-1.002-4.9356v-0.10937c0.0037-0.48125 0.02813-0.97047 0.07813-1.4492 0.59625-5.6088 4.288-9.4537 9.6992-9.5762 0.095-0.004 0.19226-0.004 0.29102-0.004zm86.196 0.17c2.9775 0.0625 5.9559 0.1368 8.9297 0.2168 0.14625 0.002 0.22024 0.005 0.36524 0.008 0.34875 0.03 0.5257 0.0449 0.87695 0.0762 2.2262 0.1375 4.1066 1.816 4.1191 4.2285v0.0391c0 0.455-0.0481 0.87172-0.14062 1.2617-0.39 1.6388-1.4532 2.468-3.7207 2.9356-0.22375 0.0462-0.54296 0.0859-0.54296 0.0859l-0.0957 0.0117 0.0508 0.29883 0.0684 0.01s0.51993 0.0714 0.76367 0.1289c2.1225 0.50125 4.1063 2.3512 4.1113 4.8262v0.0176c0 0.365-0.0312 0.69407-0.0762 0.97657-0.42875 2.68-3.035 3.6511-5.375 3.6523-0.0563 0-0.11242-0.0007-0.16992-0.002-0.19375-0.004-0.39719-0.00094-0.58594-0.0234-2.895-0.36375-5.796-0.69594-8.6973-0.99219 0.8375-0.96125 1.1275-1.798 1.125-3.168v-0.082c-0.0375-3.6925-0.0738-7.3837-0.11133-11.076-0.001-0.18125-0.002-0.37351-0.0312-0.57226-0.0713-1.1162-0.26828-1.7837-0.86328-2.8574zm-71.305 0.0117c-0.45875 0.77375-0.55961 1.788-0.56836 3.3418-0.02875 3.6888-0.05719 7.3764-0.08594 11.066v0.0664c0 0.16375 0.0059 0.33375 0.02344 0.5 0.10375 1.0762 0.35477 1.8748 0.97852 2.6973-2.2975 0.22-4.591 0.46226-6.8848 0.72851 0.70125-1.0212 0.97516-1.8596 1.0977-2.9746 0.02-0.1875 0.02609-0.38531 0.02734-0.57031 0.04-3.7762 0.07773-7.5499 0.11523-11.326 0.0012-0.0425 0.002-0.083 0.002-0.12305 0.0012-1.4038-0.20961-2.2314-0.84961-3.3164 2.1788-0.0525 3.9658-0.0461 6.1445-0.0898zm88.973 0.43164c2.31 0.0137 4.6191 0.0309 6.9316 0.0547-0.81375 1.2425-1.1582 2.4173-1.1582 3.9785 0 0.03 0.003 0.0605 0.004 0.0918 0.0325 4.2238 0.0659 8.4495 0.0996 12.676 0.0138 1.7325 0.2068 2.6012 0.9043 3.9824-2.1662-0.37125-4.3353-0.72485-6.5078-1.0586 0.665-1.0925 0.88602-1.9704 0.88477-3.4629v-0.14062c-0.0263-4.095-0.0538-8.1896-0.0801-12.287-0.0125-1.6625-0.21312-2.614-1.0781-3.834zm10.695 0.17969 17.119 0.14258-0.95313 5.459s-0.8289-0.44945-2.4726-0.81445c-1.8862-0.41875-3.6426-0.42578-3.6426-0.42578 0.001 0.005 0.0164 2.4609 0.0352 5.4609 0.0187 3.0012 0.0397 6.5999 0.0547 8.9824 0.01 1.745 0.31422 2.9481 1.1367 4.4844-2.3225-0.49625-4.6452-0.97047-6.9726-1.418 0.8975-1.1138 1.1561-1.9536 1.1523-3.7773 0-4.4775 0.0527-13.914 0.0527-13.914s-2.1353-0.2693-3.7578-0.0606c-1.6225 0.21-2.6074 0.67969-2.6074 0.67969l0.85547-4.7988zm-132.18 0.30273c1.4362 5.6262 3.153 11.182 4.7793 16.746 0.45625 1.5738 0.90992 2.4673 1.7949 3.5098-2.495 0.4325-4.9878 0.88352-7.4766 1.3535 0.3875-0.82 0.64648-1.7896 0.64648-2.5371 0-0.12375-0.0072-0.23961-0.02344-0.34961-0.075-0.54375-0.13641-0.83023-0.22266-1.3027-0.03375-0.23875-0.04898-0.36368-0.08398-0.60743-0.0087-0.0762-0.01539-0.11515-0.02539-0.1914l-0.01172-0.0918-0.09375 0.0137c-0.0625 0.009-0.09375 0.0147-0.15625 0.0234-2.0062 0.315-3.0119 0.4782-5.0156 0.81445-0.055 0.007-0.08297 0.0147-0.13672 0.0234l-0.06055 0.008-0.01367 0.0605c-0.0175 0.0738-0.02547 0.10844-0.04297 0.17969-0.065 0.2775-0.09711 0.41836-0.16211 0.69336-0.05875 0.28375-0.08828 0.42383-0.14453 0.70508-0.11625 0.55-0.17524 1.038-0.17774 1.4805-0.0012 0.01 0 0.0213 0 0.0312 0 0.71125 0.15516 1.3206 0.53516 2.0781-1.805 0.37375-3.6062 0.76141-5.4062 1.1602 0.9475-1.6088 1.4229-2.7352 1.9629-4.6289 1.3412-4.87 2.5016-9.9009 4.0078-14.711 0.365-1.1588 0.52492-1.9162 0.54492-2.625 0.0012-0.0563 0.002-0.11117 0.002-0.16992 0-0.49625-0.06211-0.98406-0.22461-1.5703 1.735-0.035 3.4701-0.0657 5.2051-0.0957zm157.38 0.50196c0.1325 0 0.26805 0.002 0.4043 0.008 1.0325 0.06 2.1284 0.34789 3.4297 0.96289 0.009 0.004 0.0117 0.004 0.0117 0.004l0.006 0.004 0.006 0.002c0.004 0 0.006 0.003 0.01 0.004 0.0812 0.0237 0.16836 0.0591 0.25586 0.10156 0.004 1.8125 0.005 2.7766 0.008 4.5254-0.56375-0.64625-1.1727-1.1067-1.8164-1.4492-0.72125-0.38125-1.5901-0.64766-2.5488-0.72266h-0.01-0.008-0.004-0.01c-0.50375 0.035-0.80907 0.14438-1.1016 0.35938-0.4775 0.3475-0.76492 0.93398-0.76367 1.6465v0.01c0.002 0.52875 0.15828 1.0705 0.42578 1.5605 0.60125 1.1 1.3069 1.6472 2.7344 2.9297 2.8812 2.5912 4.6674 4.9823 4.6699 8.8711 0 0.055-0.002 0.10961-0.002 0.16211-0.0562 3.9538-2.0432 7.0423-5.4707 7.041-0.56375 0-1.1659-0.0828-1.8047-0.25781-0.79875-0.2-1.677-0.52102-2.6133-0.94727-0.0525-0.0237-0.0784-0.0368-0.13086-0.0605-0.305-0.1325-0.61578-0.26703-0.92578-0.42578-0.17875-0.0962-0.26992-0.14789-0.45117-0.24414-0.12125-0.0625-0.18812-0.1-0.29687-0.15625-0.29375-1.92-0.58586-3.841-0.88086-5.7598 0.8425 1.1988 1.8572 2.1601 3.0859 2.9863 0.93 0.625 1.8699 1.0913 2.7012 1.2676 0.25375 0.0563 0.49164 0.0801 0.71289 0.0801 0.75625 0.003 1.332-0.29734 1.707-0.74609 0.37625-0.45125 0.56055-1.0479 0.56055-1.6504v-0.008c-0.055-1.18-0.21407-2.4113-1.5391-3.6426-1.805-1.6925-5.6923-5.1657-6.3398-7.4082-0.24625-0.85125-0.26664-1.7012-0.27539-2.4512-0.001-0.035-0.002-0.0691-0.002-0.10156 0.004-3.8638 2.7131-6.4916 6.2656-6.4941zm-170.82 0.004c-0.71875 1.24-0.89828 2.3979-1.0195 3.9004-0.02 0.24-0.02414 0.49704-0.02539 0.73829-0.0225 4.4162-0.0432 8.833-0.06445 13.248-0.0075 0.3525-0.01203 0.53102-0.01953 0.88477-0.01125 3.355-1.7987 5.7838-4.5449 7.3301-0.72 0.40875-1.7248 0.95843-3.0723 1.4297-0.43375 0.15125-1.1584 0.36547-2.1484 0.63672-0.75875 0.2075-1.4997 0.39852-1.9297 0.50977 0.185-1.0712 0.28727-1.6568 0.47852-2.748 2.2212-0.49 4.4973-1.4469 5.6836-3.7344 0.755-1.4512 0.78774-1.9912 0.83398-3.375 0.0175-4.5888 0.03258-9.1762 0.04883-13.764v-0.0918c0.0012-2.1638-0.36023-3.3103-1.3965-4.9141 0 0 4.9358-0.0383 7.1758-0.0508zm106.91 0.79883c-0.23625 0-0.5104 0.007-0.8379 0.0254-0.11 0.006-0.16414 0.0101-0.27539 0.0176-0.008 0.001-0.009 0.002-0.01 0.002h-0.002-0.006-0.0117c-0.0987 0.0162-0.14875 0.0274-0.25 0.0449-0.06 0.0112-0.0911 0.0154-0.15235 0.0254l-0.0762 0.0137v0.0801 0.15429c0.009 1.5138 0.0147 2.2734 0.0234 3.7871 0.001 0.0613 0.002 0.0898 0.002 0.15235v0.0703l0.0684 0.0176c0.06 0.015 0.0904 0.0216 0.15039 0.0391 0.33875 0.0837 0.63336 0.12687 0.97461 0.14062 0.1125 0.002 0.22383 0.004 0.33008 0.004 0.0187 0.001 0.0404 0.002 0.0566 0.002 1.8325 0 2.76-0.72125 2.8125-2.2188 0-0.1475-0.00016-0.21812-0.004-0.35937-0.1-1.2338-0.69875-1.7569-2.2188-1.9844-0.008-0.002-0.009-0.0007-0.0137-0.002h-0.004-0.008c-0.007 0-0.009-0.001-0.0117-0.004-0.16-0.002-0.3346-0.008-0.5371-0.008zm17.381 0.54688c-0.1925 0-0.40523 0.002-0.64648 0.0137-0.11125 0.006-0.45664 0.0438-0.55664 0.0625-0.06 0.008-0.0904 0.0134-0.15039 0.0234l-0.0781 0.0137v0.0801c0 0.0662 0.002 0.0991 0.002 0.16406 0.0125 1.6188 0.0182 2.4269 0.0332 4.0469v0.16407l0.002 0.0664 0.0645 0.0215c0.0613 0.0162 0.0923 0.0255 0.15234 0.043 0.34 0.0975 0.63266 0.15062 0.97266 0.17187 0.17125 0.01 0.33593 0.0156 0.49218 0.0156h0.0508c1.7312 0 2.6059-0.76282 2.6484-2.3203 0-0.15625-0.0007-0.23422-0.002-0.38672-0.1025-1.3212-0.69695-1.8902-2.2207-2.1602-0.005-0.001-0.0341-0.002-0.0391-0.002-0.20625-0.009-0.43711-0.0176-0.72461-0.0176zm-36.828 1.8398-0.0234 0.0645c-0.63875 1.8288-0.95765 2.7421-1.5976 4.5684-0.0337 0.0937-0.0502 0.14063-0.084 0.23438l-0.041 0.12305h0.13086c0.10374 0.001 0.15476 0.001 0.25976 0.004 1.2188 0.009 1.8276 0.0164 3.0488 0.0352 0.1 0.001 0.15 0.003 0.25 0.004h0.12891l-0.0371-0.12109c-0.0288-0.0937-0.0455-0.13938-0.0742-0.23437-0.5825-1.8438-0.87188-2.766-1.4531-4.6035l-0.0195-0.0625h-0.0664c-0.14375-0.004-0.20976-0.009-0.35351-0.01l-0.0684-0.002zm-76.924 3.1445-0.08008 0.004c-0.1425 0.009-0.21102 0.0166-0.35352 0.0254l-0.06641 0.006-0.01758 0.0625c-0.55 2.105-1.0955 4.2089-1.6367 6.3164-0.03375 0.13375-0.05023 0.19829-0.08398 0.33204l-0.03516 0.13476 0.13672-0.0195c0.10375-0.015 0.15406-0.0202 0.25781-0.0352 1.2125-0.16875 1.8195-0.25156 3.0332-0.41406 0.09875-0.0125 0.1507-0.0207 0.25195-0.0332l0.10156-0.0137-0.02539-0.0996c-0.0275-0.1175-0.04156-0.17742-0.07031-0.29492-0.46875-1.9625-0.93203-3.9295-1.3945-5.8945l-0.01758-0.0762zm77.121 0.36719 0.0801 0.25391c-0.0562 0-0.11047-0.002-0.16797-0.002l0.0879-0.25195zm18.781 0.83594c-0.0412 0-0.0866 0.003-0.13281 0.006-0.0387 0.002-0.0777 0.004-0.11523 0.004h-0.0312-0.004-0.004c-0.11 0.005-0.16399 0.007-0.27149 0.0137-0.10875 0.005-0.16398 0.007-0.27148 0.0117-0.0687 0.005-0.10313 0.005-0.17188 0.008l-0.0879 0.004v0.0918c0.001 0.0662 0 0.0999 0 0.16992 0.0125 1.855 0.018 2.7805 0.0293 4.6367v0.11328 0.0508l0.0469 0.0274c0.04 0.025 0.0609 0.038 0.0996 0.0605 0.0175 0.0112 0.0294 0.0154 0.0469 0.0254 0.0113 0.009 0.0166 0.0113 0.0254 0.0176l0.0156 0.008 0.0117 0.002c0.0138 0.002 0.0193 0.003 0.0293 0.006 0.18375 0.0413 0.27789 0.0616 0.46289 0.10156 0.65125 0.0937 0.98398 0.11797 1.3027 0.13672h0.0176 0.01 0.008c0.007-0.001 0.0106-0.002 0.0156-0.002 1.4462-0.155 2.1585-0.9357 2.2598-2.4707 0-1.94-1.0812-2.9352-3.25-3.0215h-0.041zm17.566 1.0156c-0.0375 0-0.90711 0.0163-0.97461 0.0176l-0.0918 0.002 0.002 0.0918c0 0.0712-0.001 0.10914 0 0.18164 0.0162 1.9825 0.026 2.9745 0.041 4.957 0.001 0.0475 0 0.0711 0 0.1211v0.14257s0.54797 0.14336 0.73047 0.19336c0.33375 0.0625 0.67696 0.11274 0.93946 0.14649 0.24875 0.0325 0.28921 0.0426 0.41796 0.0488 0.12875 0.006 0.5725-0.0771 0.8125-0.16211 0.9025-0.32875 1.3625-1.1127 1.4375-2.4102-0.005-2.0788-1.0775-3.1738-3.25-3.3301h-0.0644zm-37.883 3.9414c1.0225 0.0112 1.8114 0.0209 2.8164 0.0371 0.0189 0.0847 0.038 0.18573 0.0567 0.29297 0 0.175-0.10063 0.57507-0.32813 0.92382l-1.0918 1.6719-0.11328 0.16992-0.10351-0.17187-1.0469-1.709c-0.26875-0.4475-0.26953-0.61367-0.26953-0.70117 0-0.14375 0.0276-0.31242 0.0801-0.51367zm-47.297 0.72265-0.002 0.20313c-0.0025 0.16625-0.009 0.29234-0.02148 0.40234-0.0975 0.90125-0.29758 1.4522-0.79883 2.1797l-0.69922 1.0098 1.5215-3.7949zm-27.438 4.7832c0.0225 0.1375 0.04531 0.28078 0.07031 0.45703 0.0037 0.0312 0.0039 0.072 0.0039 0.11328 0 0.465-0.19297 1.1884-0.48047 1.8047l-0.92383 1.9688-0.32617 0.69531-0.1875-0.375-0.64453-1.291c-0.2575-0.52-0.35406-0.87523-0.35156-1.334 0.0012-0.32375 0.04758-0.69523 0.14258-1.1465l0.0957-0.4668c0.96125-0.16 1.7078-0.28203 2.6016-0.42578z" transform="matrix(.8 0 0 -.8 239.18 340.77)" fill="#c99700"/><path d="m64.869 120.01c-3.685-0.0488-6.2828 0.82453-8.3828 2.1445-2.9238 1.8388-4.5469 4.8203-4.5469 4.8203s-1.5238-4.3331-1.7188-5.0156c-0.1025-0.35625-0.15336-0.53578-0.25586-0.89453h-0.03711v-0.0274h-31.938s4.793 10.081 4.793 11.426c0 4.3838-0.03516 8.9687-0.03516 11.795 0 2.8262-6.4785 3.8613-6.4785 3.8613l-1.9805 13.736s9.6526-2.3989 10.986-2.7539c1.3338-0.3525 2.4062-0.84438 3.6875-1.6094 0.83-0.4975 1.6034-1.039 2.3047-1.6152 1.3238-0.35875 1.9855-0.53196 3.3105-0.87696 2.1762-0.5625 4.7038-1.1213 6.8926-1.6426 2.1025-0.48875 4.2064-0.96789 6.3164-1.4316 2.1362-0.46251 4.2749-0.89766 6.4199-1.3164 1.5638-0.30125 3.1317-0.58899 4.6992-0.86524 0.17-0.0288 2.9606-0.56687 5.9531-1.0469 3.3175-0.52875 6.8876-1.0052 7.5488-1.0977 2.6962-0.35375 5.3939-0.68453 8.0977-0.98828 1.75-0.1925 3.5021-0.36805 5.2559-0.5293 0.86625-0.0813 1.301-0.12156 2.166-0.19531 1.3125-0.11125 1.9668-0.16226 3.2793-0.25976 0.7575-0.0575 1.1351-0.0835 1.8926-0.13477 1.4975-0.10375 2.2473-0.15258 3.7461-0.23633 1.875-0.1075 2.8152-0.15367 4.6914-0.23242 1.5612-0.0637 2.3397-0.093 3.8984-0.13672 0.9925-0.0312 1.4899-0.04 2.4824-0.0625 1.5425-0.0325 4.0898-0.0605 4.2461-0.0605 2.0788-0.009 4.1569-0.005 6.2344 0.0117 0.2875 0.004 0.43179 0.007 0.71679 0.0137 1.9075 0.0263 3.8164 0.0723 5.7227 0.13476 0.68 0.02 1.0192 0.0356 1.6992 0.0606 1.885 0.0725 2.8298 0.11609 4.7148 0.21484 2.1362 0.1325 4.2679 0.2768 6.4004 0.43555 1.0438 0.0825 1.5644 0.12609 2.6094 0.21484-0.0162-0.0175 1.1884 0.0616 2.0059 0.13282 0.8975 0.08 1.3445 0.12203 2.2383 0.20703 2.1238 0.2125 4.244 0.43773 6.3652 0.67773 3.1162 0.36375 6.2263 0.77297 9.3301 1.2305 0.43875 0.0637 1.9905 0.29766 2.1055 0.31641 0.64125 0.0987 1.0663 0.1625 1.7988 0.28125 1.7612 0.28 3.5165 0.57546 5.2715 0.88671 2.3625 0.41625 4.7212 0.86149 7.0762 1.334 0.18375 0.035 0.2779 0.0555 0.4629 0.0918 1.7562 0.35375 4.0664 0.72422 5.8164 1.1055 0.24125 0.055 0.36297 0.0791 0.60547 0.13281 2.7388 0.61625 5.4671 1.2545 8.1934 1.9258 2.1025 0.5275 4.7592 1.0727 6.8555 1.6289 0.24125 0.065 0.35976 0.0984 0.60351 0.1621 0.2175 0.11 0.42774 0.20868 0.61524 0.29493 0.0375 0.0213 0.0589 0.0288 0.0977 0.0488 1.1275 0.545 2.2298 1.0214 3.1836 1.2539 3.0212 0.74375 7.4051 1.0669 9.6113-1.7969 2.0525-2.6625 2.5015-5.9842 2.7402-9.2754 0.002-0.035 0.002-0.0529 0.002-0.0879 0.001-0.0175 0.002-0.026 0.002-0.041v-0.041-0.0898c0.01-2.3438-0.63649-5.2627-1.4277-7.459v-14.646s-0.57992-0.7775-1.7949-1.5625c-1.2188-0.78375-2.8925-1.8555-7.1562-1.8555-1.695 0-5.123 0.18555-5.123 0.18555l-87.5 0.0137 2.0449 4.0703-1.1777 2.7656c-0.4175-4.5462-4.9307-6.8542-8.9707-7.0117-0.45125-0.0162-0.88078-0.0391-1.2695-0.0391-0.105 0-0.20946 0.002-0.31446 0.002h-31.916c-0.21125-0.0487-1.0285-0.20039-1.6973-0.30664-1.4916-0.23906-2.842-0.35873-4.0703-0.375zm52.82 3.2422 1.6484 0.004c1.735 0.005 3.472 0.012 5.207 0.0195l0.77344 0.006 0.26758 0.72852c1.7675 4.8525 3.3899 9.313 4.9512 13.637 0.42625 1.2012 0.8143 1.867 1.5918 2.752l0.19921 0.22266 0.0723-0.082c0.64875-0.73625 0.84945-1.2774 0.8457-2.3262v-0.0508c-0.0238-3.4812-0.0492-6.969-0.0742-10.459-0.001-0.15125-0.001-0.28258-0.0176-0.39258l-0.004-0.0391-0.004-0.041c-0.06-0.87875-0.20992-1.3542-0.70117-2.1992l-0.98828-1.6953 1.9609 0.0215c2.9662 0.035 5.9718 0.0769 8.9356 0.12695h0.18164l0.18554 0.004h0.0332l0.0293 0.004 0.86719 0.0605c2.485 0.115 5.1306 1.8883 5.1543 4.957v0.0547c0 0.5-0.057 0.96843-0.17578 1.4297-0.36125 1.385-1.173 2.2251-2.1543 2.7676 1.5788 0.9375 2.8011 2.5315 2.8086 4.584v0.0293c0 0.37-0.0319 0.72469-0.0957 1.0859-0.57875 3.215-3.8106 4.4277-6.6406 4.4902l-0.13282 0.004c-0.09 0.001-0.18078 0.006-0.26953 0.006-0.1 0-0.19742-0.005-0.29492-0.0117-2.895-0.22125-5.8126-0.41125-8.6738-0.5625l-2.3027-0.12109 0.0312-0.0332c-2.3525-0.095-4.7466-0.17719-7.1191-0.24219l-1.9941-0.0527 1.0918-1.668c0.29375-0.45125 0.42969-0.96796 0.42969-1.2617 0-0.0437-0.005-0.0692-0.006-0.0742-0.04-0.25625-0.0858-0.4325-0.14453-0.65625-0.015-0.0537-0.0292-0.10977-0.043-0.16602-1.4025-0.0275-2.3285-0.0395-3.7598-0.0508l-0.0137 0.0449-0.0644 0.23242-0.0234 0.0781c-0.0863 0.305-0.12695 0.55289-0.12695 0.77539 0 0.22375 0.0431 0.50078 0.35937 1.0195l1.0449 1.7109-2.0059-0.0195c-1.0988-0.01-2.2104-0.0137-3.3066-0.0137-0.69375 0-1.3844 0.003-2.0781 0.004l-2.0566 0.0137c-1.1025 0.0112-1.8491 0.0192-3.1191 0.043-0.33 0.006-0.49422 0.0101-0.82422 0.0176h-0.0547-0.0898c-0.74625-0.002-1.3891-0.13766-2.1191-0.78516-0.56-0.50375-1.1571-1.3049-2.1309-2.8574-0.61375-0.97375-1.2312-2.003-1.7812-3.1055l-0.01 2.7285v0.0469c-0.004 1.1388 0.14141 1.5444 0.81641 2.2969l1.5879 1.7656-2.373 0.0879c-2.355 0.0913-4.7348 0.20485-7.0723 0.33985l-1.5391 0.0879-1.627 0.10742c-1.1062 0.0725-1.7298 0.11953-2.9023 0.20703-0.48875 0.035-0.74055 0.0555-1.2168 0.0918-0.17125 0.0262-0.34352 0.0371-0.50976 0.0371h-0.02344c-2.7025 0-4.2002-3.3261-5.1914-5.5273-0.16-0.35625-0.31281-0.69329-0.44531-0.95704-0.11-0.21875-0.21391-0.43062-0.31641-0.64062-0.0075 1.0975-0.01594 2.198-0.02344 3.293v0.0586c0 0.1525 0.0044 0.28063 0.01563 0.39063 0.0925 0.95 0.29906 1.5252 0.75781 2.1289l1.2109 1.5918-1.9902 0.19141c-2.2688 0.2175-4.5777 0.46531-6.8652 0.72656l-2.4375 0.28125 1.3945-2.0195c0.56-0.8125 0.7975-1.4572 0.90625-2.4609 0.015-0.1225 0.02219-0.26844 0.02344-0.46094l0.03906-3.7871 0.07617-7.5391v-0.11133c0.0012-1.2025-0.16156-1.845-0.69531-2.75l-0.96289-1.6348 1.8945-0.0449c2.18-0.0525 3.9716-0.0461 6.1504-0.0898l2.1621-0.0449-1.2207 1.7852c-0.3525 0.695-0.3675 1.3638-0.375 2.7188-0.005 0.74374-0.01008 1.4913-0.01758 2.2363 0.70875-0.9425 1.4352-1.9032 2.1777-2.877 0.80875-1.0538 1.4323-2.1324 1.416-2.8887-0.0125-0.56-0.17773-1.0332-0.17773-1.0332l0.59766-0.0273c1.9125-0.0337 3.8245-0.065 5.7383-0.0937l2.2832-0.0352h0.04102l0.10742-0.002 1.8984-0.0215c2.6462-0.0287 5.331-0.053 7.9785-0.0742h0.13672c0.3375 0 0.68765 0.007 1.0039 0.0137 0.8425 0.0212 2.4666 0.16727 3.8692 0.91602 1.5488 0.83125 2.3686 2.137 2.3711 3.7832v0.041c-0.002 0.30999-0.009 0.58156-0.0566 0.88281-0.28375 1.73-1.1621 2.8845-2.7559 3.6133l0.71094 1.2031 0.21484 0.37305 0.33984 0.58789c0.545 0.915 1.149 1.7954 1.834 2.6816 0.53125 0.6875 1.1862 1.4177 2.0625 2.3027l0.26562 0.25 0.0371 0.0352 0.041 0.041 0.006-0.006c0.8275-0.87125 1.2258-1.4904 1.707-2.6504 1.3462-3.3888 2.6969-6.7935 4.0469-10.197 0.28125-0.7075 0.39454-1.1491 0.39454-1.5254 0-0.29375-0.0508-0.54937-0.17579-0.85937l-0.61328-1.5312zm-52.918 0.21875c0.53125 0 1.0996 0.0266 1.7871 0.0879 0.435 0.0375 0.83938 0.0955 1.2656 0.15429l0.04492 0.008 0.09375 0.0137 0.05273 0.006 0.06641 0.01 0.71484 0.10547 0.01953 0.004 0.01953 0.002 0.25195 0.0449 0.15039 0.0293 0.92188 0.16602-0.0098 5.9688-0.125 0.10351s-0.55578-0.42625-1.207-0.84375c-0.62625-0.39875-1.3484-0.73547-1.3984-0.76172-0.85625-0.41625-1.6854-0.62695-2.4629-0.62695-0.05375 0-0.11031 0.0007-0.16406 0.002-2.9875 0.12625-4.216 3.785-4.291 6.0625-0.005 0.14-0.01008 0.26196-0.01758 0.37696-0.005 0.0925-0.0085 0.18328-0.0098 0.26953-0.0012 0.0488-0.002 0.0956-0.002 0.14062 0 1.6525 0.45797 3.1638 1.293 4.25 0.5875 0.7675 1.65 1.6802 3.375 1.6777 0.22875 0 0.46367-0.0163 0.70117-0.0488 0.67875-0.09 1.4024-0.29617 2.1074-0.54492 2.0288-0.72 4.3418-2.1484 4.3418-2.1484l0.11328 0.0781-2.625 6.5488-0.43164 0.16797c-1.1012 0.43625-2.2633 0.77883-3.457 1.0176-0.4375 0.0862-0.86641 0.15031-1.1914 0.19531-0.61375 0.0975-1.241 0.15039-1.8535 0.15039-3.7325-0.004-6.7036-1.8326-8.1523-5.0176-0.71125-1.5638-1.1035-3.479-1.1035-5.3965l0.002-0.11719c0.0025-0.545 0.03273-1.0698 0.08398-1.5586 0.67-6.2912 4.9005-10.439 10.779-10.574 0.1-0.002 0.20766-0.002 0.31641-0.002zm27.518 0.0215-1.4785 1.7656c-1.89 2.255-3.7162 4.479-5.4375 6.6152 0.05 0.0913 0.09719 0.1793 0.14844 0.2793l0.18359 0.34375c1.3912 2.6562 1.8041 3.3362 2.3203 4.1387 0.97875 1.525 2.1273 2.9118 3.416 4.123l0.80859 0.76171 0.76172-0.8789c0.75625-0.87 0.97602-1.43 0.97852-2.5 0.01625-3.4925 0.03524-6.98 0.05273-10.469v-0.0644c0.0012-1.1688-0.14-1.6791-0.6875-2.5078l-1.0664-1.6074zm56.779 0.11719 1.9238 0.041c3.0738 0.0675 6.0798 0.14055 8.9336 0.2168l0.17969 0.004 0.18555 0.006 0.0351 0.002 0.0332 0.002 0.0879 0.008 0.78711 0.0683c2.915 0.18876 5.1212 2.4748 5.1387 5.3223v0.0449c0 0.5425-0.0549 1.0388-0.16993 1.5176-0.33125 1.3788-1.0491 2.3391-2.2891 2.9941 1.6488 1.0325 2.9474 2.8067 2.9512 5.043v0.002 0.0195c0 0.38625-0.0318 0.77164-0.0918 1.1504-0.2475 1.5537-1.1153 2.8031-2.5078 3.6094-1.3838 0.8025-2.9179 0.97266-3.9629 0.97266h-0.002c-0.0637 0-0.1257-0.00071-0.18945-0.002h-0.11719c-0.1775 0-0.37859-0.005-0.58984-0.0312-2.865-0.3625-5.7824-0.69328-8.6699-0.98828l-2.123-0.2168 1.3945-1.6016c0.65375-0.75625 0.85726-1.3273 0.85352-2.4473v-0.084l-0.0742-7.3633-0.0371-3.7031c-0.001-0.1725-0.005-0.30946-0.0215-0.43946l-0.004-0.0351-0.002-0.0352c-0.0625-0.9625-0.21922-1.4772-0.73047-2.3984l-0.92187-1.6777zm17.408 0.46875 2.1641 0.0137c2.3288 0.015 4.6624 0.0315 6.9336 0.0527l2.0293 0.0215-1.1055 1.6914c-0.69375 1.0588-0.97657 2.0362-0.97657 3.375v0.0762l0.10547 12.682c0.009 1.5812 0.16516 2.268 0.78516 3.498l0.99023 1.9609-2.1758-0.375c-2.1688-0.3725-4.3513-0.72984-6.4863-1.0586l-1.6445-0.25 0.86133-1.416c0.55625-0.91375 0.72391-1.5892 0.72266-2.8867l-0.002-0.13281c-0.0263-4.0975-0.0519-8.1934-0.0781-12.287-0.0125-1.565-0.2-2.2526-0.875-3.2051l-1.248-1.7598zm11.918 0.18164 0.94336 0.006 17.121 0.14453 1.3125 0.0117-0.2246 1.2949-0.95508 5.4551-0.25977 1.5039-1.3594-0.71485c-0.006-0.004-0.75141-0.38773-2.1914-0.70898-0.83875-0.18625-1.6556-0.28344-2.2793-0.33594 0.002 0.22125 0.004 0.48101 0.004 0.79101l0.0254 3.4863 0.0254 4.5996 0.0273 4.3867c0.009 1.555 0.27141 2.5922 1.0039 3.9609l1.1309 2.1152-2.33-0.51c-2.315-0.4925-4.653-0.96641-6.9492-1.4102l-1.8106-0.55468 1.1602-1.4434c0.6825-0.8475 0.90094-1.2074 0.89844-2.8711 0-3.5188 0.0331-10.178 0.0469-12.811-0.3925-0.0762-1.4964-0.0768-3.0352 0.12695-1.5362 0.20375-3.666 1.2969-3.666 1.2969l0.35547-2.0976 0.85547-4.7988 0.16406-0.93164zm-130.38 0.29492 0.21484 0.85352c1.0925 4.2825 2.3738 8.5986 3.6113 12.777 0.38875 1.31 0.7757 2.6197 1.1582 3.9297 0.41625 1.4375 0.80047 2.1891 1.5742 3.1016l1.2617 1.4863-1.9199 0.33398c-2.4975 0.43-5.0077 0.88461-7.459 1.3496l-2.1387 0.4043 0.92383-1.9707c0.32875-0.7025 0.53977-1.512 0.54102-2.0645 0-0.0762-0.0042-0.14297-0.01172-0.19922-0.05625-0.40625-0.10406-0.65976-0.16406-0.97851l-0.01953-0.0957c-1.3112 0.2075-2.2199 0.35664-3.6074 0.58789l-0.04687 0.20312-0.02539 0.11914-0.11328 0.56055c-0.1025 0.4875-0.15375 0.89883-0.15625 1.2676v0.0254c-0.0012 0.53625 0.11602 0.97953 0.41602 1.582l0.64648 1.2949-1.416 0.29102c-1.83 0.37875-3.6431 0.76875-5.3906 1.1562l-2.502 0.55664 1.3008-2.209c0.90125-1.5312 1.336-2.5529 1.8535-4.3691 0.47-1.7088 0.93125-3.483 1.375-5.1992 0.8175-3.15 1.6626-6.4078 2.6426-9.5391 0.33375-1.06 0.47594-1.7305 0.49219-2.3242v-0.13867c0-0.4225-0.05609-0.81469-0.18359-1.2734l-0.38477-1.3828 1.4375-0.0273c1.7362-0.0325 3.4715-0.0663 5.209-0.0937l0.88086-0.0156zm-12.371 0.50781-0.97656 1.6836c-0.585 1.005-0.7518 1.9461-0.87305 3.4336-0.01375 0.17875-0.02023 0.38539-0.02148 0.65039l-0.06445 13.252v0.01 0.008l-0.0098 0.40821-0.0098 0.45703c-0.0125 3.5475-1.7801 6.4149-5.1113 8.2949-0.60875 0.34125-1.7407 0.98101-3.252 1.5098-0.45125 0.15875-1.1777 0.37321-2.2227 0.65821-0.7625 0.21-1.5077 0.40312-1.9414 0.51562l-1.6738 0.4375 0.29492-1.7031c0.185-1.0738 0.28726-1.662 0.47852-2.752l0.12891-0.73633 0.72852-0.16016c2.5388-0.55875 4.108-1.5627 4.9355-3.1602 0.65-1.2488 0.66524-1.6002 0.70898-2.8789l0.02344-6.7656 0.02539-6.9824v-0.0508l0.002-0.041c0-1.8775-0.27375-2.8436-1.2188-4.3086l-1.1016-1.6992 2.0254-0.0176s4.9397-0.0383 7.1797-0.0508l1.9453-0.0117zm168.88 0.006c0.15375 0 0.31054 0.002 0.46679 0.0137 1.2112 0.0662 2.4184 0.39586 3.7871 1.0371 0.1075 0.035 0.22672 0.0827 0.35547 0.14649l0.62891 0.30469v7.9707l-0.0996 0.043s-0.88172-1.1701-1.4492-1.7988c-0.56875-0.62625-1.327-1.1531-1.8945-1.4531-0.60875-0.32125-1.3149-0.52624-2.0449-0.59374-0.30125 0.0288-0.38024 0.0851-0.45899 0.14257-0.20125 0.14625-0.30859 0.4111-0.30859 0.7461 0 0.3375 0.10101 0.69336 0.29102 1.0371 0.43125 0.79375 0.92148 1.2272 1.9902 2.1797 0.16 0.14125 0.33172 0.29329 0.51172 0.45704 3.0225 2.7175 5.0353 5.408 5.0391 9.6992l-0.004 0.16797c-0.0675 4.8788-2.712 8.1524-6.582 8.1524-0.6675 0-1.3663-0.10243-2.0801-0.29493-0.85125-0.21375-1.7913-0.55312-2.7988-1.0156l-0.0215-0.008-0.0996-0.0449-0.0195-0.008c-0.31125-0.13625-0.63039-0.27797-0.96289-0.44922l-0.20117-0.10742-0.26563-0.14062-0.15429-0.084-0.14063-0.0723-0.49219-0.26172-0.0859-0.55469-0.0234-0.14844c-0.28375-1.8712-1.0879-8.5488-1.0879-8.5488l0.12305-0.0762s1.0473 1.3522 1.6836 2.0547c0.86625 0.9625 2.0892 2.0892 3.2305 2.8555 0.87375 0.585 1.6738 0.96476 2.3125 1.1035 0.17 0.035 0.33297 0.0527 0.48047 0.0527 0.375 0 0.65976-0.11766 0.85351-0.34766 0.19125-0.2275 0.29828-0.56593 0.30078-0.92968-0.0513-1.0338-0.17734-1.905-1.1836-2.8438-0.13875-0.13-0.28781-0.26727-0.44531-0.41602-2.795-2.595-5.5745-5.3111-6.207-7.4961-0.27375-0.95-0.30766-1.8411-0.31641-2.7461v-0.11718c0.003-4.405 3.103-7.6037 7.373-7.6074zm-103.35 2.8379c-0.0337 0-0.0956 0.002-0.17187 0.002l-0.0117 3.0449c0.0937-0.004 0.22937-0.0234 0.35937-0.0547 0.6075-0.155 1.0019-0.34351 1.2031-0.57226 0.325-0.3725 0.51-0.69282 0.5625-0.97657v-0.002l0.006-0.0332c0.0175-0.14125 0.0332-0.25977 0.0332-0.35352 0.001-0.54125-0.19023-0.67758-0.27148-0.73633-0.20125-0.14375-0.64344-0.31711-1.6172-0.31836h-0.0918zm39.439 0.19532c-0.16751 0-0.33266 0.002-0.50391 0.01l0.0137 2.3242c0.0425 0.004 0.0852 0.005 0.12891 0.006 0.0975 0.004 0.19406 0.008 0.28906 0.008h0.0586c1.6338 0 1.6766-0.61734 1.6953-1.1211l-0.002-0.29883c-0.0387-0.48875-0.0935-0.74492-1.2285-0.91992-0.13-0.005-0.27993-0.008-0.45117-0.008zm17.381 0.53711c-0.10375 0-0.20554-0.00055-0.31054 0.002l0.004 0.38672 0.0195 2.2637c0.05 0.002 0.1018 0.005 0.1543 0.01 0.145 0.009 0.28617 0.0156 0.41992 0.0156h0.0508c1.26 0 1.5089-0.41492 1.5352-1.2324v-0.16406-0.16016c-0.0525-0.63125-0.1375-0.90242-1.25-1.1074-0.17-0.007-0.37805-0.0137-0.62305-0.0137zm-36.6 2.3008c-0.31624 0.90125-0.63242 1.8102-0.98242 2.8027 0.635 0.006 1.2393 0.012 1.873 0.0195l-0.89063-2.8223zm18.779 3.8945 0.0117 2.1191 0.008 1.0547c0.4275 0.055 0.68899 0.0736 0.92774 0.0898 0.7325-0.0888 1.1217-0.34508 1.1992-1.3926-0.006-1.0675-0.38524-1.7936-2.1465-1.8711zm-96.191 0.39062c-0.29375 1.13-0.58711 2.2624-0.88086 3.4024 0.54375-0.0738 1.0605-0.14266 1.6367-0.22266-0.25-1.0462-0.50211-2.1059-0.75586-3.1797zm113.78 0.61914 0.0156 1.6602 0.0156 1.8867c0.26125 0.045 0.51812 0.0823 0.70312 0.10351 0.0837 0.0112 0.14727 0.0198 0.19727 0.0274 0.0375 0.005 0.0584 0.009 0.0859 0.0117 0.10375-0.0138 0.32437-0.0582 0.42187-0.0957 0.205-0.0738 0.63078-0.22789 0.70703-1.4004-0.0112-1.4488-0.61648-2.0696-2.1465-2.1934z" transform="matrix(.8 0 0 -.8 239.18 340.77)" stroke="#0033a0" stroke-width=".5" fill="#0033a0"/></g></g></svg>
