<svg xmlns="http://www.w3.org/2000/svg" viewBox="0 0 500 474.92">
 <g transform="matrix(1.3333 0 0 -1.3333 93.333 709.61)">
  <g>
   <path d="m301.57 332.73s-2.4557 3.5103-3.1035 4.4323c0.0753 0.83464 0.20188 2.2026 0.20188 2.2297 0.70808 0.70507 2.7178 2.7178 2.7178 2.7178l1.9164 12.589-2.8022 10.431s-2.3894 3.3807-2.8534 4.0346c-0.12354 0.72616-0.61166 3.6579-0.61166 3.6579s-2.3292 2.7178-3.2271 3.7634c0.23201 1.0817 0.76835 3.5374 0.76835 3.5374l-5.7159 8.8857s-1.8862 1.5728-2.7329 2.2779c-0.14162 1.7356-4.2997 52.558-4.2997 52.558l-14.104 0.53634s-0.7352-0.43389-0.8256-0.48512c-1.4674 0.96722-5.3031 3.4922-5.3031 3.4922h-3.8297c-0.88586 0.47607-13.827 7.4484-13.827 7.4484s-5.4568-2.9589-6.2914-3.4139c-0.99735 0.0211-8.732 0.17476-8.732 0.17476s-6.0624-2.3472-6.4089-2.4828c-0.37061-0.0693-7.0115-1.3137-7.0115-1.3137s-1.377-1.0847-2.2568-1.7747c-1.5126 0.93105-4.9686 3.0583-4.9686 3.0583s-1.4373-0.26516-1.8772-0.34651v13.677h-65.24c-0.66892 0.31939-4.4685 2.1273-5.7852 2.751 0 2.9046 3e-3 23.566 3e-3 23.566s-10.073 10.181-11.182 11.302v30.222h-94.398v-15.882h-4.2093l-36.929-30.354v-51.25s11.989-11.076 17.202-15.894h-17.202v-28.146h-55.36l-1.9887-11.619 4.589-7.7678s4.1069-2.7359 4.824-3.212c0.43088-0.77739 3.4139-6.1136 3.4139-6.1136s5.2217-3.6127 5.5622-3.8508c0.30433-0.31939 16.608-17.518 16.608-17.518s11.158-7.2857 12.059-7.8763c0.07834-0.15065 0.08738-0.16873 0.16572-0.32843-0.09943-0.8949-0.47607-4.2877-0.47607-4.2877s3.9592-4.7848 4.7306-5.7189c0.0241-1.3047 0.17476-10.645 0.17476-10.645l8.6326-12.821 18.401-11.405 19.79-10.437 9.1991 3.0794 6.656 9.5697s5.6165 11.049 6.21 12.215c1.3439-0.30432 4.2967-0.96721 4.2967-0.96721s1.2504 1.2203 1.5035 1.4674v-14.017h31.978c0.4128-0.26515 1.5487-1.0004 1.9917-1.2926 0.24708-0.41581 1.6572-2.8052 1.7717-3.0011 0.09943-0.21996 6.1498-13.83 6.1498-13.83s0.69302-1.0305 1.0817-1.606v-35.95h25.687c0.10546-1.5578 0.26817-4.0165 0.26817-4.0165s2.3261-2.7932 2.983-3.5826c0.0603-1.0968 0.30433-5.7762 0.30433-5.7762s4.1039-4.8511 4.4202-5.2217c0.22599-0.46704 8.1535-16.678 8.1535-16.678s8.1354-0.85573 8.7923-0.92503c0.60865-0.28323 8.3283-3.905 8.3283-3.905 0-3e-3 10.016-5.3423 10.016-5.3423l0.43389-0.23201s14.249-0.56044 15.252-0.59961c0.85572-0.50018 12.712-7.4545 12.712-7.4545s4.2545 4.8391 5.3875 6.1287c1.6994-0.31035 8.946-1.6241 8.946-1.6241v16.054s-7.114 5.3302-8.033 6.0202c-0.33145 0.96721-5.0771 14.785-5.4327 15.822 0.0271 0.12053 0.0814 0.35555 0.14764 0.66892 1.9525-1.0727 4.1912-1.6874 6.5776-1.6874 7.0989 0 12.929 5.4206 13.58 12.351h44.856v62.911h-0.32542c0.0422 0.0362 2.7751 2.3352 4.6914 3.9502 0.20489-0.37965 0.42485-0.78039 0.42485-0.78039s15.728 8.7652 16.53 9.2111c0.88585 0.0573 13.674 0.88284 13.674 0.88284s-2.8805 8.8526-3.3928 10.425c0.72315 1.0666 2.302 3.3958 2.302 3.3958z" fill="#fff"/>
   <path transform="matrix(.75 0 0 -.75 -70 532.21)" d="m140.87 10.42v23.973h-9.6289l-42.43 34.873v58.68l33.711 31.146h17.664 0.68359v5.2949h-0.83984-51.219v34.17 0.57031h-77.83l-1.0527 6.1621 3.752 6.3477s5.5717 3.717 6.5078 4.3438c0.56647 1.0084 4.5918 8.2109 4.5918 8.2109s6.1518 4.2592 6.5938 4.5605c0.3897 0.4138 22.068 23.285 22.068 23.285s15.909 10.385 17.082 11.148c0.45398 0.90793 1.711 3.4301 2.2012 4.4023-0.12052 1.0807-0.52148 4.7168-0.52148 4.7168s4.9451 5.9824 5.9414 7.1797c0.02812 1.7114 0.23633 14.627 0.23633 14.627l9.2773 13.785 22.879 14.17 23.186 12.229 6.6367-2.2246 7.0859-10.186s8.4573-16.624 8.7305-17.166c0.33747-0.40576 2.2186-2.6641 2.2227-2.6641 0-4e-3 0.50139-0.55832 1.0156-1.1328 1.8079 0.40977 6.3476 1.4297 6.3476 1.4297s2.4829-2.4229 3.5234-3.4434c1.5226 0.35354 7.3556 1.7 11.514 2.6602v15.463h30.971c0.1125 0.46201 0.17774 0.72461 0.17774 0.72461s8.3636 5.422 9.3398 6.0527c0.54236 0.92402 3.3749 5.7375 3.5195 5.9785 0.12856 0.28123 8.0996 18.225 8.0996 18.225l5.1895 7.6797v1.5234 34.057h29.293 1.457c0.016 0.06027 0.02529 0.109 0.02929 0.125 0.02414 0.39372 0.85157 12.787 0.85157 12.787s3.1499 3.7878 4.0137 4.8203c0.0804 1.4342 0.40625 7.6777 0.40625 7.6777s4.4146 5.2154 4.8203 5.6894c0.28928 0.60263 9.3926 19.219 9.3926 19.219s7.9069 0.83166 8.7305 0.91602c0.79144 0.37364 12.286 5.766 12.41 5.8223 0.12854 0.06827 12.598 6.7168 12.598 6.7168s19.196 0.75454 20.502 0.80274c1.0888 0.63878 13.082 7.666 13.082 7.666s4.4781-5.1019 5.832-6.6406c1.5588 0.28121 7.0664 1.2852 7.0664 1.2852v-8.1309s-8.3308-6.2432-9.5039-7.123c-0.51021-1.4865-8.2721-24.093-8.7422-25.455 0.30933-1.374 3.293-14.824 3.293-14.824s-1.0153-1.72-1.4492-2.4512c2.2739-1.9686 7.7168-6.6816 7.7168-6.6816s0.3346-0.84269 0.87696-2.2207h73.945v-62.656h-8.5566c4.9536-3.0854 8.5644-5.3398 8.5644-5.3398s1.005-6.4317 1.2461-7.9824c1.3298-1.1209 10.293-8.666 10.293-8.666 0 0-5.1102-7.8949-6.0664-9.3613 0.1044-0.54637 0.13546-0.71896 0.25195-1.3457 1.1209-0.49414 2.0854-0.92874 3.4434-1.5273-0.22097 1.6512-0.94726 7.1035-0.94726 7.1035s7.7337-1.3659 10.016-1.7637c0.22096 0.40175 1.8398 3.3711 1.8398 3.3711s15.667-8.7264 16.684-9.2969c1.0445-0.06827 9.9473-0.64258 9.9473-0.64258s-2.0757-6.3919-2.5859-7.9668c1.1008-1.6311 4.5508-6.7246 4.5508-6.7246l3.4316-11.148s-2.7884-3.982-3.5879-5.127c0.1366-1.4905 0.6506-7.1602 0.7832-8.6387 0.95616-0.94813 3.8125-3.8086 3.8125-3.8086l1.916-12.627-2.9434-10.979s-3.4205-4.8295-4.0352-5.6973c-0.15268-0.92404-0.74609-4.4961-0.74609-4.4961s-4.1303-4.8158-5.4199-6.3184c0.33745-1.5548 1.1602-5.3438 1.1602-5.3438l-5.2148-8.1152s-3.9566-3.2984-5.2422-4.3711c-0.1848-2.2498-5.4356-66.434-5.4356-66.434l-9.5898-0.36914s-2.113 1.2459-3.3223 1.957c-2.1172-1.3941-9.1797-6.043-9.1797-6.043h-4.7363c-1.141-0.61869-16.453-8.8594-16.453-8.8594s-5.4677 2.9613-6.4922 3.5117c-1.3017-0.02414-12.168-0.23243-12.168-0.23243s-7.3274 2.8351-7.7774 3.0078c-0.47404 0.0924-8.1758 1.5312-8.1758 1.5312s-3.9531 3.1104-5.7891 4.5527c-2.2498-1.386-8.7031-5.3555-8.7031-5.3555s-4.5033 0.83508-6.2188 1.1484c-0.99633-0.92804-3.5664-3.3144-3.5664-3.3144l-1.793 0.58984v-0.60937-13.219h-76.084-1.8184c-0.79144-1.836-1.3457-3.3184-1.3457-3.3184l-7.0273-3.3418s-4.0183 2.4584-4.9785 3.0449h-3.2852c-0.04827-0.02813-0.108-0.063569-0.16016-0.095702v-0.18164-37.443l-12.113-12.244v-39.666h-2.793-107.44zm5.5801 5.584h99.068v28.439l-9.9512-10.053h-85.537-3.5801v-18.387zm-12.77 25.598h99.035l23.84 24.781v28.68h-47.768v-11.77h-55.266v28.006h30.578v8.6445h-39.314v-45.365h72.68v11.76h32.453v-16.416l-20.883-20.059h-92.008l-32.49 26.607v44.43l24.438 22.418h55.125v8.3398h-59.346l-28.678-26.971v-52.227l37.604-30.859zm27.381 48.859h40.309v11.73 1.4746h-40.309v-13.205zm30.268 20.838h159.36v51.057h-52.783v-12.217h-36.084v37.5h29.275v8.5859h-37.893v-54.734h53.453v11.902h35.373v-33.918h-142.19v23.727h12.342v131.66h-15.508v26.037h70.234v-26.037h-13.703v-57.398h37.893v8.291h-30.107v40.629h14.6v14.889l-12.16 28.232h-75.658v-43.121h15.736v-114.73h-12.182v-40.359zm227.27 7.0957c2.2257 1.2012 15.037 8.0996 15.037 8.0996h4.4668c1.2133 0.79545 10.688 7.0352 10.688 7.0352s3.9458-2.3182 4.9141-2.8887c0.67896 0.02814 1.5736 0.06297 3.0078 0.11524 0.37362 4.5679 5.2266 63.834 5.2266 63.834s5.7944 4.8342 6.377 5.3203c0.35355 0.5504 2.648 4.1133 3.5117 5.4512-0.31336 1.4342-1.2617 5.7969-1.2617 5.7969s5.3634 6.2599 6.207 7.2441c0.17678 1.0446 0.70702 4.2266 0.70704 4.2266 0 0 3.6951 5.2227 4.1973 5.9258 0.21696 0.82358 2.1256 7.9346 2.3867 8.8867-0.14864 0.94813-1.2536 8.2198-1.4746 9.6621-0.89589 0.8959-3.9414 3.9414-3.9414 3.9414l-1.1523 12.68s2.2693 3.2406 3.1934 4.5664c-0.56244 1.84-2.19 7.1114-2.3828 7.7422-0.42184 0.62674-5.6191 8.2969-5.6191 8.2969s0.83111 2.5474 1.2168 3.7285c-1.7074 0.1044-4.0332 0.25586-4.0332 0.25586s-9.4502 5.2676-12.869 7.1719c-0.012-0.02414-1.0606-1.9531-1.0606-1.9531s-4.2373 0.74691-6.459 1.1406c0.23301-1.7396 0.92773-6.9531 0.92773-6.9531l-6.6055 0.60157-8.3027 3.6894-1.1973 6.4102c0-2e-5 3.0932 4.7893 4.5957 7.1074-2.3824 2.0047-8.123 6.8418-8.123 6.8418s-0.89661 5.7499-1.1738 7.5176c-0.77938 0.48612-5.9427 3.7035-12.033 7.5l-0.07227-0.17578-36.152-90.984h2.4258v-56.33h-114.72v-22.35h21.465v11.852h67.395v-43.943-2.0879c0.13253-0.04413 0.25563-0.08455 0.4043-0.13281 1.0044 0.92401 3.2148 2.9805 3.2148 2.9805s5.3748-0.99632 6.8613-1.2695c1.4945 0.92001 10.189 6.2715 10.189 6.2715s6.8653-5.3962 7.7774-6.1113c1.1168-0.2089 7.332-1.373 7.332-1.373s6.3464-2.4592 7.2383-2.8047c1.0004 0.02013 12.539 0.25 12.539 0.25s3.5559-1.9254 5.1348-2.7852zm-272.15 40.697h46.916v23.266h-33.127v-17.971h-13.789v-5.2949zm-50.371 12.754h57.445v17.883h42.807v8.5938h-52.191v-17.867h-39.576v20.574l32.457 27.74h59.311v8.6055h-62.648l-37.604-31.838v-33.691zm348.49 12.914-8.1836 13.941h-14.576l9.4297 8.834-7.2344 13.707 13.027-7.8262 9.8144 7.8262 0.07227-13.707 14.268-8.834h-14.998l-1.6191-13.941zm-146.39 2.0684h78.418v42.863h-5.7695l42.336 105.44h13.873v48.354h-77.859v-46.023h-24.941v46.023h-78.979v-46.023h14.594l45.785-107.77h-7.457v-42.863zm8.7812 8.6621v24.727h11.391l-52.473 125.21h-11.9v28.875h61.541v-28.875h-11.357l7.2949-16.516h51.389l7.1016 16.516h-12.08v28.875h60.424v-28.875h-11.068l-49.355-125.21h9.7754v-24.727h-60.682zm-290.89 9.2188h72.744v0.0586 4.1113l42.428 35.756h64.98v14.531h-15.42v34.92 1.7559c-4.596-1.0606-13.225-3.0547-13.225-3.0547s-2.5004 2.4426-3.5449 3.4551c-1.7556-0.39372-6.5723-1.4824-6.5723-1.4824l-3.2734 3.6406c-0.0723 0.0804-2.4961 2.9844-2.4961 2.9844l-0.19531 0.24609s-8.6749 17.045-8.8477 17.379c-0.19284 0.28122-4.9368 7.1038-5.8086 8.3613-0.80752 0.26916-1.6509 0.54959-2.6191 0.875-1.9083-1.0044-20.744-10.939-20.904-11.027-0.15668-0.0964-20.721-12.837-21.693-13.439-0.58254-0.86376-6.8903-10.237-7.6777-11.41-0.028121-1.4744-0.25-14.928-0.25-14.928s-4.5387-5.4891-5.6797-6.8711c0.14061-1.2494 0.44141-4.0059 0.44141-4.0059l-3.6113-7.2226s-17.266-11.274-17.801-11.619c-0.43791-0.46603-22.014-23.229-22.014-23.229s-5.1179-3.5395-6.0098-4.1582c-0.54638-0.97627-4.6113-8.2559-4.6113-8.2559s-5.6765-3.7802-6.5684-4.3828c-0.35354-0.59059-1.0564-1.783-1.7715-2.9883zm252.35 28.199h22.385v4.7754h3.6289l-11.418 25.492v-4.25h-14.596v-26.018zm69.811 33.42 16.029 42h-35.551l19.521-42zm0 21.465-5.2871 11.824h10.035l-4.748-11.824zm-117.13 29.238h1.2051 38.047l-5.5723 14.041h-16.678v11.848 2.8008c-0.16072-0.24105-0.26093-0.39355-0.28906-0.42968-0.19685-0.43791-8.0312-18.062-8.0312-18.062l-4.3496-7.3848s-2.1505-1.3983-4.332-2.8125zm110.47 28.594h10.248v45.648h8.2051 3.9238c-2.7881 2.4105-8.9297 7.7285-8.9297 7.7285s2.0968 3.552 2.6914 4.5645c-0.40576 1.848-3.1543 14.205-3.1543 14.205l9.8066 28.568s3.6278 2.7206 6.2754 4.7012c-0.4138-0.07627-1.2207-0.22071-1.2207-0.22071s-3.3221 3.771-4.8809 5.5508c-2.7359-1.607-10.305-6.0449-10.305-6.0449s-19.426-0.76055-20.627-0.80469c-1.0244-0.5504-11.594-6.1855-11.594-6.1855l-13.395-6.2793s-4.6274-0.4865-6.5879-0.69141c-1.157-2.3663-8.3457-17.07-8.3457-17.07s-3.1449-3.7125-4.0488-4.7852c-0.0764-1.4463-0.40625-7.6504-0.40625-7.6504s-3.1932-3.831-4.0449-4.8555c-0.0844-1.3057-0.56229-8.5008-0.71094-10.73h0.25977 56.84v-45.648zm35.85 48.744c-3.7724 0-6.7852 2.9339-6.7852 6.5898 0 1.0888 0.26087 2.104 0.71485 3.0039 1.1088 2.1855 3.3987 3.6641 6.0703 3.6641 3.4992 0 6.2437-2.4618 6.6816-5.7441 0.04013-0.3013 0.06836-0.60644 0.06836-0.92383 0-3.6559-2.9334-6.5898-6.75-6.5898zm0 1.3262c2.9328 0 5.0625 2.37 5.0625 5.3027 0 0.3013-0.03581 0.59551-0.08008 0.88476-0.38568 2.4668-2.3502 4.3379-4.9375 4.3379-2.6516 0-4.6528-1.8591-5.0586-4.3379-0.04827-0.3013-0.08399-0.60644-0.08399-0.92383 0-2.8926 2.1689-5.2637 5.0977-5.2637zm-0.03711 1.9297c-1.0847 0-1.9286 0.08071-2.5312 0.20117v4.0566 2.5312h1.5273v-2.5312-0.11914h0.72266c0.27721 0 0.49086 0.04688 0.67969 0.11914 0.38166 0.14463 0.6052 0.43772 0.68554 0.92383 0.20088 0.76333 0.32256 1.3664 0.52344 1.6074h1.6465c-0.16071-0.24104-0.28155-0.64211-0.48243-1.6465-0.0844-0.36559-0.20095-0.64774-0.3496-0.88477-0.2049-0.34149-0.47783-0.58204-0.85547-0.72265v-0.08008c0.80349-0.24106 1.3652-0.8042 1.3652-1.5274 0-0.6428-0.281-1.1641-0.64258-1.4453-0.48209-0.28122-1.0436-0.48242-2.2891-0.48242zm-0.12109 1.084c0.9642 0 1.4062 0.40324 1.4062 1.0059 0 0.68298-0.68367 0.96289-1.5274 0.96289h-0.72265v-1.8887c0.1607-0.04013 0.44199-0.08008 0.84375-0.08008z" fill="#5f259f"/>
  </g>
 </g>
<script xmlns=""/></svg>