<?xml version="1.0" encoding="UTF-8" standalone="no"?>
<svg width="250px" height="250px" viewBox="0 0 250 250" version="1.1" xmlns="http://www.w3.org/2000/svg" xmlns:xlink="http://www.w3.org/1999/xlink">
    <!-- Generator: Sketch 47.1 (45422) - http://www.bohemiancoding.com/sketch -->
    <title>TCU</title>
    <desc>Created with Sketch.</desc>
    <defs></defs>
    <g id="Page-1" stroke="none" stroke-width="1" fill="none" fill-rule="evenodd">
        <g id="TCU" fill-rule="nonzero">
            <g id="TCU_Horned_Frogs_logo" transform="translate(0.000000, 64.000000)">
                <path d="M122.746474,0.174668874 C114.948461,0.174668874 108.908726,0.658609272 107.660381,0.76307947 L107.276275,0.785761589 L105.989851,0.863410596 L105.090845,1.78824503 L86.6256131,20.8081126 L85.688527,21.7716887 L85.688527,23.1177152 L85.688527,75.6160596 L85.688527,76.9322848 L86.6007786,77.8925497 L103.996474,96.3346026 L105.099123,97.5018212 L106.700116,97.3693709 L107.249785,97.319702 C107.928593,97.2634106 114.224951,96.7534768 122.413693,96.7534768 C127.855746,96.7534768 132.830911,96.980298 137.216673,97.4240066 L137.728262,97.4918874 L139.38058,97.7054636 L159.599123,76.967053 L159.599123,57.6988411 L134.652103,54.8842715 L134.652103,58.6028146 L134.652103,66.0216887 C133.292832,67.3809603 130.902103,69.7551325 129.526275,71.1309603 C127.340845,71.0481788 125.072633,71.0018212 122.756408,71.0018212 C119.698461,71.0018212 116.996474,71.0746689 114.953428,71.159106 C113.786209,69.9405629 112.072633,68.1293046 110.99813,66.9951987 L110.99813,32.1624172 C111.567666,31.5730132 112.337534,30.7733444 113.165348,29.9240066 C114.599123,28.4422185 116.170315,26.8246689 117.152103,25.8114238 C119.069322,25.7534768 120.966673,25.7269868 122.814355,25.7269868 C124.645481,25.7269868 126.455083,25.7534768 128.21005,25.8048013 C129.804421,27.3958609 133.021308,30.5746689 134.652103,32.1971854 L134.652103,38.6127483 L134.652103,41.6243377 L137.647136,41.9206954 L155.948461,43.7485099 L159.599123,44.1193709 L159.599123,40.4471854 L159.599123,23.1177152 L159.599123,21.7849338 L158.678593,20.8246689 L140.589189,1.9339404 L139.686871,0.992880795 L138.383891,0.915231788 L138.034553,0.895860927 C133.398792,0.415231788 128.259719,0.174834437 122.746474,0.174834437 L122.746474,0.174668874 Z M82.9683283,2.18923841 L79.2150171,2.6839404 L77.8921694,2.86506623 C37.7282621,8.23559603 5.50640778,22.4081126 4.1554144,23.0041391 L3.44034818,23.3319536 L1.4969707,24.2110927 L1.4969707,26.3551325 L1.4969707,61.4081126 L1.4969707,66.6399007 L6.2277654,64.4114238 L7.88339454,63.6365894 C9.93654023,62.669702 15.5923349,60.0736755 23.9186594,56.8783113 L24.63058,56.6183775 L26.8226329,55.8269868 L26.8226329,53.4958609 L26.8226329,41.8220199 C28.0809111,41.3716887 29.2812422,40.9495033 30.451772,40.5438742 L30.451772,88.8451987 C27.6256131,90.0057947 19.9186594,93.3634106 19.9186594,93.3634106 L19.9186594,122.265728 L24.6951495,119.92798 L26.3275998,119.125 C38.2348846,113.421358 50.5676661,108.484272 62.951772,104.474338 L63.7150171,104.254139 L66.099123,103.54553 L66.099123,76.7640728 C66.099123,76.7640728 57.0626992,79.4395695 55.3921694,79.9528146 L55.3921694,33.1001656 C56.7199839,32.7640728 57.9749508,32.4610927 59.1719707,32.1763245 L59.1719707,41.6332781 L59.1719707,45.8087748 L63.2365402,44.875 L64.65707,44.5504967 C69.7928316,43.3783113 74.6968051,42.4048013 79.2282621,41.6531457 L80.1918382,41.4942053 L82.9683283,41.0256623 L82.9683283,38.2193709 L82.9683283,5.98261589 L82.9683283,2.19321192 L82.9683283,2.19006623 L82.9683283,2.18923841 Z M162.027931,2.54817881 L162.031242,2.5513245 L162.031242,6.41887417 L162.031242,25.6887417 L162.031242,28.589404 L164.908726,28.8708609 L165.910381,28.9701987 L165.943494,28.9801325 L165.976606,28.9801325 C166.589189,29.0281457 167.681904,29.1390728 169.205083,29.3294702 L169.205083,79.8129139 L169.205083,80.7450331 L169.685216,81.5099338 L183.443494,103.799669 L184.122302,104.918874 L185.413693,105.216887 L185.844156,105.319536 C188.062699,105.859272 199.850779,108.86755 212.019653,114.533113 L212.698461,114.849338 L214.685216,115.771523 L216.357401,114.261589 L239.585878,93.3029801 L240.744818,92.2682119 L240.744818,90.7433775 L240.744818,48.3923841 C241.589189,48.7847682 249.834222,52.6175497 249.834222,52.6175497 L249.834222,47.2433775 L249.834222,26.3410596 L249.834222,24.2516556 L247.963361,23.4155629 L247.30111,23.1241722 C238.178593,18.9205298 227.267997,15.1374172 214.93356,11.8933775 L213.410381,11.511755 L209.155414,10.4413907 L209.155414,14.8650662 L209.155414,34.8021523 L209.155414,37.2011589 L211.440183,37.8700331 C212.74813,38.2574503 214.387202,38.7442053 215.711706,39.1316225 L215.711706,81.6150662 C214.420315,82.7872517 212.350779,84.6680464 210.910381,85.9677152 C208.029587,84.9875828 202.698461,83.1995033 200.413693,82.4263245 C199.138858,80.3567881 196.191838,75.5687086 195.06601,73.714404 L195.06601,33.7955298 C197.052765,34.2226821 199.006408,34.6432119 199.155414,34.6779801 L203.294487,35.5637417 L203.294487,31.2955298 L203.294487,11.6680464 L203.294487,9.01307947 L200.69515,8.52466887 L199.867335,8.36622517 C184.618991,5.15562914 171.903759,3.6410596 167.152103,3.13741722 L165.844156,2.98874172 L162.027931,2.54900662 L162.027931,2.54817881 Z" id="Shape" fill="#4D2380"></path>
                <path d="M118.554421,2.86506623 C116.465017,2.88592715 114.597467,2.93360927 113.200116,3.01705298 L107.3276,3.36953642 L97.8557455,13.0316225 L88.3822356,22.7003311 L88.3921694,49.3675497 L88.4021031,76.0430464 L97.1289243,85.2649007 L105.857401,94.4933775 L108.436871,94.4586093 C119.574289,94.3162252 132.926938,94.4006623 135.008063,94.6258278 C136.392169,94.7764901 137.696805,94.9221854 137.912037,94.9503311 C138.127269,94.9768212 142.542832,90.6672185 147.726606,85.3708609 L157.145481,75.7417219 L157.145481,67.9519868 L157.145481,60.1622517 L156.223295,59.9751656 C155.716673,59.8725166 151.754752,59.4072848 147.418659,58.9403974 C143.082567,58.4735099 139.041176,58.0082781 138.441838,57.9089404 L137.352434,57.7235099 L137.352434,62.3642384 L137.352434,66.9983444 L134.02462,70.3162252 L130.693494,73.6274834 L122.367335,73.6754967 L114.034553,73.7268212 L111.266342,71.0331126 L108.501441,68.339404 L108.501441,49.692053 L108.501441,31.0364238 L112.223295,27.1208609 L115.941838,23.205298 L122.622302,23.205298 L129.312699,23.205298 L133.332567,27.1043046 L137.352434,31.0099338 L137.352434,35.1589404 C137.352434,37.4403974 137.466673,39.307947 137.60409,39.307947 C138.109057,39.3096026 154.667004,40.9784768 155.887202,41.1506623 L157.145481,41.3294702 L157.145481,32.1655629 L157.145481,23.0016556 L147.8425,13.2870861 L138.542832,3.57649007 L136.527931,3.36291391 C133.082567,2.99900662 124.829255,2.80248344 118.561044,2.86506623 L118.554421,2.86506623 L118.554421,2.86506623 Z M79.7315733,5.20943709 C79.4087257,5.30082781 78.3176661,5.47135762 77.3027654,5.5910596 C67.3143548,6.76821192 49.7299177,10.5754967 36.2067389,14.4834437 C24.7232952,17.8029801 4.67362632,25.0430464 4.30442103,26.0082781 C4.22346076,26.218543 4.19763295,34.4966887 4.24564619,44.4039735 L4.33289785,62.4188742 L8.6951495,60.4238411 C11.093825,59.3278146 15.5837257,57.4271523 18.6703151,56.1937086 L24.2812422,53.9569536 L24.3756131,46.9304636 L24.4617058,39.9072848 L28.6471363,38.4354305 C30.9468051,37.6241722 32.8723018,36.9602649 32.925282,36.9602649 C32.9766065,36.9602649 33.0179972,49.044702 33.0179972,63.8162252 L33.0179972,90.6754967 L32.0974674,90.9983444 C31.5891892,91.1771523 29.2845535,92.134106 26.9782621,93.1258278 L22.7845535,94.9271523 L22.6968051,106.39404 C22.5958118,119.600993 22.0974674,118.336093 26.5577323,116.155629 C35.5593879,111.756623 52.2365402,105.115894 61.6173349,102.190397 L63.5477985,101.587748 L63.5477985,90.8874172 L63.5477985,80.1953642 L62.791176,80.4337748 C59.6819045,81.4238411 53.4203151,83.2599338 53.1487919,83.2599338 C52.9285932,83.2599338 52.8110435,74.2566225 52.8110435,57.1572848 L52.8110435,31.0596026 L56.7497853,30.0993377 C58.9186594,29.5695364 60.9583945,29.0678808 61.2812422,28.9834437 C61.8259442,28.8410596 61.8689906,29.3178808 61.8689906,35.5794702 C61.8689906,40.7566225 61.9716396,42.3278146 62.2928316,42.3245033 C62.5229641,42.3228477 65.1206462,41.8013245 68.0643548,41.1639073 C71.009719,40.5281457 74.9716396,39.7516556 76.8706462,39.4403974 L80.3209773,38.8741722 L80.3209773,21.9602649 C80.3209773,6.00993377 80.2862091,5.05629139 79.7315733,5.21192053 L79.7315733,5.20943709 L79.7315733,5.20943709 Z M164.527931,5.41953642 L164.508063,5.42284768 L164.527931,5.42599338 L164.527931,5.41953642 Z M164.527931,5.42599338 L164.527931,15.7798013 L164.527931,26.147351 L165.96005,26.3410596 C166.738196,26.4470199 168.393825,26.6307947 169.652103,26.7516556 L171.903759,26.9751656 L171.903759,53.5198675 L171.903759,80.0711921 L178.873957,91.3410596 L185.8276,102.614238 L188.178593,103.205298 C194.35409,104.774834 205.844156,108.846026 212.168659,111.69702 L214.35409,112.677152 L219.387202,108.107616 C222.152103,105.592715 227.466673,100.771523 231.208395,97.3940397 L237.996474,91.25 L237.996474,67.9619205 C237.996474,47.5463576 238.062699,44.6788079 238.493163,44.6788079 C238.77462,44.6788079 240.794487,45.5082781 242.979918,46.5231788 C245.165348,47.5380795 247.052765,48.3692053 247.168659,48.3692053 C247.30111,48.3692053 247.400448,43.3360927 247.400448,37.1804636 L247.400448,25.9850993 L243.625613,24.3758278 C235.562699,20.9370861 224.950116,17.2847682 216.357401,15.0033113 C214.519653,14.5135762 212.74813,14.0346026 212.417004,13.9402318 C211.870646,13.7794702 211.837534,14.4384106 211.837534,24.4950331 L211.837534,35.2168874 L214.089189,35.9039735 C215.347467,36.2781457 216.771308,36.6837748 217.284553,36.807947 L218.211706,37.0347682 L218.211706,59.9387417 L218.211706,82.8327815 L214.850779,85.8824503 L211.506408,88.9254967 L205.032898,86.7516556 L198.559388,84.5827815 L195.463361,79.4735099 L192.367335,74.3708609 L192.350779,52.4784768 C192.350779,40.4387417 192.417004,30.5910596 192.499785,30.5910596 C192.56601,30.5910596 194.387202,30.9668874 196.522964,31.4271523 C198.642169,31.8890728 200.479918,32.2615894 200.562699,32.2615894 C200.662037,32.2615894 200.744818,27.5347682 200.744818,21.75 L200.744818,11.2271523 L195.446805,10.1794702 C187.814355,8.66622517 181.357401,7.61274834 173.741507,6.62897351 C170.049454,6.15298013 166.456739,5.6852649 165.761375,5.5910596 L164.527931,5.42599338 Z" id="Shape" fill="#FFFFFF"></path>
                <g id="Group" transform="translate(4.966887, 3.311258)" fill="#4D2380">
                    <path d="M117.77649,1.05264901 C110.058113,1.05264901 104.125497,1.5336755 103.013576,1.63188742 L102.894768,1.64180464 L84.9129801,20.1616722 L84.9129801,71.9514073 L101.790464,89.8437914 L101.914238,89.8288907 C102.627136,89.7686921 109.06043,89.2496523 117.434603,89.2496523 C123.042715,89.2496523 128.178974,89.4819371 132.722351,89.9476987 L132.865927,89.9674669 L150.44043,71.9475993 L150.44043,58.1351821 L133.875861,56.2588576 L133.875861,64.4474338 L133.618427,64.6999172 C133.067119,65.2607285 127.112632,71.1934603 126.469586,71.8239238 L126.197301,72.0912583 L125.816093,72.0714901 C123.265596,71.9447517 120.565099,71.8833609 117.795894,71.8833609 C113.990762,71.8833609 110.724371,72.0047517 108.661788,72.1061424 L108.260795,72.1259106 L106.740927,70.5268212 C105.108477,68.8016556 102.476026,66.0334437 102.07702,65.6245033 L101.834437,65.3720199 L101.834437,27.1634106 L102.07702,26.9109272 C102.298808,26.6732947 103.495298,25.4379967 104.89904,23.9900662 C107.075695,21.7468543 109.753344,18.9816225 110.092252,18.6235099 L110.334834,18.3660762 L110.691275,18.3561424 C115.523063,18.1787086 120.27952,18.1787086 124.68697,18.3561424 L125.023609,18.3660762 L125.266192,18.5987748 C125.8175,19.1437417 133.02745,26.2974503 133.623146,26.8961258 L133.875629,27.1486093 L133.875629,34.5151656 L150.440199,36.1736093 L150.440199,20.1578808 L132.820993,1.76549669 L132.741788,1.76054636 C128.200397,1.28819536 123.182185,1.04614238 117.783179,1.04614238 L117.77649,1.05264901 Z" id="Shape"></path>
                    <path d="M73.8062914,3.6615894 L73.4745861,3.7061457 C33.8934603,8.99836424 2.21630795,22.9379338 0.890149007,23.5273377 L0.721821192,23.5966424 L0.721821192,56.7257815 L1.13273179,56.5277351 C3.2175,55.5391755 8.99481788,52.8934636 17.4799172,49.6361788 L17.6680464,49.5668742 L17.6680464,35.5663775 L18.2373841,35.3633974 C22.0618874,33.9692748 25.4297682,32.7908808 28.5349007,31.7642252 L29.6785099,31.3830166 L29.6785099,88.3565265 L29.1289735,88.5793079 C25.5359272,90.0209636 22.3213576,91.3710298 19.3016556,92.7081159 L19.1333278,92.7823874 L19.1333278,112.239341 L19.5194702,112.051212 C31.6356954,106.240285 44.1486093,101.231013 56.734702,97.1594901 L56.9376821,97.0951358 L56.9376821,79.0703013 L56.5812417,79.1792252 C53.5618709,80.0442086 50.4653477,81.0017417 47.3729636,82.0060464 L46.2342881,82.3773377 L46.2342881,26.528 L46.8877815,26.3596722 C50.9591391,25.3140762 54.2829801,24.5083477 57.3437417,23.8398046 L58.3982616,23.6120894 L58.3982616,37.2314603 L58.7596689,37.1473046 C63.9939404,35.9559636 68.9783775,34.9638609 73.5821854,34.2064106 L73.8049669,34.1667914 L73.8049669,3.66016887 L73.8062914,3.6615894 Z" id="Shape"></path>
                    <path d="M161.258278,4.12201987 L161.258278,21.617053 L161.520679,21.646755 C162.468046,21.716457 164.604454,21.9436093 167.719023,22.3745199 L168.436871,22.4784934 L168.436871,76.2582947 L181.887864,98.0414073 L181.976937,98.0711093 C184.289851,98.6287583 196.408725,101.72144 208.933891,107.541805 L209.097301,107.616076 L231.579089,87.3230298 L231.579089,38.7816391 L232.811838,39.2866225 C235.384685,40.3512252 237.827897,41.4425828 240.267632,42.6084768 L240.683477,42.8065232 L240.683477,23.8495695 L240.520232,23.7852152 C231.556821,19.6598841 220.872881,15.9626987 208.766921,12.7848841 L208.395629,12.6908113 L208.395629,30.8447848 C209.979868,31.3105464 214.221788,32.5578642 214.361192,32.6022351 L214.955281,32.780447 L214.955281,80.1877318 L214.658245,80.4550828 C213.983361,81.0697682 208.07298,86.4367053 207.217517,87.2126987 L206.826391,87.5641887 L206.336275,87.4008278 C205.16394,86.9952649 193.533626,83.0864238 192.900017,82.8710265 L192.617831,82.7769536 L192.464354,82.529404 C192.033444,81.8545199 186.319818,72.5429801 186.028262,72.0486093 L185.909553,71.8456291 L185.909553,25.3886755 L187.003659,25.6312583 C187.767252,25.802351 192.094553,26.7305132 194.147699,27.1709272 L194.147699,9.35304636 L193.954619,9.3183957 C178.838725,6.13760099 166.305613,4.64952152 161.620182,4.15515066 L161.275447,4.12524007 L161.258278,4.12201987 Z" id="Shape"></path>
                </g>
            </g>
        </g>
    </g>
</svg>