<?xml version="1.0" encoding="UTF-8" standalone="no"?>
<svg width="250px" height="250px" viewBox="0 0 250 250" version="1.1" xmlns="http://www.w3.org/2000/svg" xmlns:xlink="http://www.w3.org/1999/xlink">
    <!-- Generator: Sketch 47.1 (45422) - http://www.bohemiancoding.com/sketch -->
    <title>TEXAM</title>
    <desc>Created with Sketch.</desc>
    <defs/>
    <g id="Page-1" stroke="none" stroke-width="1" fill="none" fill-rule="evenodd">
        <g id="TEXAM" fill-rule="nonzero">
            <g id="Texas_A&amp;M_University_logo" transform="translate(0.000000, 23.000000)">
                <polygon id="Shape" fill="#500000" points="220.546559 67.2064777 202.125506 105.668016 183.704453 67.2064777 155.870445 67.2064777 155.870445 84.6153846 162.246964 84.6153846 162.246964 137.753036 155.566802 137.753036 155.566802 155.161943 186.94332 155.161943 186.94332 137.753036 180.161943 137.753036 180.161943 100.101215 202.277328 145.647773 224.392713 100.101215 224.392713 137.753036 217.712551 137.753036 217.712551 155.161943 249.089069 155.161943 249.089069 137.753036 242.408907 137.753036 242.408907 84.6153846 249.089069 84.6153846 249.089069 67.1052632"/>
                <path d="M27.7327935,66.8016194 L65.0809717,66.8016194 L65.0809717,84.1093117 L60.5263158,84.1093117 L83.805668,137.753036 L93.3198381,137.753036 L93.3198381,155.060729 L59.4129555,155.060729 L59.4129555,137.854251 L64.4736842,137.854251 L60.7287449,128.947368 L32.7935223,128.947368 L29.048583,137.854251 L34.1093117,137.854251 L34.1093117,155.161943 L0.20242915,155.161943 L0.20242915,137.854251 L9.71659919,137.854251 L32.9959514,84.2105263 L27.9352227,84.2105263 L27.9352227,66.902834 L27.7327935,66.8016194 Z M46.7611336,96.659919 L40.1821862,111.639676 L53.340081,111.639676 L46.7611336,96.659919 Z" id="Shape" fill="#500000"/>
                <polygon id="Shape" fill="#500000" points="27.7327935 0 221.052632 0 221.052632 55.3643725 182.995951 55.3643725 182.995951 34.4129555 143.016194 34.4129555 143.016194 166.700405 164.271255 166.700405 164.271255 204.453441 84.1093117 204.453441 84.1093117 166.700405 105.364372 166.700405 105.364372 34.4129555 65.3846154 34.4129555 65.3846154 55.3643725 27.3279352 55.3643725 27.3279352 0"/>
                <polygon id="Shape" fill="#FFFFFF" points="34.9190283 7.79352227 209.412955 7.79352227 198.88664 15.8906883 43.2186235 15.8906883"/>
                <polygon id="Shape" fill="#FFFFFF" points="127.226721 18.7246964 135.222672 26.6194332 135.222672 175 127.226721 182.894737"/>
                <polygon id="Shape" fill="#FFFFFF" points="213.461538 11.9433198 213.461538 48.2793522 205.465587 40.5870445 205.465587 20.1417004"/>
                <polygon id="Shape" fill="#FFFFFF" points="156.52834 174.291498 156.52834 196.862348 148.431174 189.271255 148.431174 182.692308"/>
            </g>
        </g>
    </g>
<script xmlns=""/></svg>