<svg xmlns="http://www.w3.org/2000/svg" height="112.75" viewBox="0 0 150 112.75317" width="150"><g transform="matrix(1.25 0 0 -1.25 -48.595 957.6)"><g transform="matrix(1.2968 0 0 1.2968 -28.293 -212.96)"><path d="m56.162 7.9414c-2.8243-0.038-6.1633 1.2595-9.1328 1.791-0.20875 0.0375-0.41805 0.071562-0.62305 0.10156-2.7825 0.39375-6.833-0.43891-6.8418-0.44141 0.0012 0.0025 0.78203 1.4052 2.7695 3.0215 0.9575 0.77875 2.1903 1.6073 3.7578 2.3535l-0.38672 0.60547c-0.07375 0.11625-0.15695 0.24648-0.25195 0.39648-2.2225-0.90625-4.5879-3.0117-4.5879-3.0117s3.9959 7.614 8.3047 14.303c1.9762-0.0925 3.6743-0.39 5.1543-0.90625 0.35-0.1225 0.68976-0.18359 1.0098-0.18359 0.70625 0 1.3346 0.30766 1.7246 0.84766 0.23875 0.33 0.58594 1.0399 0.24219 2.0762-0.995 3.005-3.4966 5.0798-7.3379 6.166-0.1375 0.7575-0.31047 1.9912-0.32422 3.4375 0.10625 0.01875 0.2093 0.04227 0.31055 0.07227 0.4175-0.61875 1.2578-1.7572 2.4766-2.8984 0.75625-0.70875 1.653-1.4168 2.6855-1.998l0.57812 0.7832s-2.8985 1.7055-4.7598 4.6543c0.10625 0.09375 0.20281 0.19539 0.28906 0.30664 0.71875-0.37 2.003-0.95492 3.873-1.5449 1.2912-1.8 2.7595-3.5739 4.4707-5.4102 5.555-5.9612 9.6351-7.6845 12.268-7.9707-2.3712-8.4825-1.5547-12.797-1.5547-12.797s-3.6066-0.55062-6.3828 3.4844c0 0 0.08762 0.41555 0.25391 0.9668 0.07875 0.26 0.17477 0.5493 0.29102 0.8418h-0.002c-0.59875-0.32125-1.0466-0.90945-1.7266-3.1582-0.7825-2.5925-1.9298-5.1864-5.3711-5.7852-0.38-0.0668-0.772-0.0988-1.176-0.1042zm19.984 28.039c-0.39 0.6475-0.83508 1.312-1.3301 1.9883 1.115 0.2725 2.1314 0.5532 2.6602 0.7832-0.475-0.95-0.91383-1.8702-1.3301-2.7715zm-7.9727 11.422c-1.385 0.42625-2.7978 0.81906-4.1016 1.1641-1.6712 1.3212-3.475 2.6595-5.4062 4.002-0.13375 0.0925-0.43328 0.31477-0.51953 0.38477-0.18625 0.15125-0.03773 0.22617 0.07227 0.20117 2.1962-0.49625 5.8676-2.7882 9.9551-5.752zm8.623 3.0449c-0.7575 0.605-1.4573 1.165-2.0273 1.625 0.635 0.455 1.4093 0.75734 2.1543 0.83984-0.14125-1.025-0.1457-1.9148-0.12695-2.4648zm-8.4453 6.1953c-4.07 2.585-7.7018 3.9756-10.811 4.1406 0.21625 3.56 1.9473 5.0312 1.9473 5.0312l0.12695 1.3281c-1.81-1.0438-2.3184-3.2168-2.3184-3.2168 0.80375 9.2388-0.45117 12.514-0.45117 12.514s1.8708-1.5997 3.1133-3.3359c0.24875 1.7025-3.1738 4.1518-3.1738 5.7168 0.42625-0.1175 0.85516-0.20695 1.2852-0.2832l0.0098-0.0078h0.03125c2.455-0.4275 4.9383-0.22062 7.3008 0.10938h0.0059l0.01172 0.002c1.535 0.215 3.0196 0.48055 4.4121 0.6543 3.255 0.4075 6.0551 0.2243 7.3301-1.4707 1.6588-2.2062-1.8613-6.6816-1.8613-6.6816 0.90375 0.2425 2.5745-0.33766 4.3945-1.0039 1.3012-0.47625 2.7955-0.90031 3.8555-1.1328-1.6562-2.6225-3.5576-6.4462-4.4238-8.2324-4.69-0.0725-8.4014-1.4934-10.785-4.1309z" transform="matrix(.8 0 0 -.8 52.427 754.34)" fill="#f5002e"/><path d="m77.98 754.34c-1.214 0-2.1969-0.98387-2.1969-2.1969 0-0.95799 0.61631-1.7636 1.4703-2.0656l2.2063-15.975c0.087-0.016 0.17237-0.0314 0.25937-0.0484 0.645-0.12 1.3093-0.2425 1.9813-0.3625l-2.7609 16.483c0.73 0.35699 1.2375 1.1008 1.2375 1.9687 0 1.213-0.98388 2.1969-2.1969 2.1969zm2.4-3.7812c-0.19139 0.0181-0.38294-0.0762-0.47969-0.25625-0.129-0.24-0.039-0.53975 0.2-0.66875 0.847-0.456 1.8212-1.5624 1.8312-1.5734 0.098-0.111 0.23488-0.16719 0.37188-0.16719 0.115 0 0.23044 0.0399 0.32344 0.12188 0.205 0.179 0.22588 0.49031 0.04687 0.69531-0.045 0.05-1.1022 1.2512-2.1062 1.7922-0.06 0.0322-0.1237 0.0502-0.1875 0.0562zm16.606-1.7578c-2.0335 0.0217-4.0659-0.64063-5.5234-1.0031-2.525-0.628-4.0216-0.68219-7.6156-0.0422-0.617 0.11-0.909 0.00087-1.075-0.17813-0.185-0.201-0.15894-0.51406-0.01094-0.91406 0.661-1.78 5.9498-10.919 7.7828-13.997 0.041 0 0.08244-0.003 0.12344-0.003 0.378 0 0.73975 0.0111 1.0938 0.0281-3.447 5.351-6.6422 11.442-6.6422 11.442s1.8923-1.6828 3.6703-2.4078c0.076 0.12 0.14412 0.22262 0.20312 0.31562l0.30781 0.48438c-1.254 0.597-2.2402 1.2598-3.0062 1.8828-1.59 1.293-2.2146 2.4162-2.2156 2.4172 0 0 3.2454-0.66757 5.4734-0.35157 0.164 0.023 0.33044 0.0497 0.49844 0.0797 2.714 0.486 5.8159 1.773 8.2469 1.35 2.753-0.479 3.6699-2.5541 4.2969-4.6281 0.543-1.8 0.90225-2.2696 1.3812-2.5266-0.092 0.234-0.16825 0.46544-0.23125 0.67344-0.134 0.441-0.20156 0.77344-0.20156 0.77344 2.221 3.228 5.1047 2.7875 5.1047 2.7875s-0.65225-3.4531 1.2438-10.239c0.235 0.026 0.45494 0.0391 0.66094 0.0391 0.058 0 0.11488-0.007 0.17188-0.008-1.027 3.547-1.7407 7.4098-1.2547 10.558 0.024 0.153-0.0798 0.29744-0.23281 0.32344-0.866 0.152-3.6049 0.33056-5.8859-2.8234-0.535 1.752-0.98757 3.7762-2.8266 4.9782-1.0969 0.71775-2.3174 0.97605-3.5375 0.98906zm1.9453-6.5422c-0.68392-0.004-1.4592-0.0868-2.3375-0.27031 0 0 2.9109-6.0291 2.9109-10.828 0 0 0.79857 0.30469 1.7766 0.20469 0.749 0.676 2.4118 2.063 4.6938 3.35-0.22 1.452-0.49413 3.3918-0.55313 4.4328l-1.3812-0.69062s-0.32192 3.828-5.1094 3.8016zm-2.4156-14.859c-0.826-0.464-1.5434-1.0299-2.1484-1.5969-0.975-0.914-1.6488-1.8238-1.9828-2.3188 0.298-0.089 0.56594-0.23581 0.78594-0.43281 1.489 2.358 3.8058 3.7224 3.8078 3.7234l-0.4625 0.625zm-4.1187-1.1078c-0.363-0.103-0.73981-0.195-1.1328-0.275l-0.02656-0.20156-0.15-2.2312h0.625c0.146 0 0.287-0.0182 0.425-0.0422 0.01 1.158 0.14938 2.143 0.25938 2.75zm21.306-0.11094c-0.112-0.207-0.23337-0.415-0.35937-0.625 0.333-0.721 0.68406-1.4572 1.0641-2.2172-0.423 0.184-1.2361 0.40856-2.1281 0.62656-0.171-0.233-0.34993-0.46869-0.53593-0.70469 1.135-0.231 2.4451-0.6255 3.0391-0.8125 0.157 0.116 0.3105 0.22794 0.4625 0.33594l-1.5422 3.3969zm-33.142-0.05 0.35312-2.5547c0.062 0.002 0.1235 0.008 0.1875 0.008h1.9609c0.114 0 0.22481-0.009 0.33281-0.0234l-0.37031 2.2156c-0.905 0.096-1.7391 0.22069-2.4641 0.35469zm15.938-2.0891c-1.495-0.471-2.5219-0.9405-3.0969-1.2375 0.072-0.092 0.13762-0.18775 0.19062-0.29375 0.096-0.193 0.152-0.39612 0.175-0.60312 0.368 0.164 1.0537 0.463 1.8047 0.775 0.296 0.456 0.60456 0.90937 0.92656 1.3594zm-12.441-4.4344c-0.61-0.856-1.3984-1.9664-2.1734-3.0594l0.17812-1.2938 0.19688 0.26563 0.025 0.0344c0.679 0.926 1.3649 1.861 1.9969 2.725l-0.22344 1.3281zm24.361-2.1156c-0.965-0.333-2.1678-0.71037-3.5938-1.0844-0.371-0.306-0.75063-0.61231-1.1406-0.92031 1.042 0.275 2.1722 0.59024 3.2812 0.93124 0.477 0.347 0.96313 0.70644 1.4531 1.0734zm5.9188-3.1312c-0.16-0.128-0.31844-0.25412-0.47344-0.37812-0.015-0.44-0.0114-1.1519 0.10156-1.9719 0.107-0.011 0.21431-0.0187 0.32031-0.0187 0.086 0 0.17057 0.003 0.25157 0.0109-0.125 0.759-0.185 1.5248-0.2 2.3578zm-7.4609-6.8891c-0.889-0.578-1.8281-1.0094-1.8281-1.0094s1.7236-4.3606 1.4406-8.5266c4.345-1.054 5.0761 0.51081 7.1031 0.50781-0.129 1.11-1.5869 1.7483-1.5469 2.8813 0.029 0.81 0.85531 1.2072 1.4953 1.2562l-0.95312 2.2484s-2.8749 0.34319-5.7109 2.6422zm-23.539-1.4453 2.7625-20.008h1.3187l-2.3766 18.508-0.15156 1.1625c-0.585 0.056-1.0981 0.1785-1.5531 0.3375zm13.803-0.28438c0.238-3.119 0.76462-8.6119-0.10938-12.061-0.577-2.276-0.463-2.9777-0.05-3.2187 0.383-0.223 1.0651 0.14774 2.6141 0.29374 2.692 0.255 5.2583-0.14074 8.5813-0.59374 3.168-0.431 5.04-0.11263 6.3 1.0594 0.263 0.245 0.46112 0.51244 0.60312 0.79844 0.631 1.266 0.14394 2.8968-0.88906 4.5688 0 0 2.6319 1.4346 6.0359 2.0266 0.176 0.031 0.26419 0.22869 0.16719 0.37969-0.633 0.986-2.5702 4.0717-3.7922 6.7297-0.186-0.005-0.3735-0.008-0.5625-0.008-0.103 0-0.20213 0.004-0.30313 0.005 0.692-1.428 2.2151-4.4895 3.5391-6.5875-0.848-0.186-2.0424-0.52369-3.0844-0.90469-1.456-0.533-2.7921-0.99713-3.5141-0.80313 0 0 2.8151-3.5813 1.4891-5.3453-1.02-1.357-3.2616-1.5026-5.8656-1.1766-1.113 0.139-2.3007 0.35144-3.5297 0.52344-0.004 0.00096-0.0101 0.00056-0.0141 0.002-1.891 0.264-3.8766 0.4285-5.8406 0.0875-0.011-0.002-0.02025-0.004-0.03125-0.006-0.344-0.061-0.68769-0.13157-1.0297-0.22657 0 1.252 2.7396 3.2114 2.5406 4.5734-0.994-1.388-2.4906-2.6688-2.4906-2.6688s1.0024 2.6209 0.35938 10.011c0 0 0.40825-1.7384 1.8563-2.5734l-0.10469 1.0625s-1.3832 1.176-1.5562 4.025c-0.167-0.01-0.33388-0.0141-0.49688-0.0141-0.287 0-0.55888 0.0172-0.82188 0.0422zm-10.752-0.0547c-0.257-0.023-0.51038-0.0359-0.75938-0.0359-0.014 0-0.02662 0.003-0.04062 0.003l0.17812-1.0422 3.1781-18.594h0.7375l-3.2937 19.669zm10.212-16.094c-0.12562-0.0107-0.24638-0.0694-0.33438-0.17343-0.818-0.97-1.1918-2.5309-1.2078-2.5969-0.062-0.264 0.10375-0.53019 0.36875-0.59219 0.038-0.009 0.0755-0.0125 0.1125-0.0125 0.223 0 0.42669 0.15269 0.47969 0.37969 0.003 0.014 0.332 1.3949 1 2.1859 0.175 0.208 0.15019 0.51775-0.05782 0.69375-0.1045 0.088-0.23531 0.12637-0.36094 0.11562z"/><path d="m71.327 735.19c-3.724 0-8.3702-0.52344-11.281-4.5984-0.4-0.559-0.46038-1.2681-0.15938-1.8531 0.288-0.558 0.86031-0.90625 1.4953-0.90625 0.084 0 0.16969 0.007 0.25469 0.0187 1.847 0.264 3.6448 0.39687 5.3438 0.39687 1.536 0 2.9722-0.10562 4.2812-0.31562-2.551-3.662-5.6684-8.618-6.8844-10.55l-0.27031-0.42969c-0.048-0.076-0.106-0.17025-0.175-0.28125-2.544-4.099-4.0598-5.3777-4.8828-5.7297-0.605-0.258-1.1878-0.38282-1.7828-0.38282-0.719 0-1.4595 0.18113-2.2625 0.55313-0.294 0.137-0.58969 0.20625-0.87969 0.20625-0.632 0-1.1879-0.32363-1.4859-0.86563-0.316-0.576-0.27475-1.3062 0.10625-1.9062 1.461-2.301 5.2023-4.2438 8.1703-4.2438 0.395 0 0.774 0.0341 1.125 0.10313 1.958 0.382 3.2578 1.1208 5.7828 4.4828 1.683 2.24 3.6047 5.1729 5.1547 7.5859 0.367-0.228 0.79625-0.40869 1.2062-0.52969-0.176-0.258-0.322-0.46919-0.425-0.61719-2.107-3.027-2.0891-5.1834-1.7031-6.4594 0.385-1.271 1.2893-2.2429 2.5453-2.7359 0.668-0.263 1.4199-0.39531 2.2359-0.39531 1.994 0 3.8546 0.76925 4.7906 1.2312 0.232-0.186 0.51225-0.37288 0.83125-0.54688 0.262-0.143 0.55369-0.27506 0.87969-0.38906 0.454-0.159 0.96812-0.2815 1.5531-0.3375 0.223-0.021 0.45488-0.0324 0.69688-0.0344 0.014 0 0.02718-0.003 0.04218-0.003 0.248 0 0.50238 0.0129 0.75938 0.0359 0.266 0.023 0.5375 0.0614 0.8125 0.10937 1.675 0.294 3.5119 1.0425 5.4859 2.2375 0.634-0.795 1.7674-1.7848 3.6234-2.1688 0.262-0.054 0.53769-0.097 0.82969-0.125 0.263-0.024 0.53388-0.0406 0.82188-0.0406 0.163 0 0.32988 0.004 0.49688 0.0125 2.487 0.132 5.3934 1.2461 8.6484 3.3141 1.907-2.11 4.8751-3.2467 8.6281-3.3047 0.101-0.00096 0.19956-0.005 0.30156-0.005 0.19 0 0.37807 0.003 0.56407 0.008 0.3 0.008 0.59437 0.0238 0.88437 0.0438 2.71 0.185 4.9439 0.83744 6.0609 1.2234 0.672-0.623 1.4846-1.0394 2.3156-1.1844 0.378-0.066 0.77032-0.1 1.1703-0.1 1.633 0 3.1346 0.53769 4.2016 1.0547 0.594-0.656 1.4231-1.0125 2.3781-1.0125 1.07 0 2.2824 0.45794 3.6094 1.3609 0.927 0.631 1.6658 1.3631 2.2578 2.2391 0.659 0.977 0.43632 1.7254 0.24532 2.0844-0.291 0.549-0.85763 0.87656-1.5156 0.87656-0.3 0-0.61569-0.0671-0.95469-0.20313 0.097 0.133 0.206 0.27557 0.325 0.42657l0.0141 0.0188c0.004 0.005 0.008 0.0106 0.0125 0.0156l5.7109 7.9688c0.451 0.602 0.53475 1.3434 0.21875 1.9734-0.331 0.662-1.0522 1.0734-1.8812 1.0734h-1.8141c-0.541 0-1.0253-0.10663-1.4453-0.31563-0.772 0.517-1.7982 0.78907-2.9922 0.78907-1.593 0-3.3791-0.47357-4.9031-1.3016-2.449-1.329-4.9214-3.9909-7.1484-7.6969-0.324-0.539-0.659-1.0035-1-1.3875 0.175 2.33-0.21238 4.7626-0.60938 6.5156l-0.006 0.0266c-0.009 0.038-0.0153 0.0681-0.0203 0.0891-0.022 0.106 0.009 0.14656 0.0391 0.17656 0.255 0.258 0.44482 0.39269 0.70782 0.57969 0.149 0.105 0.31468 0.22287 0.50468 0.37187 0.759 0.59 0.8175 1.4135 0.6375 1.9375-0.491 1.43-2.5608 1.5406-3.1828 1.5406-1.296 0-2.7541-0.53694-4.4891-1.6609-0.225-0.146-0.4535-0.30063-0.6875-0.46563-0.152-0.107-0.3065-0.21781-0.4625-0.33281-0.258-0.192-0.52431-0.39806-0.79531-0.61406-0.046-0.037-0.0921-0.0714-0.13907-0.10938-1.008-0.811-2.0382-1.6287-3.0672-2.4297-0.793-0.616-1.5841-1.2222-2.3641-1.8062-0.49-0.367-0.97512-0.72488-1.4531-1.0719-3.269-2.371-6.2045-4.2061-7.9625-4.6031-0.087-0.02-0.20781 0.0431-0.05782 0.16406 0.069 0.056 0.30762 0.23281 0.41562 0.30781 1.545 1.074 2.988 2.143 4.325 3.2 0.39 0.308 0.76862 0.61431 1.1406 0.92031 0.517 0.426 1.0159 0.85088 1.4969 1.2719 1.912 1.673 3.5335 3.3018 4.8375 4.8578 0.203 0.243 0.39637 0.48444 0.58437 0.72344 0.186 0.237 0.36494 0.47169 0.53594 0.70469 0.397 0.541 0.75206 1.0711 1.0641 1.5891 0.126 0.211 0.24738 0.42056 0.35938 0.62656 0.175 0.321 0.33031 0.63588 0.47031 0.94688 0.451 1.005 0.71862 1.9534 0.79062 2.8344 0.119 1.473-0.30512 2.7242-1.2281 3.6172-0.578 0.56-1.3037 0.92787-2.1297 1.0969-0.283 0.057-0.57681 0.091-0.88281 0.1-0.057 0.002-0.11288 0.006-0.17188 0.006-0.206 0-0.42593-0.0109-0.66093-0.0359-2.105-0.228-5.3701-1.606-9.8141-6.375-1.369-1.47-2.5436-2.8912-3.5766-4.3312-0.323-0.45-0.63212-0.90182-0.92812-1.3578-0.258-0.398-0.50844-0.79924-0.74844-1.2062-1.123-1.906-2.0537-3.9147-2.8797-6.1797-1.711-1.743-3.3679-2.6678-4.5359-3.0938 0.105 0.154 0.20256 0.29356 0.27656 0.40156 1.399 2.02 5.1274 7.1751 5.6844 7.9281 0.098 0.13 0.1745 0.26626 0.2375 0.40626 0.142 0.314 0.19538 0.64574 0.15938 0.96874-0.022 0.208-0.07644 0.41013-0.17344 0.60313-0.053 0.106-0.11962 0.20331-0.19062 0.29531-0.07 0.089-0.14625 0.17032-0.23125 0.24532-0.22 0.196-0.48638 0.34381-0.78438 0.43281-0.081 0.024-0.16344 0.0428-0.24844 0.0578-0.138 0.024-0.27956 0.0422-0.42656 0.0422h-0.62344-0.82031-0.55312c-1.63 0-2.3079-0.94881-2.6719-1.4578l-0.10625-0.14688c-0.005-0.007-0.01006-0.0149-0.01406-0.0219l-0.01562-0.0219c-0.254-0.389-0.99756-1.4222-1.9516-2.7312-0.215-0.296-0.441-0.605-0.675-0.925-0.631-0.864-1.3163-1.799-1.9953-2.725l-0.025-0.0328-0.19688-0.26875-0.14062-0.19219c-0.183-0.25-0.3725-0.48-0.5625-0.7-0.783-0.903-1.5938-1.5433-2.1828-1.8453-0.194-0.1-0.11781 0.04-0.05782 0.125 0.33 0.466 1.1444 1.6202 2.0734 2.9312 0.226 0.319 0.45819 0.646 0.69219 0.975 0.775 1.093 1.5624 2.2039 2.1734 3.0609 0.262 0.367 0.49244 0.68862 0.67344 0.94062 0.00096 0.00096 0.0022 0.002 0.0031 0.003 0.448 0.624 0.52637 1.3659 0.20937 1.9859-0.152 0.297-0.38362 0.5365-0.66562 0.7125-0.255 0.161-0.55325 0.26794-0.88125 0.31094-0.109 0.014-0.22094 0.0234-0.33594 0.0234h-1.9594c-0.064 0-0.12606-0.006-0.18906-0.008-0.285-0.01-0.5545-0.0392-0.8125-0.0922-0.682-0.139-1.2763-0.42656-1.7953-0.87656-0.106-0.092-0.21569-0.19006-0.32969-0.28906-0.685-0.602-1.4833-1.3027-2.4953-1.9297 0.021 0.034 0.04306 0.0686 0.06406 0.10156 2.083 3.233 3.2667 5.0259 3.9547 5.8609 0.069-0.016 0.1415-0.0319 0.2125-0.0469 0.263-0.059 0.546-0.11744 0.85-0.17344 0.726-0.134 1.5591-0.25869 2.4641-0.35469 0.275-0.03 0.55675-0.0551 0.84375-0.0781 0.861-0.07 1.7689-0.1125 2.6969-0.1125 1.402 0 2.6852 0.0967 3.8562 0.27969 0.288 0.045 0.56762 0.0956 0.84062 0.15156 0.393 0.08 0.77138 0.172 1.1344 0.275 3.073 0.869 5.0743 2.5298 5.8703 4.9328 0.275 0.83-0.0027 1.3969-0.19375 1.6609-0.312 0.432-0.81469 0.67813-1.3797 0.67813-0.256 0-0.52781-0.0489-0.80781-0.14688-1.184-0.413-2.5434-0.651-4.1234-0.725-0.355-0.016-0.71731-0.0281-1.0953-0.0281-0.041 0-0.08244 0.003-0.12344 0.003-0.318 0.002-0.64219 0.0114-0.96719 0.0234-2.275 0.091-4.6919 0.43988-7.0219 0.84688-0.287 0.05-0.56969 0.10112-0.85469 0.15312-0.671 0.121-1.3362 0.24407-1.9812 0.36407-0.087 0.016-0.17238 0.0324-0.25938 0.0484-0.284 0.053-0.56744 0.10581-0.84844 0.15781-2.694 0.498-5.2174 0.92344-7.2844 0.92344zm0-0.49063c2.014 0 4.4971-0.41624 7.1531-0.90624 0.067-0.012 0.13612-0.0255 0.20312-0.0375 0.281-0.053 0.56288-0.10481 0.84688-0.15781 0.033-0.006 0.06544-0.0112 0.09844-0.0172 0.702-0.131 1.4268-0.26644 2.1578-0.39844 0.284-0.05 0.56669-0.101 0.85469-0.15 2.388-0.413 4.8626-0.75925 7.1906-0.83125 0.279-0.008 0.55938-0.0203 0.83438-0.0203h0.0016 0.01562c0.481 0 0.9415 0.0152 1.3875 0.0422 1.508 0.091 2.8201 0.3325 3.9781 0.7375 0.095 0.033 0.18656 0.055 0.27656 0.075 0.037 0.008 0.07181 0.0143 0.10781 0.0203 0.089 0.014 0.17794 0.025 0.26094 0.025 0.406 0 0.76381-0.17356 0.98281-0.47656 0.062-0.086 0.12206-0.19625 0.16406-0.33125 0.028-0.09 0.04656-0.19113 0.05156-0.30313 0.005-0.113-0.0033-0.23744-0.03125-0.37344-0.014-0.068-0.03438-0.1385-0.05938-0.2125-0.395-1.193-1.1197-2.1864-2.1438-2.9844-0.847-0.659-1.8966-1.1866-3.1516-1.5656-0.372-0.113-0.76644-0.20887-1.1734-0.29687-0.275-0.059-0.55744-0.11294-0.84844-0.16094-1.181-0.193-2.4858-0.29531-3.9188-0.29531-0.96 0-1.8957 0.0459-2.7797 0.12187-0.287 0.024-0.57131 0.0512-0.84531 0.0812-0.907 0.1-1.735 0.22863-2.45 0.36563-0.244 0.046-0.47406 0.0942-0.68906 0.14219-0.167 0.037-0.32912 0.0739-0.47812 0.11093-0.68-0.745-1.8516-2.5086-4.1906-6.1406-0.311-0.483-0.66431-1.0354-1.0453-1.6344 1.883 0.789 3.1624 1.9091 4.2094 2.8281 0.029 0.025 0.05582 0.0479 0.08281 0.0719 0.083 0.073 0.16631 0.14763 0.24531 0.21563 0.443 0.384 0.95306 0.63337 1.5391 0.75937 0.00096 0 0.0022 0.00056 0.0031 0.002 0.256 0.055 0.5265 0.0852 0.8125 0.0922 0.041 0.00096 0.08088 0.003 0.12188 0.003h1.9594c0.147 0 0.28731-0.0157 0.42031-0.0437 0.393-0.083 0.71856-0.28244 0.92656-0.57344 0.036-0.052 0.07-0.1055 0.1-0.1625 0.029-0.057 0.054-0.116 0.075-0.175 0.04-0.12 0.06106-0.24319 0.06406-0.36719 0.004-0.125-0.01018-0.25212-0.04218-0.37812-0.05-0.189-0.13975-0.37725-0.26875-0.55625-0.168-0.234-0.36538-0.50963-0.58438-0.81563-0.559-0.785-1.2596-1.7702-1.9656-2.7672-0.232-0.326-0.46319-0.653-0.69219-0.975-0.163-0.231-0.32425-0.45981-0.48125-0.68281-0.786-1.111-1.4779-2.0929-1.8609-2.6359-0.041-0.059-0.07494-0.11318-0.11094-0.16718-0.078-0.117-0.144-0.22388-0.2-0.32188-0.064-0.112-0.11781-0.21412-0.15781-0.30312-0.018-0.038-0.02331-0.0739-0.02031-0.11094 0.01-0.108 0.10106-0.2 0.21406-0.2 0.018 0 0.03825 0.003 0.05625 0.008 0.108 0.028 0.22556 0.0649 0.35156 0.11094 0.441 0.159 0.98825 0.43424 1.5812 0.88124 0.317 0.239 0.64725 0.52957 0.98125 0.87657 0.237 0.246 0.47394 0.52169 0.71094 0.82969 0.053 0.069 0.10638 0.13581 0.15938 0.20781l0.3375 0.45937c0.257 0.351 0.51431 0.70256 0.77031 1.0516 0.897 1.223 1.7665 2.4109 2.4625 3.3719s1.2207 1.6951 1.4297 2.0141l0.01406 0.0219s0.01044 0.0142 0.02344 0.0312c0.025 0.035 0.06494 0.0907 0.08594 0.11875 0.123 0.172 0.26794 0.37307 0.46094 0.56407 0.367 0.364 0.9085 0.68906 1.8125 0.68906h0.52031 0.99844 0.47813c0.201 0 0.39175-0.0321 0.56875-0.0891 0.389-0.124 0.705-0.3725 0.875-0.7125 0.087-0.173 0.13138-0.35788 0.13438-0.54688 0.006-0.234-0.05444-0.47244-0.17344-0.69844-0.04-0.076-0.08606-0.15043-0.13906-0.22343-0.192-0.258-0.75969-1.0394-1.4797-2.0344-1.372-1.899-3.2971-4.5807-4.2141-5.9047-0.029-0.042-0.06087-0.0896-0.09687-0.14062-0.245-0.355-0.61544-0.89688-0.87344-1.3219 1.096 0.118 3.0835 0.90857 5.1625 2.7516 0.297 0.264 0.59575 0.54825 0.89375 0.85625 0.629 1.736 1.3221 3.3204 2.1141 4.8234 1.514 2.871 3.3991 5.4428 5.9531 8.1828 4.818 5.172 8.1606 6.2578 10.116 6.2578 0.713 0 1.3641-0.14388 1.9281-0.42188 0.338-0.167 0.64619-0.38331 0.91719-0.64531 0.542-0.525 0.88344-1.1971 1.0234-1.9781 0.043-0.243 0.0714-0.49538 0.0734-0.75938 0.002-0.159-0.004-0.32094-0.0172-0.48594-0.056-0.695-0.24143-1.4356-0.54843-2.2156-0.134-0.342-0.29557-0.692-0.47657-1.05-0.109-0.214-0.22812-0.431-0.35312-0.65-0.37-0.647-0.813-1.3156-1.325-2.0016-0.179-0.241-0.3665-0.48313-0.5625-0.72813-0.199-0.248-0.40531-0.49587-0.62031-0.74687-0.761-0.89-1.6258-1.8051-2.5938-2.7391-2.386-2.304-5.3832-4.7268-8.9172-7.1828-0.057-0.039-0.11375-0.0793-0.16875-0.12031-0.222-0.162-0.43206-0.33175-0.58906-0.49375-0.118-0.121-0.20488-0.23719-0.24688-0.34219-0.026-0.066-0.03638-0.12781-0.03438-0.18281 0.002-0.036 0.01044-0.0669 0.02344-0.0969 0.035-0.082 0.10906-0.13993 0.21406-0.16093 0.028-0.006 0.05919-0.009 0.09219-0.009 0.006 0 0.01118 0.003 0.01718 0.003 2.014-0.012 5.7844 2.387 10.098 5.625 0.51 0.382 1.027 0.77512 1.55 1.1781 0.668 0.515 1.344 1.0454 2.025 1.5844 0.695 0.55 1.3943 1.1073 2.0953 1.6703 0.136 0.11 0.26956 0.21475 0.40156 0.31875 0.186 0.144 0.36788 0.28363 0.54688 0.41563 2.152 1.593 3.8592 2.3406 5.3172 2.3406 0.24 0 1.0869-0.0223 1.7859-0.32031 0.419-0.179 0.78481-0.4565 0.93281-0.8875 0.033-0.098 0.0559-0.20844 0.0609-0.32344 0.009-0.202-0.0388-0.42137-0.15781-0.63437-0.085-0.152-0.20513-0.30094-0.37813-0.43594-0.091-0.071-0.17681-0.13475-0.25781-0.19375s-0.15613-0.11306-0.22813-0.16406c-0.23-0.163-0.42187-0.30307-0.64687-0.51407-0.041-0.038-0.0831-0.0753-0.12813-0.12031-0.084-0.086-0.17237-0.21994-0.18437-0.41094-0.004-0.064 0.001-0.13393 0.0172-0.21093 0.002-0.011 0.005-0.0262 0.009-0.0422 0.002-0.006 0.003-0.0133 0.005-0.0203 0.004-0.019 0.008-0.0379 0.0125-0.0609 0.34-1.499 0.64075-3.3427 0.64375-5.1797 0.00096-0.835-0.0587-1.6703-0.20468-2.4703 0.097 0.067 0.19968 0.14625 0.30468 0.23125 0.248 0.202 0.51532 0.46207 0.79532 0.78907 0.31 0.362 0.63575 0.80381 0.96875 1.3578 0.818 1.362 1.6679 2.5774 2.5359 3.6344 1.447 1.761 2.942 3.0794 4.425 3.8844 0.454 0.247 0.93444 0.45637 1.4234 0.63437 1.078 0.39 2.2059 0.60782 3.2469 0.60782 1.241 0 2.2604-0.31238 2.9594-0.88438 0.348 0.236 0.81613 0.40938 1.4781 0.40938h1.8141c0.201 0 0.39175-0.0321 0.56875-0.0891 0.388-0.124 0.705-0.3725 0.875-0.7125 0.087-0.173 0.13194-0.35887 0.13594-0.54687 0.006-0.313-0.10006-0.63488-0.31406-0.92188l-4.0328-5.625-1.6797-2.3438-0.0125-0.0172c-0.18-0.227-0.333-0.43706-0.475-0.63906-0.264-0.373-0.47037-0.70294-0.60937-0.96094v-0.002c0.439 0.086 0.91562 0.22994 1.1406 0.33594 0.356 0.167 0.66882 0.25 0.95782 0.25 0.474 0 0.87836-0.23119 1.0844-0.61719 0.069-0.131 0.14238-0.33612 0.13438-0.60312-0.008-0.266-0.0973-0.59457-0.35625-0.97657-0.347-0.515-0.75587-0.97319-1.2219-1.3922-0.28-0.253-0.57513-0.49474-0.90313-0.71874-1.243-0.846-2.3654-1.275-3.3344-1.275-1.048 0-1.7978 0.49062-2.2438 1.1406-0.381-0.201-0.84094-0.41581-1.3609-0.60781-0.865-0.321-1.892-0.57344-2.975-0.57344-0.372 0-0.73694 0.0306-1.0859 0.0906-0.314 0.055-0.62275 0.1515-0.91875 0.2875-0.198 0.091-0.39056 0.20043-0.57656 0.32343-0.278 0.185-0.54069 0.40525-0.77969 0.65625-0.711-0.259-1.5511-0.51425-2.4781-0.73125-1.546-0.362-3.3332-0.61719-5.1562-0.61719-1.485 0-2.839 0.16688-4.05 0.49688-2.017 0.549-3.6319 1.5461-4.7859 2.9641-1.107-0.722-2.1716-1.3317-3.1906-1.8297-2.242-1.096-4.2674-1.6484-6.0484-1.6484-1.608 0-2.8671 0.45331-3.8031 1.1203-0.094 0.066-0.18488 0.13625-0.27188 0.20625-0.437 0.354-0.79288 0.75388-1.0719 1.1719-2.069-1.302-3.9753-2.1074-5.6953-2.4094-0.276-0.049-0.5475-0.0833-0.8125-0.10625-0.23-0.019-0.45612-0.0312-0.67812-0.0312-0.044 0-0.082 0.007-0.125 0.008-0.236 0.003-0.46312 0.0156-0.67812 0.0406-0.601 0.068-1.1206 0.21006-1.5656 0.38906-0.34 0.136-0.63506 0.29169-0.88906 0.45469-0.164 0.105-0.31119 0.21118-0.44219 0.31718-0.083 0.066-0.16281 0.13288-0.23281 0.19688-1.158-0.614-3.0039-1.3266-4.8609-1.3266-0.302 0-0.59031 0.0245-0.87031 0.0625-0.296 0.041-0.58 0.10294-0.85 0.18594-0.114 0.035-0.2285 0.0695-0.3375 0.1125-0.742 0.291-1.3409 0.77375-1.7609 1.3938-0.211 0.31-0.37819 0.65312-0.49219 1.0281-0.111 0.366-0.18925 0.81319-0.18125 1.3422 0.018 1.164 0.44419 2.7238 1.8172 4.6938 0.072 0.105 0.17181 0.25006 0.28281 0.41406 0.045 0.065 0.09163 0.13325 0.14063 0.20625 0.125 0.183 0.2615 0.38325 0.4125 0.60625h-0.0016c-0.445 0.048-0.98006 0.21263-1.4391 0.44063-0.276 0.137-0.52438 0.29618-0.70938 0.46718-0.175-0.273-0.35394-0.55393-0.53594-0.83593-1.559-2.421-3.3233-5.0885-4.8813-7.1625-1.252-1.666-2.19-2.7528-3.275-3.4438-0.651-0.414-1.3544-0.68457-2.2094-0.85157-0.321-0.063-0.66769-0.0953-1.0297-0.0953h-0.0016c-2.773 0-6.3988 1.8788-7.7578 4.0188-0.035 0.056-0.06731 0.11288-0.09531 0.17188-0.083 0.175-0.13119 0.36018-0.14219 0.54218-0.004 0.061-0.004 0.12125 0 0.18125 0.013 0.18 0.06244 0.35394 0.14844 0.51094 0.071 0.127 0.16275 0.23656 0.26875 0.32656 0.213 0.181 0.4875 0.28438 0.7875 0.28438 0.137 0 0.27519-0.0231 0.41719-0.0641 0.085-0.025 0.17025-0.0553 0.25625-0.0953 0.869-0.403 1.6768-0.6 2.4688-0.6 0.663 0 1.309 0.13844 1.975 0.42344 0.485 0.206 1.0292 0.616 1.6313 1.225 0.101 0.101 0.20069 0.20888 0.30469 0.32188 0.725 0.788 1.5281 1.8474 2.4031 3.1734 0.251 0.379 0.50675 0.77957 0.76875 1.2016 0.067 0.109 0.12544 0.20312 0.17344 0.27812l0.26875 0.42969c0.538 0.853 1.4131 2.2453 2.4391 3.8453 1.106 1.724 2.3851 3.6881 3.6031 5.4781 0.087 0.129 0.17494 0.25625 0.26094 0.38125 0.345 0.504 0.68394 0.99212 1.0109 1.4531-0.198 0.039-0.41519 0.0771-0.64219 0.11406-0.538 0.089-1.1589 0.17025-1.8609 0.23125-0.776 0.068-1.6469 0.11407-2.6219 0.11407-1.722 0-3.5431-0.13613-5.4141-0.40313-0.017-0.002-0.033-0.002-0.05-0.003-0.046-0.005-0.09137-0.009-0.13438-0.009-0.404 0-0.77106 0.19688-0.98906 0.52188-0.025 0.038-0.04931 0.0762-0.07031 0.11719-0.027 0.053-0.05131 0.1075-0.07031 0.1625-0.038 0.11-0.05906 0.22462-0.06406 0.34062-0.011 0.232 0.04281 0.46838 0.15781 0.68438 0.029 0.054 0.06244 0.10681 0.09844 0.15781 0.305 0.426 0.62988 0.80825 0.97188 1.1562 2.783 2.837 6.6989 3.2359 9.9109 3.2359zm0-0.93437c-1.824 0-3.5466-0.14681-5.1016-0.58281-2-0.561-3.7223-1.6008-5.0203-3.4188-0.145-0.203-0.08825-0.43563 0.09375-0.49063 0.04-0.012 0.08338-0.0179 0.13438-0.0109 4.193 0.597 7.3648 0.44418 9.4438 0.16718 0.944-0.125 1.664-0.27731 2.15-0.39531 0.269-0.064 0.61906-0.215 0.33906-0.6-0.213-0.293-0.43338-0.604-0.65938-0.925-2.233-3.172-5.0005-7.5192-6.5125-9.9172-0.385-0.609-0.68925-1.0924-0.88125-1.3984-0.516-0.817-2.2811-3.7962-4.1781-5.5172-0.507-0.459-1.0226-0.83031-1.5266-1.0453-0.777-0.331-1.5863-0.51288-2.4453-0.49688h-0.0031c-0.005 0-0.01062 0.00056-0.01563 0.002-0.259 0.005-0.52262 0.0314-0.79062 0.0734-0.62 0.097-1.2674 0.29338-1.9484 0.60938-0.41 0.191-0.58819-0.0219-0.54219-0.28594 0.012-0.072 0.03738-0.14731 0.08438-0.22031 1.346-2.121 5.3408-3.9928 7.8188-3.5078 0.242 0.048 0.46994 0.10488 0.68594 0.17188 1.142 0.353 1.9868 1.0133 3.0688 2.2953 0.089 0.105 0.17987 0.21569 0.27187 0.32969 0.097 0.119 0.19431 0.24131 0.29531 0.37031 0.189 0.241 0.38631 0.49544 0.59531 0.77344 0.553 0.736 1.1339 1.5527 1.7219 2.4047 0.91 1.316 1.8351 2.7196 2.7141 4.0766 1.241 1.916 2.3826 3.7312 3.2266 5.0422 0.801 1.245 1.4553 2.2498 1.9953 3.0688 1.192 1.808 1.8348 2.7051 2.3188 3.2281 0.032 0.034 0.06656 0.0652 0.10156 0.0922 0.009 0.007 0.01756 0.0112 0.02656 0.0172 0.027 0.019 0.05482 0.0387 0.08281 0.0547l0.01406 0.006c0.207 0.109 0.43719 0.12138 0.61719 0.0844 0.012-0.002 0.02706-0.003 0.03906-0.006 0.245-0.062 0.51706-0.12438 0.81406-0.18438 0.692-0.142 1.518-0.27681 2.425-0.38281 0.275-0.033 0.55631-0.0636 0.84531-0.0906 2.179-0.201 4.7086-0.21856 6.9906 0.19844 0.288 0.052 0.572 0.11113 0.85 0.17813 0.382 0.092 0.75194 0.19775 1.1109 0.31875 2.054 0.693 3.6951 1.8851 4.3391 3.8281 0.076 0.229 0.04406 0.3505-0.03594 0.4125-0.123 0.094-0.36187 0.0419-0.52188-0.0141-1.967-0.687-4.2115-0.88663-6.5625-0.81563-2.279 0.07-4.6596 0.39619-6.9906 0.79219-0.286 0.049-0.57069 0.0984-0.85469 0.14844-0.771 0.13696-1.5334 0.27771-2.2844 0.41871-0.285 0.053-0.56744 0.10581-0.84844 0.15781-2.827 0.526-5.4306 0.98594-7.4906 0.98594zm39.425-0.40781c-0.14388 0.007-0.29288 0.005-0.44688-0.003-0.622-0.033-1.3271-0.19238-2.1141-0.50938-0.1-0.04-0.20269-0.0831-0.30469-0.12812-0.043-0.019-0.0851-0.0362-0.12812-0.0562-1.826-0.836-4.0515-2.4802-6.6375-5.2562-0.632-0.678-1.2206-1.3444-1.7766-2.0094-0.242-0.29-0.47881-0.58187-0.70781-0.87187-0.261-0.331-0.51225-0.66075-0.75625-0.99375-0.269-0.366-0.52869-0.73638-0.77969-1.1094-1.588-2.353-2.8322-4.8515-3.9172-7.8875-2.398-2.53-5.0798-3.8548-6.7688-4.0328-0.316-0.033-0.59538-0.0246-0.83438 0.0234-0.072 0.014-0.14381 0.0274-0.20781 0.0484-0.374 0.127-0.3705 0.43388 0.0125 1.1219 0.076 0.135 0.16687 0.28556 0.27187 0.45156 0.221 0.35 0.50681 0.77012 0.85781 1.2781 0.338 0.487 0.8195 1.1714 1.3625 1.9344 1.363 1.913 3.1123 4.3341 3.9453 5.4781 0.184 0.253 0.32469 0.44569 0.40469 0.55469 0.038 0.051 0.06494 0.0999 0.08594 0.14688 0.00096 0.004 0.0042 0.009 0.0062 0.0125 0.011 0.029 0.01431 0.0558 0.02031 0.0828 0.004 0.022 0.01462 0.0441 0.01562 0.0641 0.00096 0.009-0.0031 0.0176-0.0031 0.0266-0.00096 0.083-0.02444 0.15731-0.07344 0.22031-0.108 0.138-0.32019 0.22188-0.56719 0.22188h-1.9969c-0.754 0-1.0824-0.29313-1.3594-0.65313-0.086-0.112-0.16669-0.22944-0.25469-0.34844-0.206-0.316-0.70562-1.0171-1.3656-1.9281-0.771-1.066-1.7631-2.4201-2.7781-3.8031l-0.02969-0.0422c-0.082-0.112-0.16588-0.22394-0.24688-0.33594-0.204-0.277-0.40681-0.55469-0.60781-0.82969-0.245-0.333-0.49319-0.63225-0.74219-0.90625-0.242-0.268-0.484-0.509-0.725-0.725-0.048-0.043-0.09787-0.0908-0.14688-0.13281-1.599-1.375-3.0674-1.6674-3.6234-1.5984-0.339 0.043-0.60875 0.26025-0.64375 0.68125-0.036 0.429 0.17088 1.0699 0.79688 1.9609 0.289 0.412 0.77456 1.1028 1.3516 1.9188 0.194 0.274 0.39781 0.56294 0.60781 0.86094 0.311 0.439 0.63594 0.89825 0.96094 1.3562 0.232 0.328 0.46419 0.654 0.69219 0.975 0.775 1.092 1.4966 2.106 1.9766 2.775 0.083 0.116 0.12225 0.22106 0.13125 0.31406 0.00096 0.01 0 0.0191 0 0.0281 0.004 0.273-0.28487 0.43281-0.64687 0.43281h-1.9594c-0.615 0-1.2765-0.11912-1.8625-0.62812-0.945-0.82-2.1692-1.9721-3.9422-2.8781-0.48-0.245-0.9965-0.47487-1.5625-0.67187-0.044-0.015-0.08025-0.0404-0.10625-0.0734-0.065-0.082-0.05731-0.20763 0.10469-0.31563 0.032-0.021 0.07062-0.0409 0.11563-0.0609 0.181-0.078 0.436-0.16069 0.725-0.22969 0.681-0.163 1.5699-0.24894 2.2609 0.0141h0.0016c-0.82-1.211-1.5738-2.3304-1.9078-2.8094-0.936-1.344-1.4229-2.5108-1.5859-3.4938-0.029-0.179-0.04882-0.35275-0.05782-0.51875-0.004-0.083-0.0062-0.16531-0.0062-0.24531 0.004-0.613 0.15188-1.1351 0.39688-1.5641 0.333-0.583 0.84731-0.99625 1.4453-1.2312 1.346-0.529 3.0129-0.27681 4.4219 0.19219 0.963 0.321 1.8051 0.74319 2.3391 1.0922 0-0.00096 0.17575-0.28094 0.56875-0.61094 0.175-0.146 0.39381-0.30188 0.65781-0.44688 0.413-0.227 0.93931-0.43024 1.5953-0.53124 0.201-0.032 0.41562-0.0499 0.64062-0.0609 0.254-0.011 0.52338-0.007 0.80938 0.0141 0.257 0.019 0.5275 0.0531 0.8125 0.10313 1.603 0.282 3.6421 1.0888 6.2031 2.8328 0.501-1.351 2.0564-3.059 5.1984-2.9 0.028 0.00096 0.05482 0.001 0.08281 0.003 2.182 0.132 5.1178 1.1594 8.9828 3.8094 0.719-1.137 1.6882-1.9679 2.8062-2.5609 1.525-0.807 3.3252-1.1674 5.1562-1.2344 0.036-0.00096 0.0724-0.002 0.10937-0.003 0.654-0.02 1.3119-0.002 1.9609 0.0453 2.518 0.184 4.9086 0.81412 6.5016 1.4781 0.529-0.765 1.3056-1.3175 2.1406-1.4625 1.25-0.218 2.5325 0.0501 3.6125 0.45313 0.024 0.009 0.0494 0.0176 0.0734 0.0266 0.002 0 0.004 0.002 0.006 0.003 0.848 0.325 1.5641 0.73018 2.0281 1.0422 0.074-0.605 0.48725-1.3647 1.4063-1.5297 0.667-0.12 1.6033 0.0744 2.8703 0.87343 0.006 0.003 0.0112 0.008 0.0172 0.0109 0.026 0.016 0.0522 0.034 0.0782 0.05 0.073 0.048 0.14531 0.0949 0.22031 0.14687 0.659 0.449 1.1198 0.90394 1.4438 1.2859 0.187 0.22 0.32781 0.41744 0.43281 0.57344 0.202 0.299 0.24275 0.52887 0.14375 0.64687-0.063 0.077-0.18706 0.10288-0.36406 0.0719-0.12-0.02-0.25856-0.0616-0.42656-0.14063-0.61-0.287-2.3303-0.70712-2.6203-0.37812-0.525 0.592 1.2552 2.8458 1.4312 3.0688l3.3016 4.6078 2.4078 3.3594c0.151 0.201 0.15387 0.37807 0.0718 0.51407-0.098 0.16-0.3195 0.26093-0.5875 0.26093h-1.8125c-0.924 0-1.2082-0.43656-1.5422-0.90156-0.244 0.582-0.766 0.96869-1.45 1.1797-0.003 0.00096-0.004 0.00056-0.006 0.002-1.507 0.461-3.7981 0.0771-5.6641-0.93594-0.256-0.139-0.51457-0.29687-0.77657-0.47187-0.941-0.632-1.9164-1.4998-2.8984-2.6188-0.139-0.159-0.27875-0.32319-0.41875-0.49219-0.184-0.223-0.36756-0.45688-0.55156-0.69688-0.582-0.758-1.1642-1.6062-1.7422-2.5422-0.073-0.119-0.14575-0.23425-0.21875-0.35625-0.086-0.142-0.17025-0.27625-0.25625-0.40625-2.051-3.141-3.9906-2.9344-3.9906-2.9344 0.379 0.936 0.55819 1.9956 0.61719 3.0516 0.002 0.049 0.005 0.0984 0.008 0.14844 0.009 0.218 0.0156 0.43556 0.0156 0.65156v0.0172c0 0.634-0.0362 1.2554-0.0922 1.8344-0.014 0.149-0.0293 0.2945-0.0453 0.4375-0.009 0.077-0.0176 0.151-0.0266 0.225-0.016 0.123-0.0324 0.24238-0.0484 0.35938-0.027 0.187-0.0558 0.36594-0.0828 0.53594-0.153 0.934-0.315 1.5982-0.35 1.7672-0.157 0.745 0.20275 1.2523 0.41875 1.4703 0.507 0.513 0.84156 0.67643 1.3516 1.0734 0.626 0.487-0.52287 0.92813-1.6719 0.92813-0.873 0-2.3596-0.32644-5.0766-2.3984-0.195-0.149-0.39457-0.30487-0.60157-0.47187-0.469-0.376-0.93162-0.74594-1.3906-1.1109-4.939-3.932-9.2973-7.1531-12.395-8.4891-1.548-0.668-2.7822-0.86644-3.6172-0.44844-1.343 0.673-0.09175 1.9886 1.2063 2.8906 0.564 0.392 1.1032 0.78007 1.6312 1.1641 0.481 0.349 0.94644 0.69393 1.3984 1.0359 0.518 0.392 1.0216 0.78107 1.5016 1.1641 2.707 2.156 4.823 4.1531 6.425 5.9641 0.219 0.247 0.42912 0.49281 0.62812 0.73281 0.225 0.27 0.43963 0.53531 0.64063 0.79531 0.793 1.03 1.4009 1.9849 1.8469 2.8609 0.139 0.274 0.26488 0.542 0.37188 0.8 0.186 0.448 0.32162 0.86975 0.41562 1.2688 0.344 1.466 0.0846 2.5925-0.65937 3.3125-0.179 0.174-0.38675 0.32175-0.61875 0.44375-0.281 0.147-0.60081 0.25394-0.95781 0.31094-0.1335 0.021-0.27332 0.0353-0.41719 0.0422zm-0.98594-3.5531c0.038-0.003 0.0675-0.0132 0.0875-0.0312 0.034-0.029 0.0536-0.0768 0.0656-0.13281 0.069-0.302-0.17963-0.98087-0.91563-2.0719-0.502-0.744-1.2298-1.6774-2.2328-2.8094-0.012-0.013-0.0214-0.0251-0.0344-0.0391-0.231-0.261-0.47287-0.52575-0.72187-0.79375-0.242-0.262-0.49256-0.52675-0.75156-0.79375-1.512-1.558-3.2964-3.1761-5.3844-4.6281-0.739-0.513-1.3867-0.79856-1.4797-0.72656-0.139 0.106 0.27969 0.97444 0.87969 1.8734 1.48 2.221 2.7731 3.8881 4.7641 5.9031 2.729 2.759 5.1644 4.304 5.7234 4.25zm-1.7422-2.0047c-0.801-0.589-1.8079-1.4241-2.9219-2.5141-0.13-0.127-0.26175-0.25506-0.39375-0.38906-0.069-0.069-0.13088-0.13512-0.19688-0.20312-0.241-0.247-0.47062-0.488-0.69062-0.725-0.261-0.281-0.51088-0.55813-0.74688-0.82813-0.172-0.197-0.339-0.39194-0.5-0.58594-0.569-0.684-1.0783-1.3528-1.5703-2.0438h0.002c0.995 0.793 1.9772 1.6711 2.9562 2.6391 0.255 0.252 0.51006 0.51 0.76406 0.775 0.437 0.454 0.8745 0.92419 1.3125 1.4172 0.307 0.346 0.58282 0.66775 0.83282 0.96875 0.479 0.576 0.85712 1.0721 1.1531 1.4891zm27.234-8.2375c0.30937-0.00062 0.57081-0.0483 0.77031-0.13281 0.192-0.081 0.30675-0.17993 0.36875-0.28593 0.122-0.211 0.0347-0.45144-0.0812-0.64844-0.0008-0.002-0.0008-0.004-0.003-0.006-0.003-0.006-0.006-0.0106-0.009-0.0156-0.056-0.092-0.11805-0.1755-0.16406-0.2375-0.04-0.054-0.15318-0.21362-0.31719-0.44062-0.388-0.537-1.0666-1.4722-1.7906-2.4312-0.481-0.639-0.98156-1.2857-1.4266-1.8297-0.541-0.659-1.2528-1.2639-1.9688-1.7359-1.159-0.765-2.3292-1.1808-2.8062-0.90781-0.181 0.105-0.32488 0.296-0.39688 0.575-0.017 0.064-0.0285 0.13169-0.0375 0.20469 0 0.006-0.002 0.0127-0.003 0.0188-0.006 0.059-0.006 0.12563-0.006 0.19063 0 0.023-0.003 0.0416-0.003 0.0656 0.001 0.051 0.008 0.1085 0.0125 0.1625 0.004 0.043 0.003 0.0816 0.009 0.12656 0.004 0.03 0.0122 0.0643 0.0172 0.0953 0.059 0.355 0.18938 0.76931 0.40938 1.2453 0.34599 0.747 0.91193 1.6381 1.7859 2.6781 0.316 0.376 0.63682 0.71319 0.95782 1.0172 0.013 0.012 0.0255 0.0224 0.0375 0.0344 1.273 1.193 2.5515 1.8449 3.5875 2.1109 0.392 0.101 0.74844 0.1475 1.0578 0.14688zm-0.32969-0.92968c-0.004 0-0.007-0.002-0.011-0.002-0.007 0-0.0154-0.00056-0.0234-0.002-0.46-0.084-1.2529-0.39119-2.1219-0.91719-0.814-0.493-1.6961-1.1795-2.4391-2.0625-0.41599-0.495-0.74806-0.94075-1.0141-1.3438-0.281-0.425-0.4875-0.79888-0.6375-1.1219-0.24-0.522-0.33637-0.91287-0.35937-1.1719-0.006-0.06 0.0167-0.11413 0.0547-0.15313 0.037-0.039 0.0899-0.0625 0.14687-0.0625 0.018 0 0.0373 0.003 0.0563 0.009 0.153 0.044 0.33344 0.11612 0.52344 0.20312 0.643 0.292 1.4466 0.80656 2.1406 1.4516 0.227 0.211 0.44394 0.43263 0.63594 0.66563 0.566 0.692 1.3295 1.6989 1.9875 2.5859 0.509 0.685 0.95456 1.2981 1.2016 1.6391 0.008 0.011 0.007 0.0224 0.011 0.0344 0.03 0.065 0.018 0.13226-0.025 0.18126-0.031 0.037-0.0726 0.0656-0.12657 0.0656zm-17.642-0.14063s1.0839-3.984-0.0891-6.25c-0.075-0.144-0.15912-0.28193-0.25312-0.41093-1.487-2.039-4.8359-1.4051-6.4109 0.52187-0.024 0.03-0.052 0.0559-0.075 0.0859-0.027 0.034-0.0474 0.0718-0.0734 0.10781-0.073 0.101-0.14538 0.20081-0.20938 0.30781 0.00096 0 1.6468 1.3345 3.5688 2.8625 0.467 0.37 0.94813 0.75113 1.4281 1.1281 0.735 0.579 1.4631 1.1489 2.1141 1.6469zm16.812-0.64062c-0.754-1.028-1.8479-2.5001-2.5969-3.4141-0.678-0.827-1.6119-1.5025-2.3469-1.8625-0.233-0.115-0.18412 0.0289-0.15312 0.11094 0.223 0.569 0.69625 1.449 1.7062 2.65 1.083 1.287 2.4456 2.1076 3.3906 2.5156zm-17.431-1.0219c-0.732-0.572-1.5052-1.1822-2.2422-1.7672-0.031-0.024-0.0612-0.0479-0.0922-0.0719-0.066-0.053-0.13188-0.10581-0.19688-0.15781-0.105-0.083-0.20737-0.16431-0.30937-0.24531-0.946-0.755-1.7921-1.4339-2.3531-1.8859 0.073-0.074 0.15282-0.14294 0.23282-0.21094 0.333-0.282 0.7225-0.51537 1.1375-0.68437 0.465-0.189 0.96018-0.29844 1.4422-0.29844 0.403 0 0.91094 0.0788 1.3609 0.36875 0.196 0.125 0.38219 0.28825 0.54219 0.50625 0.759 1.04 0.69112 2.9959 0.47812 4.4469zm-0.38593-0.92343c0.123-1.475-0.0471-2.6294-0.48907-3.2344-0.127-0.175-0.28206-0.31488-0.46406-0.42188-0.224-0.131-0.48762-0.21262-0.79062-0.24062-0.081-0.007-0.16457-0.0109-0.25157-0.0109-0.105 0-0.21231 0.008-0.32031 0.0203-0.596 0.066-1.217 0.30787-1.725 0.67187 0.457 0.367 1.0174 0.81544 1.6234 1.2984 0.155 0.124 0.31244 0.25012 0.47344 0.37812 0.267 0.213 0.53962 0.42788 0.81562 0.64688 0.375 0.297 0.75313 0.59719 1.1281 0.89219z" fill="#003366"/></g></g></svg>