<svg xmlns="http://www.w3.org/2000/svg" height="60.898" width="169.5" viewBox="0 0 169.49359 60.898957"><g transform="translate(.99275 1.0053)"><path d="m0.27539 0-0.27344 1.0938 15.93 8.6992-3.106 13.924c-1.247 5.585-0.16431 9.6924 2.5137 12.527h-13.295l7.3555 11.328-7.3613 11.326h165.46l-7.3594-11.326 7.3496-11.328h-5.2812l-5.3984-3.4668-7.99-32.777h-148.54z" fill="#024" transform="translate(-.0019608)"/><path fill="#fff" d="m135.55 12.641-6.11 9.382h8.26l-2.09-9.382h-0.06zm-11.89-8.0512h21.58l7.3 29.793 2.19 1.406-0.03 0.145h-20.43l0.03-0.145 5.85-2.641-1.43-6.695h-12.03l-5.36 7.965 2.13 1.371-0.03 0.145h-13.76l0.03-0.145 5.58-2.576 16.73-25.33-8.35-3.2932zm-107.76 0h16.955l-4.401 19.724c-0.411 1.848-0.936 3.65 0.174 5.213 0.699 0.948 2.439 1.467 3.959 1.467s3.49-0.519 4.613-1.467c1.809-1.563 2.09-3.365 2.502-5.213l3.774-16.906-5.303-2.6756 0.031-0.1426h16.971l-4.592 20.529c-1.73 7.75-8.376 11.627-19.375 11.627-11.244 0-15.717-3.978-13.92-12.033l3.86-17.305-5.278-2.6756 0.03-0.1426zm41.103-0.0019h32.215l-1.649 7.3851h-0.183l-1.381-2.0023h-8.418l-5.443 24.384 2.23 1.434-0.031 0.145h-21.936l8.651-2.83 5.172-23.133-8.418-0.0003-2.276 2.0023h-0.183l1.65-7.3851zm49.272-0.7598c3.4 0 6.93 0.4772 9.88 1.4297l-1.24 5.5722c-2.27-1.2849-5.03-2.2382-8.07-2.2382-2.37 0-5.46 0.8101-5.96 3.0492-0.51 2.286 2.81 3.19 4.89 3.953 2.69 1 5.22 1.906 7.27 3.572 2.47 2 3.58 4.145 2.9 7.193-0.7 3.095-2.95 5.858-6.59 7.717-4.04 2.048-8.03 2.479-12.338 2.479-4.009 0-7.891-0.573-11.401-1.717l-0.472-6.861c2.912 2.192 7.554 3.716 11.927 3.716 2.733 0 6.594-0.714 7.194-3.382 0.76-3.404-5.372-4.405-10.106-6.795l-12.675-1.352 8.849-1.475c-1.167-1.422-1.725-3.236-1.182-5.668 0.605-2.715 2.893-5.3345 6.04-6.9058 3.48-1.715 7.374-2.2871 11.084-2.2871z"/><path fill="#DD4814" d="m10.457 40.812 4.389 6.762-4.389 6.754h148.62l-4.39-6.754 4.39-6.762h-148.62z"/><path d="m108.12 5.709c-3.66 0.059499-5.7793 1.6489-6.2793 2.3105 1.42-0.87749 3.2895-1.375 5.4395-1.375 2.17 0 4.3896 0.4629 6.5195 1.3379l0.25976-1.1758c-2.29-0.83469-4.2695-1.1248-5.9394-1.0977zm-49.801 0.75391-0.34961 1.5625h10.43l-5.7969 25.963h7.8789l0.34961-1.5625h-6.4824l5.7969-25.963h-11.826zm19.705 0-0.34961 1.5625h9.0312l0.34961-1.5625h-9.0312zm-54.934 0.0723-4.067 18.178c-0.96699 4.33-0.71061 10.086 12.613 10.086 8.4449 0 12.659-2.2963 14.828-4.7363-2.475 1.776-6.5028 3.2285-13.094 3.2285-12.519 0-14.176-3.0812-12.67-9.8262l3.7871-16.93h-1.3984zm111.89 0-18.279 27.453h1.6504l18.17-27.453h-1.541zm-89.584 0.00195-4.125 18.545c-0.33 1.481-0.79175 3.203-2.1777 4.834 0.249-0.16 0.4888-0.33439 0.7168-0.52539 2.213-1.917 2.805-4.0711 3.207-5.8711l3.7793-16.982h-1.4004zm48.533 2.334c-1.589 1.1709-2.71 2.6654-3.041 4.1504-0.97999 4.384 2.8087 6.2389 8.2656 8.3809 3.968 1.555 7.7176 3.0272 6.8477 6.9102-0.16 0.72399-0.4611 1.3788-0.87109 1.9688 1.18-0.85899 1.9405-1.7843 2.2305-3.1113 0.86999-3.885-2.8799-5.3532-6.8398-6.9102-5.463-2.14-9.2485-3.9949-8.2695-8.3789 0.244-1.089 0.87474-2.1023 1.6777-3.0098zm42.701 0.25977-1.0195 1.5625h1.5098l5.1602 23.295h8.1894l-0.37891-1.5625h-6.6016l-5.1484-23.295h-1.7109zm-24.19 20.586c-7.9399 4.126-15.23 4.9348-25.256 1.7578l0.14453 1.7207c3.133 0.92299 6.5232 1.4121 10.119 1.4121 3.653 0 7.5722-0.27478 11.492-2.2598 1.14-0.585 2.45-1.4399 3.5-2.6309zm-73.042 13.476c-2.538 0-5.3778 1.805-6.0898 4.375-0.76399 2.752 0.74515 4.6914 3.5781 4.6914 2.831 0 5.4157-1.9394 6.1777-4.6914 0.71399-2.57-1.126-4.375-3.666-4.375zm105.82 0.057c-1.77 0-3.3618 1.1285-3.8418 2.8535-0.44999 1.646 0.40048 2.0073 1.7305 2.4023 0.45 0.135 1.2911 0.35071 1.1211 0.9707-0.17 0.597-0.81157 0.85547-1.3516 0.85547-0.77999 0-1.3491-0.39391-1.7891-0.87891l-1.4805 1.7812c0.73 0.609 1.7201 0.9707 2.8301 0.9707 0.88999 0 1.8805-0.23679 2.7305-0.80078 0.85999-0.575 1.3108-1.4441 1.5508-2.2891 0.38-1.376-0.41103-1.9733-1.541-2.3223l-0.53906-0.16992c-0.36-0.124-0.93101-0.3155-0.79101-0.8125 0.13-0.473 0.75969-0.71094 1.1797-0.71094 0.56 0 1.0411 0.22546 1.3711 0.56445l1.3887-1.7148c-0.67-0.426-1.68-0.698-2.57-0.698zm-62.158 0.22461-1.3242 4.7812c-0.303 1.094-0.5572 2.177 0.0918 3 0.543 0.69999 1.6321 0.94922 2.6621 0.94922s2.2575-0.24922 3.1895-0.94922c1.106-0.82299 1.4529-1.906 1.7559-3l1.3262-4.7812h-2.293l-1.2422 4.4785c-0.307 1.105-0.72228 2.3105-2.1973 2.3105-1.473 0-1.222-1.2056-0.91602-2.3105l1.2422-4.4785h-2.2949zm12.139 0-2.3594 8.5039h2.2949l1.4434-5.209h0.02344l2.7559 5.209h2.291l2.3594-8.5039h-2.2891l-1.4414 5.1992h-0.0293l-2.7559-5.1992h-2.293zm13.299 0-2.3594 8.5039h2.2891l1.4512-5.209h0.0195l2.7598 5.209h2.2891l2.3613-8.5039h-2.291l-1.4492 5.1992h-0.0195l-2.7598-5.1992h-2.291zm-84.553 0.002-2.3555 8.502h2.293l0.9043-3.2695h0.02344l1.2578 3.2695h2.8594l-1.8105-3.4844c1.311-0.215 2.2736-1.2304 2.5996-2.4023 0.502-1.816-0.59976-2.6152-2.3438-2.6152h-3.4277zm26.908 0-5.75 8.502h2.4316l1.0176-1.4766h3.1602l0.16211 1.4766h2.4473l-0.9668-8.502h-2.502zm9.5234 0-2.3574 8.502h3.2539c2.447 0 4.9972-1.86 5.6602-4.25 0.66299-2.392-0.84576-4.252-3.3027-4.252h-3.2539zm11.789 0-2.3574 8.502h2.293l0.90625-3.2695h0.02344l1.2578 3.2695h2.8574l-1.8086-3.4844c1.311-0.215 2.2717-1.2304 2.5977-2.4023 0.503-1.816-0.59881-2.6152-2.3418-2.6152h-3.4277zm49.621 0-2.3496 8.502h5.0215l0.51954-1.8711h-2.7305l0.41015-1.4668h2.5801l0.51953-1.8711h-2.5801l0.39063-1.4219h2.7305l0.50976-1.8711h-5.0215zm9.4316 0-2.3613 8.502h2.291l0.91015-3.2695h0.0195l1.2598 3.2695h2.8594l-1.8086-3.4844c1.31-0.215 2.2696-1.2304 2.5996-2.4023 0.5-1.816-0.59986-2.6152-2.3398-2.6152h-3.4297zm-105.45 1.6914h0.22266c0.74899 0 1.5548 0.1336 1.2988 1.0586-0.256 0.92499-1.1367 1.0605-1.8867 1.0605h-0.22266l0.58789-2.1191zm48.221 0h0.22266c0.74899 0 1.5548 0.1336 1.2988 1.0586-0.257 0.92499-1.1377 1.0605-1.8867 1.0605h-0.2207l0.58594-2.1191zm59.047 0h0.2207c0.75 0 1.5588 0.1336 1.2988 1.0586-0.25 0.92499-1.1389 1.0605-1.8789 1.0605h-0.23046l0.58984-2.1191zm-94.23 0.16797c1.368 0 2.1961 1.0722 1.8711 2.2441-0.407 1.466-1.8283 2.5371-3.1973 2.5371-1.368 0-2.1951-1.0711-1.7891-2.5371 0.325-1.172 1.7462-2.2441 3.1152-2.2441zm23.346 0.01172h0.53906c1.474 0 2.2765 0.85787 1.8555 2.3809-0.46 1.656-1.8312 2.3789-3.1992 2.3789h-0.51562l1.3203-4.7598zm-10.801 0.75586h0.02344l0.18555 2.707h-1.9082l1.6992-2.707z" fill="#024" transform="translate(-.0019608)"/></g></svg>