<?xml version="1.0" encoding="UTF-8" standalone="no"?>
<svg xmlns:rdf="http://www.w3.org/1999/02/22-rdf-syntax-ns#" xmlns="http://www.w3.org/2000/svg" xml:space="preserve" height="83.409" viewBox="0 0 118.8925 83.408752" width="118.89" version="1.1" xmlns:cc="http://creativecommons.org/ns#" xmlns:dc="http://purl.org/dc/elements/1.1/"><g transform="matrix(1.25 0 0 -1.25 -827.11 235.29)"><g transform="translate(.48529 .36397)"><path d="m737.65 160.74-0.593-3.031c-0.712-3.648-3.385-5.524-5.316-5.861-0.005 2.263-0.029 11.126-0.029 11.126 0 1.633 0.396 1.633 1.122 1.633h3.674c1.189 0 3.616-0.747 6.547-2.851 0.485-0.34 0.9-0.679 1.293-1.016h-6.698zm-29.587 16.029c0.006 0.024-1.981-7.081-3.378-12.072-1.427 5.174-3.67 13.301-3.67 13.301s-0.015 0.052-0.022 0.072c-0.001 0.005-0.033 0.358-0.033 0.358l-0.009 0.13c-0.001 0.014-0.001 0.029-0.001 0.044 0 0.272 0.173 0.495 0.342 0.532 0.175 0.028 0.97 0.064 1.59 0.076 0 0 0.115 0.002 0.143 0.003 0.363-0.033 2.688-0.239 2.688-0.239 0.748-0.079 2.436-0.78 2.613-1.232-0.012-0.041-0.263-0.973-0.263-0.973m-22.718-13.198c-0.342 1.089-0.74 2.363-0.74 2.363-1.851 5.913-3.757 12.005-3.99 12.85 0.29 0.071 0.745 0.136 1.593 0.16 0.711 0.019 2.951-0.509 3.358-1.619 0.046-0.184 1.644-6.58 1.813-7.252-0.094-0.3-1.144-3.652-2.034-6.502m32.223 10.246l0.966 3.145c0.433 1.363 0.666 1.517 0.959 1.71l0.21 0.14c0.243 0.169 1.168 0.578 1.877 0.855l0.874 0.338 0.056 7.428h-1.389-59.433v-8.568h3.08c0.152-0.237 0.408-0.701 0.778-1.666 0.001-0.001 0.019-0.047 0.036-0.089 0.033-0.117 12.366-42.462 12.366-42.462h7.474s4.401 14.311 6.189 20.128c1.703-5.825 5.871-20.084 5.871-20.084l1.033 0.002h6.545s8.593 26.916 9.407 29.468c0.164-0.307 0.277-0.815 0.277-1.703v-32.243c-1.664 0-6.745-0.002-6.745-0.002l-0.067-8.708h31.132v8.71h-7.262c-0.004 1.1-0.031 10.812-0.037 13.079 1.786-0.509 4.933-2.88 5.238-6.266l0.308-3.414h7.683v26.527c2.67-2.587 2.976-4.981 3.118-6.241 0-0.003 0.403-3.521 0.403-3.521l7.487 0.012v23.425h-38.434z" fill="#fff"/><path d="m685.34 158.95c-2.452 7.852-5.799 18.487-6.074 19.521-0.277 1.034 0.278 1.334 0.275 1.379 0.426 0.219 0.96 0.423 2.626 0.468 0.888 0.025 4.007-0.54 4.707-2.563 0.044-0.177 1.659-6.638 1.931-7.727-0.224-0.719-1.829-5.848-3.465-11.078m30.358 13.484 1.513 4.928c0.656 2.065 1.152 2.195 1.697 2.575 0.542 0.381 2.169 1.012 2.169 1.012l0.039 5.101h-17.234v-5.533s1.212-0.096 1.971-0.175c0.757-0.081 4.248-1.056 3.813-2.905-0.07-0.294-0.156-0.542-0.27-1.005-0.041-0.146-3.341-11.532-4.885-17.059-1.574 5.7-4.828 18.248-4.828 18.248l-0.014 0.043c-0.069 0.216-0.078 0.505-0.098 0.794-0.068 0.96 0.56 1.828 1.418 2.018 0.361 0.079 1.862 0.108 1.862 0.108v5.466h-39.789v-5.809h2.212c0.253 0 0.789-0.556 1.555-2.551 0 0 0.027-0.07 0.055-0.14 0.057-0.2 12.094-41.527 12.094-41.527h5.421s4.672 15.139 7.241 23.549c2.442-8.411 6.87-23.504 6.87-23.504h5.537l9.55 29.914h0.023c0.682 0 2.498 0 2.498-3.527v-32.667c0-0.465-0.051-0.766-0.102-0.955-0.959 0-6.654-0.001-6.654-0.001l-0.045-5.953h28.365v5.954h-6.726c-0.326 0-0.447 0.053-0.474 0.065-0.027 0.057-0.061 0.188-0.061 0.339 0 0.004-0.03 10.683-0.042 15.542h0.75c2.302 0 6.839-3.147 7.242-7.629l0.196-2.159h5.044v24.366h-4.831l-0.373-1.916c-0.95-4.86-4.827-7.046-7.278-7.046h-0.766c-0.009 3.351-0.035 12.572-0.035 12.572 0 2.111 0.749 3.015 2.501 3.015h3.675c1.461 0 4.158-0.817 7.35-3.109 5.026-3.52 5.446-7.235 5.624-8.821l0.262-2.294 4.878 0.007v20.669h-38.92z"/><path d="m4.2129 4.0156v2.6035h0.27539c2.69 0 3.9256 3.2161 4.4531 4.5898l0.11523 0.29297c-0.0075-0.02125 14.523 50.066 14.523 50.066l0.05859 0.19727h2.7637s10.594-34.678 11.107-36.361c0.49125 1.69 10.543 36.307 10.543 36.307h2.9375l15.859-49.941c1.4575-4.5962 3.7558-5.0937 4.6758-5.0937h0.27539v-2.6602h-16.363v2.5254l0.22656 0.041016c1.7238 0.31625 4.0787 1.1834 5.4512 2.4121 1.385 1.1075 1.7585 2.4977 1.2598 4.6602 0.0037-0.0125-7.6248 25.611-9.1836 30.848-0.47125-1.79-8.2676-31.467-8.2676-31.467-0.15875-0.5-0.25-1.1548-0.25-1.8398 0-1.275 0.31484-2.6498 1.0898-3.3086 0.7275-0.4675 1.584-0.97352 2.9902-1.291l0.21484-0.048828v-2.5312h-20.605v2.7539l0.23438 0.039063c2.895 0.45125 4.6852 1.9309 5.4727 4.5234-0.0038-0.01125 2.4325 9.7288 2.625 10.5-0.045 0.14125-6.6395 21.224-7.127 22.781-0.5-1.6-10.525-33.709-10.525-33.709-0.08125-0.3125-0.11914-0.61203-0.11914-0.89453 0-0.96375 0.42727-1.7251 0.94727-2.1113 0.6925-0.5125 1.8487-0.92672 3.1699-1.1367l0.23047-0.037109v-2.709h-19.059zm62.16 17.219-0.91797 2.8965 0.33203 0.03906c4.465 0.5125 4.9453 5.0981 4.9453 7.0469v40.834c0 1.7712-0.43117 3.8828-2.4824 3.8828h-6.0137l-0.0059 0.27539v1.9883h30.078v-2.2637h-5.7188c-3.0312 0-3.3574-2.2314-3.3574-3.1914 0-0.0012-0.05305-19.585-0.06055-22.119h3.6348c4.2888 0 11.103 5.0338 11.73 11.986l0.02344 0.25h1.1582v-25.08h-1.1328l-0.04492 0.22266c-1.3912 7.1312-7.0844 10.98-11.734 10.98h-3.6387c-0.0025-0.53375-0.05078-18.396-0.05078-18.396 0-5.835 4.067-6.4648 5.8145-6.4648h4.5938c1.395 0 5.2359 0.42812 10.756 4.3906 7.2525 5.0775 7.8928 10.768 8.1328 12.91l0.0547 0.4707 1.2109-0.002v-20.656h-47.307z" transform="matrix(.8 0 0 -.8 661.69 187.43)" fill="#9e7e38"/></g></g></svg>
