<svg xmlns="http://www.w3.org/2000/svg" height="105.91" width="152.86" viewBox="0 0 152.8625 105.90625"><g><path fill="#e8d4a3" d="m105.94 0.88608v24.914h11.074c-1.455 5.4125-5.1488 19.152-8.5875 31.956-4.41-17.761-14.125-56.871-14.125-56.871l-23.488 0.00108s-10.508 39.114-15.272 56.846c-3.1788-12.848-6.58-26.598-7.9012-31.932h11.675v-24.914h-58.56v24.914h12.135c1.3238 5.2988 19.746 78.99 19.746 78.99l33.232 0.001s6.2675-23.826 10.08-38.315c3.625 14.496 9.5838 38.314 9.5838 38.314l33.228 0.001s19.408-73.769 20.781-78.991h12.076v-24.914h-45.675z"/><path fill="#363c74" d="m109.69 4.6473v17.382h12.216l-13.638 50.764s-16.692-67.2-16.929-68.146h-17.655c-0.24875 0.92375-18.31 68.15-18.31 68.15l-12.562-50.768h12.721v-17.382h-51.029v17.382h11.308s19.511 78.046 19.746 78.994h27.392c0.24125-0.925 13.074-49.705 13.074-49.705s12.194 48.764 12.428 49.705h27.39c0.245-0.93375 20.778-78.994 20.778-78.994h11.214v-17.382h-38.144z"/></g></svg>