<?xml version="1.0" encoding="UTF-8" standalone="no"?>
<svg xmlns:rdf="http://www.w3.org/1999/02/22-rdf-syntax-ns#" xmlns="http://www.w3.org/2000/svg" xml:space="preserve" height="121.16" width="159.5" version="1.1" xmlns:cc="http://creativecommons.org/ns#" xmlns:dc="http://purl.org/dc/elements/1.1/" viewBox="0 0 159.49905 121.16046"><g transform="matrix(.5 0 0 .5 .44371 .55680)"><path fill="#a9a8a9" d="m1.8934 1.1241v80.625h18.975l9.3223 44.928c-2.3387 1.9362-4.2773 3.5725-6.1523 5.1875l-4.5938 0.082-1.9688 1.5078c-4.3988 3.3775-9.7283 9.9694-14.363 15.971l-2.2383 2.9062 0.91992 3.5508c0.17125 0.6625 1.0684 3.9782 2.6172 7.4082-0.2275 0.54375-0.38672 0.94547-0.44922 1.1055l-1.6953 4.3652 3.1914 3.4531c0.11875 0.12875 0.76133 0.86649 1.7988 2.8652l0.98633 1.9023 0.99414 2.498c0.62625 1.565 1.2145 3.2117 1.6582 4.6367l1.2363 3.9668 4.0312 1.0586c0.31125 0.0825 1.1125 0.32484 2.1875 0.65234l0.44922 0.13672c9.68 2.94 12.876 3.7643 14.865 3.8418l2.0234 0.0781 1.7598-0.93554c1.885-0.9925 3.8041-2.0459 5.8203-3.1934l10.318 49.723h91.781l3.75-14.076 3.7461 14.076h91.783l8.1602-39.328c28.322-0.33 63.066-8.4219 63.066-8.4219s-31.046-15.128-44.422-33.521c13.054-4.5388 25.848-18.381 25.848-18.381s-20.357 2.6856-30.732-5.9844l10.801-52.059h18.975v-80.625h-294.45z"/><path fill="#231f20" d="m8.7059 7.9405v66.994h17.707l11.285 54.387c-3.6312 2.9788-7.1574 5.8945-11.045 9.3008-1.9138 0.0513-4.6191 0.0957-4.6191 0.0957l-0.22656 0.004-0.17969 0.13867c-4.2962 3.2988-10.476 11.306-13.117 14.725l-0.20508 0.26367 0.083984 0.32422c0.05875 0.22625 1.4124 5.3902 3.6074 8.9414-0.89 1.7088-1.6498 3.6625-1.6836 3.75l-0.1543 0.39648 0.29102 0.31445c0.89125 0.96125 1.8519 2.4311 2.8594 4.3711l0.17188 0.33203 3.5059 0.33789 0.4668 2.4414-2.0957 1.3711 0.20703 0.52148c0.69125 1.7312 1.3427 3.5562 1.834 5.1387l0.11523 0.36133 0.36719 0.0977c0.39125 0.10125 1.469 0.42883 2.8965 0.86133 5.8112 1.765 11.614 3.4959 13.15 3.5547l0.18164 0.006 0.16406-0.0859c4.6925-2.4688 9.2212-5.1288 13.732-7.875l11.125 53.621h81.002l8.9844-33.75 8.9844 33.75h81.002l8.1562-39.316c0.5725 0.005 1.1295 0.0215 1.707 0.0215 14.762 0 29.563-1.4534 45.24-4.4434l1.8613-0.35742-1.6562-0.91602c-8.19-4.5275-13.77-9.7262-18.781-14.656-4.1025-4.1388-7.7601-8.4664-10.986-12.285-2.1338-2.52-4.1664-4.9239-6.0977-7.0039 2.405-0.035 13.895-1.1729 23.215-7.6191-5.2188 0.945-10.669-0.99219-16.811-4.8359-2.0512-1.6638-4.021-3.2082-5.916-4.6582l12.785-61.625h17.707v-66.994h-100.18v28.086l-8.4688-28.086h-63.541l-8.4609 28.152v-28.152h-100.18z"/><path d="m21.294 20.526v41.82h15.361l10.211 49.215c4.0925-2.5688 9.296-5.0659 14.01-7.3184 0.7225-0.345 1.4315-0.68422 2.1152-1.0117-0.9425-1.2575-3.905-5.7241-2.0625-10.008 1.9275-4.4812 8.4185-7.098 19.291-7.7793 2.0688-1.1075 4.3088-2.0444 6.6875-2.8281l-3.9688-20.27h13.357v-41.82h-75.002zm105.41 0-17.266 57.449c3.3162-1.08 6.1767-2.6109 9.1992-5.0547l1.5293-1.2383-0.43165 1.9199c-0.0288 0.1225-0.55515 2.3845-2.4726 4.7207 3.7562-0.8975 7.0941-0.98633 10.445-0.98633l1.502 0.002c4.9238 0 9.0611-0.22836 13.746-3.0996l0.90234-0.55273 0.13477 1.0508c0.6825 5.3075-0.8911 8.5781-2.5274 10.484 4.7562-1.2625 12.896-2.9355 21.076-2.9355 1.7662 0 3.4707 0.08078 5.0644 0.23828 5 0.5 10.403 2.1068 16.123 3.8105 2.7625 0.8225 5.5602 1.6545 8.3652 2.377l-20.281-67.242-0.2832-0.94336h-44.826zm75.236 0v41.82h13.672l-5.6699 28.512c1.9675-0.02625 3.8628-0.16383 5.5703-0.70508-2.2175 1.8187-4.323 3.4759-6.4043 4.8984l-1.1055 5.5566c1.1562 0.39375 2.9143 1.2638 5.2168 2.4062 6.6712 3.3062 17.841 8.8438 27.377 8.8438 4.4062-0.001 8.5474-0.77696 11.357-3.127l9.625-46.385h15.363v-41.82h-75.002zm-97.887 63.094c-0.58125 0.26-1.1752 0.50805-1.7715 0.74805-0.175 0.07-0.35039 0.13438-0.52539 0.20312-0.43125 0.16875-0.86117 0.3368-1.2949 0.49805-0.10125 0.03875-0.20344 0.07578-0.30469 0.11328-1.535 0.56875-3.0626 1.1048-4.5176 1.6523-0.12375 0.0475-0.2532 0.09313-0.37695 0.14062-0.3625 0.1375-0.7093 0.28062-1.0605 0.42188-0.20125 0.08125-0.40992 0.16039-0.60742 0.24414-0.30625 0.1275-0.59617 0.26203-0.88867 0.39453-0.22375 0.10125-0.45102 0.20094-0.66602 0.30469-0.26125 0.12625-0.50445 0.25742-0.75195 0.38867-0.27625 0.14625-0.56086 0.28891-0.81836 0.44141-3.545 2.105-5.7656 7.6582-5.7656 7.6582 6.7288-2.7888 11.707-3.748 11.707-3.748 0.02625-5.3612 7.6426-9.4609 7.6426-9.4609zm58.535 6.8125c-0.43927 0.0033-0.88168 0.01375-1.3262 0.03516-10.57 0.50875-17.559 2.1444-25.75 5.2656-0.14125-0.0275-0.27141-0.05187-0.41016-0.07813 3.5212 0.67375 7.827 1.6489 9.7695 2.0977 15.048-5.9375 28.094-2.7378 32.289-1.4766-5.3925 0.515-15.1 2.6238-19.871 4.9375 6.9262 2.19 11.872 4.7255 18.172 7.6992 18.93-3.2862 30.695 2.9888 30.66 3.0312-6.3075-0.6775-12.743 0.39875-18.912 2.8125-0.009 0.075-0.0226 0.15227-0.0352 0.22852 1.8325 1.2725 3.3453 2.3527 4.7578 3.3965 0.63625-0.17375 3.1352-0.79492 7.1465-1.0137-0.57125 0.0187-1.1416 0.0395-1.6641 0.082 0.005-0.0288 0.008-0.0591 0.0117-0.0879 13.969-5.8662 24.909 2.8794 38.154-1.9355-10.471 0.855-19.081-4.3545-24.406-6.9258-6.4588-3.115-21.476-7.719-41.729-2.709-0.99-0.415-2.6618-1.2544-4.0606-1.7207 0 0 3.6729-1.425 9.9316-2.375-1.4888 0.17375-2.9948 0.37859-4.541 0.65234 10.302-4.025 20.97-3.0173 30.604-8.4473-13.981 4.7045-25.174-3.5697-38.791-3.4688zm-30.898 4.6406c0.0987 0.01375 0.20164 0.02992 0.30664 0.04492-0.105-0.015-0.20789-0.03117-0.30664-0.04492zm1.0098 0.15234c0.0975 0.01625 0.19172 0.03133 0.29297 0.04883-0.1025-0.0175-0.19547-0.03258-0.29297-0.04883zm1.3281 0.22852c0.16875 0.03125 0.34453 0.06516 0.51953 0.09766-0.17375-0.0325-0.35078-0.06641-0.51953-0.09766zm117.9 13.408c-4.9112 7.525-13.034 10.767-16.844 11.666 2.235 1.2725 6.679 3.8327 12.771 7.959l4.0723-19.625zm-33.066 0.56641c2.8512 1.33 5.6977 2.6106 8.5664 3.6856-2.5888-1.0425-5.4339-2.3343-8.5664-3.6856zm-19.217 7.9141c-0.0787 0.001-0.14907 0.007-0.22656 0.01 0.0738-0.004 0.15156-0.007 0.22656-0.01zm1.8887 3.4043c-2.0063 0.0455-3.9748 0.19992-5.9004 0.46289 1.4625 1.1588 2.9943 2.4142 4.8418 3.9492 14.268-0.985 30.1 3.4132 39.574 12.439-8.2362-2.5938-20.781-3.483-26.705-1.3555 1.655 1.8812 2.7659 2.99 3.9434 4.0938 0.03-0.015 1.6679-0.80594 5.2441-0.49219-0.84375-0.11875-1.6905-0.21359-2.543-0.27734 9.8275-2.4875 21.434 1.1794 28.285 4.2031 6.855 3.0325 13.017 6.0531 20.621 4.2344-8.8538-2.005-17.052-7.5293-21.822-11.029-15.622-11.466-31.495-16.547-45.539-16.229zm36.744 6.9902c2.925 1.725 5.6252 3.5662 8.1914 5.4375-0.009-0.007-0.0159-0.012-0.0234-0.0195-2.5712-2.0275-5.3255-3.8155-8.168-5.418zm-7.877 14.002c3.9512 1.445 8.8672 3.8698 14.867 7.8711 0.55 0.36625 1.0634 0.75141 1.5859 1.1289-4.765-3.7062-10.374-6.9525-16.453-9zm-10.4 1.1094c0.41125 0.385 0.85179 0.80023 1.3418 1.2715 16.05 4.015 27.864 20.424 35.324 24.74-4.5175-0.93875-17.599-6.2766-21.924-9.6016 3.0562 2.6175 5.9624 5.1998 9.2774 7.3223 9.8925 6.3138 20.136 11.375 32.211 13.773-12.253-4.1575-29.158-36.651-55.908-37.225 0 0-0.12226-0.105-0.32226-0.28125zm-142.82 16.9c-7.4875 2.2338-13.319 4.6529-18.705 7.7441l10.904 52.559h61.084l8.2734-31.08c-15.036 1.88-30.686 5.3439-47.795 10.535l-0.94141 0.28711s18.843-16.608 20.799-23.23c2.2212-7.5075-3.1202-11.843-5.1602-13.182-2.3838 0.38125-4.8006 0.57422-7.1855 0.57422-7.9575 0-15.146-2.1583-21.273-4.207zm88.494 27.521c-2.1925 0-4.3879 0.0465-6.5879 0.11524l8.6953 32.666h61.082l5.6348-27.16c-9.695-0.56875-18.807-1.597-27.703-2.6133-12.94-1.4787-26.321-3.0078-41.121-3.0078z" fill="#6c4023"/><path fill="#a9a8a9" d="m80.23 117.4c-0.75375 0.42875-1.4861 0.85891-2.2461 1.3164 0.25375 0.37125 0.37656 0.81055 0.32031 1.3106-0.17125 1.2412-1.3159 2.1957-2.6621 2.2207-0.81625-0.005-1.4645-0.36094-1.8457-0.92969-0.7925 0.50875-1.5016 0.97141-2.1641 1.4102 0.795 1.1262 2.1023 1.8286 3.7461 1.8398 2.7438-0.05 5.0788-2.0049 5.4375-4.5449 0.11375-0.99375-0.10344-1.868-0.58594-2.623z"/><path d="m15.773 15.012v52.846l5.5117-5.5117v-41.822h75.002v41.822l5.5117 5.5117v-52.846h-86.025zm106.82 0-19.371 64.449c2.2912-0.40375 4.3226-0.87383 6.2051-1.4863l17.268-57.451h44.824l0.28321 0.94336 20.281 67.242c2.055 0.52875 4.1142 0.99172 6.168 1.3555l-22.637-75.053h-53.021zm73.822 0.0039v52.846l5.5137-5.5117v-41.822h75.002v41.822l5.5117 5.5117v-52.846h-86.027zm19.186 47.328-6.7168 5.5117-4.5586 22.918c0.6725 0.035 1.3469 0.07227 2.0156 0.07227 1.2062 0 2.4111 0.02406 3.5898 0.0078l5.6699-28.51zm-178.96 0.002-4.4844 5.5117 0.07422 0.35742 11.623 56.027c0.3875-0.32 0.76-0.62633 1.1562-0.95508-1.2387-5.1137-1.0837-9.2502-1.0762-9.4277l0.01367-0.32618 0.26172-0.19531c0.80125-0.59625 1.7013-1.1893 2.6426-1.7793l-10.205-49.214zm46.283 0 3.9688 20.268c1.7062-0.56125 3.4822-1.045 5.3359-1.4375l-2.601-13.321-6.697-5.509zm178.64 0.0039-9.623 46.381c0.0412-0.0337 0.0876-0.0608 0.1289-0.0957-0.05 0.0787-0.10625 0.15101-0.15625 0.22851l-4.0742 19.625c1.535 1.04 3.1837 2.1898 4.9199 3.4336l13.293-64.061-4.4883-5.5117zm-121.48 17.201c-7.2187 4.51-26.324-1.3705-36.557 10.957-2.845 3.145-1.0622 6.4188 0.32031 8.9863-5.5837 1.335-13.609 3.2891-17.246 4.4629 3.2512-2.3975 6.857-3.8825 10.158-6.2812 0 0-0.27469-0.67422-0.33594-1.1055-9.915 3.025-25.888 12.727-33.719 17.59 0.535-1.9438 1.1385-5.2588 1.8223-6.7812-3.3412 1.6912-11.615 8.8281-11.615 8.8281l-2.9375-0.86914s-0.24742 2.7713 0.48633 5.4551c2.9112-1.93 8.9121-4.6191 8.9121-4.6191l-27.1 26.283-4.3711 0.54297-4.7402 5.3906c2.1762-0.39249 4.6171-0.39429 6.4434-0.49804 0 0-7.5156 6.3645-5.8594 10.814 0.53625 1.0175 1.5102 1.6571 2.6289 1.9746 2.8775 0.59 8.9999-2.3393 11.076-4.6856-0.33375 1.6325-1.0465 3.0287-1.9277 4.4512 5.1737-3.88 8.1949-9.5466 8.3262-15.744-0.76625-1.765-3.3833-0.86187-5.4258-0.92187 2.2962-1.2162 8.4468-3.8569 11.529-4.5156 0 0 0.66305 1.4139 0.9043 3.5352 5.19-3.51 9.4375-5.2226 9.4375-5.2227 0 0 0.80445 1.0146 0.8457 3.0059 0 0-1.9532 2.0398-3.877 5.4024 5.53-3.2262 9.6295-5.7416 14.832-8.5703 0.274-2.03-1.09-3.47-1.09-3.47 3.2175-1.77 11.23-5.9008 14.438-7.6133 1.98 0.72875 7.6934 2.1621 7.6934 2.1621-3.3825 2.6225-5.8905 5.4003-6.2305 8.5391-0.8875 4.295 0.45047 7.6559 3.6367 10.148 4.11 2.7275 11.482 3.1233 17.791 0.95703 10.592-5.8037 12.072-23.801 5.9512-32.498 1.4388-0.35124 4.1621-0.63476 4.1621-0.63477 2.5225-0.28999 5.3965-0.12695 5.3965-0.12695 1.7475 2.3988 3.6406 7.6406 3.6406 7.6406 22.747 0.59251 51.597 19.175 66.016 38.486 21.447 28.719 70.707 23.625 70.707 23.625s-0.22094-0.0827-0.61719-0.24023c-50.291-16.269-45.608-42.046-96.906-69.611-35.12-18.867-59.058-15.778-60.598-15.555-0.0275 0.005-0.0546 0.0067-0.082 0.01172 2.265-1.2337 7.0662-4.8005 9.0938-6.7617 0.3425-8.3537 24.358-4.2774 24.99-12.934zm-90.107 35.789c0.81375-0.7 1.8488-1.4235 2.9863-2.1348-1.3075 0.7675-2.3763 1.4985-2.9863 2.1348zm23.875-24.76c-12.717 2.0575-7.0898 9.8262-7.0898 9.8262l0.12695 0.0723c1.645-3.98 4.0504-7.2459 6.9629-9.8984zm135.25 4.4766c-2.1025 1.4362-4.1777 2.6123-6.3027 3.4336l-0.14063 0.70898c1.6225 0.45625 3.4888 0.96187 4.7363 1.2344 0.175 0.0387 0.38226 0.10274 0.60351 0.17774l1.1035-5.5547zm-125.91 17.593c1.4881-0.0672 4.8984 0.70898 4.8984 0.70899 0 0 0.98944 7.546-5.7168 11.197-2.435 1.325-4.5646 2.6348-9.5996 3.4473-8.37 1.3537-15.756-2.5918-15.756-2.5918 5.295-0.3625 8.8398-2.707 8.8398-2.707s0.01828-0.0173 0.05078-0.0449c4.3475-3.5075 14.184-8.8863 16.779-9.9238 0.11859-0.0487 0.29133-0.0763 0.50391-0.0859zm45.52 30.887s-1.3202 5.862-5.459 9.332c10.635 5.5425 15.716 14.302 17.027 18.73 1.31 4.4312-0.6075 8.6919-1.9688 9.5156 3.86-0.49375 16.091-2.0517 19.941-2.543 3.315-0.66625 3.7461-3.2802 3.3086-4.709-1.86-6.37-14.533-24.567-32.85-30.326zm-90.248 4.0703c0.38 0.002 0.51844 0.41727 0.30469 1.1035-1.175 3.4112-3.5906 7.4387-7.7031 8.5137-0.85375 0.0962-2.4773 0.28062-2.5898-0.64063-0.27375-3.2487 3.499-4.0962 5.6777-5.75 0.1075-0.10375 0.23164-0.21781 0.33789-0.32031-0.8225-0.4525-2.3645 0.0541-3.332 0.0879 1.9737-1.845 4.4009-2.9829 7.3047-2.9941zm19.256 2.5781c-5.06 1.3038-10.928 5.3984-10.928 5.3984 4.4037-1.2725 7.0114-1.9177 8.6602-0.77148 1.6475 1.1462 0.2793 6.3457 0.2793 6.3457 0.8375-2.38 5.6816-8.6738 5.6816-8.6738-0.9975-1.1075-3.6934-2.2988-3.6934-2.2988zm0.74023 17.305c-0.29125 0.16751-0.5882 0.32875-0.87695 0.5-0.29125 0.9275-1.3321 4.1488-2.4434 6.4863l-0.08398 0.1836-0.17188 0.10546c-0.16 0.10001-0.31922 0.19884-0.48047 0.29883l10.477 50.496 4.4844-5.5117-10.904-52.559zm100.61 19.895c-1.875 0.0575-3.7537 0.13734-5.6387 0.24609l10.098 37.93 4.2383-5.5098-8.6973-32.666zm-14.471 0.93554c-1.95 0.19125-3.907 0.40414-5.877 0.65039l-8.2734 31.078 4.2363 5.5117 9.9141-37.24zm89.887 4.5625-5.6348 27.16 4.4863 5.5117 6.7246-32.404c-1.8812-0.0712-3.7399-0.15883-5.5762-0.26758z" fill="#b5a268" transform="translate(-.00019836)"/><path d="m104.06 83.62c-3.885 0.78875-3.6327 0.1675-7.459 1.0938-7.8512 1.345-16.09 5.9023-20.197 12.621 1.9062-2.1088 10.097-7.7125 14.328-8.3125 0.1775-0.10125 0.37625-0.19547 0.5625-0.29297 0.24875-0.13125 0.4907-0.26438 0.75195-0.39062 0.215-0.1025 0.44352-0.20148 0.66602-0.30273 0.29375-0.1325 0.58242-0.26578 0.88867-0.39453 0.1975-0.0825 0.40492-0.16289 0.60742-0.24414 0.35-0.1425 0.7-0.28312 1.0625-0.42188 0.1225-0.04625 0.25-0.09437 0.375-0.14062 1.455-0.5475 2.9826-1.0836 4.5176-1.6523 0.10125-0.0375 0.20414-0.07383 0.30664-0.11133 0.4325-0.1625 0.86297-0.33125 1.293-0.5 0.175-0.06875 0.35164-0.13312 0.52539-0.20312 0.59625-0.24 1.1902-0.48805 1.7715-0.74805zm58.779 4.1016c-0.43803 0.0035-0.87965 0.0157-1.3242 0.03711-12.591 0.60875-20.099 2.8095-30.611 7.2207 0.23125 0.02125 0.50547 0.05695 0.79297 0.0957 0.0987 0.01375 0.20164 0.02797 0.30664 0.04297 0.2225 0.0325 0.45688 0.06937 0.70313 0.10938 0.0987 0.015 0.19047 0.02867 0.29297 0.04492 0.32875 0.05625 0.6764 0.11664 1.0352 0.18164 0.16875 0.03125 0.34578 0.0632 0.51953 0.0957 0.1825 0.03375 0.36649 0.06922 0.55274 0.10547 0.13875 0.02625 0.27086 0.05062 0.41211 0.07813 8.1925-3.12 15.18-4.7556 25.75-5.2656 14.224-0.685 25.685 8.2905 40.117 3.4355-14.421 1.9181-24.968-6.2896-38.547-6.1816zm-42.738 9.8496c-4.5983 0.0142-9.2875 0.52965-14.092 1.668 0 0 0.0315-0.0042 0.084-0.01172 1.54-0.225 25.477-3.3141 60.596 15.555 51.299 27.564 46.617 53.343 96.908 69.611 0.25875 0.0838 0.50828 0.16945 0.76953 0.25195-46.902-21.902-52.482-52.829-97.234-73.652-15.331-7.1357-30.609-13.473-47.031-13.422zm67.795 3.3047c-4.8583-0.0856-9.1094 0.29454-12.57 0.82032-6.2588 0.95-9.9336 2.375-9.9336 2.375 1.3975 0.465 3.0706 1.3057 4.0606 1.7207 20.254-5.01 35.272-0.40727 41.73 2.709 5.325 2.57 13.931 7.7795 24.402 6.9258-2.7538-0.47625-5.4623-1.303-8.1523-2.3106-2.8688-1.075-5.7152-2.3562-8.5664-3.6875-7.0288-3.28-14.091-6.7899-21.611-7.8262-3.3122-0.45657-6.4444-0.6752-9.3594-0.72657zm-123.36 6.4961s-6.7345 2.806-11.564 5.8223c-1.1388 0.71125-2.1726 1.4355-2.9863 2.1367l2.9375 0.86719s8.272-7.1349 11.613-8.8262zm53.918 7.6348s-2.7241 0.28618-4.1641 0.63867c6.1225 8.6975 4.6413 26.694-5.9512 32.496-0.01 0.005-0.0173 0.0113-0.0273 0.0176 0.0337-0.0125 0.0651-0.0298 0.0976-0.041 0.72125-0.25125 1.4251-0.53726 2.1113-0.85351 0.11875-0.055 0.23602-0.11368 0.35352-0.16993 0.6925-0.33625 1.3698-0.69796 2.0098-1.1055 12.29-6.2288 8.5966-27.572 5.5703-30.982zm-59.07 1.1602s-0.01398 0.0113-0.02148 0.0176c-0.48 0.36375-15.752 11.981-31.449 26.809l4.3691-0.54297 27.102-26.283zm-31.471 26.826s-3.0184 0.049-5.2246 0.89649c0 0-6.0845 6.1948-8.5645 10.322 0 0 0.67148 3.832 2.6465 7.2383l-1.6367 4.0234 2.9199 0.19531 1.5156-3.6133-2.3594-6.8926 5.9609-6.7793 4.7422-5.3906zm174.55-25.7c-1.0072-0.01-1.9509 0.009-2.8281 0.0469-0.075 0.004-0.15282 0.006-0.22656 0.01-0.11376 0.005-0.22594 0.009-0.33594 0.0156-4.0125 0.21875-6.5115 0.83797-7.1465 1.0117-0.1075 0.03-0.16797 0.0488-0.16797 0.0488 1.965 1.315 3.7754 2.793 3.7754 2.793 0.03-0.005 0.0598-0.008 0.0898-0.0117 15.404-2.105 33.586 2.6606 51.439 15.766 4.77 3.4988 12.967 9.0243 21.822 11.029-8.2562-3.4712-14.788-9.2601-22.426-14.83-2.5662-1.8712-5.2664-3.7125-8.1914-5.4375-2.035-1.2-4.1686-2.3484-6.4648-3.3984-12.133-5.5497-22.289-6.9765-29.34-7.043zm-124.49 1.4219c-1.4788 0.885-2.8725 1.7585-4.1875 2.6035 0.38125 0.5675 1.0295 0.92343 1.8457 0.92968 1.3462-0.025 2.4921-0.98265 2.6621-2.2226 0.05625-0.50125-0.06656-0.9368-0.32031-1.3106zm143.3 21.05c-2.7094-0.0577-3.964 0.55133-3.9902 0.56445h-0.004c1.21 1.17 2.2224 2.0773 2.7148 2.5098 0.2 0.17625 0.32421 0.28125 0.32421 0.28125 26.75 0.57375 43.654 33.067 55.906 37.225-11.306-7.4-16.464-20.271-29.377-29.615-0.52375-0.37875-1.0359-0.76071-1.5859-1.127-6-4.0012-10.917-6.4268-14.867-7.873-3.2688-1.1962-5.8716-1.7195-7.8691-1.8945-0.44704-0.0391-0.8649-0.0621-1.252-0.0703zm-174.62 21.27c-4.0387 0.78625-11.295 7.7799-14.459 11.982-4.015-0.4525-7.4646-1.0438-10.787-1.0312 0 0 0.44094 2.5431 0.64844 3.6094 3.7088 0.80875 8.4534 1.5948 10.975 2.1348 2.79-0.94625 10.782-5.3877 13.756-7.709 0 0 1.5359-4.3575 2.3184-7.8438 0 0-5.8198 4.9626-8.1035 6.2988 1.42-2.6888 5.6523-7.4414 5.6523-7.4414z" fill="#fff"/></g></svg>
