<svg xmlns="http://www.w3.org/2000/svg" height="217.23" viewBox="0 0 250 217.22955" width="250"><g transform="matrix(1.25 0 0 -1.25 -94.227 334.61)"><g><path d="m235.43 149.59c4.2079-6.1633 9.0209-9.6071 13.656-9.7375 3.6356-0.10256 6.659 2.0384 8.5284 6.0209 3.1969 6.8141 2.386 16.711-2.1656 27.626-0.0652-0.11965-0.13104-0.23929-0.19751-0.35895l-2.472-4.4484-1.6649 4.6624c-0.0443-0.55519-0.12408-1.1104-0.18612-1.67-1.4136-12.761-11.847-18.51-11.847-18.51l-0.42604 2.3847c-0.75269-1.7352-2.1359-4.2477-3.2247-5.969zm-2.8778-20.292c-0.0165 0.0513-0.031 0.10065-0.0437 0.15002l-0.0411 0.19246-3.0855 18.153 1.5377 0.26208c-0.0646 0.10065-0.13041 0.20257-0.19499 0.30449l-0.81346 1.2851 0.86158 1.2534c4.5503 6.6198 5.7069 12.805 4.8561 15.751l4.3028 1.6118c1.0122-2.1764 1.6656-4.2756 2.084-6.1596 5.6696 7.2294 5.8398 17.073 1.9308 22.942l3.6109 2.8411c2.6113-2.8284 4.4832-5.6905 5.8145-8.2258 0.0215 0.0469 0.0418 0.0924 0.0633 0.13926l1.9998 4.4491 2.1663-4.3706c6.8749-13.869 8.4005-26.976 4.1851-35.96-2.6556-5.6601-7.3224-8.8164-12.828-8.6708-4.8751 0.13738-9.7261 2.7772-14.054 7.5605l2.0846-12.268c0.00064-0.00064 0.00064-0.0008 0.00064-0.002l0.0209-0.12408-1.4472-0.24561-0.80397-0.20827-2.2074-0.66028zm0.64571-1.915c-0.0709 0.17347-0.13864 0.34691-0.20321 0.521-0.0614 0.16396-0.11901 0.32855-0.17473 0.49379l4.3706 1.4611c0.0437-0.12915 0.0893-0.2583 0.13801-0.38679 0.0437-0.11712 0.0893-0.23297 0.13737-0.35008l-4.268-1.739zm1.0768 101.77zm-86.794-111.22 3.2247-3.4007c0.17092-0.17916 16.863-17.162 50.449-15-1.7219 1.311-3.2134 2.6215-4.5421 3.9825l-4.8206 4.9422 6.9686-1.0793c1.965-0.32159 3.8185-0.37223 5.4353-0.16523-0.93376 0.83119-1.8213 1.725-2.6563 2.6772l-3.3532 3.8236h34.534l-0.004 0.008 3.8837 0.004 8.2942-0.0171c-3.559 2.7797-7.8162 6.69-10.407 11.094l-0.0184 0.0108-0.31399 0.57354c-0.0411 0.0753-0.0817 0.15066-0.12218 0.226-0.30766 0.57734-0.58556 1.1629-0.82676 1.7542-0.00063 0.0008-0.0008 0.003-0.002 0.004 0 0.00063-0.00064 0.002-0.0008 0.003l4.2648 1.746c0.12725-0.30956 0.27032-0.62482 0.42921-0.94388 2.9101-1.5522 5.9329-2.4049 8.9931-2.5354 0.26905-0.0108 0.53493-0.0171 0.80017-0.0171 7.3332 0 13.843 4.4054 17.414 11.784 2.6176 5.41 4.908 14.856 0.94831 29.138-1.8782 6.7723-4.9739 13.854-9.2007 21.048l-0.45326 0.77231 0.18674 0.87551c0.64066 3.0063 0.92173 6.0101 0.83499 8.9272l-0.0506 1.7004 1.6105 0.54885c1.3351 0.45516 2.1853 1.2895 2.2372 1.3414l1.0566 1.111 1.0135-0.0171c0.67229-0.0152 1.3129 0.11774 1.9124 0.38552 3.3716 1.5054 4.3003 6.3691 4.3731 8.1163l0.0114 0.26715-0.2165-0.15636c-1.4927-1.0794-2.8645-1.8719-4.0762-2.3556l-3.352-1.3376 0.19688 3.6033c0.0487 0.89512-0.15067 1.8529-0.31083 2.6227-0.0259 0.11015-0.1494 0.56468-0.33045 1.2224l-0.21017-0.2931c-0.79953-1.4554-2.2828-2.5252-3.9192-2.8133-0.52543-0.0918-1.0983-0.12218-1.6529-0.1513l-1.5934-0.0785-0.68623 1.292c-3.7242 7.011-8.8266 11.088-11.536 12.894-4.1452 2.7626-6.8527 3.1196-7.6345 2.9392-0.28297-7.3712-2.5043-13.127-6.6014-17.111l-2.8633-2.7829-0.97743 3.8711c-1.4946 5.9209-3.8033 10.993-6.8629 15.075l-1.2199 1.6276 1.463 1.4123c5.0562 4.8821 6.0659 10.387 6.1184 13.805-8.7702-4.2642-15.838-0.74763-22.154 2.3948-5.8475 2.9088-10.897 5.422-17.267 2.8538-1.3997-0.56404-2.1289-0.94957-2.7557-1.7428l-1.0046-1.2724-1.537 0.51593c-0.91791 0.30767-2.7246 0.66913-4.5104-0.37603-3.1393-1.8384-3.6438-6.4191-3.514-9.9382l0.37287-10.111-4.7143 8.9526c-6.4577 12.264-4.0009 18.895-2.5328 22.857 0.84512 2.2821 0.75586 2.3632 0.37919 2.705-0.27157 0.24499-1.8953 0.84005-5.681 0.3716-11.395-1.4087-28.571-10.281-39.359-26.434l-0.68432-1.0243h-11.536l-18.01 0.0411c4.0819-3.9527 9.5799-10.135 10.878-15.808l0.0234-0.11838 8.215-47.121c3.6622-27.175 18.096-49.889 39.05-61.947-0.28297 1.1832-0.40452 2.417-0.2203 3.5976l0.7242 4.6307zm47.564-23.219c-20.682-0.0016-34.45 6.8496-41.673 11.769 0.11775-0.18675 0.23296-0.36083 0.34312-0.51783l4.5212-6.4571-7.8593 3.2418c-25.252 11.759-42.823 37.269-47.012 68.242l-8.1821 46.927c-1.4725 6.2526-10.498 14.604-13.862 17.302l-5.134 4.1167 39.72-0.0696c13.303 19.169 32.528 26.261 41.927 27.423 3.0709 0.38046 7.1845 0.42224 9.34-1.5294 2.7784-2.5157 1.7086-5.4024 0.84891-7.7225-0.92171-2.4872-2.1827-5.8918-0.75395-11.512 0.97489 2.3537 2.4815 4.1528 4.4927 5.3309 2.0675 1.2098 4.4522 1.6029 6.842 1.1502 1.1097 0.9749 2.3252 1.5193 3.5716 2.022 8.291 3.3412 15.066-0.0285 21.042-3.0019 6.8122-3.3893 12.694-6.3159 20.777-0.80081l2.7747 1.8934 0.76724-3.2703c0.10825-0.46086 2.4246-10.868-5.7538-20.028 2.1112-3.1424 3.854-6.7261 5.2081-10.706 1.6143 2.8424 2.5088 6.4292 2.6677 10.717 0.081 2.1732 1.4047 3.7641 3.5406 4.2541 5.8108 1.3313 17.06-5.6588 23.542-16.78 0.21144 0.0918 0.42289 0.27538 0.51594 0.46276l0.0829 0.16586 6.0133 8.3822 1.2927-4.6231c1.0382-3.7116 1.6048-5.7734 1.6858-6.1323 0.10952 0.0766 0.22094 0.15573 0.33552 0.23866l7.9194 5.7246-0.40958-9.7635c-0.1418-3.3919-1.7972-9.7641-7.0984-12.13-0.90145-0.40388-1.851-0.65393-2.8304-0.74636-0.39692-0.3621-1.1534-0.98375-2.2068-1.5446-0.0247-2.498-0.28233-5.0372-0.77105-7.5776 4.2028-7.2781 7.3041-14.47 9.2216-21.387 4.344-15.665 1.7232-26.252-1.2401-32.376-4.5168-9.3343-12.991-14.784-22.56-14.363-1.2401 0.0525-2.4733 0.20004-3.6951 0.44312 4.7206-4.6877 10.36-8.0574 10.445-8.1074l7.2731-4.3047-21.765 0.0443-2.348-0.008h-27.416c0.36717-0.26652 0.74193-0.5229 1.1218-0.76852l3.1127-2.0061-3.1754-1.9055c-1.5434-0.92614-3.4248-1.5275-5.5373-1.7915 1.261-0.92045 2.6588-1.8517 4.2212-2.8133l5.5461-3.4128-6.4584-0.83498c-4.589-0.59317-8.9152-0.85651-12.971-0.85714" fill="#d3d4d3"/><path d="m161.36 264.42c-14.532 0.19592-55.71-17.626-56.038-69.456 0 0-0.54579-7.8359-0.48437-11.43 0.61024-35.487 18.445-65.735 46.645-78.869l0.47969-0.19844s-3.3521 4.7542-2.7969 8.3062c0 0 19.157-20.201 58.688-15.091-3.6071 2.2201-6.8281 4.5717-9.4578 7.2672 0.73434-0.11332 6.628-1.2246 10.795 1.2766-7.5769 4.8865-12.598 13.394-12.598 23.081 0 2.9988 0.48713 5.8822 1.3766 8.5828 6.7565 6.7185 11.752 15.205 14.239 24.705 1.0515 0.82612 2.0099 1.6517 2.8766 2.4734 1.3313-12.515 3.3404-23.635 6.3562-26.652 4.4557 2.8279 8.075 6.4552 10.817 10.252-0.15748-0.21976-0.30719-0.44106-0.47187-0.65937l3.0859-18.153c0.3064-1.1977 0.80351-2.3816 1.4359-3.5375 3.364-1.9118 6.9389-2.9961 10.616-3.1531 0.30197-0.0133 0.60027-0.0203 0.89844-0.0203 8.2378 0 15.523 4.8921 19.488 13.084 2.7911 5.767 5.2468 15.784 1.0953 30.756-1.9439 7.0114-5.1045 14.23-9.4344 21.6 0.70844 3.3237 0.9738 6.4888 0.88438 9.4828 1.9227 0.65739 3.0956 1.8559 3.1594 1.9234l0.36406 0.38282c1.1768-0.0209 2.1506 0.25359 2.8938 0.58594 4.2813 1.9112 5.6245 7.4583 5.7359 10.123l0.21093 5.0156-4.0688-2.9406c-1.518-1.0977-2.6931-1.7289-3.5812-2.0828 0.0658 1.1958-0.17645 2.3568-0.35624 3.2203-0.0709 0.34374-1.6531 6.0031-1.6531 6.0031l-3.1078-4.3312c-0.44503-0.8945-1.3687-1.585-2.3531-1.7578-0.38425-0.0671-0.8616-0.0921-1.375-0.11875-0.0369-0.002-0.0841-0.007-0.12187-0.009-7.7361 14.568-23.291 20.754-23.508 14.891-0.28676-7.7289-2.7872-12.564-5.9062-15.595-1.294 5.1252-3.4994 10.883-7.2547 15.894 8.981 8.6715 6.4922 19.278 6.4922 19.278-16.992-11.596-26.272 10.01-42.256 3.5688-1.48-0.59697-2.6909-1.169-3.7031-2.4516-1.8327 0.61533-4.188 0.7265-6.4062-0.57187-4.0819-2.3904-4.8108-7.7347-4.6531-12.011-9.5476 18.131 1.6927 22.265-2.6469 26.195-0.79163 0.71685-2.324 1.1126-4.4 1.1406zm84.638-78.27c4.0743-4.4117 6.2384-8.8828 7.3734-12.059 0.86476 1.5561 1.6212 3.0841 2.2984 4.5906 7.4008-14.93 7.5623-26.716 4.1641-33.958-2.2486-4.7922-6.1471-7.4694-10.68-7.3453-5.8019 0.16396-11.589 4.525-16.352 12.047 4.5174 6.573 6.3756 13.533 5.1734 17.692 1.8396-3.9521 2.4052-7.617 2.5406-10.162 9.7844 8.1935 10.427 21.77 5.4812 29.195z" fill="#115740"/><path d="m187.57 248.75c-0.88448-0.0309-1.6992-0.19394-2.4266-0.52344-1.4807-0.6704-2.5292-2.032-3.2312-4.0844 0.40957-0.35894 0.81859-0.72236 1.225-1.1016 0.63495-0.47162 2.6932-1.5308 7.6031-0.5375 3.1114 0.63051 5.5462-1.0125 7.539-3.0016 4.3478-4.3383 9.0047-4.3234 9.0047-4.3234-4.9719-2.5664-10.165 1.6751-12.35 1.3984-0.97869-0.12344-2.6244-0.98578-1.0703-3.2344 3.8027-4.7972 4.7538-9.1171 4.9672-9.4437h0.003c-0.32538-1.8175-2.1434-10.866-5.9594-10.502-0.16712 0.0152-0.35121 0.0445-0.55 0.0875-1.0097 0.21713-2.4114 0.76726-4.0422 1.475-0.74699-2.2163-1.9765-7.0043-7.9797-6.7156 2.4164-3.1127 5.3672-2.9141 5.3672-2.9141l-1.6609-1.3766c-4.1028-3.4045-7.7824-3.9692-12.439-1.8188 0.36654-1.9371 1.7555-4.5891 4.2016-6.1578 2.7664-1.7763 8.5086-7.1564 13.634-13.784 1.199 2.5816 2.8208 4.2351 3.7406 4.7687l1.8609 1.0797-0.74687-2.0187c-0.0234-0.0633-1.1938-3.3539-1.0906-8.2125l-3.6641-6.1797s4.1874-22.155 11.986-25.105c9.9331 9.0779 17.865 26.19 12.227 37.289 0.71976-0.5919 3.5558-4.7504 3.8109-8.7234 3.4172 4.8004 3.7554 12.331-2.2984 18.88 4.3712-2.8956 7.7583-7.7937 8.0406-13.303 4.3889 17.533-6.8312 28.23-6.8312 28.23s3.2614-1.5519 6.7172-7.1031c-0.37097 5.8582-2.4123 21.915-13.144 29.944 0 0 1.7117-0.36937 3.3734-1.0094 1.7864 1.368 5.8501 5.0205 7.1719 10.811-2.4663-1.3889-6.5821-2.9059-15.512 1.0734-1.1515 0.50707-2.3244 1.0481-3.5 1.5906-5.0031 2.3089-10.144 4.6808-13.977 4.5469zm-1.275-8.5062s3.9406-3.9874 3.9609-3.9844c-0.67356 2.0751 2.9572 3.4818 5.2672 2.8234 0.21967-0.062-1.6621 1.5563-3.8562 1.0094-2.1694-0.53998-3.1904-0.5739-5.3719 0.15157zm-52.502-73.623-3.9547-0.37031c0.90335-0.30133 1.1433-1.3524 1.2047-1.8l0.11875-1.2844-8.95-0.82812 0.32656-3.5297 8.95 0.82969 0.11563-1.2453c0.0266-0.42162 0.0112-1.5574-0.84844-2.036l3.9531 0.3672-0.91562 9.8969zm0.97812-11.247s-0.1735-1.1254-1.4719-2.0812l-9.2547-3.4172 1.2156-3.2906 3.4688 1.2812 0.18593-0.50312-2.7344-3.275 1.4141-3.8266 3.2688 4.3203c1.1154-1.0249 2.4358-1.3102 3.9438-0.75312 2.3986 0.88564 3.0685 3.013 2.0031 5.8984l-1.2547 3.3984-0.78438 2.2484zm-0.75312-5.5172 0.24531-0.66562c0.39565-1.0705 0.0979-1.8625-0.84219-2.2094-0.98945-0.36525-1.7565 0.0152-2.1516 1.0844l-0.25 0.68282 2.9984 1.1078zm4.7953-5.2828s0.18651-1.418-1.2359-2.8828l-7.5016-5.3969 2.0688-2.875 9.6781 6.9625-2.0469 2.8469-0.9625 1.3453zm3.6547-4.9797s0.52749-1.3232-0.47969-3.0875l-5.8656-7.1703 3.4641-2.8344c2.234-1.8276 4.3318-2.046 5.7656-0.29375 1.0388 1.2712 0.88773 2.4219 0.15781 3.5766 0.98502-0.26968 2.1027-0.15809 2.9453 0.87187 1.2585 1.539 0.88876 3.2693-1.2516 5.0203l-3.0391 2.4859-1.6969 1.4312zm2.2438-5.0266 0.73437-0.60157c0.72231-0.59126 0.75636-1.1762 0.32969-1.6984-0.45896-0.56152-1.1154-0.62769-1.825-0.0484l-0.69531 0.57031 1.4562 1.7781zm5.7062-1.8938s0.92952-1.0951 0.525-3.1031l-3.3672-8.5891 7.4672-2.9266 1.0156 2.5906-4.2484 1.6641 0.69376 1.7719 3.3141-1.3 1.0031 2.5578-3.3156 1.3 0.625 1.5922 4.1031-1.6078 1.0141 2.5906-7.3203 2.8688-0.002-0.005-1.5078 0.59531zm-8.5297-1.5562 0.72187-0.59063c0.78942-0.64508 0.92039-1.3324 0.37344-2.0016-0.53683-0.65584-1.2511-0.63003-2-0.0172l-0.73594 0.60312 1.6406 2.0062z" fill="#fff"/><path d="m188.2 246.55s-4.2036-0.3349-5.9875-1.6219c-0.10572-0.24816-0.20539-0.50685-0.29844-0.77969 0.40957-0.35894 0.81859-0.72236 1.225-1.1016 0.63495-0.47162 2.6932-1.5308 7.6031-0.5375 3.1114 0.63051 5.5462-1.0125 7.539-3.0016 4.3478-4.3383 9.0047-4.3234 9.0047-4.3234-4.9719-2.5664-10.165 1.6751-12.35 1.3984-0.97869-0.12344-2.6244-0.98578-1.0703-3.2344 3.8027-4.7972 4.7538-9.1171 4.9672-9.4437h0.003c-0.16396-0.91286-0.70471-3.6516-1.6859-6.1047-0.3792-1.3781-0.93378-2.5898-1.7422-3.1203-0.72042-0.85144-1.5608-1.3696-2.5313-1.2766-0.16712 0.0152-0.35121 0.0445-0.55 0.0875-1.0097 0.21713-2.4114 0.76726-4.0422 1.475-0.74699-2.2163-1.9765-7.0043-7.9797-6.7156 2.4164-3.1127 5.3672-2.9141 5.3672-2.9141l-1.6609-1.3766c-0.45894-0.38109-0.8977-0.43106-1.3484-0.74062 4.5832-1.0718 9.3424 1.536 10.952 3.8688 0.79321-4.0534-1.4278-7.7372-2.975-9.7016 12.618 3.6907 12.497 11.552 12.497 11.552s1.4093-2.2044 1.5859-3.8781c4.8903 6.1241 0.96875 13.659 0.96875 13.659s2.0747-0.60598 3.9656-2.8641c-0.26397 5.8158-9.2953 11.455-9.2953 11.455s1.7276 0.0343 3.0938-1.3312c0 3.3482-2.478 5.0515-3.6188 5.7188-2.4442 1.4294-5.6758 3.8278-2.1219 2.6281 3.5982-1.2154 8.3999-2.3606 11.139 1.7188-2.7151-0.6628-6.6982 0.71765-10.452 5.0078-3.7337 4.2674-8.8793 2.2063-10.95 2.6469s0.74844 2.8516 0.74844 2.8516zm32.361-5.0047c-0.95084-1.1161-4.3636-5.0404-7.7687-5.5703-2.5658-0.39882-4.6795-1.9033-5.4563-4.8906 1.9365 0.59886 3.4418-0.9977 4.3313-2.1125-0.74194 0.11268-1.3992 0.0939-2.0797 0.0984 4.9871-3.8236 7.978-11.489 9.8031-19.025-4.589 2.8582-7.8672 3.1734-7.8672 3.1734s8.7277-11.661 9.3297-19.184c-4.6643 4.4389-10.984 4.5141-10.984 4.5141s6.9349-9.4334 7.3109-14.398c-3.5982 4.0939-5.9547 4.0938-5.9547 4.0938s4.6272-7.6127-3.2203-22.253c-0.42683 1.3916-1.2265 3.1983-2.7375 4.9359 0.89144-3.5658-0.21234-10.521-3.4453-14.205-0.0149 0.0112-0.0304 0.0261-0.0453 0.0375-0.74568 1.0106-3.5147 5.1087-2.0406 9.0234-1.2685-1.6737-1.8389-3.0249-2.1031-4.0391-2.5269 4.0814-4.2622 9.0304-2.4891 10.409-3.9388-0.72041-12.43-7.0145-13.905-8.825 1.3098-4.3554 5.7942-12.155 8.2453-15.592l5.1969-5.3766c0.78499-0.75775 5.7551-0.0283 6.6313-0.35938 9.9338 9.0773 18.046 30.722 12.408 41.82 0.71976-0.5919 3.5558-4.7504 3.8109-8.7234 3.4172 4.8004 3.7554 12.331-2.2984 18.88 4.3712-2.8956 7.7583-7.7937 8.0406-13.303 4.3889 17.533-6.8312 28.23-6.8312 28.23s3.2614-1.552 6.7172-7.1031c-0.37097 5.8582-2.4123 21.915-13.144 29.944 0 0 1.7117-0.36936 3.3734-1.0094 3.7717 1.1914 5.8507 5.0205 7.1719 10.811zm-48.466-11.394c2.7025-0.93184 3.845-2.3462 4.7812-3.4344 3.6558-4.2471 6.7339-5.1253 9.775-5.25 2.6683 0.11648 5.2042 0.72924 7.1844 2.3125-2.8329-0.35072-5.4658-0.28901-7.6922 0.19843-1.6605 0.36274-4.3264 1.1408-6.6516 2.8-2.2543 1.6086-4.2962 3.2677-7.3969 3.3734zm30.122-73.055c-0.1107-0.14585-0.21049-0.28754-0.32344-0.43438-0.0173 0.0127-0.0358 0.0308-0.0531 0.0438l0.37656 0.39063z" fill="#d0d3d4"/><path d="m185.59 185.85 0.001-0.0152c0.009-0.10066 0.008-0.16776 0.0139-0.18422-0.0424-0.0551-0.0949-0.10825-0.15699-0.16269 0.0487 0.12028 0.0956 0.23992 0.1418 0.3621zm49.29-56.003-8.4778 49.878-7.6257-6.2564-2.0631 1.9466-14.911-27.229-9.999 18.246c1.5529 0.50834 3.0196 1.3319 4.3123 2.4879 2.7962 2.4999 4.4655 6.2406 4.4655 10.008 0 5.7822-3.6406 10.933-8.655 12.246l-5.165 1.3541c-0.045 3.6071-1.7352 9.3533-6.3678 13.823-2.8956 2.7936-8.0416 6.064-16.069 5.8215-0.54506-0.0165-1.275-0.12597-1.275-0.12597-0.67609 12.925-5.0751 25.797-5.0751 25.797l-7.7156-1.0711c-3.2842 0-6.0627-2.4296-6.4514-5.5613l-1.2857-9.0298-11.869 13.295-11.825-13.314-1.3053 8.9602c-0.39439 3.1678-3.2336 5.6493-6.4602 5.6493l-28.159 0.0639s12.756-10.229 14.68-18.64l9.3653-53.714 23.712 35.373 12.705-23.185c-3.8489-4.7732-6.0298-10.764-6.0298-17.027 0-14.967 12.177-27.144 27.144-27.144 1.6282 0 3.214 0.16966 4.7637 0.44567-0.35704-10.528-12.167-19.188-14.939-21.691l27.9 0.0165c3.2842 0 6.0621 2.4296 6.4508 5.5613l1.2864 9.0304 11.869-13.502 11.825 13.521 1.3053-8.9614c0.39376-3.1684 3.2323-5.6499 6.4602-5.6499l31.008-0.0639s-15.027 8.8734-17.53 18.641m-140.76 106.95 21.559-33.92s14.724 11.568 15.775 12.094c1.0515 0.52542 17.877-14.459 17.877-14.459l14.459 36.281h-69.669zm121.35-87.32l-54.008-1.6719-7.4078-34.412 22.464-2.15h60.22l-21.269 38.234z" fill="#115740"/><path d="m240.88 208.24c-1.8802 2.1789-2.6024 4.2642-1.9802 5.7202 0.39882 0.93247 1.3167 1.5035 2.5189 1.5649 3.3577 0.18295 8.8184-3.4134 13.476-11.811 0 0-2.0333 0.79511-2.4619 1.468 0.28677-1.2895 0.87867-2.6164 1.7073-3.2197 2.5575-1.8631 4.6618-1.135 5.7677-0.45706-1.5674 0.8831-1.996 1.9979-2.1062 2.6506-0.0386 0.22853-0.1304 1.0015 0.30956 1.3623l0.31653 0.25955 0.51593-0.18041 0.0899-0.0734c2.279-1.8776 4.2845-2.4499 5.9633-1.701 1.958 0.8736 3.2539 3.4545 3.7071 5.9032-2.7765-1.7896-5.039-2.486-6.897-2.1289-1.2268 0.23739-2.2169 0.93881-2.9411 2.0865 0 0 0.88246-0.27664 1.8054 0.0266 0.94514 0.61722 0.87931 1.8396 0.58304 3.3925-0.94894-1.0249-2.2315-1.7478-3.6071-1.9903-0.57544-0.10066-1.1749-0.13231-1.7548-0.1627-0.90019-0.0462-1.7605-0.0975-2.4138-0.39692 0.30449-0.96223-0.12788-2.4638-0.12788-2.4638-3.5381 6.7755-9.3298 9.6976-13.237 9.5565-1.7795-0.0677-3.0475-0.77358-3.5691-1.9871-0.97173-2.2625 0.61849-6 4.3617-10.254 24.438-27.77 27.248-50.234 21.728-61.998-2.7974-5.962-7.7516-9.2887-13.563-9.1216-5.9412 0.16839-11.775 3.8945-16.716 10.4l2.3037-13.555c3.8445-2.9962 8.0524-4.6997 12.401-4.8846 7.3566-0.31209 13.892 3.9198 17.475 11.324 3.6179 7.4756 3.9369 17.628 0.89829 28.586-3.6945 13.323-11.955 27.482-24.553 42.084" fill="#b9975b"/><path d="m177.01 245.3c-0.50339 0.0288-1.0474-0.0522-1.5578-0.34062-1.1604-0.65647-2.9038-2.9045-1.9422-10.569 1.2636 0.45135 3.3295 0.87435 5.6047 0.38437 0.27095-0.0582 0.54367-0.12952 0.82031-0.21562 2.8677-0.89007 5.1842-3.0512 6.8922-6.4266 2.391 0.36274 5.3418 0.076 7.9562-1.1312-2.8677 3.9654-7.6346 10.139-12.631 14.833-0.18106 0.14244-0.3071 0.26575-0.3875 0.35625-0.97364 0.89702-1.9542 1.743-2.9297 2.4938-0.26113 0.21365-0.98603 0.56768-1.825 0.61562zm-46.355-12.794-14.628-25.3h-0.15156l-3.3922 23.294c-0.0747 0.6033-0.75325 1.2062-1.4312 1.2062l-16.791 0.008s5.9564-3.1825 8.2797-12.472l7.6797-46.141 20.355 37.172h0.15156l18.836-34.372c-4.3983-4.038-7.1656-9.8268-7.1656-16.255 0-12.172 9.9028-22.075 22.075-22.075 4.0767 0 7.8958 1.1151 11.177 3.05l-1.8688-11.256c-2.2188-9.7185-8.4094-13.03-8.4094-13.03l16.827 0.008c0.75396 0 1.3559 0.60359 1.4312 1.2063l3.3172 23.294h0.15157l14.695-25.302 14.628 25.302h0.15157l3.3922-23.294c0.0747-0.60267 0.75324-1.2063 1.4312-1.2063l16.791-0.008s-5.9555 3.1826-8.2781 12.472l-7.6812 46.142-20.355-37.173h-0.15l-19.139 34.923c0.90685-0.64586 2.478-1.4601 4.9531-1.7375 4.3661-0.48871 7.9672 3.5763 7.9672 7.9703 0 3.2956-1.9441 6.5759-4.8688 7.3406 1.1142-12.902-34.711-3.4176-34.147-25.391 0.5748-11.647 17.149-11.601 15.953-1.2359-9.8255-0.0526-6.8484 10.987 0.59688 9.4719l0.12656-0.0984c2.4822-2.3056 3.9234-5.7265 3.9234-9.3734 0-6.9553-5.6597-12.614-12.616-12.614-6.9553 0-12.584 5.5505-12.614 12.614-0.0304 7.0642 3.1884 13.01 12.583 18.07-2.2017 1.2541-7.7943 4.4048-7.9469 11.964h0.009c0 4.394 3.5855 7.9688 7.9688 7.9688 3.1867 0 5.8359-2.5567 5.8359-5.6922s-2.5517-5.741-5.6859-5.6859c-3.1765 0.0557-4.4983 2.3053-4.5016 2.3109 0.0134-4.5769 4.16-7.9293 8.3188-8.2984 8.065-0.71661 13.281 5.0316 13.245 12.131-0.0234 4.7061-4.4876 15.088-17.212 14.695-2.9162-0.0899-5.6627-0.85467-8.0813-2.1328l2.2766 13.706c2.2188 9.7192 8.4094 13.03 8.4094 13.03l-16.827-0.008c-0.75396 0-1.3566-0.60295-1.4312-1.2062l-3.3172-23.294h-0.15156l-14.695 25.3zm29.466-43.923c-0.00001 0.007-0.002 0.0145-0.002 0.0219v-0.0203l0.002-0.002zm36.455 35.42c-3.4108-4.6858-9.389-4.9489-14.755-4.4703 1.3864-0.58936 2.7953-1.2288 4.15-1.8422 2.9874-1.3547 5.8118-2.6339 7.0469-2.7484 1.6529-0.15699 3.3651 4.7113 4.1406 8.4703-0.19119 0.20131-0.37518 0.40895-0.58282 0.59063z" fill="#f0b323"/><path d="m186.64 246.67c-3.2986 0.10342-4.2625-0.94062-4.2625-0.94062l-0.10312-0.0609-0.91875-0.56562s-0.029-1.5881 0.0438-1.6875 2.9812-1.4609 2.9812-1.4609 2.1469-0.17291 0.98906 0.20312c-1.1585 0.37666-2.092 0.57139-1.8344 1.4703 0.37919 1.0363 2.5614 2.5272 4.6656 2.9203-0.57053 0.068-1.0897 0.1071-1.5609 0.12187zm10.302-1.7453c-1.1625-0.0386-2.0536-0.26386-3.2672-0.575 6.8464-0.05 11.99-3.0016 13.453-3.5391-1.7618-0.003-2.5692-0.43423-4.2297-1.6016 4.7662 1.4858 7.8363 0.93404 8.3719 0.88594 1.1039-0.0988 2.8877-0.00058 2.8984 0-1.366 0.15849-10.938 3.6431-12.334 4.2812-2.2964 0.43901-3.7297 0.58706-4.8922 0.54844zm17.227-4.8297c0.002-0.00014 0.005-0.001 0.006-0.002v0.002h-0.006zm-37.4 3.6328c-0.24684-0.0232-0.43187-0.17284-0.53126-0.48438-0.11014-0.61976-0.12656-1.8766-0.12656-1.8766s1.6584 2.0421 7.1672-3.5047c0 0-4.7815 6.0282-6.5094 5.8656zm41.787-5.1469c-0.67861-1.2826-1.8139-2.3161-3.1547-2.8719-1.2851-0.53176-2.7087-0.62632-4.0375-1.0391-1.3281-0.41338-2.6631-1.2977-2.9625-2.6562 1.004 0.64254 2.0491 1.3004 3.2297 1.4625 1.456 0.19941 3.0984-0.33402 4.3094 0.49844 1.2123 0.83309 2.4206 3.5263 2.6156 4.6062zm-25.32-3.9578-0.66094-2.2047c0.61785-1.1965 1.5966-3.188 2.4797-4.2047 1.3484-1.5535 2.1653-4.268 3.325-6.2438-0.62545-1.6453-1.6459-3.6062-1.7453-3.7297-0.0937-0.11648-1.5079-2.1302-2.0953-3.8375l-6.6266 1.6281-0.31562-1.4609s2.1355-5.1057-1.7109-7.3891c3.414-0.3792 7.949 2.2778 9.3031 4.7391 1.5522-1.2655 1.0061-6.041-0.13595-9.3094 9.5008 5.2929 5.9516 13.852 5.9516 13.852s1.543-1.5797 2.8109-6.1016c1.8681 8.8019-1.6938 11.606-1.6938 11.606 0.85587 0.004 2.0342-0.85588 2.5375-1.5484-0.39882 3.1304-3.9313 5.1028-5.5734 6.5828-0.46782 0.42225-0.99078 1.0129-0.75782 1.5984 0.24183 0.37033 0.82949 0.34782 1.9766-0.43906-3.3583 4.934-5.7792 3.6777-7.0688 6.4625zm-11.534-10.773c0.89386-1.2572 2.0404-2.3833 3.4609-2.9859 1.4206-0.60266 3.1428-0.61585 4.4438 0.21407l0.77656 0.44218c-4.3895 0.2836-5.8598 1.1389-8.6812 2.3297z" fill="#115740"/></g></g><script xmlns=""/></svg>