<svg xmlns="http://www.w3.org/2000/svg" height="235.92" viewBox="0 0 250 235.91704" width="250"><g transform="matrix(1.25 0 0 -1.25 -736.72 399.2)"><g transform="matrix(2.2639 0 0 2.2639 -869.63 -282.68)"><path d="m730.09 242.98s-1.332 0.102-2.355-0.608c-1.441-0.996-1.996-3.838-1.996-3.838l-12.182-38.928s-0.496 0.175-1.42 0.429l-0.754-2.427-0.398 0.104c-0.052 0.016-5.444 1.455-11.009 1.652-0.81 0.031-1.613 0.045-2.39 0.045-4.819 0-7.381-0.557-7.408-0.564l-0.408-0.09-3.102 13.019-2.289-11.485c-0.687-0.147-1.369-0.307-2.046-0.473l-0.469-2.188-0.241-0.072c-9.197-2.736-14.763-6.771-19.213-13.928l-0.472-0.76-11.589 33.806c-0.397 1.236-0.701 1.721-1.623 2.007-0.196 0.065-0.417 0.095-0.656 0.095-1.235 0-2.563-0.799-2.577-0.808l-0.734-0.45 2.564 23.432 0.11 0.103c0.021 0.021 1.079 1.035 2.825 2.472l0.209 1.93s4.095 3.606 9.855 6.946c5.481 3.18 11.993 5.587 14.008 6.299l-2.463-23.892c-0.403-0.282-0.933-0.809-1.386-1.781-0.486-1.048-0.508-3.177-0.205-4.498l2.208-10.008 3.096 12.734c0.35 1.443 0.542 2.235-0.044 3.045-0.554 0.766-1.157 0.722-1.218 0.715l-0.55-0.082 0.056 0.541 2.487 21.503 0.248 0.086c0.022 0.007 0.996 0.35 2.557 0.84l0.247 2.151s4.734 1.365 10.287 2.503c5.141 1.05 9.949 1.602 11.49 1.764l-2.364-22.936c-0.393-0.145-0.971-0.499-1.369-1.361-0.539-1.164-0.569-3.128-0.257-4.37l2.208-10.217 3.238 12.182c0.46 1.461 0.487 2.484 0.085 3.226-0.363 0.669-1.339 0.687-1.449 0.687h-0.47l0.029 0.459 2.141 20.354 0.331 0.044c0.023 0.002 0.936 0.118 2.43 0.276l0.235 2.064s6.401 0.702 13.309 0.783c8.651 0.101 13.156-0.355 13.156-0.355l-2.303-22.177z" fill="#c4012f"/><path d="m705.69 262.66c-1.495-0.157-2.4063-0.273-2.4313-0.275l-0.32968-0.0453-2.1422-20.352-0.0281-0.45938h0.46875c0.111 0 1.087-0.0201 1.45-0.68906 0.402-0.741 0.37607-1.764-0.0859-3.225l-3.2375-12.181 1.1719-5.4203 5.0578 19.306c0.437 1.373 0.32832 2.1328-0.17968 3.0828-0.512 0.961-1.9203 0.98594-1.9203 0.98594l2.2063 19.272zm-26.578-4.7609c-1.561-0.491-2.5342-0.83262-2.5562-0.84062l-0.24844-0.0859-2.4875-21.502-0.0547-0.54375 0.54844 0.0828c0.061 0.008 0.66531 0.0529 1.2203-0.71406 0.585-0.81 0.39219-1.6028 0.0422-3.0438l-3.0953-12.734 1.1969-5.4266 4.6828 18.694c0.409 1.717 0.704 2.3605 0 3.6875-0.614 1.163-1.6891 1.1859-1.6891 1.1859l2.4406 21.241zm-28.85-14.38c-1.748-1.438-2.8056-2.4503-2.8266-2.4703l-0.10938-0.10312-2.5656-23.433 0.73594 0.45c0.014 0.009 1.3406 0.80469 2.5766 0.80469 0.239 0 0.45925-0.0282 0.65625-0.0922 0.921-0.286 1.2259-0.77081 1.6219-2.0078l11.589-33.805 0.47344 0.75937c4.449 7.158 10.015 11.191 19.211 13.927l0.24219 0.0719 0.46875 2.1891c-7.936-1.946-15.05-5.2863-19.717-12.045l-10.128 30.756c-0.399 1.259-0.765 2.3241-2.15 2.7531-1.396 0.436-2.5078-0.25312-2.5078-0.25312l2.45 22.5zm37.705-25.252-1.2953-6.5 3.1-13.019 0.40937 0.0922c0.027 0.005 2.5882 0.56407 7.4062 0.56407 0.777 0 1.5816-0.0169 2.3906-0.0469 5.565-0.197 10.957-1.6371 11.011-1.6531l0.39688-0.10313 0.75312 2.4266c-2.082 0.572-6.3573 1.5489-12.17 1.8469-5.147 0.263-8.4203-0.17812-8.4203-0.17812l-3.5812 16.57z"/></g></g></svg>
