<?xml version="1.0" encoding="UTF-8" standalone="no"?>
<svg xmlns:rdf="http://www.w3.org/1999/02/22-rdf-syntax-ns#" xmlns="http://www.w3.org/2000/svg" xml:space="preserve" height="104.27" viewBox="0 0 165.4375 104.2675" width="165.44" version="1.1" xmlns:cc="http://creativecommons.org/ns#" xmlns:dc="http://purl.org/dc/elements/1.1/"><g transform="matrix(1.25 0 0 -1.25 -71.605 681.9)"><g fill-rule="evenodd"><path d="m184.63 544.7h-49.955l-0.052-23.561h3.601c-3.964-3.403-6.07-5.211-8.033-6.896-1.943 1.712-3.989 3.515-7.862 6.929h5.528l-0.051 23.528h-69.749l0.051-23.561h13.602l34.649-30.112v-2.905h-12.266v-25.236h58.721v25.236h-11.966v3.423s32.421 27.784 34.532 29.594h13.427v23.561h-4.177z"/><path d="m62.28 525.32h10.995l37.265-32.385v-8.981h-12.266v-16.886h50.365v16.886h-11.964v9.517l37.164 31.849h10.795v15.206h-45.787l-0.033-15.206h10.694l-19.351-16.61-18.882 16.643h12.399l-0.033 15.173h-61.394l0.033-15.206z" fill="#fff"/><path d="m141.1 538.27c-0.006-2.698-0.018-7.987-0.024-10.695h14.525l-25.462-21.855-24.834 21.889h16.11c-0.006 2.704-0.018 7.967-0.024 10.661h-56.882c0.006-2.707 0.018-7.997 0.023-10.695h9.588l38.677-33.612v-12.263h-12.265v-12.377h45.853v12.377c-2.967 0.009-11.965 0-11.965 0v12.808l38.586 33.067h9.373v10.695h-41.279z" fill="#c8102e"/></g></g><script xmlns=""/></svg>